<svg xmlns="http://www.w3.org/2000/svg" width="36.1" height="36.1" viewBox="0 0 36.1 36.1"><path d="M36.1,18.06a10.21,10.21,0,0,0-.92-4.32c-.06-.13-.12-.26-.2-.4a4.23,4.23,0,0,0-.23-.41l0,0-.09-.14-.12-.19-.06-.09-.19-.28L34.12,12c-.19-.24-.39-.48-.59-.69l-.08-.08-.09-.09-.33-.3-.16-.15A9.67,9.67,0,0,0,32,10l-.38-.23h0l-.05,0-.34-.18a9.38,9.38,0,0,0-3.72-1A9.51,9.51,0,0,0,24.7,2.74,9.36,9.36,0,0,0,18.06,0a10.21,10.21,0,0,0-4.32.92l-.41.2-.4.23,0,0-.15.09-.15.09-.21.15-.2.14L12,2c-.24.19-.48.39-.7.6l-.16.17a3,3,0,0,0-.3.32l-.15.17c-.23.28-.45.58-.66.89l-.24.39,0,.05-.18.34a9.34,9.34,0,0,0-1,3.72,9.54,9.54,0,0,0-5.86,2.78A9.4,9.4,0,0,0,.17,16.36,10.41,10.41,0,0,0,0,18.2a9.6,9.6,0,0,0,.74,3.71,9.17,9.17,0,0,0,7.89,5.6,9.59,9.59,0,0,0,2.78,5.86,9.39,9.39,0,0,0,4.95,2.56,9.84,9.84,0,0,0,5.54-.56,9.17,9.17,0,0,0,5.61-7.89,9.56,9.56,0,0,0,5.85-2.78A9.36,9.36,0,0,0,36.1,18.06ZM10.82,5.53l.16-.3,0,0c.07-.12.13-.22.2-.32a6.88,6.88,0,0,1,.55-.75L11.87,4l.25-.27.14-.14a5.57,5.57,0,0,1,.59-.5L13,3l.17-.12.19-.13.11-.07a.57.57,0,0,0,.13-.08h0L14,2.35c.12-.07.24-.12.34-.17a8.81,8.81,0,0,1,3.74-.8,8,8,0,0,1,5.67,2.35,7.91,7.91,0,0,1,1.73,2.53,8.5,8.5,0,0,1,.63,2.35,10.73,10.73,0,0,0-4.91,1.63,3.68,3.68,0,0,0,.06-.66,3.19,3.19,0,0,0-3.18-3.17,3.31,3.31,0,0,0-2.3.86h0l-.06.05-.24.28a.35.35,0,0,0-.06.09l-.24.4L15,8.55s0,.1,0,.17v.06l0,.13V9a.53.53,0,0,0,0,.12.34.34,0,0,0,0,.09,2,2,0,0,0,0,.24v.21l.06.53c0,.07,0,.15.05.23l0,.09,0,.1.08.25a4.32,4.32,0,0,0,.19.45,8,8,0,0,0,.89,1.42,5.47,5.47,0,0,0-3.37,3.4L12.73,16l0-.05A10,10,0,0,1,10,9.25,8.17,8.17,0,0,1,10.82,5.53Zm9,21.33,0,.14v.05s0,.07,0,.11v0a1.36,1.36,0,0,1-.36.63l0,0,0,0-.06,0-.1.08-.1.07-.08,0-.06,0a2.26,2.26,0,0,1-.92.19,1.81,1.81,0,0,1-1.81-1.79,2.4,2.4,0,0,1,.21-1L17,24.32c.33-.28.68-.6,1.05-.95l.19.21.22.26c.14.16.26.31.36.44l0,0a.76.76,0,0,0,.08.11l0,0,.23.33,0,.07c.07.12.14.23.2.35l0,.08a1.24,1.24,0,0,1,.1.2c0,.09.07.18.1.26v0a2.77,2.77,0,0,1,.15.68v.38Zm-10.73-7h0l-.06,0H8.92a1.47,1.47,0,0,1-.63-.36l0,0,0-.06,0,0-.08-.1-.06-.1L8,19,8,19a2.1,2.1,0,0,1-.19-.92,1.8,1.8,0,0,1,1.79-1.81,2.48,2.48,0,0,1,.95.21l1.21.51.1.12.07.08.18.2.09.1.15.17.13.14,0,0,0,0h0c0,.11,0,.23,0,.34l0,0-.26.22c-.16.14-.3.26-.44.36l-.05,0-.12.09-.35.24-.07,0-.35.2-.07,0-.21.1-.26.1,0,0a3.2,3.2,0,0,1-.67.14H9.12Zm7.45-9.14c-.05-.11-.1-.21-.15-.34l-.09-.3,0-.14-.05-.48a.71.71,0,0,1,0-.14V9.25s0-.05,0-.07l0-.18V9l.08-.22.16-.28.16-.18a1.91,1.91,0,0,1,1.35-.47,1.79,1.79,0,0,1,1.8,1.78,2.54,2.54,0,0,1-.28,1.12L19,11.87l-.61.55-.35,0-.26,0A7.55,7.55,0,0,1,16.57,10.7ZM18,15a2.84,2.84,0,1,1-2.84,2.84A2.84,2.84,0,0,1,18,15ZM2,21.37a8.15,8.15,0,0,1-.63-3.17,8.45,8.45,0,0,1,.15-1.58,8.1,8.1,0,0,1,2.19-4.24A8.21,8.21,0,0,1,8.61,10a10.73,10.73,0,0,0,1.64,4.91,3.11,3.11,0,0,0-.67-.07,3.18,3.18,0,0,0-3.17,3.19,3.57,3.57,0,0,0,.31,1.5l.07.13.07.14L7,20a1.39,1.39,0,0,0,.15.19l0,.06.11.13,0,0a2.93,2.93,0,0,0,1.2.71h0l.14,0h.07l.15,0H9l.14,0h.63a4.16,4.16,0,0,0,1-.22h0a2.75,2.75,0,0,0,.36-.15l.28-.13.09,0a3.62,3.62,0,0,0,.43-.24l.08-.05.42-.29.14-.1.05,0,.24-.19a5.47,5.47,0,0,0,3.45,3.32l-.39.34a10.92,10.92,0,0,1-5,2.58,13.65,13.65,0,0,1-1.78.15A7.81,7.81,0,0,1,2,21.37ZM21.37,34.09a8.26,8.26,0,0,1-4.75.48,8.09,8.09,0,0,1-4.24-2.18A8.27,8.27,0,0,1,10,27.5c.6-.05,1.09-.14,1.13-.14a11.28,11.28,0,0,0,3.78-1.5,3,3,0,0,0-.07.67,3.18,3.18,0,0,0,3.19,3.17,3.57,3.57,0,0,0,1.5-.32l.13-.06.14-.08.16-.1.2-.15,0,0h0l.12-.11,0,0a2.8,2.8,0,0,0,.7-1.2v0s.05-.2.06-.21,0-.1,0-.15l0-.1s0-.08,0-.13v-.62a4.16,4.16,0,0,0-.22-1v0a7.15,7.15,0,0,0-.28-.65l0-.09c-.07-.14-.15-.28-.25-.44l0-.06c-.09-.14-.18-.28-.29-.43h0L20,23.5l0-.05c-.09-.11-.18-.23-.29-.35a5.51,5.51,0,0,0,3.47-3.28c.06.07.13.14.19.22A11,11,0,0,1,26,25.2c0,.14.1.56.11.81l0,.2c0,.21,0,.34,0,.54V27A7.79,7.79,0,0,1,21.37,34.09Zm5.09-17.88v.05h.45l.45.12.29.16.14.13h0l0,0a1.92,1.92,0,0,1,.48,1.35,1.8,1.8,0,0,1-1.79,1.8,2.57,2.57,0,0,1-1.12-.28L24.27,19c-.24-.28-.5-.58-.79-.89,0-.07,0-.14,0-.21a8,8,0,0,1,1.91-1.36l.34-.15.3-.09.16,0,.22,0Zm1,9.88v-.17a9.22,9.22,0,0,0-.13-1,10.87,10.87,0,0,0-1.5-3.77,3.68,3.68,0,0,0,.66.06,3.18,3.18,0,0,0,3.17-3.18,3.33,3.33,0,0,0-.86-2.31h0l0,0-.27-.24L28,15.18l-.5-.19-.15,0h-.06l-.14,0h-.07l-.14,0h-.4l-.65.07-.24.06H25.6l-.11,0-.13,0-.1,0a3,3,0,0,0-.45.19,8,8,0,0,0-1.55,1A5.49,5.49,0,0,0,20,12.79h0A10.17,10.17,0,0,1,26.85,10a8.17,8.17,0,0,1,3.72.86l.32.17,0,0,.31.19a8,8,0,0,1,.75.55l.13.12a3.45,3.45,0,0,1,.28.26l.13.13a7.19,7.19,0,0,1,.51.59l.12.16.41.63.2.34.17.34a9,9,0,0,1,.79,3.74,8,8,0,0,1-2.34,5.67A8.25,8.25,0,0,1,27.5,26.09Z" fill="#1b7cd1"/></svg>