<svg xmlns="http://www.w3.org/2000/svg" width="36.54" height="37" viewBox="0 0 36.54 37"><path d="M36.28,35.46l-4.46-4.2A7,7,0,0,0,33.26,27a6.8,6.8,0,1,0-6.8,6.94,6.69,6.69,0,0,0,4.42-1.66l4.27,4.35.38.39c.38,0,.61,0,.75-.3a.88.88,0,0,0,0-1.24m-9.82-3.09A5.74,5.74,0,0,1,21.17,27a5.47,5.47,0,0,1,5.29-5.4A5.23,5.23,0,0,1,31.75,27a5.46,5.46,0,0,1-5.29,5.39M11.33,29.29h3a.82.82,0,0,0,.75-.77V25.44a.82.82,0,0,0-.75-.77h-3a.82.82,0,0,0-.75.77v3.08a.82.82,0,0,0,.75.77m.76-3.08H13.6v1.54H12.09Zm-3-.77v3.08a.82.82,0,0,1-.76.77.81.81,0,0,1-.75-.77V25.44a.81.81,0,0,1,.75-.77.82.82,0,0,1,.76.77M24.18,14.65a.76.76,0,1,0,1.51,0V7.71L18.13,0H.76A.83.83,0,0,0,0,.77V33.15a.83.83,0,0,0,.76.77H15.87a.78.78,0,0,0,0-1.55H1.51V1.54H16.62V8.48a.83.83,0,0,0,.76.77h6.8ZM18.13,7.71V2.31L23,7.71Zm-12.84,17a.82.82,0,0,1,.76.77v3.08a.82.82,0,0,1-.76.77.82.82,0,0,1-.76-.77V25.44a.82.82,0,0,1,.76-.77m3.78-6.94A.82.82,0,0,0,8.31,17h-3a.82.82,0,0,0-.76.77v3.08a.82.82,0,0,0,.76.77h3a.82.82,0,0,0,.76-.77ZM7.56,20H6.05V18.5H7.56Zm7.55.77a.76.76,0,1,1-1.51,0V17.73a.76.76,0,1,1,1.51,0Zm-3-3.08v3.08a.82.82,0,0,1-.76.77.82.82,0,0,1-.75-.77V17.73a.82.82,0,0,1,.75-.77.82.82,0,0,1,.76.77m3-4.63a.76.76,0,1,1-1.51,0V10a.76.76,0,1,1,1.51,0Zm-10.58,0V10a.82.82,0,0,1,.76-.77.82.82,0,0,1,.76.77V13.1a.83.83,0,0,1-.76.78.83.83,0,0,1-.76-.78m7.56,0V10a.82.82,0,0,0-.76-.77h-3a.81.81,0,0,0-.75.77V13.1a.82.82,0,0,0,.75.78h3a.83.83,0,0,0,.76-.78m-1.51-.77H9.07V10.79h1.51Z" fill="#1b7cd1"/></svg>