<svg xmlns="http://www.w3.org/2000/svg" xmlns:xlink="http://www.w3.org/1999/xlink" width="36" height="36" viewBox="0 0 36 36"><defs><linearGradient id="a" x1="5.27" y1="30.73" x2="30.73" y2="5.27" gradientUnits="userSpaceOnUse"><stop offset="0" stop-color="#1b7cd1"/><stop offset="1" stop-color="#00baff"/></linearGradient></defs><circle cx="18" cy="18" r="18" fill="url(#a)"/><path d="M28.25,18a5.77,5.77,0,0,0-.53-2.45l-.11-.23-.13-.23v0l0-.08-.07-.11,0-.05-.11-.16-.08-.11c-.11-.13-.22-.27-.34-.39l0,0,0-.05-.19-.18-.09-.08a4.74,4.74,0,0,0-.51-.37l-.21-.13h0l-.2-.1a5.38,5.38,0,0,0-2.11-.57A5.44,5.44,0,0,0,22.92,11,5.35,5.35,0,0,0,18,7.75a5.77,5.77,0,0,0-2.45.53l-.23.11-.23.13h0L15,8.58l-.08.06-.13.08-.1.08-.12.08c-.13.11-.27.22-.39.34l-.09.09-.18.19-.08.09a4.74,4.74,0,0,0-.37.51l-.14.22v0a1.74,1.74,0,0,0-.1.19,5.38,5.38,0,0,0-.57,2.11A5.38,5.38,0,0,0,7.85,17a6.22,6.22,0,0,0-.1,1.05,5.43,5.43,0,0,0,.42,2.1,5.24,5.24,0,0,0,4.48,3.18,5.44,5.44,0,0,0,1.58,3.32A5.38,5.38,0,0,0,17,28.15a6.22,6.22,0,0,0,1.05.1,5.43,5.43,0,0,0,2.1-.42,5.22,5.22,0,0,0,3.18-4.48,5.45,5.45,0,0,0,3.32-1.57A5.38,5.38,0,0,0,28.25,18ZM13.9,10.9l.09-.18v0l.11-.18a4.56,4.56,0,0,1,.31-.42l.07-.08.14-.15.08-.08c.11-.1.22-.2.34-.29l.09-.07.09-.07.11-.07.07,0,.07-.05h0l.2-.11.19-.1A5,5,0,0,1,18,8.54a4.53,4.53,0,0,1,3.22,1.33,4.39,4.39,0,0,1,1,1.43,4.51,4.51,0,0,1,.36,1.34,6.11,6.11,0,0,0-2.79.93,1.64,1.64,0,0,0,0-.38A1.81,1.81,0,0,0,18,11.39a1.86,1.86,0,0,0-1.3.49h0l0,0-.14.16,0,0-.13.23-.1.26s0,.05,0,.09v0s0,0,0,.08v0s0,.06,0,.08V13a.57.57,0,0,0,0,.13v.12l0,.3,0,.13s0,0,0,.06a.43.43,0,0,1,0,0l.05.14c0,.09.07.17.11.26A4.4,4.4,0,0,0,17,15,3.14,3.14,0,0,0,15,16.9L15,16.83l0,0A5.69,5.69,0,0,1,13.41,13,4.49,4.49,0,0,1,13.9,10.9ZM19,23v.11l0,.06h0a.77.77,0,0,1-.21.36h0l0,0,0,0-.06,0-.05,0-.05,0,0,0a1.29,1.29,0,0,1-.53.11,1,1,0,0,1-1-1,1.39,1.39,0,0,1,.12-.54l.31-.71q.29-.24.6-.54l.11.12.13.15.2.25,0,0,0,.06,0,0c0,.07.09.13.13.19l0,0a2,2,0,0,1,.11.2l0,0,.05.12.06.15v0a1.72,1.72,0,0,1,.08.38v0a.17.17,0,0,1,0,.07A.22.22,0,0,1,19,23Zm-6.09-4h-.11a.77.77,0,0,1-.36-.21h0l0,0,0,0,0-.06,0-.05s0,0,0-.05l0,0a1.29,1.29,0,0,1-.11-.53,1,1,0,0,1,1-1,1.39,1.39,0,0,1,.54.12l.69.29.06.06,0,.05.09.11.06.06.08.09.07.08,0,0,0,0h0c0,.07,0,.13,0,.2l0,0-.15.13-.25.2,0,0-.06.05-.2.14,0,0-.2.12,0,0-.12.05-.15.06h0a1.72,1.72,0,0,1-.38.08h0A.42.42,0,0,1,13,19h-.09Zm4.23-5.18a.93.93,0,0,1-.08-.2L17,13.46s0-.05,0-.08l0-.27V13l0-.11v0l0-.12.09-.16.09-.1a1.05,1.05,0,0,1,.76-.27,1,1,0,0,1,1,1,1.55,1.55,0,0,1-.16.64l-.34.66-.35.31h-.35A4.6,4.6,0,0,1,17.16,13.83ZM18,16.28a1.61,1.61,0,1,1-1.61,1.6A1.61,1.61,0,0,1,18,16.28ZM8.9,19.88a4.54,4.54,0,0,1-.36-1.79,5.38,5.38,0,0,1,.08-.9,4.73,4.73,0,0,1,1.24-2.41,4.68,4.68,0,0,1,2.78-1.34,6.14,6.14,0,0,0,.93,2.79,2.45,2.45,0,0,0-.38,0A1.81,1.81,0,0,0,11.39,18a2,2,0,0,0,.18.86.43.43,0,0,0,0,.07.59.59,0,0,0,0,.08l.06.09.08.11,0,0,.07.07,0,0a1.62,1.62,0,0,0,.68.4h0l.08,0h0l.09,0h.48a1.94,1.94,0,0,0,.57-.12h0l.21-.08.16-.08.05,0,.24-.14.05,0,.24-.16.08-.06,0,0,.13-.11a3.14,3.14,0,0,0,2,1.89l-.22.18A6.18,6.18,0,0,1,14,22.51a7.24,7.24,0,0,1-1,.09A4.43,4.43,0,0,1,8.9,19.88Zm11,7.22a4.74,4.74,0,0,1-5.1-1,4.68,4.68,0,0,1-1.34-2.78,6,6,0,0,0,.65-.08,6.27,6.27,0,0,0,2.14-.85,2.45,2.45,0,0,0,0,.38A1.81,1.81,0,0,0,18,24.61a2,2,0,0,0,.86-.18l.07,0,.08,0,.09-.06.12-.08,0,0h0l.07-.06,0,0a1.56,1.56,0,0,0,.4-.68h0s0-.12,0-.12,0-.06,0-.09v-.48a1.94,1.94,0,0,0-.12-.57v0a1.8,1.8,0,0,0-.08-.21,1.19,1.19,0,0,0-.08-.16l0-.05a2.36,2.36,0,0,0-.15-.25l0,0a2.79,2.79,0,0,0-.17-.25h0a.18.18,0,0,1,0-.07l0,0-.17-.2a3.11,3.11,0,0,0,2-1.86l.11.13a6.28,6.28,0,0,1,1.52,2.93,3.79,3.79,0,0,1,.07.46v.11c0,.12,0,.19,0,.31v.12A4.43,4.43,0,0,1,19.88,27.1ZM22.77,17v0H23l.26.07.16.09.08.07h0l0,0a1.05,1.05,0,0,1,.27.76,1,1,0,0,1-1,1,1.59,1.59,0,0,1-.64-.16l-.64-.32-.45-.5v-.12a4.61,4.61,0,0,1,1.09-.77.93.93,0,0,1,.2-.08l.17-.06.08,0h.13Zm.6,5.6v-.09c0-.22-.07-.52-.08-.56a6.22,6.22,0,0,0-.85-2.14,1.64,1.64,0,0,0,.38,0A1.81,1.81,0,0,0,24.61,18a1.84,1.84,0,0,0-.49-1.3h0l0,0-.16-.14-.27-.16-.28-.11-.09,0h-.46l-.37,0-.14,0h0l-.06,0-.07,0-.06,0-.26.11A4.68,4.68,0,0,0,21,17a3.11,3.11,0,0,0-1.84-2h0A5.8,5.8,0,0,1,23,13.41a4.49,4.49,0,0,1,2.11.49l.19.09h0l.18.11a4.56,4.56,0,0,1,.42.31l.08.07.16.15.07.07c.1.11.2.22.29.34l.07.09.23.35a2,2,0,0,1,.11.2l.1.19A5,5,0,0,1,27.46,18a4.53,4.53,0,0,1-1.33,3.22A4.66,4.66,0,0,1,23.37,22.56Z" fill="#fff"/></svg>