<svg xmlns="http://www.w3.org/2000/svg" xmlns:xlink="http://www.w3.org/1999/xlink" width="36" height="36" viewBox="0 0 36 36"><defs><linearGradient id="a" x1="5.27" y1="30.73" x2="30.73" y2="5.27" gradientUnits="userSpaceOnUse"><stop offset="0" stop-color="#1b7cd1"/><stop offset="1" stop-color="#00baff"/></linearGradient></defs><circle cx="18" cy="18" r="18" fill="url(#a)"/><path d="M7.89,21.23A1.61,1.61,0,0,1,9,19.66l3.61-1.28a.48.48,0,0,0,.31-.44V16.72a3.87,3.87,0,0,0,1.28.23,3.47,3.47,0,0,0,1.46-.33v1.32a.4.4,0,0,0,.31.44l3.6,1.28.31-.9-3.3-1.12V16a5,5,0,0,0,1.69-3.83c0-2.55-1.84-4.65-4.07-4.65a4.43,4.43,0,0,0-4.16,4.65,4.87,4.87,0,0,0,2,4v1.41L8.73,18.76A2.58,2.58,0,0,0,7,21.23v1.34a.49.49,0,0,0,.46.45h9.68v-.9H7.89ZM14.24,8.46a3.37,3.37,0,0,1,3.09,3,2,2,0,0,1-2.17-1.2.61.61,0,0,0-.38-.22.53.53,0,0,0-.47.29A3,3,0,0,1,12,11.48a2.48,2.48,0,0,1-.9-.18,3.36,3.36,0,0,1,3.14-2.84M11,12.23a3.5,3.5,0,0,0,1,.15,4.14,4.14,0,0,0,2.7-1.05,2.62,2.62,0,0,0,2.16,1.05h.52c-.07,2-1.5,3.66-3.14,3.66S11,14.32,11,12.23m12.36.15h-.53a2.67,2.67,0,0,1-2.45-1.64.4.4,0,0,1,.15-.6.61.61,0,0,1,.61.15,2,2,0,0,0,2.17,1.2,3.36,3.36,0,0,0-3.08-3A.44.44,0,0,1,19.77,8a.4.4,0,0,1,.46-.45,4.35,4.35,0,0,1,4,4.18l0,0s0,.07,0,.11,0,.21,0,.32A5,5,0,0,1,22.63,16v1a.48.48,0,0,1-.95,0v-.42a3.57,3.57,0,0,1-1.45.32.4.4,0,0,1-.46-.46.44.44,0,0,1,.46-.45c1.64,0,3.06-1.64,3.13-3.66M29,22c0-.23-.23-.3-.38-.3H25.69l-1.31-2.92c0-.15-.22-.23-.38-.23a.56.56,0,0,0-.46.23L22.32,21.7H19.4a.42.42,0,0,0-.46.3.36.36,0,0,0,.16.45l2.53,2.1-1.31,3.29a.5.5,0,0,0,.16.53.7.7,0,0,0,.53,0l3-2.1,2.91,2.1c.08,0,.23.07.31.07s.15-.07.23-.07a.39.39,0,0,0,.15-.53l-1.22-3.29,2.53-2.1c.15-.08.15-.3.07-.45m-3.45,2a.46.46,0,0,0-.15.53l.84,2.17-2-1.35A.29.29,0,0,0,24,25.3a.48.48,0,0,0-.3.07l-2,1.35.85-2.17a.46.46,0,0,0-.08-.53L20.63,22.6h2a.51.51,0,0,0,.39-.3l1-2.17.92,2.17a.52.52,0,0,0,.46.3H27.3Z" fill="#fff" fill-rule="evenodd"/></svg>