<svg xmlns="http://www.w3.org/2000/svg" width="22.63" height="23.55" viewBox="0 0 22.63 23.55"><path d="M22.54,19.17V23a.45.45,0,0,1-.13.33.3.3,0,0,1,0,.08.49.49,0,0,1-.33.08h-4a.47.47,0,0,1-.5-.49.53.53,0,0,1,.5-.48h2.67c-6.23-5.58-6.23-5.59-6.23-5.59L9.84,20.46a.41.41,0,0,1-.58,0l-9-7.77A.42.42,0,0,1,.21,12,.53.53,0,0,1,1,12l8.64,7.53,4.65-3.64a.51.51,0,0,1,.66,0l6.64,6V19.17c0-.32.17-.48.5-.48A.47.47,0,0,1,22.54,19.17ZM7.63,15.27a.79.79,0,0,0,.42-.08A.51.51,0,0,0,8,14.46a7.84,7.84,0,0,1-2.32-5.6,8,8,0,0,1,15.91,0,7.66,7.66,0,0,1-2.32,5.52.45.45,0,0,0,0,.73.51.51,0,0,0,.66,0,9,9,0,0,0,2.65-6.25,8.95,8.95,0,0,0-17.89,0A8.67,8.67,0,0,0,7.3,15.19.51.51,0,0,0,7.63,15.27Zm6-9.16h0a1.12,1.12,0,0,1,1.16,1.13.5.5,0,0,0,1,0,2.15,2.15,0,0,0-1.68-2V4.48A.52.52,0,0,0,13.59,4a.46.46,0,0,0-.48.48v.71a2.16,2.16,0,0,0-1.74,2.05,2.14,2.14,0,0,0,2.24,2.11,1.18,1.18,0,0,1,1.16,1.21,1.13,1.13,0,0,1-1.16,1.14h0a1.18,1.18,0,0,1-1.22-1.13.47.47,0,0,0-.5-.48.53.53,0,0,0-.5.48,2.16,2.16,0,0,0,1.74,2v.71a.47.47,0,0,0,.48.49.53.53,0,0,0,.49-.49v-.71a2.15,2.15,0,0,0,1.68-2,2.19,2.19,0,0,0-2.15-2.19,1.19,1.19,0,0,1-1.24-1.13A1.18,1.18,0,0,1,13.59,6.11Z" fill="#fff" stroke="#fff" stroke-miterlimit="10" stroke-width="0.18" fill-rule="evenodd"/></svg>