<svg xmlns="http://www.w3.org/2000/svg" width="38.88" height="36.8" viewBox="0 0 38.88 36.8"><path d="M1.63,24.09a2.85,2.85,0,0,1,2-2.77L10,19.08a.89.89,0,0,0,.54-.79V16.14a6.5,6.5,0,0,0,2.25.4A6.26,6.26,0,0,0,15.39,16v2.31a.73.73,0,0,0,.54.79l6.36,2.24.54-1.58-5.81-2V15A8.8,8.8,0,0,0,20,8.2C20,3.71,16.74,0,12.81,0S5.49,3.71,5.49,8.2a8.61,8.61,0,0,0,3.45,7.09v2.47l-5.83,2A4.57,4.57,0,0,0,0,24.09v2.37a.87.87,0,0,0,.81.79H17.87V25.67H1.63ZM12.81,1.59c2.63,0,4.94,2.26,5.45,5.34-1.69.22-2.76-.32-3.82-2.11a1.12,1.12,0,0,0-.68-.4A.89.89,0,0,0,13,5a5.47,5.47,0,0,1-4.08,2,4.23,4.23,0,0,1-1.58-.33,5.92,5.92,0,0,1,5.52-5M7.11,8.23a6.13,6.13,0,0,0,1.76.26,7.26,7.26,0,0,0,4.76-1.84,4.6,4.6,0,0,0,3.8,1.84h.92C18.22,12.07,15.71,15,12.81,15c-3.11,0-5.69-3-5.7-6.73m21.78.26H28c-1.89,0-3.24-.92-4.32-2.89a.7.7,0,0,1,.27-1A1.06,1.06,0,0,1,25,4.82C26,6.62,27.1,7.15,28.8,6.93,28.29,3.85,26,1.59,23.37,1.59a.77.77,0,0,1-.81-.8A.71.71,0,0,1,23.37,0C27,0,30.12,3.26,30.49,7.37l0,.07a1.11,1.11,0,0,1,0,.19c0,.19,0,.38,0,.57a8.81,8.81,0,0,1-2.92,6.71v1.81a.84.84,0,0,1-1.68,0V16a6.13,6.13,0,0,1-2.55.56.71.71,0,0,1-.81-.79.77.77,0,0,1,.81-.79c2.89,0,5.39-2.89,5.52-6.47m9.9,17c0-.4-.4-.53-.67-.53H33l-2.3-5.15c0-.26-.4-.4-.67-.4a1,1,0,0,0-.81.4L27,24.92H21.91a.74.74,0,0,0-.81.53.63.63,0,0,0,.27.79l4.46,3.7-2.3,5.81a.87.87,0,0,0,.27.92,1.21,1.21,0,0,0,.95,0L30,33l5.13,3.7c.13,0,.4.13.54.13s.27-.13.4-.13a.67.67,0,0,0,.27-.92L34.2,29.94l4.46-3.7c.27-.13.27-.53.13-.79M32.72,29a.81.81,0,0,0-.27.93l1.48,3.83-3.51-2.38a.5.5,0,0,0-.4-.13.86.86,0,0,0-.55.13L26,33.77l1.49-3.83a.79.79,0,0,0-.14-.93L24.07,26.5h3.51a.89.89,0,0,0,.68-.52L30,22.15,31.64,26a.9.9,0,0,0,.81.52h3.37Z" fill="#1b7cd1" fill-rule="evenodd"/></svg>