<svg xmlns="http://www.w3.org/2000/svg" xmlns:xlink="http://www.w3.org/1999/xlink" viewBox="0 0 1000 549"><defs><clipPath id="a"><rect x="0.2" y="-56.27" width="1000" height="611.21" fill="none"/></clipPath><linearGradient id="b" x1="1054.28" y1="473.78" x2="-241.5" y2="473.78" gradientUnits="userSpaceOnUse"><stop offset="0" stop-color="#b0b5b5"/><stop offset="1" stop-color="#42474e"/></linearGradient><linearGradient id="c" x1="432.78" y1="495.44" x2="991.76" y2="495.44" gradientUnits="userSpaceOnUse"><stop offset="0" stop-color="#00b6ff"/><stop offset="1" stop-color="#42004e"/></linearGradient><clipPath id="d"><rect x="914.7" y="335.86" width="38.24" height="25.11" transform="translate(1867.64 696.83) rotate(180)" fill="none"/></clipPath></defs><g style="isolation:isolate"><g clip-path="url(#a)"><polygon points="961.34 314.41 561.14 314.41 456.24 419.31 293.89 419.14 293.89 564.01 961.34 564.01 961.34 314.41" fill="#2776ab" stroke="#2776ab" stroke-miterlimit="10" stroke-width="2"/><polygon points="-97.27 419.1 476.24 419.1 581.14 314.37 1182.68 314.37 1182.68 633.19 -97.15 633.19 -97.27 419.1" fill="url(#b)"/><rect x="220.2" y="439.71" width="27.29" height="33.08" fill="#b3b7cb" style="mix-blend-mode:multiply"/><rect x="215.08" y="435.11" width="27.29" height="33.08" fill="#fff"/><line x1="225.34" y1="462.06" x2="232.1" y2="462.06" fill="none" stroke="#943dc3" stroke-miterlimit="10" stroke-width="1.84"/><line x1="220.01" y1="454.13" x2="237.44" y2="454.13" fill="none" stroke="#943dc3" stroke-miterlimit="10" stroke-width="1.84"/><line x1="220.01" y1="447.92" x2="237.44" y2="447.92" fill="none" stroke="#943dc3" stroke-miterlimit="10" stroke-width="1.84"/><line x1="220.01" y1="441.72" x2="237.44" y2="441.72" fill="none" stroke="#943dc3" stroke-miterlimit="10" stroke-width="1.84"/><g style="mix-blend-mode:multiply"><line x1="852.35" y1="436.04" x2="852.35" y2="315.12" fill="none" stroke="#9d918e" stroke-miterlimit="10"/><polyline points="645.52 436.37 626.51 419.16 662.74 379.6 662.74 314.76" fill="none" stroke="#9d918e" stroke-miterlimit="10"/><line x1="625.95" y1="419.57" x2="476.24" y2="419.57" fill="none" stroke="#9d918e" stroke-miterlimit="10"/><line x1="477.01" y1="420.21" x2="477.84" y2="551.31" fill="none" stroke="#9d918e" stroke-miterlimit="10"/><polyline points="334.95 556.44 385.66 517 385.66 418.43" fill="none" stroke="#9d918e" stroke-miterlimit="10"/><polyline points="238.1 556.44 187.4 517 187.4 418.43" fill="none" stroke="#9d918e" stroke-miterlimit="10"/><line x1="187.4" y1="517" x2="-2.69" y2="517" fill="none" stroke="#9d918e" stroke-miterlimit="10"/></g><polyline points="-97.21 419.1 476.24 419.27 581.14 314.37 1182.68 314.37" fill="none" stroke="#3b3e5d" stroke-miterlimit="10" stroke-width="2"/><polygon points="1182.68 437.21 1182.68 552.96 517.53 553.66 517.53 471.06 645.52 471.06 645.52 437.21 1182.68 437.21" fill="url(#c)"/><polyline points="517.53 553.66 517.53 471.06 645.52 471.06 645.52 437.21 1182.68 437.21" fill="none" stroke="#fff" stroke-miterlimit="10" stroke-width="2"/><g opacity="0.4" style="mix-blend-mode:overlay"><polyline points="1108.83 533.86 984.22 533.86 956.57 561.51 931.89 561.51" fill="none" stroke="#dae1ff" stroke-miterlimit="10" stroke-width="1.84"/></g><g opacity="0.4" style="mix-blend-mode:overlay"><polyline points="617.78 510.67 686.06 510.67 732.39 464.34 850.45 464.34" fill="none" stroke="#dae1ff" stroke-miterlimit="10" stroke-width="2"/><polyline points="850.45 464.34 766.62 464.34 753.97 451.69 713.51 451.69 676.21 488.99 550.55 488.99" fill="none" stroke="#dae1ff" stroke-miterlimit="10" stroke-width="2"/><line x1="748.07" y1="489.01" x2="872.68" y2="489.01" fill="none" stroke="#dae1ff" stroke-miterlimit="10" stroke-width="2"/><polyline points="769.13 511.66 893.74 511.66 921.39 484.01 946.07 484.01" fill="none" stroke="#dae1ff" stroke-miterlimit="10" stroke-width="2"/><polyline points="617.78 533.41 589.76 533.41 589.76 505.97 551.92 505.97" fill="none" stroke="#dae1ff" stroke-miterlimit="10" stroke-width="2"/><polyline points="742.4 511.66 709.72 511.66 687.97 533.41 617.78 533.41" fill="none" stroke="#dae1ff" stroke-miterlimit="10" stroke-width="2"/><line x1="768.05" y1="530.75" x2="865.22" y2="530.75" fill="none" stroke="#dae1ff" stroke-miterlimit="10" stroke-width="2"/><polyline points="973.52 484.38 993.19 484.38 993.19 445.11 1016.71 445.11" fill="none" stroke="#dae1ff" stroke-miterlimit="10" stroke-width="2"/><line x1="876.03" y1="464.62" x2="973.52" y2="464.62" fill="none" stroke="#dae1ff" stroke-miterlimit="10" stroke-width="2"/><circle cx="617.78" cy="510.67" r="3.15" fill="#dae1ff"/><circle cx="550.38" cy="506.07" r="3.15" fill="#dae1ff"/><circle cx="850.45" cy="464.62" r="3.15" fill="#dae1ff"/><circle cx="748.07" cy="489.01" r="3.15" fill="#dae1ff"/><circle cx="872.68" cy="489.01" r="3.15" fill="#dae1ff"/><circle cx="769.13" cy="511.66" r="3.15" fill="#dae1ff"/><circle cx="946.07" cy="484.38" r="3.15" fill="#dae1ff"/><circle cx="742.4" cy="511.66" r="3.15" fill="#dae1ff"/><circle cx="550.81" cy="488.99" r="3.15" fill="#dae1ff"/><circle cx="866.48" cy="530.75" r="3.15" fill="#dae1ff"/><circle cx="769.13" cy="530.75" r="3.15" fill="#dae1ff"/><circle cx="973.52" cy="464.62" r="3.15" fill="#dae1ff"/><circle cx="876.03" cy="464.62" r="3.15" fill="#dae1ff"/><line x1="927.16" y1="511.66" x2="1016.71" y2="511.66" fill="none" stroke="#dae1ff" stroke-miterlimit="10" stroke-width="2"/><circle cx="927.16" cy="511.66" r="3.15" fill="#dae1ff"/><circle cx="973.52" cy="484.38" r="3.15" fill="#dae1ff"/></g><path d="M772.56,416.18h0a4.13,4.13,0,0,0,4.12-4.12v-5.43a4.12,4.12,0,0,0-4.12-4.11h0a4.12,4.12,0,0,0-4.11,4.11v5.43A4.12,4.12,0,0,0,772.56,416.18Z" fill="#313545" fill-rule="evenodd"/><path d="M772.74,428.85h0a1.67,1.67,0,0,0,1.67-1.67V396.56a1.67,1.67,0,0,0-1.67-1.67h0a1.66,1.66,0,0,0-1.66,1.67v30.62A1.66,1.66,0,0,0,772.74,428.85Z" fill="#313545"/><circle cx="772.51" cy="434.03" r="2.14" fill="#313545"/><circle cx="760.27" cy="434.03" r="2.14" fill="#313545"/><circle cx="784.76" cy="434.03" r="2.14" fill="#313545"/><path d="M758.5,430.2h28a1.36,1.36,0,0,0,1.35-1.35h0a1.35,1.35,0,0,0-1.35-1.35h-28a1.34,1.34,0,0,0-1.35,1.35h0A1.35,1.35,0,0,0,758.5,430.2Z" fill="#313545"/><path d="M791.84,398.73l6.5-23.58h3.21l-7,25.39a4.21,4.21,0,0,1-4,3.08h-13.3v-3.2h12.44A2.3,2.3,0,0,0,791.84,398.73Z" fill="#313545"/><path d="M785.36,406.58H757.54a4.67,4.67,0,0,1-4.67-4.66h0a4.67,4.67,0,0,1,4.67-4.67h27.82a4.67,4.67,0,0,1,4.67,4.67h0A4.67,4.67,0,0,1,785.36,406.58Z" fill="#fff"/><path d="M796.71,370.16h4.05a1.51,1.51,0,0,1,1.51,1.51v11.55a1.51,1.51,0,0,1-1.51,1.51h-4.05a0,0,0,0,1,0,0V370.16a0,0,0,0,1,0,0Z" transform="translate(128.64 -198.41) rotate(15.37)" fill="#313545"/><path d="M802.87,357.28l-9.55,34.06a4.05,4.05,0,0,1-5,2.82h0a4.05,4.05,0,0,1-2.82-5L795,355.08a4.07,4.07,0,0,1,5-2.82h0A4.06,4.06,0,0,1,802.87,357.28Z" fill="#fff"/><path d="M733.9,430.32l-4.36.17,15.69-39.71,32.07-2.88-2.29,6c-26.42,1.32-25.62,4.95-25.62,4.95C750.06,408.46,743.74,415.63,733.9,430.32Z" fill="#d66262"/><path d="M751.49,430.57l-3.37-.06-2.62-29.62c-2-16.11,5.54-10,31.18-11.46l0,3.74c-26.16,1.33-24.38,6.62-24.38,6.62C754.77,409.53,752.9,413,751.49,430.57Z" fill="#ed6c6c"/><path d="M777.84,399.65,751.93,401l-6.7-10.32,29.41-9.08c3,0,6.23-1.49,6.23,2.27l1.85,9C782.72,396.6,780.79,399.65,777.84,399.65Z" fill="#a0a3a5"/><path d="M775.5,397.68c4.11-.24,4.43-5.59,2.12-13.58l-.91-2.71c2.19-.25,4.06-.41,4.06,2.44l1.86,9c.9,4.07-1.93,6.81-4.88,6.81L751.84,401l-.62-.95Z" fill="#909397"/><path d="M740.81,373.61l-3.19-.38a2.66,2.66,0,0,0-1.82.44l-3.71,2.5,1.52,1.08,4,.26a4.1,4.1,0,0,0,2.63-.84l1.33-1Z" fill="#ed6c6c"/><path d="M753.12,373.45c-4.87.05-7.46.34-12.35.28L739.62,376c9.81,1.6,13.22,3.56,17.21,2.15C759.82,371.48,758,378,753.12,373.45Z" fill="#ed6c6c"/><path d="M765.33,331.93s-8.83-2.65-7.54,5.68c1.13,7.39,5.39,10.77,5.39,10.77l3.74-15.4Z" fill="#220350"/><polygon points="770.76 353.16 765.82 355.39 761.35 345.7 766.19 343.27 770.76 353.16" fill="#ed6c6c"/><path d="M769.25,339.84c0-4.22-.18-5-3.62-6.36-3.55-1.08-1.41.67-5.33.78-2.31.07-2.73,2.11-2.87,4.76a3.65,3.65,0,0,1-1.6,2.52c-.34.58.59,1.23.84,1.56s-.09,3,.74,3.61c.67.48,4.68,1.11,4.68,1.11,4.54-1.34,4.83-9.84,4.83-9.84C767.43,336.61,769.26,341,769.25,339.84Z" fill="#ed6c6c"/><path d="M766.08,331.93s8,1.29,4.07,10.56a8.35,8.35,0,0,1-2,3,2.39,2.39,0,0,1-2.39.56,2,2,0,0,1-1.3-.91c-1.74-3.93-1.42-3-2.14-9.2l-2.68-1.79,3-2.19Z" fill="#220350"/><path d="M763.64,343s2.9-5.44,1.16-7.42l-5.55-2.36S758.74,339.59,763.64,343Z" fill="#220350"/><path d="M764,351.28l-4.63,8.35a14.1,14.1,0,0,0-2.19,8.76l5.43,5.36,2.2,6.15c-.63,2.25-1.71,4.41.21,4.63l16.31-.56c-1-20-4.29-31.67-12.27-34.63C768,348.92,766.28,350.09,764,351.28Z" fill="#e8e8e8"/><polygon points="762.35 351.69 769.34 347.53 771.07 349.46 761.5 355.09 762.35 351.69" fill="#fff"/><path d="M756.82,378.41c-2.55-.78-4.18-2.32-4.44-5L763.25,359c.79-1.3,2-3,3.46-3.31,1.9-.36,4.08.77,2.94,4.7C768.67,363.76,761.23,373.68,756.82,378.41Z" fill="#e8e8e8"/><path d="M729.54,430l-3.87,2.46c-.78.6-4.55,1.22-4.68,1.64h0a1.75,1.75,0,0,0,1.9,2l2.11.07,7.75-.45s2.61-.41,1.15-5.4Z" fill="#220350" fill-rule="evenodd"/><path d="M747.13,430l-3.87,2.46c-.78.6-4.55,1.22-4.68,1.64h0a1.75,1.75,0,0,0,1.9,2l2.11.07,7.75-.45s2.61-.41,1.14-5.4Z" fill="#220350" fill-rule="evenodd"/><path d="M714.36,381.61h33.27a1.4,1.4,0,0,0,1.4-1.4h0a1.4,1.4,0,0,0-1.4-1.39H714.36a1.39,1.39,0,0,0-1.39,1.39h0A1.4,1.4,0,0,0,714.36,381.61Z" fill="#fff" fill-rule="evenodd"/><path d="M761.57,341.62c-.27,1.32.24,2.47,1.14,2.58s1.85-.87,2.11-2.19-.25-2.48-1.15-2.59S761.83,340.3,761.57,341.62Z" fill="#ed6c6c"/><path d="M768.94,335.1s7.78-2.74,8.94,7c1,8-2.67,11-1.17,14.24a1.09,1.09,0,0,1-1.34,1.48c-3-.92-7-3-6.72-7.37.46-6.93.33-11.75-.08-11.89S768.94,335.1,768.94,335.1Z" fill="#220350"/><path d="M765.85,367c4.81,6.41,4.91,17.31,4.91,17.31l-5.72.2c-1.92-.22-.84-2.38-.21-4.63l-.93-2.6-1.27-3.55-1.13-1.12Z" fill="#fff"/><path d="M740.6,378.67H721.73v-2.2H742.8A2.2,2.2,0,0,1,740.6,378.67Z" fill="#d1d1d1"/><rect x="707.13" y="367.15" width="22.38" height="2.2" rx="0.5" transform="translate(783.21 -436.35) rotate(67.47)" fill="#d1d1d1"/><path d="M751.48,430.32s-4.64,4.64-8.43,2.3l5.34-3.45Z" fill="#ed6c6c" fill-rule="evenodd"/><path d="M733.93,430.32s-4.65,4.64-8.44,2.3l5.34-3.45Z" fill="#d66262" fill-rule="evenodd"/><polygon points="346.12 490.09 338.68 490.09 333.59 475.16 341.02 475.16 346.12 490.09" fill="#220350" fill-rule="evenodd"/><polygon points="281.49 538.22 287.08 540.89 290.88 536.55 285.29 533.88 281.49 538.22" fill="#7e4183" fill-rule="evenodd"/><path d="M290.26,546.46H293V549H288.6l-9.4-8.35,2.33-3,5.83,2.92Z" fill="#220350" fill-rule="evenodd"/><path d="M312.19,517l-23.45,23.18-5.93-5.33c5.11-6.22,13.19-20.39,20.63-23.23Z" fill="#11003d" fill-rule="evenodd"/><path d="M271.69,496.61s-1.79,14,9.91,15.6,34.49,1,34.49,1,2-10-5.24-11.74c-9.09-2.17-13.82-3.25-13.82-3.25Z" fill="#220350" fill-rule="evenodd"/><path d="M279.45,462.35l2.82-8.84,6.21,2.34-1.19,8.43c-1.85-2.1-4.67-2.36-7.84-1.93Z" fill="#ed6c6c" fill-rule="evenodd"/><path d="M284.91,456.29a9,9,0,0,0,2.76,5.35l.25-1.77.36-2.59A5.48,5.48,0,0,1,284.91,456.29Z" fill="#d66262" fill-rule="evenodd"/><path d="M281,449.13c.84-4.14,1.14-4.85,4.78-5.55,3.69-.37,1.25.93,5.08,1.8,2.25.5,2.27,2.59,1.89,5.21a3.68,3.68,0,0,0,1.1,2.79c.22.63-.83,1.09-1.13,1.36s-.08,3.41-1,3.93c-2.39,1.43-6.3-.23-6.3-.23-4.21-2.19-1.82-10.7-1.82-10.7C283.42,446.31,280.79,450.23,281,449.13Z" fill="#ed6c6c"/><path d="M285.73,451s-2.16,4.4-4.07,6.29c-1,1-2.15-.21-2.24-1.67-.16-2.9-2.23-5.49-1-9.64.62-2.14,5.56-3.27,9.31-3.59,4.35-.37,9.28,5.4,2.08,6l-2.23,4.08a.77.77,0,0,1-1.41-.15Z" fill="#220350" fill-rule="evenodd"/><path d="M283.83,450.09a2.14,2.14,0,0,1,1.22,4,2.14,2.14,0,0,1-1.22-4Z" fill="#ed6c6c" fill-rule="evenodd"/><rect x="308.94" y="488.61" width="23.25" height="1.48" transform="translate(641.14 978.7) rotate(-180)" fill="#dae1ff"/><rect x="257.43" y="490.09" width="98.9" height="2.79" rx="0.66" fill="#220350"/><path d="M297.82,476.85,297,498.21s-11,3.46-25.8-.51c-1-.74-1.17-2.07-.22-4.16l-.26-14.15a34,34,0,0,1,1.18-9.69c1.08-3.93,3.05-8.22,6.55-8.84s5.58-.35,9.64.55a11.81,11.81,0,0,1,9.12,10.09Z" fill="#b3b7e7" fill-rule="evenodd"/><path d="M318.84,485.47s2-1.86,3.5-1.34c.73.24,1.85.09,3,.49a9.51,9.51,0,0,1,2.66,1.95,1.88,1.88,0,0,1-1.11,2.05c-.48.18-2.18-.92-2.18-.92a11.75,11.75,0,0,1-5.57,1.3l-3.53-.16-1.63-2Z" fill="#ed6c6c" fill-rule="evenodd"/><path d="M295.51,467l9.56,14.92,12.12,1.58a2.18,2.18,0,0,1,1.9,2.16v3.68l-16.58.51-10.85-6.22Z" fill="#b3b7e7" fill-rule="evenodd"/><polygon points="319.13 546.29 324.77 546.43 318.71 531.28 313.53 532.79 319.13 546.29" fill="#7e4183" fill-rule="evenodd"/><polygon points="324.6 545.27 318.32 544.64 318.32 549 332.19 549 332.19 547.49 324.6 545.27" fill="#220350" fill-rule="evenodd"/><path d="M316.14,507.83l8.56,34.82-8.89.29c-4.19-11.1-8.68-20.41-9.53-29.6Z" fill="#220350" fill-rule="evenodd"/><path d="M281.84,525.75h0a4.12,4.12,0,0,1-4.11-4.11V516.2a4.12,4.12,0,0,1,4.11-4.11h0A4.12,4.12,0,0,1,286,516.2v5.44A4.12,4.12,0,0,1,281.84,525.75Z" fill="#434655" fill-rule="evenodd"/><path d="M283.32,510.44v30.62a1.66,1.66,0,0,1-1.66,1.67h0a1.67,1.67,0,0,1-1.67-1.67V510.44Z" fill="#434655"/><circle cx="281.89" cy="546.43" r="2.14" fill="#434655"/><circle cx="294.14" cy="546.43" r="2.14" fill="#434655"/><circle cx="269.64" cy="546.43" r="2.14" fill="#434655"/><path d="M295.91,542.73h-28a1.35,1.35,0,0,1-1.34-1.35h0a1.34,1.34,0,0,1,1.34-1.35h28a1.34,1.34,0,0,1,1.34,1.35h0A1.35,1.35,0,0,1,295.91,542.73Z" fill="#434655"/><path d="M294.94,517.06H268.27a3.86,3.86,0,0,1-3.87-3.86h0a3.86,3.86,0,0,1,3.87-3.86h26.67a3.86,3.86,0,0,1,3.86,3.86h0A3.86,3.86,0,0,1,294.94,517.06Z" fill="#fff" fill-rule="evenodd"/><path d="M297.46,486.53l-5.8-5.41v18.12s3.42.11,5.37-1c1-.76,1.29-1.6.11-3Z" fill="#9da2e0" fill-rule="evenodd"/><path d="M351.48,481.58H319.09a2.38,2.38,0,0,1-2.38-2.49l1-21.17a2.37,2.37,0,0,1,2.37-2.27h32.39a2.38,2.38,0,0,1,2.38,2.48l-.95,21.17A2.38,2.38,0,0,1,351.48,481.58Z" fill="#dae1ff" fill-rule="evenodd"/><polygon points="317.66 457.92 316.71 479.09 353.86 479.3 354.8 458.13 317.66 457.92" fill="#fff" fill-rule="evenodd"/><polyline points="322.1 476.02 348.74 476.17 349.41 460.99" fill="none" stroke="#b3b7e7" stroke-miterlimit="10" stroke-width="0.92" fill-rule="evenodd"/><path d="M349.08,469.17a53.51,53.51,0,0,1-24.88-6" fill="none" stroke="#b3b7e7" stroke-miterlimit="10" stroke-width="0.92" fill-rule="evenodd"/><path d="M335.06,473l3.53-6.1a1.07,1.07,0,0,1,1.86,0l3,5.63,1.61-2.18a1.06,1.06,0,0,1,1.75.07l1.62,2.56Z" fill="#796fbf" fill-rule="evenodd"/><path d="M322.35,473l3.53-6.1a1.07,1.07,0,0,1,1.86,0l3,5.63,1.62-2.18a1.06,1.06,0,0,1,1.75.07l1.62,2.56Z" fill="#796fbf" fill-rule="evenodd"/><rect x="569.1" y="348.9" width="60.74" height="43.92" transform="translate(1198.93 741.72) rotate(180)" fill="#b3b7cb" style="mix-blend-mode:multiply"/><rect x="564.26" y="344.6" width="60.74" height="43.92" transform="translate(1189.25 733.13) rotate(180)" fill="#fff"/><rect x="569.66" y="353.41" width="50.64" height="30.33" fill="none" stroke="#b3b7e7" stroke-miterlimit="10" stroke-width="1.38"/><line x1="569.66" y1="357.3" x2="620.31" y2="357.3" fill="none" stroke="#b3b7e7" stroke-miterlimit="10" stroke-width="1.38"/><line x1="569.66" y1="362.59" x2="620.31" y2="362.59" fill="none" stroke="#b3b7e7" stroke-miterlimit="10" stroke-width="1.38"/><line x1="569.66" y1="367.87" x2="620.31" y2="367.87" fill="none" stroke="#b3b7e7" stroke-miterlimit="10" stroke-width="1.38"/><line x1="569.66" y1="373.16" x2="620.31" y2="373.16" fill="none" stroke="#b3b7e7" stroke-miterlimit="10" stroke-width="1.38"/><line x1="569.66" y1="378.45" x2="620.31" y2="378.45" fill="none" stroke="#b3b7e7" stroke-miterlimit="10" stroke-width="1.38"/><line x1="613.56" y1="357.3" x2="613.56" y2="383.74" fill="none" stroke="#b3b7e7" stroke-miterlimit="10" stroke-width="1.38"/><line x1="609.12" y1="357.3" x2="609.12" y2="383.74" fill="none" stroke="#b3b7e7" stroke-miterlimit="10" stroke-width="1.38"/><line x1="589.62" y1="357.3" x2="589.62" y2="383.74" fill="none" stroke="#b3b7e7" stroke-miterlimit="10" stroke-width="1.38"/><line x1="574.49" y1="357.3" x2="574.49" y2="383.74" fill="none" stroke="#b3b7e7" stroke-miterlimit="10" stroke-width="1.38"/><rect x="616.79" y="347.69" width="3.84" height="2.45" transform="translate(1237.42 697.83) rotate(180)" fill="#b3b7e7"/><rect x="584.32" y="347.69" width="30.06" height="2.45" transform="translate(1198.71 697.83) rotate(180)" fill="#dae1ff"/><rect x="596.52" y="437.94" width="18.06" height="21.89" fill="#b3b7cb" style="mix-blend-mode:multiply"/><rect x="593.13" y="434.89" width="18.06" height="21.89" fill="#fff"/><line x1="599.93" y1="452.74" x2="604.4" y2="452.74" fill="none" stroke="#b3b7e7" stroke-miterlimit="10" stroke-width="1.84"/><line x1="596.39" y1="447.48" x2="607.93" y2="447.48" fill="none" stroke="#b3b7e7" stroke-miterlimit="10" stroke-width="1.84"/><line x1="596.39" y1="443.38" x2="607.93" y2="443.38" fill="none" stroke="#b3b7e7" stroke-miterlimit="10" stroke-width="1.84"/><line x1="596.39" y1="439.27" x2="607.93" y2="439.27" fill="none" stroke="#b3b7e7" stroke-miterlimit="10" stroke-width="1.84"/><rect x="560.01" y="437.94" width="18.06" height="21.89" fill="#b3b7cb" style="mix-blend-mode:multiply"/><rect x="556.62" y="434.89" width="18.06" height="21.89" fill="#fff"/><line x1="563.41" y1="452.74" x2="567.88" y2="452.74" fill="none" stroke="#b3b7e7" stroke-miterlimit="10" stroke-width="1.84"/><line x1="559.88" y1="447.48" x2="571.42" y2="447.48" fill="none" stroke="#b3b7e7" stroke-miterlimit="10" stroke-width="1.84"/><line x1="559.88" y1="443.38" x2="571.42" y2="443.38" fill="none" stroke="#b3b7e7" stroke-miterlimit="10" stroke-width="1.84"/><line x1="559.88" y1="439.27" x2="571.42" y2="439.27" fill="none" stroke="#b3b7e7" stroke-miterlimit="10" stroke-width="1.84"/><rect x="523.49" y="437.94" width="18.06" height="21.89" fill="#b3b7cb" style="mix-blend-mode:multiply"/><rect x="520.1" y="434.89" width="18.06" height="21.89" fill="#fff"/><line x1="526.9" y1="452.74" x2="531.37" y2="452.74" fill="none" stroke="#b3b7e7" stroke-miterlimit="10" stroke-width="1.84"/><line x1="523.36" y1="447.48" x2="534.9" y2="447.48" fill="none" stroke="#b3b7e7" stroke-miterlimit="10" stroke-width="1.84"/><line x1="523.36" y1="443.38" x2="534.9" y2="443.38" fill="none" stroke="#b3b7e7" stroke-miterlimit="10" stroke-width="1.84"/><line x1="523.36" y1="439.27" x2="534.9" y2="439.27" fill="none" stroke="#b3b7e7" stroke-miterlimit="10" stroke-width="1.84"/><rect x="919.59" y="339.7" width="38.24" height="25.11" transform="translate(1877.42 704.5) rotate(180)" fill="#b3b7cb" style="mix-blend-mode:multiply"/><rect x="914.7" y="335.86" width="38.24" height="25.11" transform="translate(1867.64 696.83) rotate(180)" fill="#fff"/><g clip-path="url(#d)"><polyline points="939.65 347.58 958.89 364.15 908.14 364.15 928.25 347.6" fill="none" stroke="#dae1ff" stroke-miterlimit="10" stroke-width="1.84"/><polygon points="934.04 352.25 956.42 333.65 911.22 333.65 934.04 352.25" fill="none" stroke="#b3b7e7" stroke-miterlimit="10" stroke-width="1.84"/></g><polyline points="628.27 435.71 686.46 376.66 703.2 376.66" fill="none" stroke="#fff" stroke-miterlimit="10" stroke-width="2"/><polygon points="625.64 432.32 631.7 438.29 625.69 438.33 625.64 432.32" fill="#fff"/><polygon points="702.63 372.41 702.63 380.91 706.88 376.66 702.63 372.41" fill="#fff"/><polyline points="307.3 437.15 407.69 437.15 407.69 522.45 456.41 522.45 456.41 448.57 511.21 448.57" fill="none" stroke="#fff" stroke-miterlimit="10" stroke-width="2"/><polygon points="307.87 432.9 307.87 441.4 303.62 437.15 307.87 432.9" fill="#fff"/><polygon points="510.64 444.32 510.64 452.82 514.9 448.57 510.64 444.32" fill="#fff"/><line x1="818.64" y1="352.53" x2="895.8" y2="352.53" fill="none" stroke="#fff" stroke-miterlimit="10" stroke-width="2"/><polygon points="819.21 348.28 819.21 356.78 814.96 352.53 819.21 348.28" fill="#fff"/><polygon points="895.23 348.28 895.23 356.78 899.48 352.53 895.23 348.28" fill="#fff"/><rect x="796.5" y="155.37" width="130.31" height="96.33" fill="#fff" stroke="#958f9b" stroke-linecap="round" stroke-linejoin="round" stroke-width="1.38"/><path d="M847.87,224.39,831.26,224l-20.19.56" fill="none" stroke="#958f9b" stroke-linecap="round" stroke-linejoin="round" stroke-width="1.38"/><path d="M844.65,218.93l-17-.28H815.15" fill="none" stroke="#958f9b" stroke-linecap="round" stroke-linejoin="round" stroke-width="1.38"/><path d="M836.66,212.78H818.79" fill="none" stroke="#958f9b" stroke-linecap="round" stroke-linejoin="round" stroke-width="1.38"/><path d="M866.62,219.61c1.41-2.36,4.54-3.17,7.26-2.79s5.21,1.7,7.76,2.73,5.4,1.78,8,1,4.73-3.17,7.4-4.13c1.79-.64,6-.2,7.73.5" fill="none" stroke="#958f9b" stroke-linecap="round" stroke-linejoin="round" stroke-width="1.38"/><polyline points="873.51 198.34 881.39 203.69 902.64 203.69" fill="none" stroke="#958f9b" stroke-linecap="round" stroke-linejoin="round" stroke-width="1.38"/><polyline points="870.39 184.35 881.72 170.52 901.03 170.52" fill="none" stroke="#958f9b" stroke-linecap="round" stroke-linejoin="round" stroke-width="1.38"/><polyline points="850.63 189.66 839.44 178.47 824.41 178.47" fill="none" stroke="#958f9b" stroke-linecap="round" stroke-linejoin="round" stroke-width="1.38"/><path d="M807.87,230q6.6-11.61,14.26-22.59" fill="none" stroke="#958f9b" stroke-linecap="round" stroke-linejoin="round" stroke-width="1.38"/><path d="M822.55,206.71a130.92,130.92,0,0,0,13.57,22.92" fill="none" stroke="#958f9b" stroke-linecap="round" stroke-linejoin="round" stroke-width="1.38"/><path d="M809,230.72l27.17-.82" fill="none" stroke="#958f9b" stroke-linecap="round" stroke-linejoin="round" stroke-width="1.38"/><path d="M853.72,177.18a21.81,21.81,0,0,0-8.59,8.85,17.63,17.63,0,0,0-1.31,12.85c1.87,6,7.35,9.75,12.87,10.87a22.16,22.16,0,0,0,12.54-1.14,12.26,12.26,0,0,0,4.8-3.13,15.4,15.4,0,0,0,3-6.22,22.41,22.41,0,0,0,.84-7.56,17,17,0,0,0-9.34-13.59c-4.88-2.36-10.53-2.13-15.6-.31" fill="none" stroke="#958f9b" stroke-linecap="round" stroke-linejoin="round" stroke-width="1.38"/><path d="M862.45,176.26l-.94,18.9" fill="none" stroke="#958f9b" stroke-linecap="round" stroke-linejoin="round" stroke-width="1.38"/><path d="M861.54,195.36a52.35,52.35,0,0,0,15.5-3.69" fill="none" stroke="#958f9b" stroke-linecap="round" stroke-linejoin="round" stroke-width="1.38"/><path d="M861.85,195.68q5.55,5.13,11.45,9.76" fill="none" stroke="#958f9b" stroke-linecap="round" stroke-linejoin="round" stroke-width="1.38"/><path d="M866.45,221.27c.36,7.19.48,4.94.35,12.13" fill="none" stroke="#958f9b" stroke-linecap="round" stroke-linejoin="round" stroke-width="1.38"/><path d="M905.07,220.37a113.41,113.41,0,0,1,.36,13" fill="none" stroke="#958f9b" stroke-linecap="round" stroke-linejoin="round" stroke-width="1.38"/><path d="M867.9,233.62h37" fill="none" stroke="#958f9b" stroke-linecap="round" stroke-linejoin="round" stroke-width="1.38"/><path d="M873.51,223.69v9.07" fill="none" stroke="#958f9b" stroke-linecap="round" stroke-linejoin="round" stroke-width="1.38"/><path d="M878.91,224.56v9.06" fill="none" stroke="#958f9b" stroke-linecap="round" stroke-linejoin="round" stroke-width="1.38"/><path d="M883.65,226.28v7.55" fill="none" stroke="#958f9b" stroke-linecap="round" stroke-linejoin="round" stroke-width="1.38"/><path d="M889.05,226.93v6.69" fill="none" stroke="#958f9b" stroke-linecap="round" stroke-linejoin="round" stroke-width="1.38"/><path d="M894.23,224.77v8.63" fill="none" stroke="#958f9b" stroke-linecap="round" stroke-linejoin="round" stroke-width="1.38"/><path d="M900.49,222.18V233.4" fill="none" stroke="#958f9b" stroke-linecap="round" stroke-linejoin="round" stroke-width="1.38"/><path d="M801.35,205.48a4.33,4.33,0,0,1-4.76,1.2c-2.35-.85-6.37-3.05-12.66-8.59-.19-.17-.39-.33-.58-.51,0,0-4.06-8,.31-14.41a.64.64,0,0,1,.93-.15c.38.31,1,.81,1.84,1.58,2,1.78,5.37,5,10.51,10.62,0,0,2.95-12.05,4.4-17.3.16-.62.31-1.15.44-1.54l4.58,1.06s0,.58.09,1.58C806.68,184,806.9,199.14,801.35,205.48Z" fill="#9c4345"/><path d="M801.78,176.38s2.7,2.37,4.58,1.06a11.28,11.28,0,0,1,1-3.56c.85-1.76,2.86-5.32,2.78-6.75a2.76,2.76,0,0,0-.21-.76,2.48,2.48,0,0,0-.31-.57,2.4,2.4,0,0,0-.67-.68,4,4,0,0,0-.41-.23,3.34,3.34,0,0,0-.79-.23,3.79,3.79,0,0,0-.49,0h-.18a.87.87,0,0,0-.79.51,23.11,23.11,0,0,1-2.7,4.52s.49-2.66-.16-3.19l-.58-.08a24.62,24.62,0,0,1-1.15,4.71A8,8,0,0,0,801.78,176.38Z" fill="#9c4345"/><path d="M804.9,169.33s0,.06,0,0a11.79,11.79,0,0,0,2.84-4.7,3.79,3.79,0,0,0-.49,0A17.23,17.23,0,0,1,804.9,169.33Z" fill="#753233"/><path d="M806,170s0,.05,0,0a11.7,11.7,0,0,0,2.9-4.92,4,4,0,0,0-.41-.23A18.25,18.25,0,0,1,806,170Z" fill="#753233"/><path d="M807.17,170.74s0,0,.05,0a12,12,0,0,0,2.74-4.41,2.48,2.48,0,0,0-.31-.57A17.76,17.76,0,0,1,807.17,170.74Z" fill="#753233"/><path d="M803.74,170.05c.74.51.76,2.08.49,2.84,0,.1-.21.11-.21,0a8.11,8.11,0,0,0,0-1.48,6.78,6.78,0,0,1-.3-1.3S803.71,170,803.74,170.05Z" fill="#753233"/><path d="M776.06,169.08s.18-8-1.89-9.05c-4.92-2.54-14.87,1.25-13.61,6.64s1.71,3.87,1.71,3.87S775.66,169.78,776.06,169.08Z" fill="#3b2645"/><path d="M774.93,168a1.53,1.53,0,0,1,2.47,0c1.24,1.48-.86,4.32-2.47,4.44A36.11,36.11,0,0,1,774.93,168Z" fill="#753233"/><path d="M782.58,214.33s-12.29,3.07-23.46,0c0,0-2-10.85-2.46-14-.95-5.93-3.91-13.23-4.71-15.13a.6.6,0,0,1,.24-.75,24.13,24.13,0,0,1,8.52-2.88,24.61,24.61,0,0,1,3.32-.28s0-.77,0-1.88c0-.75-.06-1.65-.11-2.56a31,31,0,0,0-.39-3.71,11.52,11.52,0,0,0,9.27,2.26l.36,4v.08l.15,1.63s2,0,4.32.18,5.23.6,6.54,1.44C789.32,186,782.58,214.33,782.58,214.33Z" fill="#753233"/><path d="M774.65,163.74c.82.86.89,2.77,1,4.88.21,6.41-1.71,8.41-5,8.76s-6.7-.91-7.4-6.84c-.35-3-.73-5.72.35-7C765.19,161.63,772.14,161.13,774.65,163.74Z" fill="#9c4345"/><path d="M763.68,169.68s-1-2.65-2.58-1.25.61,5.41,3,5.12C764.12,173.55,764.45,170.59,763.68,169.68Z" fill="#9c4345"/><path d="M745.44,240s.14,1.57.1,3.53-.15,6.26.53,7.52a2.53,2.53,0,0,0,.53.45.78.78,0,0,0,.15.1,3.47,3.47,0,0,0,1.27.49l.12,0a3.91,3.91,0,0,0,1.27,0l.11,0a4.82,4.82,0,0,0,1.14-.39s0-4.38.55-5.76c0,0,.67,2.62,1.49,2.82l.56-.17s-.41-2.9-.47-4.2a8.12,8.12,0,0,0-2.74-5.32S746.6,238,745.44,240Z" fill="#9c4345"/><path d="M757,195.94c-.4,1.29-.93,3-1.5,4.89-1.85,6.14-4.19,14.31-4.59,16.82s-.38,15-.34,19.95c0,1.29,0,2.09,0,2.09-1.49,2.89-5,1.95-5,1.95s-.22-1-.54-2.71c-.92-4.82-2.66-15-2.34-21.37.16-3.19,2.69-14.62,5.07-23,1.23-4.34,2.42-7.84,3.21-8.92a4.36,4.36,0,0,1,3.15-1.82C758.56,183.51,758.49,191.18,757,195.94Z" fill="#9c4345"/><path d="M761.84,169.64a2.18,2.18,0,0,1,1,.63,2.67,2.67,0,0,1,.71.89c0,.11-.11.18-.18.11a8.39,8.39,0,0,1-.56-.63,1.29,1.29,0,0,1-.47.37c-.14.05-.25-.13-.19-.25a1.13,1.13,0,0,1,.39-.36,6.68,6.68,0,0,1-.77-.57A.11.11,0,0,1,761.84,169.64Z" fill="#753233"/><path d="M749.41,252.07l.11,0a44.34,44.34,0,0,1,.14-5.87s-.06,0-.07,0A14.23,14.23,0,0,0,749.41,252.07Z" fill="#753233"/><path d="M748,252.08l.12,0a44.34,44.34,0,0,1,.14-5.87s-.06,0-.07,0A14,14,0,0,0,748,252.08Z" fill="#753233"/><path d="M746.6,251.49a.78.78,0,0,0,.15.1,49.11,49.11,0,0,1,.15-5.55s0-.06-.06,0A13.45,13.45,0,0,0,746.6,251.49Z" fill="#753233"/><polygon points="759.5 311.76 765.15 311.9 765.27 301.21 759.87 301.05 759.5 311.76" fill="#b3b7e7" fill-rule="evenodd"/><polygon points="764.97 310.74 759.06 310.11 758.69 314.47 772.57 314.47 772.57 312.96 764.97 310.74" fill="#220350" fill-rule="evenodd"/><polygon points="779.9 311.76 785.55 311.9 787.5 300.65 782.1 300.5 779.9 311.76" fill="#b3b7e7" fill-rule="evenodd"/><polygon points="785.38 310.74 779.47 310.11 779.09 314.47 792.97 314.47 792.97 312.96 785.38 310.74" fill="#220350" fill-rule="evenodd"/><path d="M766.23,309l5.85-65.39,8.84,31.28a4.16,4.16,0,0,1,.13,1.17L778.25,309H787l5.36-34a4.52,4.52,0,0,0,0-.9l-6.33-48.84s-11.37,1.12-30.42,10.2L758.42,309Z" fill="#220350"/><path d="M806.45,179c-3.85.63-5.11-1.1-5.11-1.1-2.1,4.09-4.58,16.5-4.58,16.5l-2.67-3.4s-7.46-8.19-10.29-9.17-10.52-.78-10.52-.78l-.15-1.63v-.08c-3.1.33-4.13,1.84-4.13,1.84-.89-1-4.13-1.64-5-1.79,0,1.11,0,1.88,0,1.88-.64,0-12.4-.12-14.86,5.9a80.06,80.06,0,0,0-3.73,12.47s-4.38,14.7-3.76,19.92,3.25,19.95,3.25,19.95a5.58,5.58,0,0,0,5.61-1.93l1.36-18.85,4.76-18.41c0,.2.46,20.92-1,35.11,0,.1.06.19.18.28.65.87,3.4,3.56,13.65,5.41l2.6-5.07,2.74,5.07s8.83-3.37,11.55-8.53a1.34,1.34,0,0,0,.45-1.07c-2-24.58-1.2-31.52-1.2-31.52l4.08,3.66a15.71,15.71,0,0,0,1.34,1.19l.14.12,0,0c4.06,3.09,7.55,1.94,7.55,1.94s5.11-.17,7.23-10A47.27,47.27,0,0,0,806.45,179Z" fill="#dae1ff"/><path d="M755.14,233.69l1.52-33.36a65.5,65.5,0,0,0,2.14-18.66l2.94-.24.9-.08L772,202.56l4.09-21.5a6.3,6.3,0,0,1,2-.12,7.6,7.6,0,0,1,1.3.21L785.65,200l1.87,33.67Z" fill="#b3b7e7"/><path d="M762.64,181.35,772,202.56l-8.39-8.14,1.85-2.76-3-.38s-.54-7.77-.64-9.85Z" fill="#796fbf"/><path d="M776.28,191l2,2.42L772,202.56l4.09-21.5a3.32,3.32,0,0,1,1.38-.17l1.42,9.85Z" fill="#796fbf"/><line x1="772.35" y1="203.31" x2="772.35" y2="232.56" fill="none" stroke="#8695c2" stroke-miterlimit="10" stroke-width="0.92"/><path d="M774.31,206.23a.64.64,0,0,0,0,1.27A.64.64,0,0,0,774.31,206.23Z" fill="#8695c2"/><path d="M774.68,213.6a.6.6,0,0,0,0,1.2A.6.6,0,0,0,774.68,213.6Z" fill="#8695c2"/><path d="M774.77,220.72a.72.72,0,0,0,0,1.43A.72.72,0,0,0,774.77,220.72Z" fill="#8695c2"/><path d="M937.77,194.83s-17.3,5.85-18.61,12.55c-1.51,7.7,15.89,3.68,18.86-2.77C940.61,199,941.62,194.59,937.77,194.83Z" fill="#dae1ff"/><path d="M916.5,187.36a35.88,35.88,0,0,0-4,.19c-2.29.24-5.82-1.7-6.74-2.35a3.72,3.72,0,0,1,0-1l0-.09a4.69,4.69,0,0,1,.42-.84,21.06,21.06,0,0,0,4.51.13s-2-.77-2.05-1.43l.19-.41s2.2.59,3.21.76a16.43,16.43,0,0,1,4.21,1.31S918.14,186.66,916.5,187.36Z" fill="#9c4345"/><path d="M918,207.28c1.25,5.71,9,3.69,6.78-2.91-2.82-8.23-8.13-20.14-8.13-20.14l-2.69,2.91C913.44,186.06,914.77,192.71,918,207.28Z" fill="#9c4345"/><path d="M953.42,205.32c-1.38-1-1.55-5.16-2.6-6.53a23.59,23.59,0,0,1-2.36-3c-1.2-2.17-.94-4.79-.81-7.26.15-2.77,0-5.84-2-7.83-1.08-1.11-2.08-1.55-3.11-2.7-2.46-2.75,2-7.05,5.29-7.22a14.11,14.11,0,0,1,6,.82,7.19,7.19,0,0,1,4.19,4.14c.56,1.67.32,3.57,1.13,5.14.5,1,1.35,1.71,1.9,2.64a5,5,0,0,1,.54,3.79,19.68,19.68,0,0,0-.89,2.86c-.22,2.05,2.3,2.63,3.08,4.31a18.54,18.54,0,0,1,.65,5.8c-.23,1.9-1,2.71-3.1,2.51a7.18,7.18,0,0,0-3.26,0,5.68,5.68,0,0,0-1.84,1.44,4.3,4.3,0,0,1-1.91,1.31A1.08,1.08,0,0,1,953.42,205.32Z" fill="#3b2645"/><path d="M961,194.65s13.78,10,20.29,23.53a2.51,2.51,0,0,1-.3,2.41c-1.48,1.88-4.33,2.8-17.08,7.1-.8.27-.63,2.91-.86,5.12a1.14,1.14,0,0,1-2.26,0l-.79-5.6s7.52-6.46,14.5-9.07c0,0-8.8-7.23-16.24-12.65C954.6,202.88,957,192.77,961,194.65Z" fill="#9c4345"/><path d="M960.23,311.64c0-.5,0-1-.05-1.39a29.19,29.19,0,0,1,.11-3.7,159.21,159.21,0,0,0,1.59-25.92c-.48-12.48.13-10.59.2-16.27.14-12.3.41-25.46-1.8-32.73-2.51-8.27-2-13.16-2-13.16s-3.2,4.86-12.19,4.72c0,0-.45,13.6,2.86,15.13,0,0,1.13,20.29,1.51,25.58s2.68,18.39,3.35,23.3,2.93,19.06,2.08,23.15c-.08.38-.62.88-1.28,1.42a11.2,11.2,0,0,1-1.18.85" fill="#9c4345"/><path d="M949.91,314.35c-1.36-.56-.06-1.2-.06-1.2,1.54-.36,3.69-.52,4.74-1.38a12.87,12.87,0,0,0,5.59-1.52c0,.66,0,3.16.1,4Z" fill="#3b2645"/><path d="M946.43,221.27s0,.2.08.6A1.38,1.38,0,0,0,946.43,221.27Z" fill="#9c4345"/><path d="M950.27,233.47A59.1,59.1,0,0,1,946.51,222c-.07.84-1.1,2.18-7.49,1.16,0,0-6.68,15.72-6.16,40.52.11,5.3-1.66,18.46-1.75,23.42s-.78,19.64-.71,19.67a9.56,9.56,0,0,1-.81,3.52,4.74,4.74,0,0,1-1.48,1.22c-1.18.7-2.3,1.32-1,2.07s6.5.17,6.56-.59.15-1.54.24-2.18a28.3,28.3,0,0,1,.68-3.65,156.59,156.59,0,0,0,5.57-25.41c1.46-12.41,3.24-11.11,4.15-16.73C947.6,244.47,952.09,237.88,950.27,233.47Z" fill="#9c4345"/><path d="M928.11,311.5a13.22,13.22,0,0,0,5.76-.7l.13,3.38-10.44,0c-1.26-.74.13-1.19.13-1.19Z" fill="#3b2645"/><path d="M958.17,221.32c-11,5.55-19.15,1.75-19.15,1.75s-.59-12.83-1.62-15.7a10.64,10.64,0,0,1-.37-3,75.41,75.41,0,0,1,.74-9.52,11.54,11.54,0,0,1,3.26-1l.6-.1c1.86-.28,3.56-.36,3.56-.36l.19-2,.13-1.35.22-2.19C946,185,952,186.2,952,186.2v7.13a15.66,15.66,0,0,0,3,.33l.53,0c1.94.17,4.06.4,4.7.83C961.42,195.36,957.45,218.19,958.17,221.32Z" fill="#9c4345"/><path d="M952,187v2.13a9.52,9.52,0,0,1-6.58,2.31l.13-1.35.22-2.19C947,186.28,950.7,186.74,952,187Z" fill="#753233"/><path d="M943.24,176.87c-.64.9-.83,2.59-.9,4.57-.19,6,2.71,8.21,4.68,8.22s6.27-.85,6.93-6.42c.33-2.79.31-5.13-.33-6.56C952.28,173.67,946.06,172.9,943.24,176.87Z" fill="#9c4345"/><path d="M953.53,181.92s.94-2.48,2.42-1.17-.56,4.88-2.83,4.6C953.12,185.35,952.8,182.77,953.53,181.92Z" fill="#9c4345"/><path d="M955.22,181.88a2.05,2.05,0,0,0-.9.59,2.44,2.44,0,0,0-.66.84c0,.1.1.16.17.1s.34-.4.52-.59a1.12,1.12,0,0,0,.44.34c.13.05.24-.12.18-.23a1.18,1.18,0,0,0-.36-.34,4.74,4.74,0,0,0,.71-.54A.1.1,0,0,0,955.22,181.88Z" fill="#753233"/><path d="M942.6,178.6s4-2.7,5.3-4.83c0,0,1.07,3.41,6.26,6.74l1.82-2-2.33-3.75-4.06-1.68-3.29-.75-3.11,2.53Z" fill="#3b2645"/><path d="M939,223.07s-7.52,8.93-6.92,46.82c0,0-1.2,10.68-1.56,17.68,0,0,17.13,4,32.46-.6,0,0-.45-9.24-.23-16.24s1.59-33.06-4.34-47.66A46.94,46.94,0,0,1,939,223.07Z" fill="#220350"/><path d="M945.19,193.39s0,8.19,2.71,14.13c0,0,3.65-11.05,4.06-14.19,0,0,7-.68,9,1.32a65.61,65.61,0,0,1-.58,10.74c-.78,5.13-1.27,6.21-.78,9.65s-1.19,8-1.19,8-10.07,4.1-19.41,0c0,0-1.59-5.42-1.12-7.48a11.33,11.33,0,0,0-.87-6.46c-.84-2.15-1.92-5.52-.82-7.9a14.91,14.91,0,0,0,.82-6.08A12.46,12.46,0,0,1,945.19,193.39Z" fill="#dae1ff"/><path d="M960.18,194a43.37,43.37,0,0,1,13.68,11.09c5.88,7.41,6,9.22,8,10.49s-3,4.32-7.43,2.56-15.07-11.5-15.07-11.5S955.45,194.08,960.18,194Z" fill="#dae1ff"/><path d="M938.27,196.62s-.06-.05-.08,0a8.41,8.41,0,0,0-1.1,3c-.43,1.33-1,2.6-1.46,3.92a.15.15,0,0,0,.27.12,28.76,28.76,0,0,0,1.54-3.67C937.82,198.91,938.46,197.74,938.27,196.62Z" fill="#b8c3e3"/><path d="M959.34,199.24a21,21,0,0,0-.14-3.08s0,0-.05,0c-.74,1.9-.37,4.78.22,6.7.06.19.39.17.37-.05C959.62,201.62,959.41,200.44,959.34,199.24Z" fill="#b8c3e3"/><path d="M950.4,203.4a18.32,18.32,0,0,1-1.6,6.59,20.92,20.92,0,0,0-1.52,3.86,33.62,33.62,0,0,0-.5,9.7c0,.13.23.19.26,0,.54-3.49-.18-7.17.92-10.58s2.87-5.94,2.8-9.6A.18.18,0,0,0,950.4,203.4Z" fill="#b8c3e3"/><path d="M656.69,226.57l-1-.09a1.18,1.18,0,0,0-1.29,1.06l-8,84.42a1.17,1.17,0,0,0,1.06,1.29l1,.1a1.2,1.2,0,0,0,1.3-1.07l8-84.42A1.19,1.19,0,0,0,656.69,226.57Z" fill="#71697f" fill-rule="evenodd"/><path d="M660.49,226.57l1-.09a1.18,1.18,0,0,1,1.29,1.06l8,84.42a1.17,1.17,0,0,1-1.06,1.29l-1,.1a1.18,1.18,0,0,1-1.29-1.07l-8-84.42A1.19,1.19,0,0,1,660.49,226.57Z" fill="#71697f" fill-rule="evenodd"/><path d="M713.21,226.57l-1-.09a1.18,1.18,0,0,0-1.29,1.06l-8,84.42a1.19,1.19,0,0,0,1.07,1.29l1,.1a1.19,1.19,0,0,0,1.29-1.07l8-84.42A1.18,1.18,0,0,0,713.21,226.57Z" fill="#71697f" fill-rule="evenodd"/><path d="M715.52,226.57l1-.09a1.18,1.18,0,0,1,1.29,1.06l8,84.42a1.19,1.19,0,0,1-1.07,1.29l-1,.1a1.19,1.19,0,0,1-1.29-1.07l-8-84.42A1.19,1.19,0,0,1,715.52,226.57Z" fill="#71697f" fill-rule="evenodd"/><path d="M725.43,152.45H662a1.39,1.39,0,0,0-1.36,1.25L650,266.81a1.11,1.11,0,0,0,1.12,1.25H714.6a1.39,1.39,0,0,0,1.36-1.25l10.6-113.11A1.12,1.12,0,0,0,725.43,152.45Z" fill="#71697f" fill-rule="evenodd"/><path d="M721.65,157.36H664.81a1.26,1.26,0,0,0-1.22,1.12L654,261.77a1,1,0,0,0,1,1.12h56.83a1.25,1.25,0,0,0,1.22-1.12l9.57-103.29A1,1,0,0,0,721.65,157.36Z" fill="#f6f2fd" fill-rule="evenodd"/><path d="M668.55,205.24a6.77,6.77,0,0,1,1.07-.85,5.49,5.49,0,0,1,.63-.34,1.36,1.36,0,0,0,.3-.13c.19-.13,0,0,0-.12,0,.12,0,.25,0,.39s-.14.49-.22.73a13.37,13.37,0,0,1-.53,1.37,34.81,34.81,0,0,1-3.07,5.2c-.38.55-.15,1.29.62,1.1a13.83,13.83,0,0,1,5.09-.2,1.1,1.1,0,0,0,1.13-.59.64.64,0,0,0-.35-1,13,13,0,0,0-5.92.27l.74.92a31.38,31.38,0,0,0,3.67-6.79c.29-.83.92-2.79-.62-2.78a3.68,3.68,0,0,0-1.74.64,8.93,8.93,0,0,0-1.55,1.18c-.25.25-.5.65-.23,1a.73.73,0,0,0,1,0Z" fill="#b8c3e3"/><g style="mix-blend-mode:multiply"><path d="M680.35,210.45a11.92,11.92,0,0,0,5.95-3.35,7.27,7.27,0,0,0,1.9-6.28c-.13-.57-.51-1.22-1.1-1.15s-.75.53-.93,1a17.78,17.78,0,0,0-1.39,4.93c-.28,2.11.11,4.69,2.08,5.51,1.48.62,3.23-.07,4.54-1a11.29,11.29,0,0,0,4.47-7.45c.15-1,0-2.31-.93-2.77-2,1.83-1.78,5-1.19,7.58a5,5,0,0,0,1,2.34,3.42,3.42,0,0,0,3.21.88,6.51,6.51,0,0,0,3-1.75,10.83,10.83,0,0,0,3.11-5.5,4.36,4.36,0,0,0-.66-3.88.83.83,0,0,0-.73-.33c-.33.08-.48.44-.57.75a10,10,0,0,0,.35,7.4,5.83,5.83,0,0,0,6.35,3.1" fill="none" stroke="#b8c3e3" stroke-linecap="round" stroke-linejoin="round" stroke-width="1.38"/><path d="M666.13,180.58q25.07-.41,50.12,0" fill="none" stroke="#b8c3e3" stroke-linecap="round" stroke-linejoin="round" stroke-width="1.38"/><path d="M675.06,196a12.62,12.62,0,0,0,6.1-7.48c.42-1.45.24-3.46-1.23-3.8a14,14,0,0,0-.28,7,4.09,4.09,0,0,0,1.7,2.86c1.55.89,3.55-.11,4.91-1.31,2.27-2,3.93-5.49,2.19-7.89a7.24,7.24,0,0,0-1.26,6.44,3,3,0,0,0,1,1.61c1.08.76,2.63.25,3.74-.51a9.67,9.67,0,0,0,4.13-8.55,8.11,8.11,0,0,0-1.44,7.48,3.18,3.18,0,0,0,1,1.63c1.22.88,3,.16,4.17-.85a10,10,0,0,0,3.37-8.72,10.18,10.18,0,0,0-1.54,5.71,4.93,4.93,0,0,0,1.9,4.08c1.82,1.17,4.25.36,6.28-.47" fill="none" stroke="#b8c3e3" stroke-linecap="round" stroke-linejoin="round" stroke-width="1.38"/><path d="M667,223.59l4.14-.94a.86.86,0,0,1,.65,0c.43.26.09.92-.28,1.28L668.43,227l2.32-.28c.59-.08,1.36,0,1.51.52a1,1,0,0,1-.12.69,3.46,3.46,0,0,1-3.59,1.89" fill="none" stroke="#b8c3e3" stroke-linecap="round" stroke-linejoin="round" stroke-width="1.38"/><path d="M667.46,188.09a10.77,10.77,0,0,1,2.67-1.69,57.15,57.15,0,0,1-1.4,5.63" fill="none" stroke="#b8c3e3" stroke-linecap="round" stroke-linejoin="round" stroke-width="1.38"/><path d="M668.56,236.41a23.57,23.57,0,0,1-3.49,5.46,15.59,15.59,0,0,0,5-.66" fill="none" stroke="#b8c3e3" stroke-linecap="round" stroke-linejoin="round" stroke-width="1.38"/><path d="M669.2,236.18a54.65,54.65,0,0,1-.41,10.46" fill="none" stroke="#b8c3e3" stroke-linecap="round" stroke-linejoin="round" stroke-width="1.38"/></g><line x1="665.06" y1="193.11" x2="652.08" y2="190.26" fill="none" stroke="#3b2645" stroke-miterlimit="10" stroke-width="1.84"/><path d="M657.76,198.09,645.54,214.6c-3.56,4.63-9.75-.51-4.9-5.52,6.06-6.25,15.93-14.77,15.93-14.77l2-4.26,4.07.63,1.57,1.25-2.89-.25,2.23,2v2.24H662v-.61h-1.3L659.61,198Z" fill="#ed6c6c"/><path d="M632.92,194.91s13.16,12.65,11.5,19.27c-1.91,7.61-15.94-3.43-15.89-10.54C628.58,197.45,629.54,193.05,632.92,194.91Z" fill="#dae1ff"/><path d="M609.35,194.28s-13.78,10-20.29,23.52a2.51,2.51,0,0,0,.3,2.41c1.48,1.88,4.33,2.8,17.08,7.1.8.27.63,2.91.86,5.12a1.14,1.14,0,0,0,2.26,0l.79-5.6s-7.52-6.45-14.5-9.06c0,0,8.8-7.24,16.24-12.66C615.73,202.5,613.32,192.39,609.35,194.28Z" fill="#ed6c6c"/><path d="M614.28,306.77a16,16,0,0,0,.19,3.21c.07.37.61.87,1.27,1.41a11.2,11.2,0,0,0,1.18.85l-6.82-1c0-.5,0-1,0-1.38a30.3,30.3,0,0,0-.06-3.11Z" fill="#50165d"/><path d="M639.93,306.38a9.56,9.56,0,0,0,.81,3.52,4.74,4.74,0,0,0,1.48,1.22c1.18.7,2.3,1.32,1,2.07s-6.49.17-6.56-.59-.15-1.54-.24-2.18a28.68,28.68,0,0,0-.68-3.65" fill="#50165d"/><path d="M609.12,307.66c0-1.13-1.14-14.94-.67-27.41s-.13-10.59-.2-16.27c-.14-12.3-.41-25.46,1.8-32.73,2.51-8.27,2-13.16,2-13.16s3.2,4.86,12.19,4.72c0,0,.45,13.6-2.86,15.13,0,0-1.13,20.29-1.51,25.58s-2.68,18.39-3.35,23.31c-.54,4-.88,14.11-1,20.83Z" fill="#3b3e5d"/><path d="M610.05,313.84l10.37.13c1.36-.56.06-1.2.06-1.2-1.54-.36-4.42-1.16-5.48-2l-1.33-.06-.73.78-2.8-.12Z" fill="#220350"/><path d="M623.9,220.89s0,.2-.08.6A1.38,1.38,0,0,1,623.9,220.89Z" fill="#9c4345"/><path d="M634.71,307.66c0-.89-3.05-13.9-4.5-26.3s-3.24-11.11-4.15-16.73c-3.33-20.54-7.82-27.12-6-31.54a59.1,59.1,0,0,0,3.76-11.48c.07.84,1.1,2.18,7.49,1.16,0,0,6.68,15.72,6.16,40.52-.11,5.3,1.66,18.47,1.75,23.42s1.95,19.64,1.89,20.56Z" fill="#3b3e5d"/><path d="M636.46,313.84l11,.13c1.38-.56.06-1.2.06-1.2-1.57-.36-4.5-1.16-5.57-2l-1.35-.06-.74.78-3.43-.12Z" fill="#220350"/><path d="M631.31,222.69s.59-12.83,1.62-15.7a10.64,10.64,0,0,0,.37-3,35.89,35.89,0,0,0-1.28-8.66,8,8,0,0,0-2.72-.87c-.2,0-4.16-1.43-4.16-1.43l-.19-2-.13-1.35-.22-2.19c-.28-2.91-6.23-1.66-6.23-1.66V193a15.66,15.66,0,0,1-3,.33l-.53,0c-1.94.17-4.06.4-4.7.83-1.27.83,2.7,23.66,2,26.79Z" fill="#ed6c6c"/><path d="M618.37,186.58v2.13A9.52,9.52,0,0,0,625,191l-.13-1.35-.22-2.19C623.37,185.9,619.63,186.37,618.37,186.58Z" fill="#d66262"/><path d="M627.09,176.49c.64.9.83,2.59.9,4.58.19,6-2.71,8.21-4.68,8.21s-6.27-.85-6.93-6.42c-.33-2.79-.31-5.13.33-6.56C618.05,173.29,624.27,172.52,627.09,176.49Z" fill="#ed6c6c"/><path d="M631.31,222.69s1.59-5.42,1.12-7.48a11.33,11.33,0,0,1,.87-6.46c.84-2.15,1.92-5.51.82-7.9a32.93,32.93,0,0,1-1.79-6.21,23,23,0,0,0-8.42-2.21c-6.21-.46-13.42.74-14.56,1.85a65.5,65.5,0,0,0,.58,10.73c.78,5.13,1.27,6.21.78,9.65s1.19,8,1.19,8Z" fill="#dae1ff"/><path d="M610.15,193.66a43.32,43.32,0,0,0-13.68,11.1c-5.88,7.4-6,9.21-8.05,10.48s3,4.32,7.43,2.57,15.07-11.5,15.07-11.5S614.88,193.7,610.15,193.66Z" fill="#dae1ff"/><path d="M632.06,196.24s.06-.05.08,0a8.42,8.42,0,0,1,1.11,3c.42,1.33,1,2.61,1.46,3.92a.16.16,0,0,1-.28.12,28.76,28.76,0,0,1-1.54-3.67C632.51,198.53,631.87,197.36,632.06,196.24Z" fill="#b8c3e3"/><path d="M620.17,200.88c.79-1,2.51-3.6,2.51-12.77,0-2.77.31-4.13,2.27-6.13,1.08-1.1,1.54-1.87,2.57-3,2.46-2.74-1.72-8.41-5.71-8.41-2,0-3.46-.14-5.35.63a7.19,7.19,0,0,0-4.19,4.14c-.56,1.67-.32,3.57-1.13,5.14-.5,1-1.35,1.71-1.9,2.64a5,5,0,0,0-.54,3.79,20.08,20.08,0,0,1,.89,2.86c.22,2.05-5.15,3.91-3.73,10.11.43,1.87,3.7,2.51,5.77,2.51C615.58,202.37,619.12,202.24,620.17,200.88Z" fill="#fcba7b"/><path d="M625.55,181.54s-.94-2.48-2.42-1.16.55,4.87,2.82,4.6C626,185,626.27,182.4,625.55,181.54Z" fill="#ed6c6c"/><path d="M623.85,181.5a2.08,2.08,0,0,1,.9.59,2.59,2.59,0,0,1,.67.84c0,.1-.11.16-.17.1a7.43,7.43,0,0,1-.53-.59,1.3,1.3,0,0,1-.43.35c-.14.05-.24-.12-.18-.24a1.18,1.18,0,0,1,.36-.34,5.57,5.57,0,0,1-.72-.53A.11.11,0,0,1,623.85,181.5Z" fill="#c05353"/><path d="M435.82,329.5s-3.89,6.37-4.61,17.78c0,0,2.82-.26,2.81-.67S435.82,329.5,435.82,329.5Z" fill="#a1a6e1" fill-rule="evenodd"/><polygon points="409.32 413.97 403.61 413.56 405.5 406.99 410.96 407.38 409.32 413.97" fill="#9c4345" fill-rule="evenodd"/><polygon points="434.97 413.97 428.86 413.53 429.63 407.24 435.74 407.68 434.97 413.97" fill="#9c4345" fill-rule="evenodd"/><path d="M409.78,417.9a1.92,1.92,0,0,0,.14-.62c0-1.73.06-4.1.06-4.1l-5.84-.57a81,81,0,0,1-7.22,4.33,1.73,1.73,0,0,0-1,1Z" fill="#220350" fill-rule="evenodd"/><path d="M448,389.21h0a4.12,4.12,0,0,1-4.11-4.11v-5.44a4.12,4.12,0,0,1,4.11-4.11h0a4.12,4.12,0,0,1,4.11,4.11v5.44A4.12,4.12,0,0,1,448,389.21Z" fill="#313545" fill-rule="evenodd"/><path d="M447.86,410.57h0a1.67,1.67,0,0,1-1.67-1.67V378.28a1.67,1.67,0,0,1,1.67-1.67h0a1.66,1.66,0,0,1,1.66,1.67V408.9A1.66,1.66,0,0,1,447.86,410.57Z" fill="#313545"/><circle cx="448.07" cy="416.07" r="2.14" fill="#313545"/><circle cx="460.32" cy="416.07" r="2.14" fill="#313545"/><circle cx="435.82" cy="416.07" r="2.14" fill="#313545"/><path d="M462.11,411.92h-28a1.35,1.35,0,0,1-1.35-1.35h0a1.34,1.34,0,0,1,1.35-1.35h28a1.35,1.35,0,0,1,1.35,1.35h0A1.36,1.36,0,0,1,462.11,411.92Z" fill="#313545"/><rect x="427.6" y="369.91" width="40.53" height="7.72" rx="1.9" fill="#989dde"/><path d="M437.39,353.45s-3.6,10.35-3.35,12.36a14.5,14.5,0,0,0,2.52,6.46l17.67-.14a8.19,8.19,0,0,0,8-9.57v-.07c-.09-.47-.16-.95-.22-1.43-.31-2.24-1.22-8.95-1.22-8.95-5.48,3.56-15.43,5-24.14,2.68Z" fill="#50165d" fill-rule="evenodd"/><path d="M422.85,354.16l6.5-5.69,4.92-6.16,2.91,6.9a22.34,22.34,0,0,1-13.25,9.56l-.78-2.31Z" fill="#a1a6e1" fill-rule="evenodd"/><path d="M412.13,409.63l-7.87-.66c0-1,5.67-22.55,8.86-31.61a10.18,10.18,0,0,1,5.09-5.75l19-9.42,12.4,10.53-26.09,10.77Z" fill="#50165d" fill-rule="evenodd"/><path d="M412.13,409.63l-3.18-.26c.76-6.29,5.66-11.9,7.87-15,2.8-4,1.09-10.58,2.26-13.89a11.29,11.29,0,0,1,2.41-3.38,21.11,21.11,0,0,1,9.43-5.64c4.83-1.42,7.7-3.46,10.72-5.46l7.94,6.75-26.09,10.77Z" fill="#220350" fill-rule="evenodd"/><path d="M435.06,417.9a1.92,1.92,0,0,0,.14-.62c0-1.73.06-4.1.06-4.1l-6.49-.15a68.18,68.18,0,0,1-6.57,3.91,1.73,1.73,0,0,0-1,1Z" fill="#220350" fill-rule="evenodd"/><path d="M442.12,308.64s-4.18,1.89-.9,5.78.9-5.78.9-5.78Z" fill="#220350" fill-rule="evenodd"/><path d="M456.27,327a4.24,4.24,0,0,0-2.37-3.51,7.72,7.72,0,0,0-5.21-.45,38.94,38.94,0,0,0-6.15,1.77l-1.74,5.75,5.8,2.76L458,324.73Z" fill="#989dde" fill-rule="evenodd"/><path d="M441.35,312a5.07,5.07,0,0,1,5.56-4.84h0a5.1,5.1,0,0,1,4.59,5.28c-.06,1.55-.13,3.25-.19,4.72a3.62,3.62,0,0,1-4,3.46l-2.8-.28a3.74,3.74,0,0,1-3.37-3.87c.05-1.37.12-3,.18-4.47Z" fill="#9c4345" fill-rule="evenodd"/><polygon points="454.01 326.41 450.37 316.96 443.75 319.91 445.58 329.02 454.01 326.41 454.01 326.41" fill="#9c4345" fill-rule="evenodd"/><path d="M448.58,311.37s-.65,4.63,3,4.74a30.09,30.09,0,0,0,2.06-6.32c.39-4-7.59-4.78-10.82-3.08s-1.25,4.76,5.77,4.66Z" fill="#220350" fill-rule="evenodd"/><path d="M444.22,324.72c2.11,3.32,7.14.31,8-.86.13-.19,2.35,1.17,2.64,1.38,4.43,3.18,5,16.87,5.79,21.8.37,2.3,2.43,10,1.33,12-.36.66-3.82.15-4.5.28-2.88.54-15.82,1.59-17.59-.48s-.45-5.88-.79-8.31a61.07,61.07,0,0,1,1.64-23.86Z" fill="#fff" fill-rule="evenodd"/><path d="M440.49,344c2.25,7,19-.52,17.09-3.87-2.65-4.69,1.17,3.23,1.88,8.16.33,2.3,2.17,10,1.19,12-.33.66-1.65,6-2.27,6-8.19.35-20.8.89-21.37-1.81-.8-3.8,2.88-10.31,3.15-12.75C440.86,345.43,440.49,344,440.49,344Z" fill="#e8e8e8" fill-rule="evenodd"/><path d="M451.49,314.17a1.63,1.63,0,0,0-.78,3.06,1.63,1.63,0,0,0,.78-3.06Z" fill="#9c4345" fill-rule="evenodd"/><path d="M441.15,316.44c-.23-.41-1.22,6.24,2.78,6.58s5.68-1.29,5.95-8.94c0,0-1.6,4.65-3.94,4.72-4.89.14-4.5-1.86-4.79-2.36Z" fill="#220350" fill-rule="evenodd"/><path d="M443.08,320.1a2.91,2.91,0,0,0,2.05.14" fill="none" stroke="#9c4345" stroke-linecap="round" stroke-linejoin="round" stroke-width="1.38"/><path d="M427,411.26l8.89-.25,3-29.24,19-10.56-2-3.07-13.55-1-10,4.76a8.6,8.6,0,0,0-4.9,7.82Z" fill="#50165d" fill-rule="evenodd"/><path d="M442.54,324.77s-2.45,12.47-2.52,20-3.4,22.82-3.4,22.82c-1.21-2.24-5.5-1.57-5.88-3.61,0,0,3.75-24.71,4.41-31.18S438.25,326.49,442.54,324.77Z" fill="#b3b7e7" fill-rule="evenodd"/><path d="M435.15,355.8s-2.24-1.54-3.67-.79a28.91,28.91,0,0,0-2.83.94,9.51,9.51,0,0,0-2.33,2.33,1.9,1.9,0,0,0,1.41,1.86c.5.1,2-1.25,2-1.25a8.66,8.66,0,0,0,4.84.06Z" fill="#9c4345" fill-rule="evenodd"/><path d="M424.73,355.67s-2.12-1.69-3.61-1.06c-.7.31-1.83.24-2.89.73a9.55,9.55,0,0,0-2.49,2.16,1.89,1.89,0,0,0,1.26,2c.5.13,2.1-1.1,2.1-1.1a8.61,8.61,0,0,0,4.83.41Z" fill="#9c4345" fill-rule="evenodd"/><polygon points="435.15 355.8 442.26 355.27 442.54 359.06 433.64 358.57 435.15 355.8" fill="#9c4345" fill-rule="evenodd"/><rect x="414.6" y="357.93" width="23.25" height="1.48" fill="#fff"/><path d="M466.68,350a90.41,90.41,0,0,0-1-11.76c-.77-4.93-1.76-8.63-3.5-10.68-1.51-1.79-3-2.06-4.89-3l-3.38-1.07c-2.07,9.62-3.5,18.8-2.6,28.33L440,354l0,5.38h17.45l3.47-1.13,3.31-1.85A9.13,9.13,0,0,0,466.68,350Z" fill="#b3b7e7" fill-rule="evenodd"/><path d="M421.63,359.4H395l-8.06-17.94H413a.94.94,0,0,1,.86.56Z" fill="#a45acc" fill-rule="evenodd"/><path d="M419.49,359.4H392.8l-7.68-17.12a.59.59,0,0,1,.54-.82h25.4a.57.57,0,0,1,.53.34Z" fill="#fff" fill-rule="evenodd"/><path d="M451,347.77s-.22,9.54-2.43,13.93c-1,1.94-6,7.11-6,7.11s19.5,1.93,20.12-5.94a154.28,154.28,0,0,1,2.52-17Z" fill="#b3b7e7" fill-rule="evenodd"/><path d="M403.09,350.54c.32,1.12-.55,2-1.93,2a3.27,3.27,0,0,1-3.09-2c-.32-1.12.55-2,1.94-2A3.26,3.26,0,0,1,403.09,350.54Z" fill="#afb3e0" fill-rule="evenodd"/><path d="M466.68,350a90.41,90.41,0,0,0-1-11.76c-.77-4.93-1.76-8.63-3.5-10.68-1.51-1.79-3-2.06-4.89-3l-3.38-1.07c13,6.64,8.76,20.84,9.65,30.37-2.08,1.11-3.06.75-7.91,1.72a63.6,63.6,0,0,1-9,2.62c-2.93-.62-4.57-.82-6.6-.23v1.47h17.45l3.47-1.13,3.31-1.85A9.13,9.13,0,0,0,466.68,350Z" fill="#dae1ff" fill-rule="evenodd"/><path d="M469.77,362.19H373.53a1.4,1.4,0,0,1-1.4-1.39h0a1.4,1.4,0,0,1,1.4-1.4h96.24a1.4,1.4,0,0,1,1.39,1.4h0A1.4,1.4,0,0,1,469.77,362.19Z" fill="#fff" fill-rule="evenodd"/><rect x="366.8" y="293.51" width="55.71" height="38.38" fill="#b3b7cb" style="mix-blend-mode:multiply"/><rect x="372.65" y="288.32" width="55.71" height="38.38" fill="#fff"/><path d="M379,317.68c11.07,0,28.34-7.68,38.89-20" fill="none" stroke="#a45acc" stroke-linecap="round" stroke-linejoin="round" stroke-width="1.84"/><path d="M411,299.7l7.57-2.6a56.69,56.69,0,0,1-2.31,6.68" fill="none" stroke="#a45acc" stroke-linecap="round" stroke-linejoin="round" stroke-width="1.84"/><line x1="422.48" y1="320.8" x2="422.48" y2="293.51" fill="none" stroke="#dae1ff" stroke-miterlimit="10" stroke-width="1.84"/><polyline points="378.53 290.52 378.53 320.8 424.53 320.8" fill="none" stroke="#a45acc" stroke-miterlimit="10" stroke-width="1.84"/><path d="M324.62,292.73a2,2,0,0,0-.2-1.05,2.53,2.53,0,0,0-.51-.94c-.08-.07-.19,0-.16.12s.23.47.33.71a1.15,1.15,0,0,0-.48.27c-.1.1,0,.26.14.25a1,1,0,0,0,.46-.2,5.83,5.83,0,0,0,.22.87C324.46,292.86,324.59,292.83,324.62,292.73Z" fill="#c85856"/></g></g></svg>