<svg xmlns="http://www.w3.org/2000/svg" xmlns:xlink="http://www.w3.org/1999/xlink" viewBox="0 0 1000 549"><defs><linearGradient id="a" x1="-26.55" y1="305.92" x2="1013.1" y2="305.92" gradientUnits="userSpaceOnUse"><stop offset="0" stop-color="#3d026e"/><stop offset="1" stop-color="#951abb"/></linearGradient><linearGradient id="b" x1="30.47" y1="551.68" x2="99.67" y2="482.48" gradientUnits="userSpaceOnUse"><stop offset="0" stop-color="#939a9a"/><stop offset="1" stop-color="#ccc"/></linearGradient><linearGradient id="c" x1="705.54" y1="425.23" x2="705.54" y2="551.59" gradientUnits="userSpaceOnUse"><stop offset="0" stop-color="#a441cb"/><stop offset="1" stop-color="#6c40b9" stop-opacity="0"/></linearGradient><linearGradient id="d" x1="879.6" y1="236.64" x2="879.6" y2="363" xlink:href="#c"/><linearGradient id="e" x1="411.82" y1="497.69" x2="411.82" y2="559.93" xlink:href="#c"/><linearGradient id="f" x1="790.77" y1="279.43" x2="603.14" y2="467.06" gradientUnits="userSpaceOnUse"><stop offset="0" stop-color="#fff"/><stop offset="1" stop-color="#fff" stop-opacity="0"/></linearGradient><linearGradient id="g" x1="914.6" y1="115.16" x2="808.73" y2="221.03" xlink:href="#f"/></defs><g style="isolation:isolate"><path d="M-46.74,422.53H270.55a20,20,0,0,0,14.14-5.86L458.9,242.46A20,20,0,0,1,473,236.61h153.3a20,20,0,0,0,14.14-5.86L813,58.26a20,20,0,0,1,14.14-5.86h188.58V499.88H-46.74Z" fill="#4521b0" stroke="#4521b0" stroke-miterlimit="10" stroke-width="2"/><path d="M-26.55,422.8H290.74a20,20,0,0,0,14.14-5.86L479.23,242.6a20,20,0,0,1,14.14-5.86H646.53a20,20,0,0,0,14.14-5.86L833.23,58.32a20,20,0,0,1,14.15-5.85H1013.1V559.38H-26.55Z" fill="url(#a)"/><g opacity="0.4" style="mix-blend-mode:overlay"><line x1="318.87" y1="531.37" x2="533.36" y2="531.37" fill="none" stroke="#dae1ff" stroke-miterlimit="10" stroke-width="1.5"/><circle cx="319" cy="531.37" r="2.54" fill="#dae1ff"/><circle cx="533.23" cy="531.37" r="2.54" fill="#dae1ff"/><polyline points="214.37 515.75 285.11 515.75 285.11 531.38 242.5 531.38" fill="none" stroke="#dae1ff" stroke-miterlimit="10" stroke-width="1.5"/><circle cx="214.5" cy="515.75" r="2.54" fill="#dae1ff"/><circle cx="242.62" cy="531.37" r="2.54" fill="#dae1ff"/><polyline points="260.38 501.6 188.98 501.6 188.98 531.38 218.18 531.38" fill="none" stroke="#dae1ff" stroke-miterlimit="10" stroke-width="1.5"/><circle cx="260.25" cy="501.6" r="2.54" fill="#dae1ff"/><circle cx="218.05" cy="531.37" r="2.54" fill="#dae1ff"/><polyline points="328.08 452.27 319.72 460.63 319.72 501.6 277.51 501.6" fill="none" stroke="#dae1ff" stroke-miterlimit="10" stroke-width="1.5"/><circle cx="328" cy="452.36" r="2.54" transform="translate(-143.59 752.05) rotate(-86.49)" fill="#dae1ff"/><circle cx="277.64" cy="501.6" r="2.54" fill="#dae1ff"/><polyline points="409.96 487.61 378.24 487.61 378.24 466.8 391 454.04" fill="none" stroke="#dae1ff" stroke-miterlimit="10" stroke-width="1.5"/><circle cx="409.84" cy="487.61" r="2.54" fill="#dae1ff"/><path d="M392.71,455.92a2.54,2.54,0,1,0-3.59,0A2.54,2.54,0,0,0,392.71,455.92Z" fill="#dae1ff"/><polyline points="409.96 487.61 378.24 487.61 378.24 448.38" fill="none" stroke="#dae1ff" stroke-miterlimit="10" stroke-width="1.5"/><circle cx="409.84" cy="487.61" r="2.54" fill="#dae1ff"/><path d="M380.78,448.5a2.54,2.54,0,1,0-2.54,2.54A2.54,2.54,0,0,0,380.78,448.5Z" fill="#dae1ff"/><line x1="376.73" y1="502.66" x2="401.49" y2="502.66" fill="none" stroke="#dae1ff" stroke-miterlimit="10" stroke-width="1.5"/><circle cx="376.86" cy="502.66" r="2.54" fill="#dae1ff"/><circle cx="401.36" cy="502.66" r="2.54" fill="#dae1ff"/><line x1="533.36" y1="502.66" x2="483.29" y2="502.66" fill="none" stroke="#dae1ff" stroke-miterlimit="10" stroke-width="1.5"/><circle cx="533.23" cy="502.66" r="2.54" fill="#dae1ff"/><circle cx="483.42" cy="502.66" r="2.54" fill="#dae1ff"/><polyline points="489.53 479.69 489.53 488.8 520.88 488.8" fill="none" stroke="#dae1ff" stroke-miterlimit="10" stroke-width="1.5"/><circle cx="489.53" cy="479.82" r="2.54" transform="translate(-141.1 748.47) rotate(-67.5)" fill="#dae1ff"/><circle cx="520.76" cy="488.8" r="2.54" fill="#dae1ff"/><polyline points="330.54 440.12 304.74 440.12 304.74 485.16" fill="none" stroke="#dae1ff" stroke-miterlimit="10" stroke-width="1.5"/><path d="M330.41,437.58a2.54,2.54,0,1,1-2.54,2.54A2.54,2.54,0,0,1,330.41,437.58Z" fill="#dae1ff"/><path d="M302.21,485a2.54,2.54,0,1,0,2.53-2.54A2.54,2.54,0,0,0,302.21,485Z" fill="#dae1ff"/><polyline points="290.54 485.16 290.54 440.12 158.99 440.12" fill="none" stroke="#dae1ff" stroke-miterlimit="10" stroke-width="1.5"/><path d="M293.08,485a2.54,2.54,0,1,1-2.54-2.54A2.54,2.54,0,0,1,293.08,485Z" fill="#dae1ff"/><path d="M159.11,437.58a2.54,2.54,0,1,0,2.54,2.54A2.54,2.54,0,0,0,159.11,437.58Z" fill="#dae1ff"/><polyline points="186.81 466.28 277.78 466.28 277.78 485.74 210.73 485.74" fill="none" stroke="#dae1ff" stroke-miterlimit="10" stroke-width="1.5"/><circle cx="186.93" cy="466.28" r="2.54" fill="#dae1ff"/><circle cx="210.86" cy="485.74" r="2.54" fill="#dae1ff"/><line x1="562.9" y1="281.03" x2="714.04" y2="281.03" fill="none" stroke="#dae1ff" stroke-miterlimit="10" stroke-width="1.5"/><circle cx="563.03" cy="281.03" r="2.54" fill="#dae1ff"/><circle cx="713.91" cy="281.03" r="2.54" fill="#dae1ff"/><line x1="652" y1="335.6" x2="652" y2="348.15" fill="none" stroke="#dae1ff" stroke-miterlimit="10" stroke-width="1.5"/><path d="M649.46,335.73a2.54,2.54,0,1,1,2.54,2.54A2.54,2.54,0,0,1,649.46,335.73Z" fill="#dae1ff"/><path d="M649.46,348a2.54,2.54,0,1,0,2.54-2.54A2.54,2.54,0,0,0,649.46,348Z" fill="#dae1ff"/><line x1="638.47" y1="354.86" x2="638.47" y2="335.6" fill="none" stroke="#dae1ff" stroke-miterlimit="10" stroke-width="1.5"/><path d="M641,354.73a2.54,2.54,0,1,1-2.54-2.54A2.54,2.54,0,0,1,641,354.73Z" fill="#dae1ff"/><path d="M641,335.73a2.54,2.54,0,1,0-2.54,2.54A2.54,2.54,0,0,0,641,335.73Z" fill="#dae1ff"/><polyline points="627.83 354.83 627.83 321.75 661.39 321.75" fill="none" stroke="#dae1ff" stroke-miterlimit="10" stroke-width="1.5"/><path d="M630.37,354.7a2.54,2.54,0,1,1-2.54-2.54A2.54,2.54,0,0,1,630.37,354.7Z" fill="#dae1ff"/><circle cx="661.27" cy="321.74" r="2.54" fill="#dae1ff"/><polyline points="671 310.58 615.9 310.58 615.9 354.83" fill="none" stroke="#dae1ff" stroke-miterlimit="10" stroke-width="1.5"/><path d="M670,308.19a2.54,2.54,0,1,1-1.56,3.23A2.52,2.52,0,0,1,670,308.19Z" fill="#dae1ff"/><path d="M613.37,354.7a2.54,2.54,0,1,0,2.53-2.54A2.54,2.54,0,0,0,613.37,354.7Z" fill="#dae1ff"/><polyline points="601.07 324.13 601.07 299.44 670.85 299.44" fill="none" stroke="#dae1ff" stroke-miterlimit="10" stroke-width="1.5"/><path d="M603.6,324a2.54,2.54,0,1,1-2.53-2.54A2.54,2.54,0,0,1,603.6,324Z" fill="#dae1ff"/><circle cx="670.72" cy="299.44" r="2.54" fill="#dae1ff"/><polyline points="495.41 399.8 495.41 340.71 536.63 299.44 570.51 299.44" fill="none" stroke="#dae1ff" stroke-miterlimit="10" stroke-width="1.5"/><path d="M498,399.68a2.54,2.54,0,1,1-2.54-2.54A2.54,2.54,0,0,1,498,399.68Z" fill="#dae1ff"/><path d="M570.38,302a2.54,2.54,0,1,0-2.54-2.54A2.54,2.54,0,0,0,570.38,302Z" fill="#dae1ff"/><line x1="477.06" y1="361.53" x2="477.06" y2="399.8" fill="none" stroke="#dae1ff" stroke-miterlimit="10" stroke-width="1.5"/><path d="M474.52,361.66a2.54,2.54,0,1,1,2.54,2.54A2.54,2.54,0,0,1,474.52,361.66Z" fill="#dae1ff"/><path d="M474.52,399.68a2.54,2.54,0,1,0,2.54-2.54A2.54,2.54,0,0,0,474.52,399.68Z" fill="#dae1ff"/><polyline points="834.71 279.63 908.42 279.63 891.99 263.2 836.6 263.2" fill="none" stroke="#dae1ff" stroke-miterlimit="10" stroke-width="1.5"/><circle cx="834.83" cy="279.62" r="2.54" fill="#dae1ff"/><circle cx="836.72" cy="263.2" r="2.54" fill="#dae1ff"/><polyline points="811.57 279.63 755.33 279.63 729.5 253.79 656.87 253.79" fill="none" stroke="#dae1ff" stroke-miterlimit="10" stroke-width="1.5"/><circle cx="811.44" cy="279.62" r="2.54" fill="#dae1ff"/><circle cx="657" cy="253.79" r="2.54" fill="#dae1ff"/><polyline points="733.03 279.66 724.38 270.74 656.87 270.74" fill="none" stroke="#dae1ff" stroke-miterlimit="10" stroke-width="1.5"/><path d="M734.77,277.8a2.54,2.54,0,1,1-3.59-.05A2.54,2.54,0,0,1,734.77,277.8Z" fill="#dae1ff"/><circle cx="657" cy="270.74" r="2.54" fill="#dae1ff"/><line x1="859.66" y1="316.24" x2="911.83" y2="316.24" fill="none" stroke="#dae1ff" stroke-miterlimit="10" stroke-width="1.5"/><circle cx="859.79" cy="316.24" r="2.54" fill="#dae1ff"/><circle cx="911.7" cy="316.24" r="2.54" fill="#dae1ff"/><polyline points="781.8 250.04 897.55 250.04 929.51 282.01 929.51 297.4 840.82 297.4" fill="none" stroke="#dae1ff" stroke-miterlimit="10" stroke-width="1.5"/><circle cx="781.93" cy="250.04" r="2.54" fill="#dae1ff"/><circle cx="840.95" cy="297.4" r="2.54" fill="#dae1ff"/><polyline points="944.17 393.54 963.83 413.2 963.83 421.67 945.61 421.67" fill="none" stroke="#dae1ff" stroke-miterlimit="10" stroke-width="1.5"/><path d="M942.47,395.43a2.53,2.53,0,1,1,3.58,0A2.52,2.52,0,0,1,942.47,395.43Z" fill="#dae1ff"/><circle cx="945.74" cy="421.67" r="2.54" fill="#dae1ff"/><polyline points="962.52 364.39 982.18 384.05 982.18 269.28" fill="none" stroke="#dae1ff" stroke-miterlimit="10" stroke-width="1.5"/><circle cx="962.61" cy="364.48" r="2.54" transform="translate(476.56 1271.79) rotate(-82.56)" fill="#dae1ff"/><path d="M984.72,269.41a2.54,2.54,0,1,0-2.54,2.54A2.54,2.54,0,0,0,984.72,269.41Z" fill="#dae1ff"/><polyline points="929.51 227.57 929.51 321.24 916.01 334.73 853.57 334.73 828.95 310.12" fill="none" stroke="#dae1ff" stroke-miterlimit="10" stroke-width="1.5"/><path d="M927,227.7a2.54,2.54,0,1,1,2.53,2.53A2.54,2.54,0,0,1,927,227.7Z" fill="#dae1ff"/><path d="M830.84,308.42a2.53,2.53,0,1,0,0,3.58A2.52,2.52,0,0,0,830.84,308.42Z" fill="#dae1ff"/><polyline points="869.95 360.01 913 360.01 913 345.56 890.31 345.56" fill="none" stroke="#dae1ff" stroke-miterlimit="10" stroke-width="1.5"/><circle cx="870.07" cy="360.01" r="2.54" fill="#dae1ff"/><circle cx="890.44" cy="345.56" r="2.54" fill="#dae1ff"/><polyline points="781.64 147.35 881.11 147.35 893.47 159.71" fill="none" stroke="#dae1ff" stroke-miterlimit="10" stroke-width="1.5"/><circle cx="781.77" cy="147.35" r="2.54" fill="#dae1ff"/><circle cx="893.38" cy="159.62" r="2.54" transform="translate(-4.36 26.71) rotate(-1.71)" fill="#dae1ff"/><polyline points="914.24 237.12 914.24 147.04 883.44 116.24 807.41 116.24 792.47 131.18" fill="none" stroke="#dae1ff" stroke-miterlimit="10" stroke-width="1.5"/><path d="M916.78,237a2.54,2.54,0,1,1-2.54-2.54A2.54,2.54,0,0,1,916.78,237Z" fill="#dae1ff"/><path d="M790.76,129.29a2.54,2.54,0,1,0,3.59,0A2.54,2.54,0,0,0,790.76,129.29Z" fill="#dae1ff"/><polyline points="914.24 237.12 914.24 147.04 898.35 131.15 822.68 131.15" fill="none" stroke="#dae1ff" stroke-miterlimit="10" stroke-width="1.5"/><path d="M916.78,237a2.54,2.54,0,1,1-2.54-2.54A2.54,2.54,0,0,1,916.78,237Z" fill="#dae1ff"/><circle cx="822.8" cy="131.15" r="2.54" fill="#dae1ff"/><polyline points="961.52 251.75 945.88 267.39 945.88 308.25 961.24 323.61 961.24 350.03 943.2 350.03 943.2 367.12 990.42 414.34 990.42 436.59 943.2 436.59 943.2 530.25 960.17 530.25 960.17 458.4 988.01 458.4" fill="none" stroke="#dae1ff" stroke-miterlimit="10" stroke-width="1.5"/><circle cx="961.43" cy="251.84" r="2.54" transform="translate(692.69 1208.69) rotate(-88.99)" fill="#dae1ff"/><circle cx="987.89" cy="458.4" r="2.54" fill="#dae1ff"/><line x1="946.12" y1="326.02" x2="946.12" y2="337.66" fill="none" stroke="#dae1ff" stroke-miterlimit="10" stroke-width="1.5"/><path d="M943.58,326.15a2.54,2.54,0,1,1,2.54,2.54A2.54,2.54,0,0,1,943.58,326.15Z" fill="#dae1ff"/><path d="M943.58,337.53a2.54,2.54,0,1,0,2.54-2.54A2.54,2.54,0,0,0,943.58,337.53Z" fill="#dae1ff"/><line x1="960.18" y1="269.28" x2="960.18" y2="307.44" fill="none" stroke="#dae1ff" stroke-miterlimit="10" stroke-width="1.5"/><path d="M957.64,269.41a2.54,2.54,0,1,1,2.54,2.54A2.54,2.54,0,0,1,957.64,269.41Z" fill="#dae1ff"/><path d="M957.64,307.31a2.54,2.54,0,1,0,2.54-2.54A2.54,2.54,0,0,0,957.64,307.31Z" fill="#dae1ff"/><line x1="960.18" y1="125.41" x2="960.18" y2="163.56" fill="none" stroke="#dae1ff" stroke-miterlimit="10" stroke-width="1.5"/><path d="M957.64,125.53a2.54,2.54,0,1,1,2.54,2.54A2.53,2.53,0,0,1,957.64,125.53Z" fill="#dae1ff"/><path d="M957.64,163.43a2.54,2.54,0,1,0,2.54-2.54A2.54,2.54,0,0,0,957.64,163.43Z" fill="#dae1ff"/><polyline points="920.48 131.59 906.3 117.41 947.12 117.41 947.12 175.06 1014.05 242 1014.05 264.99 946.73 197.66 946.73 236.08 960.82 236.08" fill="none" stroke="#dae1ff" stroke-miterlimit="10" stroke-width="1.5"/><path d="M922.19,129.71a2.54,2.54,0,1,1-3.59,0A2.54,2.54,0,0,1,922.19,129.71Z" fill="#dae1ff"/><circle cx="960.69" cy="236.08" r="2.54" fill="#dae1ff"/><line x1="929.51" y1="140.04" x2="929.51" y2="208.39" fill="none" stroke="#dae1ff" stroke-miterlimit="10" stroke-width="1.5"/><path d="M927,140.16a2.54,2.54,0,1,1,2.53,2.54A2.54,2.54,0,0,1,927,140.16Z" fill="#dae1ff"/><path d="M927,208.26a2.54,2.54,0,1,0,2.53-2.54A2.54,2.54,0,0,0,927,208.26Z" fill="#dae1ff"/><line x1="876.47" y1="182.74" x2="820.82" y2="182.74" fill="none" stroke="#dae1ff" stroke-miterlimit="10" stroke-width="1.5"/><circle cx="876.35" cy="182.74" r="2.54" fill="#dae1ff"/><circle cx="820.95" cy="182.74" r="2.54" fill="#dae1ff"/><line x1="781.64" y1="202.09" x2="876.47" y2="202.09" fill="none" stroke="#dae1ff" stroke-miterlimit="10" stroke-width="1.5"/><circle cx="781.77" cy="202.09" r="2.54" fill="#dae1ff"/><circle cx="876.35" cy="202.09" r="2.54" fill="#dae1ff"/><polyline points="767.86 217.94 893.99 217.94 893.99 167.03 781.64 167.03" fill="none" stroke="#dae1ff" stroke-miterlimit="10" stroke-width="1.5"/><circle cx="767.99" cy="217.94" r="2.54" fill="#dae1ff"/><circle cx="781.77" cy="167.03" r="2.54" fill="#dae1ff"/><polyline points="842.92 75.44 982.18 75.44 982.18 186.5 965.58 169.9 965.58 90.5" fill="none" stroke="#dae1ff" stroke-miterlimit="10" stroke-width="1.5"/><path d="M843,78a2.54,2.54,0,1,1,2.54-2.53A2.54,2.54,0,0,1,843,78Z" fill="#dae1ff"/><circle cx="965.57" cy="90.63" r="2.54" transform="translate(38.82 376.41) rotate(-22.5)" fill="#dae1ff"/><polyline points="713.57 200.78 675.79 238.56 729.44 238.56 729.44 186.5 763.75 152.19" fill="none" stroke="#dae1ff" stroke-miterlimit="10" stroke-width="1.5"/><circle cx="713.48" cy="200.87" r="2.54" transform="translate(502.67 911.48) rotate(-89.2)" fill="#dae1ff"/><circle cx="763.66" cy="152.28" r="2.54" transform="translate(-13.93 110.76) rotate(-8.22)" fill="#dae1ff"/><polyline points="815.4 263.26 763.2 263.26 748.37 248.43 748.37 188.91" fill="none" stroke="#dae1ff" stroke-miterlimit="10" stroke-width="1.5"/><circle cx="815.28" cy="263.26" r="2.54" fill="#dae1ff"/><path d="M750.91,189a2.54,2.54,0,1,0-2.54,2.54A2.54,2.54,0,0,0,750.91,189Z" fill="#dae1ff"/><polyline points="777.21 382.73 777.21 323.88 752.43 299.1" fill="none" stroke="#dae1ff" stroke-miterlimit="10" stroke-width="1.5"/><circle cx="777.21" cy="382.6" r="2.54" transform="translate(126.3 954.23) rotate(-67.5)" fill="#dae1ff"/><path d="M754.31,297.4a2.54,2.54,0,1,0,0,3.59A2.54,2.54,0,0,0,754.31,297.4Z" fill="#dae1ff"/><polyline points="735.21 395.2 735.21 413.02 638.01 413.02" fill="none" stroke="#dae1ff" stroke-miterlimit="10" stroke-width="1.5"/><path d="M732.68,395.33a2.54,2.54,0,1,1,2.53,2.53A2.53,2.53,0,0,1,732.68,395.33Z" fill="#dae1ff"/><path d="M638.14,410.48a2.54,2.54,0,1,0,2.54,2.54A2.54,2.54,0,0,0,638.14,410.48Z" fill="#dae1ff"/><line x1="638.01" y1="392.79" x2="707.87" y2="392.79" fill="none" stroke="#dae1ff" stroke-miterlimit="10" stroke-width="1.5"/><path d="M638.14,395.33a2.54,2.54,0,1,1,2.54-2.54A2.54,2.54,0,0,1,638.14,395.33Z" fill="#dae1ff"/><circle cx="707.75" cy="392.79" r="2.54" fill="#dae1ff"/><polyline points="777.21 382.73 777.21 297.95 790.24 297.95" fill="none" stroke="#dae1ff" stroke-miterlimit="10" stroke-width="1.5"/><circle cx="777.21" cy="382.6" r="2.54" transform="translate(126.3 954.23) rotate(-67.5)" fill="#dae1ff"/><path d="M790.11,300.49a2.54,2.54,0,1,0-2.54-2.54A2.54,2.54,0,0,0,790.11,300.49Z" fill="#dae1ff"/><line x1="929.5" y1="339.84" x2="929.5" y2="490.19" fill="none" stroke="#dae1ff" stroke-miterlimit="10" stroke-width="1.5"/><path d="M927,340a2.54,2.54,0,1,1,2.53,2.54A2.53,2.53,0,0,1,927,340Z" fill="#dae1ff"/><path d="M927,490.07a2.54,2.54,0,1,0,2.53-2.54A2.54,2.54,0,0,0,927,490.07Z" fill="#dae1ff"/><polyline points="916.79 456.98 916.79 414.36 901.17 414.36 901.17 485.1" fill="none" stroke="#dae1ff" stroke-miterlimit="10" stroke-width="1.5"/><circle cx="916.79" cy="456.85" r="2.54" transform="translate(143.87 1129.02) rotate(-67.5)" fill="#dae1ff"/><path d="M898.63,485a2.54,2.54,0,1,0,2.54-2.54A2.54,2.54,0,0,0,898.63,485Z" fill="#dae1ff"/><polyline points="903.58 379.47 916.79 379.47 916.79 392.32" fill="none" stroke="#dae1ff" stroke-miterlimit="10" stroke-width="1.5"/><circle cx="903.71" cy="379.47" r="2.54" fill="#dae1ff"/><circle cx="916.79" cy="392.19" r="2.54" transform="translate(-80.3 380.69) rotate(-22.5)" fill="#dae1ff"/><polyline points="887.01 439.1 887.01 510.5 916.79 510.5 916.79 481.3" fill="none" stroke="#dae1ff" stroke-miterlimit="10" stroke-width="1.5"/><path d="M884.48,439.23a2.54,2.54,0,1,1,2.53,2.53A2.53,2.53,0,0,1,884.48,439.23Z" fill="#dae1ff"/><circle cx="916.79" cy="481.43" r="2.54" transform="translate(-114.45 387.49) rotate(-22.5)" fill="#dae1ff"/><polyline points="837.68 371.39 846.05 379.75 887.01 379.75 887.01 421.96" fill="none" stroke="#dae1ff" stroke-miterlimit="10" stroke-width="1.5"/><path d="M836,373.28a2.54,2.54,0,1,1,3.59,0A2.54,2.54,0,0,1,836,373.28Z" fill="#dae1ff"/><path d="M884.48,421.84A2.54,2.54,0,1,0,887,419.3,2.54,2.54,0,0,0,884.48,421.84Z" fill="#dae1ff"/><polyline points="825.53 368.94 825.53 394.73 870.57 394.73" fill="none" stroke="#dae1ff" stroke-miterlimit="10" stroke-width="1.5"/><path d="M823,369.07a2.54,2.54,0,1,1,2.54,2.53A2.53,2.53,0,0,1,823,369.07Z" fill="#dae1ff"/><circle cx="870.44" cy="394.73" r="2.54" fill="#dae1ff"/><polyline points="870.57 408.93 825.53 408.93 825.53 483.58 810.94 498.18" fill="none" stroke="#dae1ff" stroke-miterlimit="10" stroke-width="1.5"/><circle cx="870.44" cy="408.93" r="2.54" fill="#dae1ff"/><path d="M809.24,496.29a2.53,2.53,0,1,0,3.58,0A2.52,2.52,0,0,0,809.24,496.29Z" fill="#dae1ff"/><polyline points="871.16 511.98 871.16 530.85 929.5 530.85 929.5 512.91" fill="none" stroke="#dae1ff" stroke-miterlimit="10" stroke-width="1.5"/><circle cx="871.16" cy="512.11" r="2.54" transform="translate(-129.66 372.36) rotate(-22.5)" fill="#dae1ff"/><path d="M932,513a2.54,2.54,0,1,0-2.54,2.54A2.54,2.54,0,0,0,932,513Z" fill="#dae1ff"/><polyline points="851.7 528.44 851.7 421.69 871.16 421.69 871.16 488.74" fill="none" stroke="#dae1ff" stroke-miterlimit="10" stroke-width="1.5"/><path d="M854.23,528.31a2.54,2.54,0,1,1-2.53-2.54A2.54,2.54,0,0,1,854.23,528.31Z" fill="#dae1ff"/><path d="M868.62,488.62a2.54,2.54,0,1,0,2.54-2.54A2.54,2.54,0,0,0,868.62,488.62Z" fill="#dae1ff"/><polyline points="810.51 300.37 810.51 312.17 858.52 360.17" fill="none" stroke="#dae1ff" stroke-miterlimit="10" stroke-width="1.5"/><path d="M808,300.49a2.54,2.54,0,1,1,2.53,2.54A2.54,2.54,0,0,1,808,300.49Z" fill="#dae1ff"/><path d="M856.63,361.87a2.53,2.53,0,1,0,0-3.58A2.52,2.52,0,0,0,856.63,361.87Z" fill="#dae1ff"/><polyline points="810.51 300.37 810.51 331.17 817.85 338.51" fill="none" stroke="#dae1ff" stroke-miterlimit="10" stroke-width="1.5"/><path d="M808,300.49a2.54,2.54,0,1,1,2.53,2.54A2.54,2.54,0,0,1,808,300.49Z" fill="#dae1ff"/><circle cx="817.76" cy="338.42" r="2.54" transform="translate(-9.73 24.54) rotate(-1.71)" fill="#dae1ff"/><polyline points="588.04 300.02 588.04 325.75 564.19 349.59 564.19 399.8" fill="none" stroke="#dae1ff" stroke-miterlimit="10" stroke-width="1.5"/><path d="M585.5,300.15a2.54,2.54,0,1,1,2.54,2.54A2.54,2.54,0,0,1,585.5,300.15Z" fill="#dae1ff"/><path d="M561.66,399.68a2.54,2.54,0,1,0,2.53-2.54A2.53,2.53,0,0,0,561.66,399.68Z" fill="#dae1ff"/><polyline points="523.1 333.71 511.15 345.66 511.15 399.8" fill="none" stroke="#dae1ff" stroke-miterlimit="10" stroke-width="1.5"/><circle cx="523" cy="333.8" r="2.54" fill="#dae1ff"/><path d="M508.61,399.68a2.54,2.54,0,1,0,2.54-2.54A2.54,2.54,0,0,0,508.61,399.68Z" fill="#dae1ff"/><polyline points="535.24 321.57 545.92 310.88 571.19 310.88 571.19 325.75 547.34 349.59 547.34 399.8" fill="none" stroke="#dae1ff" stroke-miterlimit="10" stroke-width="1.5"/><circle cx="535.33" cy="321.48" r="2.54" fill="#dae1ff"/><path d="M544.8,399.68a2.54,2.54,0,1,0,2.54-2.54A2.54,2.54,0,0,0,544.8,399.68Z" fill="#dae1ff"/><polyline points="556.42 520.26 556.42 500.18 502.92 446.68 502.92 436.2" fill="none" stroke="#dae1ff" stroke-miterlimit="10" stroke-width="1.5"/><path d="M559,520.13a2.54,2.54,0,1,1-2.53-2.53A2.53,2.53,0,0,1,559,520.13Z" fill="#dae1ff"/><path d="M505.45,436.33a2.54,2.54,0,1,0-2.53,2.53A2.53,2.53,0,0,0,505.45,436.33Z" fill="#dae1ff"/><polyline points="577.98 461.31 629.16 461.31 648.91 481.05 764.89 481.05" fill="none" stroke="#dae1ff" stroke-miterlimit="10" stroke-width="1.5"/><circle cx="578.11" cy="461.31" r="2.54" fill="#dae1ff"/><circle cx="764.76" cy="481.05" r="2.54" fill="#dae1ff"/><polyline points="764.89 481.05 675.99 481.05 661.02 496.02 636.77 496.02 619.98 477.07 597.4 477.07" fill="none" stroke="#dae1ff" stroke-miterlimit="10" stroke-width="1.5"/><circle cx="764.76" cy="481.05" r="2.54" fill="#dae1ff"/><circle cx="597.53" cy="477.08" r="2.54" fill="#dae1ff"/><line x1="615.17" y1="493.56" x2="597.4" y2="493.56" fill="none" stroke="#dae1ff" stroke-miterlimit="10" stroke-width="1.5"/><circle cx="615.05" cy="493.56" r="2.54" fill="#dae1ff"/><circle cx="597.53" cy="493.56" r="2.54" fill="#dae1ff"/><line x1="663.72" y1="461.54" x2="720.73" y2="461.54" fill="none" stroke="#dae1ff" stroke-miterlimit="10" stroke-width="1.5"/><circle cx="663.85" cy="461.54" r="2.54" fill="#dae1ff"/><circle cx="720.6" cy="461.54" r="2.54" fill="#dae1ff"/><polyline points="632.58 442.75 722.18 442.75 747.77 468.34 764.89 468.34" fill="none" stroke="#dae1ff" stroke-miterlimit="10" stroke-width="1.5"/><circle cx="632.71" cy="442.75" r="2.54" fill="#dae1ff"/><circle cx="764.76" cy="468.34" r="2.54" fill="#dae1ff"/><polyline points="558.24 463.95 558.24 483.71 579.95 483.71 579.95 499.73" fill="none" stroke="#dae1ff" stroke-miterlimit="10" stroke-width="1.5"/><path d="M555.7,464.07a2.54,2.54,0,1,1,2.54,2.54A2.54,2.54,0,0,1,555.7,464.07Z" fill="#dae1ff"/><circle cx="579.95" cy="499.6" r="2.54" fill="#dae1ff"/><line x1="522.21" y1="443.62" x2="615.98" y2="443.62" fill="none" stroke="#dae1ff" stroke-miterlimit="10" stroke-width="1.5"/><circle cx="522.34" cy="443.62" r="2.54" fill="#dae1ff"/><circle cx="615.85" cy="443.62" r="2.54" fill="#dae1ff"/><polyline points="743.21 496.47 708.11 496.47 696.01 508.56 594.99 509.18 594.99 522.67 695.11 522.67" fill="none" stroke="#dae1ff" stroke-miterlimit="10" stroke-width="1.5"/><circle cx="743.08" cy="496.47" r="2.54" fill="#dae1ff"/><circle cx="694.99" cy="522.67" r="2.54" fill="#dae1ff"/><line x1="743.21" y1="530.85" x2="558.83" y2="530.85" fill="none" stroke="#dae1ff" stroke-miterlimit="10" stroke-width="1.5"/><circle cx="743.08" cy="530.85" r="2.54" fill="#dae1ff"/><circle cx="558.95" cy="530.85" r="2.54" fill="#dae1ff"/><polyline points="792.65 481.79 792.65 496.47 757 496.47 757 530.27 757 530.85 801.68 530.85" fill="none" stroke="#dae1ff" stroke-miterlimit="10" stroke-width="1.5"/><path d="M790.12,481.92a2.54,2.54,0,1,1,2.54,2.54A2.54,2.54,0,0,1,790.12,481.92Z" fill="#dae1ff"/><circle cx="801.55" cy="530.85" r="2.54" fill="#dae1ff"/><line x1="743.21" y1="515.75" x2="720.98" y2="515.75" fill="none" stroke="#dae1ff" stroke-miterlimit="10" stroke-width="1.5"/><circle cx="743.08" cy="515.75" r="2.54" fill="#dae1ff"/><circle cx="721.11" cy="515.75" r="2.54" fill="#dae1ff"/><line x1="820.34" y1="518.35" x2="769.71" y2="518.35" fill="none" stroke="#dae1ff" stroke-miterlimit="10" stroke-width="1.5"/><circle cx="820.22" cy="518.35" r="2.54" fill="#dae1ff"/><circle cx="769.84" cy="518.35" r="2.54" fill="#dae1ff"/><polyline points="742.94 442.14 761.58 442.14 761.58 455.15" fill="none" stroke="#dae1ff" stroke-miterlimit="10" stroke-width="1.5"/><circle cx="743.07" cy="442.14" r="2.54" fill="#dae1ff"/><circle cx="761.58" cy="455.03" r="2.54" transform="translate(-116.16 326.08) rotate(-22.5)" fill="#dae1ff"/><polyline points="504.77 472.3 487.13 454.66 487.13 435.77" fill="none" stroke="#dae1ff" stroke-miterlimit="10" stroke-width="1.5"/><path d="M506.47,470.42a2.53,2.53,0,1,1-3.58,0A2.52,2.52,0,0,1,506.47,470.42Z" fill="#dae1ff"/><path d="M489.67,435.9a2.54,2.54,0,1,0-2.54,2.54A2.54,2.54,0,0,0,489.67,435.9Z" fill="#dae1ff"/><polyline points="494.46 417.38 463.64 417.38 463.64 354.06 548.14 269.55 625 269.55" fill="none" stroke="#dae1ff" stroke-miterlimit="10" stroke-width="1.5"/><circle cx="494.33" cy="417.38" r="2.54" fill="#dae1ff"/><circle cx="624.87" cy="269.55" r="2.54" fill="#dae1ff"/><polyline points="761.39 389.21 761.39 409.25 792.65 409.25 792.65 466.56" fill="none" stroke="#dae1ff" stroke-miterlimit="10" stroke-width="1.5"/><path d="M758.85,389.34a2.54,2.54,0,1,1,2.54,2.53A2.54,2.54,0,0,1,758.85,389.34Z" fill="#dae1ff"/><path d="M790.11,466.43a2.54,2.54,0,1,0,2.54-2.54A2.54,2.54,0,0,0,790.11,466.43Z" fill="#dae1ff"/><line x1="792.65" y1="374.72" x2="792.65" y2="466.55" fill="none" stroke="#dae1ff" stroke-miterlimit="10" stroke-width="1.5"/><path d="M790.11,374.85a2.54,2.54,0,1,1,2.54,2.54A2.54,2.54,0,0,1,790.11,374.85Z" fill="#dae1ff"/><path d="M790.11,466.43a2.54,2.54,0,1,0,2.54-2.54A2.54,2.54,0,0,0,790.11,466.43Z" fill="#dae1ff"/><polyline points="811.36 390.96 811.36 359.1 793.71 341.45" fill="none" stroke="#dae1ff" stroke-miterlimit="10" stroke-width="1.5"/><circle cx="811.36" cy="390.84" r="2.54" transform="translate(139.78 990.87) rotate(-67.5)" fill="#dae1ff"/><path d="M795.59,339.74a2.54,2.54,0,1,0,0,3.59A2.54,2.54,0,0,0,795.59,339.74Z" fill="#dae1ff"/><line x1="436.69" y1="387.42" x2="448.9" y2="399.62" fill="none" stroke="#dae1ff" stroke-miterlimit="10" stroke-width="1.5"/><path d="M435,389.3a2.54,2.54,0,1,1,3.59,0A2.54,2.54,0,0,1,435,389.3Z" fill="#dae1ff"/><circle cx="448.81" cy="399.53" r="2.54" fill="#dae1ff"/><polyline points="417.54 386.3 386.76 386.3 374.38 398.68" fill="none" stroke="#dae1ff" stroke-miterlimit="10" stroke-width="1.5"/><circle cx="417.41" cy="386.3" r="2.54" fill="#dae1ff"/><circle cx="374.47" cy="398.59" r="2.54" transform="translate(-54.23 59) rotate(-8.4)" fill="#dae1ff"/><polyline points="626.24 253.79 493.77 253.79 323.44 424.12" fill="none" stroke="#dae1ff" stroke-miterlimit="10" stroke-width="1.5"/><circle cx="626.11" cy="253.79" r="2.54" fill="#dae1ff"/><path d="M321.74,422.23a2.54,2.54,0,1,0,3.59,0A2.54,2.54,0,0,0,321.74,422.23Z" fill="#dae1ff"/><line x1="523.8" y1="273.6" x2="426.55" y2="370.85" fill="none" stroke="#dae1ff" stroke-miterlimit="10" stroke-width="1.5"/><path d="M521.91,271.9a2.54,2.54,0,1,1,0,3.59A2.54,2.54,0,0,1,521.91,271.9Z" fill="#dae1ff"/><path d="M424.85,369a2.54,2.54,0,1,0,3.59,0A2.54,2.54,0,0,0,424.85,369Z" fill="#dae1ff"/><line x1="403.29" y1="369.77" x2="499.46" y2="273.6" fill="none" stroke="#dae1ff" stroke-miterlimit="10" stroke-width="1.5"/><circle cx="403.38" cy="369.68" r="2.54" transform="translate(21.83 761.86) rotate(-88.29)" fill="#dae1ff"/><circle cx="499.37" cy="273.69" r="2.54" transform="translate(-32.88 71.23) rotate(-7.9)" fill="#dae1ff"/><polyline points="553.14 322.92 527.55 348.51 527.55 417.26 555.83 417.26" fill="none" stroke="#dae1ff" stroke-miterlimit="10" stroke-width="1.5"/><path d="M551.26,321.22a2.54,2.54,0,1,1,0,3.59A2.54,2.54,0,0,1,551.26,321.22Z" fill="#dae1ff"/><circle cx="555.7" cy="417.26" r="2.54" fill="#dae1ff"/></g><polygon points="-26.39 422.53 165.69 422.53 203.94 460.79 203.94 564.21 -26.39 564.21 -26.39 422.53" fill="url(#b)"/><polygon points="153.1 495.17 146.49 495.17 141.95 481.88 148.57 481.88 153.1 495.17" fill="#707479" fill-rule="evenodd"/><polygon points="98.75 538.02 103.72 540.4 107.11 536.53 102.13 534.16 98.75 538.02" fill="#7e4183" fill-rule="evenodd"/><path d="M106.56,545.35H109v2.26h-3.94l-8.36-7.43,2.07-2.67,5.19,2.6Z" fill="#313545" fill-rule="evenodd"/><path d="M126.07,519.09,105.2,539.73,99.92,535c4.55-5.54,11.74-18.15,18.37-20.68Z" fill="#313545" fill-rule="evenodd"/><path d="M90,501s-1.59,12.47,8.83,13.88,30.7.89,30.7.89,1.73-8.92-4.67-10.45c-8.09-1.94-17.78-3.24-17.78-3.24Z" fill="#434655" fill-rule="evenodd"/><path d="M96.93,470.48l2.51-7.87L105,464.7l-1.06,7.5c-1.65-1.88-4.16-2.1-7-1.72Z" fill="#9c4345" fill-rule="evenodd"/><path d="M101.79,465.08a8,8,0,0,0,2.45,4.76l.23-1.57.32-2.3A4.91,4.91,0,0,1,101.79,465.08Z" fill="#843436" fill-rule="evenodd"/><path d="M97.28,458c.75-4.23,4.46-4.81,8.11-4,3.44.76,3.73,3.64,3.39,6a3.32,3.32,0,0,0,1,2.47c.2.57-.73,1-1,1.22s-.07,3-.85,3.5c-2.12,1.27-5.6-.21-5.6-.21C98.55,465.05,96.54,462.28,97.28,458Z" fill="#9c4345"/><path d="M102.89,461.6l-.37-1.21s-2.39,2.81-3.87,4.69c-1.11-2.88-2.26-4-1.72-7,.75-4.23,4.84-5.24,8.46-4.31,3.8,1,1.13,1.85-1.13,2s-2.15,1.39-1.9,2.16,2,1.31,1.79,3.84Z" fill="#220350"/><path d="M100.83,459.56a1.91,1.91,0,1,1-.84,2.19,1.68,1.68,0,0,1,.84-2.19Z" fill="#9c4345" fill-rule="evenodd"/><rect x="123.18" y="493.86" width="20.7" height="1.31" transform="translate(267.07 989.03) rotate(180)" fill="#909397"/><rect x="77.18" y="495.17" width="84.89" height="2.48" rx="0.66" fill="#fff"/><path d="M109.82,483.39l-.71,19s-6.37,3.08-19.49-.45c-.91-.66-1.05-1.85-.2-3.71l-.23-12.59a30.21,30.21,0,0,1,1-8.63c1-3.5,2.71-7.32,5.83-7.87s5-.31,8.57.49a10.51,10.51,0,0,1,8.12,9Z" fill="#796fbf" fill-rule="evenodd"/><path d="M132,491.06s1.76-1.65,3.12-1.19c.65.21,1.65.08,2.62.43A8.61,8.61,0,0,1,140.1,492a1.67,1.67,0,0,1-1,1.82c-.43.16-1.94-.82-1.94-.82a10.51,10.51,0,0,1-5,1.17l-3.14-.15-1.45-1.77Z" fill="#9c4345" fill-rule="evenodd"/><path d="M111.23,474.63l8.51,13.28,10.79,1.41a1.93,1.93,0,0,1,1.68,1.92v3.28l-14.75.45-9.66-5.54Z" fill="#796fbf" fill-rule="evenodd"/><polygon points="132.25 545.2 137.28 545.32 131.88 531.84 127.27 533.18 132.25 545.2" fill="#7e4183" fill-rule="evenodd"/><polygon points="137.12 544.29 131.53 543.73 131.53 547.61 143.88 547.61 143.88 546.27 137.12 544.29" fill="#313545" fill-rule="evenodd"/><path d="M129.59,511l7.62,31-7.91.26c-3.74-9.89-7.73-18.17-8.49-26.35Z" fill="#434655" fill-rule="evenodd"/><path d="M100.38,513.28v27.27A1.49,1.49,0,0,1,98.9,542h0a1.49,1.49,0,0,1-1.49-1.48V513.28Z" fill="#909397"/><path d="M99.06,526.91h0a3.66,3.66,0,0,1-3.66-3.65v-4.85a3.66,3.66,0,0,1,3.66-3.65h0a3.66,3.66,0,0,1,3.65,3.65v4.85A3.66,3.66,0,0,1,99.06,526.91Z" fill="#707479" fill-rule="evenodd"/><circle cx="99.1" cy="545.32" r="1.9" fill="#909397"/><circle cx="110" cy="545.32" r="1.9" fill="#909397"/><circle cx="88.2" cy="545.32" r="1.9" fill="#909397"/><path d="M111.58,542h-25a1.2,1.2,0,0,1-1.2-1.2h0a1.2,1.2,0,0,1,1.2-1.2h25a1.2,1.2,0,0,1,1.2,1.2h0A1.2,1.2,0,0,1,111.58,542Z" fill="#909397"/><path d="M110.72,519.18H87a3.43,3.43,0,0,1-3.43-3.43h0A3.44,3.44,0,0,1,87,512.31h23.75a3.44,3.44,0,0,1,3.44,3.44h0A3.43,3.43,0,0,1,110.72,519.18Z" fill="#fff" fill-rule="evenodd"/><path d="M109.5,492l-5.17-4.81v16.13a10.88,10.88,0,0,0,4.78-.92c.85-.67,1.15-1.42.1-2.69Z" fill="#675fa3" fill-rule="evenodd"/><path d="M157.88,487.59H129.05a2.12,2.12,0,0,1-2.12-2.21l.84-18.85a2.11,2.11,0,0,1,2.12-2h28.83a2.11,2.11,0,0,1,2.11,2.21L160,485.57A2.11,2.11,0,0,1,157.88,487.59Z" fill="#909397" fill-rule="evenodd"/><polygon points="127.77 466.53 126.93 485.38 159.99 485.57 160.83 466.72 127.77 466.53" fill="#fff" fill-rule="evenodd"/><polygon points="155.83 482.43 156.37 469.7 131.94 469.7 131.39 482.43 155.83 482.43" fill="none" stroke="#c1c4eb" stroke-miterlimit="10" stroke-width="0.82"/><line x1="156.29" y1="472.22" x2="131.86" y2="472.22" fill="none" stroke="#c1c4eb" stroke-miterlimit="10" stroke-width="0.82"/><line x1="156.18" y1="474.78" x2="131.74" y2="474.78" fill="none" stroke="#c1c4eb" stroke-miterlimit="10" stroke-width="0.82"/><line x1="156.06" y1="477.33" x2="131.63" y2="477.33" fill="none" stroke="#c1c4eb" stroke-miterlimit="10" stroke-width="0.82"/><line x1="155.94" y1="479.88" x2="131.51" y2="479.88" fill="none" stroke="#c1c4eb" stroke-miterlimit="10" stroke-width="0.82"/><line x1="135.23" y1="469.67" x2="134.65" y2="482.43" fill="none" stroke="#c1c4eb" stroke-miterlimit="10" stroke-width="0.82"/><line x1="137.37" y1="469.67" x2="136.79" y2="482.43" fill="none" stroke="#c1c4eb" stroke-miterlimit="10" stroke-width="0.82"/><line x1="146.78" y1="469.67" x2="146.2" y2="482.43" fill="none" stroke="#c1c4eb" stroke-miterlimit="10" stroke-width="0.82"/><line x1="154.08" y1="469.67" x2="153.5" y2="482.43" fill="none" stroke="#c1c4eb" stroke-miterlimit="10" stroke-width="0.82"/><rect x="570.53" y="426.31" width="270.02" height="115.42" fill="url(#c)"/><rect x="777.02" y="237.72" width="205.16" height="115.42" fill="url(#d)"/><rect x="295.64" y="515.75" width="232.36" height="33.25" fill="url(#e)"/><line x1="528" y1="515.75" x2="295.64" y2="515.75" fill="none" stroke="#c148f7" stroke-miterlimit="10" stroke-width="1.12"/><path d="M448.94,445.22s-3.08,5-3.65,14.06c0,0,2.23-.21,2.22-.53S448.94,445.22,448.94,445.22Z" fill="#a1a6e1" fill-rule="evenodd"/><polygon points="427.97 512.04 423.45 511.72 424.94 506.52 429.27 506.83 427.97 512.04" fill="#9c4345" fill-rule="evenodd"/><polygon points="448.26 512.04 443.42 511.69 444.03 506.71 448.87 507.06 448.26 512.04" fill="#9c4345" fill-rule="evenodd"/><path d="M428.33,515.15a1.45,1.45,0,0,0,.11-.5c0-1.36.05-3.24.05-3.24l-4.62-.45a63.36,63.36,0,0,1-5.71,3.43,1.38,1.38,0,0,0-.81.76Z" fill="#a0a3a5" fill-rule="evenodd"/><path d="M458.46,509.35h0a1.32,1.32,0,0,1-1.32-1.32V483.8a1.32,1.32,0,0,1,1.32-1.32h0a1.32,1.32,0,0,1,1.32,1.32V508A1.32,1.32,0,0,1,458.46,509.35Z" fill="#b3b7e7"/><path d="M458.6,490.27h0a3.26,3.26,0,0,1-3.25-3.25v-4.3a3.26,3.26,0,0,1,3.25-3.25h0a3.26,3.26,0,0,1,3.25,3.25V487A3.26,3.26,0,0,1,458.6,490.27Z" fill="#989dde" fill-rule="evenodd"/><circle cx="458.63" cy="513.7" r="1.69" fill="#b3b7e7"/><circle cx="468.31" cy="513.7" r="1.69" fill="#b3b7e7"/><circle cx="448.94" cy="513.7" r="1.69" fill="#b3b7e7"/><path d="M469.73,510.41H447.55a1.05,1.05,0,0,1-1.06-1.06h0a1.06,1.06,0,0,1,1.06-1.07h22.18a1.07,1.07,0,0,1,1.07,1.07h0A1.06,1.06,0,0,1,469.73,510.41Z" fill="#b3b7e7"/><rect x="442.43" y="477.18" width="32.06" height="6.11" rx="1.59" fill="#c148f7"/><path d="M450.17,464.16s-2.85,8.18-2.65,9.78a11.52,11.52,0,0,0,2,5.11l14-.11a6.47,6.47,0,0,0,6.32-7.57v-.06c-.07-.37-.13-.75-.18-1.13l-1-7.08c-4.34,2.82-12.21,4-19.1,2.12Z" fill="#3963ee" fill-rule="evenodd"/><path d="M438.68,464.72l5.14-4.5,3.89-4.87,2.3,5.45a17.67,17.67,0,0,1-10.49,7.57l-.61-1.83Z" fill="#a1a6e1" fill-rule="evenodd"/><path d="M430.19,508.61l-6.22-.53c0-.78,4.48-17.83,7-25a8.06,8.06,0,0,1,4-4.55l15-7.46,9.81,8.34-20.64,8.52Z" fill="#3963ee" fill-rule="evenodd"/><path d="M430.19,508.61l-2.51-.21c.6-5,4.47-9.42,6.22-11.89,2.22-3.14.86-8.37,1.79-11a8.72,8.72,0,0,1,1.91-2.67,16.66,16.66,0,0,1,7.45-4.46,28.73,28.73,0,0,0,8.48-4.32l6.29,5.34-20.64,8.52Z" fill="#3948ca" fill-rule="evenodd"/><path d="M448.33,515.15a1.45,1.45,0,0,0,.11-.5c0-1.36.05-3.24.05-3.24l-5.14-.11a53.43,53.43,0,0,1-5.19,3.09,1.38,1.38,0,0,0-.81.76Z" fill="#a0a3a5" fill-rule="evenodd"/><path d="M453.92,428.71s-3.31,1.49-.72,4.57.72-4.57.72-4.57Z" fill="#220350" fill-rule="evenodd"/><path d="M465.11,443.2a3.33,3.33,0,0,0-1.88-2.77,6,6,0,0,0-4.11-.36,31,31,0,0,0-4.87,1.4L452.87,446l4.59,2.18,9-6.76Z" fill="#989dde" fill-rule="evenodd"/><path d="M453.31,431.34a4,4,0,0,1,1.37-2.86,4,4,0,0,1,3-1h0a4,4,0,0,1,3.63,4.18c0,1.23-.1,2.57-.15,3.74a2.86,2.86,0,0,1-3.14,2.73l-2.22-.22a3,3,0,0,1-2.67-3.06c0-1.09.1-2.35.15-3.54Z" fill="#9c4345" fill-rule="evenodd"/><polygon points="463.32 442.77 460.44 435.29 455.2 437.62 456.66 444.83 463.32 442.77 463.32 442.77" fill="#9c4345" fill-rule="evenodd"/><path d="M459,430.87s-.52,3.66,2.36,3.75a24.1,24.1,0,0,0,1.63-5c.31-3.15-6-3.78-8.56-2.44s-1,3.76,4.57,3.69Z" fill="#220350" fill-rule="evenodd"/><path d="M455.58,441.43c1.66,2.62,5.65.25,6.3-.68.1-.15,1.86.92,2.08,1.09,3.51,2.52,4,13.35,4.59,17.25.29,1.82,1.92,7.92,1.05,9.51-.29.52-3,.12-3.56.22-2.28.42-12.52,1.25-13.92-.38s-.35-4.66-.62-6.58A48.27,48.27,0,0,1,452.79,443Z" fill="#fff" fill-rule="evenodd"/><path d="M452.63,456.65c1.78,5.53,15-.41,13.52-3.06-2.1-3.71.92,2.55,1.48,6.46.26,1.81,1.73,7.92.95,9.5-.26.53-1.31,4.77-1.8,4.79-6.48.27-16.46.7-16.91-1.44-.63-3,2.28-8.15,2.5-10.08C452.92,457.82,452.63,456.65,452.63,456.65Z" fill="#e8e8e8" fill-rule="evenodd"/><path d="M461.33,433.09a1.28,1.28,0,1,0,.64,1.44,1.14,1.14,0,0,0-.64-1.44Z" fill="#9c4345" fill-rule="evenodd"/><path d="M453.15,434.88c-.18-.33-1,4.94,2.2,5.2s4.49-1,4.71-7.07c0,0-1.27,3.68-3.12,3.73-3.87.12-3.56-1.47-3.79-1.86Z" fill="#220350" fill-rule="evenodd"/><path d="M454.68,437.78a2.32,2.32,0,0,0,1.62.1" fill="none" stroke="#9c4345" stroke-linecap="round" stroke-linejoin="round" stroke-width="1.09"/><path d="M442,509.9l7-.2,2.4-23.14,15-8.35-1.59-2.43L454.12,475l-7.92,3.76a6.79,6.79,0,0,0-3.88,6.19Z" fill="#3963ee" fill-rule="evenodd"/><path d="M454.25,441.47s-1.94,9.87-2,15.81-2.7,18.05-2.7,18.05c-.95-1.77-4.34-1.24-4.65-2.86,0,0,3-19.54,3.5-24.66S450.85,442.83,454.25,441.47Z" fill="#b3b7e7" fill-rule="evenodd"/><path d="M448.41,466s-1.78-1.22-2.91-.63c-.54.28-1.43.3-2.24.74a7.56,7.56,0,0,0-1.84,1.85,1.5,1.5,0,0,0,1.11,1.47c.4.08,1.59-1,1.59-1a7,7,0,0,0,3.83,0Z" fill="#9c4345" fill-rule="evenodd"/><path d="M440.16,465.91s-1.68-1.33-2.85-.83a23.32,23.32,0,0,0-2.29.58,7.41,7.41,0,0,0-2,1.7,1.49,1.49,0,0,0,1,1.55c.39.11,1.66-.87,1.66-.87a6.83,6.83,0,0,0,3.81.33Z" fill="#9c4345" fill-rule="evenodd"/><polygon points="448.41 466.02 454.02 465.6 454.25 468.6 447.21 468.21 448.41 466.02" fill="#9c4345" fill-rule="evenodd"/><rect x="432.15" y="467.7" width="18.4" height="1.17" fill="#fff"/><path d="M473.35,461.41a73.06,73.06,0,0,0-.8-9.3c-.61-3.9-1.4-6.83-2.77-8.45-1.2-1.41-2.34-1.63-3.87-2.38l-2.68-.85c-1.63,7.61-2.76,14.87-2.05,22.41l-8.94,1.77,0,4.26h13.8l2.75-.9,2.61-1.46A7.24,7.24,0,0,0,473.35,461.41Z" fill="#b3b7e7" fill-rule="evenodd"/><path d="M437.71,468.87H416.6l-6.37-14.2h20.62a.76.76,0,0,1,.69.44Z" fill="#a45acc" fill-rule="evenodd"/><path d="M436,468.87H414.9l-6.08-13.54a.47.47,0,0,1,.43-.66h20.09a.46.46,0,0,1,.42.28Z" fill="#fff" fill-rule="evenodd"/><path d="M461,459.66s-.18,7.56-1.92,11c-.77,1.53-4.79,5.62-4.79,5.62s15.43,1.53,15.92-4.7a121,121,0,0,1,2-13.47Z" fill="#b3b7e7" fill-rule="evenodd"/><path d="M423,461.86c.25.88-.44,1.6-1.53,1.6a2.58,2.58,0,0,1-2.44-1.6c-.25-.89.43-1.6,1.53-1.6A2.58,2.58,0,0,1,423,461.86Z" fill="#afb3e0" fill-rule="evenodd"/><path d="M473.35,461.41a73.06,73.06,0,0,0-.8-9.3c-.61-3.9-1.4-6.83-2.77-8.45-1.2-1.41-2.34-1.63-3.87-2.38l-2.68-.85c10.25,5.25,6.94,16.49,7.64,24-1.64.88-2.42.6-6.26,1.36a49.93,49.93,0,0,1-7.13,2.08c-2.32-.49-3.62-.65-5.22-.19v1.17h13.8l2.75-.9,2.61-1.46A7.24,7.24,0,0,0,473.35,461.41Z" fill="#dae1ff" fill-rule="evenodd"/><path d="M475.79,471.07H399.65a1.1,1.1,0,0,1-1.1-1.1h0a1.1,1.1,0,0,1,1.1-1.1h76.14a1.1,1.1,0,0,1,1.1,1.1h0A1.1,1.1,0,0,1,475.79,471.07Z" fill="#fff" fill-rule="evenodd"/><path d="M351.18,456.52a45.15,45.15,0,0,0,3.88-8.36c0,.61-2.24,1.59,2.9.84,0,0,7,11.44,4.59,29.5-.51,3.85-.16,13.44-.48,17s-.95,14.3-1,14.32a6.19,6.19,0,0,0,.36,2.56,3.24,3.24,0,0,0,1.07.89c.88.51,1.72,1,.66,1.51s-5.15.12-5.14-.43,0-1.12,0-1.59a18.47,18.47,0,0,0-.26-2.65,100.93,100.93,0,0,1-2.38-18.5c-.17-9-1.68-8.09-1.95-12.18C352.41,464.52,349.39,459.73,351.18,456.52Z" fill="#d66262"/><path d="M362.5,513.31a10.88,10.88,0,0,1-4.49-.51l-.38,2.47,8.26,0c1.05-.55,0-.87,0-.87Z" fill="#a0a3a5"/><path d="M346.16,513.41c0-.36,0-.69,0-1a19.55,19.55,0,0,0-.17-2.7,107.41,107.41,0,0,1-1.85-18.87c.1-9.08-.35-7.7-.53-11.84-.39-8.95-.31-18.27,1.27-23.56a35.11,35.11,0,0,0,1.75-9.47s1.6,3.16,8.71,3.06c0,0-2.35,25.79-2.53,29.63s-1.7,13.39-2.12,17-1.88,13.87-1.11,16.85c.07.27.5.64,1,1a9.2,9.2,0,0,0,.95.62" fill="#ed6c6c"/><path d="M347.72,513.62c.22-4.6.91-18.74,1.28-23.78.44-6.06.39-10.79.39-10.79l-5.77-.08v0c.18,4.14.63,2.76.53,11.84A107.41,107.41,0,0,0,346,509.71a19.55,19.55,0,0,1,.17,2.7c0,.31,0,.64,0,1Z" fill="#d66262"/><path d="M354.39,515.38c1.07-.4,0-.87,0-.87-1.23-.26-2.93-.37-3.78-1a11.24,11.24,0,0,1-4.46-1.1c0,.47,0,2.29,0,2.88Z" fill="#a0a3a5"/><path d="M343.22,480.52h20.62c.2-5.17,1.11-14.38-4.79-31.66H345.79C340.39,456.79,343.22,480.52,343.22,480.52Z" fill="#a0a3a5"/><path d="M350.12,461.86c.12-7.49,3.74-10,4.28-12.86l-.11-.14h-8.5c-5.4,7.93-2.57,31.66-2.57,31.66h6.22C349.59,477.33,350,468,350.12,461.86Z" fill="#909397"/><polygon points="354.4 424.34 358.31 426.1 361.85 418.44 358.03 416.51 354.4 424.34" fill="#ed6c6c"/><path d="M363.6,433.38l7.28,3.08a2.25,2.25,0,0,0,2.53-.34h0a2.26,2.26,0,0,0-.32-3.59L360.61,426Z" fill="#e8e8e8"/><path d="M372,420.74l-1.79,1s-.46,10.85-.46,12.57,2,2,2,2a2.2,2.2,0,0,0,2.24-2.42Z" fill="#ed6c6c"/><path d="M359.74,422.85s4.14,9.6,3.92,11.77l-2.82,6-1.74,4.87c.5,1.78,1.35,3.49-.16,3.66H345.79c.77-15.85,3.63-25.5,9.94-27.84C356.63,421,358,421.91,359.74,422.85Z" fill="#e8e8e8"/><polygon points="355.27 428.7 346.02 445.3 346.88 435.2 355.27 428.7" fill="#d2d2d2"/><path d="M360.39,424.4,359,433c-3.81,5.07-4.56,16-4.56,16h0l4.54.16c1.51-.17.66-1.88.16-3.66l1.74-4.87,2.82-6C363.82,433,361.55,427.21,360.39,424.4Z" fill="#fff"/><path d="M346.54,451l.89,2.38a2.1,2.1,0,0,1,0,1.48l-1.22,3.32-1.13-1-.95-3.06a3.16,3.16,0,0,1,.16-2.17l.51-1.21Z" fill="#ed6c6c"/><path d="M344.35,441.51c.88,3.76,1.14,5.8,2.1,9.55l-1.56,1.31c-3.07-7.24-5.21-9.49-4.87-12.82C344.61,436,339.91,438.6,344.35,441.51Z" fill="#ed6c6c"/><path d="M372,420.74l-2-1.55a2.2,2.2,0,0,0-1.41-.45l-2.06.11a1,1,0,0,0-.89,1.44h0l2.64,1.81a3.18,3.18,0,0,0,2.12.5l1.31-.13Z" fill="#ed6c6c"/><path d="M357.17,412.69c.77-3.26,1-3.8,3.93-4.26,2.93-.2,1,.77,4,1.55,1.76.47,1.72,2.12,1.35,4.18a2.94,2.94,0,0,0,.79,2.23c.16.51-.68.85-.92,1.05s-.48,2.36-1.22,2.66a20,20,0,0,1-3.8,0c-3.27-1.84-2-8.45-2-8.45C359.15,410.52,357,413.55,357.17,412.69Z" fill="#ed6c6c"/><circle cx="353.3" cy="410.91" r="3.27" fill="none" stroke="#220350" stroke-miterlimit="10" stroke-width="0.73"/><circle cx="354.89" cy="410.62" r="2.59" fill="none" stroke="#220350" stroke-miterlimit="10" stroke-width="0.73"/><circle cx="354.73" cy="409.33" r="2.59" fill="none" stroke="#220350" stroke-miterlimit="10" stroke-width="0.73"/><circle cx="353.3" cy="413.03" r="2.59" fill="none" stroke="#220350" stroke-miterlimit="10" stroke-width="0.73"/><circle cx="354.4" cy="411.37" r="3.1" fill="#220350"/><path d="M361,407.15s-6.37-.42-5,7.42a6.57,6.57,0,0,0,1,2.64,1.87,1.87,0,0,0,1.74.86,1.58,1.58,0,0,0,1.17-.46c2.05-2.73,1.63-2.07,3.3-6.72l2.37-.89.47-.67Z" fill="#220350"/><path d="M360.94,416.08s-1.26-4.71.43-5.92l4.7-.83S365.31,414.37,360.94,416.08Z" fill="#220350"/><polygon points="361.06 423.18 355.53 419.89 354.16 421.41 361.74 425.86 361.06 423.18" fill="#fff"/><path d="M339.85,439.6a4.4,4.4,0,0,0,4.64,2.49L353.56,431c.85-.85,1.95-2.1,1.9-3.27-.08-1.54-1.36-3-4.16-1.39C348.89,427.75,342.65,435.32,339.85,439.6Z" fill="#e8e8e8"/><path d="M361.68,415.21c.21,1-.2,2-.91,2s-1.46-.69-1.67-1.73.2-2,.91-2S361.47,414.16,361.68,415.21Z" fill="#ed6c6c"/><rect x="394.33" y="416.74" width="44.07" height="30.37" fill="#b3b7cb" style="mix-blend-mode:multiply"/><rect x="398.96" y="412.63" width="44.07" height="30.37" fill="#fff"/><path d="M404,435.86c8.76,0,22.43-6.08,30.77-15.85" fill="none" stroke="#ff9155" stroke-linecap="round" stroke-linejoin="round" stroke-width="1.09"/><path d="M429.28,421.64l6-2.06a45.14,45.14,0,0,1-1.83,5.28" fill="none" stroke="#ff9155" stroke-linecap="round" stroke-linejoin="round" stroke-width="1.09"/><line x1="438.38" y1="438.33" x2="438.38" y2="416.74" fill="none" stroke="#dae1ff" stroke-miterlimit="10" stroke-width="1.46"/><polyline points="403.61 414.37 403.61 438.33 440 438.33" fill="none" stroke="#ff9155" stroke-linecap="round" stroke-linejoin="round" stroke-width="1.09"/><path d="M399,429.31h12.25A12.67,12.67,0,0,0,424,416.74a12.2,12.2,0,0,0-.72-4.11H399Z" fill="#e8e8e8" style="mix-blend-mode:multiply"/><path d="M410,425.6a12.57,12.57,0,1,0,0-25.14H392.21a12.57,12.57,0,1,0,0,25.14Z" fill="#fff"/><line x1="410.35" y1="417.77" x2="387.99" y2="417.77" fill="none" stroke="#b3b7e7" stroke-miterlimit="10" stroke-width="1.46"/><line x1="416.62" y1="413.03" x2="387.99" y2="413.03" fill="none" stroke="#b3b7e7" stroke-miterlimit="10" stroke-width="1.46"/><line x1="412.73" y1="408.29" x2="387.99" y2="408.29" fill="none" stroke="#b3b7e7" stroke-miterlimit="10" stroke-width="1.46"/><path d="M383,418.09s-2.57,6.32-8,8c0,0,9.28,2.09,14.09-5.33" fill="#fff"/><rect x="683.07" y="295.75" width="105.14" height="77.61" fill="url(#f)"/><g style="mix-blend-mode:multiply"><path d="M709.91,319.64v6.62" fill="none" stroke="#b5b5d8" stroke-linecap="round" stroke-linejoin="round" stroke-width="1.09"/><path d="M709.91,326.86l7.59-.77" fill="none" stroke="#b5b5d8" stroke-linecap="round" stroke-linejoin="round" stroke-width="1.09"/><path d="M709.91,320.22l7.58-.31" fill="none" stroke="#b5b5d8" stroke-linecap="round" stroke-linejoin="round" stroke-width="1.09"/><path d="M718.42,319.94l-.27,5.12" fill="none" stroke="#b5b5d8" stroke-linecap="round" stroke-linejoin="round" stroke-width="1.09"/><path d="M714.3,326.26a21.4,21.4,0,0,1,.26,5.42" fill="none" stroke="#b5b5d8" stroke-linecap="round" stroke-linejoin="round" stroke-width="1.09"/><path d="M728,348.05l-3.22.24a.66.66,0,0,0-.49.17.8.8,0,0,0-.13.55l.07,2.21a2.24,2.24,0,0,0,.34,1.38c.5.63,1.44.51,2.2.34l1.86-.42a.86.86,0,0,0,.49-.23.9.9,0,0,0,.13-.67l-.22-3.39" fill="none" stroke="#b5b5d8" stroke-linecap="round" stroke-linejoin="round" stroke-width="1.09"/><path d="M729.44,350.41l5.24,0" fill="none" stroke="#b5b5d8" stroke-linecap="round" stroke-linejoin="round" stroke-width="1.09"/><path d="M735.5,348.23l-.29,3.61" fill="none" stroke="#b5b5d8" stroke-linecap="round" stroke-linejoin="round" stroke-width="1.09"/><path d="M735.56,352.75h3.79" fill="none" stroke="#b5b5d8" stroke-linecap="round" stroke-linejoin="round" stroke-width="1.09"/><path d="M735.27,347.64l4.1,0a1,1,0,0,1,.7.19,1,1,0,0,1,.16.86l-.38,3.77" fill="none" stroke="#b5b5d8" stroke-linecap="round" stroke-linejoin="round" stroke-width="1.09"/><path d="M740.22,350.07a11.92,11.92,0,0,0,4.08.26" fill="none" stroke="#b5b5d8" stroke-linecap="round" stroke-linejoin="round" stroke-width="1.09"/><path d="M744.89,347v4.82" fill="none" stroke="#b5b5d8" stroke-linecap="round" stroke-linejoin="round" stroke-width="1.09"/><path d="M744.59,353l5-.29" fill="none" stroke="#b5b5d8" stroke-linecap="round" stroke-linejoin="round" stroke-width="1.09"/><path d="M749.84,352.45a20.65,20.65,0,0,1-.29-4.51" fill="none" stroke="#b5b5d8" stroke-linecap="round" stroke-linejoin="round" stroke-width="1.09"/><path d="M749.26,347.36l-4.37.31" fill="none" stroke="#b5b5d8" stroke-linecap="round" stroke-linejoin="round" stroke-width="1.09"/><path d="M756,353.55h10.2" fill="none" stroke="#b5b5d8" stroke-linecap="round" stroke-linejoin="round" stroke-width="1.09"/><path d="M756,349.77c3.79-.14,7.59-.1,11.38.12" fill="none" stroke="#b5b5d8" stroke-linecap="round" stroke-linejoin="round" stroke-width="1.09"/><path d="M698.25,321.74H705" fill="none" stroke="#b5b5d8" stroke-linecap="round" stroke-linejoin="round" stroke-width="1.09"/><path d="M699.4,324.92l5.56-.24" fill="none" stroke="#b5b5d8" stroke-linecap="round" stroke-linejoin="round" stroke-width="1.09"/></g><g style="mix-blend-mode:multiply"><path d="M692.72,310.58q40.35.89,80.73.77" fill="none" stroke="#8786c0" stroke-linecap="round" stroke-linejoin="round" stroke-width="1.09"/><path d="M702.77,333.48c5.93.16,23.38-.05,29.29-.63" fill="none" stroke="#8786c0" stroke-linecap="round" stroke-linejoin="round" stroke-width="1.09"/><path d="M733,328.07l-.29,7.22" fill="none" stroke="#8786c0" stroke-linecap="round" stroke-linejoin="round" stroke-width="1.09"/><path d="M732.64,336.19h7.58" fill="none" stroke="#8786c0" stroke-linecap="round" stroke-linejoin="round" stroke-width="1.09"/><path d="M732.94,327.77a21.16,21.16,0,0,0,7.57,0" fill="none" stroke="#8786c0" stroke-linecap="round" stroke-linejoin="round" stroke-width="1.09"/><path d="M741.1,327.77v7.52" fill="none" stroke="#8786c0" stroke-linecap="round" stroke-linejoin="round" stroke-width="1.09"/><path d="M726.23,333.94c-.11,4-.18,8.59-.29,12.56" fill="none" stroke="#8786c0" stroke-linecap="round" stroke-linejoin="round" stroke-width="1.09"/><path d="M703.07,333.18a49.74,49.74,0,0,1-.23,7.22" fill="none" stroke="#8786c0" stroke-linecap="round" stroke-linejoin="round" stroke-width="1.09"/><path d="M697.67,341.31h7.87" fill="none" stroke="#8786c0" stroke-linecap="round" stroke-linejoin="round" stroke-width="1.09"/><path d="M706.12,341a18.7,18.7,0,0,1,.29,5.12" fill="none" stroke="#8786c0" stroke-linecap="round" stroke-linejoin="round" stroke-width="1.09"/><path d="M697.52,341.16c.1,1.41.05,5.07.15,6.47" fill="none" stroke="#8786c0" stroke-linecap="round" stroke-linejoin="round" stroke-width="1.09"/><path d="M697.67,348.25a14.71,14.71,0,0,0,6.4.24" fill="none" stroke="#8786c0" stroke-linecap="round" stroke-linejoin="round" stroke-width="1.09"/><path d="M756.42,340.87a12,12,0,0,0,3.47-3.14,2.89,2.89,0,0,0,.69-1.72c0-.63-.6-1.26-1.2-1.11-.44.12-.69.58-.87,1a6.25,6.25,0,0,0-.59,3.29,2.93,2.93,0,0,0,2,2.47,3.3,3.3,0,0,0,1.62-.08,7.19,7.19,0,0,0,5.13-6.37,1.2,1.2,0,0,0-.36-1.12c-.64-.43-1.3.55-1.49,1.32-.39,1.54-.66,3.5.58,4.45s2.62.31,3.87-.24" fill="none" stroke="#8786c0" stroke-linecap="round" stroke-linejoin="round" stroke-width="1.09"/><path d="M714.56,358.47h10.2" fill="none" stroke="#8786c0" stroke-linecap="round" stroke-linejoin="round" stroke-width="1.09"/><path d="M714.56,361.8l9.06-.08" fill="none" stroke="#8786c0" stroke-linecap="round" stroke-linejoin="round" stroke-width="1.09"/><path d="M714.56,365.49a69.25,69.25,0,0,1,8.76-.19" fill="none" stroke="#8786c0" stroke-linecap="round" stroke-linejoin="round" stroke-width="1.09"/><path d="M709.7,305.21a23.33,23.33,0,0,1,11.89-3c.76,0,1.69.2,1.91.94a1.69,1.69,0,0,1-.16,1.14c-.8,1.76-3.58,3.6-4.71,2.32s7.38-5.78,11-4c1.82.88-1,6.4-2.94,5.06s4.1-4.19,6.46-4.71c1.46-.33,3.34-.37,4,1,1,2.24-4,4.24-4.3,2.61s13.62-2.76,19.94-1.45" fill="none" stroke="#8786c0" stroke-linecap="round" stroke-linejoin="round" stroke-width="1.09"/></g><path d="M617.79,369.64l2.7,1.33c-8,8.45-7.83,9.92-11.86,12.78L606,377.57Z" fill="#ed6c6c"/><path d="M617.83,369.57l3.45-1.47a3.15,3.15,0,0,1,2.18-.1l2.89.92a1.52,1.52,0,0,1,.73,2.39h0l-4.44,1.6a4.71,4.71,0,0,1-3.22-.09l-1.82-.67Z" fill="#ed6c6c"/><path d="M606,367.56l3.09,10c.48.17,1.77,6.17-1,6.68,0,0-2.89.52-4-3.62a97.65,97.65,0,0,1-2-11.45Z" fill="#ed6c6c" fill-rule="evenodd"/><path d="M601,358.41s3.42,4,6.09,12.63l-5.29,3Z" fill="#e8e8e8" fill-rule="evenodd"/><circle cx="593.97" cy="423.12" r="1.69" fill="#b3b7e7"/><circle cx="603.66" cy="423.12" r="1.69" fill="#b3b7e7"/><circle cx="584.29" cy="423.12" r="1.69" fill="#b3b7e7"/><path d="M593.79,418.38h0a1.32,1.32,0,0,1-1.32-1.32V392.83a1.31,1.31,0,0,1,1.32-1.31h0a1.31,1.31,0,0,1,1.32,1.31v24.23A1.32,1.32,0,0,1,593.79,418.38Z" fill="#b3b7e7"/><path d="M593.93,406.1h0a3.26,3.26,0,0,1-3.25-3.25v-4.31a3.26,3.26,0,0,1,3.25-3.25h0a3.26,3.26,0,0,1,3.25,3.25v4.31A3.26,3.26,0,0,1,593.93,406.1Z" fill="#989dde" fill-rule="evenodd"/><path d="M605.06,419.8H582.89a1.07,1.07,0,0,1-1.07-1.07h0a1.06,1.06,0,0,1,1.07-1.06h22.17a1.06,1.06,0,0,1,1.07,1.06h0A1.07,1.07,0,0,1,605.06,419.8Z" fill="#b3b7e7"/><path d="M583.81,401.42h22a3.69,3.69,0,0,0,3.69-3.69h0a3.69,3.69,0,0,0-3.69-3.69h-22a3.69,3.69,0,0,0-3.69,3.69h0A3.69,3.69,0,0,0,583.81,401.42Z" fill="#089cef"/><rect x="576.37" y="362.38" width="20.64" height="26.82" rx="2.34" fill="#089cef"/><polygon points="619.57 422.67 624.04 422.77 623.2 409.38 618.93 409.26 619.57 422.67" fill="#ed6c6c" fill-rule="evenodd"/><polygon points="623.9 421.86 619.23 421.36 618.93 424.81 629.91 424.81 629.91 423.62 623.9 421.86" fill="#220350" fill-rule="evenodd"/><path d="M601.76,387l18,2a5.11,5.11,0,0,1,4.74,4.88l.46,25.62-7-.2-2.39-23L597.18,394Z" fill="#95899b" fill-rule="evenodd"/><path d="M602,380.69c-6,1.78-12.88.63-16.67-2.16l-.84,7.08c-.05.38-.1.75-.16,1.13v.06c-.59,3.93,2.06,7.53,5.59,7.56l12.33.11a12.29,12.29,0,0,0,1.77-5.1C604.1,388.13,602.63,383,602,380.69Z" fill="#a0a3a5"/><path d="M599.92,344.49s4.43,2.09,1.84,5.17-2.42-5.17-2.42-5.17Z" fill="#220350" fill-rule="evenodd"/><polygon points="590.7 358.19 594.76 351.24 598.82 353.05 597.36 360.26 590.7 358.19 590.7 358.19" fill="#d66464" fill-rule="evenodd"/><path d="M601.68,348.2a4,4,0,0,0-4.4-3.83h0a4,4,0,0,0-3.63,4.18c.05,1.22.1,2.57.15,3.73A4.87,4.87,0,0,0,595,355a10.85,10.85,0,0,0,4.2,1.39c1.56-.15,2.73-3.12,2.66-4.69,0-1.08-.09-2.34-.14-3.53Z" fill="#ed6c6c" fill-rule="evenodd"/><path d="M600.66,343c-2.55-1.34-8.87-.39-8.39,4.14a32.85,32.85,0,0,0,1.47,5.18c1.27-1.58,2.36-5.63,2.36-5.63h4.56a2.28,2.28,0,0,0,2.46-1.82s-.3.24-1.35-.07l.8-.69Z" fill="#220350" fill-rule="evenodd"/><path d="M598.05,356.86c-1.74,2.62-5.9.24-6.58-.68a8.84,8.84,0,0,0-2.18,1.09c-3.65,2.52-4.13,13.35-4.78,17.25-.3,1.81-2,7.92-1.1,9.5.3.53,3.15.13,3.72.23,2.38.42,13.07,1.25,14.53-.38s.63-9.51.91-11.44c1.48-10.1-1.61-14-1.61-14Z" fill="#e8e8e8" fill-rule="evenodd"/><path d="M593.8,348.87a1.13,1.13,0,0,1,1.25,1c.17.67.05,2-.47,2.17s-1.25-1-1.42-1.68a1.14,1.14,0,0,1,.64-1.45Z" fill="#ed6c6c" fill-rule="evenodd"/><polygon points="600.51 422.67 604.97 422.77 610.07 409.38 605.79 409.26 600.51 422.67" fill="#ed6c6c" fill-rule="evenodd"/><polygon points="604.84 421.86 600.16 421.36 599.86 424.81 610.85 424.81 610.85 423.62 604.84 421.86" fill="#220350" fill-rule="evenodd"/><path d="M605.83,400.22l-17.59-6.14.94-3.15,11.17-2.78,10.37,5.18c2.25,1,4.26,4.5,3.06,7l-6.58,19.1-7-.2Z" fill="#a0a3a5" fill-rule="evenodd"/><path d="M596.48,387l4.68,2.49s3.08,3.08,1,4.23-2.73-.53-3.1-1-2.18-.38-3.92-3.69Z" fill="#ed6c6c" fill-rule="evenodd"/><path d="M596.77,390.42l.41-3.13L585,381.36l.2-11.91-6.52,2.85v9.15a6.34,6.34,0,0,0,3.09,5.45Z" fill="#ed6c6c" fill-rule="evenodd"/><path d="M589.29,357.27s-11.18,3.25-11.56,16.78h9.86Z" fill="#e8e8e8" fill-rule="evenodd"/><path d="M627.83,379.47h21.11l6.37-14.2H634.69a.75.75,0,0,0-.69.44Z" fill="#fff" fill-rule="evenodd"/><path d="M628.65,379.47h21.11l6.08-13.55a.46.46,0,0,0-.42-.65h-20.1a.46.46,0,0,0-.42.28Z" fill="#b3b7e7" fill-rule="evenodd"/><path d="M641.62,372.46c-.25.88.44,1.6,1.54,1.6a2.58,2.58,0,0,0,2.43-1.6c.26-.89-.43-1.6-1.53-1.6A2.59,2.59,0,0,0,641.62,372.46Z" fill="#fff" fill-rule="evenodd"/><path d="M648.94,379.47H616.06a1.11,1.11,0,0,0-1.11,1.1h0a1.11,1.11,0,0,0,1.11,1.1h32.88Z" fill="#b3b7e7" fill-rule="evenodd"/><path d="M592.9,383.4H656a1.1,1.1,0,0,0,1.1-1.1h0a1.1,1.1,0,0,0-1.1-1.1H592.9a1.11,1.11,0,0,0-1.11,1.1h0A1.11,1.11,0,0,0,592.9,383.4Z" fill="#fff" fill-rule="evenodd"/><path d="M778.33,327a28.57,28.57,0,0,0-3.11.14c-1.76.18-4.48-1.31-5.19-1.81a2.7,2.7,0,0,1,0-.81l0-.06a3.89,3.89,0,0,1,.32-.65,16.68,16.68,0,0,0,3.48.1s-1.51-.6-1.58-1.1l.14-.32s1.7.45,2.48.59a12.78,12.78,0,0,1,3.24,1S779.6,326.49,778.33,327Z" fill="#9c4345"/><path d="M779.47,342.37c1,4.39,6.95,2.84,5.22-2.24-2.17-6.34-6.26-15.51-6.26-15.51l-2.07,2.25C776,326,777,331.15,779.47,342.37Z" fill="#9c4345"/><path d="M794.71,332.78s-13.32,4.5-14.33,9.66c-1.16,5.93,12.23,2.84,14.52-2.13C796.9,336,797.67,332.6,794.71,332.78Z" fill="#fff"/><path d="M812.57,332.65s10.61,7.71,15.62,18.1a1.94,1.94,0,0,1-.23,1.86c-1.13,1.45-3.33,2.15-13.15,5.47-.61.21-.48,2.24-.66,3.93a.88.88,0,0,1-1.74,0l-.61-4.31s5.79-5,11.16-7c0,0-6.77-5.57-12.49-9.74C807.66,339,809.52,331.2,812.57,332.65Z" fill="#9c4345"/><path d="M812,422.7c0-.39,0-.74,0-1.07a19.44,19.44,0,0,1,.09-2.85,122.47,122.47,0,0,0,1.21-20c-.37-9.6.11-8.14.16-12.52.11-9.46.32-19.59-1.38-25.19-1.93-6.37-1.56-10.13-1.56-10.13s-2.46,3.74-9.38,3.63c0,0-.35,10.47,2.2,11.65,0,0,.87,15.62,1.16,19.69s2.06,14.16,2.58,17.94,2.25,14.67,1.6,17.82c-.06.29-.48.67-1,1.09a8.71,8.71,0,0,1-.92.65" fill="#9c4345"/><path d="M804.05,424.78c-1-.43,0-.92,0-.92,1.19-.28,2.84-.4,3.66-1.06a10.09,10.09,0,0,0,4.3-1.17c0,.5,0,2.43.08,3.05Z" fill="#3b2645"/><path d="M801.37,353.14s0,.15.07.45A1,1,0,0,0,801.37,353.14Z" fill="#9c4345"/><path d="M804.33,362.53a45,45,0,0,1-2.89-8.84c-.06.64-.85,1.68-5.77.89,0,0-5.14,12.1-4.74,31.19.09,4.08-1.28,14.21-1.35,18s-.59,15.11-.55,15.14a7.34,7.34,0,0,1-.62,2.71,3.57,3.57,0,0,1-1.14.93c-.9.55-1.77,1-.8,1.6s5,.13,5-.45.12-1.19.18-1.68a23,23,0,0,1,.53-2.81,120.17,120.17,0,0,0,4.29-19.56c1.12-9.55,2.49-8.55,3.19-12.87C802.28,371,805.73,365.92,804.33,362.53Z" fill="#9c4345"/><path d="M787.27,422.58a9.93,9.93,0,0,0,4.43-.53l.11,2.6-8,0c-1-.57.1-.91.1-.91Z" fill="#3b2645"/><path d="M810.41,353.18c-8.44,4.26-14.74,1.34-14.74,1.34s-.46-9.88-1.24-12.09a7.72,7.72,0,0,1-.29-2.32,57.35,57.35,0,0,1,.57-7.33,8.78,8.78,0,0,1,2.51-.75l.46-.07c1.43-.22,2.74-.28,2.74-.28l.15-1.54.1-1,.17-1.68c.21-2.24,4.79-1.28,4.79-1.28v5.49a12.76,12.76,0,0,0,2.28.25l.41,0a11.82,11.82,0,0,1,3.62.64C812.91,333.19,809.86,350.76,810.41,353.18Z" fill="#9c4345"/><path d="M805.63,326.72v1.64a7.26,7.26,0,0,1-5.06,1.78l.1-1,.17-1.68C801.79,326.2,804.66,326.56,805.63,326.72Z" fill="#753233"/><path d="M798.92,319a7.06,7.06,0,0,0-.69,3.52c-.15,4.62,2.08,6.32,3.6,6.32a5.12,5.12,0,0,0,5.33-4.94,10.58,10.58,0,0,0-.25-5.05C805.88,316.49,801.09,315.9,798.92,319Z" fill="#9c4345"/><path d="M795.67,354.52s-5.79,6.87-5.32,36c0,0-.93,8.22-1.21,13.61,0,0,13.19,3.06,25-.47,0,0-.35-7.1-.18-12.49s1.22-25.45-3.34-36.69A36.17,36.17,0,0,1,795.67,354.52Z" fill="#220350"/><path d="M812.57,332.65a49.79,49.79,0,0,1-.44,8.26c-.61,3.95-1,4.78-.61,7.43a15.62,15.62,0,0,1-.91,6.18s-7.75,3.16-14.94,0c0,0-1.22-4.17-.86-5.76a8.79,8.79,0,0,0-.67-5c-.64-1.66-1.48-4.24-.63-6.08a11.6,11.6,0,0,0,.63-4.68S803.91,329.71,812.57,332.65Z" fill="#fff"/><path d="M812,332.18a33.32,33.32,0,0,1,10.53,8.54c4.52,5.7,4.59,7.09,6.2,8.06s-2.33,3.33-5.73,2-11.59-8.85-11.59-8.85S808.32,332.2,812,332.18Z" fill="#fff"/><path d="M795.1,334.16a0,0,0,0,0-.07,0,6.5,6.5,0,0,0-.85,2.3c-.33,1-.76,2-1.12,3,0,.12.15.2.21.09a21.93,21.93,0,0,0,1.18-2.83A5.35,5.35,0,0,0,795.1,334.16Z" fill="#b8c3e3"/><path d="M811.31,336.18a15.75,15.75,0,0,0-.11-2.38s0,0,0,0a8.91,8.91,0,0,0,.18,5.16c0,.15.29.13.28,0C811.53,338,811.36,337.1,811.31,336.18Z" fill="#b8c3e3"/><path d="M807.59,326.79a7,7,0,0,0,1.59-6.26c-.56-1.84-2.7-3.31-4.58-3.78a6.11,6.11,0,0,0-5.67,1.88,3.69,3.69,0,0,0-.68,2.49c0,1.94,3,2.19,4.25,4.92a3.54,3.54,0,0,0,3.63,2.33Z" fill="#220350"/><path d="M808.34,323.07c.54,1-.36,1.23-.31,2.45s1,1.06.83,1.84-.82,2.18-.52,3.05,1.22.75,1.15,1.34-1.15,1.57-1.07,2.16-.09,3.1,4,3.09c2.47,0,2.4-1.76,2.45-2.81a3,3,0,0,0-1.31-2.44c-.38-.44.31-1.22.39-1.93s-1-1.37-1.3-2.05.31-1.68.23-2.25-1.26-1.35-1.09-2.45c.38-2.52-2.57-3.21-3.8-2.25S808.34,323.07,808.34,323.07Z" fill="#220350"/><path d="M799.7,322.94s.73-1.91,1.87-.9-.43,3.76-2.18,3.54C799.39,325.58,799.15,323.6,799.7,322.94Z" fill="#9c4345"/><path d="M801,322.91a1.6,1.6,0,0,0-.7.45,1.86,1.86,0,0,0-.5.65c0,.07.07.12.13.07s.26-.3.4-.45a.94.94,0,0,0,.33.27.13.13,0,0,0,.14-.18,1,1,0,0,0-.27-.27,4.62,4.62,0,0,0,.55-.41A.08.08,0,0,0,801,322.91Z" fill="#753233"/><polygon points="667.48 422.58 672.14 422.69 671.44 411.34 667.16 412.59 667.48 422.58" fill="#7e4183" fill-rule="evenodd"/><polygon points="672 421.73 666.81 421.21 666.81 424.81 678.27 424.81 678.27 423.57 672 421.73" fill="#220350" fill-rule="evenodd"/><polygon points="682.99 422.58 687.65 422.69 686.95 411.34 682.67 412.59 682.99 422.58" fill="#7e4183" fill-rule="evenodd"/><polygon points="687.51 421.73 682.32 421.21 682.32 424.81 693.78 424.81 693.78 423.57 687.51 421.73" fill="#220350" fill-rule="evenodd"/><path d="M686.8,330.63s3.26-.56,7,17.55l-5.39-.2S685.79,336.11,686.8,330.63Z" fill="#220350"/><path d="M681.86,420.6s-1.06-42.73-1.29-45.09c-.34-3.54-1-4.33-1.44-4.18s-.78.64-1.32,3.69c-.6,3.37-5.07,45.58-5.07,45.58l-6.39.15s.81-23,1.09-28.13c.22-4.24.41-7.84.56-10.88.77-15,1-21.73,1-21.73l19.39.49s.81,11,.81,13.64c0,16.58-.65,46.61-.65,46.61Z" fill="#95899b"/><path d="M665.64,332.92a2,2,0,0,1,.12.28,49.93,49.93,0,0,1,3,9.78c.34,2.1.19,17,.19,17,7.44,2,19.39.49,19.39.49s.08-12.73-1.3-29.26l-4.82-.72-2.4-.35.64-2.21.89-2.14a7.64,7.64,0,0,1-6.16-1.51,6.56,6.56,0,0,1-.12,1.4c0,.41-1.41,4.61-1.41,4.61a15.28,15.28,0,0,0-1.7.12,15.92,15.92,0,0,0-6.17,2,.24.24,0,0,0-.09.08A.4.4,0,0,0,665.64,332.92Z" fill="#ff967f"/><path d="M661.32,369.37s.09,1,.06,2.35-.1,4.16.35,5a1.6,1.6,0,0,0,.35.3.41.41,0,0,0,.11.07,2.34,2.34,0,0,0,.84.32l.08,0a3,3,0,0,0,.84,0l.08,0a3.26,3.26,0,0,0,.76-.26,18.29,18.29,0,0,1,.36-3.84s.45,1.75,1,1.89l.37-.12s-.27-1.93-.32-2.8a5.38,5.38,0,0,0-1.82-3.53S662.08,368.05,661.32,369.37Z" fill="#ff967f"/><path d="M669,340.06c-.27.86-.62,2-1,3.26-1.24,4.08-2.79,9.52-3.06,11.19s-.25,9.95-.22,13.27c0,.86,0,1.39,0,1.39-1,1.92-3.34,1.3-3.34,1.3s-.15-.69-.36-1.81c-.62-3.2-1.78-10-1.56-14.21.11-2.12,1.79-9.73,3.37-15.29a26.81,26.81,0,0,1,2.14-5.93,2.83,2.83,0,0,1,2.09-1.21C670,331.79,670,336.89,669,340.06Z" fill="#ea7972"/><path d="M681,319.22c.27-.13.76-.17,1,.11,0,.05,0,.12-.07.12s-.25-.07-.38-.08a1.17,1.17,0,0,0-.41.06A.12.12,0,0,1,681,319.22Z" fill="#3b2645"/><path d="M677.11,319.54c.15-.37.8-.41,1.08-.17a.1.1,0,0,1,0,.17,2.88,2.88,0,0,1-.51,0,1.52,1.52,0,0,0-.4.12A.1.1,0,0,1,677.11,319.54Z" fill="#3b2645"/><path d="M664,377.41l.08,0a30.11,30.11,0,0,1,.09-3.91s0,0,0,0A9.52,9.52,0,0,0,664,377.41Z" fill="#753233"/><path d="M663,377.41l.08,0a30.07,30.07,0,0,1,.09-3.91s0,0,0,0A9.33,9.33,0,0,0,663,377.41Z" fill="#753233"/><path d="M662.08,377a.41.41,0,0,0,.11.07,30.59,30.59,0,0,1,.1-3.7s0,0,0,0A9.12,9.12,0,0,0,662.08,377Z" fill="#753233"/><path d="M680.48,328c-4.72,1-5.1-1.45-5.39-2.25a6.56,6.56,0,0,0,.12-1.4,7.64,7.64,0,0,0,6.16,1.51Z" fill="#ea7972"/><path d="M683.3,322.07s.44-5.54-.94-6.25c-3.28-1.69-9.94-.9-9.11,4.18.6,3.63,1.14,2.58,1.14,2.58S683,322.53,683.3,322.07Z" fill="#9c4345"/><path d="M682.63,318.06c.55.56.59,1.84.64,3.24.13,4.27-1.14,5.6-3.32,5.83s-4.45-.6-4.92-4.55c-.23-2-.48-3.8.23-4.66C676.34,316.65,681,316.32,682.63,318.06Z" fill="#ff967f"/><path d="M680.82,316.41a3.83,3.83,0,0,1-3.58,2.07h-.52V322h-1.39v-.76h-.91s-1.24-4.1,2.68-5.13C680,315.33,680.82,316.41,680.82,316.41Z" fill="#9c4345"/><path d="M675.33,322s-.66-1.77-1.71-.83.4,3.6,2,3.4C675.62,324.58,675.84,322.61,675.33,322Z" fill="#ff967f"/><path d="M674.11,322a1.4,1.4,0,0,1,.63.42,1.66,1.66,0,0,1,.47.59c0,.07-.07.12-.12.07s-.24-.27-.37-.41a.73.73,0,0,1-.31.24c-.09,0-.17-.08-.12-.16a.75.75,0,0,1,.25-.25,3.22,3.22,0,0,1-.51-.38C674,322.05,674,322,674.11,322Z" fill="#d66464"/><path d="M673.68,330.32c-4,.16-7.51,1.54-7.87,2.1a.24.24,0,0,0-.09.08l0,.7a49.93,49.93,0,0,1,3,9.78c.34,2.1.19,17,.19,17,7.44,2,19.39.49,19.39.49s.08-12.73-1.3-29.26l-7.22-1.07-2.21,3.15Z" fill="#e8e8e8"/><path d="M680.48,330s0,10.6.92,18.51c.13,1.14.28,3,.42,5.1.39,5.61.78,13.43.78,13.43s5.37.35,7.43-.91l-1.67-22.47a87.3,87.3,0,0,1-1-12.63c0-.73-4.09-.77-5.86-.94Z" fill="#402678"/><path d="M680.48,330s0,10.6.92,18.51c.13,1.14.28,3,.42,5.1l2-18-1.93-1.44,1.93-.53s-1.8-3-2.25-3.59Z" fill="#220350"/><path d="M659.34,359.48c.4,4.61,1.35,9.91,1.35,9.91,3.95.45,4.4-.84,4.4-.84s.12-12.91.21-14.35,3.16-11.56,3.16-11.56c.58,1.73-.25,23.21-.25,23.21,2.56,1.07,7.58.66,7.58.66,0-4.92-.12-9.61-.38-13.88A190.05,190.05,0,0,0,672.74,330l-1,.22c-1.28.31-3.53.86-5.13,1.42-1.94.67-2.84,3.29-3.58,6.09-.54,2.05-2.08,7.85-3,12.47-.35,1.7-.62,3.24-.75,4.38A29.06,29.06,0,0,0,659.34,359.48Z" fill="#402678"/><path d="M671.88,334.18l-2.21,1.24,5.74,17.21A190.05,190.05,0,0,0,672.74,330l-1,.22-2.07,3.4Z" fill="#220350"/><path d="M694.46,353.19a4.26,4.26,0,0,1-3.53,4s-2.31.32-4.37-2.39c0,0,1.9-.74,2.06-2.14C688.62,352.7,694,351.79,694.46,353.19Z" fill="#220350"/><path d="M686.56,354.84a20.85,20.85,0,0,1-4.7-.72c-1.24-.53-1.38-1-1.38-1h8S688.71,354.19,686.56,354.84Z" fill="#ea7972"/><path d="M679.81,353.11H696a1,1,0,0,0,.86-.64L700.42,342a.44.44,0,0,0-.43-.64H683.78a1,1,0,0,0-.85.64l-3.54,10.46A.44.44,0,0,0,679.81,353.11Z" fill="#dadeea"/><path d="M672.07,353.11H681a.7.7,0,1,0,0-1.39h-8.92a.7.7,0,0,0,0,1.39Z" fill="#fff"/><path d="M659.34,359.48a5.14,5.14,0,0,0,2.64-4.64,6.71,6.71,0,0,0-2-4.67c-.35,1.7-.62,3.24-.75,4.38A29.06,29.06,0,0,0,659.34,359.48Z" fill="#220350"/><path d="M691,347.24a.77.77,0,0,0-.73-1.11,1.69,1.69,0,0,0-1.48,1.11.76.76,0,0,0,.73,1.1A1.69,1.69,0,0,0,691,347.24Z" fill="#fff"/><line x1="840.53" y1="426.24" x2="572.31" y2="426.24" fill="none" stroke="#fff" stroke-miterlimit="10" stroke-width="2"/><path d="M840.36,422.85a3.39,3.39,0,1,1-3.39,3.39A3.38,3.38,0,0,1,840.36,422.85Z" fill="#fff"/><circle cx="572.48" cy="426.24" r="3.38" fill="#fff"/><rect x="844.03" y="91.99" width="106.19" height="81.28" fill="url(#g)"/><path d="M851.51,145.43a3.71,3.71,0,0,1-4.06,1c-2-.73-5.44-2.61-10.82-7.35l-.5-.43s-3.47-6.84.27-12.32a.54.54,0,0,1,.79-.12c.33.26.84.69,1.57,1.34,1.71,1.53,4.59,4.3,9,9.08,0,0,2.51-10.3,3.75-14.78.15-.53.27-1,.38-1.32l3.91.91s.05.5.08,1.35C856.07,127,856.25,140,851.51,145.43Z" fill="#b25c58"/><path d="M851.88,120.56s2.31,2,3.91.91a9.71,9.71,0,0,1,.88-3c.73-1.51,2.45-4.55,2.38-5.77a2.56,2.56,0,0,0-.18-.65,2.6,2.6,0,0,0-.26-.49,2.13,2.13,0,0,0-.58-.58,2.89,2.89,0,0,0-.35-.19,2.51,2.51,0,0,0-.67-.2c-.13,0-.27,0-.42,0h-.16a.77.77,0,0,0-.67.44,19.42,19.42,0,0,1-2.31,3.87s.42-2.28-.14-2.73l-.49-.07a21.13,21.13,0,0,1-1,4A6.84,6.84,0,0,0,851.88,120.56Z" fill="#b25c58"/><path d="M854.55,114.54s0,0,0,0a10,10,0,0,0,2.43-4c-.13,0-.27,0-.42,0A14.94,14.94,0,0,1,854.55,114.54Z" fill="#753233"/><path d="M855.52,115.12s0,0,0,0a10,10,0,0,0,2.47-4.21,2.89,2.89,0,0,0-.35-.19A15.63,15.63,0,0,1,855.52,115.12Z" fill="#753233"/><path d="M856.49,115.75s0,0,0,0a10.3,10.3,0,0,0,2.34-3.77,2.6,2.6,0,0,0-.26-.49A15.54,15.54,0,0,1,856.49,115.75Z" fill="#753233"/><path d="M853.55,115.16c.64.43.66,1.77.43,2.42,0,.09-.18.1-.18,0a7.58,7.58,0,0,0,0-1.26,6.59,6.59,0,0,1-.26-1.11S853.53,115.14,853.55,115.16Z" fill="#753233"/><path d="M829.91,114.33s.21-6.1-2.08-7.5c-5.62-3.42-12.25.84-11.17,5.44s1.46,3.31,1.46,3.31S829.56,114.92,829.91,114.33Z" fill="#220350"/><path d="M828.94,113.42a1.31,1.31,0,0,1,2.11,0c1.05,1.27-.74,3.69-2.11,3.8A29.76,29.76,0,0,1,828.94,113.42Z" fill="#9f4b47"/><path d="M835.47,153s-10.5,2.63-20,0c0,0-1.67-9.27-2.1-12a66.32,66.32,0,0,0-4-12.93.51.51,0,0,1,.21-.64,20.68,20.68,0,0,1,7.27-2.46,21,21,0,0,1,2.84-.24s0-.66,0-1.6c0-.64-.05-1.41-.09-2.2a27.73,27.73,0,0,0-.33-3.17,9.77,9.77,0,0,0,7.91,1.93l.31,3.39v.07l.13,1.39s1.71,0,3.69.16,4.47.51,5.59,1.22C841.24,128.8,835.47,153,835.47,153Z" fill="#9f4b47"/><path d="M828.7,109.77c.7.72.76,2.36.82,4.17.18,5.47-1.46,7.18-4.26,7.48s-5.72-.78-6.32-5.85c-.3-2.54-.62-4.88.3-6C820.62,108,826.55,107.53,828.7,109.77Z" fill="#b25c58"/><path d="M819.33,114.84s-.86-2.27-2.21-1.07.52,4.63,2.58,4.37C819.7,118.14,820,115.61,819.33,114.84Z" fill="#b25c58"/><path d="M803.74,174.92s.12,1.34.09,3-.13,5.35.45,6.43a2.26,2.26,0,0,0,.45.38l.13.09a3.08,3.08,0,0,0,1.08.42l.11,0a3.61,3.61,0,0,0,1.08,0l.1,0a5.15,5.15,0,0,0,1-.34,22.82,22.82,0,0,1,.47-4.92s.57,2.23,1.28,2.41l.47-.14s-.35-2.48-.4-3.6a7,7,0,0,0-2.34-4.54S804.73,173.22,803.74,174.92Z" fill="#b25c58"/><path d="M813.6,137.28c-.35,1.1-.81,2.56-1.29,4.18-1.58,5.24-3.58,12.22-3.92,14.37s-.32,12.78-.29,17c0,1.11,0,1.79,0,1.79-1.27,2.47-4.29,1.67-4.29,1.67s-.19-.88-.46-2.32c-.79-4.12-2.28-12.81-2-18.26.14-2.72,2.29-12.49,4.33-19.63,1-3.7,2.06-6.7,2.74-7.62a3.69,3.69,0,0,1,2.69-1.55C815,126.66,814.89,133.21,813.6,137.28Z" fill="#b25c58"/><path d="M817.75,114.8a2,2,0,0,1,.82.54,2.29,2.29,0,0,1,.61.77c0,.09-.1.14-.16.09s-.31-.36-.48-.54a1,1,0,0,1-.39.32.15.15,0,0,1-.16-.22,1.05,1.05,0,0,1,.32-.31,4.43,4.43,0,0,1-.65-.49A.1.1,0,0,1,817.75,114.8Z" fill="#9f4b47"/><path d="M807.13,185.24l.1,0a36.63,36.63,0,0,1,.12-5s-.05,0-.06,0A12,12,0,0,0,807.13,185.24Z" fill="#753233"/><path d="M805.94,185.25l.11,0a38.29,38.29,0,0,1,.11-5s0-.05,0,0A12.13,12.13,0,0,0,805.94,185.25Z" fill="#753233"/><path d="M804.73,184.74l.13.09a39.78,39.78,0,0,1,.13-4.75s0,0-.06,0A11.49,11.49,0,0,0,804.73,184.74Z" fill="#753233"/><polygon points="815.76 236.24 820.58 236.36 820.68 227.22 816.07 227.09 815.76 236.24" fill="#b3b7e7" fill-rule="evenodd"/><polygon points="820.43 235.37 815.38 234.83 815.06 238.56 826.92 238.56 826.92 237.27 820.43 235.37" fill="#220350" fill-rule="evenodd"/><polygon points="833.19 236.24 838.01 236.36 839.68 226.75 835.07 226.62 833.19 236.24" fill="#b3b7e7" fill-rule="evenodd"/><polygon points="837.86 235.37 832.81 234.83 832.49 238.56 844.35 238.56 844.35 237.27 837.86 235.37" fill="#220350" fill-rule="evenodd"/><path d="M821.51,233.86l5-55.88,7.56,26.73a3.74,3.74,0,0,1,.11,1l-2.39,28.15h7.51l4.58-29a4.07,4.07,0,0,0,0-.78l-5.41-41.72s-9.71.95-26,8.7l2.34,62.83Z" fill="#220350"/><path d="M855.87,122.82c-3.29.54-4.37-.94-4.37-.94-1.79,3.49-3.91,14.09-3.91,14.09l-2.28-2.89s-6.38-7-8.79-7.84-9-.67-9-.67l-.13-1.39v-.07c-2.65.28-3.52,1.58-3.52,1.58-.77-.87-3.53-1.41-4.28-1.53,0,.94,0,1.6,0,1.6-.54,0-10.59-.1-12.69,5a68,68,0,0,0-3.19,10.66s-3.74,12.56-3.21,17,2.78,17,2.78,17a4.76,4.76,0,0,0,4.79-1.65l1.16-16.11L813.33,141c0,.17.39,17.87-.84,30,0,.09,0,.17.16.25.55.74,2.9,3,11.66,4.62l2.22-4.33,2.34,4.33s7.54-2.88,9.87-7.29a1.21,1.21,0,0,0,.39-.91c-1.72-21-1-26.93-1-26.93l3.49,3.12a13,13,0,0,0,1.15,1l.12.1,0,0c3.47,2.63,6.46,1.66,6.46,1.66s4.36-.15,6.18-8.56A40.5,40.5,0,0,0,855.87,122.82Z" fill="#fff"/><path d="M812,169.53l1.3-28.5a56.49,56.49,0,0,0,1.83-16l2.51-.2.77-.07,8,18.12,3.5-18.36a5,5,0,0,1,1.66-.11,6.28,6.28,0,0,1,1.11.18l5.41,16.13,1.6,28.76Z" fill="#b3b7e7"/><path d="M818.44,124.81l8,18.12-7.17-7,1.58-2.36-2.61-.32s-.46-6.64-.54-8.42Z" fill="#796fbf"/><path d="M830.09,133.09l1.68,2.06-5.36,7.78,3.5-18.36a2.64,2.64,0,0,1,1.17-.15l1.22,8.41Z" fill="#796fbf"/><line x1="826.74" y1="143.57" x2="826.74" y2="168.57" fill="none" stroke="#8695c2" stroke-miterlimit="10" stroke-width="0.79"/><path d="M828.41,146.07a.55.55,0,0,0,0,1.09A.55.55,0,0,0,828.41,146.07Z" fill="#8695c2"/><path d="M828.72,152.36a.52.52,0,0,0,0,1A.52.52,0,0,0,828.72,152.36Z" fill="#8695c2"/><path d="M828.8,158.46a.61.61,0,0,0,0,1.21A.61.61,0,0,0,828.8,158.46Z" fill="#8695c2"/><path d="M966.14,175a44.13,44.13,0,0,1-3.38-9c-.06.66,2.26,1.72-3.21.91,0,0-4.94,8.65-7.82,31.86-.52,4.13-1.14,14.51-1.15,18.41s-.36,15.44-.3,15.46a6.73,6.73,0,0,1-.64,2.77,3.9,3.9,0,0,1-1.24,1c-1,.55-1.95,1-.86,1.63s5.55.13,5.6-.47.1-1.21.16-1.71a19.91,19.91,0,0,1,.54-2.87,115.25,115.25,0,0,0,4.37-20C959.26,203.17,967.76,178.45,966.14,175Z" fill="#ffab96"/><path d="M949.52,235.2a3.71,3.71,0,0,0,3.78.57l.17,2.66-8.92,0c-1.09-.58.09-.94.09-.94Z" fill="#a0a3a5"/><path d="M972.26,236.43c0-.39,0-.75,0-1.09a21.36,21.36,0,0,1,.19-2.91,115.12,115.12,0,0,0,2-20.38c-.1-9.81.38-8.32.58-12.79.42-9.67.34-19.73-1.37-25.45a38.41,38.41,0,0,1-1.9-10.23s-1.72,3.42-9.4,3.31c0,0,2.54,27.85,2.74,32s1.83,14.46,2.28,18.32,2,15,1.21,18.2c-.08.3-.55.69-1.13,1.11a8.34,8.34,0,0,1-1,.67" fill="#ffab96"/><path d="M970.58,236.65c-.24-5-1-20.23-1.38-25.68-.48-6.54-.42-11.66-.42-11.66l6.23-.08v0c-.2,4.47-.68,3-.58,12.79a115.12,115.12,0,0,1-2,20.38,21.36,21.36,0,0,0-.19,2.91c0,.34,0,.7,0,1.09Z" fill="#f79d85"/><path d="M963.38,238.56c-1.15-.44,0-.95,0-.95a20.48,20.48,0,0,0,5.22-2.19,3.56,3.56,0,0,0,3.68-.08c0,.51,0,2.48,0,3.12Z" fill="#a0a3a5"/><path d="M975.44,200.9H951c-.22-5.59,1-15.53,7.38-34.2h14.32C978.5,175.27,975.44,200.9,975.44,200.9Z" fill="#a0a3a5"/><path d="M968,180.75c-.13-8.09-4-10.8-4.63-13.89l.12-.16h9.19c5.83,8.57,2.77,34.2,2.77,34.2h-6.72C968.56,197.45,968.1,187.37,968,180.75Z" fill="#909397"/><polygon points="968.81 140.15 964.29 141.17 962.21 132.29 966.68 131.08 968.81 140.15" fill="#ffab96"/><path d="M957.12,147.72l-8.37,1.68a2.44,2.44,0,0,1-2.6-.91h0a2.44,2.44,0,0,1,1.12-3.73l14.62-4.22Z" fill="#e8e8e8"/><path d="M951,132.53l1.68,1.42s-1.87,11.58-2.24,13.41-2.55,1.64-2.55,1.64a2.38,2.38,0,0,1-1.84-3Z" fill="#ffab96"/><path d="M963.49,137.42s-6.46,9.25-6.7,11.6l1.68,7,.79,5.54c-.92,1.77-2.43,5.32-.79,5.51h14.2c-.83-17.11,1.57-26.52-4.61-30.36C967.18,136.12,965.59,136.81,963.49,137.42Z" fill="#e8e8e8"/><polygon points="966.95 144.57 972.58 162.4 974.41 153.28 966.95 144.57" fill="#d2d2d2"/><path d="M962.47,138.92l-.35,9.36c2.93,6.19,1.34,18,1.34,18l-.1.62-4.89.17c-1.64-.19-.13-3.74.79-5.51l-.79-5.54-1.68-7C957,147.26,960.63,141.64,962.47,138.92Z" fill="#fff"/><path d="M971.35,170.07l-1.46,2.33a2.32,2.32,0,0,0-.33,1.56l.58,3.79,1.4-.79,1.66-3a3.46,3.46,0,0,0,.32-2.33l-.28-1.39Z" fill="#ffab96"/><path d="M975.72,160.5c-1.74,3.79-2.46,5.89-4.3,9.65l1.37,1.73c4.82-7,7.58-8.92,7.94-12.51C976.65,154.61,981.05,158.39,975.72,160.5Z" fill="#ffab96"/><path d="M951,132.53l2.47-1.21a2.27,2.27,0,0,1,1.58-.16l2.16.56a1.11,1.11,0,0,1,.63,1.71h0l-3.19,1.35a3.49,3.49,0,0,1-2.35.07l-1.36-.42Z" fill="#ffab96"/><path d="M968.41,127.22c-.11-3.61-.26-4.24-3.23-5.36-3-.84-1.18.61-4.53.79-2,.1-2.28,1.86-2.35,4.12A3.13,3.13,0,0,1,957,129c-.28.51.53,1,.75,1.31s0,2.6.71,3.08a21.12,21.12,0,0,0,4,.84c3.85-1.24,3.92-8.51,3.92-8.51C966.79,124.5,968.44,128.18,968.41,127.22Z" fill="#ffab96"/><circle cx="972.9" cy="126.18" r="3.54" fill="none" stroke="#c69c6d" stroke-miterlimit="10" stroke-width="0.79"/><circle cx="971.28" cy="125.53" r="2.8" fill="none" stroke="#c69c6d" stroke-miterlimit="10" stroke-width="0.79"/><circle cx="971.73" cy="124.2" r="2.8" fill="none" stroke="#c69c6d" stroke-miterlimit="10" stroke-width="0.79"/><circle cx="972.44" cy="128.43" r="2.8" fill="none" stroke="#c69c6d" stroke-miterlimit="10" stroke-width="0.79"/><circle cx="971.63" cy="126.43" r="3.35" fill="#c69c6d"/><path d="M965.54,120.53s6.83.93,3.7,8.94a7.31,7.31,0,0,1-1.65,2.57,2,2,0,0,1-2,.53,1.68,1.68,0,0,1-1.13-.74c-1.58-3.33-1.28-2.54-2-7.82l-2.32-1.47-.35-.8Z" fill="#c69c6d"/><path d="M963.69,130s2.36-4.71.83-6.35l-4.79-1.9S959.43,127.24,963.69,130Z" fill="#c69c6d"/><polygon points="962.02 137.48 968.59 135.19 969.71 137.1 960.73 140.17 962.02 137.48" fill="#fff"/><path d="M980.9,159.46c-1.54,1.68-3.32,2.38-5.45,1.62l-7.2-13.68c-.71-1.08-1.6-2.65-1.29-3.87.41-1.61,2.09-2.88,4.7-.56C973.91,145,978.86,154.32,980.9,159.46Z" fill="#e8e8e8"/><path d="M963.1,128.91c-.45,1.06-.22,2.12.51,2.36s1.7-.42,2.15-1.47.21-2.12-.52-2.36S963.55,127.85,963.1,128.91Z" fill="#ffab96"/><g style="mix-blend-mode:multiply"><path d="M922.12,127.84a7.53,7.53,0,0,0,4.93,1.35" fill="none" stroke="#ff52be" stroke-linecap="round" stroke-linejoin="round" stroke-width="1.57"/><path d="M927.33,129.56a11.38,11.38,0,0,0-3.25,3.93" fill="none" stroke="#ff52be" stroke-linecap="round" stroke-linejoin="round" stroke-width="1.57"/><path d="M873.17,144c1.71-2.62,5.49-4.19,8.78-4.59,5.24-.62,16.57,5,24.56,1.89,8.24-3.19,6.18-8,20.54-12.1" fill="none" stroke="#ff52be" stroke-linecap="round" stroke-linejoin="round" stroke-width="1.57"/><path d="M868.72,104.77a14.37,14.37,0,0,0-5.6,5.85,11.79,11.79,0,0,0-.85,8.49,10.92,10.92,0,0,0,8.4,7.19,14.21,14.21,0,0,0,8.17-.75,8,8,0,0,0,3.13-2.07,10,10,0,0,0,1.95-4.11,14.82,14.82,0,0,0,.55-5,11.22,11.22,0,0,0-6.09-9,13,13,0,0,0-10.18-.21" fill="none" stroke="#c148f7" stroke-linecap="round" stroke-linejoin="round" stroke-width="1.57"/><path d="M874.42,104.16l-.61,12.5" fill="none" stroke="#c148f7" stroke-linecap="round" stroke-linejoin="round" stroke-width="1.57"/><path d="M873.83,116.79a33.74,33.74,0,0,0,10.11-2.44" fill="none" stroke="#c148f7" stroke-linecap="round" stroke-linejoin="round" stroke-width="1.57"/><path d="M874,117c2.41,2.26,4.91,4.41,7.47,6.45" fill="none" stroke="#c148f7" stroke-linecap="round" stroke-linejoin="round" stroke-width="1.57"/><path d="M874.82,150.72c.44,7.56.59,4.48.43,12" fill="none" stroke="#a428ae" stroke-linecap="round" stroke-linejoin="round" stroke-width="1.57"/><path d="M921.54,138.5c.44,7.56.58,16.7.43,24.26" fill="none" stroke="#a428ae" stroke-linecap="round" stroke-linejoin="round" stroke-width="1.57"/><path d="M883.36,144.46v17.62" fill="none" stroke="#a428ae" stroke-linecap="round" stroke-linejoin="round" stroke-width="1.57"/><path d="M889.89,146.2V163" fill="none" stroke="#a428ae" stroke-linecap="round" stroke-linejoin="round" stroke-width="1.57"/><path d="M895.63,148.59v14.62" fill="none" stroke="#a428ae" stroke-linecap="round" stroke-linejoin="round" stroke-width="1.57"/><path d="M902.16,163V148.3" fill="none" stroke="#a428ae" stroke-linecap="round" stroke-linejoin="round" stroke-width="1.57"/><path d="M908.42,146.74v16" fill="none" stroke="#a428ae" stroke-linecap="round" stroke-linejoin="round" stroke-width="1.57"/><path d="M916,142.52v20.24" fill="none" stroke="#a428ae" stroke-linecap="round" stroke-linejoin="round" stroke-width="1.57"/><path d="M883.54,105.36h20.9" fill="none" stroke="#889ee9" stroke-linecap="round" stroke-linejoin="round" stroke-width="1.37"/><path d="M886.3,110.36h18.14" fill="none" stroke="#889ee9" stroke-linecap="round" stroke-linejoin="round" stroke-width="1.37"/><path d="M890.44,115.35h14" fill="none" stroke="#889ee9" stroke-linecap="round" stroke-linejoin="round" stroke-width="1.37"/><path d="M868.61,164.19H925.7" fill="none" stroke="#889ee9" stroke-linecap="round" stroke-linejoin="round" stroke-width="1.37"/><path d="M870.65,159.48l-10.83-.07" fill="none" stroke="#889ee9" stroke-linecap="round" stroke-linejoin="round" stroke-width="1.37"/><path d="M870.86,155.2H855.2" fill="none" stroke="#889ee9" stroke-linecap="round" stroke-linejoin="round" stroke-width="1.37"/><path d="M871.14,151h-5.06" fill="none" stroke="#889ee9" stroke-linecap="round" stroke-linejoin="round" stroke-width="1.37"/><path d="M927.58,141.85l11.84.07" fill="none" stroke="#889ee9" stroke-linecap="round" stroke-linejoin="round" stroke-width="1.37"/><path d="M927.35,146.13H939.5" fill="none" stroke="#889ee9" stroke-linecap="round" stroke-linejoin="round" stroke-width="1.37"/><path d="M927.05,150.33h5.53" fill="none" stroke="#889ee9" stroke-linecap="round" stroke-linejoin="round" stroke-width="1.37"/><path d="M921.71,123.07q5.4-9.57,11.64-18.57" fill="none" stroke="#889ee9" stroke-linecap="round" stroke-linejoin="round" stroke-width="1.37"/><path d="M933.69,103.88A111.1,111.1,0,0,0,944,123.21" fill="none" stroke="#889ee9" stroke-linecap="round" stroke-linejoin="round" stroke-width="1.37"/><path d="M922.57,123.65l21.43-.22" fill="none" stroke="#889ee9" stroke-linecap="round" stroke-linejoin="round" stroke-width="1.37"/><path d="M922.57,117.11l21.43-.22" fill="none" stroke="#a428ae" stroke-linecap="round" stroke-linejoin="round" stroke-width="1.57" style="mix-blend-mode:multiply"/><path d="M922.57,111l21.43-.22" fill="none" stroke="#ff52be" stroke-linecap="round" stroke-linejoin="round" stroke-width="1.57" style="mix-blend-mode:multiply"/></g><line x1="981.97" y1="238.56" x2="776.57" y2="238.56" fill="none" stroke="#fff" stroke-miterlimit="10" stroke-width="2"/><path d="M981.8,235.17a3.39,3.39,0,1,1-3.38,3.39A3.38,3.38,0,0,1,981.8,235.17Z" fill="#fff"/><circle cx="776.74" cy="238.56" r="3.38" fill="#fff"/><line x1="531.78" y1="515.75" x2="293.76" y2="515.75" fill="none" stroke="#fff" stroke-miterlimit="10" stroke-width="2"/><circle cx="531.61" cy="515.75" r="3.38" fill="#fff"/><circle cx="293.93" cy="515.75" r="3.38" fill="#fff"/><rect x="-25.04" y="88.09" width="1000" height="452.35" transform="translate(949.92 628.53) rotate(180)" fill="none"/><path d="M-26.55,422.53H290.74a20,20,0,0,0,14.14-5.86L479.09,242.46a20,20,0,0,1,14.14-5.85h153.3a20,20,0,0,0,14.14-5.86L833.17,58.26a20,20,0,0,1,14.14-5.86h188.58" fill="none" stroke="#fff" stroke-miterlimit="10" stroke-width="2"/></g></svg>