<svg xmlns="http://www.w3.org/2000/svg" xmlns:xlink="http://www.w3.org/1999/xlink" viewBox="0 0 130.67 130.67"><defs><linearGradient id="a" x1="65.34" y1="129.21" x2="65.34" y2="1.46" gradientUnits="userSpaceOnUse"><stop offset="0" stop-color="#3d026e"/><stop offset="1" stop-color="#aa02bc"/></linearGradient></defs><circle cx="65.34" cy="65.34" r="63.87" stroke="#fff" stroke-miterlimit="10" stroke-width="2.93" fill="url(#a)"/><path d="M51.07,27.92H49.18v-.64h4.57v.64H51.86v5.86h-.79Z" fill="#fff"/><path d="M56.06,27.28h1l2.2,6.5h-.78l-.64-1.86H55.19l-.63,1.86h-.74Zm-.65,4h2.26l-1.13-3.35Z" fill="#fff"/><path d="M60.55,27.28h.79v5.87h3v.63H60.55Z" fill="#fff"/><path d="M65.52,27.28h3.8v.64h-3v2.22h2.42v.63H66.31v2.38h3.17v.63h-4Z" fill="#fff"/><path d="M70.78,27.28h1L75,32.65V27.28h.76v6.5h-.91l-3.28-5.57v5.57h-.76Z" fill="#fff"/><path d="M78.81,27.92H76.92v-.64h4.57v.64H79.6v5.86h-.79Z" fill="#fff"/><path d="M15.59,37.74h3.79v.64h-3v2.21H18.8v.64H16.38V43.6h3.16v.64H15.59Z" fill="#fff"/><path d="M20.85,37.74h1L25,43.11V37.74h.75v6.5h-.91L21.6,38.67v5.57h-.75Z" fill="#fff"/><path d="M30.37,44.32A3.48,3.48,0,0,1,29,44.08a2.8,2.8,0,0,1-1-.69,2.88,2.88,0,0,1-.61-1A4,4,0,0,1,27.22,41V41a3.81,3.81,0,0,1,.23-1.32,3.07,3.07,0,0,1,.64-1.06,3.19,3.19,0,0,1,1-.69,3.11,3.11,0,0,1,1.28-.25,3.46,3.46,0,0,1,.92.12,2.49,2.49,0,0,1,.81.37,2,2,0,0,1,.6.64,2.23,2.23,0,0,1,.31.93h-.79a1.53,1.53,0,0,0-.63-1.09,2.11,2.11,0,0,0-1.2-.33,2.41,2.41,0,0,0-1,.19,1.94,1.94,0,0,0-.74.55,2.63,2.63,0,0,0-.46.84A3.73,3.73,0,0,0,28,41V41a3.73,3.73,0,0,0,.15,1.09,2.4,2.4,0,0,0,.44.84,2,2,0,0,0,.73.54,2.64,2.64,0,0,0,1,.19,2.31,2.31,0,0,0,.91-.17,1.93,1.93,0,0,0,.63-.44,1.79,1.79,0,0,0,.37-.66,2.77,2.77,0,0,0,.13-.83h-1.9V41h2.68v.48A3.45,3.45,0,0,1,33,42.69a2.61,2.61,0,0,1-.57.9,2.57,2.57,0,0,1-.9.55A3.41,3.41,0,0,1,30.37,44.32Z" fill="#fff"/><path d="M36,37.74h1l2.2,6.5h-.78l-.63-1.86H35.14l-.63,1.86h-.74Zm-.65,4h2.26l-1.13-3.35Z" fill="#fff"/><path d="M43,44.32a3.47,3.47,0,0,1-1.33-.24,2.8,2.8,0,0,1-1-.69,2.88,2.88,0,0,1-.61-1A4,4,0,0,1,39.82,41V41A3.81,3.81,0,0,1,40,39.64a3.25,3.25,0,0,1,.65-1.06A3.08,3.08,0,0,1,43,37.64a3.54,3.54,0,0,1,.93.12,2.49,2.49,0,0,1,.81.37,2,2,0,0,1,.6.64,2.38,2.38,0,0,1,.31.93h-.79a1.53,1.53,0,0,0-.63-1.09A2.12,2.12,0,0,0,43,38.28a2.44,2.44,0,0,0-1,.19,2,2,0,0,0-.73.55,2.29,2.29,0,0,0-.46.84A3.73,3.73,0,0,0,40.64,41V41a3.73,3.73,0,0,0,.15,1.09,2.24,2.24,0,0,0,.44.84,1.91,1.91,0,0,0,.73.54,2.58,2.58,0,0,0,1,.19,2.24,2.24,0,0,0,.91-.17,1.87,1.87,0,0,0,.64-.44,1.94,1.94,0,0,0,.37-.66,3.13,3.13,0,0,0,.13-.83h-1.9V41h2.67v.48a3.45,3.45,0,0,1-.2,1.25,2.63,2.63,0,0,1-.58.9,2.52,2.52,0,0,1-.89.55A3.51,3.51,0,0,1,43,44.32Z" fill="#fff"/><path d="M47.22,37.74H51v.64H48v2.21h2.42v.64H48V43.6h3.17v.64h-4Z" fill="#fff"/><path d="M52.48,37.74h1.1l2,5.06,1.94-5.06h1.09v6.5h-.79V38.77l-2.15,5.47h-.25L53.2,38.77v5.47h-.72Z" fill="#fff"/><path d="M60.37,37.74h3.79v.64h-3v2.21h2.42v.64H61.16V43.6h3.17v.64h-4Z" fill="#fff"/><path d="M65.63,37.74h1l3.16,5.37V37.74h.76v6.5h-.91l-3.29-5.57v5.57h-.75Z" fill="#fff"/><path d="M73.66,38.38H71.77v-.64h4.57v.64H74.45v5.86h-.79Z" fill="#fff"/><path d="M82,44.32a3,3,0,0,1-1.1-.17,2,2,0,0,1-.74-.45,1.71,1.71,0,0,1-.44-.65,3,3,0,0,1-.2-.79h.76a3.16,3.16,0,0,0,.13.55,1.31,1.31,0,0,0,.28.45,1.29,1.29,0,0,0,.51.31,2.29,2.29,0,0,0,.8.12,1.81,1.81,0,0,0,.58-.09,1.46,1.46,0,0,0,.48-.25,1.16,1.16,0,0,0,.31-.39,1.06,1.06,0,0,0,.12-.5,1.42,1.42,0,0,0-.08-.48.78.78,0,0,0-.25-.35,1.35,1.35,0,0,0-.48-.24,4.65,4.65,0,0,0-.77-.18A5.31,5.31,0,0,1,81,41a2.21,2.21,0,0,1-.69-.33,1.25,1.25,0,0,1-.43-.51,1.81,1.81,0,0,1-.14-.74,1.58,1.58,0,0,1,.15-.69,1.61,1.61,0,0,1,.44-.56,2,2,0,0,1,.65-.38,2.57,2.57,0,0,1,.85-.13,2.42,2.42,0,0,1,1.56.46,1.88,1.88,0,0,1,.68,1.33H83.4a1.4,1.4,0,0,0-.48-.89,1.75,1.75,0,0,0-1-.27,1.47,1.47,0,0,0-1,.3,1,1,0,0,0-.34.76,1.73,1.73,0,0,0,0,.42.66.66,0,0,0,.23.32,1.38,1.38,0,0,0,.47.25,6.56,6.56,0,0,0,.81.17,6.38,6.38,0,0,1,1,.22,2.2,2.2,0,0,1,.7.36,1.46,1.46,0,0,1,.42.53,2,2,0,0,1,.14.78,1.73,1.73,0,0,1-.17.76,1.76,1.76,0,0,1-.47.61,2.17,2.17,0,0,1-.71.41A2.93,2.93,0,0,1,82,44.32Z" fill="#fff"/><path d="M88.43,44.32a3.2,3.2,0,0,1-1.27-.23,2.54,2.54,0,0,1-1-.66,2.92,2.92,0,0,1-.61-1A4.13,4.13,0,0,1,85.39,41V41a3.83,3.83,0,0,1,.23-1.33,3,3,0,0,1,1.6-1.75,3.1,3.1,0,0,1,1.23-.24,3,3,0,0,1,1,.14,2.76,2.76,0,0,1,.81.39,2.09,2.09,0,0,1,.58.67,2.3,2.3,0,0,1,.28.93H90.3a1.75,1.75,0,0,0-.57-1.12,1.91,1.91,0,0,0-1.27-.37,2.18,2.18,0,0,0-.93.19,1.92,1.92,0,0,0-.7.53,2.48,2.48,0,0,0-.46.85A3.5,3.5,0,0,0,86.21,41V41a3.94,3.94,0,0,0,.15,1.12,2.52,2.52,0,0,0,.44.83,2,2,0,0,0,.7.52,2.21,2.21,0,0,0,1,.19,2.16,2.16,0,0,0,1.32-.4,1.81,1.81,0,0,0,.64-1.2h.74a2.52,2.52,0,0,1-.9,1.68A2.92,2.92,0,0,1,88.43,44.32Z" fill="#fff"/><path d="M95.36,44.32A3.18,3.18,0,0,1,94,44.06a3,3,0,0,1-1-.7,3.17,3.17,0,0,1-.66-1A3.59,3.59,0,0,1,92.14,41V41a3.74,3.74,0,0,1,.23-1.3,3.17,3.17,0,0,1,.66-1,2.91,2.91,0,0,1,1-.7,3.51,3.51,0,0,1,2.6,0,3,3,0,0,1,1,.7,3.32,3.32,0,0,1,.65,1,3.63,3.63,0,0,1,.22,1.28V41a3.64,3.64,0,0,1-.22,1.29,3.48,3.48,0,0,1-.64,1.05,3,3,0,0,1-1,.71A3,3,0,0,1,95.36,44.32Zm0-.63a2.38,2.38,0,0,0,1-.2,2.07,2.07,0,0,0,.73-.55,2.43,2.43,0,0,0,.46-.84A3.41,3.41,0,0,0,97.7,41v-.07a3.42,3.42,0,0,0-.16-1,2.63,2.63,0,0,0-.46-.84,2.19,2.19,0,0,0-.74-.57,2.26,2.26,0,0,0-1-.21,2.49,2.49,0,0,0-1,.2,2,2,0,0,0-.75.55,2.4,2.4,0,0,0-.46.85A3.29,3.29,0,0,0,93,41V41a3.06,3.06,0,0,0,.18,1.08,2.7,2.7,0,0,0,.51.84,2.28,2.28,0,0,0,.76.55A2.48,2.48,0,0,0,95.36,43.69Z" fill="#fff"/><path d="M99.94,37.74h2a3.46,3.46,0,0,1,.87.1,2.11,2.11,0,0,1,.73.32,1.57,1.57,0,0,1,.49.56,1.73,1.73,0,0,1,.18.83v0a1.73,1.73,0,0,1-.13.71,1.56,1.56,0,0,1-.34.52,2,2,0,0,1-.51.35,2.58,2.58,0,0,1-.63.2l2,2.88h-.88l-1.94-2.83h-1v2.83h-.79Zm2,3a1.66,1.66,0,0,0,1.07-.3,1.11,1.11,0,0,0,.36-.91v0a1.37,1.37,0,0,0-.1-.56.92.92,0,0,0-.28-.36,1.16,1.16,0,0,0-.45-.2,3.64,3.64,0,0,0-.6,0h-1.22v2.41Z" fill="#fff"/><path d="M105.76,37.74h3.8v.64h-3v2.21H109v.64h-2.42V43.6h3.17v.64h-4Z" fill="#fff"/><path d="M113.12,44.32a3,3,0,0,1-1.11-.17,2.1,2.1,0,0,1-.74-.45,1.83,1.83,0,0,1-.44-.65,2.94,2.94,0,0,1-.19-.79h.76a2.45,2.45,0,0,0,.13.55,1.18,1.18,0,0,0,.28.45,1.33,1.33,0,0,0,.5.31,2.31,2.31,0,0,0,.81.12,1.81,1.81,0,0,0,.58-.09,1.41,1.41,0,0,0,.47-.25,1.2,1.2,0,0,0,.32-.39,1.18,1.18,0,0,0,.11-.5,1.43,1.43,0,0,0-.07-.48.78.78,0,0,0-.25-.35,1.35,1.35,0,0,0-.48-.24,4.9,4.9,0,0,0-.77-.18,5.44,5.44,0,0,1-.92-.21,2.15,2.15,0,0,1-.68-.33,1.25,1.25,0,0,1-.43-.51,1.65,1.65,0,0,1-.15-.74,1.67,1.67,0,0,1,.59-1.25,2.15,2.15,0,0,1,.66-.38,2.57,2.57,0,0,1,.85-.13,2.43,2.43,0,0,1,1.56.46,1.87,1.87,0,0,1,.67,1.33h-.71a1.31,1.31,0,0,0-.48-.89,1.72,1.72,0,0,0-1-.27,1.51,1.51,0,0,0-1,.3,1,1,0,0,0-.34.76,1.33,1.33,0,0,0,.06.42.66.66,0,0,0,.23.32,1.38,1.38,0,0,0,.47.25,5.84,5.84,0,0,0,.81.17,6.38,6.38,0,0,1,1,.22,2.25,2.25,0,0,1,.69.36,1.27,1.27,0,0,1,.42.53,1.81,1.81,0,0,1,.15.78,1.73,1.73,0,0,1-.17.76,1.88,1.88,0,0,1-.47.61,2.17,2.17,0,0,1-.71.41A2.93,2.93,0,0,1,113.12,44.32Z" fill="#fff"/><text transform="translate(39.31 95.48)" font-size="10.91" fill="#f600f9" font-family="BebasNeue-Regular, Bebas Neue">INCREASE UP TO</text><text transform="translate(50.5 114.03)" font-size="20.92" fill="#f600f9" font-family="BebasNeueBold, Bebas Neue">40%</text><polygon points="15.62 53.35 16.88 57.22 20.95 57.22 17.66 59.62 18.91 63.49 15.62 61.1 12.32 63.49 13.58 59.62 10.28 57.22 14.36 57.22 15.62 53.35" fill="#f600f9"/><polygon points="32.12 53.35 33.38 57.22 37.46 57.22 34.16 59.62 35.42 63.49 32.12 61.1 28.83 63.49 30.09 59.62 26.79 57.22 30.86 57.22 32.12 53.35" fill="#f600f9"/><polygon points="48.63 53.35 49.89 57.22 53.96 57.22 50.66 59.62 51.92 63.49 48.63 61.1 45.33 63.49 46.59 59.62 43.29 57.22 47.37 57.22 48.63 53.35" fill="#f600f9"/><polygon points="65.13 53.35 66.39 57.22 70.47 57.22 67.17 59.62 68.43 63.49 65.13 61.1 61.84 63.49 63.09 59.62 59.8 57.22 63.87 57.22 65.13 53.35" fill="#f600f9"/><polygon points="81.64 53.35 82.9 57.22 86.97 57.22 83.67 59.62 84.93 63.49 81.64 61.1 78.34 63.49 79.6 59.62 76.3 57.22 80.38 57.22 81.64 53.35" fill="#f600f9"/><polygon points="98.14 53.35 99.4 57.22 103.48 57.22 100.18 59.62 101.44 63.49 98.14 61.1 94.85 63.49 96.11 59.62 92.81 57.22 96.88 57.22 98.14 53.35" fill="#f600f9"/><polygon points="114.65 53.35 115.91 57.22 119.98 57.22 116.69 59.62 117.94 63.49 114.65 61.1 111.35 63.49 112.61 59.62 109.31 57.22 113.39 57.22 114.65 53.35" fill="#f600f9"/><polygon points="15.62 67.61 16.88 71.48 20.95 71.48 17.66 73.88 18.91 77.75 15.62 75.36 12.32 77.75 13.58 73.88 10.28 71.48 14.36 71.48 15.62 67.61" fill="#f600f9"/><polygon points="32.12 67.61 33.38 71.48 37.46 71.48 34.16 73.88 35.42 77.75 32.12 75.36 28.83 77.75 30.09 73.88 26.79 71.48 30.86 71.48 32.12 67.61" fill="#f600f9"/><polygon points="48.63 67.61 49.89 71.48 53.96 71.48 50.66 73.88 51.92 77.75 48.63 75.36 45.33 77.75 46.59 73.88 43.29 71.48 47.37 71.48 48.63 67.61" fill="#f600f9"/><polygon points="65.13 67.61 66.39 71.48 70.47 71.48 67.17 73.88 68.43 77.75 65.13 75.36 61.84 77.75 63.09 73.88 59.8 71.48 63.87 71.48 65.13 67.61" fill="#fff"/><polygon points="81.64 67.61 82.9 71.48 86.97 71.48 83.67 73.88 84.93 77.75 81.64 75.36 78.34 77.75 79.6 73.88 76.3 71.48 80.38 71.48 81.64 67.61" fill="#fff"/><polygon points="98.14 67.61 99.4 71.48 103.48 71.48 100.18 73.88 101.44 77.75 98.14 75.36 94.85 77.75 96.11 73.88 92.81 71.48 96.88 71.48 98.14 67.61" fill="#fff"/><polygon points="114.65 67.61 115.91 71.48 119.98 71.48 116.69 73.88 117.94 77.75 114.65 75.36 111.35 77.75 112.61 73.88 109.31 71.48 113.39 71.48 114.65 67.61" fill="#fff"/></svg>