<svg xmlns="http://www.w3.org/2000/svg" xmlns:xlink="http://www.w3.org/1999/xlink" viewBox="0 0 130.67 130.67"><defs><linearGradient id="a" x1="65.34" y1="129.21" x2="65.34" y2="1.46" gradientUnits="userSpaceOnUse"><stop offset="0" stop-color="#3d026e"/><stop offset="1" stop-color="#aa02bc"/></linearGradient></defs><circle cx="65.34" cy="65.34" r="63.87" stroke="#fff" stroke-miterlimit="10" stroke-width="2.93" fill="url(#a)"/><path d="M44,21.82H45.8a3.6,3.6,0,0,1,.88.11,2.07,2.07,0,0,1,.72.33,1.69,1.69,0,0,1,.49.6,1.93,1.93,0,0,1,.18.87v0a2,2,0,0,1-.18.89,1.69,1.69,0,0,1-.49.6,2.07,2.07,0,0,1-.72.33,3.6,3.6,0,0,1-.88.11h-1v2.64H44Zm1.91,3.23a1.53,1.53,0,0,0,1.06-.33,1.24,1.24,0,0,0,.36-1v0a1.11,1.11,0,0,0-.38-1,1.63,1.63,0,0,0-1-.29H44.75v2.59Z" fill="#fff"/><path d="M49.35,21.82H51.3a4.16,4.16,0,0,1,.88.1,2.16,2.16,0,0,1,.72.32,1.56,1.56,0,0,1,.49.56,1.64,1.64,0,0,1,.19.83v0a1.86,1.86,0,0,1-.13.7,1.49,1.49,0,0,1-.35.52,1.71,1.71,0,0,1-.51.35,2.5,2.5,0,0,1-.62.2l2,2.89h-.88L51.14,25.5h-1v2.83h-.79Zm2,3.05a1.63,1.63,0,0,0,1.06-.3,1.1,1.1,0,0,0,.36-.9v0a1.47,1.47,0,0,0-.09-.55,1,1,0,0,0-.29-.37,1.16,1.16,0,0,0-.45-.19,2.68,2.68,0,0,0-.59-.06H50.14v2.41Z" fill="#fff"/><path d="M58,28.41a3.34,3.34,0,0,1-1.32-.26A3.16,3.16,0,0,1,55,26.4a3.65,3.65,0,0,1-.23-1.29V25A3.65,3.65,0,0,1,55,23.75a3,3,0,0,1,.66-1.05,2.91,2.91,0,0,1,1-.7,3.38,3.38,0,0,1,2.6,0,3,3,0,0,1,1,.7,3,3,0,0,1,.65,1A3.63,3.63,0,0,1,61.14,25v.08a3.65,3.65,0,0,1-.23,1.29,3.29,3.29,0,0,1-.64,1.05,3,3,0,0,1-1,.71A3.2,3.2,0,0,1,58,28.41Zm0-.64a2.23,2.23,0,0,0,1-.2,2.17,2.17,0,0,0,.73-.54,2.57,2.57,0,0,0,.46-.85,3.4,3.4,0,0,0,.17-1.08V25a3.52,3.52,0,0,0-.16-1,2.63,2.63,0,0,0-.46-.84,2.3,2.3,0,0,0-.74-.56,2.26,2.26,0,0,0-1-.21,2.49,2.49,0,0,0-1,.19,2,2,0,0,0-.75.56,2.28,2.28,0,0,0-.46.84A3.34,3.34,0,0,0,55.58,25v.07a3.16,3.16,0,0,0,.18,1.09,3,3,0,0,0,.51.84,2.4,2.4,0,0,0,.76.54A2.3,2.3,0,0,0,58,27.77Z" fill="#fff"/><path d="M65.28,28.41A3.42,3.42,0,0,1,64,28.18a2.69,2.69,0,0,1-1-.67,2.83,2.83,0,0,1-.61-1,4.09,4.09,0,0,1-.21-1.36V25a3.83,3.83,0,0,1,.23-1.33,3.12,3.12,0,0,1,.64-1.05,2.69,2.69,0,0,1,1-.69,2.9,2.9,0,0,1,1.22-.25,3.32,3.32,0,0,1,1,.14,2.36,2.36,0,0,1,.81.4,2.16,2.16,0,0,1,.58.66,2.31,2.31,0,0,1,.29.93h-.79a1.82,1.82,0,0,0-.56-1.12,1.93,1.93,0,0,0-1.28-.37,2.1,2.1,0,0,0-.92.19,2,2,0,0,0-.71.54,2.59,2.59,0,0,0-.45.84A3.59,3.59,0,0,0,63.06,25v.07a3.52,3.52,0,0,0,.16,1.12,2.4,2.4,0,0,0,.44.84,1.92,1.92,0,0,0,.7.52,2.32,2.32,0,0,0,.94.18,2.09,2.09,0,0,0,1.32-.4,1.77,1.77,0,0,0,.64-1.2H68a2.44,2.44,0,0,1-.9,1.68A2.92,2.92,0,0,1,65.28,28.41Z" fill="#fff"/><path d="M69.31,21.82H73.1v.64h-3v2.22h2.42v.64H70.1v2.37h3.17v.64h-4Z" fill="#fff"/><path d="M76.67,28.41a3.24,3.24,0,0,1-1.11-.17,2.1,2.1,0,0,1-.74-.45,2,2,0,0,1-.44-.66,2.86,2.86,0,0,1-.19-.79H75a2.33,2.33,0,0,0,.13.55,1.14,1.14,0,0,0,.28.46,1.37,1.37,0,0,0,.5.31,2.59,2.59,0,0,0,.81.11,1.85,1.85,0,0,0,.58-.09,1.25,1.25,0,0,0,.47-.25A1.2,1.2,0,0,0,78,27a1.18,1.18,0,0,0,.11-.5,1.33,1.33,0,0,0-.07-.47.73.73,0,0,0-.25-.35,1.54,1.54,0,0,0-.48-.25,5,5,0,0,0-.77-.17,8.45,8.45,0,0,1-.92-.21,2.53,2.53,0,0,1-.68-.33,1.4,1.4,0,0,1-.43-.51,1.68,1.68,0,0,1-.15-.74,1.5,1.5,0,0,1,.16-.7,1.68,1.68,0,0,1,.43-.56,2,2,0,0,1,.66-.37,2.51,2.51,0,0,1,.84-.14,2.45,2.45,0,0,1,1.57.46,1.89,1.89,0,0,1,.67,1.33H78a1.35,1.35,0,0,0-.48-.88,1.73,1.73,0,0,0-1.05-.27,1.56,1.56,0,0,0-1,.29,1,1,0,0,0-.34.76,1.44,1.44,0,0,0,.06.43.64.64,0,0,0,.23.32,1.58,1.58,0,0,0,.47.24,4.62,4.62,0,0,0,.8.18,5.31,5.31,0,0,1,1,.21,2.49,2.49,0,0,1,.69.36,1.3,1.3,0,0,1,.42.54,1.81,1.81,0,0,1,.14.78,1.79,1.79,0,0,1-.16.76,2.12,2.12,0,0,1-.47.61,2.28,2.28,0,0,1-.72.4A2.56,2.56,0,0,1,76.67,28.41Z" fill="#fff"/><path d="M82.34,28.41a3.22,3.22,0,0,1-1.1-.17,2,2,0,0,1-.74-.45,1.82,1.82,0,0,1-.44-.66,2.86,2.86,0,0,1-.2-.79h.76a3,3,0,0,0,.13.55,1.27,1.27,0,0,0,.28.46,1.42,1.42,0,0,0,.51.31,2.57,2.57,0,0,0,.8.11,1.81,1.81,0,0,0,.58-.09,1.29,1.29,0,0,0,.48-.25,1.16,1.16,0,0,0,.31-.39,1,1,0,0,0,.11-.5,1.33,1.33,0,0,0-.07-.47.73.73,0,0,0-.25-.35,1.54,1.54,0,0,0-.48-.25,4.76,4.76,0,0,0-.77-.17,8.24,8.24,0,0,1-.91-.21,2.77,2.77,0,0,1-.69-.33,1.4,1.4,0,0,1-.43-.51,1.84,1.84,0,0,1-.14-.74,1.63,1.63,0,0,1,.15-.7,1.82,1.82,0,0,1,.43-.56,2.13,2.13,0,0,1,.66-.37,2.57,2.57,0,0,1,.85-.14,2.43,2.43,0,0,1,1.56.46,1.93,1.93,0,0,1,.68,1.33H83.7a1.35,1.35,0,0,0-.48-.88,1.77,1.77,0,0,0-1-.27,1.52,1.52,0,0,0-1,.29,1,1,0,0,0-.34.76,1.45,1.45,0,0,0,.05.43.71.71,0,0,0,.23.32,1.58,1.58,0,0,0,.47.24,5,5,0,0,0,.81.18,5.39,5.39,0,0,1,1,.21,2.24,2.24,0,0,1,.69.36,1.41,1.41,0,0,1,.43.54,2,2,0,0,1,.14.78,1.8,1.8,0,0,1-.17.76,2,2,0,0,1-.47.61,2.34,2.34,0,0,1-.71.4A2.66,2.66,0,0,1,82.34,28.41Z" fill="#fff"/><path d="M25.22,32.28H29v.64H26v2.22h2.42v.63H26v2.38h3.17v.63h-4Z" fill="#fff"/><path d="M30.48,32.28h3.8v.64h-3v2.31h2.34v.63H31.27v2.92h-.79Z" fill="#fff"/><path d="M35.55,32.28h3.8v.64h-3v2.31h2.35v.63H36.34v2.92h-.79Z" fill="#fff"/><path d="M40.67,32.28h.79v6.5h-.79Z" fill="#fff"/><path d="M46,38.87a3.23,3.23,0,0,1-1.27-.24,2.54,2.54,0,0,1-1-.66,2.82,2.82,0,0,1-.6-1,4.09,4.09,0,0,1-.21-1.36V35.5a3.83,3.83,0,0,1,.22-1.33,3.48,3.48,0,0,1,.64-1.05,2.78,2.78,0,0,1,1-.69A2.9,2.9,0,0,1,46,32.18a3.45,3.45,0,0,1,1,.14,2.56,2.56,0,0,1,.81.4,2.18,2.18,0,0,1,.58.66,2.47,2.47,0,0,1,.28.93h-.78a1.88,1.88,0,0,0-.57-1.12A1.93,1.93,0,0,0,46,32.82a2.07,2.07,0,0,0-1.63.73,2.59,2.59,0,0,0-.45.84,3.54,3.54,0,0,0-.17,1.11v.07a3.83,3.83,0,0,0,.16,1.12,2.27,2.27,0,0,0,.44.83,1.84,1.84,0,0,0,.7.53,2.35,2.35,0,0,0,.94.18,2.06,2.06,0,0,0,1.32-.4,1.78,1.78,0,0,0,.65-1.2h.73a2.44,2.44,0,0,1-.9,1.68A2.9,2.9,0,0,1,46,38.87Z" fill="#fff"/><path d="M50.05,32.28h.79v6.5h-.79Z" fill="#fff"/><path d="M52.63,32.28h3.79v.64h-3v2.22h2.42v.63H53.42v2.38h3.17v.63h-4Z" fill="#fff"/><path d="M57.89,32.28h1l3.16,5.38V32.28h.76v6.5h-.91l-3.29-5.57v5.57h-.75Z" fill="#fff"/><path d="M67.3,38.87A3.2,3.2,0,0,1,66,38.63a2.54,2.54,0,0,1-1-.66,2.83,2.83,0,0,1-.61-1,4.09,4.09,0,0,1-.21-1.36V35.5a3.83,3.83,0,0,1,.23-1.33,3.12,3.12,0,0,1,.64-1.05,2.69,2.69,0,0,1,1-.69,2.9,2.9,0,0,1,1.22-.25,3.32,3.32,0,0,1,1,.14,2.36,2.36,0,0,1,.81.4,2,2,0,0,1,.58.66,2.31,2.31,0,0,1,.29.93h-.79a1.82,1.82,0,0,0-.56-1.12,1.93,1.93,0,0,0-1.28-.37,2.18,2.18,0,0,0-.93.19,2.06,2.06,0,0,0-.7.54,2.59,2.59,0,0,0-.45.84,3.54,3.54,0,0,0-.17,1.11v.07a3.52,3.52,0,0,0,.16,1.12,2.27,2.27,0,0,0,.44.83,1.84,1.84,0,0,0,.7.53,2.32,2.32,0,0,0,.94.18,2.09,2.09,0,0,0,1.32-.4,1.77,1.77,0,0,0,.64-1.2H70a2.48,2.48,0,0,1-.9,1.68A2.92,2.92,0,0,1,67.3,38.87Z" fill="#fff"/><path d="M72.71,36l-2.17-3.67h.89l1.7,3,1.64-3h.79L73.5,36v2.82h-.79Z" fill="#fff"/><path d="M81.93,38.87a3.46,3.46,0,0,1-1.33-.25,2.68,2.68,0,0,1-1-.69,2.92,2.92,0,0,1-.61-1,4,4,0,0,1-.21-1.32V35.5A3.59,3.59,0,0,1,79,34.18a3,3,0,0,1,.64-1,3,3,0,0,1,1-.7,3.1,3.1,0,0,1,1.27-.25,3.48,3.48,0,0,1,.93.12,2.49,2.49,0,0,1,.81.37,2.16,2.16,0,0,1,.6.64,2.37,2.37,0,0,1,.31.94h-.79a1.56,1.56,0,0,0-.63-1.1A2.12,2.12,0,0,0,82,32.82,2.44,2.44,0,0,0,81,33a2.1,2.1,0,0,0-.73.55,2.4,2.4,0,0,0-.46.85,3.68,3.68,0,0,0-.15,1.09v.07a3.73,3.73,0,0,0,.15,1.09,2.24,2.24,0,0,0,.44.84,1.91,1.91,0,0,0,.73.54,2.41,2.41,0,0,0,1,.19,2.24,2.24,0,0,0,.91-.17,1.74,1.74,0,0,0,.64-.44,1.94,1.94,0,0,0,.37-.66,2.71,2.71,0,0,0,.13-.82h-1.9V35.5h2.67V36a3.42,3.42,0,0,1-.2,1.25,2.45,2.45,0,0,1-.58.9,2.39,2.39,0,0,1-.89.55A3.51,3.51,0,0,1,81.93,38.87Z" fill="#fff"/><path d="M87.57,32.28h1l2.2,6.5H90l-.64-1.86H86.71l-.63,1.86h-.74Zm-.64,4h2.25l-1.12-3.34Z" fill="#fff"/><path d="M92.11,32.28h.79v6.5h-.79Z" fill="#fff"/><path d="M94.69,32.28h1l3.17,5.38V32.28h.75v6.5h-.91l-3.28-5.57v5.57h-.76Z" fill="#fff"/><path d="M103.49,38.87a3.24,3.24,0,0,1-1.11-.17,2.1,2.1,0,0,1-.74-.45,2,2,0,0,1-.44-.66,2.94,2.94,0,0,1-.19-.79h.76a2.33,2.33,0,0,0,.13.55,1.21,1.21,0,0,0,.28.46,1.37,1.37,0,0,0,.5.31,2.59,2.59,0,0,0,.81.11,1.85,1.85,0,0,0,.58-.09,1.25,1.25,0,0,0,.47-.25,1.2,1.2,0,0,0,.32-.39A1.18,1.18,0,0,0,105,37a1.43,1.43,0,0,0-.07-.48.84.84,0,0,0-.25-.35,1.79,1.79,0,0,0-.48-.24,4.05,4.05,0,0,0-.77-.17,8.45,8.45,0,0,1-.92-.21,2.28,2.28,0,0,1-.68-.34,1.29,1.29,0,0,1-.43-.5,1.7,1.7,0,0,1-.15-.75,1.49,1.49,0,0,1,.16-.69,1.68,1.68,0,0,1,.43-.56,2,2,0,0,1,.66-.37,2.52,2.52,0,0,1,.85-.14,2.43,2.43,0,0,1,1.56.46,1.89,1.89,0,0,1,.67,1.33h-.71a1.4,1.4,0,0,0-.48-.89,1.79,1.79,0,0,0-1-.26,1.57,1.57,0,0,0-1,.29,1,1,0,0,0-.34.76,1.33,1.33,0,0,0,.06.42.63.63,0,0,0,.23.33,1.58,1.58,0,0,0,.47.24,4.62,4.62,0,0,0,.8.18,5.31,5.31,0,0,1,1,.21,2.25,2.25,0,0,1,.69.36,1.24,1.24,0,0,1,.42.54,1.81,1.81,0,0,1,.14.78,1.79,1.79,0,0,1-.16.76,2.12,2.12,0,0,1-.47.61,2.28,2.28,0,0,1-.72.4A2.56,2.56,0,0,1,103.49,38.87Z" fill="#fff"/><rect x="28.7" y="66.99" width="10.5" height="10.24" fill="none" stroke="#fff" stroke-miterlimit="10" stroke-width="1.36"/><path d="M19.27,77.23h84.06a6.84,6.84,0,0,1,0,13.67H39.16a6.84,6.84,0,1,0,0,13.67H97.28" fill="none" stroke="#fff" stroke-miterlimit="10" stroke-width="1.36"/><polygon points="92.76 110.15 91.83 109.15 96.76 104.57 91.83 99.99 92.76 98.99 98.76 104.57 92.76 110.15" fill="#fff"/><circle cx="19.27" cy="77.23" r="3.37" fill="#fff"/><circle cx="96.71" cy="77.23" r="3.37" fill="#fff"/><circle cx="71.99" cy="104.57" r="3.37" fill="#fff"/><circle cx="48.77" cy="90.9" r="3.37" fill="#fff"/><rect x="43.53" y="46.51" width="10.5" height="30.72" fill="none" stroke="#fff" stroke-miterlimit="10" stroke-width="1.36"/><text transform="translate(60.11 54.25)" font-size="10.91" fill="#f600f9" font-family="BebasNeue-Regular, Bebas Neue">UP TO</text><text transform="translate(60.11 71.89)" font-size="20.92" fill="#f600f9" font-family="BebasNeueBold, Bebas Neue">30%</text></svg>