<svg xmlns="http://www.w3.org/2000/svg" xmlns:xlink="http://www.w3.org/1999/xlink" viewBox="0 0 130.67 130.67"><defs><linearGradient id="a" x1="1.46" y1="65.34" x2="129.21" y2="65.34" gradientUnits="userSpaceOnUse"><stop offset="0" stop-color="#3d026e"/><stop offset="1" stop-color="#aa02bc"/></linearGradient></defs><circle cx="65.34" cy="65.34" r="63.87" stroke="#fff" stroke-miterlimit="10" stroke-width="2.93" fill="url(#a)"/><path d="M37.71,30.23A3.16,3.16,0,0,1,36.44,30a2.66,2.66,0,0,1-1-.66,3,3,0,0,1-.6-1,4.09,4.09,0,0,1-.21-1.36v-.07a3.83,3.83,0,0,1,.23-1.33,3.27,3.27,0,0,1,.63-1.05,2.87,2.87,0,0,1,1-.69,2.91,2.91,0,0,1,1.23-.25,3.38,3.38,0,0,1,1,.14,2.56,2.56,0,0,1,.81.4,2.18,2.18,0,0,1,.58.66,2.3,2.3,0,0,1,.28.93h-.78A1.78,1.78,0,0,0,39,24.55a1.92,1.92,0,0,0-1.28-.37,2.17,2.17,0,0,0-.92.19,2.06,2.06,0,0,0-.7.54,2.43,2.43,0,0,0-.46.84,3.59,3.59,0,0,0-.16,1.11v.07a3.84,3.84,0,0,0,.15,1.12,2.42,2.42,0,0,0,.44.83,1.92,1.92,0,0,0,.7.53,2.37,2.37,0,0,0,.95.18,2,2,0,0,0,1.31-.4,1.74,1.74,0,0,0,.65-1.2h.74a2.52,2.52,0,0,1-.9,1.68A2.92,2.92,0,0,1,37.71,30.23Z" fill="#fff"/><path d="M43.84,30.23a3.24,3.24,0,0,1-1.11-.17,2,2,0,0,1-.74-.45,2,2,0,0,1-.44-.66,3,3,0,0,1-.2-.79h.77a1.93,1.93,0,0,0,.13.55,1.21,1.21,0,0,0,.28.46,1.29,1.29,0,0,0,.5.31,2.59,2.59,0,0,0,.81.11,1.85,1.85,0,0,0,.58-.09,1.25,1.25,0,0,0,.47-.25,1.34,1.34,0,0,0,.32-.39,1.18,1.18,0,0,0,.11-.5,1.73,1.73,0,0,0-.07-.48.94.94,0,0,0-.25-.35,1.72,1.72,0,0,0-.49-.24,3.77,3.77,0,0,0-.76-.17,8.45,8.45,0,0,1-.92-.21,2.28,2.28,0,0,1-.68-.34,1.22,1.22,0,0,1-.43-.5,1.7,1.7,0,0,1-.15-.75,1.49,1.49,0,0,1,.16-.69,1.56,1.56,0,0,1,.43-.56,1.92,1.92,0,0,1,.66-.37,2.51,2.51,0,0,1,.84-.14,2.4,2.4,0,0,1,1.56.46,1.9,1.9,0,0,1,.68,1.33h-.71a1.35,1.35,0,0,0-.48-.88,1.73,1.73,0,0,0-1.05-.27,1.56,1.56,0,0,0-1,.29,1,1,0,0,0-.34.76,1.33,1.33,0,0,0,.06.42.63.63,0,0,0,.23.33,1.46,1.46,0,0,0,.47.24,4.62,4.62,0,0,0,.8.18,5.31,5.31,0,0,1,1,.21,2.49,2.49,0,0,1,.69.36,1.24,1.24,0,0,1,.42.54,1.81,1.81,0,0,1,.14.78,1.66,1.66,0,0,1-.17.76,1.93,1.93,0,0,1-.46.61,2.28,2.28,0,0,1-.72.4A2.56,2.56,0,0,1,43.84,30.23Z" fill="#fff"/><path d="M49.07,23.64h1l2.2,6.5h-.78l-.63-1.86H48.2l-.63,1.86h-.74Zm-.65,4h2.26L49.55,24.3Z" fill="#fff"/><path d="M54.26,24.28H52.37v-.64h4.57v.64H55.05v5.86h-.79Z" fill="#fff"/><path d="M62.64,30.23a3.22,3.22,0,0,1-1.1-.17,2,2,0,0,1-.74-.45,1.82,1.82,0,0,1-.44-.66,3,3,0,0,1-.2-.79h.77a2.33,2.33,0,0,0,.12.55,1.36,1.36,0,0,0,.28.46,1.42,1.42,0,0,0,.51.31,2.57,2.57,0,0,0,.8.11,1.92,1.92,0,0,0,.59-.09,1.25,1.25,0,0,0,.47-.25,1.16,1.16,0,0,0,.31-.39,1.06,1.06,0,0,0,.12-.5,1.42,1.42,0,0,0-.08-.48.76.76,0,0,0-.25-.35,1.65,1.65,0,0,0-.48-.24,3.88,3.88,0,0,0-.77-.17,8.24,8.24,0,0,1-.91-.21,2.47,2.47,0,0,1-.69-.34,1.38,1.38,0,0,1-.43-.5,1.86,1.86,0,0,1-.14-.75,1.62,1.62,0,0,1,.15-.69,1.71,1.71,0,0,1,.44-.56,1.92,1.92,0,0,1,.66-.37,2.47,2.47,0,0,1,.84-.14A2.4,2.4,0,0,1,64,24a1.9,1.9,0,0,1,.68,1.33H64a1.35,1.35,0,0,0-.48-.88,1.75,1.75,0,0,0-1.05-.27,1.54,1.54,0,0,0-1,.29,1,1,0,0,0-.34.76,1.33,1.33,0,0,0,.06.42.67.67,0,0,0,.22.33,1.65,1.65,0,0,0,.48.24,4.62,4.62,0,0,0,.8.18,5.73,5.73,0,0,1,1,.21,2.49,2.49,0,0,1,.69.36,1.24,1.24,0,0,1,.42.54,2,2,0,0,1,.14.78,1.8,1.8,0,0,1-.17.76,2,2,0,0,1-.47.61,2.22,2.22,0,0,1-.71.4A2.62,2.62,0,0,1,62.64,30.23Z" fill="#fff"/><path d="M69,30.23A3.2,3.2,0,0,1,67.76,30a2.54,2.54,0,0,1-1-.66,2.83,2.83,0,0,1-.61-1A4.09,4.09,0,0,1,66,26.93v-.07a3.83,3.83,0,0,1,.23-1.33,3.12,3.12,0,0,1,.64-1.05,2.74,2.74,0,0,1,1-.69,3,3,0,0,1,1.23-.25,3.32,3.32,0,0,1,1,.14,2.56,2.56,0,0,1,.81.4,2,2,0,0,1,.58.66,2.48,2.48,0,0,1,.29.93H70.9a1.78,1.78,0,0,0-.57-1.12,1.91,1.91,0,0,0-1.27-.37,2.18,2.18,0,0,0-.93.19,2.06,2.06,0,0,0-.7.54,2.43,2.43,0,0,0-.46.84,3.59,3.59,0,0,0-.16,1.11v.07A3.52,3.52,0,0,0,67,28.05a2.27,2.27,0,0,0,.44.83,1.84,1.84,0,0,0,.7.53,2.32,2.32,0,0,0,.94.18,2.09,2.09,0,0,0,1.32-.4A1.77,1.77,0,0,0,71,28h.74a2.52,2.52,0,0,1-.9,1.68A2.92,2.92,0,0,1,69,30.23Z" fill="#fff"/><path d="M76,30.23A3.26,3.26,0,0,1,74.65,30a3.11,3.11,0,0,1-1-.71,3,3,0,0,1-.66-1,3.65,3.65,0,0,1-.23-1.29v-.07A3.65,3.65,0,0,1,73,25.57a3,3,0,0,1,.66-1.05,2.93,2.93,0,0,1,1-.71,3.5,3.5,0,0,1,2.6,0,3.13,3.13,0,0,1,1.65,1.75,3.63,3.63,0,0,1,.23,1.28v.08a3.65,3.65,0,0,1-.23,1.29,3.29,3.29,0,0,1-.64,1.05,3.13,3.13,0,0,1-1,.71A3.2,3.2,0,0,1,76,30.23Zm0-.64a2.38,2.38,0,0,0,1-.2,2.08,2.08,0,0,0,.73-.54,2.57,2.57,0,0,0,.46-.85,3.4,3.4,0,0,0,.17-1.08v-.08a3.47,3.47,0,0,0-.16-1,2.63,2.63,0,0,0-.46-.84,2.3,2.3,0,0,0-.74-.56,2.26,2.26,0,0,0-1-.21,2.49,2.49,0,0,0-1,.19,2.09,2.09,0,0,0-.75.55,2.4,2.4,0,0,0-.46.85,3.29,3.29,0,0,0-.16,1.07v.07A3.16,3.16,0,0,0,73.74,28a3,3,0,0,0,.51.84,2.4,2.4,0,0,0,.76.54A2.3,2.3,0,0,0,76,29.59Z" fill="#fff"/><path d="M80.54,23.64h2a4.16,4.16,0,0,1,.88.1,2.14,2.14,0,0,1,.72.32,1.56,1.56,0,0,1,.49.56,1.76,1.76,0,0,1,.18.83v0a1.86,1.86,0,0,1-.12.7,1.64,1.64,0,0,1-.35.52,2,2,0,0,1-.51.35,2.45,2.45,0,0,1-.63.2l2,2.88h-.88l-1.93-2.82h-1v2.82h-.79Zm2,3.05a1.66,1.66,0,0,0,1.07-.3,1.1,1.1,0,0,0,.36-.9v0a1.29,1.29,0,0,0-.1-.55,1,1,0,0,0-.28-.37,1.16,1.16,0,0,0-.45-.19,2.77,2.77,0,0,0-.6-.06H81.33v2.41Z" fill="#fff"/><path d="M86.36,23.64h3.8v.64h-3V26.5h2.42v.63H87.15v2.38h3.17v.63h-4Z" fill="#fff"/><path d="M93.72,30.23a3.18,3.18,0,0,1-1.1-.17,2,2,0,0,1-.74-.45,1.85,1.85,0,0,1-.45-.66,2.94,2.94,0,0,1-.19-.79H92a3,3,0,0,0,.13.55,1.21,1.21,0,0,0,.28.46,1.42,1.42,0,0,0,.51.31,2.53,2.53,0,0,0,.8.11,1.81,1.81,0,0,0,.58-.09,1.25,1.25,0,0,0,.79-.64,1,1,0,0,0,.11-.5,1.43,1.43,0,0,0-.07-.48.84.84,0,0,0-.25-.35,1.79,1.79,0,0,0-.48-.24,3.88,3.88,0,0,0-.77-.17,8.24,8.24,0,0,1-.91-.21,2.47,2.47,0,0,1-.69-.34,1.29,1.29,0,0,1-.43-.5,1.86,1.86,0,0,1-.14-.75,1.62,1.62,0,0,1,.15-.69,1.68,1.68,0,0,1,.43-.56,2.13,2.13,0,0,1,.66-.37,2.57,2.57,0,0,1,.85-.14,2.43,2.43,0,0,1,1.56.46,1.93,1.93,0,0,1,.68,1.33h-.71a1.31,1.31,0,0,0-.49-.88,1.72,1.72,0,0,0-1-.27,1.57,1.57,0,0,0-1,.29,1,1,0,0,0-.34.76,1.33,1.33,0,0,0,.06.42.69.69,0,0,0,.23.33,1.58,1.58,0,0,0,.47.24,4.76,4.76,0,0,0,.81.18,5.39,5.39,0,0,1,.95.21,2.24,2.24,0,0,1,.69.36,1.34,1.34,0,0,1,.43.54,2,2,0,0,1,.14.78,1.8,1.8,0,0,1-.17.76,2,2,0,0,1-.47.61,2.34,2.34,0,0,1-.71.4A2.66,2.66,0,0,1,93.72,30.23Z" fill="#fff"/><path d="M46.17,34.1H47v6.5h-.79Z" fill="#fff"/><path d="M48.75,34.1h1.1l2,5.07,2-5.07H54.9v6.5h-.79V35.13L52,40.6h-.24l-2.23-5.47V40.6h-.73Z" fill="#fff"/><path d="M56.65,34.1h1.84a3.53,3.53,0,0,1,.88.11,2,2,0,0,1,.72.33,1.83,1.83,0,0,1,.5.6,1.93,1.93,0,0,1,.18.87v0a2,2,0,0,1-.18.89,1.69,1.69,0,0,1-.5.59,1.85,1.85,0,0,1-.72.34,3.53,3.53,0,0,1-.88.11H57.44V40.6h-.79Zm1.9,3.23A1.53,1.53,0,0,0,59.61,37,1.24,1.24,0,0,0,60,36v0a1.15,1.15,0,0,0-.39-1,1.69,1.69,0,0,0-1-.28H57.44v2.59Z" fill="#fff"/><path d="M62,34.1h2a3.54,3.54,0,0,1,.88.1,2.11,2.11,0,0,1,.73.32,1.57,1.57,0,0,1,.49.56,1.76,1.76,0,0,1,.18.83v0a1.71,1.71,0,0,1-.13.7,1.47,1.47,0,0,1-.34.52,2,2,0,0,1-.51.35,2.72,2.72,0,0,1-.63.2l2,2.88h-.88l-1.94-2.82h-1V40.6H62Zm2,3a1.61,1.61,0,0,0,1.06-.3,1.08,1.08,0,0,0,.37-.9v0a1.46,1.46,0,0,0-.1-.55A.89.89,0,0,0,65.1,35a1.3,1.3,0,0,0-.45-.19,2.77,2.77,0,0,0-.6-.06H62.83v2.41Z" fill="#fff"/><path d="M70.67,40.69a3.26,3.26,0,0,1-1.31-.26,3.11,3.11,0,0,1-1-.71,3.29,3.29,0,0,1-.66-1,3.65,3.65,0,0,1-.23-1.29v-.07a3.74,3.74,0,0,1,.23-1.3A3.34,3.34,0,0,1,68.34,35a3.15,3.15,0,0,1,1-.7,3.21,3.21,0,0,1,1.3-.25,3.17,3.17,0,0,1,1.3.25,3,3,0,0,1,1,.7A3.15,3.15,0,0,1,73.6,36a3.63,3.63,0,0,1,.23,1.28v.08a3.65,3.65,0,0,1-.23,1.29,3.29,3.29,0,0,1-.64,1,3.13,3.13,0,0,1-1,.71A3.2,3.2,0,0,1,70.67,40.69Zm0-.64a2.38,2.38,0,0,0,1-.2,2.08,2.08,0,0,0,.73-.54,2.59,2.59,0,0,0,.47-.85A3.71,3.71,0,0,0,73,37.38V37.3a3.17,3.17,0,0,0-.16-1,2.63,2.63,0,0,0-.46-.84,2.17,2.17,0,0,0-.74-.56,2.26,2.26,0,0,0-1-.21,2.53,2.53,0,0,0-1,.19,2.28,2.28,0,0,0-.75.55,2.57,2.57,0,0,0-.46.85,3.29,3.29,0,0,0-.16,1.07v.07a2.85,2.85,0,0,0,.19,1.08,2.37,2.37,0,0,0,.51.84,2.09,2.09,0,0,0,.76.55A2.26,2.26,0,0,0,70.67,40.05Z" fill="#fff"/><path d="M74.44,34.1h.78l1.94,5.74,1.93-5.74h.75l-2.25,6.5h-.94Z" fill="#fff"/><path d="M81,34.1h3.79v.64h-3V37h2.42v.63H81.83V40H85v.63H81Z" fill="#fff"/><text transform="translate(56.02 91.84)" font-size="10.91" fill="#f600f9" font-family="BebasNeue-Regular, Bebas Neue">UP TO</text><text transform="translate(50.5 110.39)" font-size="20.92" fill="#f600f9" font-family="BebasNeueBold, Bebas Neue">40%</text><circle cx="34.06" cy="63.69" r="16.29" fill="none" stroke="#fff" stroke-miterlimit="10" stroke-width="1.36"/><circle cx="27.99" cy="60.4" r="1.64" fill="#fff"/><circle cx="40.13" cy="60.4" r="1.64" fill="#fff"/><path d="M26.41,71.29q7.65-5,15.31,0" fill="none" stroke="#fff" stroke-linecap="round" stroke-miterlimit="10" stroke-width="1.82"/><circle cx="96.61" cy="63.69" r="16.29" fill="none" stroke="#fff" stroke-miterlimit="10" stroke-width="1.36"/><circle cx="90.54" cy="60.4" r="1.64" fill="#fff"/><circle cx="102.68" cy="60.4" r="1.64" fill="#fff"/><path d="M104.26,68.79q-7.65,5-15.3,0" fill="none" stroke="#fff" stroke-linecap="round" stroke-miterlimit="10" stroke-width="1.82"/><line x1="50.91" y1="63.97" x2="74.6" y2="63.97" fill="none" stroke="#fff" stroke-linecap="round" stroke-miterlimit="10" stroke-width="1.82"/><polyline points="70.84 59.44 75.37 63.97 70.84 68.5" fill="none" stroke="#fff" stroke-linecap="round" stroke-linejoin="round" stroke-width="1.82"/></svg>