<svg xmlns="http://www.w3.org/2000/svg" xmlns:xlink="http://www.w3.org/1999/xlink" width="36" height="36" viewBox="0 0 36 36"><defs><linearGradient id="a" x1="5.27" y1="30.73" x2="30.73" y2="5.27" gradientUnits="userSpaceOnUse"><stop offset="0" stop-color="#1b7cd1"/><stop offset="1" stop-color="#00baff"/></linearGradient></defs><circle cx="18" cy="18" r="18" fill="url(#a)"/><path d="M28.23,27.63l-2.54-2.39a4,4,0,0,0,.82-2.43,3.86,3.86,0,1,0-3.86,3.94,3.78,3.78,0,0,0,2.51-.94l2.42,2.47.22.22c.21,0,.34,0,.42-.17a.49.49,0,0,0,0-.7m-5.58-1.76a3.26,3.26,0,0,1-3-3.06,3.09,3.09,0,0,1,3-3.06,3,3,0,0,1,3,3.06,3.09,3.09,0,0,1-3,3.06m-8.59-1.75h1.72a.46.46,0,0,0,.43-.43V21.94a.47.47,0,0,0-.43-.44H14.06a.46.46,0,0,0-.42.44v1.75a.45.45,0,0,0,.42.43m.43-1.75h.86v.88h-.86Zm-1.71-.43v1.75a.46.46,0,0,1-.43.43.45.45,0,0,1-.43-.43V21.94a.46.46,0,0,1,.43-.44.47.47,0,0,1,.43.44m8.57-6.13a.47.47,0,0,0,.43.44.46.46,0,0,0,.43-.44V11.88L17.92,7.5H8.06a.47.47,0,0,0-.43.44V26.31a.47.47,0,0,0,.43.44h8.58a.44.44,0,0,0,0-.88H8.49V8.38h8.58v3.93a.46.46,0,0,0,.43.44h3.85Zm-3.43-3.93V8.81l2.79,3.07ZM10.63,21.5a.46.46,0,0,1,.43.44v1.75a.43.43,0,1,1-.85,0V21.94a.46.46,0,0,1,.42-.44m2.15-3.94a.46.46,0,0,0-.43-.43H10.63a.45.45,0,0,0-.42.43v1.75a.46.46,0,0,0,.42.44h1.72a.47.47,0,0,0,.43-.44Zm-.86,1.31h-.86V18h.86Zm4.29.44a.43.43,0,1,1-.86,0V17.56a.43.43,0,1,1,.86,0Zm-1.72-1.75v1.75a.43.43,0,1,1-.85,0V17.56a.43.43,0,1,1,.85,0m1.72-2.62a.43.43,0,1,1-.86,0V13.19a.43.43,0,1,1,.86,0Zm-6,0V13.19a.43.43,0,1,1,.85,0v1.75a.43.43,0,1,1-.85,0m4.28,0V13.19a.46.46,0,0,0-.43-.44H12.35a.46.46,0,0,0-.43.44v1.75a.46.46,0,0,0,.43.44h1.71a.46.46,0,0,0,.43-.44m-.85-.44h-.86v-.87h.86Z" fill="#fff"/></svg>