<?xml version="1.0" encoding="utf-8"?>
<!-- Generator: Adobe Illustrator 25.4.1, SVG Export Plug-In . SVG Version: 6.00 Build 0)  -->
<svg version="1.1" id="Layer_1" xmlns="http://www.w3.org/2000/svg" xmlns:xlink="http://www.w3.org/1999/xlink" x="0px" y="0px"
	 viewBox="0 0 531.3 250.4" style="enable-background:new 0 0 531.3 250.4;" xml:space="preserve">
<style type="text/css">
	.st0{fill:#BFDDF2;}
	.st1{clip-path:url(#SVGID_00000129916038294332739770000002709904903792591530_);}
	.st2{fill:url(#SVGID_00000116225387054444463780000009624900214455425955_);}
	.st3{fill:url(#SVGID_00000127727148896271486190000003274597965504754108_);}
	.st4{fill:url(#SVGID_00000026134719564696796490000012682182820184189833_);}
	.st5{fill-rule:evenodd;clip-rule:evenodd;}
	.st6{fill:none;stroke:#959595;stroke-width:0.37;stroke-miterlimit:10;}
	.st7{stroke:#FFFFFF;stroke-width:0.5;stroke-miterlimit:10;}
	.st8{fill-rule:evenodd;clip-rule:evenodd;stroke:#FFFFFF;stroke-width:0.5;stroke-miterlimit:10;}
	.st9{stroke:#000000;stroke-width:0.37;stroke-miterlimit:10;}
	.st10{stroke:#A3A3A3;stroke-width:0.37;stroke-miterlimit:10;}
	.st11{fill:none;stroke:#929292;stroke-width:0.73;stroke-linecap:round;stroke-linejoin:round;}
	.st12{fill:none;stroke:#808080;stroke-width:0.73;stroke-linecap:round;stroke-linejoin:round;}
	.st13{fill:none;stroke:#5C5C5C;stroke-width:0.73;stroke-linecap:round;stroke-linejoin:round;}
	.st14{fill:none;stroke:#A0A0A0;stroke-width:0.64;stroke-linecap:round;stroke-linejoin:round;}
	.st15{fill-rule:evenodd;clip-rule:evenodd;fill:#BBBBBB;}
	.st16{fill-rule:evenodd;clip-rule:evenodd;fill:url(#SVGID_00000021825328796871150870000002635521204075127426_);}
	.st17{fill-rule:evenodd;clip-rule:evenodd;fill:url(#SVGID_00000080918306046269415690000013479302946008705429_);}
	.st18{fill-rule:evenodd;clip-rule:evenodd;fill:#F4F4F4;}
	.st19{fill:none;stroke:#ABABAB;stroke-width:0.55;stroke-linecap:round;stroke-linejoin:round;}
	.st20{fill:none;stroke:#000000;stroke-width:0.73;stroke-miterlimit:10;}
	.st21{stroke:#5E5E5E;stroke-width:0.55;stroke-linecap:round;stroke-linejoin:round;}
	.st22{stroke:#151515;stroke-width:0.37;stroke-miterlimit:10;}
	.st23{fill:#B8B8B8;}
	.st24{fill:#E6E6E6;}
	.st25{fill:none;stroke:#E2E2E2;stroke-width:0.73;stroke-miterlimit:10;}
	.st26{fill:#E8E8E8;}
	.st27{fill:none;stroke:#BBBBBB;stroke-width:0.73;stroke-miterlimit:10;}
	.st28{fill:url(#SVGID_00000003813703462007867910000003683113501495330182_);}
	.st29{fill:none;stroke:#B9B9B9;stroke-width:0.55;stroke-linecap:round;stroke-linejoin:round;}
	.st30{fill:none;stroke:#8D8D8D;stroke-width:0.55;stroke-linecap:round;stroke-linejoin:round;}
	.st31{fill:none;stroke:#FFFFFF;stroke-width:0.73;stroke-miterlimit:10;}
	.st32{fill:#FFFFFF;}
	.st33{fill:none;}
	.st34{fill:none;stroke:#FFFFFF;stroke-width:2.2;stroke-miterlimit:10;}
	.st35{opacity:0.5;}
	.st36{fill:#E2E2E2;}
	.st37{clip-path:url(#SVGID_00000098183592922853550200000005303082580803302070_);}
	.st38{fill:url(#SVGID_00000080905027106785908770000005532854349567181753_);}
	.st39{fill:url(#SVGID_00000088112265510953454390000000727324806357895554_);}
	.st40{fill:none;stroke:#808080;stroke-width:0.73;stroke-miterlimit:10;}
	.st41{fill:url(#SVGID_00000053509618149869596810000017361544357696128899_);}
	.st42{fill:url(#SVGID_00000021837404601522062360000008839635676326043574_);}
	.st43{fill:url(#SVGID_00000030476718781196244990000009202011405809906085_);}
	.st44{fill:#575757;}
</style>
<g>
	<path class="st0" d="M531.3,158V0H192.9c-7.2,0-13,5.1-13,11.4l0,0c0,4.2-3.8,7.5-8.6,7.5h-30.6c-5.7,0-10.4,4.1-10.4,9.1l0,0
		c0,5,4.6,9.1,10.4,9.1h6.2c4.7,0,8.6,3.4,8.6,7.5l0,0c0,4.2-3.8,7.5-8.6,7.5H73.2c-4,0-7.3,2.9-7.3,6.4v0.7c0,3.5,3.3,6.4,7.3,6.4
		h28.7c4,0,7.3,2.9,7.3,6.4l0,0c0,3.5-3.3,6.4-7.3,6.4h-5.6c-4.3,0-7.7,3-7.7,6.8l0,0c0,3.8-3.5,6.8-7.7,6.8H40.9c-5,0-9,3.5-9,7.9
		l0,0c0,4.4,4,7.9,9,7.9h15.9c5,0,9,3.5,9,7.9v1.9c0,4.4-4,7.9-9,7.9H18.5C8.3,125.6,0,132.8,0,141.8l0,0c0,8.9,8.3,16.2,18.5,16.2
		H531.3z"/>
	<g>
		<defs>
			<rect id="SVGID_1_" x="16.8" y="20" width="514.6" height="230.4"/>
		</defs>
		<clipPath id="SVGID_00000054947379925289848750000010064940096051934368_">
			<use xlink:href="#SVGID_1_"  style="overflow:visible;"/>
		</clipPath>
		<g style="clip-path:url(#SVGID_00000054947379925289848750000010064940096051934368_);">
			
				<linearGradient id="SVGID_00000008850846521108264930000017509059614653473685_" gradientUnits="userSpaceOnUse" x1="106.96" y1="120.725" x2="537.03" y2="120.725" gradientTransform="matrix(1 0 0 -1 0 252)">
				<stop  offset="0" style="stop-color:#4C4C4C"/>
				<stop  offset="1" style="stop-color:#939393"/>
			</linearGradient>
			<path style="fill:url(#SVGID_00000008850846521108264930000017509059614653473685_);" d="M16.8,229L218.2,27.6
				c4.9-4.9,11.4-7.6,18.3-7.6h300.9v222.6H31.5L16.8,229z"/>
			
				<linearGradient id="SVGID_00000083797235340161913630000016347113320908002998_" gradientUnits="userSpaceOnUse" x1="118.3225" y1="50.1775" x2="142.0325" y2="73.8875" gradientTransform="matrix(1 0 0 -1 0 252)">
				<stop  offset="0" style="stop-color:#989898"/>
				<stop  offset="1" style="stop-color:#CCCCCC"/>
			</linearGradient>
			<polygon style="fill:url(#SVGID_00000083797235340161913630000016347113320908002998_);" points="100.4,144.8 113.6,158 
				165.1,158 181.5,174.4 181.5,213.6 106.3,213.6 69.3,176.5 			"/>
			
				<linearGradient id="SVGID_00000002359071705917908150000003363871622860057249_" gradientUnits="userSpaceOnUse" x1="241.6625" y1="191.9975" x2="192.4325" y2="142.7675" gradientTransform="matrix(1 0 0 -1 0 252)">
				<stop  offset="0" style="stop-color:#FFFFFF"/>
				<stop  offset="1" style="stop-color:#FFFFFF;stop-opacity:0"/>
			</linearGradient>
			
				<rect x="208.9" y="49.2" style="fill:url(#SVGID_00000002359071705917908150000003363871622860057249_);" width="49.4" height="37.8"/>
			<path d="M212.3,74.1c-0.5,0.5-1.2,0.7-1.9,0.5c-1.9-0.8-3.5-2-5-3.4l-0.2-0.2c0,0-1.6-3.2,0.1-5.7c0.1-0.1,0.2-0.1,0.4-0.1
				c0,0,0,0,0,0c0.1,0.1,0.4,0.3,0.7,0.6c0.8,0.7,2.1,2,4.2,4.2c0,0,1.2-4.8,1.8-6.9c0.1-0.2,0.1-0.5,0.2-0.6l1.8,0.4
				c0,0,0,0.2,0,0.6C214.4,65.5,214.5,71.6,212.3,74.1z"/>
			<path d="M212.5,62.5c0,0,1.1,1,1.8,0.4c0.1-0.5,0.2-1,0.4-1.4c0.5-0.8,0.9-1.7,1.1-2.7c0-0.1,0-0.2-0.1-0.3
				c0-0.1-0.1-0.2-0.1-0.2c-0.1-0.1-0.2-0.2-0.3-0.3l-0.2-0.1c-0.1,0-0.2-0.1-0.3-0.1h-0.3c-0.1,0-0.3,0.1-0.3,0.2
				c-0.3,0.6-0.6,1.2-1.1,1.8c0,0,0.2-1.1-0.1-1.3h-0.2c-0.1,0.6-0.2,1.3-0.4,1.9C212.3,61.1,212.3,61.8,212.5,62.5z"/>
			<path d="M213.7,59.7L213.7,59.7c0.5-0.5,0.9-1.2,1.1-1.9h-0.2C214.5,58.5,214.1,59.1,213.7,59.7z"/>
			<path d="M214.2,60L214.2,60c0.5-0.6,0.9-1.2,1.2-2l-0.2-0.1C215,58.7,214.6,59.4,214.2,60z"/>
			<path d="M214.6,60.3L214.6,60.3c0.5-0.5,0.8-1.1,1.1-1.8c0-0.1-0.1-0.2-0.1-0.2C215.4,59,215.1,59.7,214.6,60.3z"/>
			<path d="M213.3,60c0.3,0.2,0.3,0.8,0.2,1.1 M213.4,61.1c0-0.2,0-0.4,0-0.6c-0.1-0.2-0.1-0.3-0.1-0.5c0,0,0,0,0,0L213.4,61.1z"/>
			<path d="M202.3,59.6c0,0,0.1-2.8-1-3.5c-2.6-1.6-5.7,0.4-5.2,2.5s0.7,1.5,0.7,1.5S202.1,59.9,202.3,59.6z"/>
			<path d="M201.8,59.2c0.2-0.3,0.6-0.3,0.8-0.2c0.1,0,0.1,0.1,0.2,0.2c0.5,0.6-0.3,1.7-1,1.8C201.8,60.4,201.8,59.8,201.8,59.2z"/>
			<path d="M204.9,77.6c-3.1,0.7-6.3,0.7-9.3,0c0,0-0.8-4.3-1-5.6c-0.4-2.1-1-4.1-1.9-6c-0.1-0.1,0-0.2,0.1-0.3c1-0.6,2.2-1,3.4-1.1
				c0.4-0.1,0.9-0.1,1.3-0.1c0,0,0-0.3,0-0.8s0-0.7,0-1c0-0.5-0.1-1-0.2-1.5c1,0.8,2.4,1.1,3.7,0.9l0.1,1.6l0,0l0.1,0.7
				c0,0,0.8,0,1.7,0.1c0.9,0,1.8,0.2,2.6,0.6C207.6,66.3,204.9,77.6,204.9,77.6z"/>
			<path d="M201.7,57.5c0.3,0.6,0.4,1.3,0.4,1.9c0.1,2.5-0.7,3.3-2,3.5s-2.7-0.4-2.9-2.7c-0.1-1.2-0.3-2.3,0.1-2.8
				C198,56.7,200.7,56.5,201.7,57.5z"/>
			<path d="M197.4,59.8c0,0-0.4-1-1-0.5s0.2,2.2,1.2,2C197.5,61.4,197.7,60.2,197.4,59.8z"/>
			<path d="M190.1,87.8c0,0.5,0,0.9,0,1.4c-0.1,1,0,2,0.2,3c0.1,0.1,0.1,0.1,0.2,0.2h0.1c0.2,0.1,0.3,0.2,0.5,0.2h0.1
				c0.2,0,0.3,0,0.5,0l0,0c0.2,0,0.3-0.1,0.5-0.2c0-0.8,0.1-1.5,0.2-2.3c0,0,0.3,1,0.6,1.1l0.2-0.1c0,0-0.2-1.2-0.2-1.7
				c-0.1-0.8-0.5-1.6-1.1-2.1C191.9,87.4,190.6,87,190.1,87.8z"/>
			<path d="M194.7,70.3c-0.2,0.5-0.4,1.2-0.6,1.9c-0.7,2.4-1.7,5.7-1.8,6.7s-0.1,5.9-0.1,7.9v0.8c-0.4,0.7-1.2,1-2,0.8
				c0,0-0.1-0.4-0.2-1.1c-0.6-2.8-0.9-5.6-0.9-8.5c0.5-3.1,1.1-6.1,2-9.1c0.3-1.2,0.7-2.4,1.3-3.5c0.3-0.4,0.7-0.7,1.2-0.7
				C195.3,65.3,195.3,68.4,194.7,70.3z"/>
			<path d="M196.6,59.8c0.1,0,0.3,0.1,0.4,0.2c0.1,0.1,0.2,0.2,0.3,0.3c0,0,0,0.1-0.1,0c-0.1-0.1-0.2-0.2-0.2-0.2
				c-0.1,0.1-0.1,0.1-0.2,0.1c0,0-0.1,0-0.1,0s0-0.1,0-0.1l0,0c0-0.1,0.1-0.1,0.1-0.1C196.8,60,196.7,60,196.6,59.8
				C196.6,59.9,196.6,59.8,196.6,59.8z"/>
			<path d="M191.7,92.6L191.7,92.6c0-0.8,0-1.6,0.1-2.3l0,0C191.6,91,191.5,91.8,191.7,92.6z"/>
			<path d="M191.1,92.6L191.1,92.6c0-0.8,0-1.6,0.1-2.3l0,0C191,91,191,91.8,191.1,92.6z"/>
			<path d="M190.6,92.4L190.6,92.4c0-0.7,0.1-1.5,0.1-2.2l0,0C190.5,90.9,190.5,91.6,190.6,92.4z"/>
			<polygon class="st5" points="195.7,116.3 197.9,116.4 198,112.1 195.8,112.1 			"/>
			<polygon class="st5" points="197.9,115.9 195.5,115.6 195.4,117.4 200.9,117.4 200.9,116.8 			"/>
			<polygon class="st5" points="203.8,116.3 206.1,116.4 206.8,111.9 204.7,111.8 			"/>
			<polygon class="st5" points="206,115.9 203.6,115.6 203.5,117.4 209,117.4 209,116.8 			"/>
			<path d="M198.4,115.2l2.3-26l3.5,12.4c0,0.2,0,0.3,0,0.5l-1.1,13.1h3.5l2.1-13.5c0-0.1,0-0.2,0-0.3l-2.5-19.4c0,0-4.5,0.4-12.1,4
				l1.1,29.2L198.4,115.2z"/>
			<path d="M214.4,63.6c-1.5,0.3-2-0.4-2-0.4c-0.8,2.1-1.4,4.3-1.8,6.5l-1.1-1.3c0,0-3-3.2-4.1-3.6c-1.4-0.3-2.8-0.4-4.2-0.3
				l-0.1-0.7l0,0c-0.6,0-1.2,0.3-1.6,0.7c-0.6-0.4-1.3-0.6-2-0.7c0,0.4,0,0.8,0,0.8c-0.3,0-4.9,0-5.9,2.3c-0.6,1.6-1.1,3.3-1.5,5
				c0,0-1.7,5.8-1.5,7.9s1.3,7.9,1.3,7.9c0.8,0.2,1.7-0.1,2.2-0.8l0.5-7.5l1.9-7.4c0,0.1,0.2,8.3-0.4,14c0,0,0,0.1,0.1,0.1
				c0.3,0.3,1.4,1.4,5.4,2.1l1-2l1.1,2c0,0,3.5-1.3,4.6-3.4c0.1-0.1,0.2-0.3,0.2-0.4c-0.8-9.8-0.5-12.5-0.5-12.5l1.6,1.4
				c0.2,0.2,0.3,0.3,0.5,0.5h0.1l0,0c0.8,0.7,1.9,1,3,0.8c0,0,2-0.1,2.9-4C214.7,68.3,214.7,65.9,214.4,63.6z"/>
			<path d="M194,85.3l0.6-13.2c0.6-2.4,0.9-4.9,0.9-7.4l1.2-0.1h0.4l3.7,8.4l1.6-8.5c0.3,0,0.5,0,0.8,0c0.2,0,0.3,0,0.5,0.1l2.5,7.5
				l0.7,13.4L194,85.3z"/>
			<path d="M197,64.5l3.7,8.4l-3.3-3.2l0.7-1.1l-1.2-0.2c0,0-0.2-3.1-0.2-3.9L197,64.5z"/>
			<path d="M202.4,68.3l0.8,1l-2.5,3.6l1.6-8.5c0.2-0.1,0.4-0.1,0.6-0.1l0.6,3.9L202.4,68.3z"/>
			<line class="st6" x1="200.8" y1="73.2" x2="200.8" y2="84.8"/>
			<path d="M201.6,74.4c-0.1,0-0.2,0.1-0.2,0.2s0.1,0.2,0.2,0.2s0.2-0.1,0.2-0.2S201.7,74.4,201.6,74.4z"/>
			<path d="M201.7,77.3c-0.1,0-0.2,0.1-0.2,0.2c0,0.1,0.1,0.2,0.2,0.2s0.2-0.1,0.2-0.2C202,77.4,201.9,77.3,201.7,77.3z"/>
			<path d="M201.8,80.1c-0.2,0-0.3,0.2-0.2,0.3c0,0.1,0.1,0.2,0.2,0.2c0.2,0,0.3-0.2,0.2-0.3C202,80.2,201.9,80.2,201.8,80.1z"/>
			<polygon class="st5" points="163.1,189.8 160.2,189.8 158.1,183.9 161.1,183.9 			"/>
			<polygon class="st5" points="138.9,208.9 141.1,210 142.6,208.3 140.4,207.2 			"/>
			<path class="st5" d="M142.4,212.2h1.1v1h-1.8l-3.7-3.3l0.9-1.2l2.3,1.2L142.4,212.2z"/>
			<path class="st5" d="M151.1,200.5l-9.3,9.2l-2.4-2.1c2-2.5,5.2-8.1,8.2-9.2L151.1,200.5z"/>
			<path class="st5" d="M135,192.4c0,0-0.7,5.6,3.9,6.2c4.6,0.4,9.1,0.5,13.7,0.4c0,0,0.8-4-2.1-4.7c-3.6-0.9-7.9-1.4-7.9-1.4
				L135,192.4z"/>
			<path class="st5" d="M138.1,178.8l1.1-3.5l2.5,0.9l-0.5,3.4C140.3,178.8,139.2,178.5,138.1,178.8z"/>
			<path class="st5" d="M140.2,176.4c0.1,0.8,0.5,1.6,1.1,2.1l0.1-0.7l0.1-1C141.1,176.8,140.6,176.7,140.2,176.4z"/>
			<path d="M138.2,173.2c0.3-1.9,2-2.1,3.6-1.8s1.7,1.6,1.5,2.7c0,0.4,0.1,0.8,0.4,1.1c0.1,0.2-0.3,0.4-0.4,0.5s0,1.4-0.4,1.6
				c-0.8,0.3-1.7,0.3-2.5-0.1C138.8,176.4,137.9,175.1,138.2,173.2z"/>
			<path d="M140.7,174.8l-0.2-0.5c0,0-1.1,1.3-1.7,2.1c-0.5-1.3-1-1.8-0.8-3.1c0.3-1.9,2.1-2.3,3.8-1.9s0.5,0.8-0.5,0.9
				s-1,0.6-0.9,1s0.9,0.6,0.8,1.7L140.7,174.8z"/>
			<path class="st5" d="M139.8,173.9c0.5,0,0.9,0.3,0.9,0.8c0,0.3-0.1,0.6-0.4,0.8c-0.5,0-0.9-0.3-0.9-0.8
				C139.4,174.4,139.5,174.1,139.8,173.9z"/>
			<rect x="149.8" y="189.2" width="9.2" height="0.6"/>
			<path d="M129.8,189.8h36.8c0.3,0,0.6,0.2,0.6,0.6v0c0,0.3-0.2,0.6-0.6,0.6h-36.8c-0.3,0-0.6-0.2-0.6-0.6v0
				C129.2,190,129.5,189.8,129.8,189.8z"/>
			<path class="st5" d="M143.8,184.5l-0.3,8.5c0,0-2.8,1.4-8.7-0.2c-0.4-0.3-0.5-0.8-0.1-1.6l-0.1-5.6c0-1.3,0.1-2.6,0.5-3.9
				c0.4-1.6,1.2-3.3,2.6-3.5c1.3-0.2,2.6-0.2,3.8,0.2c1.9,0.4,3.4,2,3.6,4L143.8,184.5z"/>
			<path class="st5" d="M153.7,188c0,0,0.8-0.7,1.4-0.5c0.4,0,0.8,0.1,1.2,0.2c0.4,0.2,0.7,0.5,1,0.8c0.1,0.3-0.1,0.7-0.4,0.8
				c-0.2,0.1-0.9-0.4-0.9-0.4c-0.7,0.3-1.4,0.5-2.2,0.5l-1.4-0.1l-0.6-0.8L153.7,188z"/>
			<path class="st5" d="M144.4,180.6l3.8,5.9l4.8,0.6c0.4,0.1,0.7,0.4,0.8,0.9v1.5l-6.6,0.2l-4.3-2.5L144.4,180.6z"/>
			<polygon class="st5" points="153.8,212.1 156.1,212.2 153.7,206.2 151.6,206.8 			"/>
			<polygon class="st5" points="156,211.7 153.5,211.5 153.5,213.2 159,213.2 159,212.6 			"/>
			<path class="st5" d="M152.6,196.8l3.4,13.8l-3.5,0.1c-1.7-4.4-3.4-8.1-3.8-11.8L152.6,196.8z"/>
			<path class="st7" d="M144.6,209.6h-5v-11.8h-1.3v11.8h-4.8c-0.3,0-0.6,0.2-0.6,0.5s0.2,0.6,0.5,0.6c0,0,0.1,0,0.1,0h11.1
				c0.3,0,0.6-0.2,0.6-0.5s-0.2-0.6-0.5-0.6C144.7,209.6,144.6,209.6,144.6,209.6L144.6,209.6z"/>
			<path class="st8" d="M139,204L139,204c-0.9,0-1.6-0.7-1.6-1.6v-2.2c0-0.9,0.7-1.6,1.6-1.6l0,0c0.9,0,1.6,0.7,1.6,1.6v2.2
				C140.6,203.3,139.9,204,139,204z"/>
			<circle class="st7" cx="139" cy="212.2" r="0.9"/>
			<circle class="st7" cx="143.9" cy="212.2" r="0.9"/>
			<circle class="st7" cx="134.2" cy="212.2" r="0.9"/>
			<path class="st8" d="M144.2,200.5h-10.6c-0.8,0-1.5-0.7-1.5-1.5l0,0c0-0.8,0.7-1.5,1.5-1.5h10.6c0.8,0,1.5,0.7,1.5,1.5
				c0,0,0,0,0,0l0,0C145.7,199.8,145.1,200.5,144.2,200.5C144.2,200.5,144.2,200.5,144.2,200.5z"/>
			<path class="st5" d="M143.7,188.4l-2.3-2.1v7.2c0.7,0,1.5-0.1,2.1-0.4c0.4-0.3,0.5-0.6,0-1.2L143.7,188.4z"/>
			<path class="st8" d="M165.6,176.1h-12.9c-0.5,0-0.9,0.4-0.9,0.9l-0.4,8.4c0,0.5,0.4,1,0.9,1c0,0,0,0,0.1,0h12.9
				c0.5,0,0.9-0.4,0.9-0.9l0.4-8.4C166.6,176.6,166.2,176.1,165.6,176.1z"/>
			<path d="M265.6,87.8c-0.7-1.3-1.2-2.7-1.6-4.2c0,0.3,1,0.8-1.5,0.4c0,0-2.3,4-3.6,14.8c-0.2,1.9-0.5,6.8-0.5,8.6
				s-0.2,7.2-0.1,7.2c0,0.4-0.1,0.9-0.3,1.3c-0.2,0.2-0.4,0.3-0.6,0.4c-0.5,0.2-0.9,0.5-0.4,0.8s2.6,0.1,2.6-0.2s0-0.6,0.1-0.8
				c0.1-0.4,0.1-0.9,0.2-1.3c0.9-3,1.6-6.1,2-9.3C262.4,100.9,266.4,89.4,265.6,87.8z"/>
			<path d="M257.9,115.8c0.5,0.4,1.2,0.5,1.8,0.3l0.1,1.2h-4.1c-0.5-0.3,0-0.4,0-0.4L257.9,115.8z"/>
			<path d="M268.5,116.4c0-0.2,0-0.3,0-0.5c0-0.5,0-0.9,0.1-1.3c0.6-3.1,0.9-6.3,0.9-9.5c-0.1-2,0-4,0.3-5.9
				c0.2-4.5,0.1-9.2-0.6-11.8c-0.5-1.5-0.8-3.1-0.9-4.8c0,0-0.8,1.6-4.4,1.5c0,0,1.2,13,1.3,14.9s0.9,6.7,1.1,8.5s1,7,0.6,8.5
				c0,0.1-0.2,0.3-0.5,0.5l-0.5,0.3"/>
			<path d="M267.7,116.5c-0.1-2.3-0.5-9.4-0.6-11.9c-0.2-3-0.2-5.4-0.2-5.4h2.9l0,0c-0.2,2-0.3,4-0.3,5.9c0,3.2-0.3,6.4-0.9,9.5
				c-0.1,0.4-0.1,0.9-0.1,1.3c0,0.2,0,0.3,0,0.5L267.7,116.5z"/>
			<path d="M264.3,117.4c-0.5-0.2,0-0.4,0-0.4c0.8-0.2,1.7-0.6,2.4-1c0.5,0.3,1.2,0.3,1.7,0c0,0.2,0,1.2,0,1.4L264.3,117.4z"/>
			<path d="M270,99.9h-11.4c-0.1-2.6,0.5-7.2,3.4-15.9h6.7C271.4,88,270,99.9,270,99.9z"/>
			<path d="M266.5,90.5c-0.1-3.8-1.9-5-2.1-6.5l0.1-0.1h4.3c2.7,4,1.3,15.9,1.3,15.9h-3.1C266.8,98.3,266.5,93.6,266.5,90.5z"/>
			<polygon points="266.9,71.6 264.8,72.1 263.8,68 265.9,67.4 			"/>
			<path d="M261.4,75.1l-3.9,0.8c-0.5,0.1-0.9,0-1.2-0.4l0,0c-0.4-0.5-0.3-1.2,0.2-1.6c0.1-0.1,0.2-0.1,0.3-0.2l6.8-2L261.4,75.1z"
				/>
			<path d="M258.6,68.1l0.8,0.7c0,0-0.9,5.4-1,6.2s-1.2,0.8-1.2,0.8c-0.6-0.1-1-0.7-0.9-1.3c0,0,0-0.1,0-0.1L258.6,68.1z"/>
			<path d="M264.4,70.3c0,0-3,4.3-3.1,5.4l0.8,3.2l0.4,2.6c-0.4,0.8-1.1,2.5-0.4,2.6h6.6c-0.4-8,0.7-12.3-2.1-14.1
				C266.1,69.8,265.4,70.1,264.4,70.3z"/>
			<polygon points="266,73.7 268.6,82 269.5,77.7 			"/>
			<path d="M263.9,71.1l-0.2,4.3c1.4,2.9,0.6,8.3,0.6,8.3l0,0.3l-2.3,0.1c-0.8-0.1-0.1-1.7,0.4-2.6l-0.4-2.6l-0.8-3.2
				C261.4,74.9,263.1,72.3,263.9,71.1z"/>
			<path d="M268,85.5l-0.7,1.1c-0.1,0.2-0.2,0.5-0.2,0.7l0.3,1.8l0.6-0.4l0.8-1.4c0.2-0.3,0.2-0.7,0.1-1.1l-0.1-0.6L268,85.5z"/>
			<path d="M270.1,81.1c-0.8,1.8-1.1,2.7-2,4.5l0.6,0.8c2.2-3.2,3.5-4.1,3.7-5.8C270.5,78.3,272.6,80.1,270.1,81.1z"/>
			<path d="M258.6,68.1l1.1-0.6c0.2-0.1,0.5-0.1,0.7-0.1l1,0.3c0.3,0.1,0.4,0.4,0.4,0.6c0,0.1,0,0.1-0.1,0.2l0,0l-1.5,0.6
				c-0.4,0.1-0.7,0.1-1.1,0l-0.6-0.2L258.6,68.1z"/>
			<path d="M266.7,65.6c0-1.7-0.1-2-1.5-2.5s-0.5,0.3-2.1,0.4c-0.9,0-1.1,0.9-1.1,1.9c-0.1,0.4-0.3,0.8-0.6,1
				c-0.1,0.2,0.2,0.5,0.4,0.6s0,1.2,0.3,1.4c0.6,0.2,1.2,0.3,1.9,0.4c1.8-0.6,1.8-4,1.8-4C265.9,64.3,266.7,66.1,266.7,65.6z"/>
			<circle class="st9" cx="268.8" cy="65.1" r="1.6"/>
			<circle class="st10" cx="268" cy="64.8" r="1.3"/>
			<circle class="st9" cx="268.2" cy="64.2" r="1.3"/>
			<circle class="st9" cx="268.5" cy="66.2" r="1.3"/>
			<circle cx="268.2" cy="65.2" r="1.6"/>
			<path d="M265.3,62.5c0,0,3.2,0.4,1.7,4.2c-0.2,0.5-0.4,0.9-0.8,1.2c-0.3,0.2-0.6,0.3-1,0.2c-0.2,0-0.4-0.2-0.5-0.3
				c-0.7-1.5-0.6-1.2-1-3.6l-1.1-0.7l-0.2-0.4L265.3,62.5z"/>
			<path d="M264.5,66.9c0,0,1.1-2.2,0.4-3l-2.2-0.9C262.6,64.5,263.3,66,264.5,66.9z"/>
			<polygon points="263.7,70.4 266.8,69.3 267.3,70.2 263.1,71.6 			"/>
			<path d="M272.5,80.6c-0.6,0.8-1.6,1.1-2.5,0.8l-3.3-6.3c-0.4-0.5-0.6-1.1-0.6-1.8c0.2-0.7,1-1.3,2.2-0.3
				C269.2,73.9,271.5,78.2,272.5,80.6z"/>
			<path d="M264.2,66.4c-0.2,0.5-0.1,1,0.2,1.1s0.8-0.2,1-0.7s0.1-1-0.2-1.1S264.4,65.9,264.2,66.4z"/>
			<g>
				<path class="st11" d="M245.1,65.9c0.7,0.5,1.5,0.7,2.3,0.6"/>
				<path class="st11" d="M247.6,66.7c-0.6,0.5-1.2,1.1-1.5,1.8"/>
				<path class="st11" d="M222.4,73.4c1-1.2,2.5-2,4.1-2.1c2.4-0.3,7.7,2.3,11.4,0.9s2.9-3.7,9.6-5.6"/>
				<path class="st12" d="M220.3,55.2c-1.1,0.6-2,1.6-2.6,2.7c-0.6,1.2-0.8,2.7-0.4,4c0.6,1.7,2.1,3,3.9,3.3
					c1.3,0.3,2.6,0.1,3.8-0.3c0.6-0.2,1.1-0.6,1.5-1c0.4-0.6,0.7-1.2,0.9-1.9c0.2-0.8,0.3-1.5,0.3-2.3c-0.2-1.8-1.2-3.4-2.8-4.2
					c-1.5-0.7-3.2-0.7-4.7-0.1"/>
				<path class="st12" d="M223,54.9l-0.3,5.8"/>
				<path class="st12" d="M222.7,60.8c1.6-0.1,3.2-0.5,4.7-1.1"/>
				<path class="st12" d="M222.8,60.9c1.1,1,2.3,2,3.5,3"/>
				<path class="st13" d="M223.2,76.5c0.2,1.9,0.3,3.7,0.2,5.6"/>
				<path class="st13" d="M244.9,70.9c0.2,3.5,0.3,7.8,0.2,11.3"/>
				<path class="st13" d="M227.1,73.6v8.2"/>
				<path class="st13" d="M230.2,74.4v7.8"/>
				<path class="st13" d="M232.8,75.6v6.8"/>
				<path class="st13" d="M235.9,82.2v-6.8"/>
				<path class="st13" d="M238.8,74.7v7.4"/>
				<path class="st13" d="M242.3,72.7v9.4"/>
				<path class="st14" d="M227.2,55.5h9.7"/>
				<path class="st14" d="M228.5,57.8h8.4"/>
				<path class="st14" d="M230.4,60.1h6.5"/>
				<path class="st14" d="M220.3,82.8h26.6"/>
				<path class="st14" d="M221.2,80.6h-5"/>
				<path class="st14" d="M221.3,78.6H214"/>
				<path class="st14" d="M221.4,76.7h-2.3"/>
				<path class="st14" d="M247.7,72.4h5.5"/>
				<path class="st14" d="M247.6,74.4h5.6"/>
				<path class="st14" d="M247.4,76.4h2.6"/>
				<path class="st14" d="M245,63.7c1.7-3,3.5-5.8,5.4-8.6"/>
				<path class="st14" d="M250.5,54.8c1.3,3.2,2.9,6.2,4.8,9"/>
				<path class="st14" d="M245.4,64l10-0.1"/>
				<path class="st13" d="M245.4,60.9l10-0.1"/>
				<path class="st11" d="M245.4,58.1l10-0.1"/>
			</g>
			<path class="st15" d="M473,189.4h-0.4c-0.3,0-0.5,0.2-0.5,0.4l-3.2,33.5c0,0.3,0.2,0.5,0.4,0.5c0,0,0,0,0,0h0.4
				c0.3,0,0.5-0.2,0.5-0.4c0,0,0,0,0,0l3.2-33.5C473.5,189.7,473.3,189.5,473,189.4C473,189.5,473,189.5,473,189.4z"/>
			
				<linearGradient id="SVGID_00000036251818971942227310000010951830208159061903_" gradientUnits="userSpaceOnUse" x1="476.3431" y1="62.5519" x2="476.3431" y2="14.6119" gradientTransform="matrix(1 0 0 -1 0 252)">
				<stop  offset="0" style="stop-color:#202020"/>
				<stop  offset="1" style="stop-color:#515151"/>
			</linearGradient>
			<path style="fill-rule:evenodd;clip-rule:evenodd;fill:url(#SVGID_00000036251818971942227310000010951830208159061903_);" d="
				M474.5,189.4h0.4c0.3,0,0.5,0.2,0.5,0.4c0,0,0,0,0,0l3.2,33.5c0,0.3-0.2,0.5-0.4,0.5c0,0,0,0,0,0h-0.4c-0.3,0-0.5-0.2-0.5-0.4
				c0,0,0,0,0,0l-3.2-33.5C474,189.7,474.2,189.5,474.5,189.4C474.5,189.5,474.5,189.5,474.5,189.4z"/>
			<path class="st15" d="M497.7,189.4h-0.4c-0.3,0-0.5,0.2-0.5,0.4l-3.2,33.5c0,0.3,0.2,0.5,0.4,0.5c0,0,0,0,0,0h0.4
				c0.3,0,0.5-0.2,0.5-0.4l3.2-33.5C498.1,189.7,498,189.5,497.7,189.4C497.7,189.5,497.7,189.5,497.7,189.4z"/>
			
				<linearGradient id="SVGID_00000009558920734529659180000007810517653198514863_" gradientUnits="userSpaceOnUse" x1="498.9337" y1="62.5512" x2="498.9337" y2="14.6112" gradientTransform="matrix(1 0 0 -1 0 252)">
				<stop  offset="0" style="stop-color:#202020"/>
				<stop  offset="1" style="stop-color:#515151"/>
			</linearGradient>
			<path style="fill-rule:evenodd;clip-rule:evenodd;fill:url(#SVGID_00000009558920734529659180000007810517653198514863_);" d="
				M497.1,189.4h0.4c0.3,0,0.5,0.2,0.5,0.4l3.2,33.5c0,0.3-0.2,0.5-0.4,0.5c0,0,0,0,0,0h-0.4c-0.3,0-0.5-0.2-0.5-0.4l-3.2-33.5
				C496.6,189.7,496.8,189.5,497.1,189.4C497.1,189.5,497.1,189.5,497.1,189.4z"/>
			<path class="st15" d="M500.3,160h-25.2c-0.3,0-0.5,0.2-0.5,0.5l-4.2,44.9c0,0.2,0.1,0.5,0.4,0.5c0,0,0,0,0.1,0H496
				c0.3,0,0.5-0.2,0.5-0.5l4.2-44.9C500.8,160.3,500.6,160,500.3,160C500.4,160,500.3,160,500.3,160z"/>
			<path class="st18" d="M498.8,162h-22.6c-0.3,0-0.5,0.2-0.5,0.4l-3.8,41c0,0.2,0.1,0.4,0.4,0.4c0,0,0,0,0.1,0h22.6
				c0.2,0,0.5-0.2,0.5-0.4l3.8-41C499.2,162.2,499.1,162,498.8,162C498.9,162,498.8,162,498.8,162z"/>
			<g>
				<path class="st19" d="M482.4,183.1c0.9-0.2,1.7-0.7,2.4-1.3c0.6-0.7,0.9-1.6,0.8-2.5c0-0.2-0.2-0.5-0.4-0.5s-0.3,0.2-0.4,0.4
					c-0.3,0.6-0.5,1.3-0.5,2c-0.1,0.8,0,1.9,0.8,2.2c0.6,0.2,1.3,0,1.8-0.4c1-0.7,1.6-1.8,1.8-3c0.1-0.4,0-0.9-0.4-1.1
					c-0.8,0.7-0.7,2-0.5,3c0,0.3,0.2,0.7,0.4,0.9c0.3,0.3,0.8,0.5,1.3,0.4c0.5-0.1,0.9-0.4,1.2-0.7c0.6-0.6,1-1.4,1.2-2.2
					c0.2-0.5,0.1-1.1-0.3-1.5c-0.1-0.1-0.2-0.1-0.3-0.1c-0.1,0-0.2,0.2-0.2,0.3c-0.3,1-0.3,2,0.1,2.9c0.5,0.9,1.5,1.4,2.5,1.2"/>
				<path class="st19" d="M476.8,171.2c6.7-0.1,13.3-0.1,19.9,0"/>
				<path class="st19" d="M480.3,177.3c1.2-0.6,2-1.7,2.4-3c0.2-0.6,0.1-1.4-0.5-1.5c-0.3,0.9-0.3,1.9-0.1,2.8
					c0,0.5,0.3,0.9,0.7,1.1c0.7,0.2,1.5,0,2-0.5c0.9-0.8,1.6-2.2,0.9-3.1c-0.6,0.7-0.7,1.7-0.5,2.6c0.1,0.3,0.2,0.5,0.4,0.6
					c0.5,0.2,1.1,0.2,1.5-0.2c1.1-0.8,1.7-2.1,1.6-3.4c-0.7,0.8-0.9,2-0.6,3c0.1,0.3,0.2,0.5,0.4,0.6c0.5,0.4,1.2,0.1,1.7-0.3
					c1-0.9,1.5-2.2,1.3-3.5c-0.4,0.7-0.6,1.5-0.6,2.3c0,0.6,0.3,1.2,0.8,1.6c0.8,0.3,1.7,0.3,2.5-0.2"/>
				<path class="st19" d="M477.1,188.3l1.6-0.4c0.1,0,0.2,0,0.3,0c0.2,0.1,0,0.4-0.1,0.5l-1.2,1.2l0.9-0.1c0.2,0,0.5,0,0.6,0.2
					c0,0.1,0,0.2,0,0.3c-0.3,0.5-0.8,0.8-1.4,0.8"/>
				<path class="st19" d="M477.3,174.2c0.3-0.3,0.7-0.5,1.1-0.7c-0.1,0.8-0.3,1.5-0.5,2.2"/>
				<path class="st19" d="M477.7,193.4c-0.4,0.8-0.8,1.5-1.4,2.2c0.7,0,1.4-0.1,2-0.3"/>
				<path class="st19" d="M478,193.3c0.1,1.4,0,2.8-0.2,4.1"/>
			</g>
			<line class="st20" x1="475.7" y1="175.8" x2="470.6" y2="174.7"/>
			<path d="M472.8,177.8l-4.8,6.6c-1.4,1.8-3.9-0.2-2-2.2c2.4-2.5,6.3-5.9,6.3-5.9l0.8-1.7l1.6,0.2l0.6,0.5l-1.2-0.1l0.9,0.8v0.9
				h-0.6v-0.2H474l-0.4,1.1L472.8,177.8z"/>
			<path d="M462.9,176.5c0,0,5.2,5,4.6,7.6c-0.8,3-6.3-1.4-6.3-4.2C461.2,177.6,461.6,175.8,462.9,176.5z"/>
			<path d="M453.6,176.3c0,0-5.5,4-8.1,9.3c-0.1,0.3-0.1,0.7,0.1,1c0.6,0.8,1.7,1.1,6.8,2.8c0.3,0.1,0.2,1.2,0.3,2
				c0,0.2,0.2,0.4,0.5,0.4c0.2,0,0.4-0.2,0.4-0.4l0.3-2.2c-1.7-1.5-3.7-2.7-5.8-3.6c0,0,3.5-2.9,6.5-5
				C456.1,179.6,455.2,175.5,453.6,176.3z"/>
			<path d="M455.5,221c0,0.4,0,0.9,0.1,1.3c0,0.1,0.2,0.4,0.5,0.6c0.1,0.1,0.3,0.2,0.5,0.3l-2.7-0.4c0-0.2,0-0.4,0-0.6
				c0-0.6,0-1,0-1.2L455.5,221z"/>
			<path d="M465.7,220.8c0,0.5,0.1,1,0.3,1.4c0.2,0.2,0.4,0.4,0.6,0.5c0.5,0.3,0.9,0.5,0.4,0.8s-2.6,0.1-2.6-0.2s0-0.6-0.1-0.9
				c-0.1-0.5-0.2-1-0.3-1.4"/>
			<path d="M453.5,221.3c0-0.4-0.5-5.9-0.3-10.9c0.1-2.2,0.1-4.3-0.1-6.5c0-4.9-0.2-10.1,0.7-13c0.6-1.7,0.8-3.4,0.8-5.2
				c0,0,1.3,1.9,4.8,1.9c0,0,0.2,5.4-1.1,6c0,0-0.5,8.1-0.6,10.2s-1.1,7.3-1.3,9.3c-0.2,1.6-0.4,5.6-0.4,8.3L453.5,221.3z"/>
			<path d="M453.9,223.8l4.1,0.1c0.5-0.2,0-0.5,0-0.5c-0.8-0.1-1.5-0.4-2.2-0.8h-0.5l-0.3,0.3h-1.1L453.9,223.8z"/>
			<path d="M459.4,186.9v0.2C459.3,187,459.3,186.9,459.4,186.9z"/>
			<path d="M463.6,221.3c0-0.4-1.2-5.5-1.8-10.4s-1.3-4.4-1.6-6.6c-1.3-8.2-3.1-10.8-2.4-12.5c0.7-1.5,1.2-3,1.5-4.6
				c0,0.3,0.4,0.9,3,0.5c0,0,2.7,6.2,2.5,16.1c0,2.1,0.7,7.3,0.7,9.3s0.8,7.8,0.8,8.2L463.6,221.3z"/>
			<path d="M464.4,223.8l4.4,0.1c0.5-0.2,0-0.5,0-0.5c-0.8-0.1-1.5-0.4-2.2-0.8H466l-0.3,0.3h-1.4L464.4,223.8z"/>
			<path d="M462.3,187.6c0.1-2.1,0.3-4.2,0.6-6.2c0.1-0.4,0.2-0.8,0.1-1.2c0-1.2-0.2-2.3-0.5-3.4c-0.3-0.2-0.7-0.3-1.1-0.4
				c-0.1,0-1.6-0.6-1.6-0.6l-0.1-0.8l-0.1-0.5l-0.1-0.9c-0.1-1.2-2.5-0.7-2.5-0.7v2.8c-0.4,0.1-0.8,0.1-1.2,0.1h-0.2
				c-0.6,0-1.3,0.1-1.9,0.3c-0.5,0.3,1.1,9.4,0.8,10.6L462.3,187.6z"/>
			<path d="M457.2,173.2v0.8c0.7,0.6,1.7,1,2.6,0.9l-0.1-0.5l-0.1-0.9C459.1,173,457.7,173.1,457.2,173.2z"/>
			<path d="M460.6,169.2c0.3,0.6,0.4,1.2,0.4,1.8c0.1,2.4-1.1,3.3-1.9,3.3c-1.5,0.1-2.7-1.1-2.8-2.5c0,0,0,0,0,0
				c-0.2-0.9-0.1-1.8,0.1-2.6C457,168,459.5,167.6,460.6,169.2z"/>
			<path d="M462.3,187.6c0.3-1,0.5-2,0.5-3c-0.1-0.9,0-1.8,0.3-2.6c0.5-1,0.6-2.1,0.3-3.1c-0.3-0.8-0.6-1.6-0.7-2.5
				c-1.1-0.5-2.2-0.8-3.4-0.9c-2.5-0.2-5.3,0.3-5.8,0.7c0,1.4,0,2.8,0.2,4.3c0.3,2,0.5,2.5,0.3,3.8c-0.1,1.1,0.1,2.2,0.5,3.2
				L462.3,187.6z"/>
			<path d="M453.9,176c-2.1,1.1-3.9,2.6-5.4,4.4c-2.3,2.9-2.4,3.7-3.2,4.2s1.2,1.7,3,1s6-4.6,6-4.6S455.8,176.1,453.9,176z"/>
			<path d="M457.9,178.9c0.3-0.4,1-1.4,1-5.1c-0.1-0.9,0.2-1.8,0.9-2.4c0.4-0.4,0.6-0.7,1-1.2c1-1.1-0.7-3.3-2.3-3.3
				c-0.7-0.1-1.4,0-2.1,0.2c-0.8,0.3-1.4,0.9-1.7,1.6c-0.1,0.7-0.2,1.4-0.5,2.1c-0.2,0.4-0.5,0.7-0.8,1c-0.3,0.5-0.3,1-0.2,1.5
				c0.1,0.4,0.3,0.8,0.4,1.1c0.1,0.8-2,1.6-1.5,4c0.2,0.7,1.5,1,2.3,1C456,179.5,457.5,179.4,457.9,178.9z"/>
			<path d="M460,171.2c0,0-0.4-1-1-0.5s0.2,1.9,1.1,1.8C460.2,172.6,460.3,171.6,460,171.2z"/>
			<path d="M459.3,171.2c0.1,0,0.3,0.1,0.4,0.2c0.1,0.1,0.2,0.2,0.3,0.3c0,0,0,0.1-0.1,0s-0.1-0.2-0.2-0.2c0,0.1-0.1,0.1-0.2,0.1
				c0,0-0.1-0.1-0.1-0.1c0-0.1,0.1-0.1,0.1-0.1C459.5,171.4,459.4,171.3,459.3,171.2L459.3,171.2z"/>
			<path class="st5" d="M267.1,194.1c-1.1,2.2-1.8,4.6-1.8,7.1c0,0,1.1-0.1,1.1-0.3S267.1,194.1,267.1,194.1z"/>
			<polygon class="st5" points="256.6,227.7 254.3,227.5 255.1,224.9 257.2,225.1 			"/>
			<polygon class="st5" points="266.8,227.7 264.3,227.5 264.6,225 267.1,225.2 			"/>
			<path class="st5" d="M256.8,229.2c0-0.1,0-0.2,0-0.2v-1.6l-2.3-0.2c-0.9,0.6-1.9,1.2-2.9,1.7c-0.2,0.1-0.3,0.2-0.4,0.4H256.8z"/>
			<path d="M271.9,226.3L271.9,226.3c-0.4,0-0.7-0.3-0.7-0.7v0v-12.2c0-0.4,0.3-0.7,0.7-0.7l0,0l0,0c0.4,0,0.7,0.3,0.7,0.7v12.2
				C272.5,226,272.2,226.3,271.9,226.3z"/>
			<path class="st5" d="M272,216.8L272,216.8c-0.9,0-1.6-0.7-1.6-1.6V213c0-0.9,0.7-1.6,1.6-1.6l0,0c0.9,0,1.6,0.7,1.6,1.6v2.2
				C273.6,216,272.9,216.7,272,216.8z"/>
			<circle cx="272" cy="228.5" r="0.9"/>
			<circle cx="276.8" cy="228.5" r="0.9"/>
			<circle cx="267.1" cy="228.5" r="0.9"/>
			<path d="M277.5,226.9h-11.1c-0.3,0-0.5-0.2-0.5-0.5l0,0c0-0.3,0.2-0.5,0.5-0.5l0,0h11.1c0.3,0,0.5,0.2,0.5,0.5l0,0
				C278.1,226.6,277.8,226.9,277.5,226.9z"/>
			<path d="M265.3,210.2h13.1c0.8,0,1.5,0.7,1.5,1.5v0.1c0,0.8-0.7,1.5-1.5,1.5h-13.1c-0.8,0-1.5-0.7-1.5-1.5v-0.1
				C263.8,210.8,264.5,210.2,265.3,210.2z"/>
			<path class="st5" d="M267.7,203.6c0,0-1.4,4.1-1.3,4.9c0.1,0.9,0.5,1.8,1,2.6l7-0.1c1.8,0,3.2-1.5,3.2-3.3c0-0.2,0-0.4,0-0.5l0,0
				l-0.1-0.6l-0.5-3.6c-2.2,1.4-6.1,2-9.6,1.1L267.7,203.6z"/>
			<path class="st5" d="M261.9,203.9l2.6-2.3l2-2.4l1.1,2.7c-1.2,1.9-3.1,3.2-5.3,3.8l-0.3-0.9L261.9,203.9z"/>
			<path class="st5" d="M257.7,226l-3.1-0.3c0-0.4,2.2-9,3.5-12.6c0.3-1,1.1-1.8,2-2.3l7.5-3.8l4.9,4.2l-10.4,4.3L257.7,226z"/>
			<path class="st5" d="M257.7,226l-1.3-0.1c0.3-2.5,2.2-4.7,3.1-6c1.1-1.6,0.4-4.2,0.9-5.5c0.2-0.5,0.6-1,1-1.3
				c1-1.1,2.3-1.8,3.7-2.2c1.5-0.5,3-1.2,4.3-2.2l3.2,2.7l-10.4,4.3L257.7,226z"/>
			<path class="st5" d="M266.8,229.2c0-0.1,0-0.2,0-0.2v-1.6l-2.6-0.1c-0.8,0.6-1.7,1.1-2.6,1.6c-0.2,0.1-0.3,0.2-0.4,0.4H266.8z"/>
			<path class="st5" d="M269.6,185.8c-0.7,0.3-1,1.1-0.8,1.8c0.1,0.2,0.2,0.4,0.4,0.5C270.5,189.7,269.6,185.8,269.6,185.8z"/>
			<path class="st5" d="M275.2,193.1c-0.1-0.6-0.4-1.1-1-1.4c-0.6-0.3-1.4-0.4-2.1-0.2c-0.8,0.2-1.7,0.4-2.5,0.7l-0.7,2.3l2.3,1.1
				l4.5-3.4L275.2,193.1z"/>
			<path class="st5" d="M269.3,187.2c0-0.6,0.3-1.1,0.7-1.4c0.4-0.4,1-0.5,1.5-0.5l0,0c1.1,0.1,1.9,1,1.8,2.1c0,0.6,0,1.3-0.1,1.9
				c0,0.4-0.2,0.7-0.5,1c-0.3,0.3-0.7,0.4-1.1,0.4l-1.1-0.1c-0.8-0.1-1.4-0.8-1.3-1.5C269.2,188.4,269.2,187.7,269.3,187.2
				L269.3,187.2z"/>
			<polygon class="st5" points="274.3,192.9 272.9,189.1 270.2,190.3 271,193.9 274.3,192.9 			"/>
			<path class="st5" d="M272.2,186.9c0,0-0.3,1.8,1.2,1.9c0.4-0.8,0.6-1.6,0.8-2.5c0.1-1.6-3-1.9-4.3-1.2S269.4,187,272.2,186.9
				L272.2,186.9z"/>
			<path class="st5" d="M270.4,192.2c0.8,1.3,2.8,0.1,3.2-0.3c0-0.1,0.9,0.5,1,0.5c1.8,1.3,2,6.7,2.3,8.7c0.1,0.9,1,4,0.5,4.8
				c-0.1,0.3-1.5,0.1-1.8,0.1c-1.1,0.2-6.3,0.6-7-0.2s-0.2-2.3-0.3-3.3c-0.4-3.2-0.2-6.4,0.6-9.5L270.4,192.2z"/>
			<path class="st5" d="M269,199.9c0.9,2.8,7.5-0.2,6.8-1.5c-1.1-1.9,0.5,1.3,0.7,3.2c0.1,0.9,0.9,4,0.5,4.8
				c-0.1,0.3-0.7,2.4-0.9,2.4c-3.3,0.1-8.3,0.4-8.5-0.7c-0.3-1.5,1.1-4.1,1.2-5.1C269,201.9,269.1,200.9,269,199.9z"/>
			<path class="st5" d="M273.3,188c-0.3,0-0.6,0.2-0.6,0.5c0,0,0,0,0,0c0,0.3,0.2,0.5,0.5,0.5c0.3,0,0.5-0.2,0.5-0.5
				C273.7,188.3,273.6,188.1,273.3,188z"/>
			<path class="st5" d="M269.2,188.9c-0.1-0.2-0.5,2.5,1.1,2.6s2.3-0.5,2.4-3.6c0,0-0.6,1.9-1.6,1.9
				C269.2,189.9,269.3,189.1,269.2,188.9z"/>
			<path class="st21" d="M270,190.4c0.3,0.1,0.5,0.1,0.8,0.1"/>
			<path class="st5" d="M263.6,226.6l3.5-0.1l1.2-11.6l7.5-4.2l-0.8-1.2l-5.4-0.4l-4,1.9c-1.2,0.6-2,1.8-2,3.1L263.6,226.6z"/>
			<path class="st5" d="M269.8,192.2c-0.5,2.6-0.9,5.3-1,7.9c-0.2,3-0.7,6.1-1.4,9.1c-0.5-0.9-2.2-0.6-2.3-1.4c0,0,1.5-9.8,1.8-12.4
				S268.1,192.9,269.8,192.2z"/>
			<path class="st5" d="M266.8,204.6c0,0-0.9-0.6-1.5-0.3c-0.3,0.1-0.7,0.1-1.1,0.4c-0.4,0.3-0.7,0.6-0.9,0.9c0,0.3,0.2,0.7,0.6,0.7
				c0.2,0,0.8-0.5,0.8-0.5c0.6,0.2,1.3,0.2,1.9,0L266.8,204.6z"/>
			<path class="st5" d="M262.7,204.5c0,0-0.9-0.7-1.4-0.4c-0.3,0.1-0.7,0.1-1.1,0.3c-0.4,0.2-0.7,0.5-1,0.9c0,0.3,0.2,0.7,0.5,0.8
				c0.2,0.1,0.8-0.4,0.8-0.4c0.6,0.2,1.3,0.3,1.9,0.2L262.7,204.5z"/>
			<polygon class="st5" points="266.8,204.6 269.6,204.4 269.8,205.9 266.2,205.7 			"/>
			<rect x="258.7" y="205.4" width="9.2" height="0.6"/>
			<path class="st5" d="M279.4,202.3c0-1.6-0.2-3.1-0.4-4.7c-0.1-1.5-0.6-3-1.4-4.2c-0.5-0.6-1.2-1-1.9-1.2l-1.4-0.4
				c-0.9,3.7-1.3,7.5-1,11.2l-4.5,0.9v2.1h6.9l1.4-0.4l1.3-0.7C279,204.1,279.4,203.2,279.4,202.3z"/>
			<path class="st5" d="M261.5,206h-10.6l-3.2-7.1H258c0.1,0,0.3,0.1,0.4,0.2L261.5,206z"/>
			<path class="st5" d="M260.6,206H250l-3.1-6.8c-0.1-0.1,0-0.3,0.1-0.3c0,0,0.1,0,0.1,0h10.1c0.1,0,0.2,0.1,0.2,0.1L260.6,206z"/>
			<path class="st5" d="M273.1,201.4c0,0-0.1,3.8-1,5.5c-0.7,1-1.5,1.9-2.4,2.8c0,0,7.8,0.8,8-2.4c0.2-2.3,0.5-4.5,1-6.8
				L273.1,201.4z"/>
			<path class="st5" d="M254.1,202.5c0.1,0.4-0.2,0.8-0.8,0.8c-0.5,0-1-0.3-1.2-0.8c-0.1-0.4,0.2-0.8,0.8-0.8
				C253.4,201.7,253.9,202,254.1,202.5z"/>
			<path class="st5" d="M279.4,202.3c0-1.6-0.2-3.1-0.4-4.7c-0.1-1.5-0.6-3-1.4-4.2c-0.5-0.6-1.2-1-1.9-1.2l-1.4-0.4
				c5.1,2.6,3.5,8.3,3.8,12.1c-0.8,0.4-1.2,0.3-3.1,0.7c-1.2,0.4-2.4,0.8-3.6,1c-0.8-0.3-1.8-0.3-2.6-0.1v0.6h6.9l1.4-0.4l1.3-0.7
				C279,204.1,279.4,203.2,279.4,202.3z"/>
			<path class="st5" d="M280.6,207.1h-38.2c-0.3,0-0.6-0.2-0.6-0.6l0,0l0,0c0-0.3,0.2-0.6,0.6-0.6l0,0h38.2c0.3,0,0.5,0.2,0.5,0.6
				l0,0C281.1,206.9,280.9,207.1,280.6,207.1z"/>
			<path d="M218,199.8c0.8-1.3,1.4-2.7,1.9-4.2c0,0.3-1.1,0.8,1.4,0.4c0,0,3.5,5.8,2.3,14.8c-0.2,1.9-0.1,6.8-0.2,8.6
				s-0.5,7.2-0.5,7.2c0,0.4,0,0.9,0.2,1.3c0.1,0.2,0.3,0.3,0.5,0.4c0.4,0.3,0.9,0.5,0.3,0.8s-2.6,0.1-2.6-0.2s0-0.6,0-0.8
				c0-0.4-0.1-0.9-0.1-1.3c-0.7-3.1-1.1-6.2-1.2-9.3c-0.1-4.5-0.9-4.1-1-6.1C218.6,203.8,217.1,201.4,218,199.8z"/>
			<path d="M223.7,228.3c-0.8,0.1-1.5,0-2.3-0.2l-0.2,1.2h4.1c0.5-0.3,0-0.4,0-0.4L223.7,228.3z"/>
			<path d="M215.5,228.4c0-0.2,0-0.4,0-0.5c0-0.5,0-0.9-0.1-1.4c-0.6-3.1-0.9-6.3-0.9-9.5c0.1-2,0-4-0.3-5.9
				c-0.2-4.5-0.2-9.2,0.6-11.8c0.5-1.5,0.8-3.1,0.9-4.8c0,0,0.8,1.6,4.4,1.5c0,0-1.2,13-1.3,14.9s-0.9,6.7-1.1,8.5s-0.9,7-0.6,8.5
				c0,0.1,0.3,0.3,0.5,0.5c0.2,0.1,0.3,0.2,0.5,0.3"/>
			<path d="M216.3,228.5c0.1-2.3,0.4-9.4,0.6-11.9c0.2-3,0.2-5.4,0.2-5.4h-2.9l0,0c0.2,2,0.3,4,0.3,5.9c0,3.2,0.3,6.4,0.9,9.5
				c0.1,0.4,0.1,0.9,0.1,1.4c0,0.2,0,0.3,0,0.5L216.3,228.5z"/>
			<path d="M219.6,229.4c0.5-0.2,0-0.4,0-0.4c-0.7-0.1-1.3-0.2-1.9-0.5c-0.8,0-1.5-0.2-2.2-0.6c0,0.2,0,1.1,0,1.4L219.6,229.4z"/>
			<path d="M214,211.9h10.4c0.1-2.6,0.6-7.2-2.4-15.9h-6.7C212.6,199.9,214,211.9,214,211.9z"/>
			<path d="M217.5,202.5c0.1-3.8,1.9-5,2.1-6.5l-0.1-0.1h-4.3c-2.7,4-1.3,15.9-1.3,15.9h3.1C217.2,210.2,217.4,205.6,217.5,202.5z"
				/>
			<polygon points="219.6,183.6 221.6,184.5 223.4,180.7 221.4,179.7 			"/>
			<path d="M224.2,188.2l3.7,1.5c0.4,0.2,0.9,0.1,1.3-0.2l0,0c0.5-0.4,0.5-1.2,0.1-1.6c-0.1-0.1-0.1-0.1-0.2-0.2l-6.3-3.3
				L224.2,188.2z"/>
			<path d="M228.4,181.8l-0.9,0.5c0,0-0.2,5.4-0.2,6.3s1,1,1,1c0.6,0,1.1-0.5,1.1-1.1c0,0,0-0.1,0-0.1L228.4,181.8z"/>
			<path d="M222.3,182.9c0,0,2.1,4.8,2,5.9l-1.4,3l-0.9,2.4c0.2,0.9,0.7,1.8-0.1,1.8h-6.6c0.4-8,1.8-12.8,5-14
				C220.7,182,221.4,182.4,222.3,182.9z"/>
			<polygon points="220.1,185.8 215.4,194.2 215.8,189.1 			"/>
			<path d="M222.6,183.7l-0.7,4.3c-1.9,2.6-2.3,8.1-2.3,8.1l0,0l2.3,0.1c0.8-0.1,0.3-1,0.1-1.8l0.9-2.4l1.4-3
				C224.4,188,223.2,185.1,222.6,183.7z"/>
			<path d="M215.7,197l0.4,1.2c0.1,0.2,0.1,0.5,0,0.8l-0.6,1.7l-0.6-0.5l-0.5-1.5c-0.1-0.4-0.1-0.7,0.1-1.1l0.3-0.6L215.7,197z"/>
			<path d="M214.6,192.3c0.4,1.9,0.6,2.9,1.1,4.8l-0.8,0.6c-1.5-3.6-2.6-4.8-2.4-6.4C214.7,189.5,212.3,190.8,214.6,192.3z"/>
			<path d="M228.4,181.8l-1-0.8c-0.2-0.2-0.5-0.2-0.7-0.2h-1c-0.3,0-0.5,0.3-0.5,0.5c0,0.1,0,0.1,0,0.2l0,0l1.3,0.9
				c0.3,0.2,0.7,0.3,1.1,0.2l0.7-0.1L228.4,181.8z"/>
			<path d="M221,177.8c0.4-1.6,0.5-1.9,2-2.1s0.5,0.4,2,0.8c0.9,0.2,0.9,1.1,0.7,2.1c0,0.4,0.1,0.8,0.4,1.1c0.1,0.3-0.3,0.4-0.5,0.5
				s-0.2,1.2-0.6,1.3c-0.6,0.1-1.3,0.1-1.9,0c-1.6-0.9-1-4.2-1-4.2C222,176.7,220.9,178.2,221,177.8z"/>
			<circle class="st22" cx="219.1" cy="176.9" r="1.6"/>
			<circle class="st22" cx="219.9" cy="176.8" r="1.3"/>
			<circle class="st22" cx="219.8" cy="176.1" r="1.3"/>
			<circle class="st22" cx="219.1" cy="178" r="1.3"/>
			<circle cx="219.6" cy="177.1" r="1.6"/>
			<path d="M223,175c0,0-3.2-0.2-2.5,3.7c0.1,0.5,0.2,0.9,0.5,1.3c0.2,0.3,0.5,0.5,0.9,0.4c0.2,0,0.4-0.1,0.6-0.2
				c1-1.4,0.8-1,1.6-3.4l1.2-0.4l0.2-0.3L223,175z"/>
			<path d="M222.9,179.5c0,0-0.6-2.4,0.2-3l2.4-0.4C225.2,177.6,224.3,178.9,222.9,179.5z"/>
			<polygon points="223,183.1 220.2,181.4 219.5,182.2 223.3,184.4 			"/>
			<path d="M212.3,191.3c0.4,0.9,1.4,1.4,2.3,1.2l4.6-5.6c0.5-0.4,0.9-1,1-1.6c0-0.8-0.7-1.5-2.1-0.7
				C216.9,185.4,213.7,189.2,212.3,191.3z"/>
			<path d="M223.3,179.1c0.1,0.5-0.1,1-0.5,1s-0.7-0.4-0.8-0.9s0.1-1,0.5-1S223.2,178.5,223.3,179.1z"/>
			<rect x="239.7" y="179.8" class="st23" width="22.1" height="15.2"/>
			<rect x="242" y="177.8" class="st24" width="22.1" height="15.2"/>
			<path class="st19" d="M244.5,189.4c4.4,0,11.3-3.1,15.4-8"/>
			<path class="st19" d="M257.2,182.3l3-1c-0.3,0.9-0.6,1.8-0.9,2.7"/>
			<line class="st25" x1="261.8" y1="190.7" x2="261.8" y2="179.8"/>
			<polyline class="st19" points="244.3,178.6 244.3,190.7 262.6,190.7 			"/>
			<path class="st26" d="M242,186.1h6.1c3.5,0,6.3-2.8,6.3-6.2c0-0.7-0.1-1.4-0.3-2.1H242V186.1z"/>
			<path class="st24" d="M247.6,184.3c3.5,0.1,6.4-2.6,6.6-6.1c0.1-3.5-2.6-6.4-6.1-6.6c-0.2,0-0.3,0-0.5,0h-8.9
				c-3.5-0.1-6.4,2.6-6.6,6.1c-0.1,3.5,2.6,6.4,6.1,6.6c0.2,0,0.3,0,0.5,0H247.6z"/>
			<line class="st27" x1="247.7" y1="180.4" x2="236.5" y2="180.4"/>
			<line class="st27" x1="250.9" y1="178" x2="236.5" y2="178"/>
			<line class="st27" x1="248.9" y1="175.6" x2="236.5" y2="175.6"/>
			<path class="st24" d="M234,180.5c0,0-1.3,3.2-4,4c0,0,4.7,1,7.1-2.7"/>
			
				<linearGradient id="SVGID_00000032646478185649872670000002052041783676734648_" gradientUnits="userSpaceOnUse" x1="405.61" y1="141.12" x2="311.39" y2="46.9" gradientTransform="matrix(1 0 0 -1 0 252)">
				<stop  offset="0" style="stop-color:#FFFFFF"/>
				<stop  offset="1" style="stop-color:#FFFFFF;stop-opacity:0"/>
			</linearGradient>
			
				<rect x="351.5" y="119.1" style="fill:url(#SVGID_00000032646478185649872670000002052041783676734648_);" width="52.8" height="39"/>
			<g>
				<path class="st29" d="M365,131.1v3.3"/>
				<path class="st29" d="M365,134.7l3.8-0.4"/>
				<path class="st29" d="M365,131.4l3.8-0.2"/>
				<path class="st29" d="M369.3,131.2l-0.1,2.6"/>
				<path class="st29" d="M367.2,134.4c0.2,0.9,0.2,1.8,0.1,2.7"/>
				<path class="st29" d="M374.1,145.3l-1.6,0.1c-0.1,0-0.2,0-0.2,0.1c-0.1,0.1-0.1,0.2-0.1,0.3v1.1c0,0.2,0,0.5,0.2,0.7
					c0.2,0.3,0.7,0.3,1.1,0.2l0.9-0.2c0.1,0,0.2-0.1,0.2-0.1c0.1-0.1,0.1-0.2,0.1-0.3l-0.1-1.7"/>
				<path class="st29" d="M374.8,146.5h2.6"/>
				<path class="st29" d="M377.9,145.4l-0.1,1.8"/>
				<path class="st29" d="M377.9,147.7h1.9"/>
				<path class="st29" d="M377.7,145.1h2.1c0.1,0,0.2,0,0.4,0.1c0.1,0.1,0.1,0.3,0.1,0.4l-0.2,1.9"/>
				<path class="st29" d="M380.2,146.4c0.7,0.2,1.3,0.2,2,0.1"/>
				<path class="st29" d="M382.6,144.8v2.4"/>
				<path class="st29" d="M382.4,147.8l2.5-0.1"/>
				<path class="st29" d="M385.1,147.5c-0.1-0.7-0.2-1.5-0.1-2.3"/>
				<path class="st29" d="M384.8,145l-2.2,0.1"/>
				<path class="st29" d="M388.1,148.1h5.1"/>
				<path class="st29" d="M388.1,146.2c1.9-0.1,3.8,0,5.7,0.1"/>
				<path class="st29" d="M359.1,132.1h3.4"/>
				<path class="st29" d="M359.7,133.7l2.8-0.1"/>
			</g>
			<g>
				<path class="st30" d="M356.4,126.5c13.5,0.3,27,0.4,40.5,0.4"/>
				<path class="st30" d="M361.4,138c3,0.1,11.7,0,14.7-0.3"/>
				<path class="st30" d="M376.6,135.3l-0.1,3.6"/>
				<path class="st30" d="M376.4,139.4h3.8"/>
				<path class="st30" d="M376.6,135.1c1.3,0.2,2.5,0.2,3.8,0"/>
				<path class="st30" d="M380.7,135.1v3.8"/>
				<path class="st30" d="M373.2,138.2c0,2-0.1,4.3-0.1,6.3"/>
				<path class="st30" d="M361.6,137.9c0,1.2,0,2.4-0.1,3.6"/>
				<path class="st30" d="M358.9,142h4"/>
				<path class="st30" d="M363.1,141.8c0.2,0.8,0.2,1.7,0.1,2.6"/>
				<path class="st30" d="M358.8,141.9c0,0.7,0,2.6,0.1,3.3"/>
				<path class="st30" d="M358.9,145.4c1.1,0.3,2.2,0.3,3.2,0.1"/>
				<path class="st30" d="M388.4,141.7c0.7-0.4,1.3-0.9,1.8-1.6c0.2-0.2,0.3-0.5,0.3-0.9c0-0.3-0.3-0.6-0.6-0.6
					c-0.2,0.1-0.4,0.3-0.4,0.5c-0.2,0.5-0.3,1.1-0.3,1.6c0.1,0.6,0.5,1.1,1,1.2c0.3,0.1,0.5,0.1,0.8,0c1.4-0.4,2.5-1.7,2.6-3.2
					c0-0.2,0-0.4-0.2-0.6c-0.3-0.2-0.6,0.3-0.8,0.7c-0.2,0.8-0.3,1.8,0.3,2.2s1.3,0.1,1.9-0.1"/>
				<path class="st30" d="M367.3,150.6h5.1"/>
				<path class="st30" d="M367.3,152.2h4.5"/>
				<path class="st30" d="M367.3,154.1c1.5-0.1,2.9-0.2,4.4-0.1"/>
				<path class="st30" d="M364.9,123.8c1.8-1,3.9-1.6,6-1.5c0.4,0,0.9,0.1,1,0.5c0,0.2,0,0.4-0.1,0.6c-0.4,0.9-1.8,1.8-2.4,1.2
					s3.7-2.9,5.5-2c0.9,0.4-0.5,3.2-1.5,2.5s2.1-2.1,3.2-2.4c0.7-0.2,1.7-0.2,2,0.5c0.5,1.1-2,2.1-2.2,1.3s6.8-1.4,10-0.7"/>
			</g>
			<path d="M318.7,156.2l1.4,0.7c-4,4.2-3.9,5-6,6.4l-1.3-3.1L318.7,156.2z"/>
			<path d="M318.8,156.1l1.7-0.7c0.3-0.1,0.7-0.2,1.1-0.1l1.5,0.5c0.4,0.1,0.6,0.6,0.5,1c0,0.1-0.1,0.2-0.1,0.2l0,0l-2.2,0.8
				c-0.5,0.2-1.1,0.2-1.6,0l-0.9-0.3L318.8,156.1z"/>
			<path class="st5" d="M312.8,155.1l1.6,5c0.2,0.1,0.9,3.1-0.5,3.4c0,0-1.5,0.3-2-1.8c-0.4-1.9-0.8-3.8-1-5.8L312.8,155.1z"/>
			<path class="st5" d="M310.3,150.5c1.4,1.9,2.4,4.1,3.1,6.3l-2.6,1.5L310.3,150.5z"/>
			<circle cx="306.8" cy="183" r="0.9"/>
			<circle cx="311.6" cy="183" r="0.9"/>
			<circle cx="301.9" cy="183" r="0.9"/>
			<path d="M306.7,180.6L306.7,180.6c-0.4,0-0.7-0.3-0.7-0.6c0,0,0,0,0,0v-12.2c0-0.4,0.3-0.7,0.7-0.7l0,0c0.4,0,0.7,0.3,0.7,0.7
				V180C307.3,180.4,307,180.6,306.7,180.6z"/>
			<path class="st5" d="M306.8,174.5L306.8,174.5c-0.9,0-1.6-0.7-1.6-1.6v-2.2c0-0.9,0.7-1.6,1.6-1.6l0,0c0.9,0,1.6,0.7,1.6,1.6v2.2
				C308.4,173.8,307.7,174.5,306.8,174.5z"/>
			<path d="M312.4,181.4h-11.1c-0.3,0-0.5-0.2-0.5-0.5l0,0l0,0c0-0.3,0.2-0.5,0.5-0.5l0,0h11.1c0.3,0,0.5,0.2,0.5,0.5l0,0l0,0
				C312.9,181.1,312.6,181.4,312.4,181.4L312.4,181.4z"/>
			<path d="M301.7,172.1h11c1,0,1.9-0.8,1.9-1.9l0,0c0-1-0.8-1.9-1.8-1.9c0,0,0,0,0,0h-11c-1,0-1.9,0.8-1.9,1.8v0l0,0
				C299.8,171.3,300.6,172.1,301.7,172.1C301.7,172.1,301.7,172.1,301.7,172.1z"/>
			<path d="M300.2,152.5h6c1.2,0,2.2,1,2.2,2.2v9.1c0,1.2-1,2.2-2.2,2.2h-6c-1.2,0-2.2-1-2.2-2.2v-9.1
				C298,153.5,298.9,152.5,300.2,152.5z"/>
			<polygon class="st5" points="319.6,182.8 321.9,182.9 321.5,176.1 319.3,176.1 			"/>
			<polygon class="st5" points="321.8,182.4 319.5,182.1 319.3,183.9 324.8,183.9 324.8,183.3 			"/>
			<path class="st5" d="M310.7,164.9l9.1,1c1.3,0.1,2.3,1.1,2.4,2.4l0.2,12.9l-3.5-0.1l-1.2-11.5l-9.2-1.2L310.7,164.9z"/>
			<path d="M310.8,161.7c-2.8,0.9-5.9,0.5-8.4-1.1c0,0-0.3,2.7-0.4,3.6c0,0.2,0,0.4-0.1,0.6l0,0c-0.4,1.7,0.7,3.4,2.4,3.7
				c0.1,0,0.3,0,0.4,0.1l6.2,0.1c0.5-0.8,0.8-1.7,0.9-2.6C311.6,164.6,311.3,163.1,310.8,161.7z"/>
			<path class="st5" d="M309.8,143.6c0,0,2.2,1,0.9,2.6s-1.2-2.6-1.2-2.6H309.8z"/>
			<polygon class="st5" points="305.1,150.4 307.2,146.9 309.2,147.9 308.5,151.5 305.1,150.4 			"/>
			<path class="st5" d="M310.7,145.4c0-0.5-0.3-1-0.7-1.4c-0.4-0.4-1-0.5-1.5-0.5l0,0c-1.1,0.1-1.9,1-1.8,2.1c0,0.6,0,1.3,0.1,1.9
				c0,0.5,0.2,1,0.6,1.4c0.7,0.4,1.4,0.6,2.1,0.7c0.8-0.1,1.4-1.6,1.3-2.4C310.8,146.7,310.7,146,310.7,145.4L310.7,145.4z"/>
			<path class="st5" d="M310.1,142.8c-1.3-0.7-4.5-0.2-4.2,2.1c0.2,0.9,0.4,1.8,0.7,2.6c0.5-0.9,0.9-1.8,1.2-2.8h2.3
				c0.6,0.1,1.1-0.3,1.2-0.9c0,0-0.1,0.1-0.7,0l0.4-0.4L310.1,142.8z"/>
			<path class="st5" d="M308.8,149.8c-0.9,1.3-3,0.1-3.3-0.3c0-0.1-1,0.5-1.1,0.5c-1.8,1.3-2.1,6.7-2.4,8.7c-0.1,0.9-1,4-0.5,4.8
				c0.1,0.3,1.6,0.1,1.9,0.1c1.2,0.2,6.6,0.6,7.3-0.2s0.3-4.8,0.5-5.7c0.8-5.1-0.8-7-0.8-7L308.8,149.8z"/>
			<path class="st5" d="M306.7,145.7c0.3,0,0.6,0.2,0.6,0.5c0.1,0.3,0,1-0.2,1.1s-0.6-0.5-0.7-0.9
				C306.3,146.2,306.4,145.9,306.7,145.7L306.7,145.7z"/>
			<polygon class="st5" points="310.1,182.8 312.3,182.9 314.9,176.1 312.7,176.1 			"/>
			<polygon class="st5" points="312.2,182.4 309.9,182.1 309.7,183.9 315.3,183.9 315.3,183.3 			"/>
			<path class="st5" d="M312.7,171.5l-8.8-3.1l0.5-1.6l5.6-1.4l5.2,2.6c1.1,0.5,2.1,2.3,1.5,3.5l-3.3,9.6l-3.5-0.1L312.7,171.5z"/>
			<path class="st5" d="M308,164.9l2.4,1.2c0,0,1.5,1.6,0.5,2.1s-1.4-0.3-1.6-0.5c-0.9-0.3-1.6-1-2-1.9L308,164.9z"/>
			<path class="st5" d="M308.2,166.6l0.2-1.6l-6.1-3l0.1-6l-3.3,1.4v4.6c0,1.1,0.6,2.2,1.5,2.7L308.2,166.6z"/>
			<path class="st5" d="M304.4,150c-3.5,1.3-5.9,4.7-5.8,8.4h5L304.4,150z"/>
			<path class="st5" d="M323.8,161.1h10.6l3.2-7.1h-10.4c-0.1,0-0.3,0.1-0.3,0.2L323.8,161.1z"/>
			<path class="st5" d="M324.2,161.1h10.6l3-6.8c0.1-0.1,0-0.3-0.1-0.3c0,0-0.1,0-0.1,0h-10.1c-0.1,0-0.2,0.1-0.2,0.1L324.2,161.1z"
				/>
			<path class="st5" d="M330.7,157.6c-0.1,0.4,0.2,0.8,0.8,0.8c0.5,0,1-0.3,1.2-0.8c0.1-0.4-0.2-0.8-0.8-0.8
				C331.4,156.8,330.9,157.1,330.7,157.6z"/>
			<path class="st5" d="M334.4,161.1h-16.5c-0.3,0-0.6,0.3-0.5,0.6l0,0c0,0.3,0.2,0.6,0.5,0.6h16.5L334.4,161.1z"/>
			<path class="st5" d="M306.2,163.1h31.7c0.3,0,0.6-0.3,0.5-0.6l0,0c0-0.3-0.2-0.6-0.5-0.6h-31.7c-0.3,0-0.5,0.2-0.5,0.6l0,0
				C305.7,162.8,305.9,163.1,306.2,163.1z"/>
			<path d="M399.4,134.8c0,0-0.7,0-1.6,0.1c-0.9-0.1-1.8-0.4-2.6-0.9c0-0.1,0-0.3,0-0.4l0,0c0-0.1,0.1-0.2,0.2-0.3
				c0.6,0.1,1.2,0.1,1.7,0c0,0-0.8-0.3-0.8-0.6l0.1-0.2c0,0,0.9,0.2,1.2,0.3c0.6,0.1,1.1,0.3,1.6,0.5
				C399.2,133.3,400,134.5,399.4,134.8z"/>
			<path d="M399.9,142.5c0.5,2.2,3.5,1.4,2.6-1.1c-1.1-3.2-3.1-7.8-3.1-7.8l-1,1.1C398.2,134.3,398.7,136.9,399.9,142.5z"/>
			<path d="M407.6,137.7c0,0-6.7,2.3-7.2,4.9c-0.6,3,6.1,1.4,7.3-1.1C408.7,139.3,409.1,137.6,407.6,137.7z"/>
			<path d="M416.6,137.6c0,0,5.3,3.9,7.8,9.1c0.1,0.3,0.1,0.7-0.1,0.9c-0.6,0.7-1.7,1.1-6.6,2.7c-0.3,0.1-0.2,1.1-0.3,2
				c0,0.2-0.2,0.4-0.4,0.4s-0.4-0.2-0.4-0.4l-0.3-2.2c1.7-1.4,3.6-2.6,5.6-3.5c0,0-3.4-2.8-6.3-4.9
				C414.1,140.8,415,136.9,416.6,137.6z"/>
			<path d="M416.3,182.8c0-0.2,0-0.4,0-0.5c0-0.5,0-1,0-1.4c0.5-3.3,0.7-6.7,0.6-10c-0.1-2.1-0.1-4.2,0.1-6.3
				c0-4.8,0.2-9.8-0.7-12.6c-0.6-1.6-0.8-3.4-0.8-5.1c0,0-1.2,1.9-4.7,1.8c0,0-0.2,5.3,1.1,5.9c0,0,0.4,7.8,0.6,9.9s1,7.1,1.3,9
				s1.1,7.4,0.8,8.9c0,0.1-0.2,0.3-0.5,0.6s-0.3,0.2-0.5,0.3"/>
			<path d="M412.3,183.9c-0.5-0.2,0-0.5,0-0.5c0.6-0.1,1.3-0.2,1.8-0.5c0.8,0,1.5-0.2,2.2-0.6c0,0.3,0,1.2,0,1.5L412.3,183.9z"/>
			<path d="M410.9,147.9v0.2C411,148,411,148,410.9,147.9z"/>
			<path d="M412.4,152.6c-0.6-1.4-1.1-2.9-1.5-4.4c0,0.3-0.4,0.8-2.9,0.4c0,0-2.6,6.1-2.4,15.7c0,2-0.6,7.1-0.7,9.1
				s-0.3,7.6-0.3,7.6c0,0.5-0.1,0.9-0.3,1.4c-0.2,0.2-0.4,0.4-0.6,0.5c-0.5,0.3-0.9,0.5-0.4,0.8s2.5,0.1,2.5-0.2s0.1-0.6,0.1-0.9
				c0.1-0.5,0.2-0.9,0.3-1.4c1-3.2,1.7-6.5,2.1-9.8c0.6-4.8,1.2-4.3,1.6-6.5C411.4,156.9,413.1,154.3,412.4,152.6z"/>
			<path d="M403.9,182.8c0.8,0.1,1.5,0,2.2-0.3l0.1,1.3h-4c-0.5-0.3,0-0.5,0-0.5L403.9,182.8z"/>
			<path d="M415.5,147.9c-4.2,2.1-7.4,0.7-7.4,0.7c-0.1-2-0.3-4.1-0.6-6.1c-0.1-0.4-0.2-0.8-0.1-1.2c0-1.2,0.1-2.5,0.3-3.7
				c0.4-0.2,0.8-0.3,1.3-0.4h0.2c0.7-0.1,1.4-0.1,1.4-0.1l0.1-0.8l0-0.5l0.1-0.9c0.1-1.1,2.4-0.6,2.4-0.6v2.8
				c0.4,0.1,0.8,0.1,1.1,0.1h0.2c0.6,0,1.2,0.1,1.8,0.3C416.7,137.9,415.2,146.7,415.5,147.9z"/>
			<path d="M413.1,134.6v0.8c-0.7,0.6-1.6,0.9-2.5,0.9l0-0.5l0.1-0.9C411.1,134.4,412.6,134.5,413.1,134.6z"/>
			<path d="M409.7,130.7c-0.3,0.5-0.4,1.2-0.4,1.8c-0.1,2.3,1,3.2,1.8,3.2c1.4,0.1,2.6-1.1,2.7-2.5c0,0,0,0,0,0
				c0.2-0.8,0.1-1.7-0.1-2.5C413.2,129.5,410.8,129.2,409.7,130.7z"/>
			<path d="M408.1,148.6c0,0-2.9,3.4-2.7,18.1c0,0-0.5,4.1-0.6,6.8c0,0,6.6,1.5,12.5-0.2c0,0-0.2-3.6-0.1-6.3s0.6-12.8-1.7-18.4
				C413.1,149.1,410.6,149.1,408.1,148.6z"/>
			<path d="M416.6,137.6c0,1.4,0,2.8-0.2,4.1c-0.3,2-0.5,2.4-0.3,3.7c0.1,1.1-0.1,2.1-0.5,3.1c-2.4,0.9-5.1,0.9-7.5,0
				c-0.3-0.9-0.4-1.9-0.4-2.9c0.1-0.8,0-1.7-0.3-2.5c-0.5-0.9-0.6-2-0.3-3.1c0.3-0.8,0.4-1.6,0.3-2.4
				C407.3,137.8,412.2,136.1,416.6,137.6z"/>
			<path d="M416.3,137.4c2,1.1,3.8,2.5,5.3,4.3c2.3,2.9,2.3,3.6,3.1,4s-1.2,1.7-2.9,1s-5.8-4.4-5.8-4.4S414.4,137.4,416.3,137.4z"/>
			<path d="M407.8,138.4L407.8,138.4c-0.2,0.4-0.4,0.7-0.4,1.1c-0.2,0.5-0.4,1-0.6,1.5c0,0.1,0.1,0.1,0.1,0c0.2-0.5,0.4-0.9,0.6-1.4
				C407.7,139.2,407.8,138.8,407.8,138.4z"/>
			<path d="M415.9,139.4c0-0.4,0-0.8-0.1-1.2l0,0c-0.2,0.9-0.2,1.8,0.1,2.6c0,0.1,0.1,0.1,0.1,0C416,140.3,416,139.8,415.9,139.4z"
				/>
			<path d="M414.1,134.7c0.8-0.9,1.1-2,0.8-3.1c-0.4-1-1.3-1.7-2.3-1.9c-1.1-0.2-2.1,0.2-2.9,0.9c-0.3,0.4-0.4,0.8-0.3,1.2
				c0,1,1.5,1.1,2.1,2.5c0.3,0.8,1,1.2,1.8,1.2L414.1,134.7z"/>
			<path d="M414.4,132.8c0.3,0.5-0.2,0.6-0.2,1.2s0.5,0.5,0.4,0.9s-0.4,1.1-0.3,1.5s0.6,0.4,0.6,0.7s-0.6,0.8-0.5,1.1s0,1.6,2,1.6
				c1.2,0,1.2-0.9,1.2-1.4c0-0.5-0.3-0.9-0.7-1.2c-0.2-0.2,0.1-0.6,0.2-1s-0.5-0.7-0.6-1s0.1-0.9,0.1-1.1s-0.6-0.7-0.5-1.2
				c0.1-0.7-0.4-1.3-1.1-1.3c-0.3,0-0.6,0-0.8,0.2C413.7,132.1,414.4,132.8,414.4,132.8z"/>
			<path d="M410.1,132.7c0,0,0.4-1,0.9-0.4s-0.2,1.9-1.1,1.8C409.9,134.1,409.8,133.1,410.1,132.7z"/>
			<polygon class="st5" points="343.7,182.8 346,182.8 345.7,177.1 343.5,177.8 			"/>
			<polygon class="st5" points="346,182.3 343.4,182.1 343.4,183.9 349.1,183.9 349.1,183.3 			"/>
			<polygon class="st5" points="351.5,182.8 353.8,182.8 353.5,177.1 351.3,177.8 			"/>
			<polygon class="st5" points="353.8,182.3 351.1,182.1 351.1,183.9 356.9,183.9 356.9,183.3 			"/>
			<path d="M353.4,136.6c0,0,1.6-0.3,3.5,8.8l-2.7-0.1C354.2,145.3,352.9,139.3,353.4,136.6z"/>
			<path d="M350.9,181.8c0,0-0.5-21.5-0.6-22.6c-0.2-1.8-0.5-2.2-0.7-2.1s-0.4,0.3-0.7,1.9c-0.3,1.7-2.5,22.9-2.5,22.9l-3.2,0.1
				c0,0,0.4-11.5,0.5-14.1c0.1-2.1,0.2-3.9,0.3-5.5c0.4-7.5,0.5-10.9,0.5-10.9l9.7,0.2c0,0,0.4,5.5,0.4,6.8c0,8.3-0.3,23.4-0.3,23.4
				L350.9,181.8z"/>
			<path d="M342.8,137.7c0,0,0,0.1,0.1,0.1c0.7,1.6,1.2,3.2,1.5,4.9c0.2,1.1,0.1,8.6,0.1,8.6c3.7,1,9.7,0.2,9.7,0.2s0-6.4-0.7-14.7
				l-2.4-0.4l-1.2-0.2l0.3-1.1l0.4-1.1c-1.1,0.2-2.2-0.1-3.1-0.8c0,0.2,0,0.5-0.1,0.7c0,0.2-0.7,2.3-0.7,2.3c-0.3,0-0.6,0-0.9,0.1
				c-1.1,0.1-2.1,0.5-3.1,1h0C342.7,137.6,342.7,137.7,342.8,137.7z"/>
			<path d="M340.6,156c0,0,0,0.5,0,1.2c-0.1,0.8,0,1.7,0.2,2.5c0.1,0.1,0.1,0.1,0.2,0.1h0c0.1,0.1,0.3,0.1,0.4,0.2h0
				c0.1,0,0.3,0,0.4,0l0,0c0.1,0,0.3-0.1,0.4-0.1c0-0.6,0-1.3,0.2-1.9c0,0,0.2,0.9,0.5,1l0.2-0.1c0,0-0.1-1-0.1-1.4
				c-0.1-0.7-0.4-1.3-0.9-1.8C342.1,155.7,341,155.4,340.6,156z"/>
			<path d="M344.5,141.3c-0.1,0.4-0.3,1-0.5,1.6c-0.6,2-1.4,4.8-1.5,5.6s-0.1,5-0.1,6.7v0.7c-0.4,0.6-1,0.8-1.7,0.6l-0.2-0.9
				c-0.5-2.3-0.8-4.7-0.8-7.1c0.4-2.6,1-5.2,1.7-7.7c0.2-1,0.6-2,1.1-3c0.2-0.3,0.6-0.6,1-0.6C345,137.2,345,139.7,344.5,141.3z"/>
			<path d="M350.5,130.9c0.1-0.1,0.4-0.1,0.5,0s0,0.1,0,0.1c-0.1,0-0.1,0-0.2,0C350.7,130.9,350.6,130.9,350.5,130.9
				C350.5,131,350.4,130.9,350.5,130.9z"/>
			<path d="M348.5,131c0.1-0.2,0.4-0.2,0.5-0.1c0,0,0,0.1,0,0.1c0,0,0,0,0,0c-0.1,0-0.2,0-0.3,0C348.8,131,348.7,131,348.5,131
				L348.5,131z"/>
			<path d="M341.9,160.1L341.9,160.1c0-0.7,0-1.3,0-2l0,0C341.8,158.7,341.8,159.4,341.9,160.1z"/>
			<path d="M341.5,160.1L341.5,160.1c0-0.7,0-1.3,0-2l0,0C341.4,158.7,341.3,159.4,341.5,160.1z"/>
			<path d="M341,159.9L341,159.9c0-0.6,0-1.2,0-1.9l0,0C340.9,158.6,340.9,159.3,341,159.9z"/>
			<path d="M350.2,135.2c-2.4,0.5-2.6-0.7-2.7-1.1c0-0.2,0.1-0.5,0.1-0.7c0.9,0.7,2,1,3.1,0.8L350.2,135.2z"/>
			<path d="M351.6,132.3c0,0,0.2-2.8-0.5-3.1c-1.6-0.9-5-0.4-4.6,2.1c0.3,1.8,0.6,1.3,0.6,1.3S351.5,132.5,351.6,132.3z"/>
			<path d="M351.3,130.3c0.3,0.5,0.4,1.1,0.3,1.6c0.1,2.1-0.6,2.8-1.7,2.9s-2.2-0.3-2.5-2.3c-0.1-1-0.2-1.9,0.1-2.3
				C348.7,129.5,350.2,129.5,351.3,130.3z"/>
			<path d="M350.4,129.4c-0.3,0.7-1,1.1-1.8,1.1h-0.3v1.8h-0.7v-0.4h-0.5c-0.4-1,0.2-2.2,1.2-2.5c0,0,0.1,0,0.1,0
				C350,128.9,350.4,129.4,350.4,129.4z"/>
			<path d="M347.6,132.3c0,0-0.3-0.9-0.9-0.4s0.2,1.8,1,1.7C347.8,133.6,347.9,132.6,347.6,132.3z"/>
			<path d="M347,132.2c0.1,0,0.2,0.1,0.3,0.2c0.1,0.1,0.2,0.2,0.2,0.3c0,0,0,0.1-0.1,0s-0.1-0.1-0.2-0.2c0,0.1-0.1,0.1-0.2,0.1
				c0,0-0.1,0-0.1-0.1c0-0.1,0.1-0.1,0.1-0.1C347.1,132.4,347,132.3,347,132.2L347,132.2z"/>
			<path d="M346.8,136.4c-1.4,0-2.7,0.3-4,1h0v0.4c0.7,1.6,1.2,3.2,1.5,4.9c0.2,1.1,0.1,8.6,0.1,8.6c3.7,1,9.7,0.2,9.7,0.2
				s0-6.4-0.7-14.7l-3.6-0.5l-1.1,1.6L346.8,136.4z"/>
			<path d="M350.2,136.2c0,0,0,5.3,0.5,9.3c0.1,0.6,0.1,1.5,0.2,2.6c0.2,2.8,0.4,6.7,0.4,6.7s2.7,0.2,3.7-0.4l-0.8-11.3
				c-0.3-2.1-0.5-4.2-0.5-6.3c0-0.4-2-0.4-3-0.5L350.2,136.2z"/>
			<path d="M350.2,136.2c0,0,0,5.3,0.5,9.3c0.1,0.6,0.1,1.5,0.2,2.6l1-9l-1-0.7l1-0.3c0,0-0.9-1.5-1.1-1.8L350.2,136.2z"/>
			<path d="M339.6,151.1c0.2,2.3,0.7,5,0.7,5c2,0.2,2.2-0.4,2.2-0.4s0.1-6.5,0.1-7.2s1.6-5.8,1.6-5.8c0.3,0.9-0.1,11.6-0.1,11.6
				c1.2,0.3,2.5,0.4,3.8,0.3c0-2.5-0.1-4.8-0.2-7c-0.2-3.8-0.7-7.6-1.3-11.4l-0.5,0.1c-0.6,0.1-1.8,0.4-2.6,0.7
				c-1,0.3-1.4,1.6-1.8,3.1c-0.3,1-1,3.9-1.5,6.3c-0.2,0.9-0.3,1.6-0.4,2.2C339.5,149.4,339.5,150.2,339.6,151.1z"/>
			<path d="M345.9,138.4l-1.1,0.6l2.9,8.6c-0.2-3.8-0.7-7.6-1.3-11.4l-0.5,0.1l-1,1.7L345.9,138.4z"/>
			<path d="M357.2,147.9c0,1-0.8,1.8-1.8,2c-0.9,0-1.7-0.4-2.2-1.2c0,0,1-0.4,1-1.1C354.3,147.7,357,147.2,357.2,147.9z"/>
			<path d="M353.3,148.7c-0.8,0-1.6-0.2-2.4-0.4c-0.6-0.3-0.7-0.5-0.7-0.5h4C354.2,147.9,354.4,148.4,353.3,148.7z"/>
			<path d="M349.9,147.9h8.1c0.2,0,0.4-0.1,0.4-0.3l1.8-5.2c0-0.1,0-0.2-0.1-0.3c0,0-0.1,0-0.1,0h-8.1c-0.2,0-0.4,0.1-0.4,0.3
				l-1.8,5.2C349.6,147.7,349.7,147.9,349.9,147.9z"/>
			<path d="M346,147.9h4.5c0.2,0,0.4-0.1,0.4-0.3c0-0.2-0.1-0.4-0.3-0.4c0,0-0.1,0-0.1,0H346c-0.2,0-0.4,0.1-0.4,0.3
				c0,0.2,0.1,0.4,0.3,0.4C345.9,147.9,346,147.9,346,147.9z"/>
			<path d="M339.6,151.1c0.8-0.5,1.4-1.4,1.3-2.3c0-0.9-0.4-1.7-1-2.3c-0.2,0.9-0.3,1.6-0.4,2.2
				C339.5,149.4,339.5,150.2,339.6,151.1z"/>
			<path d="M355.5,144.9c0.1-0.2,0-0.4-0.2-0.5c-0.1,0-0.1,0-0.2,0c-0.3,0-0.6,0.2-0.8,0.6c-0.1,0.2,0,0.4,0.2,0.5
				c0.1,0,0.1,0,0.2,0C355.1,145.5,355.4,145.2,355.5,144.9z"/>
			<line class="st31" x1="273.3" y1="117.4" x2="177.2" y2="117.4"/>
			<path class="st32" d="M273.2,116.1c0.7,0,1.2,0.6,1.2,1.2c0,0.7-0.6,1.2-1.2,1.2c-0.7,0-1.2-0.6-1.2-1.2c0,0,0,0,0,0
				C272,116.7,272.6,116.1,273.2,116.1z"/>
			<circle class="st32" cx="177.2" cy="117.4" r="1.2"/>
			<line class="st31" x1="431" y1="184.6" x2="295.5" y2="184.6"/>
			<path class="st32" d="M431,183.4c0.7,0,1.2,0.6,1.2,1.2c0,0.7-0.6,1.2-1.2,1.2c-0.7,0-1.2-0.6-1.2-1.2l0,0
				C429.8,183.9,430.3,183.4,431,183.4z"/>
			<path class="st32" d="M295.5,183.4c-0.7,0-1.2,0.6-1.2,1.2c0,0.7,0.6,1.2,1.2,1.2c0.7,0,1.2-0.6,1.2-1.2l0,0
				C296.8,183.9,296.2,183.4,295.5,183.4z"/>
			<line class="st31" x1="510" y1="224.6" x2="434.2" y2="224.6"/>
			<path class="st32" d="M509.9,223.3c0.7,0,1.2,0.6,1.2,1.2s-0.6,1.2-1.2,1.2c0,0,0,0,0,0c-0.7,0-1.2-0.6-1.2-1.2
				C508.7,223.9,509.2,223.3,509.9,223.3z"/>
			<path class="st32" d="M434.3,223.3c-0.7,0-1.2,0.6-1.2,1.2c0,0.7,0.6,1.2,1.2,1.2c0.7,0,1.2-0.6,1.2-1.2l0,0
				C435.5,223.9,435,223.3,434.3,223.3z"/>
			<line class="st31" x1="309.1" y1="229.6" x2="188.7" y2="229.6"/>
			<path class="st32" d="M309.1,228.3c0.7,0,1.2,0.5,1.2,1.2c0,0.7-0.5,1.2-1.2,1.2s-1.2-0.5-1.2-1.2c0,0,0,0,0,0
				C307.8,228.9,308.4,228.3,309.1,228.3z"/>
			<path class="st32" d="M188.8,228.3c-0.7,0-1.2,0.6-1.2,1.2s0.6,1.2,1.2,1.2c0.7,0,1.2-0.6,1.2-1.2
				C190,228.9,189.5,228.3,188.8,228.3z"/>
			<path class="st33" d="M84.1,195.2L84.1,195.2c0.3,0.1,0.5,0.4,0.4,0.8l0,0c-0.1,0.3-0.4,0.5-0.7,0.4c0,0,0,0,0,0l0,0
				c-0.3-0.1-0.5-0.4-0.4-0.7c0,0,0,0,0,0l0,0c0.1-0.3,0.3-0.4,0.6-0.4l0,0C84,195.2,84.1,195.2,84.1,195.2z"/>
			<path class="st33" d="M88.1,196.7c0.3,0.1,0.5,0.5,0.3,0.8l0,0c-0.1,0.3-0.5,0.4-0.8,0.3l0,0c-0.3-0.1-0.5-0.5-0.3-0.8
				c0,0,0,0,0,0l0,0c0.1-0.2,0.3-0.4,0.6-0.4l0,0C88,196.6,88.1,196.6,88.1,196.7z"/>
			<path class="st33" d="M92,198.6c0.3,0.2,0.4,0.5,0.2,0.8l0,0c-0.2,0.3-0.5,0.4-0.8,0.2l0,0c-0.3-0.2-0.4-0.5-0.2-0.8c0,0,0,0,0,0
				l0,0c0.1-0.2,0.3-0.3,0.5-0.3l0,0C91.8,198.5,91.9,198.5,92,198.6z"/>
			<path class="st33" d="M95.5,200.9c0.3,0.2,0.3,0.6,0.1,0.9l0,0c-0.2,0.3-0.6,0.3-0.8,0.1l0,0c-0.3-0.2-0.3-0.6-0.1-0.9l0,0
				c0.1-0.2,0.3-0.2,0.5-0.2l0,0C95.3,200.8,95.4,200.9,95.5,200.9z"/>
			<path class="st33" d="M98.8,203.7L98.8,203.7c0.2,0.2,0.2,0.6,0,0.9l0,0c-0.2,0.2-0.6,0.2-0.9,0l0,0c-0.2-0.2-0.2-0.6,0-0.9l0,0
				c0.1-0.1,0.3-0.2,0.4-0.2l0,0C98.5,203.5,98.7,203.6,98.8,203.7z"/>
			<line class="st34" x1="31.4" y1="243.1" x2="534.6" y2="243.1"/>
			<g class="st35">
				<polyline class="st25" points="214.2,110.5 252.7,110.5 252.7,100.9 240.4,100.9 				"/>
				<path class="st36" d="M214.2,111.7c-0.7,0-1.2-0.6-1.2-1.2s0.6-1.2,1.2-1.2c0.7,0,1.2,0.6,1.2,1.2S214.9,111.7,214.2,111.7
					L214.2,111.7z"/>
				<path class="st36" d="M240.5,99.7c-0.7,0-1.2,0.6-1.2,1.2s0.6,1.2,1.2,1.2c0.7,0,1.2-0.6,1.2-1.2S241.2,99.7,240.5,99.7
					L240.5,99.7z"/>
				<line class="st25" x1="228" y1="92.2" x2="214.9" y2="92.2"/>
				<path class="st36" d="M227.9,91c0.7,0,1.2,0.6,1.2,1.2s-0.6,1.2-1.2,1.2c-0.7,0-1.2-0.6-1.2-1.2S227.2,91,227.9,91L227.9,91z"/>
				<path class="st36" d="M215,91c-0.7,0-1.2,0.6-1.2,1.2s0.6,1.2,1.2,1.2c0.7,0,1.2-0.6,1.2-1.2S215.7,91,215,91L215,91z"/>
				<polyline class="st25" points="133.2,137.7 140.8,130 169.9,130 169.9,110.5 187,110.5 				"/>
				<path class="st36" d="M134.1,138.5c-0.5,0.5-1.3,0.5-1.8,0c-0.5-0.5-0.5-1.3,0-1.8l0,0c0.5-0.5,1.3-0.5,1.8,0
					C134.6,137.2,134.6,138,134.1,138.5z"/>
				<path class="st36" d="M186.9,111.7c0.7,0,1.2-0.6,1.2-1.2s-0.6-1.2-1.2-1.2c-0.7,0-1.2,0.6-1.2,1.2S186.3,111.7,186.9,111.7
					L186.9,111.7z"/>
				<polyline class="st25" points="143.1,139.2 176.6,139.2 185.2,130.6 				"/>
				<path class="st36" d="M143.2,140.5c-0.7,0-1.2-0.6-1.2-1.2s0.6-1.2,1.2-1.2c0.7,0,1.2,0.6,1.2,1.2S143.9,140.5,143.2,140.5
					C143.2,140.5,143.2,140.5,143.2,140.5z"/>
				<path class="st36" d="M186.1,131.5c0.5-0.5,0.5-1.3,0-1.7c0,0,0,0,0,0c-0.5-0.5-1.3-0.4-1.8,0.1c-0.4,0.5-0.4,1.2,0,1.6
					C184.8,132,185.6,132,186.1,131.5C186,131.5,186,131.5,186.1,131.5z"/>
				<polyline class="st25" points="143.1,139.2 182,139.2 182,151.7 				"/>
				<path class="st36" d="M143.2,140.5c-0.7,0-1.2-0.6-1.2-1.2s0.6-1.2,1.2-1.2c0.7,0,1.2,0.6,1.2,1.2S143.9,140.5,143.2,140.5
					C143.2,140.5,143.2,140.5,143.2,140.5z"/>
				<path class="st36" d="M180.8,151.6c0,0.7,0.6,1.2,1.2,1.2c0.7,0,1.2-0.6,1.2-1.2c0-0.7-0.6-1.2-1.2-1.2c0,0,0,0,0,0
					C181.3,150.4,180.8,151,180.8,151.6C180.8,151.6,180.8,151.6,180.8,151.6z"/>
				<polyline class="st25" points="163.9,237 185.3,237 185.3,229.2 149.8,229.2 				"/>
				<path class="st36" d="M163.9,238.3c-0.7,0-1.2-0.6-1.2-1.2s0.6-1.2,1.2-1.2c0.7,0,1.2,0.6,1.2,1.2
					C165.2,237.7,164.6,238.3,163.9,238.3z"/>
				<path class="st36" d="M149.8,227.9c-0.7,0-1.2,0.6-1.2,1.2s0.6,1.2,1.2,1.2c0.7,0,1.2-0.6,1.2-1.2S150.5,227.9,149.8,227.9
					C149.8,227.9,149.8,227.9,149.8,227.9z"/>
				<polyline class="st25" points="172.9,222.1 137,222.1 137,237 151.7,237 				"/>
				<path class="st36" d="M172.9,220.8c0.7,0,1.2,0.6,1.2,1.2s-0.6,1.2-1.2,1.2c-0.7,0-1.2-0.6-1.2-1.2
					C171.6,221.4,172.2,220.8,172.9,220.8C172.8,220.8,172.9,220.8,172.9,220.8z"/>
				<circle class="st36" cx="151.7" cy="237" r="1.2"/>
				<polyline class="st25" points="206.9,192.2 202.7,196.4 202.7,222.1 181.4,222.1 				"/>
				<circle class="st36" cx="206.9" cy="192.2" r="1.2"/>
				<path class="st36" d="M181.5,220.8c-0.7,0-1.2,0.5-1.2,1.2c0,0.7,0.5,1.2,1.2,1.2c0.7,0,1.2-0.5,1.2-1.2c0,0,0,0,0,0
					C182.8,221.4,182.2,220.8,181.5,220.8C181.5,220.8,181.5,220.8,181.5,220.8z"/>
				<polyline class="st25" points="248,215 232.1,215 232.1,204.6 238.5,198.2 				"/>
				<path class="st36" d="M248,213.8c0.7,0,1.2,0.6,1.2,1.2s-0.6,1.2-1.2,1.2c-0.7,0-1.2-0.6-1.2-1.2S247.3,213.8,248,213.8
					C248,213.8,248,213.8,248,213.8z"/>
				<path class="st36" d="M239.3,199.1c0.5-0.5,0.5-1.3,0-1.8c-0.5-0.5-1.3-0.4-1.8,0.1c-0.4,0.5-0.4,1.2,0,1.6
					C238.1,199.6,238.9,199.6,239.3,199.1z"/>
				<polyline class="st25" points="248,215 232.1,215 232.1,195.3 				"/>
				<path class="st36" d="M248,213.8c0.7,0,1.2,0.6,1.2,1.2s-0.6,1.2-1.2,1.2c-0.7,0-1.2-0.6-1.2-1.2S247.3,213.8,248,213.8
					C248,213.8,248,213.8,248,213.8z"/>
				<circle class="st36" cx="232.1" cy="195.4" r="1.2"/>
				<line class="st25" x1="231.3" y1="222.6" x2="243.8" y2="222.6"/>
				<path class="st36" d="M231.3,223.8c-0.7,0-1.2-0.6-1.2-1.2s0.6-1.2,1.2-1.2c0.7,0,1.2,0.6,1.2,1.2
					C232.6,223.3,232,223.8,231.3,223.8z"/>
				<circle class="st36" cx="243.7" cy="222.6" r="1.2"/>
				<line class="st25" x1="310" y1="222.6" x2="284.8" y2="222.6"/>
				<path class="st36" d="M309.9,221.4c0.7,0,1.2,0.6,1.2,1.2c0,0.7-0.6,1.2-1.2,1.2c-0.7,0-1.2-0.6-1.2-1.2l0,0
					C308.7,221.9,309.3,221.4,309.9,221.4z"/>
				<path class="st36" d="M284.9,221.4c-0.7,0-1.2,0.5-1.2,1.2c0,0.7,0.5,1.2,1.2,1.2s1.2-0.5,1.2-1.2c0,0,0,0,0,0
					C286.1,221.9,285.5,221.4,284.9,221.4z"/>
				<polyline class="st25" points="288,211 288,215.6 303.7,215.6 				"/>
				<path class="st36" d="M286.7,211.1c0-0.7,0.6-1.2,1.2-1.2c0.7,0,1.2,0.6,1.2,1.2s-0.6,1.2-1.2,1.2
					C287.3,212.3,286.7,211.8,286.7,211.1z"/>
				<circle class="st36" cx="303.7" cy="215.6" r="1.2"/>
				<polyline class="st25" points="208.1,186.1 195.2,186.1 195.2,213.8 				"/>
				<circle class="st36" cx="208.1" cy="186.1" r="1.2"/>
				<path class="st36" d="M193.9,213.8c0,0.7,0.6,1.2,1.2,1.2c0.7,0,1.2-0.6,1.2-1.2c0-0.7-0.6-1.2-1.2-1.2c0,0,0,0,0,0
					C194.5,212.5,193.9,213.1,193.9,213.8z"/>
				<polyline class="st25" points="123.2,148.6 169.4,148.6 198.9,178.1 212.6,178.1 				"/>
				<circle class="st36" cx="123.2" cy="148.6" r="1.2"/>
				<path class="st36" d="M212.5,179.4c0.7,0,1.2-0.6,1.2-1.2s-0.6-1.2-1.2-1.2c-0.7,0-1.2,0.6-1.2,1.2S211.8,179.4,212.5,179.4
					C212.5,179.4,212.5,179.4,212.5,179.4z"/>
				<polyline class="st25" points="123.2,148.6 169.4,148.6 188,167.2 188,213.8 				"/>
				<circle class="st36" cx="123.2" cy="148.6" r="1.2"/>
				<path class="st36" d="M186.8,213.8c0,0.7,0.6,1.2,1.2,1.2s1.2-0.6,1.2-1.2c0-0.7-0.6-1.2-1.2-1.2
					C187.3,212.5,186.8,213.1,186.8,213.8z"/>
				<polyline class="st25" points="274.4,27.5 231.8,27.5 216.7,42.6 260.2,42.6 268,50.4 				"/>
				<path class="st36" d="M274.3,26.3c0.7,0,1.2,0.6,1.2,1.2s-0.6,1.2-1.2,1.2c0,0,0,0,0,0c-0.7,0-1.2-0.6-1.2-1.2
					C273.1,26.8,273.6,26.3,274.3,26.3z"/>
				<circle class="st36" cx="267.9" cy="50.4" r="1.2"/>
				<polyline class="st25" points="161.1,114.7 161.1,98.2 181,78.3 186.1,73.2 				"/>
				<path class="st36" d="M162.4,114.6c0,0.7-0.6,1.2-1.2,1.2c-0.7,0-1.2-0.6-1.2-1.2c0-0.7,0.6-1.2,1.2-1.2
					S162.4,113.9,162.4,114.6L162.4,114.6z"/>
				<path class="st36" d="M187,74.1c0.5-0.5,0.5-1.3,0-1.8c-0.5-0.5-1.3-0.5-1.8,0c-0.5,0.5-0.5,1.3,0,1.8c0,0,0,0,0,0
					C185.7,74.6,186.5,74.6,187,74.1z"/>
				<polyline class="st25" points="287.6,103.2 296.4,94.3 332,94.3 				"/>
				<path class="st36" d="M288.5,104c-0.5,0.5-1.3,0.5-1.8,0c-0.5-0.5-0.5-1.3,0-1.8s1.3-0.5,1.8,0c0,0,0,0,0,0
					C289,102.7,289,103.5,288.5,104z"/>
				<path class="st36" d="M332,95.6c0.7,0,1.2-0.6,1.2-1.2c0-0.7-0.6-1.2-1.2-1.2c-0.7,0-1.2,0.6-1.2,1.2c0,0,0,0,0,0
					C330.8,95,331.3,95.6,332,95.6z"/>
				<line class="st25" x1="375.9" y1="111.3" x2="400.7" y2="111.3"/>
				<path class="st36" d="M376,112.5c-0.7,0-1.2-0.5-1.2-1.2c0-0.7,0.5-1.2,1.2-1.2s1.2,0.5,1.2,1.2c0,0,0,0,0,0
					C377.2,112,376.7,112.5,376,112.5z"/>
				<path class="st36" d="M400.7,112.5c0.7,0,1.2-0.6,1.2-1.2c0-0.7-0.6-1.2-1.2-1.2l0,0c-0.7,0-1.2,0.6-1.2,1.2
					C399.4,112,400,112.5,400.7,112.5z"/>
				<polyline class="st25" points="290.9,171 290.9,134.7 281.7,125.5 281.7,93.9 				"/>
				<path class="st36" d="M292.1,170.9c0,0.7-0.6,1.2-1.2,1.2c-0.7,0-1.2-0.6-1.2-1.2c0-0.7,0.6-1.2,1.2-1.2l0,0
					C291.6,169.7,292.1,170.2,292.1,170.9z"/>
				<path class="st36" d="M282.9,94c0-0.7-0.6-1.2-1.2-1.2c-0.7,0-1.2,0.6-1.2,1.2c0,0.7,0.6,1.2,1.2,1.2l0,0
					C282.4,95.2,282.9,94.7,282.9,94z"/>
				<line class="st25" x1="281.7" y1="132.7" x2="281.7" y2="93.9"/>
				<path class="st36" d="M282.9,132.6c0,0.7-0.6,1.2-1.2,1.2c-0.7,0-1.2-0.6-1.2-1.2c0-0.7,0.6-1.2,1.2-1.2l0,0
					C282.4,131.4,282.9,131.9,282.9,132.6z"/>
				<path class="st36" d="M282.9,94c0-0.7-0.6-1.2-1.2-1.2c-0.7,0-1.2,0.6-1.2,1.2c0,0.7,0.6,1.2,1.2,1.2l0,0
					C282.4,95.2,282.9,94.7,282.9,94z"/>
				<line class="st25" x1="281.7" y1="151.7" x2="281.7" y2="171"/>
				<path class="st36" d="M280.5,151.8c0-0.7,0.6-1.2,1.2-1.2s1.2,0.6,1.2,1.2c0,0.7-0.6,1.2-1.2,1.2
					C281,153,280.5,152.5,280.5,151.8C280.5,151.8,280.5,151.8,280.5,151.8z"/>
				<path class="st36" d="M280.5,170.9c0,0.7,0.6,1.2,1.2,1.2c0.7,0,1.2-0.6,1.2-1.2c0-0.7-0.6-1.2-1.2-1.2l0,0
					C281,169.7,280.5,170.2,280.5,170.9z"/>
				<polyline class="st25" points="340.1,94.5 405.3,94.5 421.4,110.6 449.7,110.6 				"/>
				<path class="st36" d="M340.2,95.7c-0.7,0-1.2-0.6-1.2-1.2c0-0.7,0.6-1.2,1.2-1.2s1.2,0.6,1.2,1.2
					C341.4,95.2,340.9,95.7,340.2,95.7L340.2,95.7z"/>
				<path class="st36" d="M449.6,111.8c0.7,0,1.2-0.5,1.2-1.2c0-0.7-0.5-1.2-1.2-1.2s-1.2,0.5-1.2,1.2c0,0,0,0,0,0
					C448.4,111.3,449,111.8,449.6,111.8C449.6,111.8,449.6,111.8,449.6,111.8z"/>
				<polyline class="st25" points="415.5,115.9 402.5,102.9 368.6,102.9 				"/>
				<circle class="st36" cx="415.5" cy="115.9" r="1.2"/>
				<path class="st36" d="M368.6,101.7c-0.7,0-1.2,0.6-1.2,1.2c0,0.7,0.6,1.2,1.2,1.2c0.7,0,1.2-0.6,1.2-1.2c0,0,0,0,0,0
					C369.9,102.2,369.3,101.7,368.6,101.7z"/>
				<polyline class="st25" points="434.7,95.7 492.9,95.7 508.9,111.8 508.9,130.3 				"/>
				<path class="st36" d="M434.8,97c-0.7,0-1.2-0.6-1.2-1.2c0-0.7,0.6-1.2,1.2-1.2c0.7,0,1.2,0.5,1.2,1.2
					C436,96.4,435.5,97,434.8,97C434.8,97,434.8,97,434.8,97z"/>
				<path class="st36" d="M507.7,130.2c0,0.7,0.6,1.2,1.2,1.2c0.7,0,1.2-0.6,1.2-1.2c0-0.7-0.6-1.2-1.2-1.2l0,0
					C508.2,129,507.7,129.6,507.7,130.2z"/>
				<polyline class="st25" points="516.2,167.8 526.2,177.7 526.2,181.9 517,181.9 				"/>
				<circle class="st36" cx="516.3" cy="167.8" r="1.2"/>
				<path class="st36" d="M517,180.7c-0.7,0-1.2,0.5-1.2,1.2c0,0.7,0.5,1.2,1.2,1.2s1.2-0.5,1.2-1.2c0,0,0,0,0,0
					C518.2,181.3,517.7,180.7,517,180.7C517,180.7,517,180.7,517,180.7z"/>
				<line class="st25" x1="525.5" y1="153.1" x2="534.5" y2="162.2"/>
				<path class="st36" d="M524.6,154.1c-0.5-0.5-0.5-1.3,0-1.8s1.3-0.5,1.8,0c0.5,0.5,0.5,1.3,0,1.7
					C525.9,154.5,525.1,154.5,524.6,154.1C524.6,154.1,524.6,154.1,524.6,154.1z"/>
				<polyline class="st25" points="508.9,96.9 508.9,131.5 503,137.4 				"/>
				<path class="st36" d="M507.7,97c0-0.7,0.6-1.2,1.2-1.2c0.7,0,1.2,0.6,1.2,1.2c0,0.7-0.6,1.2-1.2,1.2l0,0
					C508.2,98.2,507.7,97.7,507.7,97z"/>
				<circle class="st36" cx="503" cy="137.4" r="1.2"/>
				<line class="st25" x1="423.3" y1="28.5" x2="354.3" y2="28.5"/>
				<path class="st36" d="M423.2,27.3c0.7,0,1.2,0.6,1.2,1.2s-0.6,1.2-1.2,1.2c-0.7,0-1.2-0.6-1.2-1.2
					C422,27.9,422.6,27.3,423.2,27.3C423.2,27.3,423.2,27.3,423.2,27.3z"/>
				<path class="st36" d="M354.3,27.3c-0.7,0-1.2,0.6-1.2,1.2c0,0.7,0.6,1.2,1.2,1.2c0.7,0,1.2-0.6,1.2-1.2S355,27.3,354.3,27.3
					C354.3,27.3,354.3,27.3,354.3,27.3z"/>
				<polyline class="st25" points="354.3,28.5 396.4,28.5 412,44.2 483.4,44.2 				"/>
				<path class="st36" d="M354.3,29.8c-0.7,0-1.2-0.6-1.2-1.2c0-0.7,0.6-1.2,1.2-1.2c0.7,0,1.2,0.6,1.2,1.2c0,0,0,0,0,0
					C355.6,29.2,355,29.8,354.3,29.8z"/>
				<path class="st36" d="M483.4,45.4c0.7,0,1.2-0.6,1.2-1.2s-0.6-1.2-1.2-1.2c0,0,0,0,0,0c-0.7,0-1.2,0.6-1.2,1.2
					C482.1,44.9,482.7,45.4,483.4,45.4z"/>
				<line class="st25" x1="484.6" y1="28.5" x2="431.7" y2="28.5"/>
				<path class="st36" d="M484.5,27.3c0.7,0,1.2,0.6,1.2,1.2c0,0.7-0.6,1.2-1.2,1.2c-0.7,0-1.2-0.6-1.2-1.2
					C483.3,27.9,483.9,27.3,484.5,27.3z"/>
				<path class="st36" d="M431.7,27.3c-0.7,0-1.2,0.6-1.2,1.3s0.6,1.2,1.3,1.2c0.7,0,1.2-0.6,1.2-1.2
					C433,27.8,432.4,27.3,431.7,27.3C431.7,27.3,431.7,27.3,431.7,27.3z"/>
				<polyline class="st25" points="500.4,43.2 493.3,36 455.2,36 				"/>
				<path class="st36" d="M501.2,42.3c0.4,0.5,0.4,1.3-0.2,1.7c-0.5,0.4-1.1,0.4-1.6,0c-0.5-0.5-0.4-1.3,0.1-1.8
					C500.1,41.8,500.8,41.8,501.2,42.3L501.2,42.3z"/>
				<path class="st36" d="M455.3,34.8c-0.7,0-1.2,0.6-1.2,1.2c0,0.7,0.6,1.2,1.2,1.2c0.7,0,1.2-0.6,1.2-1.2c0,0,0,0,0,0
					C456.5,35.3,456,34.8,455.3,34.8z"/>
				<polyline class="st25" points="525,96.6 517.1,104.4 517.1,125 524.8,132.7 524.8,145.9 515.8,145.9 515.8,154.5 539.5,178.2 
					539.5,189.4 515.8,189.4 515.8,236.5 524.3,236.5 524.3,200.4 538.3,200.4 				"/>
				<circle class="st36" cx="525" cy="96.6" r="1.2"/>
				<line class="st25" x1="517.2" y1="133.9" x2="517.2" y2="139.8"/>
				<path class="st36" d="M516,133.9c0-0.7,0.6-1.2,1.2-1.2c0.7,0,1.2,0.6,1.2,1.2c0,0.7-0.6,1.2-1.2,1.2
					C516.6,135.2,516,134.6,516,133.9z"/>
				<path class="st36" d="M516,139.7c0,0.7,0.6,1.2,1.2,1.2c0.7,0,1.2-0.6,1.2-1.2c0-0.7-0.6-1.2-1.2-1.2l0,0
					C516.6,138.5,516,139,516,139.7z"/>
				<line class="st25" x1="524.3" y1="105.4" x2="524.3" y2="124.6"/>
				<path class="st36" d="M523.1,105.4c0-0.7,0.6-1.2,1.2-1.2c0.7,0,1.2,0.6,1.2,1.2c0,0.7-0.6,1.2-1.2,1.2l0,0
					C523.6,106.7,523.1,106.1,523.1,105.4z"/>
				<path class="st36" d="M523.1,124.5c0,0.7,0.6,1.2,1.2,1.2c0.7,0,1.2-0.6,1.2-1.2c0-0.7-0.6-1.2-1.2-1.2l0,0
					C523.6,123.3,523.1,123.8,523.1,124.5z"/>
				<line class="st25" x1="524.3" y1="33.1" x2="524.3" y2="52.3"/>
				<path class="st36" d="M523.1,33.2c0-0.7,0.5-1.2,1.2-1.2s1.2,0.5,1.2,1.2s-0.5,1.2-1.2,1.2c0,0,0,0,0,0
					C523.6,34.4,523.1,33.9,523.1,33.2z"/>
				<path class="st36" d="M523.1,52.3c0,0.7,0.6,1.2,1.3,1.2c0.7,0,1.2-0.6,1.2-1.3c0-0.7-0.6-1.2-1.2-1.2
					C523.6,51,523.1,51.6,523.1,52.3C523.1,52.3,523.1,52.3,523.1,52.3z"/>
				<polyline class="st25" points="525.1,65.4 551.4,91.7 551.4,103.2 524.9,76.8 				"/>
				<path class="st36" d="M524.2,66.3c-0.5-0.5-0.4-1.3,0.1-1.8c0.5-0.4,1.2-0.4,1.6,0c0.5,0.5,0.4,1.3-0.1,1.8
					C525.4,66.7,524.7,66.7,524.2,66.3z"/>
				<circle class="st36" cx="524.9" cy="76.8" r="1.2"/>
				<polyline class="st25" points="504.4,36.3 497.2,29.1 517.8,29.1 517.8,44.5 				"/>
				<path class="st36" d="M505.2,35.4c0.5,0.5,0.5,1.3,0,1.8c-0.5,0.5-1.3,0.5-1.8,0c-0.5-0.5-0.5-1.3,0-1.7
					C504,34.9,504.7,34.9,505.2,35.4C505.2,35.4,505.2,35.4,505.2,35.4z"/>
				<path class="st36" d="M516.5,44.5c0,0.7,0.6,1.2,1.2,1.2s1.2-0.6,1.2-1.2s-0.6-1.2-1.2-1.2l0,0
					C517.1,43.2,516.5,43.8,516.5,44.5C516.5,44.4,516.5,44.4,516.5,44.5z"/>
				<line class="st25" x1="390" y1="36" x2="323.6" y2="36"/>
				<path class="st36" d="M390,34.8c0.7,0,1.2,0.6,1.2,1.3s-0.6,1.2-1.3,1.2c-0.7,0-1.2-0.6-1.2-1.3C388.7,35.3,389.3,34.8,390,34.8
					C390,34.8,390,34.8,390,34.8z"/>
				<path class="st36" d="M323.7,34.8c-0.7,0-1.2,0.6-1.2,1.2c0,0.7,0.6,1.2,1.2,1.2c0.7,0,1.2-0.6,1.2-1.2c0,0,0,0,0,0
					C324.9,35.3,324.3,34.8,323.7,34.8z"/>
				<line class="st25" x1="390" y1="44.2" x2="323.6" y2="44.2"/>
				<path class="st36" d="M390,42.9c0.7,0,1.2,0.5,1.2,1.2c0,0.7-0.5,1.2-1.2,1.2s-1.2-0.5-1.2-1.2c0,0,0,0,0,0
					C388.8,43.5,389.3,42.9,390,42.9C390,42.9,390,42.9,390,42.9z"/>
				<path class="st36" d="M323.7,42.9c-0.7,0-1.2,0.6-1.2,1.2c0,0.7,0.6,1.2,1.2,1.2c0.7,0,1.2-0.6,1.2-1.2S324.4,42.9,323.7,42.9
					C323.7,42.9,323.7,42.9,323.7,42.9z"/>
				<line class="st25" x1="448.2" y1="36" x2="416.5" y2="36"/>
				<path class="st36" d="M448.1,34.8c0.7,0,1.2,0.6,1.2,1.2c0,0.7-0.6,1.2-1.2,1.2c-0.7,0-1.2-0.6-1.2-1.2c0,0,0,0,0,0
					C446.9,35.3,447.4,34.8,448.1,34.8z"/>
				<path class="st36" d="M416.5,34.8c-0.7,0-1.2,0.6-1.2,1.2c0,0.7,0.6,1.2,1.2,1.2c0.7,0,1.2-0.6,1.2-1.2S417.2,34.8,416.5,34.8
					C416.6,34.8,416.6,34.8,416.5,34.8z"/>
				<polyline class="st25" points="418.8,95.8 425.4,102.4 451.6,102.4 				"/>
				<path class="st36" d="M418,96.7c-0.5-0.5-0.5-1.3,0-1.7c0,0,0,0,0,0c0.5-0.5,1.3-0.5,1.8,0c0.5,0.5,0.5,1.3,0,1.8
					S418.5,97.2,418,96.7C418,96.7,418,96.7,418,96.7z"/>
				<path class="st36" d="M451.6,103.6c0.7,0,1.2-0.6,1.2-1.2c0-0.7-0.6-1.2-1.2-1.2c-0.7,0-1.2,0.6-1.2,1.2c0,0,0,0,0,0
					C450.3,103.1,450.9,103.6,451.6,103.6C451.6,103.6,451.6,103.6,451.6,103.6z"/>
				<polyline class="st25" points="432.4,162.4 432.4,132.8 420,120.3 				"/>
				<path class="st36" d="M433.7,162.3c0,0.7-0.5,1.2-1.2,1.2s-1.2-0.5-1.2-1.2c0-0.7,0.5-1.2,1.2-1.2c0,0,0,0,0,0
					C433.1,161.1,433.7,161.7,433.7,162.3z"/>
				<path class="st36" d="M420.9,119.5c-0.5-0.5-1.3-0.5-1.8,0c-0.5,0.5-0.5,1.3,0,1.7c0,0,0,0,0,0c0.5,0.5,1.3,0.4,1.8-0.1
					C421.3,120.7,421.3,120,420.9,119.5z"/>
				<line class="st25" x1="397.6" y1="167.4" x2="362.5" y2="167.4"/>
				<path class="st36" d="M397.6,166.2c0.7,0,1.2,0.6,1.2,1.2c0,0.7-0.6,1.2-1.2,1.2c-0.7,0-1.2-0.6-1.2-1.2l0,0
					C396.3,166.7,396.9,166.2,397.6,166.2z"/>
				<path class="st36" d="M362.5,166.2c-0.7,0-1.2,0.6-1.2,1.2c0,0.7,0.6,1.2,1.2,1.2c0.7,0,1.2-0.6,1.2-1.2l0,0
					C363.8,166.7,363.2,166.2,362.5,166.2z"/>
				<polyline class="st25" points="432.4,162.4 432.4,119.8 439,119.8 				"/>
				<path class="st36" d="M433.7,162.3c0,0.7-0.5,1.2-1.2,1.2s-1.2-0.5-1.2-1.2c0-0.7,0.5-1.2,1.2-1.2c0,0,0,0,0,0
					C433.1,161.1,433.7,161.7,433.7,162.3z"/>
				<path class="st36" d="M438.9,121c0.7,0,1.2-0.6,1.2-1.2c0-0.7-0.6-1.2-1.2-1.2c-0.7,0-1.2,0.6-1.2,1.2c0,0,0,0,0,0
					C437.7,120.4,438.3,121,438.9,121z"/>
				<line class="st25" x1="508.9" y1="140.8" x2="508.9" y2="216.4"/>
				<path class="st36" d="M507.7,140.9c0-0.7,0.6-1.2,1.2-1.2c0.7,0,1.2,0.6,1.2,1.2c0,0.7-0.6,1.2-1.2,1.2l0,0
					C508.2,142.1,507.7,141.5,507.7,140.9z"/>
				<circle class="st36" cx="508.9" cy="216.3" r="1.2"/>
				<polyline class="st25" points="449.1,121 449.1,126.9 457.4,135.1 				"/>
				<path class="st36" d="M447.9,121c0-0.7,0.6-1.2,1.2-1.2c0.7,0,1.2,0.6,1.2,1.2c0,0.7-0.6,1.2-1.2,1.2c0,0,0,0,0,0
					C448.5,122.2,447.9,121.7,447.9,121C447.9,121,447.9,121,447.9,121z"/>
				<circle class="st36" cx="457.3" cy="135.1" r="1.2"/>
				<polyline class="st25" points="449.1,121 449.1,136.5 452.9,140.2 				"/>
				<path class="st36" d="M447.9,121c0-0.7,0.6-1.2,1.2-1.2c0.7,0,1.2,0.6,1.2,1.2c0,0.7-0.6,1.2-1.2,1.2c0,0,0,0,0,0
					C448.5,122.2,447.9,121.7,447.9,121C447.9,121,447.9,121,447.9,121z"/>
				<circle class="st36" cx="452.8" cy="140.1" r="1.2"/>
				<polyline class="st25" points="337.4,118.4 337.4,133.8 326.3,144.9 				"/>
				<path class="st36" d="M336.2,118.5c0-0.7,0.5-1.2,1.2-1.2c0.7,0,1.2,0.5,1.2,1.2c0,0.7-0.5,1.2-1.2,1.2c0,0,0,0,0,0
					C336.7,119.7,336.2,119.2,336.2,118.5z"/>
				<path class="st36" d="M325.5,144c-0.5,0.5-0.4,1.3,0.1,1.8c0.5,0.4,1.2,0.4,1.6,0c0.5-0.5,0.4-1.3-0.1-1.8
					C326.6,143.6,325.9,143.6,325.5,144z"/>
				<polyline class="st25" points="321.5,231.5 321.5,221.4 294.7,194.5 294.7,189.2 				"/>
				<path class="st36" d="M322.8,231.4c0,0.7-0.6,1.2-1.2,1.2c-0.7,0-1.2-0.6-1.2-1.2c0-0.7,0.6-1.2,1.2-1.2l0,0
					C322.2,230.2,322.8,230.7,322.8,231.4z"/>
				<path class="st36" d="M295.9,189.2c0-0.7-0.6-1.2-1.2-1.2c-0.7,0-1.2,0.6-1.2,1.2c0,0.7,0.6,1.2,1.2,1.2l0,0
					C295.4,190.5,295.9,189.9,295.9,189.2z"/>
				<polyline class="st25" points="332.4,201.8 358.1,201.8 368,211.8 426.3,211.8 				"/>
				<path class="st36" d="M332.4,203.1c-0.7,0-1.2-0.6-1.2-1.2c0-0.7,0.6-1.2,1.2-1.2c0.7,0,1.2,0.6,1.2,1.2l0,0
					C333.7,202.5,333.1,203.1,332.4,203.1C332.4,203.1,332.4,203.1,332.4,203.1z"/>
				<path class="st36" d="M426.2,213c0.7,0,1.2-0.6,1.2-1.2c0-0.7-0.6-1.2-1.2-1.2c-0.7,0-1.2,0.6-1.2,1.2l0,0
					C425,212.4,425.5,213,426.2,213z"/>
				<polyline class="st25" points="426.3,211.8 381.6,211.8 374.1,219.3 361.9,219.3 353.5,209.8 342.1,209.8 				"/>
				<path class="st36" d="M426.2,210.5c0.7,0,1.2,0.6,1.2,1.2s-0.6,1.2-1.2,1.2c0,0,0,0,0,0c-0.7,0-1.2-0.6-1.2-1.2
					S425.5,210.5,426.2,210.5C426.2,210.5,426.2,210.5,426.2,210.5z"/>
				<path class="st36" d="M342.2,208.5c-0.7,0-1.2,0.6-1.2,1.2c0,0.7,0.6,1.2,1.2,1.2c0.7,0,1.2-0.6,1.2-1.2l0,0
					C343.4,209.1,342.8,208.5,342.2,208.5z"/>
				<line class="st25" x1="351.1" y1="218" x2="342.1" y2="218"/>
				<path class="st36" d="M351,216.8c0.7,0,1.2,0.6,1.2,1.2c0,0.7-0.6,1.2-1.2,1.2c-0.7,0-1.2-0.6-1.2-1.2l0,0
					C349.8,217.3,350.3,216.8,351,216.8z"/>
				<path class="st36" d="M342.2,216.8c-0.7,0-1.2,0.6-1.2,1.2c0,0.7,0.6,1.2,1.2,1.2c0.7,0,1.2-0.6,1.2-1.2c0,0,0,0,0,0
					C343.4,217.3,342.8,216.8,342.2,216.8z"/>
				<line class="st25" x1="375.4" y1="201.9" x2="404.1" y2="201.9"/>
				<path class="st36" d="M375.5,203.2c-0.7,0-1.2-0.5-1.2-1.2c0-0.7,0.5-1.2,1.2-1.2s1.2,0.5,1.2,1.2c0,0,0,0,0,0.1
					C376.7,202.7,376.1,203.2,375.5,203.2z"/>
				<path class="st36" d="M404,203.2c0.7,0,1.2-0.6,1.2-1.2c0-0.7-0.6-1.2-1.2-1.2c-0.7,0-1.2,0.6-1.2,1.2S403.3,203.2,404,203.2
					C404,203.2,404,203.2,404,203.2z"/>
				<polyline class="st25" points="359.8,192.5 404.8,192.5 417.6,205.4 426.3,205.4 				"/>
				<path class="st36" d="M359.8,193.8c-0.7,0-1.2-0.5-1.2-1.2c0-0.7,0.5-1.2,1.2-1.2s1.2,0.5,1.2,1.2c0,0,0,0,0,0
					C361.1,193.2,360.5,193.7,359.8,193.8C359.8,193.7,359.8,193.8,359.8,193.8z"/>
				<path class="st36" d="M426.2,206.6c0.7,0,1.2-0.6,1.2-1.2c0-0.7-0.6-1.2-1.2-1.2c-0.7,0-1.2,0.6-1.2,1.2
					S425.5,206.6,426.2,206.6C426.2,206.6,426.2,206.6,426.2,206.6z"/>
				<polyline class="st25" points="322.5,203.1 322.5,213.1 333.4,213.1 333.4,221.2 				"/>
				<path class="st36" d="M321.2,203.2c0-0.7,0.5-1.2,1.2-1.2c0.7,0,1.2,0.5,1.2,1.2s-0.5,1.2-1.2,1.2c0,0,0,0,0,0
					C321.8,204.4,321.2,203.9,321.2,203.2L321.2,203.2z"/>
				<path class="st36" d="M332.1,221.1c0,0.7,0.6,1.2,1.2,1.2c0.7,0,1.2-0.6,1.2-1.2c0-0.7-0.6-1.2-1.2-1.2l0,0
					C332.7,219.9,332.1,220.4,332.1,221.1z"/>
				<line class="st25" x1="304.3" y1="192.9" x2="351.5" y2="192.9"/>
				<path class="st36" d="M304.4,194.2c-0.7,0-1.2-0.6-1.2-1.2c0-0.7,0.6-1.2,1.2-1.2c0.7,0,1.2,0.6,1.2,1.2l0,0
					C305.6,193.6,305.1,194.2,304.4,194.2z"/>
				<path class="st36" d="M351.4,194.2c0.7,0,1.2-0.6,1.2-1.2c0-0.7-0.6-1.2-1.2-1.2c-0.7,0-1.2,0.6-1.2,1.2l0,0
					C350.2,193.6,350.7,194.2,351.4,194.2z"/>
				<polyline class="st25" points="342.1,225.9 391.6,225.6 397.7,219.5 415.4,219.5 				"/>
				<path class="st36" d="M342.2,227.1c-0.7,0-1.2-0.5-1.2-1.2c0-0.7,0.5-1.2,1.2-1.2s1.2,0.5,1.2,1.2c0,0,0,0,0,0
					C343.4,226.5,342.9,227.1,342.2,227.1C342.2,227.1,342.2,227.1,342.2,227.1z"/>
				<path class="st36" d="M415.3,220.7c0.7,0,1.2-0.6,1.2-1.2c0-0.7-0.6-1.2-1.2-1.2c-0.7,0-1.2,0.6-1.2,1.2l0,0
					C414.1,220.2,414.6,220.7,415.3,220.7z"/>
				<polyline class="st25" points="440.2,212.1 440.2,219.5 422.3,219.5 422.3,236.5 422.3,236.8 444.8,236.8 				"/>
				<path class="st36" d="M439,212.1c0-0.7,0.6-1.2,1.2-1.2c0.7,0,1.2,0.6,1.2,1.2c0,0.7-0.6,1.2-1.2,1.2l0,0
					C439.6,213.4,439,212.8,439,212.1C439,212.2,439,212.2,439,212.1z"/>
				<path class="st36" d="M444.7,238c0.7,0,1.2-0.6,1.2-1.2c0-0.7-0.6-1.2-1.2-1.2s-1.2,0.6-1.2,1.2c0,0,0,0,0,0
					C443.5,237.5,444,238,444.7,238z"/>
				<line class="st25" x1="412.6" y1="229.2" x2="404.2" y2="229.2"/>
				<path class="st36" d="M412.6,227.9c0.7,0,1.2,0.6,1.2,1.2c0,0.7-0.6,1.2-1.2,1.2c-0.7,0-1.2-0.6-1.2-1.2l0,0
					C411.3,228.5,411.9,227.9,412.6,227.9z"/>
				<path class="st36" d="M404.2,227.9c-0.7,0-1.2,0.6-1.2,1.2c0,0.7,0.6,1.2,1.2,1.2c0.7,0,1.2-0.6,1.2-1.2l0,0
					C405.5,228.5,404.9,227.9,404.2,227.9z"/>
				<line class="st25" x1="454.1" y1="230.5" x2="428.6" y2="230.5"/>
				<path class="st36" d="M454.1,229.2c0.7,0,1.2,0.6,1.2,1.2s-0.6,1.2-1.2,1.2c0,0,0,0,0,0c-0.7,0-1.2-0.6-1.2-1.2
					S453.4,229.2,454.1,229.2C454.1,229.2,454.1,229.2,454.1,229.2z"/>
				<path class="st36" d="M428.7,229.2c-0.7,0-1.2,0.6-1.2,1.2c0,0.7,0.6,1.2,1.2,1.2c0.7,0,1.2-0.6,1.2-1.2l0,0
					C429.9,229.8,429.4,229.2,428.7,229.2z"/>
				<polyline class="st25" points="415.2,192.2 424.6,192.2 424.6,198.8 				"/>
				<circle class="st36" cx="415.2" cy="192.2" r="1.2"/>
				<path class="st36" d="M423.3,198.7c0,0.7,0.5,1.2,1.2,1.2s1.2-0.5,1.2-1.2c0-0.7-0.5-1.2-1.2-1.2c0,0,0,0,0,0
					C423.9,197.5,423.3,198,423.3,198.7C423.3,198.7,423.3,198.7,423.3,198.7z"/>
				<polyline class="st25" points="295.6,207.4 286.8,198.5 286.8,189 				"/>
				<circle class="st36" cx="295.6" cy="207.3" r="1.2"/>
				<path class="st36" d="M288,189c0-0.7-0.6-1.2-1.2-1.2c-0.7,0-1.2,0.6-1.2,1.2c0,0.7,0.6,1.2,1.2,1.2l0,0
					C287.4,190.2,288,189.7,288,189C288,189,288,189,288,189z"/>
				<polyline class="st25" points="275,149.1 275,179.8 290.5,179.8 				"/>
				<path class="st36" d="M273.7,149.2c0-0.7,0.6-1.2,1.2-1.2c0.7,0,1.2,0.6,1.2,1.2c0,0.7-0.6,1.2-1.2,1.2l0,0
					C274.3,150.5,273.7,149.9,273.7,149.2z"/>
				<circle class="st36" cx="290.4" cy="179.8" r="1.2"/>
				<line class="st25" x1="275" y1="123.8" x2="275" y2="132.7"/>
				<path class="st36" d="M273.7,123.8c0-0.7,0.6-1.2,1.2-1.2c0.7,0,1.2,0.6,1.2,1.2l0,0c0,0.7-0.6,1.2-1.2,1.2
					C274.3,125.1,273.7,124.5,273.7,123.8z"/>
				<path class="st36" d="M273.7,132.6c0,0.7,0.6,1.2,1.2,1.2c0.7,0,1.2-0.6,1.2-1.2c0-0.7-0.6-1.2-1.2-1.2l0,0
					C274.3,131.4,273.7,131.9,273.7,132.6C273.7,132.6,273.7,132.6,273.7,132.6z"/>
				<polyline class="st25" points="424.5,165.6 424.5,175.7 440.2,175.7 440.2,204.5 				"/>
				<path class="st36" d="M423.2,165.6c0-0.7,0.6-1.2,1.2-1.2c0.7,0,1.2,0.6,1.2,1.2c0,0.7-0.6,1.2-1.2,1.2c0,0,0,0,0,0
					C423.8,166.9,423.2,166.3,423.2,165.6z"/>
				<path class="st36" d="M438.9,204.4c0,0.7,0.6,1.2,1.2,1.2c0.7,0,1.2-0.6,1.2-1.2c0-0.7-0.6-1.2-1.2-1.2l0,0
					C439.5,203.2,438.9,203.8,438.9,204.4z"/>
				<line class="st25" x1="440.2" y1="158.3" x2="440.2" y2="204.5"/>
				<path class="st36" d="M438.9,158.4c0-0.7,0.6-1.2,1.2-1.2c0.7,0,1.2,0.6,1.2,1.2c0,0.7-0.6,1.2-1.2,1.2l0,0
					C439.5,159.6,438.9,159.1,438.9,158.4z"/>
				<path class="st36" d="M438.9,204.4c0,0.7,0.6,1.2,1.2,1.2c0.7,0,1.2-0.6,1.2-1.2c0-0.7-0.6-1.2-1.2-1.2l0,0
					C439.5,203.2,438.9,203.8,438.9,204.4z"/>
				<polyline class="st25" points="449.6,166.5 449.6,150.5 440.7,141.6 				"/>
				<path class="st36" d="M450.8,166.5c0,0.7-0.6,1.2-1.2,1.2c-0.7,0-1.2-0.6-1.2-1.2c0-0.7,0.6-1.2,1.2-1.2l0,0
					C450.3,165.2,450.8,165.8,450.8,166.5z"/>
				<path class="st36" d="M441.6,140.8c-0.5-0.5-1.3-0.5-1.8,0s-0.5,1.3,0,1.8c0.5,0.5,1.3,0.5,1.7,0
					C442.1,142.1,442.1,141.3,441.6,140.8C441.6,140.8,441.6,140.8,441.6,140.8z"/>
				<line class="st25" x1="261.4" y1="164.7" x2="267.6" y2="170.9"/>
				<path class="st36" d="M260.6,165.6c-0.5-0.5-0.4-1.3,0.1-1.8c0.5-0.4,1.2-0.4,1.6,0c0.5,0.5,0.5,1.3,0,1.7c0,0,0,0,0,0
					C261.8,166.1,261.1,166.1,260.6,165.6z"/>
				<path class="st36" d="M266.7,171.7c0.5,0.5,1.3,0.4,1.8-0.1c0.4-0.5,0.4-1.2,0-1.6c-0.5-0.5-1.3-0.4-1.8,0.1
					C266.2,170.5,266.2,171.2,266.7,171.7z"/>
				<polyline class="st25" points="262.7,132.6 253.7,123.6 245.3,123.6 				"/>
				<path class="st36" d="M263.5,131.7c0.5,0.5,0.4,1.3-0.1,1.8c-0.5,0.4-1.2,0.4-1.6,0c-0.5-0.5-0.4-1.3,0.1-1.8
					C262.4,131.3,263.1,131.3,263.5,131.7z"/>
				<path class="st36" d="M245.4,122.4c-0.7,0-1.2,0.6-1.2,1.2s0.6,1.2,1.2,1.2c0.7,0,1.2-0.6,1.2-1.2
					C246.6,122.9,246.1,122.4,245.4,122.4C245.4,122.4,245.4,122.4,245.4,122.4z"/>
				<polyline class="st25" points="251.8,164.2 236.4,164.2 230.1,170.4 				"/>
				<path class="st36" d="M251.8,162.9c0.7,0,1.2,0.6,1.2,1.2s-0.6,1.2-1.2,1.2c-0.7,0-1.2-0.6-1.2-1.2
					C250.5,163.5,251.1,162.9,251.8,162.9z"/>
				<path class="st36" d="M229.3,169.5c-0.5,0.5-0.5,1.3,0,1.7c0,0,0,0,0,0c0.5,0.5,1.3,0.4,1.8-0.1c0.4-0.5,0.4-1.2,0-1.6
					C230.6,169,229.8,169,229.3,169.5C229.3,169.5,229.3,169.5,229.3,169.5z"/>
				<polyline class="st25" points="248.7,129.3 254.1,134.7 242.3,134.7 237.8,130.2 				"/>
				<circle class="st36" cx="248.7" cy="129.3" r="1.2"/>
				<circle class="st36" cx="237.8" cy="130.2" r="1.2"/>
				<line class="st25" x1="235.2" y1="123.6" x2="177" y2="123.6"/>
				<path class="st36" d="M235.1,122.4c0.7,0,1.2,0.5,1.2,1.2c0,0.7-0.5,1.2-1.2,1.2c-0.7,0-1.2-0.5-1.2-1.2c0,0,0,0,0,0
					C233.9,122.9,234.4,122.4,235.1,122.4C235.1,122.4,235.1,122.4,235.1,122.4z"/>
				<path class="st36" d="M177,122.4c-0.7,0-1.2,0.6-1.2,1.2c0,0.7,0.6,1.2,1.2,1.2s1.2-0.6,1.2-1.2
					C178.2,122.9,177.7,122.4,177,122.4z"/>
				<polyline class="st25" points="177,123.6 223.4,123.6 232.9,133.1 				"/>
				<path class="st36" d="M177,124.8c-0.7,0-1.2-0.6-1.2-1.2s0.6-1.2,1.2-1.2c0.7,0,1.2,0.6,1.2,1.2S177.7,124.8,177,124.8
					L177,124.8z"/>
				<circle class="st36" cx="232.8" cy="133.1" r="1.2"/>
				<line class="st25" x1="267.3" y1="128.8" x2="267.3" y2="124"/>
				<path class="st36" d="M268.6,128.7c0,0.7-0.6,1.2-1.2,1.2c-0.7,0-1.2-0.6-1.2-1.2c0-0.7,0.6-1.2,1.2-1.2l0,0
					C268,127.5,268.6,128,268.6,128.7z"/>
				<path class="st36" d="M268.6,124.1c0-0.7-0.6-1.2-1.2-1.2c-0.7,0-1.2,0.6-1.2,1.2c0,0.7,0.6,1.2,1.2,1.2l0,0
					C268,125.3,268.6,124.7,268.6,124.1z"/>
				<polyline class="st25" points="286.3,58.9 309.3,35.9 284.8,35.9 284.8,47.7 				"/>
				<path class="st36" d="M287.2,59.7c-0.5,0.5-1.3,0.5-1.7,0c0,0,0,0,0,0c-0.5-0.5-0.5-1.3,0-1.8s1.3-0.5,1.8,0
					C287.7,58.5,287.7,59.3,287.2,59.7C287.2,59.7,287.2,59.7,287.2,59.7z"/>
				<path class="st36" d="M283.6,47.6c0,0.7,0.6,1.2,1.2,1.2c0.7,0,1.2-0.6,1.2-1.2s-0.6-1.2-1.2-1.2l0,0
					C284.1,46.4,283.6,46.9,283.6,47.6C283.6,47.6,283.6,47.6,283.6,47.6z"/>
				<polyline class="st25" points="345,28.7 281.6,28.7 275.1,35.2 275.1,68.9 				"/>
				<path class="st36" d="M344.9,27.5c0.7,0,1.2,0.6,1.2,1.2c0,0.7-0.6,1.2-1.2,1.2c-0.7,0-1.2-0.6-1.2-1.2c0,0,0,0,0,0
					C343.7,28,344.2,27.5,344.9,27.5z"/>
				<path class="st36" d="M273.9,68.9c0,0.7,0.6,1.2,1.2,1.2c0.7,0,1.2-0.6,1.2-1.2c0-0.7-0.6-1.2-1.2-1.2l0,0
					C274.4,67.6,273.9,68.2,273.9,68.9z"/>
				<polyline class="st25" points="345,28.7 281.6,28.7 275.1,35.2 241,35.2 				"/>
				<path class="st36" d="M344.9,27.5c0.7,0,1.2,0.6,1.2,1.2c0,0.7-0.6,1.2-1.2,1.2c-0.7,0-1.2-0.6-1.2-1.2c0,0,0,0,0,0
					C343.7,28,344.2,27.5,344.9,27.5z"/>
				<path class="st36" d="M241.1,33.9c-0.7,0-1.2,0.6-1.2,1.2c0,0.7,0.6,1.2,1.2,1.2c0.7,0,1.2-0.6,1.2-1.2
					C242.3,34.5,241.8,33.9,241.1,33.9z"/>
				<polyline class="st25" points="214.9,100.9 230,100.9 237.6,93.3 254.4,93.3 				"/>
				<path class="st36" d="M215,102.2c-0.7,0-1.2-0.6-1.2-1.2s0.6-1.2,1.2-1.2c0.7,0,1.2,0.6,1.2,1.2S215.7,102.2,215,102.2
					L215,102.2z"/>
				<path class="st36" d="M254.3,94.6c0.7,0,1.2-0.6,1.2-1.2s-0.6-1.2-1.2-1.2c-0.7,0-1.2,0.6-1.2,1.2S253.6,94.6,254.3,94.6
					L254.3,94.6z"/>
				<polyline class="st25" points="180.1,91.4 170.6,100.9 182.7,100.9 				"/>
				<circle class="st36" cx="180.1" cy="91.4" r="1.2"/>
				<path class="st36" d="M182.7,102.2c0.7,0,1.2-0.6,1.2-1.2s-0.6-1.2-1.2-1.2c-0.7,0-1.2,0.6-1.2,1.2S182,102.2,182.7,102.2
					L182.7,102.2z"/>
				<line class="st25" x1="115.9" y1="140.8" x2="135.6" y2="121.2"/>
				<path class="st36" d="M116.8,141.6c-0.5,0.5-1.3,0.5-1.7,0c0,0,0,0,0,0c-0.5-0.5-0.4-1.3,0.1-1.8c0.5-0.4,1.2-0.4,1.6,0
					C117.3,140.4,117.3,141.2,116.8,141.6C116.8,141.6,116.8,141.6,116.8,141.6z"/>
				<circle class="st36" cx="135.5" cy="121.2" r="1.2"/>
				<polyline class="st25" points="159.9,122.1 147,122.1 141.1,116.2 				"/>
				<path class="st36" d="M159.9,120.8c0.7,0,1.2,0.6,1.2,1.2s-0.6,1.2-1.2,1.2c-0.7,0-1.2-0.6-1.2-1.2
					C158.6,121.4,159.2,120.8,159.9,120.8C159.9,120.8,159.9,120.8,159.9,120.8z"/>
				<path class="st36" d="M142.1,115.4c-0.5-0.5-1.3-0.5-1.7,0c0,0,0,0,0,0c-0.5,0.5-0.5,1.3,0,1.8c0.5,0.5,1.3,0.5,1.8,0
					C142.5,116.7,142.5,115.9,142.1,115.4C142.1,115.4,142.1,115.4,142.1,115.4z"/>
				<polyline class="st25" points="145.4,111.4 153.5,103.2 153.5,114.3 				"/>
				<circle class="st36" cx="145.4" cy="111.3" r="1.2"/>
				<path class="st36" d="M152.3,114.2c0,0.7,0.6,1.2,1.2,1.2c0.7,0,1.2-0.6,1.2-1.2c0-0.7-0.6-1.2-1.2-1.2S152.3,113.5,152.3,114.2
					L152.3,114.2z"/>
			</g>
			<g>
				<defs>
					<rect id="SVGID_00000142875497877433153780000004675291186285843368_" x="111.6" y="106.1" width="414.1" height="137"/>
				</defs>
				<clipPath id="SVGID_00000081644884883362873220000016112223981114157482_">
					<use xlink:href="#SVGID_00000142875497877433153780000004675291186285843368_"  style="overflow:visible;"/>
				</clipPath>
				<g style="clip-path:url(#SVGID_00000081644884883362873220000016112223981114157482_);">
					
						<linearGradient id="SVGID_00000012448841757099212000000018306071820722678169_" gradientUnits="userSpaceOnUse" x1="241.5415" y1="147.0195" x2="221.3115" y2="88.8295" gradientTransform="matrix(1 0 0 -1 0 252)">
						<stop  offset="0" style="stop-color:#6E6E6E"/>
						<stop  offset="1" style="stop-color:#5B5B5B;stop-opacity:0"/>
					</linearGradient>
					
						<rect x="180.7" y="117.6" style="fill:url(#SVGID_00000012448841757099212000000018306071820722678169_);" width="91.3" height="62.1"/>
					
						<linearGradient id="SVGID_00000013882354333859660440000010431369484829415070_" gradientUnits="userSpaceOnUse" x1="142.8019" y1="48.3408" x2="155.3819" y2="17.0208" gradientTransform="matrix(1 0 0 -1 0 252)">
						<stop  offset="0" style="stop-color:#6E6E6E"/>
						<stop  offset="1" style="stop-color:#5B5B5B;stop-opacity:0"/>
					</linearGradient>
					
						<rect x="122.8" y="213.6" style="fill:url(#SVGID_00000013882354333859660440000010431369484829415070_);" width="59.2" height="28.1"/>
					<line class="st40" x1="182" y1="213.6" x2="122.8" y2="213.6"/>
					
						<linearGradient id="SVGID_00000058574040474656833900000010818629677065852037_" gradientUnits="userSpaceOnUse" x1="402.5119" y1="105.2188" x2="340.1319" y2="1.7388" gradientTransform="matrix(1 0 0 -1 0 252)">
						<stop  offset="0" style="stop-color:#6E6E6E"/>
						<stop  offset="1" style="stop-color:#5B5B5B;stop-opacity:0"/>
					</linearGradient>
					
						<rect x="294.4" y="184.6" style="fill:url(#SVGID_00000058574040474656833900000010818629677065852037_);" width="135.6" height="58"/>
					<line class="st40" x1="430" y1="184.6" x2="294.4" y2="184.6"/>
					
						<linearGradient id="SVGID_00000033341137208132779160000012079767695002416770_" gradientUnits="userSpaceOnUse" x1="248.455" y1="37.73" x2="248.455" y2="-14.91" gradientTransform="matrix(1 0 0 -1 0 252)">
						<stop  offset="0" style="stop-color:#6E6E6E"/>
						<stop  offset="1" style="stop-color:#5B5B5B;stop-opacity:0"/>
					</linearGradient>
					
						<rect x="190.1" y="229.6" style="fill:url(#SVGID_00000033341137208132779160000012079767695002416770_);" width="116.7" height="28.1"/>
					<line class="st40" x1="306.8" y1="229.6" x2="190.1" y2="229.6"/>
					
						<linearGradient id="SVGID_00000065035150939286996860000014207870371783402900_" gradientUnits="userSpaceOnUse" x1="486.8506" y1="43.7797" x2="442.8506" y2="-44.2303" gradientTransform="matrix(1 0 0 -1 0 252)">
						<stop  offset="0" style="stop-color:#6E6E6E"/>
						<stop  offset="1" style="stop-color:#5B5B5B;stop-opacity:0"/>
					</linearGradient>
					
						<rect x="434.5" y="224.9" style="fill:url(#SVGID_00000065035150939286996860000014207870371783402900_);" width="73.9" height="28.1"/>
					<line class="st40" x1="508.4" y1="224.9" x2="434.5" y2="224.9"/>
				</g>
			</g>
			<polygon class="st44" points="517.7,85 278.1,85 310.2,52.9 517.7,52.9 			"/>
			<g>
				<path class="st32" d="M316.4,59.1c3,0,4.2,1.9,4.2,4.8V66c0,3.1-1.4,4.7-4.5,4.7h-2.4v8.1h-1.3V59.1H316.4z M316,69.5
					c2.3,0,3.2-1,3.2-3.4v-2.3c0-2.1-0.7-3.5-2.9-3.5h-2.7v9.2H316z"/>
				<path class="st32" d="M326.9,59.1c3,0,4.2,1.7,4.2,4.4v1.7c0,2.3-0.9,3.6-2.8,4.1c2,0.4,2.8,1.9,2.8,4v3
					c-0.1,0.8,0.1,1.6,0.5,2.3h-1.3c-0.3-0.7-0.5-1.5-0.4-2.3v-3c0-2.6-1.4-3.3-3.7-3.3h-2v8.8h-1.3V59.1H326.9z M326.2,68.8
					c2.3,0,3.6-0.6,3.6-3.3v-1.8c0-2.1-0.8-3.4-3-3.4h-2.8v8.5H326.2z"/>
				<path class="st32" d="M340.6,68.2v1.2h-5.4v8.2h6.4v1.2h-7.7V59.1h7.7v1.2h-6.4v7.9H340.6z"/>
				<path class="st32" d="M348.3,59.1c3,0,4.3,2,4.3,4.9v9.9c0,2.9-1.3,4.9-4.3,4.9H344V59.1H348.3z M348.3,77.6
					c2.2,0,3.1-1.5,3.1-3.6V64c0-2.2-0.9-3.6-3.1-3.6h-3v17.2H348.3z"/>
				<path class="st32" d="M356.4,59.1v19.6h-1.3V59.1H356.4z"/>
				<path class="st32" d="M367.3,63.9v1.6H366v-1.7c0-2.1-0.8-3.7-3-3.7s-3,1.6-3,3.7V74c0,2.1,0.8,3.7,3,3.7s3-1.6,3-3.7v-2.3h1.2
					V74c0,2.8-1.2,5-4.2,5s-4.2-2.1-4.2-5V64c0-2.8,1.2-5,4.2-5S367.3,61.1,367.3,63.9z"/>
				<path class="st32" d="M373,78.7V60.3h-4v-1.2h9.3v1.2h-4v18.4H373z"/>
				<path class="st32" d="M381.4,59.1v19.6h-1.3V59.1H381.4z"/>
				<path class="st32" d="M385,59.1l4,18.1l4-18.1h1.2L390,78.7h-2l-4.3-19.6H385z"/>
				<path class="st32" d="M403,68.2v1.2h-5.4v8.2h6.4v1.2h-7.7V59.1h7.7v1.2h-6.4v7.9H403z"/>
				<path class="st32" d="M411,63.9c0-2.9,1.3-5,4.3-5s4.3,2.1,4.3,5V74c0,2.9-1.3,5-4.3,5s-4.3-2.2-4.3-5V63.9z M412.3,74
					c0,2.1,0.8,3.7,3,3.7s3-1.6,3-3.7V63.8c0-2.1-0.9-3.7-3-3.7s-3,1.6-3,3.7V74z"/>
				<path class="st32" d="M426.1,59.1c3,0,4.2,1.9,4.2,4.8V66c0,3.1-1.4,4.7-4.5,4.7h-2.4v8.1H422V59.1H426.1z M425.8,69.5
					c2.3,0,3.2-1,3.2-3.4v-2.3c0-2.1-0.7-3.5-2.9-3.5h-2.8v9.2H425.8z"/>
				<path class="st32" d="M439.1,68.2v1.2h-5.3v8.2h6.4v1.2h-7.7V59.1h7.7v1.2h-6.4v7.9H439.1z"/>
				<path class="st32" d="M446.7,59.1c3,0,4.2,1.7,4.2,4.4v1.7c0,2.3-0.9,3.6-2.8,4.1c2,0.4,2.8,1.9,2.8,4v3
					c-0.1,0.8,0.1,1.6,0.5,2.3H450c-0.3-0.7-0.5-1.5-0.4-2.3v-3c0-2.6-1.4-3.3-3.7-3.3h-2v8.8h-1.3V59.1H446.7z M446,68.8
					c2.3,0,3.6-0.6,3.6-3.3v-1.8c0-2.1-0.8-3.4-2.9-3.4h-2.8v8.5H446z"/>
				<path class="st32" d="M455.6,74.4l-1,4.3h-1.2l4.3-19.6h1.9l4.4,19.6h-1.3l-1-4.3L455.6,74.4z M455.8,73.3h5.7l-2.9-12.7
					L455.8,73.3z"/>
				<path class="st32" d="M468.4,78.7V60.3h-4v-1.2h9.3v1.2h-4v18.4H468.4z"/>
				<path class="st32" d="M476.9,59.1v19.6h-1.3V59.1H476.9z"/>
				<path class="st32" d="M479.3,63.9c0-2.9,1.3-5,4.3-5s4.3,2.1,4.3,5V74c0,2.9-1.3,5-4.3,5s-4.3-2.1-4.3-5V63.9z M480.6,74
					c0,2.1,0.8,3.7,3,3.7s3-1.6,3-3.7V63.8c0-2.1-0.9-3.7-3-3.7s-3,1.6-3,3.7V74z"/>
				<path class="st32" d="M491.5,78.7h-1.2V59.1h1.6l5.9,16.6V59.1h1.2v19.6h-1.4l-6.1-17.5L491.5,78.7z"/>
				<path class="st32" d="M509.8,63.9v0.4h-1.2v-0.5c0-2.1-0.8-3.6-2.9-3.6s-2.9,1.5-2.9,3.6c0,4.8,7.1,4.8,7.1,10.2
					c0,2.8-1.2,4.9-4.2,4.9s-4.2-2.1-4.2-4.9v-1h1.2v1.1c0,2.1,0.8,3.6,3,3.6s3-1.5,3-3.6c0-4.7-7.1-4.8-7.1-10.2
					c0-2.9,1.3-4.8,4.2-4.9S509.8,61,509.8,63.9z"/>
			</g>
		</g>
	</g>
	<g>
		<path class="st32" d="M316.4,59.1c3,0,4.2,1.9,4.2,4.8V66c0,3.1-1.4,4.7-4.5,4.7h-2.4v8.1h-1.3V59.1H316.4z M316,69.5
			c2.3,0,3.2-1,3.2-3.4v-2.3c0-2.1-0.7-3.5-2.9-3.5h-2.7v9.2L316,69.5z"/>
		<path class="st32" d="M326.9,59.1c3,0,4.2,1.7,4.2,4.4v1.7c0,2.3-0.9,3.6-2.8,4.1c2,0.4,2.8,1.9,2.8,4v3c-0.1,0.8,0.1,1.6,0.5,2.3
			h-1.3c-0.3-0.7-0.5-1.5-0.4-2.3v-3c0-2.6-1.4-3.3-3.7-3.3h-2v8.8h-1.3V59.1H326.9z M326.2,68.8c2.3,0,3.6-0.6,3.6-3.3v-1.9
			c0-2.1-0.8-3.4-2.9-3.4h-2.8v8.5L326.2,68.8z"/>
		<path class="st32" d="M340.6,68.2v1.2h-5.4v8.2h6.4v1.2h-7.7V59.1h7.7v1.2h-6.4v7.9H340.6z"/>
		<path class="st32" d="M348.3,59.1c3,0,4.3,2,4.3,4.9v9.9c0,2.9-1.3,4.9-4.3,4.9H344V59.1H348.3z M348.3,77.6
			c2.2,0,3.1-1.5,3.1-3.6V64c0-2.2-0.9-3.6-3.1-3.6h-3v17.2H348.3z"/>
		<path class="st32" d="M356.4,59.1v19.6h-1.3V59.1H356.4z"/>
		<path class="st32" d="M367.3,63.9v1.6H366v-1.7c0-2.1-0.8-3.7-3-3.7s-3,1.6-3,3.7V74c0,2.1,0.8,3.7,3,3.7s3-1.6,3-3.7v-2.3h1.2
			v2.2c0,2.8-1.2,5-4.2,5s-4.2-2.1-4.2-5v-10c0-2.8,1.2-5,4.2-5S367.3,61.1,367.3,63.9z"/>
		<path class="st32" d="M373,78.7V60.3h-4v-1.2h9.3v1.2h-4v18.4H373z"/>
		<path class="st32" d="M381.4,59.1v19.6h-1.3V59.1H381.4z"/>
		<path class="st32" d="M385,59.1l4,18.1l4-18.1h1.2L390,78.7h-2l-4.3-19.6L385,59.1z"/>
		<path class="st32" d="M403,68.2v1.2h-5.4v8.2h6.4v1.2h-7.7V59.1h7.7v1.2h-6.4v7.9H403z"/>
		<path class="st32" d="M411,63.9c0-2.9,1.3-5,4.3-5s4.3,2.1,4.3,5v10c0,2.9-1.3,5-4.3,5s-4.3-2.1-4.3-5V63.9z M412.3,74
			c0,2.1,0.8,3.7,3,3.7s3-1.6,3-3.7V63.8c0-2.1-0.9-3.7-3-3.7s-3,1.6-3,3.7V74z"/>
		<path class="st32" d="M426.1,59.1c3,0,4.2,1.9,4.2,4.8V66c0,3.1-1.4,4.7-4.5,4.7h-2.4v8.1H422V59.1H426.1z M425.8,69.5
			c2.3,0,3.2-1,3.2-3.4v-2.3c0-2.1-0.7-3.5-2.9-3.5h-2.8v9.2L425.8,69.5z"/>
		<path class="st32" d="M439.1,68.2v1.2h-5.4v8.2h6.4v1.2h-7.7V59.1h7.7v1.2h-6.4v7.9H439.1z"/>
		<path class="st32" d="M446.7,59.1c3,0,4.2,1.7,4.2,4.4v1.7c0,2.3-0.9,3.6-2.8,4.1c2,0.4,2.8,1.9,2.8,4v3c-0.1,0.8,0.1,1.6,0.5,2.3
			H450c-0.3-0.7-0.5-1.5-0.4-2.3v-3c0-2.6-1.4-3.3-3.7-3.3h-2v8.8h-1.3V59.1H446.7z M446,68.8c2.3,0,3.6-0.6,3.6-3.3v-1.9
			c0-2.1-0.8-3.4-2.9-3.4h-2.8v8.5L446,68.8z"/>
		<path class="st32" d="M455.6,74.4l-1,4.3h-1.2l4.3-19.6h1.9l4.4,19.6h-1.3l-1-4.3H455.6z M455.8,73.3h5.7l-2.9-12.7L455.8,73.3z"
			/>
		<path class="st32" d="M468.4,78.7V60.3h-4v-1.2h9.3v1.2h-4v18.4H468.4z"/>
		<path class="st32" d="M476.9,59.1v19.6h-1.3V59.1H476.9z"/>
		<path class="st32" d="M479.3,63.9c0-2.9,1.3-5,4.3-5s4.3,2.1,4.3,5v10c0,2.9-1.3,5-4.3,5s-4.3-2.1-4.3-5V63.9z M480.6,74
			c0,2.1,0.8,3.7,3,3.7s3-1.6,3-3.7V63.8c0-2.1-0.9-3.7-3-3.7s-3,1.6-3,3.7V74z"/>
		<path class="st32" d="M491.5,78.7h-1.2V59.1h1.6l5.9,16.5V59.1h1.2v19.6h-1.4l-6.1-17.5L491.5,78.7z"/>
		<path class="st32" d="M509.9,63.9v0.4h-1.2v-0.5c0-2.1-0.8-3.6-2.9-3.6s-2.9,1.5-2.9,3.6c0,4.8,7.1,4.8,7.1,10.2
			c0,2.8-1.2,4.9-4.2,4.9s-4.2-2.1-4.2-4.9v-1h1.2v1.1c0,2.1,0.8,3.6,3,3.6s3-1.5,3-3.6c0-4.7-7.1-4.8-7.1-10.2
			c0-2.9,1.3-4.8,4.2-4.9S509.9,61,509.9,63.9z"/>
	</g>
</g>
</svg>
