<svg xmlns="http://www.w3.org/2000/svg" xmlns:xlink="http://www.w3.org/1999/xlink" viewBox="0 0 159.5 146.86"><defs><clipPath id="a"><circle cx="254.29" cy="76.51" r="70" fill="none"/></clipPath><linearGradient id="b" x1="252.44" y1="-69.85" x2="252.44" y2="88.08" gradientUnits="userSpaceOnUse"><stop offset="0" stop-color="#00b6ff"/><stop offset="0" stop-color="#52a0ff"/><stop offset="1" stop-color="#d7f2ff"/></linearGradient><clipPath id="c"><circle cx="84.92" cy="73.43" r="70" fill="none"/></clipPath><linearGradient id="d" x1="81.17" y1="-13.84" x2="81.17" y2="97.55" xlink:href="#b"/><linearGradient id="e" x1="57.44" y1="-37.78" x2="95.84" y2="58.7" gradientUnits="userSpaceOnUse"><stop offset="0" stop-color="#00b6ff"/><stop offset="1" stop-color="#42004e"/></linearGradient><linearGradient id="g" x1="60.54" y1="-33.74" x2="95.16" y2="53.24" xlink:href="#e"/><linearGradient id="h" x1="81.91" y1="136.12" x2="81.91" y2="61.61" gradientUnits="userSpaceOnUse"><stop offset="0" stop-color="#bd03ad"/><stop offset="1" stop-color="#250254"/></linearGradient><clipPath id="i"><path d="M62.69,46.06s-1.24-5.18,0-7.5c1.63-3.12,1.74-6.36.61-8.47A7.32,7.32,0,0,0,60,26.88c-1.33-.77-7.47-2.55-9.11,0a50,50,0,0,0-3.57,7.82c-.79,1.84-8.74,7.55-10.54,10.48-2.47,4,1.69,12,1.69,12L53.9,56.09Z" fill="#441f32" clip-rule="evenodd"/></clipPath><radialGradient id="j" cx="53.3" cy="29.05" r="10.99" gradientUnits="userSpaceOnUse"><stop offset="0" stop-color="#b99bc8"/><stop offset="1" stop-color="#fff"/></radialGradient><clipPath id="k"><path d="M117.3,117.11v.32A4.67,4.67,0,0,0,122,122.1h27.38a4.67,4.67,0,0,0,4.68-4.67v-.32Z" fill="#fff" clip-rule="evenodd"/></clipPath><clipPath id="l"><path d="M105.9,80.82s-4.79-1.88-5.6-2c-1.08-.15-2.9.74-5.4,2C91.5,82.5,91.06,83,91.06,83L87.79,85.6a1.64,1.64,0,0,0,1.57-.13,6.39,6.39,0,0,1,2.6-1.3c.41-.11,1-.21,1.46-.37,1.78-.65,1.28-.18,1.28-.18a6.38,6.38,0,0,0-.76,1.64c-.07.93.62.48.62.48a4.58,4.58,0,0,0,.9-1c.35-.5,1.35-.57,1.76-.82.83-.5,2.12-1.43,2.12-1.43l6.22,2.18c.5.19,1.64-1.64,1.64-1.64Z" fill="#e78c66" clip-rule="evenodd"/></clipPath><clipPath id="m"><path d="M120.89,63a18.63,18.63,0,0,1,2.77,5.11c.2.54,5.17-3.08,5.17-3.08L130.48,64s-.82-1.15-1.58-2.4a4,4,0,0,1-.36-2.27c-.1-.46-3.38-2.75-3.38-2.75S120.76,62.79,120.89,63Z" fill="#ffd5c4" clip-rule="evenodd"/></clipPath><clipPath id="n"><path d="M128,61.47l-5.74,4.17.41,1.71a46.67,46.67,0,0,1-4.37,5.54c-3.35,3.83-7.31,9.5-7.31,9.5L104.2,80l-1.33,5.3c0-1,6.49,4.15,8.43,4.4s12.64-8.47,12.64-8.47a32.24,32.24,0,0,0,3.56,5.12c1.7,1.81,5.26,10.39,5.26,10.39s0,2.83-.06,3.56a3.21,3.21,0,0,1-.14,1s-13.63-2.74-17.5-3.77c-5.71-1.51-11.26-.91-13,3.69-1.36,3.49-5.33,19.28-5.33,19.28s-1.38,4.88-2.39,10.19c-.07.33,1.33.36,1.27.69-1.14,5.94-2.3,12-2.3,12s1.67.35,4.37.75a23.12,23.12,0,0,0,4,.28s3-9.13,4.51-13.75,4-13.53,4-13.53H146s6-.4,6.35-7.24S147.24,82,143.69,75.76s-10.41-11.1-11.62-11.83A23.18,23.18,0,0,1,128.79,61Z" fill="none" clip-rule="evenodd"/></clipPath><clipPath id="p"><path d="M133.8,71.66c.9-2.93-1.42-7.74-4.65-7.39S114.9,76.63,113.51,78.36s-5.26,3.21-5.26,3.21a2.89,2.89,0,0,0-3.62,2.32,9.42,9.42,0,0,0,.61,6.15s7.27.63,9.23-.27,8.57-7,11.54-10C128.47,77.31,132.9,74.58,133.8,71.66Z" fill="#7362c9" clip-rule="evenodd"/></clipPath><clipPath id="q"><path d="M129.25,59.63a6.15,6.15,0,0,0,3.49-3.14,10,10,0,0,0,.36-1.3,7.92,7.92,0,0,0,.11-1.75A3.42,3.42,0,0,0,133,52a5.85,5.85,0,0,0-1.82-1.75c-2.45-1.77-7.33-1.87-8.19-1.09a2.4,2.4,0,0,0-.62,1.37l-1.09,1c-.71.67-1.23.74-1.16,1.16a11.14,11.14,0,0,1,.2,1.92c-.07.13-.45.16-1,.54s-1.72,1.34-2,1.64-.57.44-.13.76,1,.68,1,.68a6.69,6.69,0,0,1-.14,1.5,10,10,0,0,1-.88,1.3,1.72,1.72,0,0,0,.2,2.53c1.17,1.06,4.24.71,5.59,0s2.3-2.11,2.12-2.73a10.47,10.47,0,0,1-.07-3.15s3,2.34,3.37,2.79Z" fill="none" clip-rule="evenodd"/></clipPath><linearGradient id="r" x1="121.63" y1="56.03" x2="125.87" y2="56.03" gradientUnits="userSpaceOnUse"><stop offset="0" stop-color="#f9c2c2"/><stop offset="1" stop-color="#fff"/></linearGradient><clipPath id="s"><path d="M59.64,55.89c-.06-.07-1.37,1.77-2.82,2.32a11.32,11.32,0,0,1-4.54.7c-.68,0-1.84,1.17-2.33,1.51s-2.46,1.8-4.63,3.63-6,4.53-6,6.25S48,120.8,51.48,133.17s5.15,16.8,8.36,18.64,6.08,2.87,6.45,3.53a1.9,1.9,0,0,1,.3,1.11s-7.74.17-9.47,0a3.71,3.71,0,0,1-3-1.51,6.29,6.29,0,0,0-.81-1l-.3,2.12-1.91-.31s-.32-1.76-.71-3.72a18.84,18.84,0,0,1-.1-4.74c0-1.11-.1-.91-.1-.91l-2.62-.2s-4-10.61-5.74-16.12c-1.91-5.88-7.64-22.57-9.38-28S28.2,83.7,28.2,83.7,26.82,89.88,27,103s.62,46.24.62,46.24l-.71.11a12.77,12.77,0,0,1,.41,3.92c-.23,1.52-.31,4.54-.31,4.54l-.5.3-.6-.8s.56.55-1.11,1-8,.2-8,.2a6.16,6.16,0,0,1,1.71-3.12,8.69,8.69,0,0,0,2.32-3.73c.1-.54.3-1.41.3-1.41L20,149.3s-.37-13.4-1.66-22.55c-2.6-18.46-8.83-44.86-2.77-57.56C19,62,28.24,57.08,30.75,53.84c4-5.09,6.51-10.74,10.25-13.47s5.68-2.06,7.56-2.11c4.95-.13,9.71,1.78,13.49,10" fill="none" clip-rule="evenodd"/></clipPath><radialGradient id="t" cx="-2210.35" cy="1038.51" r="8.99" gradientTransform="matrix(3.25, -0.22, 0.13, 1.9, 7077.68, -2391.81)" gradientUnits="userSpaceOnUse"><stop offset="0" stop-color="#dec9e1"/><stop offset="1" stop-color="#fff"/></radialGradient><linearGradient id="u" x1="210.95" y1="398.03" x2="210.95" y2="350.31" gradientTransform="translate(-176.57 -248.78)" gradientUnits="userSpaceOnUse"><stop offset="0" stop-color="#dfcae2"/><stop offset="0.6" stop-color="#f4edf5"/><stop offset="1" stop-color="#fff"/></linearGradient><clipPath id="v"><path d="M46.32,85.21S48.67,54,48.44,48.66s.05-11-4.72-9.7c-2.89.78-4.14,2.62-2.67,13.56,1.26,9.42,1.41,31.13,1.25,31.79s-.44,1.22-1.91,1.2a5.41,5.41,0,0,0-3,.61,18.85,18.85,0,0,0-2.11,2v.41h9.86s1.49,0,1.61-.81A8.82,8.82,0,0,0,46.32,85.21Z" fill="none" clip-rule="evenodd"/></clipPath><clipPath id="w"><path d="M60.42,29a17.3,17.3,0,0,1,1.43,3.74c.12,1.12-.44,2.13-.27,2.41a2,2,0,0,1,.18,1.15,6.22,6.22,0,0,1-.45,2c-.32.84-2.09,3.42-3,3.46-1.13,0-1.08-.2-1.42-.16v-.09c0-.07-.08-.19.09.44a9.8,9.8,0,0,1,.5,5.21,52.42,52.42,0,0,1-2.11,7A72.67,72.67,0,0,0,51.88,43.6c-.66-1.39-2.81-5.35-2.81-5.35a7.33,7.33,0,0,1,1.5-.1c.55,0,1,0,1.31-.3l.5-.48-.09-.27-.18-.53s-2.16-2-.94-3.55c.88-1.14,1.75,1.06,1.74,1.06s3-1.51,5.19-2.67A6.51,6.51,0,0,0,60.42,29Z" fill="none" clip-rule="evenodd"/></clipPath><radialGradient id="x" cx="57.1" cy="34.1" r="21.99" gradientUnits="userSpaceOnUse"><stop offset="0.19" stop-color="#db93a9"/><stop offset="0.8" stop-color="#fefbfc"/></radialGradient><radialGradient id="y" cx="61.14" cy="35.1" r="4.48" gradientUnits="userSpaceOnUse"><stop offset="0" stop-color="#4d454d"/><stop offset="1"/></radialGradient><linearGradient id="z" x1="52.54" y1="36.21" x2="58.71" y2="36.21" gradientUnits="userSpaceOnUse"><stop offset="0" stop-color="#f3e0e6"/><stop offset="1" stop-color="#e6b6c5"/></linearGradient></defs><g style="isolation:isolate"><g clip-path="url(#a)"><rect x="138.86" y="-26.35" width="227.16" height="185.98" fill="url(#b)"/></g><polyline points="33.72 104.8 2.98 142.68 47.7 119.56" fill="#fff"/><g clip-path="url(#c)"><rect x="-32.4" y="-23.28" width="227.16" height="185.98" fill="url(#d)"/><rect x="53.05" y="15.24" width="71.77" height="52.21" fill="url(#e)"/><line x1="59.91" y1="46.3" x2="77.24" y2="46.3" fill="none" stroke="#0084ef" stroke-miterlimit="10" stroke-width="0.8" stroke-dasharray="17.33"/><line x1="59.91" y1="43.87" x2="66.4" y2="43.87" fill="none" stroke="#0084ef" stroke-miterlimit="10" stroke-width="0.8" stroke-dasharray="18.14 4.54 13.61 5.44"/><line x1="59.91" y1="40.86" x2="73.25" y2="40.86" fill="none" stroke="#0084ef" stroke-miterlimit="10" stroke-width="0.8" stroke-dasharray="13.34"/><line x1="59.91" y1="38.43" x2="70.63" y2="38.43" fill="none" stroke="#0084ef" stroke-miterlimit="10" stroke-width="0.8" stroke-dasharray="18.14 4.54 13.61 5.44"/><line x1="59.91" y1="35.41" x2="68.98" y2="35.41" fill="none" stroke="#0084ef" stroke-miterlimit="10" stroke-width="0.8"/><line x1="70.24" y1="35.41" x2="74.78" y2="35.41" fill="none" stroke="#0084ef" stroke-miterlimit="10" stroke-width="0.8" stroke-dasharray="3.78 1.51"/><line x1="75.54" y1="35.41" x2="84.61" y2="35.41" fill="none" stroke="#0084ef" stroke-miterlimit="10" stroke-width="0.8"/><line x1="59.91" y1="32.98" x2="73.82" y2="32.98" fill="none" stroke="#0084ef" stroke-miterlimit="10" stroke-width="0.8" stroke-dasharray="18.14 4.54 13.61 5.44"/><line x1="59.91" y1="29.97" x2="68.98" y2="29.97" fill="none" stroke="#0084ef" stroke-miterlimit="10" stroke-width="0.8"/><line x1="70.61" y1="29.97" x2="76.46" y2="29.97" fill="none" stroke="#0084ef" stroke-miterlimit="10" stroke-width="0.8" stroke-dasharray="4.88 1.95"/><line x1="77.44" y1="29.97" x2="86.51" y2="29.97" fill="none" stroke="#0084ef" stroke-miterlimit="10" stroke-width="0.8"/><line x1="59.91" y1="27.54" x2="76.24" y2="27.54" fill="none" stroke="#0084ef" stroke-miterlimit="10" stroke-width="0.8" stroke-dasharray="18.14 4.54 13.61 5.44"/><line x1="59.91" y1="24.53" x2="68.98" y2="24.53" fill="none" stroke="#0084ef" stroke-miterlimit="10" stroke-width="0.8"/><line x1="72.28" y1="24.53" x2="84.16" y2="24.53" fill="none" stroke="#0084ef" stroke-miterlimit="10" stroke-width="0.8" stroke-dasharray="9.9 3.96"/><line x1="86.14" y1="24.53" x2="95.21" y2="24.53" fill="none" stroke="#0084ef" stroke-miterlimit="10" stroke-width="0.8"/><line x1="59.91" y1="22.1" x2="92.04" y2="22.1" fill="none" stroke="#0084ef" stroke-miterlimit="10" stroke-width="0.8" stroke-dasharray="18.14 4.54 13.61 5.44"/><line x1="114.25" y1="35.93" x2="118.11" y2="35.93" fill="none" stroke="#643eef" stroke-miterlimit="10" stroke-width="0.8"/><line x1="114.25" y1="37.98" x2="119.98" y2="37.98" fill="none" stroke="#643eef" stroke-miterlimit="10" stroke-width="0.8"/><line x1="105.37" y1="40.03" x2="118.11" y2="40.03" fill="none" stroke="#643eef" stroke-miterlimit="10" stroke-width="0.8"/><line x1="69.91" y1="56.61" x2="69.91" y2="60.4" fill="none" stroke="#c53dcd" stroke-miterlimit="10" stroke-width="1.6"/><line x1="73.07" y1="56.61" x2="73.07" y2="60.4" fill="none" stroke="#c53dcd" stroke-miterlimit="10" stroke-width="1.6"/><line x1="76.24" y1="53.5" x2="76.24" y2="60.4" fill="none" stroke="#c53dcd" stroke-miterlimit="10" stroke-width="1.6"/><line x1="79.4" y1="56.61" x2="79.4" y2="60.4" fill="none" stroke="#c53dcd" stroke-miterlimit="10" stroke-width="1.6"/><line x1="82.56" y1="49.05" x2="82.56" y2="60.4" fill="none" stroke="#c53dcd" stroke-miterlimit="10" stroke-width="1.6"/><line x1="85.72" y1="45.65" x2="85.72" y2="60.4" fill="none" stroke="#c53dcd" stroke-miterlimit="10" stroke-width="1.6"/><line x1="88.88" y1="50.33" x2="88.88" y2="60.4" fill="none" stroke="#c53dcd" stroke-miterlimit="10" stroke-width="1.6"/><line x1="92.04" y1="43.76" x2="92.04" y2="60.4" fill="none" stroke="#c53dcd" stroke-miterlimit="10" stroke-width="1.6"/><line x1="95.21" y1="53.5" x2="95.21" y2="60.4" fill="none" stroke="#c53dcd" stroke-miterlimit="10" stroke-width="1.6"/><line x1="98.37" y1="39.99" x2="98.37" y2="60.4" fill="none" stroke="#c53dcd" stroke-miterlimit="10" stroke-width="1.6"/><line x1="101.53" y1="47.53" x2="101.53" y2="60.4" fill="none" stroke="#c53dcd" stroke-miterlimit="10" stroke-width="1.6"/><line x1="104.69" y1="39.05" x2="104.69" y2="60.4" fill="none" stroke="#c53dcd" stroke-miterlimit="10" stroke-width="1.6"/><line x1="107.85" y1="45.65" x2="107.85" y2="60.4" fill="none" stroke="#c53dcd" stroke-miterlimit="10" stroke-width="1.6"/><line x1="111.02" y1="53.5" x2="111.02" y2="60.4" fill="none" stroke="#c53dcd" stroke-miterlimit="10" stroke-width="1.6"/><rect x="-32.4" y="-23.28" width="227.16" height="185.98" fill="url(#d)"/><rect x="53.05" y="15.46" width="71.77" height="44.26" fill="url(#g)"/><line x1="58.22" y1="33.19" x2="67.29" y2="33.19" fill="none" stroke="#0084ef" stroke-miterlimit="10" stroke-width="0.8"/><line x1="67.46" y1="33.19" x2="68.07" y2="33.19" fill="none" stroke="#0084ef" stroke-miterlimit="10" stroke-width="0.8" stroke-dasharray="0.51 0.2"/><line x1="68.17" y1="33.19" x2="77.24" y2="33.19" fill="none" stroke="#0084ef" stroke-miterlimit="10" stroke-width="0.8"/><line x1="58.22" y1="30.76" x2="72.13" y2="30.76" fill="none" stroke="#0084ef" stroke-miterlimit="10" stroke-width="0.8" stroke-dasharray="18.14 4.54 13.61 5.44"/><line x1="58.22" y1="27.75" x2="67.29" y2="27.75" fill="none" stroke="#0084ef" stroke-miterlimit="10" stroke-width="0.8"/><line x1="68.92" y1="27.75" x2="74.77" y2="27.75" fill="none" stroke="#0084ef" stroke-miterlimit="10" stroke-width="0.8" stroke-dasharray="4.88 1.95"/><line x1="75.75" y1="27.75" x2="84.82" y2="27.75" fill="none" stroke="#0084ef" stroke-miterlimit="10" stroke-width="0.8"/><line x1="58.22" y1="25.32" x2="74.55" y2="25.32" fill="none" stroke="#0084ef" stroke-miterlimit="10" stroke-width="0.8" stroke-dasharray="18.14 4.54 13.61 5.44"/><line x1="58.22" y1="22.31" x2="67.29" y2="22.31" fill="none" stroke="#0084ef" stroke-miterlimit="10" stroke-width="0.8"/><line x1="70.59" y1="22.31" x2="82.47" y2="22.31" fill="none" stroke="#0084ef" stroke-miterlimit="10" stroke-width="0.8" stroke-dasharray="9.9 3.96"/><line x1="84.45" y1="22.31" x2="93.52" y2="22.31" fill="none" stroke="#0084ef" stroke-miterlimit="10" stroke-width="0.8"/><line x1="58.22" y1="19.88" x2="90.36" y2="19.88" fill="none" stroke="#0084ef" stroke-miterlimit="10" stroke-width="0.8" stroke-dasharray="18.14 4.54 13.61 5.44"/><line x1="115.48" y1="22.98" x2="119.34" y2="22.98" fill="none" stroke="#643eef" stroke-miterlimit="10" stroke-width="0.8"/><line x1="115.48" y1="25.03" x2="121.2" y2="25.03" fill="none" stroke="#643eef" stroke-miterlimit="10" stroke-width="0.8"/><line x1="106.59" y1="27.08" x2="119.34" y2="27.08" fill="none" stroke="#643eef" stroke-miterlimit="10" stroke-width="0.8"/><line x1="71.13" y1="43.66" x2="71.13" y2="47.46" fill="none" stroke="#c53dcd" stroke-miterlimit="10" stroke-width="1.6"/><line x1="74.3" y1="43.66" x2="74.3" y2="47.46" fill="none" stroke="#c53dcd" stroke-miterlimit="10" stroke-width="1.6"/><line x1="77.46" y1="40.55" x2="77.46" y2="47.46" fill="none" stroke="#c53dcd" stroke-miterlimit="10" stroke-width="1.6"/><line x1="80.62" y1="43.66" x2="80.62" y2="47.46" fill="none" stroke="#c53dcd" stroke-miterlimit="10" stroke-width="1.6"/><line x1="83.78" y1="36.1" x2="83.78" y2="47.46" fill="none" stroke="#c53dcd" stroke-miterlimit="10" stroke-width="1.6"/><line x1="86.94" y1="32.7" x2="86.94" y2="47.46" fill="none" stroke="#c53dcd" stroke-miterlimit="10" stroke-width="1.6"/><line x1="90.1" y1="37.39" x2="90.1" y2="47.46" fill="none" stroke="#c53dcd" stroke-miterlimit="10" stroke-width="1.6"/><line x1="93.27" y1="30.82" x2="93.27" y2="47.46" fill="none" stroke="#c53dcd" stroke-miterlimit="10" stroke-width="1.6"/><line x1="96.43" y1="40.55" x2="96.43" y2="47.46" fill="none" stroke="#c53dcd" stroke-miterlimit="10" stroke-width="1.6"/><line x1="99.59" y1="27.05" x2="99.59" y2="47.46" fill="none" stroke="#c53dcd" stroke-miterlimit="10" stroke-width="1.6"/><line x1="102.75" y1="34.59" x2="102.75" y2="47.46" fill="none" stroke="#c53dcd" stroke-miterlimit="10" stroke-width="1.6"/><line x1="105.91" y1="26.1" x2="105.91" y2="47.46" fill="none" stroke="#c53dcd" stroke-miterlimit="10" stroke-width="1.6"/><line x1="109.08" y1="32.7" x2="109.08" y2="47.46" fill="none" stroke="#c53dcd" stroke-miterlimit="10" stroke-width="1.6"/><line x1="112.24" y1="40.55" x2="112.24" y2="47.46" fill="none" stroke="#c53dcd" stroke-miterlimit="10" stroke-width="1.6"/><g opacity="0.85"><rect x="36.16" y="92.68" width="91.52" height="66.96" fill="url(#h)"/></g><g style="mix-blend-mode:multiply"><rect x="36.16" y="90.93" width="91.52" height="6.8" fill="#b3b7cb"/></g><rect x="32.42" y="88.53" width="98.99" height="4.15" fill="#938bc4"/><path d="M62.69,46.06s-1.24-5.18,0-7.5c1.63-3.12,1.74-6.36.61-8.47A7.32,7.32,0,0,0,60,26.88c-1.33-.77-7.47-2.55-9.11,0a50,50,0,0,0-3.57,7.82c-.79,1.84-8.74,7.55-10.54,10.48-2.47,4,1.69,12,1.69,12L53.9,56.09Z" fill="#441f32" fill-rule="evenodd"/><g clip-path="url(#i)"><path d="M52.19,25.89s-2.66,1.33-.66,6.84-.47,7.45-.47,7.45-5.05.4-5.64-.69a22.91,22.91,0,0,1-2-4.47,4.75,4.75,0,0,1,.46-2.58A13.85,13.85,0,0,1,46.71,29C47.89,27.81,51.64,23,52.19,25.89Z" fill-rule="evenodd" opacity="0.6" fill="url(#j)" style="mix-blend-mode:multiply"/></g><path d="M60.35,29s2.34,1.56,2.62,3.62a13,13,0,0,1-.51,4.94,25,25,0,0,0-.91,3.63c0,.66.51,2,.41,2s-13.2-3.32-13.2-3.32l-1.21-1.51a12.45,12.45,0,0,0,1.81-2.12c.56-.94,1.72-2.82,1.72-2.82l1.51,1.51s4.43-1.66,5.14-2.32,2.21-2.31,2.21-2.31Z" fill="#b99bc8" fill-rule="evenodd" style="mix-blend-mode:multiply"/><path d="M98.73,143.5s-.32,2.06-.55,4.1-.27,5.4-.27,5.4a33.06,33.06,0,0,1-4,.28c-1.51-.05-6.81,0-9,.06a7,7,0,0,1-3.07-.34,3.7,3.7,0,0,1,3-2.25,12.86,12.86,0,0,0,5.34-2.05c2-1.18,2.77-1.91,3-4,.27-2.42.71-5,.69-4.72l5.74.69Z" fill="#371223" fill-rule="evenodd"/><path d="M101.91,132.69s-.91,1.87-1.72,3.75-1.85,5.08-1.85,5.08a34.26,34.26,0,0,1-3.86-.9c-1.43-.49-6.09-3.58-7.86-4.89a7.06,7.06,0,0,1-2.18-2.19,3.72,3.72,0,0,1,3.75.12,5.18,5.18,0,0,0,4.54.82c2.21-.55,2.72-.35,3.54-2.24,1-2.24,2.14-4.56,2-4.3l5.27,2.34Z" fill="#371223" fill-rule="evenodd"/><path d="M156.23,125.44H140.91a1.84,1.84,0,0,1,0-3.67h15.32c2.32,0,4.68-2.61,4.73-5.2l-1.8-16.65c0-.07,0-.13,0-.2,0-1.92-1-3.26-2.25-4.81A20.75,20.75,0,0,1,155.51,93a1.84,1.84,0,0,1,3.11-2,19.42,19.42,0,0,0,1.17,1.6c1.34,1.71,3,3.84,3,7l1.8,16.66a1.27,1.27,0,0,1,0,.2C164.63,121.08,160.55,125.44,156.23,125.44Z" fill="#53445a"/><path d="M133.4,121.64h4.29v27.77H133.4Z" fill="#abb2c8" fill-rule="evenodd"/><path d="M131.91,148.21h7.22l.27,0V147.1a2.3,2.3,0,0,0-2.29-2.29H134a2.3,2.3,0,0,0-2.3,2.29v1.12Z" fill="#53445a" fill-rule="evenodd"/><path d="M123.61,67.49l-1.37.27s1.2,15.27,1,18.46,1,10.11,1,10.11l1.3,1.71,1.78-4.44s-1.67-14.41-2.4-18.73S123.61,67.49,123.61,67.49Z" fill="#250254" fill-rule="evenodd"/><path d="M128.15,120.33h14.63a1.81,1.81,0,0,1,0,3.62H128.15a1.81,1.81,0,0,1,0-3.62Z" fill="#53445a" fill-rule="evenodd"/><path d="M117.3,117.11v.32A4.67,4.67,0,0,0,122,122.1h27.38a4.67,4.67,0,0,0,4.68-4.67v-.32Z" fill="#fff" fill-rule="evenodd"/><g clip-path="url(#k)"><path d="M153.56,121.49H117.88l1.65,1.5,32.62.28Z" fill="#53445a" fill-rule="evenodd"/></g><path d="M156.58,67.45l-1.57.14c-1.88.18-4.85,2.18-4.67,4.06l3.3,35.72c.18,1.88,3.45,2.88,5.33,2.7l1.57-.14Z" fill="none" fill-rule="evenodd"/><path d="M134.48,121.83h2.11c1.55,0,2.8.44,2.8,2V125a2.8,2.8,0,0,1-2.8,2.81h-2.11a2.81,2.81,0,0,1-2.81-2.81v-1.22C131.67,122.27,132.93,121.83,134.48,121.83Z" fill="#53445a" fill-rule="evenodd"/><path d="M131.2,50.26c-2.45-1.77-7.33-1.87-8.19-1.09a2.4,2.4,0,0,0-.62,1.37l-1.09,1c-.71.67-1.23.74-1.16,1.16a11.14,11.14,0,0,1,.2,1.92c-.07.13-.45.16-1,.54s-1.72,1.34-2,1.64-.57.44-.13.76,1,.68,1,.68a6.69,6.69,0,0,1-.14,1.5,10,10,0,0,1-.88,1.3,1.72,1.72,0,0,0,.2,2.53c1.17,1.06,4.24.71,5.59,0s2.3-2.11,2.12-2.73a10.47,10.47,0,0,1-.07-3.15" fill="#e78c66" fill-rule="evenodd"/><path d="M105.9,80.82s-4.79-1.88-5.6-2c-1.08-.15-2.9.74-5.4,2C91.5,82.5,91.06,83,91.06,83L87.79,85.6a1.64,1.64,0,0,0,1.57-.13,6.39,6.39,0,0,1,2.6-1.3c.41-.11,1-.21,1.46-.37,1.78-.65,1.28-.18,1.28-.18a6.38,6.38,0,0,0-.76,1.64c-.07.93.62.48.62.48a4.58,4.58,0,0,0,.9-1c.35-.5,1.35-.57,1.76-.82.83-.5,2.12-1.43,2.12-1.43l6.22,2.18c.5.19,1.64-1.64,1.64-1.64Z" fill="#e78c66" fill-rule="evenodd"/><g clip-path="url(#l)"><path d="M95.65,82.46l-1.36,1.43-4.86,2.26L88.27,86A13.31,13.31,0,0,1,90,84.65c.5-.26,1.64-.92,2.26-1.17S95.65,82.46,95.65,82.46Z" fill="#c86f61" fill-rule="evenodd"/><path d="M104,79.79l-1.64,4.38,1.37.27L105.15,82Z" fill="#c86f61" fill-rule="evenodd"/></g><path d="M128,61.47l-5.74,4.17.41,1.71a46.67,46.67,0,0,1-4.37,5.54c-3.35,3.83-7.31,9.5-7.31,9.5L104.2,80l-1.33,5.3c0-1,6.49,4.15,8.43,4.4s12.64-8.47,12.64-8.47a32.24,32.24,0,0,0,3.56,5.12c1.7,1.81,5.26,10.39,5.26,10.39s0,2.83-.06,3.56a3.21,3.21,0,0,1-.14,1s-13.63-2.74-17.5-3.77c-5.71-1.51-11.26-.91-13,3.69-1.36,3.49-5.33,19.28-5.33,19.28s-1.38,4.88-2.39,10.19c-.07.33,1.33.36,1.27.69-1.14,5.94-2.3,12-2.3,12s1.67.35,4.37.75a23.12,23.12,0,0,0,4,.28s3-9.13,4.51-13.75,4-13.53,4-13.53H146s6-.4,6.35-7.24S147.24,82,143.69,75.76s-10.41-11.1-11.62-11.83A23.18,23.18,0,0,1,128.79,61Z" fill="#43316c" fill-rule="evenodd"/><path d="M120.89,63a18.63,18.63,0,0,1,2.77,5.11c.2.54,5.17-3.08,5.17-3.08L130.48,64s-.82-1.15-1.58-2.4a4,4,0,0,1-.36-2.27c-.1-.46-3.38-2.75-3.38-2.75S120.76,62.79,120.89,63Z" fill="#ffd5c4" fill-rule="evenodd"/><g clip-path="url(#m)"><path d="M128.91,62c.2,1.42-5.44,4-5.44,4l-1.71.14-1-1.85s1.05-1.32,1.23-1.5,2.25-3.14,2.25-3.14l1-2.47,3.29,3.27Z" fill="#e78c66" fill-rule="evenodd"/></g><g clip-path="url(#n)"><path d="M150.88,94.69l-19,3L108.8,91.55s-11.2-2.87-10.59-4,1.49-9.28,2.05-9.7,13.63-9.88,14-9.78,12.16-7.45,12.16-7.45l6.22-.68,14,12L152.79,83Z" fill="#7362c9" fill-rule="evenodd"/><path d="M130.78,74.87l-7,9.23-2.25-1.78Z" fill="#51419f" fill-rule="evenodd"/><path d="M119.85,69.47l2.94-2.73a13.63,13.63,0,0,1-.25,2.41c-.27,1.37-1.74,7.63-1.74,7.63s-4.68,6.24-5.46,6.64-7.73,5-7.73,5l-5.87-2.19a20.19,20.19,0,0,1-.41-3.69c.19-.27,1.84-3.08,1.84-3.08l5.06-1.57Z" fill="#7d75d9" fill-rule="evenodd"/></g><path d="M123.61,67.64s-.27-1.5-.68-1.16a6.5,6.5,0,0,0-1,1.71v1.09l2-1.5Z" fill="#250254" fill-rule="evenodd"/><polygon points="159.49 92.89 158.74 91.83 159.66 103.57 160.25 109.95 161.2 109.75 159.49 92.89" fill="#53445a" fill-rule="evenodd"/><g clip-path="url(#n)"><path d="M108.91,106.31s-4.08-2-6.22.42S95.45,132,95.45,132s-2.74,1-2.33-2.53c1-8.32,5.61-25.77,5.61-25.77s3.19-7.51,4.85-7.66.62,3.15.62,4.38C104.19,104.42,108.91,106.31,108.91,106.31Z" fill="#d9d9e0" fill-rule="evenodd" style="mix-blend-mode:multiply"/><path d="M138.78,117.12s-12.87-3.75-17.16-5.27a141.57,141.57,0,0,1-13.46-6s14.94,10.46,16.33,11,9.23,1.37,9.23,1.37Z" fill="#d5c8db" fill-rule="evenodd" style="mix-blend-mode:multiply"/><path d="M132.42,101.19a27,27,0,0,1,4.38,1c1.31.56,4.92,1.51,4.92,1.51s-1.67-2.26-2.8-2.53-6.7-.62-6.7-.62Z" fill="#392664" fill-rule="evenodd"/><path d="M151.22,96.33l-19.07,2.33-.41,1.64L151.22,98Z" fill="#250254" fill-rule="evenodd"/><path d="M136.39,97.63l.13,2.67h-1.23l-.07-2.6Z" fill="#43316c" fill-rule="evenodd"/></g><polygon points="144.59 122.13 126.34 122.14 126.36 121.81 144.59 121.83 144.59 122.13" fill="#53445a" fill-rule="evenodd"/><path d="M133.8,71.66c.9-2.93-1.42-7.74-4.65-7.39S114.9,76.63,113.51,78.36s-5.26,3.21-5.26,3.21a2.89,2.89,0,0,0-3.62,2.32,9.42,9.42,0,0,0,.61,6.15s7.27.63,9.23-.27,8.57-7,11.54-10C128.47,77.31,132.9,74.58,133.8,71.66Z" fill="#7362c9" fill-rule="evenodd"/><g clip-path="url(#p)"><path d="M133.24,64.75l-5.12-1.09-6.43,4L111.1,76.51l-4,2.74-1.85,1.5,2,2.26,4.45-1.51s5.92-6.31,9.43-9.91c4.73-4.83,6.28-7.47,11-7.31Z" fill="#8e91ff" fill-rule="evenodd"/></g><g clip-path="url(#q)"><path d="M124.82,56.89s0-1-.2-2.5.21-2.81-.86-3.51-1.5.34-1.64-.48,3.07-2.94,3.07-2.94,12.42,2.28,12.57,3.21.76,5.16.75,5.61S133.87,62,133.87,62l-6-1.44-.75-.95L127,58s.48.18.82-1c.65-2.23-1.8-1.8-2.19-.82S124.82,56.89,124.82,56.89Z" fill="#483f56" fill-rule="evenodd"/><path d="M121.94,61.59a21.26,21.26,0,0,0,2.12-2.11c1.23-1.38,1.81-7,1.81-7l-1.85-2c-.45.51-2.12,2.21-1.77,3.28s0,1.31,0,1.31a2.12,2.12,0,0,0-.62,1.27,7.88,7.88,0,0,1,.46,1.82C122.16,59.7,121.63,61.59,121.94,61.59Z" fill="url(#r)" style="mix-blend-mode:multiply"/><path d="M117.81,58.53a2,2,0,0,1,.82-.41c.36,0,1.15-.4,1.64.34s1.5,1.07,1.92.55,2.52-2.32,2.52-2.32l.48.54a8.17,8.17,0,0,0-.07,2.67c.25.92.54,1.7-.41,2.53s-2.23,2.46-4.92,2.12-6-.49-5.87-.89a45.54,45.54,0,0,1,2.53-3.83Z" fill="#685b6f" fill-rule="evenodd"/><path d="M121.9,62.77c-1.54.38-4,1.12-4.65.14a1.8,1.8,0,0,1,0-2l-1,1.57,1.3,1.5s1.68.43,1.71.48a5.28,5.28,0,0,0,2.53-.07,16.88,16.88,0,0,0,3.62-1.71l.21-2.18-.28-1.44-.2-1.78-.21-.41s-.41,2-.54,3" fill="#483f56" fill-rule="evenodd"/><path d="M124.58,54.36A44.35,44.35,0,0,0,130,55.73a17.48,17.48,0,0,1,2.87.55,24.21,24.21,0,0,1-1,2.59c-.37.67-2.74,1.92-2.74,1.92l-1.57-.48A14.57,14.57,0,0,1,126,58.67c-.48-.66-1.37-2-1.37-2Z" fill="#685b6f" fill-rule="evenodd"/></g><path d="M125,55.25s2.35-1.2,2.46,0-.18,1.36-1.39,2.05a3.28,3.28,0,0,1-1,.43,8.82,8.82,0,0,1-.07-1.43A6,6,0,0,0,125,55.25Z" fill="#e78c66" fill-rule="evenodd"/><path d="M125.25,55.94s1.41-1,1.77-.62-1.09.75-1.09.75.56,0,.48.21c-.2.44-1.2.63-1.1.34Z" fill="#c86f61" fill-rule="evenodd"/><path d="M120.61,52.18s-.54.11-.54.34a4.66,4.66,0,0,0,.07.61,3.09,3.09,0,0,1,1.43,0,4.18,4.18,0,0,1,1.09,1,6.33,6.33,0,0,0-.61-1.57A5,5,0,0,0,120.61,52.18Z" fill="#282323" fill-rule="evenodd"/><path d="M121,54.36a4.29,4.29,0,0,1-.82.14c-.13,0,.89.34.89.34l1.16.28a1.93,1.93,0,0,0-.47-.48A1.89,1.89,0,0,0,121,54.36Z" fill="#653f39" fill-rule="evenodd"/><path d="M152.16,122.66l-1-.9h-8l-.37,1a10.09,10.09,0,0,0,2.14.6C145.53,123.39,152.16,122.66,152.16,122.66Z" fill="#53445a"/><path d="M66.52,62.55,69,64.92c1,.63,2.29,1.1,4.75-.67s8.89-7.45,10.45-8a8.75,8.75,0,0,1,4.32-.33,33.3,33.3,0,0,0,3.78.51c.44,0,1.26-.44.84-.49s-2.1-.45-2.1-.45,3,.47,3.36-.18.47-1.19-.66-1.34a7.37,7.37,0,0,1-2.33-.83s3,.15,3.24-.23-.39-.61-1.33-.64-2.29-.11-2.92-.16a6.43,6.43,0,0,1-1.08-.17,1.5,1.5,0,0,1,.95-.71,2.17,2.17,0,0,0,1.24-1.46c0-.28-.45,0-1,.27a23.88,23.88,0,0,1-3.4.56c-1.68.37-2.13,1.4-3,2.07-.49.39-7.39,3.65-13,6.27L69.5,57.05" fill="#b15342"/><polygon points="69.5 57.05 59.32 43.59 56.63 52.95 66.52 62.55 69.5 57.05" fill="#fff"/><g clip-path="url(#s)"><path d="M61.05,144.46l-17.13.2L19.74,146s-6.2,7.06-6.15,7.66-.3,7.66-.3,7.66l57.33-1.42-4.73-9.67Z" fill="#3c2435" fill-rule="evenodd"/><path d="M52.39,120.38l6,20.75-1.91,5.54-11.19-.5-15.62,2.72-13,2.12s-2.09-14.38-1.92-15.82-3.52-43.74-3.42-45.34S14.3,67.17,14.3,67.17L24,58.11l18.94,8.26.81,11.38L50,112.42Z" fill="#43316c" fill-rule="evenodd"/><path d="M63.67,69l7-.51.51,1.41L64.07,71Z" fill="#993e3a" fill-rule="evenodd"/><path d="M71.13,68.89l-8.06,1-1-3.32L59.54,57.9l-4,2.22-6.45,3.53-7.25,3.42s-1.17,2.82-6.35,1.72C22.87,66.11,22.76,60,22.76,60l2.62-3.12,7.86-9.17,7.86-9.17L47,35.23l11,1.11L63.27,41s4.09,8.44,4.13,9.27S71.13,68.89,71.13,68.89Z" fill="#fff" fill-rule="evenodd"/><path d="M65.18,62.06c.64,9.42-11.91,17.94-28,19S7.44,75.44,6.8,66s11.91-17.94,28-19S64.54,52.64,65.18,62.06Z" fill="url(#t)" style="mix-blend-mode:multiply"/><path d="M40.5,47l-.15,22.19,2.56-1.73L43.52,58Z" fill="#b397af" fill-rule="evenodd" style="mix-blend-mode:multiply"/><path d="M43.62,55.59s2.64-3.33,6.05-2.93c4.8.58,5.13,2.61,5.74,2.52s2-1.18,3.32-1.1c1.58.08.71,1.91.71,1.91a3.55,3.55,0,0,1-1.21,2.22,39.42,39.42,0,0,1-5.95,3.62L47.55,67l-3.73.51Z" fill="#eee2ec" fill-rule="evenodd" style="mix-blend-mode:multiply"/><path d="M40.09,69.89a12.85,12.85,0,0,1-5.64.4c-3.78-.65-9.29-2.61-10.78-5.33s-1.81-3.53-1.81-3.53l-1.11,1.21a9.06,9.06,0,0,0,4.73,6.75A21.72,21.72,0,0,0,37.57,72c2.3-.28,2.22-.6,2.22-.6Z" fill="#250254" fill-rule="evenodd"/><path d="M26.19,70.6,28,68.18l1.51.51L27.9,71.31Z" fill="#43316c" fill-rule="evenodd"/><path d="M38.2,70.07l-1.7,2.15,1.31,0,1.5-2.36Z" fill="#43316c" fill-rule="evenodd"/><path d="M28.2,85.51s0-4.4,1.41-5.54,2.51-1,5.75-3.22c4.23-2.87,4.93-4.13,4.93-4.13l3.33,16.22L49,111.91l4.63,26.91s2.92,6.55,3,6.75a14.87,14.87,0,0,1,.1,2s-9.34-.9-9.57-.91-4.44-8.76-4.44-8.76l-8.16-29.32Z" fill="#ccb2d3" fill-rule="evenodd" style="mix-blend-mode:multiply"/><rect x="9.58" y="101.55" width="49.58" height="47.72" transform="matrix(1, -0.08, 0.08, 1, -9.32, 2.94)" fill="url(#u)" style="mix-blend-mode:multiply"/><path d="M28.4,83.8a6.66,6.66,0,0,1,.61-3A6.22,6.22,0,0,1,31.63,79S32.21,88.27,33,96.9a114,114,0,0,1,.4,13.5Z" fill="#250254" fill-rule="evenodd"/></g><g clip-path="url(#v)"><path d="M41.3,69.89l6.75.81v1.21L41.4,72Z" fill="#993f3a" fill-rule="evenodd"/><rect x="28.81" y="38.47" width="29.5" height="57.14" fill="#b15342"/><path d="M48.36,71.2l-7-.4L39.19,49.94l.4-8.66L43,38s3.81,0,4.34.31,2.72,11.38,2.72,11.38L49,65.26Z" fill="#fff" fill-rule="evenodd"/></g><path d="M40.37,46.91c-.27-3.38.13-5.63,1.21-6.87a4.38,4.38,0,0,1,3.31-1.37c3-.19,3.29,4.07,3.29,4.11H48s-.28-4.08-3.07-3.91a4.25,4.25,0,0,0-3.17,1.29c-1,1.2-1.41,3.4-1.15,6.72Z" fill="#fff"/><path d="M60.42,29a17.3,17.3,0,0,1,1.43,3.74c.12,1.12-.44,2.13-.27,2.41a2,2,0,0,1,.18,1.15,6.22,6.22,0,0,1-.45,2c-.32.84-2.09,3.42-3,3.46-1.13,0-1.08-.2-1.42-.16v-.09c0-.07-.08-.19.09.44a9.8,9.8,0,0,1,.5,5.21,52.42,52.42,0,0,1-2.11,7A72.67,72.67,0,0,0,51.88,43.6c-.66-1.39-2.81-5.35-2.81-5.35a7.33,7.33,0,0,1,1.5-.1c.55,0,1,0,1.31-.3l.5-.48-.09-.27-.18-.53s-2.16-2-.94-3.55c.88-1.14,1.75,1.06,1.74,1.06s3-1.51,5.19-2.67A6.51,6.51,0,0,0,60.42,29Z" fill="#b15342" fill-rule="evenodd"/><path d="M59.88,37.37s.08.23-.44.27a6.4,6.4,0,0,1-1.25-.27s.6,1.15,1.43,1.07S59.88,37.37,59.88,37.37Z" fill="#e5abbe" fill-rule="evenodd" style="mix-blend-mode:multiply"/><g clip-path="url(#w)"><path d="M48.76,37.15s1.9,2,4.53,8.56a35.41,35.41,0,0,1,2.12,7.16A40.22,40.22,0,0,0,57,47.63a18.49,18.49,0,0,0-.1-6.25L58.23,45l-.81,4.23-1,3.93L54.5,54.78l-1.31-6.05L49.36,41l-1.81-3.33Z" fill="#ddc7e0" fill-rule="evenodd" style="mix-blend-mode:multiply"/><path d="M52.29,37.1a10.92,10.92,0,0,0,2.41,2.77,21.67,21.67,0,0,0,1.92,1.31,2,2,0,0,1,.59.72c.74,1.85,2.47,7,2.17,7.51s-5.37,7.05-5.82,6.7c-.93-.71-6.09-18.14-6.22-18.74S52.29,37.1,52.29,37.1Z" fill-rule="evenodd" fill="url(#x)" style="mix-blend-mode:multiply"/><path d="M52.29,37.1a10.92,10.92,0,0,0,2.41,2.77,21.67,21.67,0,0,0,1.92,1.31,5,5,0,0,1-.49,1.62c-.36.58-1.61.26-2.06-.09a6.29,6.29,0,0,1-1.69-3A19.92,19.92,0,0,1,52.29,37.1Z" fill="#e5abbe" fill-rule="evenodd" style="mix-blend-mode:multiply"/><path d="M62.16,32.64s-.2.89-.86,1.1a2.06,2.06,0,0,0-1.52,1.67c0,.13-.1,2.1-.1,2.1l-.44.12-.47,1.27s9.07,1.91,5.58-5A2.49,2.49,0,0,0,62.16,32.64Z" opacity="0.7" fill="url(#y)" style="mix-blend-mode:screen"/><path d="M55.82,30.43s-.36,1.76.63,2.17c0,0-.84.79-.78,1.06a6.5,6.5,0,0,1,.39,1.56c0,.57-.39,1.61-.39,2.37s.51,2.37,3,4.28c0,0-.3.31-1.22-.1-.31-.13-.91-.62-1.3-.86a12.63,12.63,0,0,1-1.77-1.28,12.87,12.87,0,0,1-1.88-2.12s.43-4.7,1.25-5.28S55.58,30.43,55.82,30.43Z" fill="url(#z)" style="mix-blend-mode:multiply"/></g><path d="M52.49,35s-.26-1.5-.61-1.51-.34.32-.3.6.5.71.5.71-.65-.51-.53,0a2.26,2.26,0,0,0,.94,1.06Z" fill="#973c34" fill-rule="evenodd"/><path d="M58.1,33.19a.71.71,0,0,1,.09.62.46.46,0,0,1-.72.18,4.17,4.17,0,0,0-1.79-.62,6.42,6.42,0,0,0-1.25.17s.73-.78,1.34-.8A13.41,13.41,0,0,1,58.1,33.19Z" fill="#231316" fill-rule="evenodd"/><path d="M62,33.72s.15-.79-.81-.62c-.35.06-1,.36-1,.62s-.05.7.27.54.45-.34.71-.45.28-.27.46-.29S62,33.72,62,33.72Z" fill="#231316" fill-rule="evenodd"/><path d="M60.15,38.44a6.29,6.29,0,0,1-1.61.09,19.2,19.2,0,0,1-2.14-.18s1.33,1.41,2.32,1.34S60.15,38.44,60.15,38.44Z" fill="#fff" fill-rule="evenodd"/><path d="M60.24,38.44s.18-.09-.45-.18-2.27.07-2.68,0a2.62,2.62,0,0,0-.8,0s-.08.17.27.27a29.24,29.24,0,0,0,3,.18A.8.8,0,0,0,60.24,38.44Z" fill="#762c37" fill-rule="evenodd"/><path d="M60.15,38.44s-.47.91-1.25.89a3.16,3.16,0,0,1-1.7-.45c-.34-.27-.71-.53-.71-.53-.16,0,.56,1.58,1.78,1.69.8.07,1.23,0,1.52-.53A2.84,2.84,0,0,0,60.15,38.44Z" fill="#762c37" fill-rule="evenodd"/><path d="M61.4,34.88s-.09,0-.62.09-.6,0-.72.09.15.29.72.35a5,5,0,0,0,1.34-.09Z" fill="#311c25" fill-rule="evenodd"/><path d="M57.38,34.61c-.24,0-.4,0-.62,0a3.79,3.79,0,0,0-.72-.09l-.8-.09a2.57,2.57,0,0,0,.8.6,8.29,8.29,0,0,0,1.79.2Z" fill="#311c25" fill-rule="evenodd"/><g opacity="0.85"><rect x="36.16" y="92.68" width="91.52" height="66.96" fill="url(#h)"/></g><g style="mix-blend-mode:multiply"><rect x="36.16" y="90.93" width="91.52" height="6.8" fill="#b3b7cb"/></g><rect x="32.42" y="88.53" width="98.99" height="4.15" fill="#938bc4"/></g><circle cx="84.92" cy="73.43" r="70" fill="none" stroke="#fff" stroke-miterlimit="10" stroke-width="3.21"/></g></svg>