<svg xmlns="http://www.w3.org/2000/svg" xmlns:xlink="http://www.w3.org/1999/xlink" width="531.33" height="250.41" viewBox="0 0 531.33 250.41"><defs><clipPath id="j"><polygon points="266.4 -600.35 -1485.81 -591.02 -1481.33 581.12 270.88 571.79 266.4 -600.35" fill="none"/></clipPath><clipPath id="k"><polygon points="-1689.07 -824.47 -1682.81 816.73 474.14 805.25 467.88 -835.96 -1689.07 -824.47" fill="none"/></clipPath><clipPath id="l"><rect x="16.76" y="20" width="514.57" height="230.41" fill="none"/></clipPath><linearGradient id="m" x1="106.96" y1="131.28" x2="537.03" y2="131.28" gradientUnits="userSpaceOnUse"><stop offset="0" stop-color="#a100ff"/><stop offset="1" stop-color="#96968c"/></linearGradient><linearGradient id="n" x1="118.32" y1="201.82" x2="142.03" y2="178.11" gradientUnits="userSpaceOnUse"><stop offset="0" stop-color="#939a9a"/><stop offset="1" stop-color="#ccc"/></linearGradient><linearGradient id="o" x1="241.66" y1="60" x2="192.43" y2="109.23" gradientUnits="userSpaceOnUse"><stop offset="0" stop-color="#fff"/><stop offset="1" stop-color="#fff" stop-opacity="0"/></linearGradient><linearGradient id="p" x1="476.34" y1="189.48" x2="476.34" y2="237.42" gradientUnits="userSpaceOnUse"><stop offset="0" stop-color="#3d026e"/><stop offset="1" stop-color="#951abb"/></linearGradient><linearGradient id="q" x1="498.94" y1="189.48" x2="498.94" y2="237.42" xlink:href="#p"/><linearGradient id="r" x1="405.61" y1="110.88" x2="311.39" y2="205.1" xlink:href="#o"/><clipPath id="s"><rect x="111.55" y="106.07" width="414.11" height="137" fill="none"/></clipPath><linearGradient id="t" x1="241.54" y1="104.98" x2="221.31" y2="163.17" gradientUnits="userSpaceOnUse"><stop offset="0" stop-color="#a441cb"/><stop offset="1" stop-color="#6c40b9" stop-opacity="0"/></linearGradient><linearGradient id="u" x1="142.8" y1="203.66" x2="155.38" y2="234.98" xlink:href="#t"/><linearGradient id="v" x1="402.51" y1="146.78" x2="340.13" y2="250.26" xlink:href="#t"/><linearGradient id="w" x1="248.46" y1="214.27" x2="248.46" y2="266.91" xlink:href="#t"/><linearGradient id="x" x1="486.85" y1="208.22" x2="442.85" y2="296.23" xlink:href="#t"/><clipPath id="y"><path d="M16.76,229,218.21,27.58A25.9,25.9,0,0,1,236.52,20H537.38V242.55H31.46Z" fill="none"/></clipPath></defs><g style="isolation:isolate"><path d="M531.33,158V0H192.94c-7.2,0-13,5.13-13,11.45h0c0,4.15-3.83,7.51-8.56,7.51H140.81c-5.73,0-10.38,4.08-10.38,9.11h0c0,5,4.65,9.11,10.38,9.11H147c4.72,0,8.56,3.37,8.56,7.52h0c0,4.15-3.84,7.51-8.56,7.51H73.15c-4,0-7.29,2.87-7.29,6.41v.69c0,3.54,3.26,6.4,7.29,6.4h28.69c4,0,7.29,2.87,7.29,6.41h0c0,3.53-3.26,6.4-7.29,6.4H96.28c-4.27,0-7.74,3-7.74,6.8h0c0,3.75-3.46,6.79-7.74,6.79H40.89c-5,0-9,3.54-9,7.9h0c0,4.37,4,7.91,9,7.91H56.76c5,0,9,3.53,9,7.9v1.86c0,4.36-4,7.9-9,7.9H18.47C8.27,125.58,0,132.84,0,141.8H0C0,150.75,8.27,158,18.47,158H531.33Z" fill="#bfddf2"/><g clip-path="url(#l)"><path d="M16.76,229,218.21,27.58A25.9,25.9,0,0,1,236.52,20H537.38V242.55H31.46Z" fill="url(#m)"/><polygon points="100.41 144.81 113.57 157.98 165.05 157.98 181.52 174.45 181.52 213.55 106.27 213.55 69.26 176.53 100.41 144.81" fill="url(#n)"/><rect x="208.85" y="49.23" width="49.38" height="37.79" fill="url(#o)"/><path d="M212.32,74.08a1.71,1.71,0,0,1-1.89.47,17.06,17.06,0,0,1-5-3.41l-.23-.2s-1.61-3.18.13-5.73a.26.26,0,0,1,.37-.06c.15.12.39.32.73.63.79.71,2.13,2,4.17,4.22,0,0,1.17-4.79,1.75-6.87.07-.25.12-.46.17-.62l1.83.43s0,.23,0,.62C214.44,65.52,214.53,71.56,212.32,74.08Z"/><path d="M212.49,62.51s1.08,1,1.83.43a4.51,4.51,0,0,1,.4-1.42,9.61,9.61,0,0,0,1.11-2.68,1,1,0,0,0-.09-.3.73.73,0,0,0-.12-.23,1,1,0,0,0-.26-.27l-.17-.09a1.26,1.26,0,0,0-.31-.09h-.27a.35.35,0,0,0-.31.2,9.2,9.2,0,0,1-1.07,1.8s.19-1.06-.07-1.27l-.23,0a9.33,9.33,0,0,1-.45,1.87A3.19,3.19,0,0,0,212.49,62.51Z"/><path d="M213.74,59.71s0,0,0,0a4.64,4.64,0,0,0,1.13-1.87h-.2A6.79,6.79,0,0,1,213.74,59.71Z"/><path d="M214.19,60s0,0,0,0a4.67,4.67,0,0,0,1.16-2l-.17-.09A7.11,7.11,0,0,1,214.19,60Z"/><path d="M214.64,60.28s0,0,0,0a4.84,4.84,0,0,0,1.08-1.75.73.73,0,0,0-.12-.23A7.12,7.12,0,0,1,214.64,60.28Z"/><path d="M213.27,60c.3.2.31.83.2,1.13a0,0,0,0,1-.08,0,3.88,3.88,0,0,0,0-.59,2.36,2.36,0,0,1-.12-.51S213.26,60,213.27,60Z"/><path d="M202.28,59.62s.1-2.84-1-3.49c-2.61-1.59-5.69.39-5.19,2.53s.68,1.54.68,1.54S202.12,59.89,202.28,59.62Z"/><path d="M201.83,59.2a.61.61,0,0,1,1,0c.49.58-.34,1.71-1,1.76A14.6,14.6,0,0,1,201.83,59.2Z"/><path d="M204.87,77.59a21,21,0,0,1-9.32,0s-.78-4.31-1-5.56a30.37,30.37,0,0,0-1.87-6,.23.23,0,0,1,.1-.3,9.41,9.41,0,0,1,3.38-1.14,7.83,7.83,0,0,1,1.32-.11s0-.31,0-.75,0-.65,0-1a10.82,10.82,0,0,0-.16-1.47,4.61,4.61,0,0,0,3.68.9l.15,1.57v0l.06.65s.8,0,1.72.07a6.92,6.92,0,0,1,2.6.57C207.55,66.35,204.87,77.59,204.87,77.59Z"/><path d="M201.72,57.49a3.4,3.4,0,0,1,.38,1.94c.08,2.55-.68,3.34-2,3.48s-2.66-.36-2.94-2.72c-.14-1.18-.29-2.27.14-2.78C198,56.65,200.72,56.45,201.72,57.49Z"/><path d="M197.36,59.85s-.4-1.05-1-.49.23,2.15,1.19,2C197.53,61.39,197.67,60.21,197.36,59.85Z"/><path d="M190.11,87.79a12.79,12.79,0,0,1,0,1.4,10,10,0,0,0,.21,3,1.32,1.32,0,0,0,.21.18l.06,0a1.76,1.76,0,0,0,.51.19h.05a1.7,1.7,0,0,0,.5,0h0a1.8,1.8,0,0,0,.46-.16,10.75,10.75,0,0,1,.21-2.29s.27,1,.6,1.12l.22-.06s-.16-1.16-.19-1.68a3.24,3.24,0,0,0-1.09-2.11S190.57,87,190.11,87.79Z"/><path d="M194.69,70.29c-.16.51-.37,1.19-.59,1.94-.74,2.44-1.67,5.68-1.83,6.68s-.15,5.94-.13,7.93v.83a1.76,1.76,0,0,1-2,.77s-.09-.41-.22-1.07a43.93,43.93,0,0,1-.93-8.49,67.92,67.92,0,0,1,2-9.13,16.4,16.4,0,0,1,1.27-3.54,1.74,1.74,0,0,1,1.25-.73C195.32,65.35,195.3,68.4,194.69,70.29Z"/><path d="M196.63,59.84a.79.79,0,0,1,.38.25,1.06,1.06,0,0,1,.28.35c0,.05,0,.07-.07,0a2.5,2.5,0,0,1-.22-.24.52.52,0,0,1-.19.14.06.06,0,0,1-.07-.1.41.41,0,0,1,.15-.14,2.37,2.37,0,0,1-.3-.23S196.59,59.83,196.63,59.84Z"/><path d="M191.69,92.59h0a16.67,16.67,0,0,1,.06-2.34s0,0,0,0A5.64,5.64,0,0,0,191.69,92.59Z"/><path d="M191.14,92.59h.05a18.13,18.13,0,0,1,.05-2.33s0,0,0,0A5.54,5.54,0,0,0,191.14,92.59Z"/><path d="M190.57,92.36l.06,0a20.39,20.39,0,0,1,.06-2.21s0,0,0,0A5.53,5.53,0,0,0,190.57,92.36Z"/><polygon points="195.7 116.3 197.94 116.36 197.99 112.11 195.84 112.05 195.7 116.3" fill-rule="evenodd"/><polygon points="197.87 115.9 195.53 115.64 195.38 117.38 200.89 117.38 200.89 116.78 197.87 115.9" fill-rule="evenodd"/><polygon points="203.81 116.3 206.05 116.36 206.82 111.89 204.68 111.83 203.81 116.3" fill-rule="evenodd"/><polygon points="205.98 115.9 203.63 115.64 203.48 117.38 209 117.38 209 116.78 205.98 115.9" fill-rule="evenodd"/><path d="M198.37,115.19l2.33-26,3.51,12.43a1.8,1.8,0,0,1,0,.46l-1.11,13.09h3.49l2.13-13.5a1.37,1.37,0,0,0,0-.35l-2.52-19.41s-4.51.45-12.08,4l1.09,29.21Z"/><path d="M214.35,63.56c-1.53.26-2-.43-2-.43a40.54,40.54,0,0,0-1.82,6.55l-1.06-1.35s-3-3.25-4.09-3.64a18.39,18.39,0,0,0-4.18-.31l-.06-.65v0a2.25,2.25,0,0,0-1.64.73,4.75,4.75,0,0,0-2-.71c0,.44,0,.75,0,.75-.26,0-4.93,0-5.91,2.34a32.32,32.32,0,0,0-1.48,5s-1.74,5.85-1.49,7.92,1.29,7.92,1.29,7.92a2.23,2.23,0,0,0,2.23-.76l.54-7.49L194.57,72c0,.08.18,8.32-.39,14a.15.15,0,0,0,.07.12c.26.34,1.35,1.41,5.43,2.14l1-2,1.09,2s3.5-1.33,4.58-3.38a.58.58,0,0,0,.19-.43c-.8-9.77-.48-12.52-.48-12.52l1.62,1.45a5.43,5.43,0,0,0,.53.47l.06,0a0,0,0,0,0,0,0,3.44,3.44,0,0,0,3,.77s2-.07,2.88-4A18.85,18.85,0,0,0,214.35,63.56Z"/><path d="M194,85.28l.6-13.25a26.2,26.2,0,0,0,.85-7.41l1.17-.1.36,0,3.7,8.43,1.63-8.54a2.3,2.3,0,0,1,.77,0,2.93,2.93,0,0,1,.52.08l2.52,7.5.74,13.37Z"/><path d="M197,64.49l3.7,8.43-3.33-3.24.73-1.09-1.21-.15s-.21-3.09-.25-3.92Z"/><path d="M202.36,68.34l.78,1-2.49,3.62,1.63-8.54a1.23,1.23,0,0,1,.55-.07l.56,3.91Z"/><line x1="200.8" y1="73.21" x2="200.8" y2="84.84" stroke="#8695c2" stroke-miterlimit="10" stroke-width="0.37"/><path d="M201.58,74.38a.25.25,0,0,0,0,.5A.25.25,0,0,0,201.58,74.38Z"/><path d="M201.73,77.3a.24.24,0,0,0,0,.48A.24.24,0,0,0,201.73,77.3Z"/><path d="M201.77,80.13a.29.29,0,0,0,0,.57A.29.29,0,0,0,201.77,80.13Z"/><polygon points="163.13 189.79 160.17 189.79 158.15 183.86 161.1 183.86 163.13 189.79" fill-rule="evenodd"/><polygon points="138.87 208.92 141.09 209.98 142.6 208.26 140.38 207.19 138.87 208.92" fill-rule="evenodd"/><path d="M142.35,212.19h1.1v1h-1.76L138,209.88l.92-1.19,2.32,1.16Z" fill-rule="evenodd"/><path d="M151.06,200.47l-9.31,9.21-2.36-2.12c2-2.47,5.24-8.1,8.2-9.23Z" fill-rule="evenodd"/><path d="M135,192.39s-.71,5.56,3.94,6.19a118.59,118.59,0,0,0,13.7.4s.78-4-2.08-4.67c-3.61-.86-7.93-1.44-7.93-1.44Z" fill-rule="evenodd"/><path d="M138.06,178.77l1.12-3.51,2.46.93-.47,3.35a3.29,3.29,0,0,0-3.11-.77Z" fill-rule="evenodd"/><path d="M140.23,176.37a3.54,3.54,0,0,0,1.09,2.12l.1-.7.14-1A2.2,2.2,0,0,1,140.23,176.37Z" fill-rule="evenodd"/><path d="M138.21,173.22c.34-1.89,2-2.14,3.62-1.78s1.66,1.62,1.52,2.66a1.43,1.43,0,0,0,.43,1.11c.09.25-.33.43-.45.54s0,1.36-.38,1.56a3.32,3.32,0,0,1-2.5-.09C138.78,176.35,137.88,175.11,138.21,173.22Z"/><path d="M140.72,174.81l-.17-.54s-1.07,1.26-1.73,2.1c-.49-1.29-1-1.78-.76-3.15.33-1.89,2.15-2.34,3.77-1.92s.51.82-.5.89-1,.62-.85,1,.9.59.8,1.72Z"/><path d="M139.8,173.9a.85.85,0,0,1,.48,1.58.85.85,0,0,1-.48-1.58Z" fill-rule="evenodd"/><rect x="149.77" y="189.21" width="9.24" height="0.59" transform="translate(308.78 379) rotate(180)"/><rect x="129.24" y="189.8" width="37.89" height="1.11" rx="0.55"/><path d="M143.81,184.54l-.32,8.48s-2.84,1.38-8.7-.2c-.4-.3-.47-.82-.09-1.65l-.1-5.63a13.55,13.55,0,0,1,.47-3.85c.43-1.56,1.21-3.26,2.6-3.51a8.15,8.15,0,0,1,3.83.22,4.69,4.69,0,0,1,3.62,4Z" fill-rule="evenodd"/><path d="M153.7,188s.79-.74,1.4-.53a10.3,10.3,0,0,1,1.17.19,3.91,3.91,0,0,1,1,.78.74.74,0,0,1-.43.81c-.2.07-.87-.36-.87-.36a4.79,4.79,0,0,1-2.22.51l-1.4-.06-.65-.79Z" fill-rule="evenodd"/><path d="M144.44,180.63l3.79,5.92,4.82.63a.87.87,0,0,1,.75.86v1.46l-6.58.2-4.31-2.47Z" fill-rule="evenodd"/><polygon points="153.82 212.13 156.06 212.18 153.66 206.16 151.59 206.76 153.82 212.13" fill-rule="evenodd"/><polygon points="155.99 211.72 153.5 211.47 153.5 213.2 159.01 213.2 159.01 212.6 155.99 211.72" fill-rule="evenodd"/><path d="M152.63,196.84l3.4,13.84-3.53.11c-1.66-4.41-3.45-8.11-3.78-11.76Z" fill-rule="evenodd"/><path d="M144.59,209.64h-5V197.88h-1.33v11.76h-4.81a.54.54,0,1,0,0,1.07h11.13a.54.54,0,1,0,0-1.07Z" stroke="#fff" stroke-miterlimit="10" stroke-width="0.5"/><path d="M139,204h0a1.64,1.64,0,0,1-1.63-1.63v-2.16a1.64,1.64,0,0,1,1.63-1.63h0a1.64,1.64,0,0,1,1.64,1.63v2.16A1.64,1.64,0,0,1,139,204Z" stroke="#fff" stroke-miterlimit="10" stroke-width="0.5" fill-rule="evenodd"/><circle cx="139.03" cy="212.18" r="0.85" stroke="#fff" stroke-miterlimit="10" stroke-width="0.5"/><circle cx="143.89" cy="212.18" r="0.85" stroke="#fff" stroke-miterlimit="10" stroke-width="0.5"/><circle cx="134.16" cy="212.18" r="0.85" stroke="#fff" stroke-miterlimit="10" stroke-width="0.5"/><path d="M144.21,200.51h-10.6a1.53,1.53,0,0,1-1.53-1.53h0a1.54,1.54,0,0,1,1.53-1.54h10.6a1.53,1.53,0,0,1,1.53,1.54h0A1.52,1.52,0,0,1,144.21,200.51Z" stroke="#fff" stroke-miterlimit="10" stroke-width="0.5" fill-rule="evenodd"/><path d="M143.66,188.38l-2.3-2.15v7.2a4.91,4.91,0,0,0,2.13-.41c.38-.3.52-.63,0-1.2Z" fill-rule="evenodd"/><path d="M165.63,176.11H152.76a.94.94,0,0,0-.94.9l-.37,8.42a.94.94,0,0,0,.94,1h12.87a.94.94,0,0,0,.94-.9l.38-8.41A1,1,0,0,0,165.63,176.11Z" stroke="#fff" stroke-miterlimit="10" stroke-width="0.5" fill-rule="evenodd"/><path d="M265.62,87.82a20.65,20.65,0,0,1-1.57-4.2c0,.3,1.05.8-1.49.42,0,0-2.3,4-3.64,14.81-.24,1.93-.53,6.75-.53,8.56s-.17,7.18-.14,7.19a3.23,3.23,0,0,1-.3,1.29,1.8,1.8,0,0,1-.58.45c-.46.25-.9.48-.4.75s2.59.07,2.61-.21,0-.56.07-.8a10.3,10.3,0,0,1,.25-1.33,52.91,52.91,0,0,0,2-9.29C262.42,100.93,266.38,89.43,265.62,87.82Z"/><path d="M257.89,115.82a1.75,1.75,0,0,0,1.76.26l.08,1.24h-4.15c-.5-.27,0-.44,0-.44Z"/><path d="M268.47,116.39c0-.18,0-.35,0-.51a11.3,11.3,0,0,1,.09-1.35,53.44,53.44,0,0,0,.93-9.48,40.5,40.5,0,0,1,.27-5.94c.19-4.5.15-9.18-.64-11.84a17.84,17.84,0,0,1-.88-4.75s-.8,1.59-4.37,1.54c0,0,1.18,13,1.27,14.88s.85,6.72,1.06,8.52.95,7,.56,8.46c0,.14-.25.32-.52.52l-.48.31"/><path d="M267.69,116.49c-.11-2.31-.46-9.41-.64-11.94-.23-3-.2-5.42-.2-5.42l2.9,0v0a40.5,40.5,0,0,0-.27,5.94,53.44,53.44,0,0,1-.93,9.48,11.3,11.3,0,0,0-.09,1.35c0,.16,0,.33,0,.51Z"/><path d="M264.34,117.38c-.54-.21,0-.44,0-.44a9.28,9.28,0,0,0,2.42-1,1.66,1.66,0,0,0,1.71,0c0,.24,0,1.16,0,1.45Z"/><path d="M270,99.87H258.57c-.1-2.6.46-7.22,3.43-15.9h6.66C271.37,88,270,99.87,270,99.87Z"/><path d="M266.48,90.5c-.06-3.76-1.88-5-2.15-6.46l.06-.07h4.27c2.71,4,1.29,15.9,1.29,15.9h-3.13C266.75,98.27,266.53,93.58,266.48,90.5Z"/><polygon points="266.87 71.62 264.76 72.09 263.8 67.97 265.87 67.41 266.87 71.62"/><path d="M261.43,75.14l-3.89.78a1.11,1.11,0,0,1-1.21-.42h0a1.12,1.12,0,0,1,.52-1.73l6.8-2Z"/><path d="M258.58,68.08l.78.66s-.86,5.38-1,6.23-1.18.77-1.18.77a1.11,1.11,0,0,1-.86-1.42Z"/><path d="M264.39,70.35s-3,4.31-3.11,5.4l.78,3.23.36,2.58c-.43.82-1.13,2.47-.36,2.56h6.6c-.39-8,.73-12.33-2.14-14.12C266.11,69.75,265.37,70.07,264.39,70.35Z"/><polygon points="266 73.68 268.61 81.97 269.47 77.72 266 73.68"/><path d="M263.91,71.05l-.16,4.35c1.37,2.88.63,8.35.63,8.35l-.05.29-2.27.08c-.77-.09-.07-1.74.36-2.56L262.06,79l-.78-3.23C261.36,74.93,263.06,72.31,263.91,71.05Z"/><path d="M268,85.54l-.67,1.08a1.07,1.07,0,0,0-.16.72l.27,1.76.65-.36.78-1.41a1.61,1.61,0,0,0,.14-1.09l-.13-.64Z"/><path d="M270.08,81.08c-.81,1.76-1.15,2.74-2,4.49l.64.8c2.23-3.25,3.52-4.14,3.69-5.81C270.51,78.35,272.56,80.1,270.08,81.08Z"/><path d="M258.58,68.08l1.15-.56a1.05,1.05,0,0,1,.74-.08l1,.26a.52.52,0,0,1,.29.8h0l-1.48.62a1.62,1.62,0,0,1-1.09,0l-.63-.2Z"/><path d="M266.68,65.61c-.05-1.68-.12-2-1.5-2.49s-.55.28-2.11.36c-.92.05-1.06.87-1.09,1.92a1.46,1.46,0,0,1-.61,1c-.13.23.25.48.35.61s0,1.21.33,1.43a9.93,9.93,0,0,0,1.87.39c1.79-.58,1.82-4,1.82-4C265.93,64.35,266.69,66.06,266.68,65.61Z"/><circle cx="268.76" cy="65.13" r="1.64" stroke="#000" stroke-miterlimit="10" stroke-width="0.37"/><circle cx="268.01" cy="64.82" r="1.3" stroke="#c69c6d" stroke-miterlimit="10" stroke-width="0.37"/><circle cx="268.22" cy="64.21" r="1.3" stroke="#000" stroke-miterlimit="10" stroke-width="0.37"/><circle cx="268.55" cy="66.17" r="1.3" stroke="#000" stroke-miterlimit="10" stroke-width="0.37"/><circle cx="268.17" cy="65.24" r="1.56"/><path d="M265.34,62.5s3.18.43,1.72,4.15a3.16,3.16,0,0,1-.76,1.2,1,1,0,0,1-.95.25.73.73,0,0,1-.52-.35c-.74-1.54-.6-1.18-.95-3.63l-1.08-.68-.16-.38Z"/><path d="M264.48,66.9s1.1-2.19.39-3l-2.23-.88A4.58,4.58,0,0,0,264.48,66.9Z"/><polygon points="263.71 70.38 266.76 69.32 267.28 70.21 263.11 71.63 263.71 70.38"/><path d="M272.49,80.6a2.22,2.22,0,0,1-2.54.75L266.6,75a2.65,2.65,0,0,1-.6-1.8c.2-.74,1-1.33,2.19-.26C269.24,73.86,271.54,78.21,272.49,80.6Z"/><path d="M264.21,66.4c-.21.49-.1,1,.24,1.09s.79-.19,1-.68.1-1-.24-1.1S264.42,65.9,264.21,66.4Z"/><g style="mix-blend-mode:multiply"><path d="M245.15,65.9a3.55,3.55,0,0,0,2.3.63" fill="none" stroke="#ff52be" stroke-linecap="round" stroke-linejoin="round" stroke-width="0.73"/><path d="M247.58,66.7a5.21,5.21,0,0,0-1.51,1.83" fill="none" stroke="#ff52be" stroke-linecap="round" stroke-linejoin="round" stroke-width="0.73"/><path d="M222.39,73.41a5.86,5.86,0,0,1,4.09-2.13c2.43-.3,7.7,2.31,11.42.87s2.87-3.74,9.55-5.62" fill="none" stroke="#ff52be" stroke-linecap="round" stroke-linejoin="round" stroke-width="0.73"/><path d="M220.33,55.17a6.78,6.78,0,0,0-2.61,2.72,5.46,5.46,0,0,0-.39,4,5.05,5.05,0,0,0,3.9,3.34,6.59,6.59,0,0,0,3.8-.35,3.68,3.68,0,0,0,1.46-1,4.69,4.69,0,0,0,.9-1.91,7,7,0,0,0,.26-2.32,5.22,5.22,0,0,0-2.83-4.18,6.07,6.07,0,0,0-4.73-.1" fill="none" stroke="#c148f7" stroke-linecap="round" stroke-linejoin="round" stroke-width="0.73"/><path d="M223,54.89l-.29,5.81" fill="none" stroke="#c148f7" stroke-linecap="round" stroke-linejoin="round" stroke-width="0.73"/><path d="M222.7,60.76a15.75,15.75,0,0,0,4.7-1.13" fill="none" stroke="#c148f7" stroke-linecap="round" stroke-linejoin="round" stroke-width="0.73"/><path d="M222.79,60.86q1.69,1.57,3.48,3" fill="none" stroke="#c148f7" stroke-linecap="round" stroke-linejoin="round" stroke-width="0.73"/><path d="M223.16,76.54a37.41,37.41,0,0,1,.2,5.6" fill="none" stroke="#a428ae" stroke-linecap="round" stroke-linejoin="round" stroke-width="0.73"/><path d="M244.88,70.86c.21,3.51.28,7.76.2,11.28" fill="none" stroke="#a428ae" stroke-linecap="round" stroke-linejoin="round" stroke-width="0.73"/><path d="M227.13,73.63v8.19" fill="none" stroke="#a428ae" stroke-linecap="round" stroke-linejoin="round" stroke-width="0.73"/><path d="M230.17,74.44v7.8" fill="none" stroke="#a428ae" stroke-linecap="round" stroke-linejoin="round" stroke-width="0.73"/><path d="M232.84,75.55v6.8" fill="none" stroke="#a428ae" stroke-linecap="round" stroke-linejoin="round" stroke-width="0.73"/><path d="M235.87,82.24V75.41" fill="none" stroke="#a428ae" stroke-linecap="round" stroke-linejoin="round" stroke-width="0.73"/><path d="M238.78,74.69v7.45" fill="none" stroke="#a428ae" stroke-linecap="round" stroke-linejoin="round" stroke-width="0.73"/><path d="M242.3,72.72v9.42" fill="none" stroke="#a428ae" stroke-linecap="round" stroke-linejoin="round" stroke-width="0.73"/><path d="M227.22,55.45h9.71" fill="none" stroke="#889ee9" stroke-linecap="round" stroke-linejoin="round" stroke-width="0.64"/><path d="M228.5,57.77h8.43" fill="none" stroke="#889ee9" stroke-linecap="round" stroke-linejoin="round" stroke-width="0.64"/><path d="M230.42,60.09h6.51" fill="none" stroke="#889ee9" stroke-linecap="round" stroke-linejoin="round" stroke-width="0.64"/><path d="M220.27,82.8h26.55" fill="none" stroke="#889ee9" stroke-linecap="round" stroke-linejoin="round" stroke-width="0.64"/><path d="M221.22,80.61l-5,0" fill="none" stroke="#889ee9" stroke-linecap="round" stroke-linejoin="round" stroke-width="0.64"/><path d="M221.32,78.62H214" fill="none" stroke="#889ee9" stroke-linecap="round" stroke-linejoin="round" stroke-width="0.64"/><path d="M221.45,76.67H219.1" fill="none" stroke="#889ee9" stroke-linecap="round" stroke-linejoin="round" stroke-width="0.64"/><path d="M247.7,72.41l5.5,0" fill="none" stroke="#889ee9" stroke-linecap="round" stroke-linejoin="round" stroke-width="0.64"/><path d="M247.59,74.4h5.64" fill="none" stroke="#889ee9" stroke-linecap="round" stroke-linejoin="round" stroke-width="0.64"/><path d="M247.45,76.36H250" fill="none" stroke="#889ee9" stroke-linecap="round" stroke-linejoin="round" stroke-width="0.64"/><path d="M245,63.68q2.52-4.45,5.42-8.63" fill="none" stroke="#889ee9" stroke-linecap="round" stroke-linejoin="round" stroke-width="0.64"/><path d="M250.54,54.76a51.12,51.12,0,0,0,4.78,9" fill="none" stroke="#889ee9" stroke-linecap="round" stroke-linejoin="round" stroke-width="0.64"/><path d="M245.36,64l10-.1" fill="none" stroke="#889ee9" stroke-linecap="round" stroke-linejoin="round" stroke-width="0.64"/><path d="M245.36,60.91l10-.1" fill="none" stroke="#a428ae" stroke-linecap="round" stroke-linejoin="round" stroke-width="0.73" style="mix-blend-mode:multiply"/><path d="M245.36,58.09l10-.11" fill="none" stroke="#ff52be" stroke-linecap="round" stroke-linejoin="round" stroke-width="0.73" style="mix-blend-mode:multiply"/></g><path d="M473,189.45l-.4,0a.49.49,0,0,0-.52.43l-3.16,33.54a.46.46,0,0,0,.42.51l.41,0a.47.47,0,0,0,.51-.43L473.43,190A.48.48,0,0,0,473,189.45Z" fill="#b3b7e7" fill-rule="evenodd"/><path d="M474.51,189.45l.41,0a.47.47,0,0,1,.51.43l3.17,33.54a.47.47,0,0,1-.43.51l-.4,0a.47.47,0,0,1-.51-.43L474.09,190A.48.48,0,0,1,474.51,189.45Z" fill-rule="evenodd" fill="url(#p)"/><path d="M497.66,189.45l-.41,0a.48.48,0,0,0-.51.43l-3.17,33.54a.47.47,0,0,0,.43.51l.4,0a.49.49,0,0,0,.52-.43L498.08,190A.47.47,0,0,0,497.66,189.45Z" fill="#b3b7e7" fill-rule="evenodd"/><path d="M497.11,189.45l.4,0a.49.49,0,0,1,.52.43l3.16,33.54a.46.46,0,0,1-.42.51l-.41,0a.48.48,0,0,1-.51-.43L496.68,190A.48.48,0,0,1,497.11,189.45Z" fill-rule="evenodd" fill="url(#q)"/><path d="M500.31,160h-25.2a.55.55,0,0,0-.54.5l-4.21,44.94a.44.44,0,0,0,.45.49H496a.54.54,0,0,0,.54-.49l4.21-44.94A.44.44,0,0,0,500.31,160Z" fill="#b3b7e7" fill-rule="evenodd"/><path d="M498.81,162H476.23a.48.48,0,0,0-.48.44l-3.81,41a.4.4,0,0,0,.41.44h22.58a.5.5,0,0,0,.48-.44l3.8-41A.39.39,0,0,0,498.81,162Z" fill="#f6f2fd" fill-rule="evenodd"/><g style="mix-blend-mode:multiply"><path d="M482.4,183.05a4.87,4.87,0,0,0,2.37-1.33,2.89,2.89,0,0,0,.75-2.5c0-.23-.2-.49-.44-.46s-.29.21-.37.38a7.54,7.54,0,0,0-.55,2c-.11.84,0,1.86.83,2.19a2,2,0,0,0,1.8-.41,4.51,4.51,0,0,0,1.78-3c.06-.41,0-.92-.37-1.1-.81.73-.71,2-.47,3a1.93,1.93,0,0,0,.39.93,1.35,1.35,0,0,0,1.28.35,2.65,2.65,0,0,0,1.2-.69,4.33,4.33,0,0,0,1.23-2.19,1.7,1.7,0,0,0-.26-1.54.31.31,0,0,0-.29-.13c-.13,0-.19.17-.23.3a4,4,0,0,0,.14,2.94,2.33,2.33,0,0,0,2.52,1.23" fill="none" stroke="#ff9155" stroke-linecap="round" stroke-linejoin="round" stroke-width="0.55"/><path d="M476.75,171.18q10-.17,19.92,0" fill="none" stroke="#ff9155" stroke-linecap="round" stroke-linejoin="round" stroke-width="0.55"/><path d="M480.3,177.31a5,5,0,0,0,2.42-3c.17-.58.1-1.38-.48-1.51a5.54,5.54,0,0,0-.11,2.77,1.61,1.61,0,0,0,.67,1.14,1.8,1.8,0,0,0,1.95-.52c.9-.8,1.56-2.19.87-3.14a2.89,2.89,0,0,0-.5,2.56,1.19,1.19,0,0,0,.4.64,1.38,1.38,0,0,0,1.49-.2,3.86,3.86,0,0,0,1.64-3.4,3.2,3.2,0,0,0-.57,3,1.24,1.24,0,0,0,.41.65c.48.35,1.19.06,1.66-.34a4,4,0,0,0,1.34-3.46,4.07,4.07,0,0,0-.62,2.27,2,2,0,0,0,.76,1.62,2.8,2.8,0,0,0,2.49-.19" fill="none" stroke="#ff9155" stroke-linecap="round" stroke-linejoin="round" stroke-width="0.55"/><path d="M477.09,188.27l1.64-.38a.33.33,0,0,1,.26,0c.17.1,0,.37-.11.51l-1.21,1.21.92-.11c.23,0,.54,0,.6.21a.42.42,0,0,1-.05.27,1.36,1.36,0,0,1-1.42.75" fill="none" stroke="#ff9155" stroke-linecap="round" stroke-linejoin="round" stroke-width="0.55"/><path d="M477.28,174.16a4.52,4.52,0,0,1,1.06-.67c-.15.76-.33,1.5-.55,2.24" fill="none" stroke="#ff9155" stroke-linecap="round" stroke-linejoin="round" stroke-width="0.55"/><path d="M477.72,193.36a9.54,9.54,0,0,1-1.39,2.17,6.31,6.31,0,0,0,2-.26" fill="none" stroke="#ff9155" stroke-linecap="round" stroke-linejoin="round" stroke-width="0.55"/><path d="M478,193.27a21.33,21.33,0,0,1-.16,4.15" fill="none" stroke="#ff9155" stroke-linecap="round" stroke-linejoin="round" stroke-width="0.55"/></g><line x1="475.71" y1="175.82" x2="470.56" y2="174.69" stroke="#000" stroke-miterlimit="10" stroke-width="0.73"/><path d="M472.81,177.8,468,184.36c-1.42,1.84-3.88-.2-1.95-2.19,2.41-2.49,6.33-5.87,6.33-5.87l.79-1.69,1.62.25.63.49-1.16-.09.89.78v.89h-.61v-.24H474l-.43,1.08Z"/><path d="M462.94,176.54s5.23,5,4.57,7.65c-.76,3-6.33-1.36-6.31-4.18C461.22,177.55,461.6,175.8,462.94,176.54Z"/><path d="M453.58,176.29s-5.47,4-8.06,9.34a1,1,0,0,0,.12,1c.58.75,1.72,1.11,6.78,2.82.32.11.25,1.16.34,2a.45.45,0,0,0,.9,0l.32-2.23a23.68,23.68,0,0,0-5.76-3.6s3.49-2.87,6.45-5C456.11,179.55,455.16,175.54,453.58,176.29Z"/><path d="M455.54,221a6.43,6.43,0,0,0,.07,1.27c0,.15.24.35.51.57a3.53,3.53,0,0,0,.47.33l-2.71-.39c0-.19,0-.38,0-.55,0-.55,0-1,0-1.23Z"/><path d="M465.73,220.82a3.56,3.56,0,0,0,.32,1.4,2,2,0,0,0,.59.49c.47.28.91.52.41.82s-2.58.07-2.61-.23-.05-.61-.09-.87a13,13,0,0,0-.27-1.45"/><path d="M453.49,221.33c0-.45-.46-5.93-.27-10.89a49.64,49.64,0,0,0-.08-6.46c-.05-4.89-.16-10.11.72-13a15,15,0,0,0,.8-5.22s1.27,1.93,4.84,1.87c0,0,.18,5.41-1.13,6,0,0-.45,8.06-.61,10.16s-1.06,7.31-1.32,9.26c-.22,1.58-.35,5.6-.4,8.27Z"/><path d="M453.86,223.79l4.12.05c.54-.22,0-.48,0-.48a7.14,7.14,0,0,1-2.18-.8l-.52,0-.3.31-1.11,0Z"/><path d="M459.36,186.86l0,.24A.44.44,0,0,1,459.36,186.86Z"/><path d="M463.65,221.33c0-.35-1.21-5.52-1.78-10.45s-1.29-4.41-1.65-6.64c-1.33-8.16-3.11-10.78-2.39-12.53a23.26,23.26,0,0,0,1.5-4.56c0,.33.44.86,3,.46,0,0,2.66,6.24,2.45,16.1,0,2.1.66,7.33.7,9.3s.77,7.8.75,8.17Z"/><path d="M464.35,223.79l4.38.05c.55-.22,0-.48,0-.48a7.29,7.29,0,0,1-2.22-.8l-.53,0-.3.31-1.36,0Z"/><path d="M462.3,187.57a44.34,44.34,0,0,1,.65-6.23,4.24,4.24,0,0,0,.14-1.2,14.06,14.06,0,0,0-.5-3.44,3.18,3.18,0,0,0-1.09-.35c-.08,0-1.65-.57-1.65-.57l-.07-.79-.06-.53-.08-.87c-.11-1.16-2.48-.66-2.48-.66v2.83a6.37,6.37,0,0,1-1.17.13l-.21,0a5.86,5.86,0,0,0-1.87.33c-.5.33,1.07,9.4.79,10.64Z"/><path d="M457.16,173.23v.84a3.74,3.74,0,0,0,2.62.92l-.06-.53-.08-.87C459.15,173,457.66,173.14,457.16,173.23Z"/><path d="M460.63,169.22A3.7,3.7,0,0,1,461,171c.08,2.38-1.07,3.26-1.85,3.26a2.65,2.65,0,0,1-2.76-2.55,5.56,5.56,0,0,1,.13-2.61C457,168,459.51,167.64,460.63,169.22Z"/><path d="M462.3,187.57a9.68,9.68,0,0,0,.45-3,4.52,4.52,0,0,1,.34-2.56,4.38,4.38,0,0,0,.33-3.14,13.31,13.31,0,0,1-.71-2.47,9.1,9.1,0,0,0-3.35-.88c-2.46-.18-5.33.3-5.78.74a25.2,25.2,0,0,0,.23,4.26c.31,2,.5,2.47.31,3.84a8.15,8.15,0,0,0,.47,3.18Z"/><path d="M453.9,176a17.27,17.27,0,0,0-5.44,4.41c-2.33,2.94-2.37,3.66-3.2,4.16s1.2,1.72,3,1,6-4.56,6-4.56S455.78,176.06,453.9,176Z"/><path d="M457.88,178.91c.31-.4,1-1.43,1-5.07a2.86,2.86,0,0,1,.91-2.44c.43-.44.61-.74,1-1.2,1-1.09-.69-3.34-2.27-3.34a4.93,4.93,0,0,0-2.13.25,2.88,2.88,0,0,0-1.66,1.64,13.84,13.84,0,0,1-.45,2.05c-.2.38-.53.68-.75,1a2,2,0,0,0-.22,1.5,9.41,9.41,0,0,1,.36,1.14c.08.81-2.05,1.55-1.49,4,.17.74,1.47,1,2.29,1C456.05,179.5,457.46,179.45,457.88,178.91Z"/><path d="M460,171.23s-.37-1-1-.47.22,1.94,1.12,1.83C460.17,172.59,460.3,171.57,460,171.23Z"/><path d="M459.34,171.21a.92.92,0,0,1,.36.23,1.06,1.06,0,0,1,.26.34s0,.06-.07,0-.13-.16-.2-.24a.47.47,0,0,1-.18.14c-.05,0-.09-.05-.07-.09a.47.47,0,0,1,.14-.14,2.92,2.92,0,0,1-.28-.21A0,0,0,0,1,459.34,171.21Z"/><path d="M267.09,194.13a16.61,16.61,0,0,0-1.83,7.06s1.12-.1,1.12-.26S267.09,194.13,267.09,194.13Z" fill-rule="evenodd"/><polygon points="256.56 227.69 254.3 227.52 255.05 224.91 257.22 225.07 256.56 227.69" fill-rule="evenodd"/><polygon points="266.75 227.69 264.33 227.51 264.63 225.01 267.06 225.19 266.75 227.69" fill-rule="evenodd"/><path d="M256.75,229.25a.74.74,0,0,0,.05-.25l0-1.63-2.32-.23a32.1,32.1,0,0,1-2.87,1.73.67.67,0,0,0-.41.38Z" fill-rule="evenodd"/><path d="M271.88,226.34h0a.67.67,0,0,1-.67-.67V213.51a.67.67,0,0,1,.67-.67h0a.67.67,0,0,1,.66.67v12.16A.67.67,0,0,1,271.88,226.34Z"/><path d="M272,216.76h0a1.65,1.65,0,0,1-1.64-1.64V213a1.64,1.64,0,0,1,1.64-1.63h0a1.64,1.64,0,0,1,1.63,1.63v2.16A1.65,1.65,0,0,1,272,216.76Z" fill-rule="evenodd"/><circle cx="271.96" cy="228.52" r="0.85"/><circle cx="276.83" cy="228.52" r="0.85"/><circle cx="267.09" cy="228.52" r="0.85"/><path d="M277.54,226.87H266.4a.54.54,0,0,1-.54-.53h0a.54.54,0,0,1,.54-.54h11.14a.54.54,0,0,1,.53.54h0A.53.53,0,0,1,277.54,226.87Z"/><rect x="263.82" y="210.18" width="16.1" height="3.07" rx="1.49"/><path d="M267.72,203.64s-1.44,4.11-1.34,4.91a5.85,5.85,0,0,0,1,2.57l7-.06a3.24,3.24,0,0,0,3.17-3.8v0l-.09-.56-.48-3.56c-2.18,1.42-6.13,2-9.59,1.06Z" fill-rule="evenodd"/><path d="M261.94,203.92l2.58-2.26,2-2.44,1.15,2.74a8.92,8.92,0,0,1-5.26,3.8l-.31-.92Z" fill-rule="evenodd"/><path d="M257.68,226l-3.13-.26c0-.39,2.25-9,3.52-12.56a4.08,4.08,0,0,1,2-2.28l7.54-3.75,4.93,4.19-10.37,4.28Z" fill-rule="evenodd"/><path d="M257.68,226l-1.26-.1c.3-2.5,2.24-4.73,3.12-6,1.12-1.58.44-4.2.9-5.52a4.4,4.4,0,0,1,1-1.34,8.26,8.26,0,0,1,3.74-2.24,14.31,14.31,0,0,0,4.26-2.17l3.16,2.68-10.37,4.28Z" fill-rule="evenodd"/><path d="M266.79,229.25a.74.74,0,0,0,0-.25l0-1.63-2.58-.06a27.06,27.06,0,0,1-2.61,1.56.63.63,0,0,0-.4.38Z" fill-rule="evenodd"/><path d="M269.6,185.84a1.35,1.35,0,0,0-.36,2.3c1.3,1.54.36-2.3.36-2.3Z" fill-rule="evenodd"/><path d="M275.22,193.12a1.68,1.68,0,0,0-1-1.39,3,3,0,0,0-2.06-.19,15.68,15.68,0,0,0-2.45.71l-.69,2.28,2.31,1.1,4.53-3.4Z" fill-rule="evenodd"/><path d="M269.29,187.16a2,2,0,0,1,.69-1.44,2,2,0,0,1,1.52-.48h0a2,2,0,0,1,1.82,2.1c0,.61-.05,1.29-.07,1.87a1.45,1.45,0,0,1-.5,1,1.47,1.47,0,0,1-1.08.35l-1.11-.11a1.48,1.48,0,0,1-1.34-1.54c0-.55,0-1.18.07-1.78Z" fill-rule="evenodd"/><polygon points="274.32 192.9 272.87 189.14 270.24 190.32 270.97 193.94 274.32 192.9 274.32 192.9" fill-rule="evenodd"/><path d="M272.16,186.92s-.26,1.84,1.19,1.89a12.33,12.33,0,0,0,.82-2.51c.15-1.59-3-1.9-4.3-1.23s-.5,1.89,2.29,1.85Z" fill-rule="evenodd"/><path d="M270.43,192.23c.84,1.32,2.84.12,3.16-.34.05-.08.94.46,1.05.54,1.76,1.27,2,6.71,2.3,8.67.15.91,1,4,.53,4.77-.14.26-1.52.06-1.79.11-1.14.22-6.28.63-7-.19s-.17-2.34-.31-3.3A24.3,24.3,0,0,1,269,193Z" fill-rule="evenodd"/><path d="M269,199.87c.89,2.78,7.55-.2,6.79-1.54-1.06-1.86.46,1.29.74,3.25.13.91.87,4,.48,4.77-.13.26-.66,2.39-.9,2.4-3.26.14-8.27.36-8.49-.72-.32-1.51,1.14-4.09,1.25-5.06A12.33,12.33,0,0,0,269,199.87Z" fill-rule="evenodd"/><path d="M273.32,188a.56.56,0,0,0-.63.48.51.51,0,1,0,.63-.48Z" fill-rule="evenodd"/><path d="M269.21,188.94c-.09-.17-.49,2.48,1.1,2.61s2.26-.51,2.37-3.55c0,0-.64,1.85-1.57,1.87-1.94.06-1.79-.73-1.9-.93Z" fill-rule="evenodd"/><path d="M270,190.39a1.17,1.17,0,0,0,.81.06" stroke="#9c4345" stroke-linecap="round" stroke-linejoin="round" stroke-width="0.55"/><path d="M263.59,226.61l3.54-.1,1.2-11.62,7.55-4.19-.8-1.22-5.38-.39-4,1.89a3.41,3.41,0,0,0-2,3.11Z" fill-rule="evenodd"/><path d="M269.76,192.25a57.35,57.35,0,0,0-1,7.94,62.88,62.88,0,0,1-1.35,9.06c-.48-.89-2.18-.62-2.34-1.43,0,0,1.49-9.82,1.76-12.39S268.06,192.93,269.76,192.25Z" fill-rule="evenodd"/><path d="M266.83,204.57s-.89-.6-1.46-.31c-.27.14-.72.15-1.13.37a3.87,3.87,0,0,0-.92.93.75.75,0,0,0,.56.74c.2,0,.8-.5.8-.5a3.44,3.44,0,0,0,1.92,0Z" fill-rule="evenodd"/><path d="M262.69,204.52s-.85-.67-1.44-.42c-.28.12-.73.1-1.15.29a3.92,3.92,0,0,0-1,.86.76.76,0,0,0,.51.78c.19.05.83-.44.83-.44a3.42,3.42,0,0,0,1.92.17Z" fill-rule="evenodd"/><polygon points="266.83 204.57 269.65 204.37 269.76 205.87 266.23 205.68 266.83 204.57" fill-rule="evenodd"/><rect x="258.66" y="205.42" width="9.24" height="0.59"/><path d="M279.35,202.26a35.92,35.92,0,0,0-.4-4.67,9,9,0,0,0-1.39-4.24,4.76,4.76,0,0,0-1.94-1.2l-1.35-.42a36.5,36.5,0,0,0-1,11.25l-4.49.89V206h6.93l1.38-.45,1.32-.74A3.59,3.59,0,0,0,279.35,202.26Z" fill-rule="evenodd"/><path d="M261.45,206h-10.6l-3.2-7.13H258a.38.38,0,0,1,.35.22Z" fill-rule="evenodd"/><path d="M260.6,206H250l-3.05-6.8a.23.23,0,0,1,.21-.33h10.09a.23.23,0,0,1,.22.14Z" fill-rule="evenodd"/><path d="M273.13,201.38s-.09,3.8-1,5.54a21.9,21.9,0,0,1-2.41,2.82s7.75.77,8-2.35a59.07,59.07,0,0,1,1-6.77Z" fill-rule="evenodd"/><path d="M254.09,202.49c.12.44-.22.8-.77.8a1.31,1.31,0,0,1-1.23-.8c-.12-.45.22-.81.77-.81A1.3,1.3,0,0,1,254.09,202.49Z" fill-rule="evenodd"/><path d="M279.35,202.26a35.92,35.92,0,0,0-.4-4.67,9,9,0,0,0-1.39-4.24,4.76,4.76,0,0,0-1.94-1.2l-1.35-.42c5.15,2.63,3.48,8.27,3.84,12.06-.83.44-1.22.3-3.14.68a24,24,0,0,1-3.59,1,5,5,0,0,0-2.62-.09V206h6.93l1.38-.45,1.32-.74A3.59,3.59,0,0,0,279.35,202.26Z" fill-rule="evenodd"/><path d="M280.58,207.11H242.34a.55.55,0,0,1-.55-.55h0a.55.55,0,0,1,.55-.55h38.24a.55.55,0,0,1,.55.55h0A.55.55,0,0,1,280.58,207.11Z" fill-rule="evenodd"/><path d="M218,199.8a22.48,22.48,0,0,0,1.95-4.19c0,.3-1.12.79,1.45.42,0,0,3.51,5.75,2.31,14.81-.25,1.94-.08,6.75-.24,8.56s-.47,7.18-.5,7.19a3.06,3.06,0,0,0,.18,1.29,1.55,1.55,0,0,0,.54.44c.44.26.86.49.33.76s-2.59.06-2.58-.21,0-.57,0-.8a8.46,8.46,0,0,0-.13-1.33,51.55,51.55,0,0,1-1.19-9.29c-.09-4.54-.85-4.06-1-6.12C218.62,203.82,217.1,201.42,218,199.8Z"/><path d="M223.69,228.32a5.19,5.19,0,0,1-2.26-.25l-.19,1.24h4.15c.53-.27,0-.44,0-.44Z"/><path d="M215.48,228.38c0-.18,0-.35,0-.51a11.3,11.3,0,0,0-.09-1.35,54.53,54.53,0,0,1-.93-9.48,43.09,43.09,0,0,0-.26-5.95c-.2-4.49-.16-9.17.63-11.83a17.33,17.33,0,0,0,.88-4.75s.81,1.59,4.38,1.53c0,0-1.18,13-1.28,14.89s-.85,6.72-1.06,8.52-.94,7-.56,8.46c0,.14.26.32.52.51a4.61,4.61,0,0,0,.49.32"/><path d="M216.27,228.48c.11-2.31.45-9.41.64-11.94.22-3,.19-5.42.19-5.42l-2.89,0h0a43.09,43.09,0,0,1,.26,5.95,54.53,54.53,0,0,0,.93,9.48,11.3,11.3,0,0,1,.09,1.35c0,.16,0,.33,0,.51Z"/><path d="M219.61,229.37c.54-.21,0-.44,0-.44a5.63,5.63,0,0,1-1.91-.51,5.45,5.45,0,0,1-2.23-.55c0,.24,0,1.15,0,1.45Z"/><path d="M214,211.86h10.36c.1-2.6.56-7.22-2.41-15.9h-6.66C212.58,199.94,214,211.86,214,211.86Z"/><path d="M217.47,202.49c.06-3.77,1.88-5,2.15-6.46l-.05-.07h-4.28c-2.71,4-1.29,15.9-1.29,15.9h3.13C217.21,210.25,217.42,205.57,217.47,202.49Z"/><polygon points="219.62 183.65 221.58 184.53 223.36 180.68 221.44 179.71 219.62 183.65"/><path d="M224.24,188.19l3.66,1.54a1.13,1.13,0,0,0,1.27-.17h0a1.14,1.14,0,0,0-.17-1.8l-6.26-3.29Z"/><path d="M228.45,181.84l-.9.49s-.23,5.45-.23,6.31,1,1,1,1a1.1,1.1,0,0,0,1.13-1.21Z"/><path d="M222.3,182.9s2.08,4.82,2,5.91l-1.42,3-.87,2.45c.25.89.68,1.75-.08,1.84h-6.61c.39-8,1.83-12.81,5-14C220.74,182,221.4,182.42,222.3,182.9Z"/><polygon points="220.06 185.84 215.41 194.17 215.84 189.1 220.06 185.84"/><path d="M222.63,183.68l-.72,4.29c-1.91,2.55-2.29,8.06-2.29,8.06h0l2.28.08c.76-.09.33-1,.08-1.84l.87-2.45,1.42-3C224.35,188,223.21,185.09,222.63,183.68Z"/><path d="M215.67,197l.45,1.19a1.08,1.08,0,0,1,0,.75l-.62,1.67-.56-.49-.48-1.54a1.65,1.65,0,0,1,.08-1.09l.26-.61Z"/><path d="M214.57,192.27c.44,1.89.57,2.91,1.06,4.8l-.79.65c-1.54-3.63-2.61-4.76-2.44-6.44C214.7,189.5,212.34,190.81,214.57,192.27Z"/><path d="M228.45,181.84l-1-.78a1,1,0,0,0-.71-.22l-1,0a.52.52,0,0,0-.45.72h0l1.32.91a1.63,1.63,0,0,0,1.07.25l.66-.06Z"/><path d="M221,177.79c.39-1.63.52-1.91,2-2.14s.49.39,2,.79c.88.23.86,1.06.68,2.09a1.44,1.44,0,0,0,.39,1.12c.08.26-.34.43-.46.53s-.24,1.18-.61,1.34a10,10,0,0,1-1.91,0c-1.64-.92-1-4.24-1-4.24C222,176.71,220.91,178.23,221,177.79Z"/><circle cx="219.07" cy="176.9" r="1.64" stroke="#220350" stroke-miterlimit="10" stroke-width="0.37"/><circle cx="219.87" cy="176.75" r="1.3" stroke="#220350" stroke-miterlimit="10" stroke-width="0.37"/><circle cx="219.78" cy="176.11" r="1.3" stroke="#220350" stroke-miterlimit="10" stroke-width="0.37"/><circle cx="219.07" cy="177.97" r="1.3" stroke="#220350" stroke-miterlimit="10" stroke-width="0.37"/><circle cx="219.62" cy="177.13" r="1.56"/><path d="M223,175s-3.2-.21-2.52,3.73a3.17,3.17,0,0,0,.51,1.33.94.94,0,0,0,.87.43.76.76,0,0,0,.59-.24c1-1.36.82-1,1.65-3.37l1.2-.45.23-.33Z"/><path d="M222.91,179.5s-.64-2.37.21-3l2.36-.41A4.6,4.6,0,0,1,222.91,179.5Z"/><polygon points="222.96 183.06 220.19 181.41 219.5 182.17 223.3 184.41 222.96 183.06"/><path d="M212.31,191.31a2.21,2.21,0,0,0,2.33,1.25L219.2,187a2.64,2.64,0,0,0,1-1.64c0-.77-.68-1.51-2.09-.7C216.85,185.36,213.72,189.16,212.31,191.31Z"/><path d="M223.28,179.06c.1.52-.1,1-.46,1s-.73-.35-.84-.88.1-1,.46-1S223.17,178.54,223.28,179.06Z"/><rect x="239.67" y="179.83" width="22.13" height="15.25" fill="#b3b7cb" style="mix-blend-mode:multiply"/><rect x="242" y="177.77" width="22.13" height="15.25" fill="#e6e6e6"/><path d="M244.51,189.43c4.4,0,11.26-3.05,15.45-8" fill="none" stroke="#ff9155" stroke-linecap="round" stroke-linejoin="round" stroke-width="0.55"/><path d="M257.22,182.29l3-1a22.59,22.59,0,0,1-.92,2.66" fill="none" stroke="#ff9155" stroke-linecap="round" stroke-linejoin="round" stroke-width="0.55"/><line x1="261.79" y1="190.67" x2="261.79" y2="179.83" fill="none" stroke="#dae1ff" stroke-miterlimit="10" stroke-width="0.73"/><polyline points="244.33 178.64 244.33 190.67 262.61 190.67" fill="none" stroke="#ff9155" stroke-linecap="round" stroke-linejoin="round" stroke-width="0.55"/><path d="M242,186.14h6.15a6.3,6.3,0,0,0,6-8.37H242Z" fill="#e8e8e8" style="mix-blend-mode:multiply"/><path d="M247.56,184.28a6.32,6.32,0,1,0,0-12.63h-8.95a6.32,6.32,0,1,0,0,12.63Z" fill="#e6e6e6"/><line x1="247.72" y1="180.35" x2="236.49" y2="180.35" fill="none" stroke="#b3b7e7" stroke-miterlimit="10" stroke-width="0.73"/><line x1="250.86" y1="177.97" x2="236.49" y2="177.97" fill="none" stroke="#b3b7e7" stroke-miterlimit="10" stroke-width="0.73"/><line x1="248.91" y1="175.59" x2="236.49" y2="175.59" fill="none" stroke="#b3b7e7" stroke-miterlimit="10" stroke-width="0.73"/><path d="M234,180.51s-1.29,3.17-4,4c0,0,4.66,1,7.08-2.68" fill="#e6e6e6"/><rect x="351.53" y="119.07" width="52.8" height="38.98" fill="url(#r)"/><g style="mix-blend-mode:multiply"><path d="M365,131.07v3.32" fill="none" stroke="#b5b5d8" stroke-linecap="round" stroke-linejoin="round" stroke-width="0.55"/><path d="M365,134.69l3.81-.38" fill="none" stroke="#b5b5d8" stroke-linecap="round" stroke-linejoin="round" stroke-width="0.55"/><path d="M365,131.36l3.8-.16" fill="none" stroke="#b5b5d8" stroke-linecap="round" stroke-linejoin="round" stroke-width="0.55"/><path d="M369.28,131.22l-.13,2.57" fill="none" stroke="#b5b5d8" stroke-linecap="round" stroke-linejoin="round" stroke-width="0.55"/><path d="M367.21,134.39a10.78,10.78,0,0,1,.13,2.72" fill="none" stroke="#b5b5d8" stroke-linecap="round" stroke-linejoin="round" stroke-width="0.55"/><path d="M374.08,145.34l-1.61.11a.37.37,0,0,0-.25.09.43.43,0,0,0-.06.28l0,1.1a1.12,1.12,0,0,0,.18.7c.25.31.72.26,1.1.17l.93-.21a.39.39,0,0,0,.25-.12c.08-.08.07-.22.07-.34l-.12-1.7" fill="none" stroke="#b5b5d8" stroke-linecap="round" stroke-linejoin="round" stroke-width="0.55"/><path d="M374.81,146.52l2.64,0" fill="none" stroke="#b5b5d8" stroke-linecap="round" stroke-linejoin="round" stroke-width="0.55"/><path d="M377.86,145.42l-.15,1.82" fill="none" stroke="#b5b5d8" stroke-linecap="round" stroke-linejoin="round" stroke-width="0.55"/><path d="M377.89,147.7h1.9" fill="none" stroke="#b5b5d8" stroke-linecap="round" stroke-linejoin="round" stroke-width="0.55"/><path d="M377.74,145.13h2.06a.48.48,0,0,1,.35.09.56.56,0,0,1,.09.44l-.2,1.89" fill="none" stroke="#b5b5d8" stroke-linecap="round" stroke-linejoin="round" stroke-width="0.55"/><path d="M380.23,146.35a6.14,6.14,0,0,0,2,.13" fill="none" stroke="#b5b5d8" stroke-linecap="round" stroke-linejoin="round" stroke-width="0.55"/><path d="M382.57,144.82v2.42" fill="none" stroke="#b5b5d8" stroke-linecap="round" stroke-linejoin="round" stroke-width="0.55"/><path d="M382.42,147.81l2.49-.14" fill="none" stroke="#b5b5d8" stroke-linecap="round" stroke-linejoin="round" stroke-width="0.55"/><path d="M385.06,147.54a10.7,10.7,0,0,1-.15-2.26" fill="none" stroke="#b5b5d8" stroke-linecap="round" stroke-linejoin="round" stroke-width="0.55"/><path d="M384.77,145l-2.2.15" fill="none" stroke="#b5b5d8" stroke-linecap="round" stroke-linejoin="round" stroke-width="0.55"/><path d="M388.13,148.1h5.13" fill="none" stroke="#b5b5d8" stroke-linecap="round" stroke-linejoin="round" stroke-width="0.55"/><path d="M388.13,146.2c1.91-.07,3.81,0,5.72.06" fill="none" stroke="#b5b5d8" stroke-linecap="round" stroke-linejoin="round" stroke-width="0.55"/><path d="M359.15,132.12h3.37" fill="none" stroke="#b5b5d8" stroke-linecap="round" stroke-linejoin="round" stroke-width="0.55"/><path d="M359.73,133.72l2.79-.12" fill="none" stroke="#b5b5d8" stroke-linecap="round" stroke-linejoin="round" stroke-width="0.55"/></g><g style="mix-blend-mode:multiply"><path d="M356.37,126.52q20.26.44,40.54.39" fill="none" stroke="#8786c0" stroke-linecap="round" stroke-linejoin="round" stroke-width="0.55"/><path d="M361.42,138c3,.08,11.74,0,14.71-.32" fill="none" stroke="#8786c0" stroke-linecap="round" stroke-linejoin="round" stroke-width="0.55"/><path d="M376.6,135.3l-.15,3.63" fill="none" stroke="#8786c0" stroke-linecap="round" stroke-linejoin="round" stroke-width="0.55"/><path d="M376.42,139.38h3.81" fill="none" stroke="#8786c0" stroke-linecap="round" stroke-linejoin="round" stroke-width="0.55"/><path d="M376.57,135.15a10.78,10.78,0,0,0,3.8,0" fill="none" stroke="#8786c0" stroke-linecap="round" stroke-linejoin="round" stroke-width="0.55"/><path d="M380.67,135.15v3.78" fill="none" stroke="#8786c0" stroke-linecap="round" stroke-linejoin="round" stroke-width="0.55"/><path d="M373.2,138.25c-.05,2-.09,4.31-.14,6.3" fill="none" stroke="#8786c0" stroke-linecap="round" stroke-linejoin="round" stroke-width="0.55"/><path d="M361.57,137.87a25.76,25.76,0,0,1-.11,3.62" fill="none" stroke="#8786c0" stroke-linecap="round" stroke-linejoin="round" stroke-width="0.55"/><path d="M358.86,142h3.95" fill="none" stroke="#8786c0" stroke-linecap="round" stroke-linejoin="round" stroke-width="0.55"/><path d="M363.1,141.8a9.22,9.22,0,0,1,.15,2.57" fill="none" stroke="#8786c0" stroke-linecap="round" stroke-linejoin="round" stroke-width="0.55"/><path d="M358.79,141.87c0,.71,0,2.55.07,3.26" fill="none" stroke="#8786c0" stroke-linecap="round" stroke-linejoin="round" stroke-width="0.55"/><path d="M358.86,145.43a7.45,7.45,0,0,0,3.22.13" fill="none" stroke="#8786c0" stroke-linecap="round" stroke-linejoin="round" stroke-width="0.55"/><path d="M388.36,141.73a6,6,0,0,0,1.75-1.58,1.41,1.41,0,0,0,.34-.86c0-.32-.3-.64-.6-.56a.78.78,0,0,0-.44.51,3.05,3.05,0,0,0-.29,1.65,1.47,1.47,0,0,0,1,1.24,1.59,1.59,0,0,0,.81,0,3.59,3.59,0,0,0,2.58-3.2.62.62,0,0,0-.18-.56c-.32-.22-.65.28-.75.66-.2.78-.33,1.76.29,2.24s1.32.15,1.94-.13" fill="none" stroke="#8786c0" stroke-linecap="round" stroke-linejoin="round" stroke-width="0.55"/><path d="M367.34,150.57h5.13" fill="none" stroke="#8786c0" stroke-linecap="round" stroke-linejoin="round" stroke-width="0.55"/><path d="M367.34,152.24l4.55,0" fill="none" stroke="#8786c0" stroke-linecap="round" stroke-linejoin="round" stroke-width="0.55"/><path d="M367.34,154.09a34.06,34.06,0,0,1,4.4-.09" fill="none" stroke="#8786c0" stroke-linecap="round" stroke-linejoin="round" stroke-width="0.55"/><path d="M364.9,123.82a11.72,11.72,0,0,1,6-1.52c.38,0,.85.1,1,.47a.81.81,0,0,1-.08.57c-.4.89-1.8,1.81-2.36,1.17s3.7-2.91,5.53-2c.91.44-.49,3.22-1.48,2.54s2.06-2.1,3.24-2.37c.74-.16,1.68-.18,2,.52.52,1.12-2,2.13-2.16,1.31s6.84-1.39,10-.73" fill="none" stroke="#8786c0" stroke-linecap="round" stroke-linejoin="round" stroke-width="0.55"/></g><path d="M318.74,156.18l1.36.66c-4,4.25-3.93,5-6,6.42l-1.32-3.1Z"/><path d="M318.77,156.14l1.73-.74a1.63,1.63,0,0,1,1.09-.05l1.46.47a.76.76,0,0,1,.36,1.19h0l-2.23.81a2.39,2.39,0,0,1-1.62,0l-.91-.33Z"/><path d="M312.81,155.13l1.56,5c.24.09.89,3.1-.52,3.36,0,0-1.45.26-2-1.82a48.82,48.82,0,0,1-1-5.75Z" fill-rule="evenodd"/><path d="M310.29,150.54a18.8,18.8,0,0,1,3.06,6.34l-2.65,1.51Z" fill-rule="evenodd"/><circle cx="306.79" cy="183.03" r="0.85"/><circle cx="311.65" cy="183.03" r="0.85"/><circle cx="301.92" cy="183.03" r="0.85"/><path d="M306.69,180.65h0A.66.66,0,0,1,306,180V167.82a.67.67,0,0,1,.66-.66h0a.67.67,0,0,1,.67.66V180A.66.66,0,0,1,306.69,180.65Z"/><path d="M306.76,174.49h0a1.65,1.65,0,0,1-1.63-1.64v-2.16a1.64,1.64,0,0,1,1.63-1.63h0a1.64,1.64,0,0,1,1.64,1.63v2.16A1.65,1.65,0,0,1,306.76,174.49Z" fill-rule="evenodd"/><path d="M312.35,181.37H301.22a.54.54,0,0,1-.54-.54h0a.54.54,0,0,1,.54-.54h11.13a.54.54,0,0,1,.54.54h0A.54.54,0,0,1,312.35,181.37Z"/><path d="M301.68,172.14h11.05a1.86,1.86,0,0,0,1.86-1.86h0a1.85,1.85,0,0,0-1.86-1.85H301.68a1.85,1.85,0,0,0-1.85,1.85h0A1.85,1.85,0,0,0,301.68,172.14Z"/><rect x="297.95" y="152.53" width="10.37" height="13.47" rx="2.2"/><polygon points="319.64 182.8 321.88 182.86 321.46 176.14 319.32 176.07 319.64 182.8" fill-rule="evenodd"/><polygon points="321.81 182.4 319.47 182.15 319.32 183.88 324.83 183.88 324.83 183.28 321.81 182.4" fill-rule="evenodd"/><path d="M310.7,164.87l9.06,1a2.56,2.56,0,0,1,2.38,2.44l.23,12.87-3.53-.1-1.21-11.53-9.23-1.17Z" fill-rule="evenodd"/><path d="M310.79,161.73a10.21,10.21,0,0,1-8.36-1.09s-.32,2.67-.43,3.56c0,.19-.05.37-.08.56v0a3.15,3.15,0,0,0,2.8,3.8l6.2.06a6.23,6.23,0,0,0,.88-2.57A23.41,23.41,0,0,0,310.79,161.73Z"/><path d="M309.77,143.55s2.23,1,.93,2.59-1.22-2.59-1.22-2.59Z" fill-rule="evenodd"/><polygon points="305.14 150.43 307.18 146.94 309.22 147.85 308.49 151.46 305.14 150.43 305.14 150.43" fill-rule="evenodd"/><path d="M310.66,145.41A2,2,0,0,0,310,144a2,2,0,0,0-1.52-.48h0a2,2,0,0,0-1.82,2.09c0,.62.05,1.29.08,1.88a2.38,2.38,0,0,0,.58,1.38,5.66,5.66,0,0,0,2.11.7c.78-.08,1.37-1.57,1.34-2.36,0-.54-.05-1.17-.07-1.77Z" fill-rule="evenodd"/><path d="M310.14,142.78c-1.28-.68-4.45-.2-4.21,2.07a15.69,15.69,0,0,0,.74,2.61,10.37,10.37,0,0,0,1.18-2.83h2.29a1.15,1.15,0,0,0,1.24-.91s-.15.12-.68,0l.4-.35Z" fill-rule="evenodd"/><path d="M308.83,149.76c-.87,1.31-3,.12-3.3-.34,0-.08-1,.46-1.09.54-1.84,1.27-2.08,6.71-2.41,8.67-.15.91-1,4-.55,4.77.15.26,1.58.06,1.87.11,1.19.22,6.56.63,7.3-.19s.31-4.78.45-5.74c.75-5.08-.81-7-.81-7Z" fill-rule="evenodd"/><path d="M306.7,145.74a.59.59,0,0,1,.63.49c.08.33,0,1-.24,1.09s-.63-.51-.71-.85a.57.57,0,0,1,.32-.73Z" fill-rule="evenodd"/><polygon points="310.07 182.8 312.31 182.86 314.87 176.14 312.72 176.07 310.07 182.8" fill-rule="evenodd"/><polygon points="312.24 182.4 309.89 182.15 309.74 183.88 315.26 183.88 315.26 183.28 312.24 182.4" fill-rule="evenodd"/><path d="M312.74,171.53l-8.83-3.08.47-1.58,5.61-1.4,5.21,2.6c1.12.51,2.14,2.26,1.53,3.53l-3.3,9.59-3.54-.1Z" fill-rule="evenodd"/><path d="M308,164.87l2.35,1.25s1.55,1.55.49,2.13-1.37-.27-1.56-.51a3.75,3.75,0,0,1-2-1.85Z" fill-rule="evenodd"/><path d="M308.19,166.61l.21-1.57-6.14-3,.1-6-3.28,1.43v4.6a3.18,3.18,0,0,0,1.55,2.73Z" fill-rule="evenodd"/><path d="M304.44,150a8.76,8.76,0,0,0-5.81,8.43h4.95Z" fill-rule="evenodd"/><path d="M323.79,161.11h10.6l3.2-7.13H327.23a.38.38,0,0,0-.34.22Z" fill-rule="evenodd"/><path d="M324.2,161.11h10.6l3.05-6.8a.23.23,0,0,0-.21-.33H327.55a.23.23,0,0,0-.21.14Z" fill-rule="evenodd"/><path d="M330.72,157.59c-.13.45.21.81.76.81a1.3,1.3,0,0,0,1.23-.81c.12-.44-.22-.8-.77-.8A1.28,1.28,0,0,0,330.72,157.59Z" fill-rule="evenodd"/><path d="M334.39,161.11H317.87a.56.56,0,0,0-.55.56h0a.55.55,0,0,0,.55.55h16.52Z" fill-rule="evenodd"/><path d="M306.24,163.09h31.7a.56.56,0,0,0,.55-.56h0a.55.55,0,0,0-.55-.55h-31.7a.55.55,0,0,0-.55.55h0A.56.56,0,0,0,306.24,163.09Z" fill-rule="evenodd"/><path d="M399.37,134.78s-.73,0-1.57.07a5.14,5.14,0,0,1-2.6-.9,1.59,1.59,0,0,1,0-.41v0a1.66,1.66,0,0,1,.16-.33,8,8,0,0,0,1.74,0s-.75-.3-.79-.55l.07-.16s.86.23,1.25.29a6,6,0,0,1,1.62.51S400,134.51,399.37,134.78Z"/><path d="M399.94,142.48c.48,2.21,3.49,1.43,2.62-1.12-1.09-3.19-3.14-7.79-3.14-7.79l-1,1.13C398.18,134.28,398.7,136.85,399.94,142.48Z"/><path d="M407.59,137.67s-6.68,2.26-7.19,4.85c-.58,3,6.14,1.42,7.29-1.07C408.69,139.27,409.08,137.57,407.59,137.67Z"/><path d="M416.56,137.6s5.33,3.87,7.84,9.09a1,1,0,0,1-.11.94c-.57.72-1.67,1.08-6.6,2.74-.31.1-.25,1.13-.33,2a.44.44,0,0,1-.88,0l-.3-2.16a22.73,22.73,0,0,1,5.6-3.51s-3.4-2.79-6.27-4.89C414.1,140.78,415,136.87,416.56,137.6Z"/><path d="M416.27,182.82c0-.19,0-.37,0-.54a11.28,11.28,0,0,1,.05-1.43,62.06,62.06,0,0,0,.61-10,47.06,47.06,0,0,1,.08-6.29c.05-4.75.16-9.84-.7-12.65a14.39,14.39,0,0,1-.78-5.08s-1.24,1.87-4.71,1.82c0,0-.18,5.26,1.11,5.85,0,0,.43,7.84.58,9.89s1,7.11,1.29,9,1.14,7.37.81,8.95c0,.15-.24.34-.5.55s-.29.22-.45.33"/><path d="M412.28,183.87c-.52-.22,0-.47,0-.47a5.11,5.11,0,0,0,1.83-.53,4.94,4.94,0,0,0,2.16-.59c0,.26,0,1.22,0,1.54Z"/><path d="M410.94,147.89l0,.23A.56.56,0,0,0,410.94,147.89Z"/><path d="M412.42,152.6a23,23,0,0,1-1.45-4.43c0,.32-.43.84-2.89.44,0,0-2.59,6.08-2.39,15.67.05,2-.64,7.13-.67,9.05s-.3,7.59-.28,7.6a3.58,3.58,0,0,1-.31,1.36,1.84,1.84,0,0,1-.57.47c-.46.28-.89.52-.41.8s2.52.07,2.54-.22.06-.6.09-.85a13.16,13.16,0,0,1,.27-1.41,61.32,61.32,0,0,0,2.15-9.82c.56-4.79,1.25-4.29,1.6-6.46C411.39,156.85,413.13,154.31,412.42,152.6Z"/><path d="M403.86,182.76a4.87,4.87,0,0,0,2.22-.27l.06,1.31h-4c-.49-.28,0-.46,0-.46Z"/><path d="M415.48,147.91c-4.24,2.14-7.4.67-7.4.67a44.57,44.57,0,0,0-.63-6.07,3.89,3.89,0,0,1-.14-1.16,28.15,28.15,0,0,1,.28-3.68,4.36,4.36,0,0,1,1.26-.38l.23,0c.72-.11,1.38-.14,1.38-.14l.07-.77.05-.52.09-.85c.11-1.12,2.41-.64,2.41-.64v2.76a6.68,6.68,0,0,0,1.14.12l.2,0a5.9,5.9,0,0,1,1.82.32C416.73,137.87,415.2,146.7,415.48,147.91Z"/><path d="M413.08,134.62v.83a3.73,3.73,0,0,1-2.55.89l.05-.52.09-.85C411.15,134.36,412.59,134.54,413.08,134.62Z"/><path d="M409.71,130.72a3.54,3.54,0,0,0-.35,1.77c-.08,2.32,1.05,3.18,1.81,3.18a2.58,2.58,0,0,0,2.68-2.48,5.4,5.4,0,0,0-.13-2.54C413.2,129.49,410.8,129.19,409.71,130.72Z"/><path d="M408.08,148.58s-2.91,3.45-2.68,18.1c0,0-.47,4.13-.61,6.83,0,0,6.63,1.54,12.55-.23,0,0-.17-3.57-.08-6.27s.61-12.78-1.68-18.43A18,18,0,0,1,408.08,148.58Z"/><path d="M416.56,137.6a25.78,25.78,0,0,1-.22,4.15c-.3,2-.49,2.4-.3,3.73a8,8,0,0,1-.46,3.1,10.65,10.65,0,0,1-7.5,0,9.24,9.24,0,0,1-.44-2.89,4.4,4.4,0,0,0-.33-2.5,4.24,4.24,0,0,1-.32-3.05,5.88,5.88,0,0,0,.32-2.35S412.21,136.13,416.56,137.6Z"/><path d="M416.26,137.36a16.75,16.75,0,0,1,5.28,4.29c2.27,2.86,2.31,3.56,3.11,4s-1.16,1.67-2.87,1-5.82-4.44-5.82-4.44S414.43,137.38,416.26,137.36Z"/><path d="M407.79,138.36a0,0,0,0,0,0,0,3.31,3.31,0,0,0-.42,1.15c-.17.52-.39,1-.57,1.52,0,.06.08.1.11,0a10.24,10.24,0,0,0,.59-1.41A2.75,2.75,0,0,0,407.79,138.36Z"/><path d="M415.93,139.37a7.91,7.91,0,0,0-.06-1.19s0,0,0,0a4.49,4.49,0,0,0,.09,2.59c0,.07.15.07.14,0C416,140.29,416,139.84,415.93,139.37Z"/><path d="M414.06,134.66a3.54,3.54,0,0,0,.8-3.15,3.32,3.32,0,0,0-2.3-1.9,3.1,3.1,0,0,0-2.85.95,1.86,1.86,0,0,0-.34,1.25c0,1,1.51,1.1,2.13,2.47a1.77,1.77,0,0,0,1.82,1.17Z"/><path d="M414.44,132.79c.27.48-.18.62-.16,1.23s.52.53.42.92-.42,1.1-.26,1.53.61.38.57.68-.57.79-.53,1.08-.05,1.56,2,1.55c1.24,0,1.2-.88,1.23-1.41a1.54,1.54,0,0,0-.66-1.22c-.19-.22.15-.61.19-1s-.5-.69-.65-1,.15-.85.12-1.13-.63-.68-.55-1.23a1.22,1.22,0,0,0-1.91-1.13C413.66,132.14,414.44,132.79,414.44,132.79Z"/><path d="M410.1,132.72s.36-1,.94-.45-.22,1.89-1.1,1.78C409.94,134.05,409.82,133.05,410.1,132.72Z"/><polygon points="343.7 182.76 346.04 182.82 345.69 177.12 343.54 177.75 343.7 182.76" fill-rule="evenodd"/><polygon points="345.97 182.34 343.36 182.07 343.36 183.88 349.12 183.88 349.12 183.26 345.97 182.34" fill-rule="evenodd"/><polygon points="351.49 182.76 353.83 182.82 353.48 177.12 351.33 177.75 351.49 182.76" fill-rule="evenodd"/><polygon points="353.76 182.34 351.15 182.07 351.15 183.88 356.91 183.88 356.91 183.26 353.76 182.34" fill-rule="evenodd"/><path d="M353.4,136.58s1.64-.27,3.49,8.82l-2.7-.1S352.89,139.34,353.4,136.58Z"/><path d="M350.92,181.77s-.53-21.46-.65-22.65c-.17-1.77-.49-2.17-.72-2.09s-.39.32-.66,1.85c-.3,1.69-2.55,22.89-2.55,22.89l-3.21.07s.41-11.53.55-14.12c.11-2.14.2-3.94.28-5.47.38-7.53.49-10.91.49-10.91l9.74.25s.4,5.5.4,6.84c0,8.33-.33,23.41-.33,23.41Z"/><path d="M342.78,137.73a.53.53,0,0,0,.06.14,25.73,25.73,0,0,1,1.51,4.92c.17,1.05.1,8.55.1,8.55,3.73,1,9.74.25,9.74.25s0-6.4-.66-14.7l-2.42-.36-1.2-.18.32-1.11.44-1.07a3.86,3.86,0,0,1-3.09-.76,3.77,3.77,0,0,1-.06.71c0,.2-.71,2.31-.71,2.31a5.87,5.87,0,0,0-.85.06,8.06,8.06,0,0,0-3.1,1l-.05,0A.2.2,0,0,0,342.78,137.73Z"/><path d="M340.6,156s0,.52,0,1.18a8.29,8.29,0,0,0,.17,2.51.94.94,0,0,0,.18.15l.05,0a1.36,1.36,0,0,0,.42.16h.05a1.51,1.51,0,0,0,.42,0h0a2.45,2.45,0,0,0,.38-.13,8.89,8.89,0,0,1,.18-1.93s.23.88.5,1l.18-.06s-.13-1-.15-1.41a2.7,2.7,0,0,0-.92-1.77S341,155.38,340.6,156Z"/><path d="M344.46,141.32c-.14.43-.32,1-.51,1.64-.61,2-1.4,4.78-1.53,5.62s-.13,5-.11,6.66v.7a1.5,1.5,0,0,1-1.68.65l-.18-.9a37.05,37.05,0,0,1-.78-7.14,58.27,58.27,0,0,1,1.69-7.68,13.64,13.64,0,0,1,1.08-3,1.46,1.46,0,0,1,1.05-.61C345,137.17,345,139.73,344.46,141.32Z"/><path d="M350.48,130.86c.14-.07.38-.09.48,0s0,.06,0,.06a1.06,1.06,0,0,1-.19,0,.49.49,0,0,0-.21,0C350.47,131,350.43,130.89,350.48,130.86Z"/><path d="M348.54,131c.07-.19.4-.21.54-.09a.06.06,0,0,1,0,.09,2.26,2.26,0,0,1-.26,0,1.52,1.52,0,0,0-.2.06A0,0,0,0,1,348.54,131Z"/><path d="M341.93,160.08h0a16.24,16.24,0,0,1,0-2h0A4.72,4.72,0,0,0,341.93,160.08Z"/><path d="M341.46,160.08h.05a14.43,14.43,0,0,1,0-2h0A4.8,4.8,0,0,0,341.46,160.08Z"/><path d="M341,159.88l.05,0a16.57,16.57,0,0,1,0-1.86s0,0,0,0A4.46,4.46,0,0,0,341,159.88Z"/><path d="M350.23,135.24c-2.37.5-2.56-.72-2.71-1.12a3.77,3.77,0,0,0,.06-.71,3.86,3.86,0,0,0,3.09.76Z"/><path d="M351.64,132.29s.22-2.79-.47-3.14c-1.65-.85-5-.45-4.57,2.1.3,1.82.57,1.29.57,1.29S351.51,132.52,351.64,132.29Z"/><path d="M351.31,130.27a2.91,2.91,0,0,1,.32,1.63c.07,2.14-.57,2.81-1.67,2.93s-2.23-.3-2.47-2.29c-.12-1-.24-1.91.12-2.34A3.32,3.32,0,0,1,351.31,130.27Z"/><path d="M350.4,129.44a1.93,1.93,0,0,1-1.8,1.05h-.26v1.75h-.7v-.38h-.46a2,2,0,0,1,1.35-2.58C350,128.9,350.4,129.44,350.4,129.44Z"/><path d="M347.64,132.26s-.33-.89-.86-.42.2,1.81,1,1.71C347.79,133.55,347.9,132.56,347.64,132.26Z"/><path d="M347,132.24a.81.81,0,0,1,.32.21.83.83,0,0,1,.23.3s0,.06-.06,0-.12-.14-.18-.21a.45.45,0,0,1-.16.12c-.05,0-.08,0-.06-.08a.3.3,0,0,1,.13-.12,1.79,1.79,0,0,1-.26-.2S347,132.24,347,132.24Z"/><path d="M346.81,136.43a7.86,7.86,0,0,0-3.95,1l-.05,0,0,.35a25.73,25.73,0,0,1,1.51,4.92c.17,1.05.1,8.55.1,8.55,3.73,1,9.74.25,9.74.25s0-6.4-.66-14.7l-3.62-.54-1.12,1.59Z"/><path d="M350.23,136.25s0,5.33.46,9.3c.07.57.14,1.51.21,2.56.19,2.82.39,6.74.39,6.74s2.7.18,3.73-.45l-.83-11.29a43.66,43.66,0,0,1-.49-6.34c0-.36-2.05-.39-2.95-.47Z"/><path d="M350.23,136.25s0,5.33.46,9.3c.07.57.14,1.51.21,2.56l1-9-1-.72,1-.27s-.9-1.52-1.13-1.8Z"/><path d="M339.61,151.07c.2,2.32.68,5,.68,5,2,.23,2.21-.42,2.21-.42s.06-6.48.1-7.21,1.59-5.8,1.59-5.8c.29.86-.12,11.65-.12,11.65a10.68,10.68,0,0,0,3.8.33c0-2.47-.06-4.82-.19-7a96.57,96.57,0,0,0-1.34-11.39l-.5.12c-.64.15-1.77.43-2.58.71-1,.34-1.42,1.65-1.8,3.06-.27,1-1,3.94-1.52,6.26-.18.85-.31,1.62-.38,2.2A15.13,15.13,0,0,0,339.61,151.07Z"/><path d="M345.91,138.37l-1.11.62,2.88,8.65a96.57,96.57,0,0,0-1.34-11.39l-.5.12-1,1.7Z"/><path d="M357.25,147.92a2.13,2.13,0,0,1-1.78,2,2.51,2.51,0,0,1-2.19-1.2s1-.37,1-1.07C354.32,147.67,357,147.21,357.25,147.92Z"/><path d="M353.28,148.74a10.53,10.53,0,0,1-2.36-.36c-.62-.26-.69-.51-.69-.51h4S354.36,148.42,353.28,148.74Z"/><path d="M349.89,147.87H358a.48.48,0,0,0,.43-.32l1.78-5.25A.22.22,0,0,0,360,142h-8.14a.48.48,0,0,0-.43.32l-1.78,5.25C349.62,147.73,349.71,147.87,349.89,147.87Z"/><path d="M346,147.87h4.47a.35.35,0,1,0,0-.69H346a.35.35,0,1,0,0,.69Z"/><path d="M339.61,151.07a2.54,2.54,0,0,0,1.32-2.33,3.3,3.3,0,0,0-1-2.34c-.18.85-.31,1.62-.38,2.2A15.13,15.13,0,0,0,339.61,151.07Z"/><path d="M355.51,144.93a.38.38,0,0,0-.36-.56.86.86,0,0,0-.75.56.39.39,0,0,0,.37.55A.84.84,0,0,0,355.51,144.93Z"/><line x1="273.3" y1="117.38" x2="177.16" y2="117.38" fill="none" stroke="#fff" stroke-miterlimit="10" stroke-width="0.73"/><path d="M273.24,116.14a1.24,1.24,0,1,1-1.24,1.24A1.24,1.24,0,0,1,273.24,116.14Z" fill="#fff"/><circle cx="177.22" cy="117.38" r="1.24" fill="#fff"/><line x1="431.04" y1="184.6" x2="295.47" y2="184.6" fill="none" stroke="#fff" stroke-miterlimit="10" stroke-width="0.73"/><path d="M431,183.36a1.24,1.24,0,1,1-1.24,1.24A1.24,1.24,0,0,1,431,183.36Z" fill="#fff"/><path d="M295.53,183.36a1.24,1.24,0,1,0,1.24,1.24A1.24,1.24,0,0,0,295.53,183.36Z" fill="#fff"/><line x1="509.95" y1="224.57" x2="434.22" y2="224.57" fill="none" stroke="#fff" stroke-miterlimit="10" stroke-width="0.73"/><path d="M509.89,223.33a1.24,1.24,0,1,1,0,2.48,1.24,1.24,0,0,1,0-2.48Z" fill="#fff"/><path d="M434.28,223.33a1.24,1.24,0,1,0,1.24,1.24A1.25,1.25,0,0,0,434.28,223.33Z" fill="#fff"/><line x1="309.14" y1="229.55" x2="188.73" y2="229.55" fill="none" stroke="#fff" stroke-miterlimit="10" stroke-width="0.73"/><path d="M309.07,228.31a1.24,1.24,0,1,1-1.23,1.24A1.24,1.24,0,0,1,309.07,228.31Z" fill="#fff"/><path d="M188.79,228.31a1.24,1.24,0,1,0,1.24,1.24A1.25,1.25,0,0,0,188.79,228.31Z" fill="#fff"/><path d="M84.11,195.23h0a.61.61,0,0,1,.41.75h0a.6.6,0,0,1-.75.41h0a.6.6,0,0,1-.41-.75h0a.6.6,0,0,1,.58-.43h0A.5.5,0,0,1,84.11,195.23Z" fill="none"/><path d="M88.14,196.66a.61.61,0,0,1,.32.8h0a.61.61,0,0,1-.79.32h0a.6.6,0,0,1-.32-.8h0a.59.59,0,0,1,.55-.37h0A.69.69,0,0,1,88.14,196.66Z" fill="none"/><path d="M92,198.57a.61.61,0,0,1,.22.83h0a.61.61,0,0,1-.83.22h0a.6.6,0,0,1-.22-.83h0a.62.62,0,0,1,.53-.3h0A.67.67,0,0,1,92,198.57Z" fill="none"/><path d="M95.54,200.93a.61.61,0,0,1,.12.85h0a.61.61,0,0,1-.85.12h0a.61.61,0,0,1-.12-.85h0a.63.63,0,0,1,.49-.24h0A.62.62,0,0,1,95.54,200.93Z" fill="none"/><path d="M98.8,203.7h0a.61.61,0,0,1,0,.86h0a.61.61,0,0,1-.86,0h0a.61.61,0,0,1,0-.86h0a.62.62,0,0,1,.44-.18h0A.61.61,0,0,1,98.8,203.7Z" fill="none"/><line x1="31.44" y1="243.08" x2="534.57" y2="243.08" fill="none" stroke="#fff" stroke-miterlimit="10" stroke-width="2.2"/><g style="mix-blend-mode:overlay"><polyline points="214.17 110.47 252.72 110.47 252.72 100.92 240.44 100.92" fill="none" stroke="#dae1ff" stroke-miterlimit="10" stroke-width="0.73"/><path d="M214.23,111.71a1.24,1.24,0,1,1,1.24-1.24A1.24,1.24,0,0,1,214.23,111.71Z" fill="#dae1ff"/><path d="M240.5,99.68a1.24,1.24,0,1,0,1.24,1.24A1.24,1.24,0,0,0,240.5,99.68Z" fill="#dae1ff"/><line x1="227.98" y1="92.24" x2="214.91" y2="92.24" fill="none" stroke="#dae1ff" stroke-miterlimit="10" stroke-width="0.73"/><path d="M227.92,91a1.24,1.24,0,1,1-1.24,1.24A1.24,1.24,0,0,1,227.92,91Z" fill="#dae1ff"/><path d="M215,91a1.24,1.24,0,1,0,1.24,1.24A1.24,1.24,0,0,0,215,91Z" fill="#dae1ff"/><polyline points="133.16 137.67 140.82 130.01 169.94 130.01 169.94 110.47 187 110.47" fill="none" stroke="#dae1ff" stroke-miterlimit="10" stroke-width="0.73"/><path d="M134.08,138.5a1.24,1.24,0,1,1-1.76-1.75,1.24,1.24,0,0,1,1.76,1.75Z" fill="#dae1ff"/><path d="M186.94,111.71a1.24,1.24,0,1,0-1.24-1.24A1.24,1.24,0,0,0,186.94,111.71Z" fill="#dae1ff"/><polyline points="143.14 139.23 176.55 139.23 185.22 130.56" fill="none" stroke="#dae1ff" stroke-miterlimit="10" stroke-width="0.73"/><path d="M143.2,140.47a1.24,1.24,0,1,1,1.24-1.24A1.24,1.24,0,0,1,143.2,140.47Z" fill="#dae1ff"/><path d="M186.05,131.48a1.23,1.23,0,0,0,0-1.75,1.24,1.24,0,0,0-1.75,1.75A1.23,1.23,0,0,0,186.05,131.48Z" fill="#dae1ff"/><polyline points="143.14 139.23 182 139.23 182 151.71" fill="none" stroke="#dae1ff" stroke-miterlimit="10" stroke-width="0.73"/><path d="M143.2,140.47a1.24,1.24,0,1,1,1.24-1.24A1.24,1.24,0,0,1,143.2,140.47Z" fill="#dae1ff"/><path d="M180.77,151.65a1.24,1.24,0,1,0,1.23-1.24A1.23,1.23,0,0,0,180.77,151.65Z" fill="#dae1ff"/><polyline points="163.87 237.02 185.31 237.02 185.31 229.18 149.75 229.18" fill="none" stroke="#dae1ff" stroke-miterlimit="10" stroke-width="0.73"/><path d="M163.93,238.26a1.24,1.24,0,1,1,1.24-1.24A1.25,1.25,0,0,1,163.93,238.26Z" fill="#dae1ff"/><path d="M149.81,227.94a1.24,1.24,0,1,0,1.24,1.24A1.24,1.24,0,0,0,149.81,227.94Z" fill="#dae1ff"/><polyline points="172.92 222.07 137.03 222.07 137.03 237.02 151.72 237.02" fill="none" stroke="#dae1ff" stroke-miterlimit="10" stroke-width="0.73"/><path d="M172.86,220.83a1.24,1.24,0,1,1-1.24,1.24A1.23,1.23,0,0,1,172.86,220.83Z" fill="#dae1ff"/><circle cx="151.66" cy="237.02" r="1.24" fill="#dae1ff"/><polyline points="206.91 192.18 202.69 196.4 202.69 222.07 181.45 222.07" fill="none" stroke="#dae1ff" stroke-miterlimit="10" stroke-width="0.73"/><circle cx="206.87" cy="192.22" r="1.24" fill="#dae1ff"/><path d="M181.52,220.83a1.24,1.24,0,1,0,1.23,1.24A1.23,1.23,0,0,0,181.52,220.83Z" fill="#dae1ff"/><polyline points="248.04 215.04 232.07 215.04 232.07 204.59 238.5 198.16" fill="none" stroke="#dae1ff" stroke-miterlimit="10" stroke-width="0.73"/><path d="M248,213.8a1.24,1.24,0,1,1-1.24,1.24A1.24,1.24,0,0,1,248,213.8Z" fill="#dae1ff"/><path d="M239.34,199.08a1.24,1.24,0,0,0,0-1.75,1.24,1.24,0,0,0-1.75,1.75A1.24,1.24,0,0,0,239.34,199.08Z" fill="#dae1ff"/><polyline points="248.04 215.04 232.07 215.04 232.07 195.3" fill="none" stroke="#dae1ff" stroke-miterlimit="10" stroke-width="0.73"/><path d="M248,213.8a1.24,1.24,0,1,1-1.24,1.24A1.24,1.24,0,0,1,248,213.8Z" fill="#dae1ff"/><circle cx="232.07" cy="195.37" r="1.24" fill="#dae1ff"/><line x1="231.28" y1="222.6" x2="243.78" y2="222.6" fill="none" stroke="#dae1ff" stroke-miterlimit="10" stroke-width="0.73"/><path d="M231.34,223.84a1.24,1.24,0,1,1,1.24-1.24A1.25,1.25,0,0,1,231.34,223.84Z" fill="#dae1ff"/><circle cx="243.72" cy="222.6" r="1.24" fill="#dae1ff"/><line x1="310" y1="222.6" x2="284.79" y2="222.6" fill="none" stroke="#dae1ff" stroke-miterlimit="10" stroke-width="0.73"/><path d="M309.94,221.36a1.24,1.24,0,1,1-1.24,1.24A1.24,1.24,0,0,1,309.94,221.36Z" fill="#dae1ff"/><path d="M284.86,221.36a1.24,1.24,0,1,0,1.23,1.24A1.24,1.24,0,0,0,284.86,221.36Z" fill="#dae1ff"/><polyline points="287.96 211.03 287.96 215.64 303.74 215.64" fill="none" stroke="#dae1ff" stroke-miterlimit="10" stroke-width="0.73"/><path d="M286.72,211.09a1.24,1.24,0,0,1,2.48,0,1.24,1.24,0,1,1-2.48,0Z" fill="#dae1ff"/><circle cx="303.68" cy="215.64" r="1.24" fill="#dae1ff"/><polyline points="208.15 186.1 195.16 186.1 195.16 213.84" fill="none" stroke="#dae1ff" stroke-miterlimit="10" stroke-width="0.73"/><circle cx="208.09" cy="186.1" r="1.24" fill="#dae1ff"/><path d="M193.93,213.78a1.24,1.24,0,1,0,1.23-1.24A1.24,1.24,0,0,0,193.93,213.78Z" fill="#dae1ff"/><polyline points="123.16 148.55 169.37 148.55 198.95 178.13 212.56 178.13" fill="none" stroke="#dae1ff" stroke-miterlimit="10" stroke-width="0.73"/><circle cx="123.22" cy="148.55" r="1.24" fill="#dae1ff"/><path d="M212.49,179.37a1.24,1.24,0,1,0-1.24-1.24A1.24,1.24,0,0,0,212.49,179.37Z" fill="#dae1ff"/><polyline points="123.16 148.55 169.37 148.55 188.03 167.21 188.03 213.84" fill="none" stroke="#dae1ff" stroke-miterlimit="10" stroke-width="0.73"/><circle cx="123.22" cy="148.55" r="1.24" fill="#dae1ff"/><path d="M186.79,213.78a1.24,1.24,0,1,0,1.24-1.24A1.25,1.25,0,0,0,186.79,213.78Z" fill="#dae1ff"/><polyline points="274.37 27.52 231.78 27.52 216.67 42.64 260.21 42.64 267.97 50.4" fill="none" stroke="#dae1ff" stroke-miterlimit="10" stroke-width="0.73"/><path d="M274.31,26.28a1.24,1.24,0,1,1,0,2.48,1.24,1.24,0,0,1,0-2.48Z" fill="#dae1ff"/><circle cx="267.93" cy="50.36" r="1.24" fill="#dae1ff"/><polyline points="161.12 114.67 161.12 98.19 180.96 78.34 186.13 73.18" fill="none" stroke="#dae1ff" stroke-miterlimit="10" stroke-width="0.73"/><path d="M162.36,114.6a1.24,1.24,0,1,1-1.24-1.24A1.24,1.24,0,0,1,162.36,114.6Z" fill="#dae1ff"/><path d="M187,74.1a1.24,1.24,0,1,0-1.75,0A1.26,1.26,0,0,0,187,74.1Z" fill="#dae1ff"/><polyline points="287.59 103.16 296.42 94.33 332.04 94.33" fill="none" stroke="#dae1ff" stroke-miterlimit="10" stroke-width="0.73"/><path d="M288.51,104a1.24,1.24,0,1,1,0-1.75A1.26,1.26,0,0,1,288.51,104Z" fill="#dae1ff"/><path d="M332,95.57a1.24,1.24,0,1,0-1.24-1.24A1.25,1.25,0,0,0,332,95.57Z" fill="#dae1ff"/><line x1="375.94" y1="111.3" x2="400.74" y2="111.3" fill="none" stroke="#dae1ff" stroke-miterlimit="10" stroke-width="0.73"/><path d="M376,112.54a1.24,1.24,0,1,1,1.23-1.24A1.24,1.24,0,0,1,376,112.54Z" fill="#dae1ff"/><path d="M400.68,112.54a1.24,1.24,0,1,0,0-2.48,1.24,1.24,0,0,0,0,2.48Z" fill="#dae1ff"/><polyline points="290.92 170.98 290.92 134.71 281.7 125.49 281.7 93.93" fill="none" stroke="#dae1ff" stroke-miterlimit="10" stroke-width="0.73"/><path d="M292.15,170.92a1.24,1.24,0,1,1-1.24-1.24A1.24,1.24,0,0,1,292.15,170.92Z" fill="#dae1ff"/><path d="M282.94,94a1.24,1.24,0,1,0-1.24,1.24A1.25,1.25,0,0,0,282.94,94Z" fill="#dae1ff"/><line x1="281.7" y1="132.69" x2="281.7" y2="93.93" fill="none" stroke="#dae1ff" stroke-miterlimit="10" stroke-width="0.73"/><path d="M282.94,132.63a1.24,1.24,0,1,1-1.24-1.24A1.24,1.24,0,0,1,282.94,132.63Z" fill="#dae1ff"/><path d="M282.94,94a1.24,1.24,0,1,0-1.24,1.24A1.25,1.25,0,0,0,282.94,94Z" fill="#dae1ff"/><line x1="281.7" y1="151.69" x2="281.7" y2="170.98" fill="none" stroke="#dae1ff" stroke-miterlimit="10" stroke-width="0.73"/><path d="M280.46,151.75A1.24,1.24,0,1,1,281.7,153,1.23,1.23,0,0,1,280.46,151.75Z" fill="#dae1ff"/><path d="M280.46,170.92a1.24,1.24,0,1,0,1.24-1.24A1.24,1.24,0,0,0,280.46,170.92Z" fill="#dae1ff"/><polyline points="340.15 94.47 405.32 94.47 421.44 110.59 449.72 110.59" fill="none" stroke="#dae1ff" stroke-miterlimit="10" stroke-width="0.73"/><path d="M340.21,95.71a1.24,1.24,0,0,1,0-2.48,1.24,1.24,0,1,1,0,2.48Z" fill="#dae1ff"/><path d="M449.65,111.83a1.24,1.24,0,1,0-1.23-1.24A1.23,1.23,0,0,0,449.65,111.83Z" fill="#dae1ff"/><polyline points="415.52 115.92 402.51 102.9 368.57 102.9" fill="none" stroke="#dae1ff" stroke-miterlimit="10" stroke-width="0.73"/><circle cx="415.48" cy="115.87" r="1.24" fill="#dae1ff"/><path d="M368.63,101.66a1.24,1.24,0,1,0,1.24,1.24A1.24,1.24,0,0,0,368.63,101.66Z" fill="#dae1ff"/><polyline points="434.7 95.74 492.86 95.74 508.91 111.79 508.91 130.31" fill="none" stroke="#dae1ff" stroke-miterlimit="10" stroke-width="0.73"/><path d="M434.76,97A1.24,1.24,0,1,1,436,95.74,1.25,1.25,0,0,1,434.76,97Z" fill="#dae1ff"/><path d="M507.67,130.25a1.24,1.24,0,1,0,1.24-1.24A1.24,1.24,0,0,0,507.67,130.25Z" fill="#dae1ff"/><polyline points="516.25 167.78 526.15 177.68 526.15 181.93 516.96 181.93" fill="none" stroke="#dae1ff" stroke-miterlimit="10" stroke-width="0.73"/><circle cx="516.29" cy="167.82" r="1.24" fill="#dae1ff"/><path d="M517,180.69a1.24,1.24,0,1,0,1.23,1.24A1.23,1.23,0,0,0,517,180.69Z" fill="#dae1ff"/><line x1="525.47" y1="153.14" x2="534.53" y2="162.2" fill="none" stroke="#dae1ff" stroke-miterlimit="10" stroke-width="0.73"/><path d="M524.63,154.06a1.24,1.24,0,1,1,1.76,0A1.24,1.24,0,0,1,524.63,154.06Z" fill="#dae1ff"/><polyline points="508.91 96.94 508.91 131.49 502.97 137.44" fill="none" stroke="#dae1ff" stroke-miterlimit="10" stroke-width="0.73"/><path d="M507.67,97a1.24,1.24,0,1,1,1.24,1.24A1.25,1.25,0,0,1,507.67,97Z" fill="#dae1ff"/><circle cx="503.01" cy="137.39" r="1.24" fill="#dae1ff"/><line x1="423.31" y1="28.54" x2="354.28" y2="28.54" fill="none" stroke="#dae1ff" stroke-miterlimit="10" stroke-width="0.73"/><path d="M423.25,27.3A1.24,1.24,0,1,1,422,28.54,1.24,1.24,0,0,1,423.25,27.3Z" fill="#dae1ff"/><path d="M354.34,27.3a1.24,1.24,0,0,0,0,2.48,1.24,1.24,0,1,0,0-2.48Z" fill="#dae1ff"/><polyline points="354.28 28.54 396.36 28.54 411.99 44.17 483.43 44.17" fill="none" stroke="#dae1ff" stroke-miterlimit="10" stroke-width="0.73"/><path d="M354.34,29.78a1.24,1.24,0,1,1,1.24-1.24A1.24,1.24,0,0,1,354.34,29.78Z" fill="#dae1ff"/><path d="M483.37,45.41a1.24,1.24,0,1,0,0-2.48,1.24,1.24,0,0,0,0,2.48Z" fill="#dae1ff"/><line x1="484.6" y1="28.54" x2="431.68" y2="28.54" fill="none" stroke="#dae1ff" stroke-miterlimit="10" stroke-width="0.73"/><path d="M484.54,27.3a1.24,1.24,0,0,1,0,2.48,1.24,1.24,0,0,1,0-2.48Z" fill="#dae1ff"/><path d="M431.74,27.3A1.24,1.24,0,1,0,433,28.54,1.25,1.25,0,0,0,431.74,27.3Z" fill="#dae1ff"/><polyline points="500.41 43.18 493.26 36.03 455.23 36.03" fill="none" stroke="#dae1ff" stroke-miterlimit="10" stroke-width="0.73"/><path d="M501.24,42.26A1.24,1.24,0,0,1,499.49,44a1.24,1.24,0,0,1,1.75-1.75Z" fill="#dae1ff"/><path d="M455.29,34.79A1.24,1.24,0,1,0,456.53,36,1.25,1.25,0,0,0,455.29,34.79Z" fill="#dae1ff"/><polyline points="525.01 96.57 517.13 104.45 517.13 124.97 524.85 132.68 524.85 145.95 515.79 145.95 515.79 154.53 539.5 178.25 539.5 189.42 515.79 189.42 515.79 236.46 524.31 236.46 524.31 200.37 538.33 200.37" fill="none" stroke="#dae1ff" stroke-miterlimit="10" stroke-width="0.73"/><circle cx="524.97" cy="96.61" r="1.24" fill="#dae1ff"/><line x1="517.25" y1="133.86" x2="517.25" y2="139.77" fill="none" stroke="#dae1ff" stroke-miterlimit="10" stroke-width="0.73"/><path d="M516,133.92a1.24,1.24,0,0,1,2.48,0,1.24,1.24,0,0,1-2.48,0Z" fill="#dae1ff"/><path d="M516,139.71a1.24,1.24,0,1,0,1.24-1.24A1.25,1.25,0,0,0,516,139.71Z" fill="#dae1ff"/><line x1="524.31" y1="105.37" x2="524.31" y2="124.59" fill="none" stroke="#dae1ff" stroke-miterlimit="10" stroke-width="0.73"/><path d="M523.07,105.43a1.24,1.24,0,1,1,1.24,1.24A1.24,1.24,0,0,1,523.07,105.43Z" fill="#dae1ff"/><path d="M523.07,124.53a1.24,1.24,0,1,0,1.24-1.24A1.24,1.24,0,0,0,523.07,124.53Z" fill="#dae1ff"/><line x1="524.31" y1="33.11" x2="524.31" y2="52.34" fill="none" stroke="#dae1ff" stroke-miterlimit="10" stroke-width="0.73"/><path d="M523.07,33.18a1.24,1.24,0,1,1,1.24,1.23A1.24,1.24,0,0,1,523.07,33.18Z" fill="#dae1ff"/><path d="M523.07,52.28A1.24,1.24,0,1,0,524.31,51,1.25,1.25,0,0,0,523.07,52.28Z" fill="#dae1ff"/><polyline points="525.08 65.41 551.37 91.7 551.37 103.24 524.89 76.76" fill="none" stroke="#dae1ff" stroke-miterlimit="10" stroke-width="0.73"/><path d="M524.25,66.33A1.24,1.24,0,0,1,526,64.58a1.24,1.24,0,0,1-1.75,1.75Z" fill="#dae1ff"/><circle cx="524.93" cy="76.81" r="1.24" fill="#dae1ff"/><polyline points="504.4 36.28 497.25 29.13 517.76 29.13 517.76 44.51" fill="none" stroke="#dae1ff" stroke-miterlimit="10" stroke-width="0.73"/><path d="M505.24,35.36a1.24,1.24,0,1,1-1.76,0A1.24,1.24,0,0,1,505.24,35.36Z" fill="#dae1ff"/><path d="M516.52,44.45a1.24,1.24,0,1,0,1.24-1.24A1.23,1.23,0,0,0,516.52,44.45Z" fill="#dae1ff"/><line x1="390.02" y1="36.03" x2="323.61" y2="36.03" fill="none" stroke="#dae1ff" stroke-miterlimit="10" stroke-width="0.73"/><path d="M390,34.79A1.24,1.24,0,1,1,388.72,36,1.24,1.24,0,0,1,390,34.79Z" fill="#dae1ff"/><path d="M323.67,34.79A1.24,1.24,0,1,0,324.91,36,1.24,1.24,0,0,0,323.67,34.79Z" fill="#dae1ff"/><line x1="390.02" y1="44.17" x2="323.61" y2="44.17" fill="none" stroke="#dae1ff" stroke-miterlimit="10" stroke-width="0.73"/><path d="M390,42.93a1.24,1.24,0,1,1-1.23,1.24A1.23,1.23,0,0,1,390,42.93Z" fill="#dae1ff"/><path d="M323.67,42.93a1.24,1.24,0,0,0,0,2.48,1.24,1.24,0,1,0,0-2.48Z" fill="#dae1ff"/><line x1="448.17" y1="36.03" x2="416.49" y2="36.03" fill="none" stroke="#dae1ff" stroke-miterlimit="10" stroke-width="0.73"/><path d="M448.11,34.79A1.24,1.24,0,1,1,446.87,36,1.24,1.24,0,0,1,448.11,34.79Z" fill="#dae1ff"/><path d="M416.55,34.79a1.24,1.24,0,0,0,0,2.48,1.24,1.24,0,1,0,0-2.48Z" fill="#dae1ff"/><polyline points="418.78 95.76 425.39 102.38 451.64 102.38" fill="none" stroke="#dae1ff" stroke-miterlimit="10" stroke-width="0.73"/><path d="M418,96.68a1.23,1.23,0,0,1,0-1.75,1.24,1.24,0,1,1,0,1.75Z" fill="#dae1ff"/><path d="M451.58,103.61a1.24,1.24,0,1,0-1.24-1.23A1.23,1.23,0,0,0,451.58,103.61Z" fill="#dae1ff"/><polyline points="432.43 162.41 432.43 132.82 419.96 120.35" fill="none" stroke="#dae1ff" stroke-miterlimit="10" stroke-width="0.73"/><path d="M433.67,162.34a1.24,1.24,0,1,1-1.24-1.23A1.24,1.24,0,0,1,433.67,162.34Z" fill="#dae1ff"/><path d="M420.88,119.52a1.24,1.24,0,0,0-1.75,0,1.23,1.23,0,0,0,0,1.75,1.24,1.24,0,0,0,1.75-1.75Z" fill="#dae1ff"/><line x1="397.64" y1="167.42" x2="362.49" y2="167.42" fill="none" stroke="#dae1ff" stroke-miterlimit="10" stroke-width="0.73"/><path d="M397.58,166.18a1.24,1.24,0,1,1-1.24,1.24A1.25,1.25,0,0,1,397.58,166.18Z" fill="#dae1ff"/><path d="M362.55,166.18a1.24,1.24,0,1,0,1.24,1.24A1.24,1.24,0,0,0,362.55,166.18Z" fill="#dae1ff"/><polyline points="432.43 162.41 432.43 119.8 439 119.8" fill="none" stroke="#dae1ff" stroke-miterlimit="10" stroke-width="0.73"/><path d="M433.67,162.34a1.24,1.24,0,1,1-1.24-1.23A1.24,1.24,0,0,1,433.67,162.34Z" fill="#dae1ff"/><path d="M438.94,121a1.24,1.24,0,1,0-1.24-1.24A1.24,1.24,0,0,0,438.94,121Z" fill="#dae1ff"/><line x1="508.91" y1="140.8" x2="508.91" y2="216.37" fill="none" stroke="#dae1ff" stroke-miterlimit="10" stroke-width="0.73"/><path d="M507.67,140.86a1.24,1.24,0,1,1,1.24,1.24A1.24,1.24,0,0,1,507.67,140.86Z" fill="#dae1ff"/><circle cx="508.91" cy="216.31" r="1.24" fill="#dae1ff"/><polyline points="449.15 120.98 449.15 126.94 457.36 135.14" fill="none" stroke="#dae1ff" stroke-miterlimit="10" stroke-width="0.73"/><path d="M447.92,121a1.24,1.24,0,1,1,1.23,1.24A1.23,1.23,0,0,1,447.92,121Z" fill="#dae1ff"/><circle cx="457.32" cy="135.1" r="1.24" fill="#dae1ff"/><polyline points="449.15 120.98 449.15 136.48 452.86 140.19" fill="none" stroke="#dae1ff" stroke-miterlimit="10" stroke-width="0.73"/><path d="M447.92,121a1.24,1.24,0,1,1,1.23,1.24A1.23,1.23,0,0,1,447.92,121Z" fill="#dae1ff"/><circle cx="452.82" cy="140.15" r="1.24" fill="#dae1ff"/><polyline points="337.43 118.44 337.43 133.75 326.29 144.9" fill="none" stroke="#dae1ff" stroke-miterlimit="10" stroke-width="0.73"/><path d="M336.19,118.51a1.24,1.24,0,1,1,1.24,1.23A1.24,1.24,0,0,1,336.19,118.51Z" fill="#dae1ff"/><path d="M325.46,144a1.24,1.24,0,0,0,1.75,1.75,1.24,1.24,0,0,0-1.75-1.75Z" fill="#dae1ff"/><polyline points="321.55 231.47 321.55 221.35 294.68 194.49 294.68 189.19" fill="none" stroke="#dae1ff" stroke-miterlimit="10" stroke-width="0.73"/><path d="M322.79,231.41a1.24,1.24,0,1,1-1.24-1.24A1.25,1.25,0,0,1,322.79,231.41Z" fill="#dae1ff"/><path d="M295.92,189.25a1.24,1.24,0,1,0-1.24,1.24A1.24,1.24,0,0,0,295.92,189.25Z" fill="#dae1ff"/><polyline points="332.35 201.83 358.08 201.83 368 211.75 426.27 211.75" fill="none" stroke="#dae1ff" stroke-miterlimit="10" stroke-width="0.73"/><path d="M332.41,203.07a1.24,1.24,0,1,1,1.24-1.24A1.23,1.23,0,0,1,332.41,203.07Z" fill="#dae1ff"/><path d="M426.21,213a1.24,1.24,0,1,0-1.24-1.24A1.24,1.24,0,0,0,426.21,213Z" fill="#dae1ff"/><polyline points="426.27 211.75 381.6 211.75 374.08 219.27 361.9 219.27 353.47 209.75 342.1 209.75" fill="none" stroke="#dae1ff" stroke-miterlimit="10" stroke-width="0.73"/><path d="M426.21,210.51a1.24,1.24,0,1,1,0,2.48,1.24,1.24,0,1,1,0-2.48Z" fill="#dae1ff"/><path d="M342.16,208.51a1.24,1.24,0,1,0,1.24,1.24A1.25,1.25,0,0,0,342.16,208.51Z" fill="#dae1ff"/><line x1="351.09" y1="218.03" x2="342.1" y2="218.03" fill="none" stroke="#dae1ff" stroke-miterlimit="10" stroke-width="0.73"/><path d="M351,216.79a1.24,1.24,0,1,1-1.24,1.24A1.24,1.24,0,0,1,351,216.79Z" fill="#dae1ff"/><path d="M342.16,216.79A1.24,1.24,0,1,0,343.4,218,1.24,1.24,0,0,0,342.16,216.79Z" fill="#dae1ff"/><line x1="375.4" y1="201.95" x2="404.1" y2="201.95" fill="none" stroke="#dae1ff" stroke-miterlimit="10" stroke-width="0.73"/><path d="M375.47,203.19A1.24,1.24,0,1,1,376.7,202,1.24,1.24,0,0,1,375.47,203.19Z" fill="#dae1ff"/><path d="M404,203.19a1.24,1.24,0,0,0,0-2.48,1.24,1.24,0,1,0,0,2.48Z" fill="#dae1ff"/><polyline points="359.76 192.51 404.8 192.51 417.65 205.36 426.27 205.36" fill="none" stroke="#dae1ff" stroke-miterlimit="10" stroke-width="0.73"/><path d="M359.83,193.75a1.24,1.24,0,1,1,1.23-1.24A1.23,1.23,0,0,1,359.83,193.75Z" fill="#dae1ff"/><path d="M426.21,206.6a1.24,1.24,0,0,0,0-2.48,1.24,1.24,0,1,0,0,2.48Z" fill="#dae1ff"/><polyline points="322.46 203.12 322.46 213.08 333.37 213.08 333.37 221.16" fill="none" stroke="#dae1ff" stroke-miterlimit="10" stroke-width="0.73"/><path d="M321.23,203.19a1.24,1.24,0,1,1,1.23,1.23A1.23,1.23,0,0,1,321.23,203.19Z" fill="#dae1ff"/><path d="M332.13,221.1a1.24,1.24,0,1,0,1.24-1.24A1.24,1.24,0,0,0,332.13,221.1Z" fill="#dae1ff"/><line x1="304.34" y1="192.95" x2="351.49" y2="192.95" fill="none" stroke="#dae1ff" stroke-miterlimit="10" stroke-width="0.73"/><path d="M304.4,194.19a1.24,1.24,0,1,1,1.24-1.24A1.25,1.25,0,0,1,304.4,194.19Z" fill="#dae1ff"/><path d="M351.43,194.19a1.24,1.24,0,1,0-1.24-1.24A1.24,1.24,0,0,0,351.43,194.19Z" fill="#dae1ff"/><polyline points="342.1 225.87 391.65 225.56 397.73 219.49 415.39 219.49" fill="none" stroke="#dae1ff" stroke-miterlimit="10" stroke-width="0.73"/><path d="M342.17,227.1a1.24,1.24,0,1,1,1.23-1.24A1.23,1.23,0,0,1,342.17,227.1Z" fill="#dae1ff"/><path d="M415.33,220.73a1.24,1.24,0,1,0-1.24-1.24A1.24,1.24,0,0,0,415.33,220.73Z" fill="#dae1ff"/><polyline points="440.19 212.09 440.19 219.49 422.28 219.49 422.28 236.47 422.28 236.76 444.75 236.76" fill="none" stroke="#dae1ff" stroke-miterlimit="10" stroke-width="0.73"/><path d="M439,212.15a1.24,1.24,0,1,1,1.24,1.24A1.23,1.23,0,0,1,439,212.15Z" fill="#dae1ff"/><path d="M444.69,238a1.24,1.24,0,1,0-1.24-1.23A1.24,1.24,0,0,0,444.69,238Z" fill="#dae1ff"/><line x1="412.63" y1="229.18" x2="404.16" y2="229.18" fill="none" stroke="#dae1ff" stroke-miterlimit="10" stroke-width="0.73"/><path d="M412.57,227.94a1.24,1.24,0,1,1-1.24,1.24A1.24,1.24,0,0,1,412.57,227.94Z" fill="#dae1ff"/><path d="M404.22,227.94a1.24,1.24,0,1,0,1.24,1.24A1.24,1.24,0,0,0,404.22,227.94Z" fill="#dae1ff"/><line x1="454.12" y1="230.48" x2="428.63" y2="230.48" fill="none" stroke="#dae1ff" stroke-miterlimit="10" stroke-width="0.73"/><path d="M454.06,229.24a1.24,1.24,0,1,1,0,2.48,1.24,1.24,0,1,1,0-2.48Z" fill="#dae1ff"/><path d="M428.69,229.24a1.24,1.24,0,1,0,1.24,1.24A1.24,1.24,0,0,0,428.69,229.24Z" fill="#dae1ff"/><polyline points="415.19 192.21 424.58 192.21 424.58 198.78" fill="none" stroke="#dae1ff" stroke-miterlimit="10" stroke-width="0.73"/><circle cx="415.25" cy="192.21" r="1.24" fill="#dae1ff"/><path d="M423.34,198.71a1.24,1.24,0,1,0,1.24-1.23A1.23,1.23,0,0,0,423.34,198.71Z" fill="#dae1ff"/><polyline points="295.64 207.38 286.75 198.49 286.75 188.97" fill="none" stroke="#dae1ff" stroke-miterlimit="10" stroke-width="0.73"/><circle cx="295.59" cy="207.33" r="1.24" fill="#dae1ff"/><path d="M288,189a1.24,1.24,0,1,0-1.24,1.24A1.23,1.23,0,0,0,288,189Z" fill="#dae1ff"/><polyline points="274.96 149.15 274.96 179.77 290.47 179.77" fill="none" stroke="#dae1ff" stroke-miterlimit="10" stroke-width="0.73"/><path d="M273.72,149.21a1.24,1.24,0,1,1,1.24,1.24A1.24,1.24,0,0,1,273.72,149.21Z" fill="#dae1ff"/><circle cx="290.41" cy="179.77" r="1.24" fill="#dae1ff"/><line x1="274.96" y1="123.79" x2="274.96" y2="132.69" fill="none" stroke="#dae1ff" stroke-miterlimit="10" stroke-width="0.73"/><path d="M273.72,123.85a1.24,1.24,0,0,1,2.48,0,1.24,1.24,0,1,1-2.48,0Z" fill="#dae1ff"/><path d="M273.72,132.63a1.24,1.24,0,1,0,1.24-1.24A1.23,1.23,0,0,0,273.72,132.63Z" fill="#dae1ff"/><polyline points="424.48 165.59 424.48 175.69 440.18 175.69 440.18 204.5" fill="none" stroke="#dae1ff" stroke-miterlimit="10" stroke-width="0.73"/><path d="M423.25,165.65a1.24,1.24,0,1,1,1.23,1.24A1.24,1.24,0,0,1,423.25,165.65Z" fill="#dae1ff"/><path d="M438.94,204.44a1.24,1.24,0,1,0,1.24-1.24A1.25,1.25,0,0,0,438.94,204.44Z" fill="#dae1ff"/><line x1="440.18" y1="158.32" x2="440.18" y2="204.5" fill="none" stroke="#dae1ff" stroke-miterlimit="10" stroke-width="0.73"/><path d="M438.94,158.38a1.24,1.24,0,1,1,1.24,1.24A1.25,1.25,0,0,1,438.94,158.38Z" fill="#dae1ff"/><path d="M438.94,204.44a1.24,1.24,0,1,0,1.24-1.24A1.25,1.25,0,0,0,438.94,204.44Z" fill="#dae1ff"/><polyline points="449.58 166.54 449.58 150.5 440.69 141.62" fill="none" stroke="#dae1ff" stroke-miterlimit="10" stroke-width="0.73"/><path d="M450.82,166.48a1.24,1.24,0,1,1-1.24-1.24A1.25,1.25,0,0,1,450.82,166.48Z" fill="#dae1ff"/><path d="M441.61,140.78a1.24,1.24,0,1,0,0,1.76A1.24,1.24,0,0,0,441.61,140.78Z" fill="#dae1ff"/><line x1="261.4" y1="164.7" x2="267.58" y2="170.88" fill="none" stroke="#dae1ff" stroke-miterlimit="10" stroke-width="0.73"/><path d="M260.57,165.62a1.24,1.24,0,0,1,1.75-1.75,1.23,1.23,0,0,1,0,1.75A1.24,1.24,0,0,1,260.57,165.62Z" fill="#dae1ff"/><path d="M266.66,171.71a1.24,1.24,0,0,0,1.75-1.75,1.24,1.24,0,0,0-1.75,1.75Z" fill="#dae1ff"/><polyline points="262.71 132.6 253.72 123.61 245.33 123.61" fill="none" stroke="#dae1ff" stroke-miterlimit="10" stroke-width="0.73"/><path d="M263.54,131.68a1.24,1.24,0,0,1-1.75,1.75,1.24,1.24,0,0,1,1.75-1.75Z" fill="#dae1ff"/><path d="M245.39,122.37a1.24,1.24,0,1,0,1.24,1.24A1.23,1.23,0,0,0,245.39,122.37Z" fill="#dae1ff"/><polyline points="251.84 164.16 236.35 164.16 230.11 170.41" fill="none" stroke="#dae1ff" stroke-miterlimit="10" stroke-width="0.73"/><path d="M251.78,162.92a1.24,1.24,0,1,1-1.24,1.24A1.25,1.25,0,0,1,251.78,162.92Z" fill="#dae1ff"/><path d="M229.28,169.49a1.23,1.23,0,0,0,0,1.75,1.24,1.24,0,0,0,1.75-1.75A1.23,1.23,0,0,0,229.28,169.49Z" fill="#dae1ff"/><polyline points="248.66 129.3 254.06 134.69 242.27 134.69 237.78 130.2" fill="none" stroke="#dae1ff" stroke-miterlimit="10" stroke-width="0.73"/><circle cx="248.71" cy="129.34" r="1.24" fill="#dae1ff"/><circle cx="237.83" cy="130.24" r="1.24" fill="#dae1ff"/><line x1="235.18" y1="123.61" x2="176.97" y2="123.61" fill="none" stroke="#dae1ff" stroke-miterlimit="10" stroke-width="0.73"/><path d="M235.11,122.37a1.24,1.24,0,1,1-1.23,1.24A1.23,1.23,0,0,1,235.11,122.37Z" fill="#dae1ff"/><path d="M177,122.37a1.24,1.24,0,0,0,0,2.48,1.24,1.24,0,1,0,0-2.48Z" fill="#dae1ff"/><polyline points="176.97 123.61 223.39 123.61 232.88 133.1" fill="none" stroke="#dae1ff" stroke-miterlimit="10" stroke-width="0.73"/><path d="M177,124.85a1.24,1.24,0,1,1,1.24-1.24A1.24,1.24,0,0,1,177,124.85Z" fill="#dae1ff"/><circle cx="232.83" cy="133.05" r="1.24" fill="#dae1ff"/><line x1="267.33" y1="128.78" x2="267.33" y2="123.98" fill="none" stroke="#dae1ff" stroke-miterlimit="10" stroke-width="0.73"/><path d="M268.57,128.72a1.24,1.24,0,1,1-1.24-1.24A1.25,1.25,0,0,1,268.57,128.72Z" fill="#dae1ff"/><path d="M268.57,124.05a1.24,1.24,0,1,0-1.24,1.24A1.24,1.24,0,0,0,268.57,124.05Z" fill="#dae1ff"/><polyline points="286.31 58.91 309.28 35.94 284.8 35.94 284.8 47.68" fill="none" stroke="#dae1ff" stroke-miterlimit="10" stroke-width="0.73"/><path d="M287.23,59.74a1.23,1.23,0,0,1-1.75,0,1.24,1.24,0,1,1,1.75,0Z" fill="#dae1ff"/><path d="M283.56,47.62a1.24,1.24,0,1,0,1.24-1.24A1.23,1.23,0,0,0,283.56,47.62Z" fill="#dae1ff"/><polyline points="344.96 28.7 281.61 28.7 275.13 35.18 275.13 68.92" fill="none" stroke="#dae1ff" stroke-miterlimit="10" stroke-width="0.73"/><path d="M344.9,27.46a1.24,1.24,0,1,1-1.24,1.24A1.24,1.24,0,0,1,344.9,27.46Z" fill="#dae1ff"/><path d="M273.89,68.86a1.24,1.24,0,1,0,1.24-1.24A1.24,1.24,0,0,0,273.89,68.86Z" fill="#dae1ff"/><polyline points="344.96 28.7 281.61 28.7 275.13 35.18 241.04 35.18" fill="none" stroke="#dae1ff" stroke-miterlimit="10" stroke-width="0.73"/><path d="M344.9,27.46a1.24,1.24,0,1,1-1.24,1.24A1.24,1.24,0,0,1,344.9,27.46Z" fill="#dae1ff"/><path d="M241.11,33.94a1.24,1.24,0,0,0,0,2.48,1.24,1.24,0,0,0,0-2.48Z" fill="#dae1ff"/><polyline points="214.91 100.92 230.02 100.92 237.59 93.35 254.35 93.35" fill="none" stroke="#dae1ff" stroke-miterlimit="10" stroke-width="0.73"/><path d="M215,102.16a1.24,1.24,0,1,1,1.24-1.24A1.24,1.24,0,0,1,215,102.16Z" fill="#dae1ff"/><path d="M254.29,94.59a1.24,1.24,0,1,0-1.24-1.24A1.24,1.24,0,0,0,254.29,94.59Z" fill="#dae1ff"/><polyline points="180.13 91.39 170.6 100.92 182.73 100.92" fill="none" stroke="#dae1ff" stroke-miterlimit="10" stroke-width="0.73"/><circle cx="180.09" cy="91.43" r="1.24" fill="#dae1ff"/><path d="M182.67,102.16a1.24,1.24,0,1,0-1.24-1.24A1.24,1.24,0,0,0,182.67,102.16Z" fill="#dae1ff"/><line x1="115.92" y1="140.82" x2="135.57" y2="121.18" fill="none" stroke="#dae1ff" stroke-miterlimit="10" stroke-width="0.73"/><path d="M116.84,141.65a1.23,1.23,0,0,1-1.75,0,1.24,1.24,0,0,1,1.75-1.75A1.23,1.23,0,0,1,116.84,141.65Z" fill="#dae1ff"/><circle cx="135.52" cy="121.22" r="1.24" fill="#dae1ff"/><polyline points="159.94 122.07 146.97 122.07 141.14 116.24" fill="none" stroke="#dae1ff" stroke-miterlimit="10" stroke-width="0.73"/><path d="M159.88,120.83a1.24,1.24,0,1,1-1.24,1.24A1.23,1.23,0,0,1,159.88,120.83Z" fill="#dae1ff"/><path d="M142.06,115.41a1.23,1.23,0,0,0-1.75,0,1.24,1.24,0,1,0,1.75,0Z" fill="#dae1ff"/><polyline points="145.38 111.36 153.52 103.22 153.52 114.27" fill="none" stroke="#dae1ff" stroke-miterlimit="10" stroke-width="0.73"/><circle cx="145.42" cy="111.32" r="1.24" fill="#dae1ff"/><path d="M152.28,114.2a1.24,1.24,0,1,0,1.24-1.24A1.24,1.24,0,0,0,152.28,114.2Z" fill="#dae1ff"/></g><g clip-path="url(#s)"><rect x="180.73" y="117.59" width="91.28" height="62.06" fill="url(#t)"/><rect x="122.84" y="213.55" width="59.16" height="28.11" fill="url(#u)"/><line x1="182" y1="213.55" x2="122.84" y2="213.55" fill="none" stroke="#c148f7" stroke-miterlimit="10" stroke-width="0.73"/><rect x="294.42" y="184.64" width="135.6" height="57.96" fill="url(#v)"/><line x1="430.02" y1="184.64" x2="294.42" y2="184.64" fill="none" stroke="#c148f7" stroke-miterlimit="10" stroke-width="0.73"/><rect x="190.11" y="229.55" width="116.69" height="28.11" fill="url(#w)"/><line x1="306.8" y1="229.55" x2="190.11" y2="229.55" fill="none" stroke="#c148f7" stroke-miterlimit="10" stroke-width="0.73"/><rect x="434.53" y="224.91" width="73.9" height="28.11" fill="url(#x)"/><line x1="508.43" y1="224.91" x2="434.53" y2="224.91" fill="none" stroke="#c148f7" stroke-miterlimit="10" stroke-width="0.73"/></g><polygon points="517.66 85 278.13 85 310.25 52.88 517.66 52.88 517.66 85" fill="#ccc" style="mix-blend-mode:multiply"/><g style="mix-blend-mode:color-dodge"><path d="M316.37,59.14c3,0,4.2,1.9,4.2,4.76V66c0,3.11-1.43,4.65-4.54,4.65H313.6v8.06h-1.29V59.14ZM316,69.5c2.27,0,3.25-1,3.25-3.39V63.82c0-2.13-.73-3.5-2.91-3.5H313.6V69.5Z" fill="#fff"/><path d="M326.92,59.14c3,0,4.2,1.65,4.2,4.42v1.71c0,2.3-.89,3.61-2.82,4.06,2,.45,2.82,1.88,2.82,4v3a4.38,4.38,0,0,0,.48,2.35h-1.34a4.56,4.56,0,0,1-.42-2.35V73.31c0-2.61-1.43-3.33-3.67-3.33h-2.05v8.76h-1.28V59.14Zm-.72,9.66c2.29,0,3.64-.64,3.64-3.28V63.68c0-2.1-.82-3.36-2.95-3.36h-2.77V68.8Z" fill="#fff"/><path d="M340.56,68.21v1.18h-5.35v8.17h6.44v1.18h-7.73V59.14h7.73v1.18h-6.44v7.89Z" fill="#fff"/><path d="M348.34,59.14c3,0,4.34,2,4.34,4.87v9.86c0,2.88-1.31,4.87-4.34,4.87H344V59.14Zm0,18.42c2.19,0,3.08-1.48,3.08-3.64V64c0-2.16-.92-3.64-3.08-3.64h-3V77.56Z" fill="#fff"/><path d="M356.38,59.14v19.6h-1.29V59.14Z" fill="#fff"/><path d="M367.27,63.93v1.62H366V63.84c0-2.1-.81-3.69-3-3.69s-3,1.59-3,3.69V74c0,2.1.81,3.66,3,3.66s3-1.56,3-3.66V71.71h1.23V74c0,2.83-1.23,5-4.23,5s-4.23-2.13-4.23-5v-10c0-2.83,1.24-5,4.23-5S367.27,61.1,367.27,63.93Z" fill="#fff"/><path d="M373,78.74V60.32h-4V59.14h9.27v1.18h-4V78.74Z" fill="#fff"/><path d="M381.41,59.14v19.6h-1.29V59.14Z" fill="#fff"/><path d="M385,59.14l4,18.12,4-18.12h1.2l-4.25,19.6H388l-4.31-19.6Z" fill="#fff"/><path d="M403,68.21v1.18h-5.35v8.17h6.44v1.18h-7.73V59.14h7.73v1.18h-6.44v7.89Z" fill="#fff"/><path d="M411,63.93c0-2.86,1.31-5,4.28-5s4.34,2.1,4.34,5V74c0,2.86-1.32,5-4.34,5S411,76.81,411,74ZM412.29,74c0,2.12.84,3.69,3,3.69s3-1.57,3-3.69V63.84c0-2.12-.87-3.69-3-3.69s-3,1.57-3,3.69Z" fill="#fff"/><path d="M426.1,59.14c3,0,4.2,1.9,4.2,4.76V66c0,3.11-1.43,4.65-4.54,4.65h-2.43v8.06H422V59.14Zm-.34,10.36c2.27,0,3.25-1,3.25-3.39V63.82c0-2.13-.73-3.5-2.91-3.5h-2.77V69.5Z" fill="#fff"/><path d="M439.14,68.21v1.18H433.8v8.17h6.44v1.18h-7.73V59.14h7.73v1.18H433.8v7.89Z" fill="#fff"/><path d="M446.71,59.14c3,0,4.2,1.65,4.2,4.42v1.71c0,2.3-.9,3.61-2.83,4.06,2,.45,2.83,1.88,2.83,4v3a4.38,4.38,0,0,0,.47,2.35H450a4.56,4.56,0,0,1-.42-2.35V73.31c0-2.61-1.43-3.33-3.67-3.33h-2v8.76h-1.29V59.14ZM446,68.8c2.29,0,3.64-.64,3.64-3.28V63.68c0-2.1-.81-3.36-2.94-3.36h-2.77V68.8Z" fill="#fff"/><path d="M455.58,74.4l-1,4.34h-1.18l4.29-19.63h1.87L464,78.74h-1.29l-1-4.34Zm.2-1.12h5.71L458.6,60.6Z" fill="#fff"/><path d="M468.43,78.74V60.32h-4V59.14h9.26v1.18h-4V78.74Z" fill="#fff"/><path d="M476.89,59.14v19.6H475.6V59.14Z" fill="#fff"/><path d="M479.32,63.93c0-2.86,1.32-5,4.29-5s4.34,2.1,4.34,5V74c0,2.86-1.32,5-4.34,5s-4.29-2.1-4.29-5ZM480.61,74c0,2.12.84,3.69,3,3.69s3.05-1.57,3.05-3.69V63.84c0-2.12-.87-3.69-3.05-3.69s-3,1.57-3,3.69Z" fill="#fff"/><path d="M491.53,78.74h-1.17V59.14H492l5.88,16.55V59.14h1.17v19.6h-1.43l-6.13-17.47Z" fill="#fff"/><path d="M509.84,63.87v.42h-1.23v-.5c0-2.07-.78-3.64-2.91-3.64s-2.91,1.54-2.91,3.61c0,4.76,7.08,4.84,7.08,10.25,0,2.83-1.23,4.9-4.23,4.9s-4.22-2.07-4.22-4.9V73h1.23v1.09c0,2.1.81,3.61,3,3.61s3-1.51,3-3.61c0-4.7-7.08-4.79-7.08-10.25,0-2.94,1.29-4.84,4.17-4.87S509.84,61,509.84,63.87Z" fill="#fff"/></g></g><g clip-path="url(#y)"/><g style="mix-blend-mode:color-dodge"><path d="M316.37,59.13c3,0,4.2,1.91,4.2,4.76V66c0,3.11-1.43,4.65-4.54,4.65H313.6v8.06h-1.29V59.13ZM316,69.49c2.27,0,3.25-1,3.25-3.39V63.81c0-2.13-.73-3.5-2.91-3.5H313.6v9.18Z" fill="#fff"/><path d="M326.93,59.13c3,0,4.2,1.65,4.2,4.43v1.7c0,2.3-.9,3.62-2.83,4.06,2,.45,2.83,1.88,2.83,4v3a4.38,4.38,0,0,0,.47,2.35h-1.34a4.56,4.56,0,0,1-.42-2.35V73.3c0-2.6-1.43-3.33-3.67-3.33h-2v8.76h-1.29V59.13Zm-.73,9.66c2.29,0,3.64-.64,3.64-3.27V63.67c0-2.1-.82-3.36-2.94-3.36h-2.77v8.48Z" fill="#fff"/><path d="M340.56,68.2v1.18h-5.35v8.18h6.44v1.17h-7.73V59.13h7.73v1.18h-6.44V68.2Z" fill="#fff"/><path d="M348.34,59.13c3,0,4.34,2,4.34,4.87v9.86c0,2.88-1.31,4.87-4.34,4.87H344V59.13Zm0,18.43c2.18,0,3.08-1.49,3.08-3.64V64c0-2.16-.93-3.64-3.08-3.64h-3V77.56Z" fill="#fff"/><path d="M356.38,59.13v19.6h-1.29V59.13Z" fill="#fff"/><path d="M367.27,63.92v1.62H366v-1.7c0-2.1-.81-3.7-3-3.7s-3,1.6-3,3.7V74c0,2.1.82,3.67,3,3.67s3-1.57,3-3.67V71.7h1.23v2.24c0,2.83-1.23,5-4.23,5s-4.22-2.13-4.22-5v-10c0-2.83,1.23-5,4.22-5S367.27,61.09,367.27,63.92Z" fill="#fff"/><path d="M373,78.73V60.31h-4V59.13h9.27v1.18h-4V78.73Z" fill="#fff"/><path d="M381.41,59.13v19.6h-1.29V59.13Z" fill="#fff"/><path d="M385,59.13l4,18.12,4-18.12h1.2l-4.25,19.6H388l-4.31-19.6Z" fill="#fff"/><path d="M403,68.2v1.18h-5.35v8.18h6.44v1.17h-7.73V59.13h7.73v1.18h-6.44V68.2Z" fill="#fff"/><path d="M411,63.92c0-2.86,1.31-5,4.28-5s4.34,2.1,4.34,5v10c0,2.86-1.31,5-4.34,5s-4.28-2.1-4.28-5ZM412.3,74c0,2.13.84,3.69,3,3.69s3-1.56,3-3.69V63.84c0-2.13-.86-3.7-3-3.7s-3,1.57-3,3.7Z" fill="#fff"/><path d="M426.1,59.13c3,0,4.2,1.91,4.2,4.76V66c0,3.11-1.43,4.65-4.54,4.65h-2.43v8.06H422V59.13Zm-.34,10.36c2.27,0,3.25-1,3.25-3.39V63.81c0-2.13-.73-3.5-2.91-3.5h-2.77v9.18Z" fill="#fff"/><path d="M439.15,68.2v1.18H433.8v8.18h6.44v1.17h-7.73V59.13h7.73v1.18H433.8V68.2Z" fill="#fff"/><path d="M446.71,59.13c3,0,4.2,1.65,4.2,4.43v1.7c0,2.3-.9,3.62-2.83,4.06,2,.45,2.83,1.88,2.83,4v3a4.38,4.38,0,0,0,.47,2.35H450a4.56,4.56,0,0,1-.42-2.35V73.3c0-2.6-1.43-3.33-3.67-3.33h-2v8.76h-1.29V59.13ZM446,68.79c2.3,0,3.64-.64,3.64-3.27V63.67c0-2.1-.81-3.36-2.94-3.36h-2.77v8.48Z" fill="#fff"/><path d="M455.58,74.39l-1,4.34h-1.17l4.28-19.63h1.88L464,78.73h-1.28l-1-4.34Zm.2-1.12h5.71l-2.88-12.68Z" fill="#fff"/><path d="M468.43,78.73V60.31h-4V59.13h9.27v1.18h-4V78.73Z" fill="#fff"/><path d="M476.89,59.13v19.6H475.6V59.13Z" fill="#fff"/><path d="M479.33,63.92c0-2.86,1.31-5,4.28-5s4.34,2.1,4.34,5v10c0,2.86-1.32,5-4.34,5s-4.28-2.1-4.28-5ZM480.61,74c0,2.13.84,3.69,3,3.69s3.05-1.56,3.05-3.69V63.84c0-2.13-.87-3.7-3.05-3.7s-3,1.57-3,3.7Z" fill="#fff"/><path d="M491.53,78.73h-1.17V59.13H492l5.88,16.55V59.13h1.17v19.6h-1.42l-6.14-17.47Z" fill="#fff"/><path d="M509.85,63.86v.42h-1.24v-.5c0-2.07-.78-3.64-2.91-3.64s-2.91,1.54-2.91,3.61c0,4.76,7.08,4.85,7.08,10.25,0,2.83-1.23,4.9-4.22,4.9s-4.23-2.07-4.23-4.9V73h1.23v1.09c0,2.1.81,3.62,3,3.62s3-1.52,3-3.62c0-4.7-7.09-4.78-7.09-10.24,0-2.94,1.29-4.85,4.17-4.88S509.85,61,509.85,63.86Z" fill="#fff"/></g></g></svg>