<?xml version="1.0" encoding="utf-8"?>
<!-- Generator: Adobe Illustrator 25.4.1, SVG Export Plug-In . SVG Version: 6.00 Build 0)  -->
<svg version="1.1" id="Layer_1" xmlns="http://www.w3.org/2000/svg" xmlns:xlink="http://www.w3.org/1999/xlink" x="0px" y="0px"
	 viewBox="0 0 525.4 235" style="enable-background:new 0 0 525.4 235;" xml:space="preserve">
<style type="text/css">
	.st0{fill:none;}
	.st1{clip-path:url(#SVGID_00000035514280607231698700000005062836768755472822_);}
	.st2{fill:url(#SVGID_00000066496883340109993030000006114177843821167286_);}
	.st3{fill:url(#SVGID_00000009564486391368623820000012370521078121400763_);}
	.st4{fill:url(#SVGID_00000181057808197357783000000015613339680250473618_);}
	.st5{fill:none;stroke:#919191;stroke-width:2.2;stroke-miterlimit:10;}
	.st6{fill:url(#SVGID_00000060743747642588149770000010694728174584320899_);}
	.st7{fill:#5B5B5B;}
	.st8{opacity:0.5;}
	.st9{fill:none;stroke:#949494;stroke-width:0.55;stroke-miterlimit:10;}
	.st10{fill:none;stroke:#B3B3B3;stroke-width:0.73;stroke-miterlimit:10;}
	.st11{fill:#B3B3B3;}
	.st12{fill:none;stroke:#414141;stroke-width:0.73;stroke-miterlimit:10;}
	.st13{fill:url(#SVGID_00000140729283393714906950000002485957930760272046_);}
	.st14{fill-rule:evenodd;clip-rule:evenodd;}
	.st15{fill:#4D4D4D;}
	.st16{fill:#FFFFFF;}
	.st17{fill:none;stroke:#666666;stroke-width:0.73;stroke-miterlimit:10;}
	.st18{fill:none;stroke:#BBBBBB;stroke-width:0.55;stroke-miterlimit:10;}
	.st19{fill:#BBBBBB;}
	.st20{fill:#E2E2E2;}
	.st21{fill:#6A6A6A;}
	.st22{fill:none;stroke:#828282;stroke-width:0.73;stroke-miterlimit:10;}
	.st23{fill:#4E4E4E;}
	.st24{fill:none;stroke:#959595;stroke-width:0.73;stroke-miterlimit:10;}
	.st25{fill:none;stroke:#FFFFFF;stroke-width:2.2;stroke-miterlimit:10;}
	.st26{opacity:0.2;}
	.st27{fill:none;stroke:#E2E2E2;stroke-width:0.73;stroke-miterlimit:10;}
	.st28{clip-path:url(#SVGID_00000067210721562114785130000014966851945772688056_);}
	.st29{fill:none;stroke:#BBBBBB;stroke-width:0.73;stroke-miterlimit:10;}
	.st30{clip-path:url(#SVGID_00000078047372716248699420000010014737385118919065_);}
	.st31{fill:none;stroke:#969696;stroke-width:0.73;stroke-miterlimit:10;}
	.st32{fill:url(#SVGID_00000036947003074532852000000004170662334331630508_);}
	.st33{fill:none;stroke:#929292;stroke-width:0.73;stroke-linecap:round;stroke-linejoin:round;}
	.st34{fill:#8C8C8C;}
</style>
<g>
	<path class="st0" d="M437.4,182.1L437.4,182.1c0.3,0.1,0.5,0.4,0.4,0.7c0,0,0,0,0,0l0,0c-0.1,0.3-0.4,0.5-0.8,0.4l0,0
		c-0.3-0.1-0.5-0.4-0.4-0.8l0,0c0.1-0.3,0.3-0.4,0.6-0.4l0,0C437.3,182.1,437.3,182.1,437.4,182.1z"/>
	<path class="st0" d="M441.4,183.5c0.3,0.1,0.4,0.5,0.3,0.8l0,0c-0.1,0.3-0.5,0.5-0.8,0.3l0,0c-0.3-0.1-0.5-0.5-0.3-0.8l0,0
		c0.1-0.2,0.3-0.4,0.6-0.4l0,0C441.3,183.5,441.4,183.5,441.4,183.5z"/>
	<path class="st0" d="M445.2,185.4c0.3,0.2,0.4,0.5,0.2,0.8c0,0,0,0,0,0l0,0c-0.2,0.3-0.5,0.4-0.8,0.2l0,0c-0.3-0.2-0.4-0.5-0.2-0.8
		l0,0c0.1-0.2,0.3-0.3,0.5-0.3l0,0C445.1,185.4,445.2,185.4,445.2,185.4z"/>
	<path class="st0" d="M448.8,187.8c0.3,0.2,0.3,0.6,0.1,0.8c0,0,0,0,0,0l0,0c-0.2,0.3-0.6,0.3-0.9,0.1l0,0c-0.3-0.2-0.3-0.6-0.1-0.8
		c0,0,0,0,0,0l0,0c0.1-0.2,0.3-0.2,0.5-0.2l0,0C448.6,187.7,448.7,187.7,448.8,187.8z"/>
	<path class="st0" d="M452.1,190.6L452.1,190.6c0.2,0.2,0.2,0.6,0,0.8c0,0,0,0,0,0l0,0c-0.2,0.2-0.6,0.2-0.8,0c0,0,0,0,0,0l0,0
		c-0.2-0.2-0.2-0.6,0-0.8c0,0,0,0,0,0l0,0c0.1-0.1,0.3-0.2,0.4-0.2l0,0C451.8,190.4,452,190.5,452.1,190.6z"/>
	<g>
		<defs>
			<rect id="SVGID_1_" y="-18.4" width="525.4" height="253.4"/>
		</defs>
		<clipPath id="SVGID_00000130608973498127355430000009184377790816629670_">
			<use xlink:href="#SVGID_1_"  style="overflow:visible;"/>
		</clipPath>
		<g style="clip-path:url(#SVGID_00000130608973498127355430000009184377790816629670_);">
			
				<linearGradient id="SVGID_00000103986135445046637250000013726232494884365746_" gradientUnits="userSpaceOnUse" x1="-957.05" y1="119.85" x2="-558.12" y2="119.85" gradientTransform="matrix(-1 0 0 -1 -535.17 238)">
				<stop  offset="0" style="stop-color:#202020"/>
				<stop  offset="1" style="stop-color:#515151"/>
			</linearGradient>
			<path style="fill:url(#SVGID_00000103986135445046637250000013726232494884365746_);" d="M512.1,215.9L310.6,14.5
				c-4.9-4.9-11.4-7.6-18.3-7.6H-8.6v222.6h505.9L512.1,215.9z"/>
			
				<linearGradient id="SVGID_00000018228255337343714440000004108851235904664481_" gradientUnits="userSpaceOnUse" x1="399.06" y1="30.165" x2="-48.49" y2="30.165" gradientTransform="matrix(1 0 0 -1 0 238)">
				<stop  offset="0" style="stop-color:#878787"/>
				<stop  offset="1" style="stop-color:#1C1C1C"/>
			</linearGradient>
			<polyline style="fill:url(#SVGID_00000018228255337343714440000004108851235904664481_);" points="192.3,230 -39.5,230 
				-39.5,185.7 146.1,185.7 146.1,195.2 192.3,195.2 192.3,230 			"/>
			
				<linearGradient id="SVGID_00000019644641174058303720000017896786704565257859_" gradientUnits="userSpaceOnUse" x1="122.5607" y1="125.7615" x2="341.8507" y2="30.2215" gradientTransform="matrix(1 0 0 -1 0 238)">
				<stop  offset="0" style="stop-color:#989898"/>
				<stop  offset="1" style="stop-color:#CCCCCC"/>
			</linearGradient>
			<path style="fill:url(#SVGID_00000019644641174058303720000017896786704565257859_);" d="M-32.6,228.5h558l-10.7-11L312.5,13.1
				c-4.9-4.9-11.5-7.7-18.4-7.7H-32.6V228.5z"/>
			<path class="st5" d="M514.7,217.5L312.5,13.1c-4.9-4.9-11.5-7.7-18.4-7.7H-32.6"/>
			
				<linearGradient id="SVGID_00000030482068407589797410000014522665207704807077_" gradientUnits="userSpaceOnUse" x1="398.5995" y1="-10.1017" x2="-59.7605" y2="110.9183" gradientTransform="matrix(1 0 0 -1 0 238)">
				<stop  offset="1.240079e-03" style="stop-color:#B3B3B3"/>
				<stop  offset="0.871" style="stop-color:#565656"/>
			</linearGradient>
			<polygon style="fill:url(#SVGID_00000030482068407589797410000014522665207704807077_);" points="429.2,162.8 278.3,162.8 
				278.3,146.9 200.7,146.9 200.7,99.3 -39.6,99.3 -39.6,228.9 429.2,228.9 			"/>
			<g>
				<polygon class="st7" points="73.9,143.6 82.8,152.4 109.2,152.4 113.4,156.6 146.2,156.6 155.6,147.3 155.5,143.6 				"/>
			</g>
			<g class="st8">
				<polyline class="st9" points="67.7,100.4 67.2,136.9 82.7,152.4 82.7,185.8 				"/>
				<polyline class="st9" points="168.7,100.2 169,125.1 155.5,139.7 155.5,147.3 146,156.8 113.9,156.6 113.9,185.5 				"/>
				<line class="st9" x1="146.2" y1="156.7" x2="146.2" y2="185.7"/>
				<polyline class="st9" points="82.9,152.5 108.9,152.5 113.8,156.7 				"/>
				<line class="st9" x1="67.3" y1="137.1" x2="-6.4" y2="137.1"/>
				<polyline class="st9" points="212.9,147.6 212.9,169.3 192.3,195.2 				"/>
				<polyline class="st9" points="242.9,147.6 242.9,169.3 262.6,188.8 262.6,229.2 				"/>
				<line class="st9" x1="203.6" y1="147.2" x2="155.6" y2="147.2"/>
				<line class="st9" x1="213" y1="169.4" x2="243.1" y2="169.4"/>
				<polyline class="st9" points="262.9,188.8 288.1,188.8 288.1,215.9 304.3,229.7 				"/>
				<polyline class="st9" points="340.2,163.3 340.2,215 329.5,229.8 				"/>
				<polyline class="st9" points="288.2,188.8 305,171.1 340.1,171.1 340.1,181.4 389.3,181.6 402.1,163.7 				"/>
			</g>
			<polyline class="st10" points="239.1,157.9 259.2,158 259.2,176.6 238.8,176.6 238.8,187.2 			"/>
			<polygon class="st11" points="239.4,156.4 239.4,159.5 237.8,157.9 			"/>
			<polygon class="st11" points="240.3,186.9 237.2,186.9 238.8,188.5 			"/>
			<line class="st10" x1="355.3" y1="200.5" x2="331.8" y2="200.5"/>
			<polygon class="st11" points="355.1,202.1 355.1,198.9 356.6,200.5 			"/>
			<polygon class="st11" points="332,202.1 332,198.9 330.5,200.5 			"/>
			<polyline class="st10" points="286.7,176.7 296.6,176.7 296.6,200.5 304.9,200.5 			"/>
			<polygon class="st11" points="286.9,175.2 286.9,178.3 285.4,176.7 			"/>
			<polygon class="st11" points="304.7,198.9 304.7,202.1 306.2,200.5 			"/>
			<polyline class="st10" points="88.4,115.7 41.9,115.7 41.9,133 30.2,144.7 30.2,150.5 			"/>
			<polygon class="st11" points="88.2,117.2 88.2,114.1 89.8,115.7 			"/>
			<polygon class="st11" points="31.8,150.3 28.6,150.3 30.2,151.8 			"/>
			<polyline class="st10" points="187.5,154.6 187.5,107.2 162,107.2 153.5,115.7 137.4,115.7 			"/>
			<polygon class="st11" points="186,154.3 189.1,154.3 187.5,155.9 			"/>
			<polygon class="st11" points="137.6,117.2 137.6,114.1 136.1,115.7 			"/>
			<polyline class="st10" points="98.4,171.6 98.4,180.1 76,180.1 64.8,168.9 			"/>
			<polygon class="st11" points="99.9,171.8 96.8,171.8 98.4,170.3 			"/>
			<polygon class="st11" points="63.8,170.1 66,167.9 63.8,167.9 			"/>
			<polyline class="st12" points="429.2,229.2 429.2,163.1 278.4,163.1 278.4,147.2 200.7,147.2 200.7,99.6 -39.5,99.6 			"/>
			
				<linearGradient id="SVGID_00000081644166891620422710000007980955804844376470_" gradientUnits="userSpaceOnUse" x1="399.06" y1="30.165" x2="-48.49" y2="30.165" gradientTransform="matrix(1 0 0 -1 0 238)">
				<stop  offset="0.4608" style="stop-color:#555555"/>
				<stop  offset="0.893" style="stop-color:#292929"/>
			</linearGradient>
			<polyline style="fill:url(#SVGID_00000081644166891620422710000007980955804844376470_);" points="192.3,230 -39.5,230 
				-39.5,185.7 146.1,185.7 146.1,195.2 192.3,195.2 192.3,230 			"/>
			<path class="st14" d="M45.2,150.3c-1.1,2.2-1.8,4.6-1.8,7.1c0,0,1.1-0.1,1.1-0.3S45.2,150.3,45.2,150.3z"/>
			<polygon class="st14" points="34.6,183.9 32.4,183.7 33.1,181.1 35.3,181.3 			"/>
			<polygon class="st14" points="44.8,183.9 42.4,183.7 42.7,181.2 45.1,181.4 			"/>
			<path class="st14" d="M34.8,185.4c0-0.1,0-0.2,0-0.2v-1.6l-2.3-0.2c-0.9,0.6-1.9,1.2-2.9,1.7c-0.2,0.1-0.3,0.2-0.4,0.4H34.8z"/>
			<path class="st14" d="M50,174.1L50,174.1c-0.9,0-1.6-0.7-1.6-1.6v-2.2c0-0.9,0.7-1.6,1.6-1.6l0,0c0.9,0,1.6,0.7,1.6,1.6v2.2
				C51.6,173.3,50.9,174,50,174.1z"/>
			<path d="M50,182.5L50,182.5c-0.4,0-0.7-0.3-0.7-0.6c0,0,0,0,0,0v-12.2c0-0.4,0.3-0.7,0.6-0.7c0,0,0,0,0,0l0,0
				c0.4,0,0.7,0.3,0.7,0.7v12.2C50.7,182.2,50.4,182.5,50,182.5C50,182.5,50,182.5,50,182.5z"/>
			<circle cx="50" cy="184.7" r="0.9"/>
			<circle cx="54.9" cy="184.7" r="0.9"/>
			<circle cx="45.2" cy="184.7" r="0.9"/>
			<path d="M55.6,183.1H44.5c-0.3,0-0.5-0.2-0.5-0.5l0,0c0-0.3,0.2-0.5,0.5-0.5h11.1c0.3,0,0.5,0.2,0.5,0.5l0,0
				C56.1,182.8,55.9,183.1,55.6,183.1z"/>
			<path d="M43.4,166.4h13.1c0.8,0,1.5,0.7,1.5,1.5v0.1c0,0.8-0.7,1.5-1.5,1.5H43.4c-0.8,0-1.5-0.7-1.5-1.5v-0.1
				C41.9,167,42.6,166.4,43.4,166.4z"/>
			<path class="st14" d="M45.8,159.8c0,0-1.4,4.1-1.3,4.9c0.1,0.9,0.5,1.8,1,2.6l7-0.1c1.8,0,3.2-1.5,3.2-3.3c0-0.2,0-0.3,0-0.5l0,0
				l-0.1-0.6l-0.5-3.6c-2.2,1.4-6.1,2-9.6,1.1L45.8,159.8z"/>
			<path class="st14" d="M40,160.1l2.6-2.3l2-2.4l1.2,2.7c-1.2,1.9-3.1,3.2-5.3,3.8l-0.3-0.9L40,160.1z"/>
			<path class="st14" d="M35.8,182.2l-3.1-0.3c0-0.4,2.2-9,3.5-12.6c0.3-1,1.1-1.8,2-2.3l7.5-3.8l4.9,4.2l-10.4,4.3L35.8,182.2z"/>
			<path class="st14" d="M35.8,182.2l-1.3-0.1c0.3-2.5,2.2-4.7,3.1-6c1.1-1.6,0.4-4.2,0.9-5.5c0.2-0.5,0.6-1,1-1.4
				c1-1,2.3-1.8,3.7-2.2c1.5-0.5,3-1.2,4.3-2.2l3.2,2.7l-10.4,4.3L35.8,182.2z"/>
			<path class="st14" d="M44.9,185.4c0-0.1,0-0.2,0-0.2v-1.6l-2.6-0.1c-0.8,0.6-1.7,1.1-2.6,1.6c-0.2,0.1-0.3,0.2-0.4,0.4H44.9z"/>
			<path class="st14" d="M47.7,142c-0.7,0.3-1,1-0.8,1.7c0.1,0.2,0.2,0.4,0.4,0.6C48.6,145.8,47.7,142,47.7,142z"/>
			<path class="st14" d="M53.3,149.3c0-0.6-0.4-1.1-1-1.4c-0.6-0.3-1.4-0.4-2.1-0.2c-0.8,0.2-1.7,0.4-2.5,0.7l-0.7,2.3l2.3,1.1
				l4.5-3.4L53.3,149.3z"/>
			<path class="st14" d="M47.4,143.4c0-1.1,1-2,2.1-1.9c0,0,0.1,0,0.1,0l0,0c1.1,0.1,1.9,1,1.8,2.1c0,0.6,0,1.3-0.1,1.9
				c0,0.4-0.2,0.7-0.5,1c-0.3,0.3-0.7,0.4-1.1,0.3l-1.1-0.1c-0.8-0.1-1.4-0.8-1.3-1.5C47.3,144.6,47.3,143.9,47.4,143.4L47.4,143.4z
				"/>
			<polygon class="st14" points="52.4,149.1 50.9,145.3 48.3,146.5 49,150.1 52.4,149.1 			"/>
			<path class="st14" d="M50.2,143.1c0,0-0.2,1.9,1.2,1.9c0.4-0.8,0.6-1.6,0.8-2.5c0.2-1.6-3-1.9-4.3-1.2S47.4,143.2,50.2,143.1
				L50.2,143.1z"/>
			<path class="st14" d="M48.5,148.4c0.8,1.3,2.8,0.1,3.2-0.4c0.4,0.1,0.7,0.3,1,0.6c1.8,1.3,2,6.7,2.3,8.7c0.2,0.9,1,4,0.5,4.8
				c-0.1,0.3-1.5,0.1-1.8,0.1c-1.1,0.2-6.3,0.6-7-0.2s-0.2-2.3-0.3-3.3c-0.4-3.2-0.2-6.4,0.7-9.5L48.5,148.4z"/>
			<path class="st14" d="M47,156.1c0.9,2.8,7.5-0.2,6.8-1.5c-1.1-1.9,0.5,1.3,0.7,3.2c0.1,0.9,0.9,4,0.5,4.8
				c-0.1,0.3-0.7,2.4-0.9,2.4c-3.3,0.1-8.3,0.4-8.5-0.7c-0.3-1.5,1.1-4.1,1.2-5.1C47,158.1,47.1,157.1,47,156.1z"/>
			<path class="st14" d="M51.4,144.2c-0.3-0.2-0.7-0.1-0.9,0.3c-0.2,0.3-0.1,0.7,0.3,0.9s0.7,0.1,0.9-0.3c0,0,0-0.1,0.1-0.2
				C51.8,144.7,51.7,144.3,51.4,144.2z"/>
			<path class="st14" d="M47.3,145.1c-0.1-0.2-0.5,2.5,1.1,2.6s2.3-0.5,2.4-3.6c0,0-0.6,1.8-1.6,1.9
				C47.2,146.1,47.4,145.3,47.3,145.1z"/>
			<path class="st14" d="M41.7,182.8l3.5-0.1l1.2-11.6l7.6-4.2l-0.8-1.2l-5.4-0.4l-4,1.9c-1.2,0.6-2,1.8-2,3.1L41.7,182.8z"/>
			<path class="st14" d="M47.8,148.4c-0.5,2.6-0.9,5.3-1,7.9c-0.2,3.1-0.7,6.1-1.3,9.1c-0.5-0.9-2.2-0.6-2.3-1.4
				c0,0,1.5-9.8,1.8-12.4S46.1,149.1,47.8,148.4z"/>
			<path class="st14" d="M49.2,143.1c0,0-3.5-0.3-2.7-1.8s3.2,1.6,3.7,1L49.2,143.1z"/>
			<path class="st14" d="M44.9,160.8c0,0-0.9-0.6-1.5-0.3c-0.3,0.1-0.7,0.1-1.1,0.4c-0.4,0.3-0.7,0.6-0.9,0.9c0,0.3,0.2,0.7,0.6,0.7
				c0.2,0,0.8-0.5,0.8-0.5c0.6,0.2,1.3,0.2,1.9,0L44.9,160.8z"/>
			<path class="st14" d="M40.8,160.7c0,0-0.8-0.7-1.4-0.4c-0.3,0.1-0.7,0.1-1.2,0.3c-0.4,0.2-0.7,0.5-1,0.9c0,0.3,0.2,0.7,0.5,0.8
				c0.2,0.1,0.8-0.4,0.8-0.4c0.6,0.2,1.3,0.3,1.9,0.2L40.8,160.7z"/>
			<polygon class="st14" points="44.9,160.8 47.7,160.6 47.8,162.1 44.3,161.9 			"/>
			<rect x="36.7" y="161.6" width="9.2" height="0.6"/>
			<path class="st14" d="M57.4,158.5c0-1.6-0.2-3.1-0.4-4.7c-0.1-1.5-0.6-3-1.4-4.2c-0.5-0.6-1.2-1-1.9-1.2l-1.3-0.4
				c-0.9,3.7-1.2,7.5-1,11.2l-4.5,0.9v2.1h6.9l1.4-0.4l1.3-0.7C57.1,160.3,57.5,159.4,57.4,158.5z"/>
			<path class="st14" d="M39.5,162.2H28.9l-3.2-7.1h10.4c0.2,0,0.3,0.1,0.3,0.2L39.5,162.2z"/>
			<path class="st14" d="M38.7,162.2H28.1l-3.1-6.8c-0.1-0.1,0-0.3,0.1-0.3c0,0,0.1,0,0.1,0h10.1c0.1,0,0.2,0.1,0.2,0.1L38.7,162.2z
				"/>
			<path class="st14" d="M51.2,157.6c0,0-0.1,3.8-1,5.5c-0.7,1-1.5,1.9-2.4,2.8c0,0,7.8,0.8,8-2.4c0.2-2.3,0.5-4.5,1-6.8L51.2,157.6
				z"/>
			<path class="st14" d="M32.2,158.7c0.1,0.4-0.2,0.8-0.8,0.8c-0.5,0-1-0.3-1.2-0.8c-0.1-0.4,0.2-0.8,0.8-0.8
				C31.5,157.9,32,158.2,32.2,158.7z"/>
			<path class="st14" d="M57.4,158.5c0-1.6-0.2-3.1-0.4-4.7c-0.1-1.5-0.6-3-1.4-4.2c-0.5-0.6-1.2-1-1.9-1.2l-1.3-0.4
				c5.2,2.6,3.5,8.3,3.8,12.1c-0.8,0.4-1.2,0.3-3.1,0.7c-1.2,0.4-2.4,0.8-3.6,1c-0.8-0.3-1.8-0.3-2.6-0.1v0.6h6.9l1.4-0.4l1.3-0.7
				C57.1,160.3,57.4,159.4,57.4,158.5z"/>
			<path class="st14" d="M58.7,163.3H20.4c-0.3,0-0.5-0.2-0.5-0.6l0,0l0,0c0-0.3,0.2-0.6,0.5-0.6h38.2c0.3,0,0.6,0.3,0.5,0.6l0,0
				C59.2,163.1,59,163.3,58.7,163.3C58.7,163.3,58.7,163.3,58.7,163.3z"/>
			<path d="M119.2,108.9l-0.9,0.5l-0.3,7.3h1c0.6,0,1.1-0.5,1.1-1.1c0,0,0-0.1,0-0.1L119.2,108.9z"/>
			<path d="M115,115.2l3.1,1.6c0.4,0.2,0.8,0.1,1.2-0.2l0,0c0.4-0.4,0.5-1,0.1-1.4c-0.1-0.1-0.2-0.2-0.3-0.2l-5.6-3.5L115,115.2z"/>
			<path class="st14" d="M109.7,135.7L109.7,135.7c-0.9,0-1.6-0.7-1.6-1.6v-2.2c0-0.9,0.7-1.6,1.6-1.6l0,0c0.9,0,1.6,0.7,1.6,1.6
				v2.2C111.3,135,110.6,135.7,109.7,135.7z"/>
			<path d="M109.6,140.8L109.6,140.8c-0.4,0-0.7-0.3-0.7-0.6c0,0,0,0,0,0v-12.2c0-0.4,0.3-0.7,0.7-0.7h0l0,0c0.4,0,0.7,0.3,0.7,0.7
				v12.2C110.3,140.5,110,140.8,109.6,140.8L109.6,140.8z"/>
			<circle cx="109.7" cy="142.8" r="0.9"/>
			<circle cx="114.6" cy="142.8" r="0.9"/>
			<circle cx="104.8" cy="142.8" r="0.9"/>
			<path d="M115.3,141.3h-11.1c-0.3,0-0.5-0.2-0.5-0.5l0,0c0-0.3,0.2-0.5,0.5-0.5h11.1c0.3,0,0.5,0.2,0.5,0.5l0,0
				C115.8,141.1,115.6,141.3,115.3,141.3z"/>
			<path d="M102,128.8l-2.6-9.4h-1.3l2.8,10.1c0.2,0.7,0.9,1.2,1.6,1.2h5.3v-1.3h-4.9C102.5,129.5,102.1,129.2,102,128.8z"/>
			<path d="M104.6,131.9h11c1,0,1.9-0.8,1.9-1.8c0,0,0,0,0,0l0,0c0-1-0.8-1.9-1.8-1.9c0,0,0,0,0,0h-11c-1,0-1.9,0.8-1.9,1.8
				c0,0,0,0,0,0l0,0C102.7,131.1,103.6,131.9,104.6,131.9L104.6,131.9z"/>
			<path d="M100.8,122.8l-1,0.3c-0.6,0.2-1.3-0.2-1.5-0.8c0,0,0,0,0,0l-0.9-3.3c-0.2-0.6,0.2-1.3,0.8-1.5c0,0,0,0,0,0l1-0.3l0,0
				L100.8,122.8L100.8,122.8z"/>
			<path d="M97.6,112.3l3.8,13.5c0.2,0.9,1.1,1.4,2,1.1c0,0,0,0,0,0l0,0c0.9-0.2,1.4-1.1,1.1-2c0,0,0,0,0,0l-3.8-13.5
				c-0.2-0.9-1.1-1.4-2-1.1c0,0,0,0,0,0l0,0C97.9,110.6,97.4,111.5,97.6,112.3C97.6,112.3,97.6,112.3,97.6,112.3z"/>
			<path d="M125,141.4l1.7,0.1l-6.2-15.8l-12.7-1.1l0.9,2.4c10.5,0.5,10.2,2,10.2,2C118.6,132.7,121.1,135.5,125,141.4z"/>
			<path d="M118,141.5h1.3l1-11.8c0.8-6.4-2.2-4-12.4-4.6v1.5c10.4,0.5,9.7,2.6,9.7,2.6C116.7,133.1,117.5,134.5,118,141.5z"/>
			<path d="M107.6,129.2l10.3,0.5l2.7-4.1l-11.7-3.6c-1.2,0-2.5-0.6-2.5,0.9l-0.7,3.6C105.6,128,106.4,129.2,107.6,129.2z"/>
			<path d="M108.5,128.4c-1.6-0.1-1.8-2.2-0.8-5.4l0.4-1.1c-0.9-0.1-1.6-0.2-1.6,1l-0.7,3.6c-0.3,1.1,0.3,2.3,1.4,2.6
				c0.2,0.1,0.4,0.1,0.6,0.1l10.3,0.5l0.2-0.4L108.5,128.4z"/>
			<path d="M122.3,118.8l1.3-0.2c0.3,0,0.5,0,0.7,0.2l1.5,1l-0.6,0.4l-1.6,0.1c-0.4,0-0.7-0.1-1-0.3l-0.5-0.4L122.3,118.8z"/>
			<path d="M117.4,118.8c1.9,0,3,0.1,4.9,0.1l0.5,0.9c-3.9,0.6-5.2,1.4-6.8,0.9C114.7,118,115.4,120.6,117.4,118.8z"/>
			<path d="M119.2,108.9l-1-0.8c-0.2-0.2-0.5-0.2-0.7-0.2l-1,0.1c-0.3,0-0.5,0.3-0.5,0.5c0,0.1,0,0.1,0,0.2l0,0l1.3,0.9
				c0.3,0.2,0.7,0.3,1.1,0.2l0.7-0.1L119.2,108.9z"/>
			<path d="M113.4,102.1c0,0,2.8-0.1,2.8,1.1c0.2,3-2.8,5.6-2.8,5.6l-1.5-6.1L113.4,102.1z"/>
			<polygon points="110.4,110.7 112.3,111.6 114.1,107.7 112.2,106.8 			"/>
			<path d="M111.8,104.8c0.4-1.6,0.5-1.9,2-2.1s0.5,0.4,2,0.8c0.9,0.2,0.9,1.1,0.7,2.1c0,0.4,0.1,0.8,0.4,1.1
				c0.1,0.3-0.3,0.4-0.5,0.5s-0.2,1.2-0.6,1.3c-0.6,0.1-1.3,0.1-1.9,0c-1.6-0.9-1-4.2-1-4.2C112.8,103.8,111.7,105.3,111.8,104.8z"
				/>
			<path d="M113.7,102.1c0,0-3.2-0.2-2.5,3.7c0.1,0.5,0.2,0.9,0.5,1.3c0.2,0.3,0.5,0.5,0.9,0.4c0.2,0,0.4-0.1,0.6-0.2
				c1-1.4,0.8-1,1.7-3.4l1.2-0.4l0.2-0.3L113.7,102.1z"/>
			<path d="M113.7,106.6c0,0-0.6-2.4,0.2-3l2.4-0.4C116,104.6,115,105.9,113.7,106.6z"/>
			<path d="M113.1,110l1.8,3.3c0.7,1,1,2.3,0.9,3.5l-2.2,2.1l-0.9,2.4c0.3,0.9,0.7,1.8-0.1,1.8l-6.5-0.2c0.4-8,1.7-12.6,4.9-13.8
				C111.5,109,112.2,109.5,113.1,110z"/>
			<polygon points="113.7,110.1 110.9,108.5 110.3,109.2 114.1,111.5 			"/>
			<path d="M115.9,120.7c1-0.2,1.7-1,1.8-2l-4.3-5.7c-0.3-0.5-0.8-1.2-1.4-1.3c-0.8-0.2-1.6,0.3-1.2,1.9
				C111.2,114.9,114.2,118.9,115.9,120.7z"/>
			<path class="st14" d="M126.8,141.2l1.5,1c0.3,0.2,1.8,0.5,1.9,0.6l0,0c0.1,0.4-0.2,0.7-0.6,0.8c-0.1,0-0.1,0-0.2,0h-0.8l-3.1-0.2
				c0,0-1-0.2-0.5-2.1L126.8,141.2z"/>
			<path class="st14" d="M119.8,141.2l1.5,1c0.3,0.2,1.8,0.5,1.9,0.6l0,0c0.1,0.4-0.2,0.7-0.6,0.8c-0.1,0-0.1,0-0.2,0h-0.8l-3.1-0.2
				c0,0-1-0.2-0.4-2.1L119.8,141.2z"/>
			<path class="st14" d="M132.8,122h-13.2c-0.3,0-0.6-0.2-0.6-0.6l0,0c0-0.3,0.3-0.6,0.6-0.6h13.2c0.3,0,0.6,0.2,0.6,0.6l0,0
				C133.3,121.8,133.1,122,132.8,122z"/>
			<path d="M114,106.1c0.1,0.5-0.1,1-0.5,1s-0.7-0.3-0.8-0.9s0.1-1,0.4-1S113.9,105.6,114,106.1z"/>
			<path d="M112.1,104.1c0,0-2.7-1.8-4.1,1.8c-1.2,3,0,4.5-0.9,5.6c-0.1,0.2-0.1,0.5,0.1,0.6c0.1,0.1,0.2,0.1,0.3,0.1
				c1.2-0.1,3-0.5,3.3-2.2c0.5-2.7,1-4.6,1.2-4.6S112.1,104.1,112.1,104.1z"/>
			<path d="M112.3,116.2c-1.9,2.6-2,6.9-2,6.9l2.3,0.1c0.8-0.1,0.3-0.9,0.1-1.8l0.4-1l0.5-1.4l0.4-0.4L112.3,116.2z"/>
			<path d="M122.4,120.8h7.5V120h-8.4C121.5,120.5,121.9,120.8,122.4,120.8z"/>
			<path d="M133.2,113.1l-3.1,7.5c-0.1,0.2-0.3,0.3-0.5,0.2l-0.1,0c-0.2-0.1-0.3-0.3-0.2-0.5l3.1-7.5c0.1-0.2,0.3-0.3,0.5-0.2l0.1,0
				C133.2,112.7,133.3,112.9,133.2,113.1z"/>
			<path class="st14" d="M118.1,141.4c0,0,1.8,1.8,3.3,0.9l-2.1-1.4L118.1,141.4z"/>
			<path class="st14" d="M125,141.4c0,0,1.8,1.8,3.4,0.9l-2.1-1.4L125,141.4z"/>
			<path d="M171.7,171.2c1.7-2.3,2.7-3.4,4.3-5.8l1.5,0.2c-2.6,5.2-2.5,7.2-4.5,8.7C168.8,173.5,172.2,175.1,171.7,171.2z"/>
			<path d="M176.5,166.9l1.8-0.6c0.4-0.1,0.7-0.3,0.9-0.7l0.8-1.3c0.2-0.4,0.1-0.8-0.2-1c-0.1,0-0.2-0.1-0.3-0.1l0,0l-2.2,0.9
				c-0.5,0.2-0.9,0.6-1.2,1.1l-0.5,0.9L176.5,166.9z"/>
			<path class="st14" d="M171.7,166.2l1.6,5c0.2,0.1,0.6,2.6-0.5,3.4l-1.7,1.2l-0.3-1.3l-0.1-2.6l-0.8-4.9L171.7,166.2z"/>
			<path class="st14" d="M169.1,161.6c1.2,1.3,2.1,2.8,2.6,4.5l-2.2,3.4L169.1,161.6z"/>
			<path class="st14" d="M165.6,187L165.6,187c-0.9,0-1.6-0.7-1.6-1.6v-2.2c0-0.9,0.7-1.6,1.6-1.6c0,0,0,0,0,0l0,0
				c0.9,0,1.6,0.7,1.6,1.6c0,0,0,0,0,0v2.2C167.3,186.3,166.5,187,165.6,187z"/>
			<circle cx="165.6" cy="194.1" r="0.9"/>
			<circle cx="170.5" cy="194.1" r="0.9"/>
			<circle cx="160.8" cy="194.1" r="0.9"/>
			<path d="M165.6,191.7L165.6,191.7c-0.4,0-0.7-0.3-0.7-0.7l0,0v-12.2c0-0.4,0.3-0.7,0.6-0.7c0,0,0,0,0,0l0,0
				c0.4,0,0.7,0.3,0.7,0.7l0,0V191C166.2,191.4,165.9,191.7,165.6,191.7C165.6,191.7,165.6,191.7,165.6,191.7z"/>
			<path d="M171.2,192.4h-11.1c-0.3,0-0.5-0.2-0.5-0.5l0,0c0-0.3,0.2-0.5,0.5-0.5h11.1c0.3,0,0.5,0.2,0.5,0.5l0,0
				C171.7,192.2,171.5,192.4,171.2,192.4z"/>
			<path d="M160.5,183.2h11.1c1,0,1.9-0.8,1.9-1.8v0l0,0c0-1-0.8-1.9-1.8-1.9h0h-11.1c-1,0-1.9,0.8-1.9,1.8v0l0,0
				C158.7,182.3,159.5,183.2,160.5,183.2L160.5,183.2z"/>
			<path d="M159,163.6h6c1.2,0,2.2,1,2.2,2.2v9.1c0,1.2-1,2.2-2.2,2.2h-6c-1.2,0-2.2-1-2.2-2.2v-9.1
				C156.8,164.6,157.8,163.6,159,163.6z"/>
			<polygon class="st14" points="176.6,193.8 178.9,193.9 178.4,187.2 176.3,187.1 			"/>
			<polygon class="st14" points="178.8,193.4 176.4,193.2 176.3,194.9 181.8,194.9 181.8,194.3 			"/>
			<path class="st14" d="M174.6,181.8l-8.4-2.9l1.3-1.7l4.3-1l5.4,1.9c1.2,0.5,1.9,1.6,1.9,2.9l0.2,11.2l-3.5-0.1L174.6,181.8z"/>
			<path class="st14" d="M170.6,172.2c0,0,1.4,4.1,1.3,4.9c-0.1,0.9-0.5,1.8-1,2.6l-7-0.1c-1.8,0-3.2-1.5-3.2-3.3c0-0.2,0-0.4,0-0.5
				l0,0c0-0.2,0.1-0.4,0.1-0.6l0.5-3.6c2.2,1.4,6.1,2,9.6,1.1L170.6,172.2z"/>
			<path class="st14" d="M168.7,153.9c0.7,0.3,1,1,0.8,1.7c-0.1,0.2-0.2,0.4-0.4,0.6C167.8,157.7,168.7,153.9,168.7,153.9z"/>
			<polygon class="st14" points="164,161.5 165.4,157.7 168.1,158.9 167.3,162.5 164,161.5 			"/>
			<path class="st14" d="M169,155.7c0-1.1-1-2-2.1-1.9c0,0-0.1,0-0.1,0l0,0c-1.1,0.1-1.8,1-1.8,2.1c0,0.6,0,1.3,0.1,1.9
				c0,0.5,0.2,1,0.6,1.4c0.6,0.4,1.4,0.6,2.1,0.7c0.8-0.1,1.4-1.6,1.3-2.4C169.1,157,169.1,156.3,169,155.7L169,155.7z"/>
			<path class="st14" d="M166.1,155c0,0,0.3,1.8-1.2,1.9c-0.4-0.8-0.6-1.6-0.8-2.5c-0.2-1.6,3-1.9,4.3-1.2S168.9,155,166.1,155
				L166.1,155z"/>
			<path class="st14" d="M167.7,160.8c-0.9,1.3-3,0.1-3.3-0.4c-0.4,0.1-0.8,0.3-1.1,0.6c-1.8,1.3-2.1,6.7-2.4,8.7
				c-0.2,0.9-1,4-0.6,4.8c0.2,0.3,1.6,0.1,1.9,0.1c1.2,0.2,6.6,0.6,7.3-0.2s0.2-2.3,0.3-3.3c0.4-3.2,0.2-6.4-0.7-9.5L167.7,160.8z"
				/>
			<path class="st14" d="M169.7,168c-1,2.8-8.8-0.2-7.9-1.5c1.2-1.9-0.5,1.3-0.9,3.2c-0.2,0.9-1,4-0.6,4.8c0.2,0.3,0.8,2.4,1,2.4
				c3.8,0.1,10.1-0.1,10.4-1.2c0.4-1.5-1.5-5.3-1.6-6.2C169.8,166.9,169.7,168,169.7,168z"/>
			<path class="st14" d="M165,156.1c0.4,0,0.6,0.3,0.6,0.7c0,0.2-0.1,0.5-0.3,0.6c-0.4,0-0.6-0.3-0.6-0.7
				C164.7,156.4,164.8,156.2,165,156.1z"/>
			<polygon class="st14" points="172,193.8 174.2,193.9 173.8,187.2 171.7,187.1 			"/>
			<polygon class="st14" points="174.2,193.4 171.8,193.2 171.7,194.9 177.2,194.9 177.2,194.3 			"/>
			<path class="st14" d="M170,183l-7.6-3.9l0.8-1.1l5.4-0.4l4,1.8c1.2,0.5,1.9,1.6,1.9,2.9l0.2,10l-3.5-0.1L170,183z"/>
			<path class="st14" d="M167.2,154.9c0,0,3.5-0.3,2.7-1.8s-3.2,1.6-3.7,1L167.2,154.9z"/>
			<path class="st14" d="M166.9,175.9l2.4,1.2c0,0,1.5,1.6,0.5,2.1s-1.4-0.3-1.6-0.5c-0.9-0.3-1.6-1-2-1.9L166.9,175.9z"/>
			<path class="st14" d="M157.9,168.6v4.6c0,1.1,0.6,2.2,1.5,2.7c1.8,1.1,4.8,2.5,7.6,1.8l0.2-1.6l-6.1-3l0.1-6L157.9,168.6z"/>
			<path class="st14" d="M163.3,161c-3.6,1.3-5.9,4.7-5.8,8.4h5L163.3,161z"/>
			<path class="st14" d="M182.6,172.1h10.6l3.2-7.1h-10.4c-0.1,0-0.3,0.1-0.3,0.2L182.6,172.1z"/>
			<path class="st14" d="M183.1,172.1h10.6l3.1-6.8c0-0.1,0-0.3-0.1-0.3c0,0-0.1,0-0.1,0h-10.1c-0.1,0-0.2,0.1-0.2,0.1L183.1,172.1z
				"/>
			<path class="st14" d="M189.6,168.6c-0.1,0.4,0.2,0.8,0.8,0.8c0.5,0,1-0.3,1.2-0.8c0.1-0.4-0.2-0.8-0.8-0.8
				C190.3,167.8,189.8,168.1,189.6,168.6z"/>
			<path class="st14" d="M193.2,172.1h-16.5c-0.3,0-0.6,0.2-0.6,0.6l0,0c0,0.3,0.3,0.6,0.6,0.6h16.5L193.2,172.1z"/>
			<path class="st14" d="M165.1,174.1h31.7c0.3,0,0.6-0.2,0.6-0.6l0,0c0-0.3-0.3-0.6-0.6-0.6h-31.7c-0.3,0-0.6,0.2-0.6,0.6l0,0
				C164.5,173.9,164.8,174.1,165.1,174.1z"/>
			<path class="st14" d="M372.5,195.5l-2-1.9l-5.1,7.5l-2.5,0.6l1.6,2.4c0,0-1.3-0.4,0.9-0.6c0.7,0,1.3-0.4,1.7-0.9l2.7-3.2l1.8-2.8
				L372.5,195.5z"/>
			<path class="st14" d="M369.2,190c0,0-4,6.2-0.2,8s8.1-4.9,6.6-8.6C374.5,186.7,369.2,190,369.2,190z"/>
			<path class="st14" d="M370.7,193.4l2,2.2c0,0.2-1.8,4.5-3,4.3l-2.6-2.1L370.7,193.4z"/>
			<path class="st14" d="M369.5,187.8c0,0-1.5,3.8,1.6,3.5S369.5,187.8,369.5,187.8z"/>
			<path class="st14" d="M373.4,218.9L373.4,218.9c-0.9,0-1.6-0.7-1.6-1.6v-2.2c0-0.9,0.7-1.6,1.6-1.6l0,0c0.9,0,1.6,0.7,1.6,1.6
				v2.2C375.1,218.1,374.3,218.9,373.4,218.9z"/>
			<path d="M373.4,225.6L373.4,225.6c-0.4,0-0.7-0.3-0.7-0.7v-12.2c0-0.4,0.3-0.7,0.7-0.7l0,0l0,0c0.4,0,0.7,0.3,0.7,0.6
				c0,0,0,0,0,0v12.2C374,225.3,373.7,225.6,373.4,225.6z"/>
			<circle cx="373.7" cy="227.8" r="0.9"/>
			<circle cx="378.6" cy="227.8" r="0.9"/>
			<circle cx="368.9" cy="227.8" r="0.9"/>
			<path d="M379,226.1h-11.1c-0.3,0-0.5-0.2-0.5-0.5l0,0c0-0.3,0.2-0.5,0.5-0.5l0,0H379c0.3,0,0.5,0.2,0.5,0.5l0,0l0,0
				C379.5,225.9,379.3,226.1,379,226.1z"/>
			<path class="st14" d="M378.1,214.8h-10.6c-0.8,0-1.5-0.7-1.5-1.5l0,0c0-0.8,0.7-1.5,1.5-1.5h10.6c0.9,0,1.5,0.7,1.5,1.5l0,0l0,0
				C379.6,214.2,378.9,214.8,378.1,214.8z"/>
			
				<rect x="369.6" y="225.1" transform="matrix(0.9997 -2.338528e-02 2.338528e-02 0.9997 -5.1906 8.721)" width="1.4" height="2.4"/>
			
				<rect x="365.1" y="224.4" transform="matrix(0.9996 -2.687483e-02 2.687483e-02 0.9996 -5.9354 9.914)" width="1.6" height="2.8"/>
			<path d="M366.8,226.8h-2l-0.8,0.7c-0.7,0.3-1.4,0.6-2.1,0.8c-0.2,0,0,0.3-0.1,0.5h5.1C367.1,228.5,367.3,228,366.8,226.8z"/>
			<path class="st14" d="M371.1,226.8h-1.6c0,0-0.2,1.2-0.2,2h2.9c0.1,0,0-0.5-0.1-0.4l-0.6-0.3L371.1,226.8z"/>
			<path class="st14" d="M374.4,186.8c0,0,2.7,3.5,0.1,4.2l-2-2.7L374.4,186.8z"/>
			<path d="M369.9,206.4c-0.2,1.1-0.3,2.3-0.3,3.5c0.2,1.6,0.4,2.5,0.4,2.5l6.4,0.1c1.8,0,3.2-1.9,2.8-4l0,0c0-0.2-0.4-1.8-0.4-2
				L369.9,206.4z"/>
			<path class="st14" d="M364.8,225.5c0-0.4-1.7-12-1.6-12.9c0.2-1,0.9-1.9,1.8-2.3l7.1-3.6l5.1,4.7l-10.2,2.8
				c1,3.1,0.3,7.1,0.1,11.3H364.8z"/>
			<path class="st14" d="M366.5,225.5c0.3-0.7,0.3-1.5,0.2-2.3c-0.4-1.8-0.5-3.6-0.5-5.4c0.2-3.1-0.7-4.5-0.6-4.9
				c0.2-1.1,10.8-3.4,10.8-3.4l-0.8,2.5l-8.4,2.2c1,3.2,0.5,7.1,0.3,11.3H366.5z"/>
			<path class="st14" d="M369.1,225.6c-0.6-3.7-0.9-7.4-0.9-11.1c0.1-1,0.6-1.8,1.4-2.4l6.9-4.7l1,4.8l-6.4,3.2
				c0.8,3.1,0.8,6,0,10.1L369.1,225.6z"/>
			<path class="st14" d="M379,206.8l-0.7-9.1c-0.2-2.3,0.7-4.4-0.6-4.7c-1-0.4-2.7-1-2.7-1l-0.7-0.1l-0.3-0.1
				c-0.9-0.1-1.6,0.4-2.6,0.8c-1.8,1.1-0.6,1.8-1.8,4.1c-1,1.9,0.7,3.7,0.7,3.7l-0.4,6.4L379,206.8z"/>
			<path class="st14" d="M372.2,190.3l0.5,2.6c0.1,0.3,0.3,0.6,0.6,0.7c0.3,0.1,0.6,0,0.9-0.2l0.2-0.2c0.3-0.3,0.4-0.7,0.3-1.2
				c-0.3-1.1-1-3-1-3L372.2,190.3L372.2,190.3z"/>
			<path class="st14" d="M374.3,187.2c-0.1-0.6-0.7-1-1.3-0.8c0,0,0,0,0,0l-2.1,0.5c-0.6,0.1-1,0.7-0.8,1.3c0.2,0.9,0.5,2.1,0.7,3
				c0.1,0.6,0.7,1,1.3,0.8c0,0,0,0,0,0c0.6-0.1,1.8-0.4,2.1-1.1s0.6-0.8,0.5-1.4C374.5,188.6,374.5,188.1,374.3,187.2L374.3,187.2z"
				/>
			<path class="st14" d="M370.9,186.5c0,0,0.3,2.4,3.8,2.5c0,0,0.3-2.3-1-2.9C372.8,185.8,371.7,185.9,370.9,186.5z"/>
			<path class="st14" d="M370.2,189.3c0-0.9,0.4-1.7,1.2-2.2c0.1-0.2,0-0.5-0.2-0.6c-0.1,0-0.2-0.1-0.3-0.1
				C370.2,186.4,368.7,187.4,370.2,189.3z"/>
			<path class="st14" d="M375,189.3c0,0.4-0.2,0.8-0.5,0.8s-0.6-0.3-0.6-0.8s0.2-0.8,0.6-0.8S375,188.9,375,189.3z"/>
			<path class="st14" d="M376.3,197c0,0,1.6,1.8,2,0.7l0.3,2.8l0.2,0.9l0.2,5.4l-4.5,0.1L376.3,197z"/>
			<path class="st14" d="M368.3,206.6H363c-0.3,0-0.6-0.2-0.7-0.5l-2.2-6.5c-0.1-0.2,0-0.4,0.2-0.5c0.1,0,0.1,0,0.2,0h5.3
				c0.3,0,0.6,0.2,0.7,0.5l2.2,6.5c0.1,0.2,0,0.4-0.2,0.5C368.5,206.6,368.4,206.7,368.3,206.6z"/>
			<path class="st14" d="M361.9,204.9L361.9,204.9c-0.3,0-0.6-0.2-0.7-0.5l-0.4-1.3c-0.1-0.2,0-0.4,0.2-0.5c0.1,0,0.1,0,0.2,0l0,0
				c0.3,0,0.6,0.2,0.7,0.5l0.4,1.3c0.1,0.2,0,0.4-0.2,0.5C362.1,204.9,362,204.9,361.9,204.9z"/>
			<path class="st14" d="M378.4,193.9l2.6,5.8c0.4,1-0.1,2.2-1.1,2.7l-4.3,1.8l-0.5-1.2l3.5-2.5l-1.7-4.2
				C376.9,196.4,377.3,194.4,378.4,193.9z"/>
			<path class="st14" d="M373.1,202.9c-0.4,0.1-0.8,0.3-1.1,0.7c-0.7,0.9-0.8,0.7-0.2,1.5c0.2,0.2,1,0.4,1,0.4l1.5-0.6
				c0,0,1.9-0.1,1.6-1.3C375.7,202.7,373.1,202.9,373.1,202.9z"/>
			<path class="st14" d="M378.1,200.2c-0.7-1.2-2.8-5-2.8-5l2.8-2l3,5.2L378.1,200.2z"/>
			<polygon class="st14" points="322.1,227.7 319.8,227.8 320.2,222.3 322.2,222.9 			"/>
			<polygon class="st14" points="319.9,227.3 322.4,227 322.4,228.8 316.9,228.8 316.9,228.2 			"/>
			<polygon class="st14" points="314.6,227.7 312.4,227.8 312.7,222.3 314.8,222.9 			"/>
			<polygon class="st14" points="312.4,227.3 314.9,227 314.9,228.8 309.4,228.8 309.4,228.2 			"/>
			<path d="M312.8,183.5c0,0-1.6-0.3-3.3,8.4l2.6-0.1C312,191.8,313.3,186.1,312.8,183.5z"/>
			<path d="M321.4,179c0-0.3-0.2-0.6-0.5-0.7c0.1-0.1,0.2-0.3,0.2-0.5c0-0.4-0.3-0.7-0.7-0.7l0,0c0-0.1,0.1-0.2,0.1-0.3
				c0-0.4-0.3-0.7-0.7-0.7l0,0c-0.1,0-0.2,0-0.3,0.1c-0.7-0.1-1.4-0.4-1.9-0.9c-0.3,0-0.6,0.2-0.7,0.6c-0.1-0.2-0.3-0.2-0.5-0.2
				c-0.4,0-0.7,0.3-0.7,0.7c0,0,0,0,0,0h-0.1c-0.4,0-0.7,0.3-0.7,0.7c0,0,0,0,0,0c0,0,0,0.1,0,0.1c-0.3,0.1-0.6,0.3-0.6,0.7
				c0.3,0.3,0.3,0.8,0,1c0,0-0.1,0.1-0.1,0.1c0,0.2,0.1,0.3,0.2,0.4c-0.1,0.1-0.2,0.3-0.2,0.5c0,0.4,0.3,0.7,0.6,0.7
				c-0.1,0.1-0.1,0.2-0.1,0.4c0,0.4,0.3,0.7,0.7,0.7c0.4,0,0.7-0.3,0.7-0.7c0,0,0,0,0,0c0-0.4-0.3-0.7-0.7-0.7
				c0.2-0.3,0.1-0.6-0.1-0.9c0.1-0.1,0.2-0.3,0.2-0.6c0-0.2-0.1-0.3-0.2-0.4c0.2-0.1,0.3-0.4,0.3-0.6c0,0,0-0.1,0-0.1
				c0.3,0,0.6-0.3,0.6-0.7c0,0,0.1,0,0.1,0c0.3,0,0.6-0.2,0.7-0.6c0.1,0.2,0.3,0.2,0.5,0.2c0.2,0,0.4-0.1,0.5-0.2
				c0.1,0.3,0.4,0.5,0.7,0.5c0.1,0,0.2,0,0.3-0.1c0,0.3,0.3,0.6,0.7,0.6c0,0.1-0.1,0.2-0.1,0.3c0,0.3,0.2,0.6,0.5,0.7
				c-0.1,0.1-0.2,0.3-0.2,0.5c0,0.1,0,0.2,0.1,0.3c-0.3,0.1-0.4,0.4-0.4,0.6c0,0.1,0,0.1,0,0.2c-0.3,0-0.6,0.3-0.6,0.7
				c0,0.4,0.3,0.7,0.7,0.7c0.4,0,0.7-0.3,0.7-0.7c0-0.1,0-0.1,0-0.2c0.3-0.1,0.6-0.3,0.6-0.7c0-0.1,0-0.2-0.1-0.3
				C321.2,179.6,321.4,179.3,321.4,179z"/>
			<path d="M315.2,226.8c0,0,0.5-20.6,0.6-21.7c0.2-1.7,0.5-2.1,0.7-2s0.4,0.3,0.6,1.8c0.3,1.6,2.4,21.9,2.4,21.9l3.1,0.1
				c0,0-0.4-11-0.5-13.5c-0.1-2-0.2-3.8-0.3-5.2c-0.4-7.2-0.5-10.4-0.5-10.4l-9.3,0.2c0,0-0.4,5.3-0.4,6.6c0,8,0.3,22.4,0.3,22.4
				L315.2,226.8z"/>
			<path d="M323,184.6l-0.1,0.1c-0.6,1.5-1.1,3.1-1.5,4.7c-0.2,1-0.1,8.2-0.1,8.2c-3.6,1-9.3,0.2-9.3,0.2s0-6.1,0.6-14.1l2.3-0.3
				l1.2-0.2l0-0.5v-0.4l0.1-0.9c1.1,0.2,2.2-0.1,3-0.7c0,0.2-0.1,0.4-0.1,0.6s0,0.4,0,0.6c0,0.7,0,1.4,0,1.4c0.3,0,0.5,0,0.8,0.1
				c1.1,0.1,2.1,0.4,3,0.9l0,0C323.1,184.4,323.1,184.5,323,184.6z"/>
			<path d="M325,202.1c0,0.4,0,0.7,0,1.1c0.1,0.8,0,1.6-0.2,2.4c-0.1,0.1-0.1,0.1-0.2,0.1h0c-0.1,0.1-0.3,0.1-0.4,0.1l0,0
				c-0.1,0-0.3,0-0.4,0l0,0c-0.1,0-0.2-0.1-0.4-0.1c0-0.6-0.1-1.2-0.2-1.9c0,0-0.2,0.8-0.5,0.9l-0.2-0.1c0,0,0.1-0.9,0.1-1.3
				c0.1-0.7,0.4-1.3,0.9-1.7C323.6,201.8,324.7,201.5,325,202.1z"/>
			<path d="M321.4,188c0.1,0.4,0.3,1,0.5,1.6c0.6,2,1.3,4.6,1.5,5.4s0.1,4.8,0.1,6.4c0,0.4,0,0.7,0,0.7c0.3,0.5,1,0.8,1.6,0.6
				c0,0,0.1-0.3,0.2-0.9c0.5-2.2,0.7-4.5,0.8-6.8c-0.4-2.5-0.9-4.9-1.6-7.4c-0.2-1-0.6-1.9-1-2.9c-0.2-0.3-0.6-0.5-1-0.6
				C320.8,184.1,320.9,186.5,321.4,188z"/>
			<path d="M316.5,178.3c-0.1-0.1-0.3-0.1-0.5,0.1 M316,178.4c0.1,0,0.1,0,0.2,0c0.1,0,0.1,0,0.2,0c0,0,0.1,0,0.1,0c0,0,0-0.1,0-0.1
				L316,178.4z"/>
			<path d="M318.4,178.4c-0.1-0.2-0.3-0.2-0.5-0.1c0,0,0,0,0,0 M317.8,178.4c0.1,0,0.2,0,0.2,0c0.1,0,0.1,0,0.2,0.1
				c0,0,0.1,0,0.1-0.1H317.8z"/>
			<path d="M323.8,206L323.8,206c0-0.6,0-1.3,0-1.9l0,0C323.9,204.7,323.9,205.4,323.8,206z"/>
			<path d="M324.2,206L324.2,206c0-0.6,0-1.3,0-1.9l0,0C324.3,204.7,324.3,205.4,324.2,206z"/>
			<path d="M324.7,205.8L324.7,205.8c0-0.6,0-1.2-0.1-1.8l0,0C324.7,204.6,324.8,205.2,324.7,205.8z"/>
			<path d="M316.2,182.4c2.3,0.5,2.8-0.7,3-1.1c0-0.2,0-0.4,0.1-0.6c-0.8,0.7-1.9,0.9-3,0.7L316.2,182.4z"/>
			<path d="M315.2,179.4c0,0-0.1-2.6,0.6-2.9c1.6-0.8,4.8,0.4,4.4,2.1s-0.5,1.2-0.5,1.2C318.2,179.8,316.7,179.7,315.2,179.4z"/>
			<path d="M315.6,179.1c-0.2-0.2-0.5-0.3-0.7-0.1c0,0-0.1,0.1-0.1,0.1c-0.4,0.5,0.3,1.4,0.8,1.4C315.6,180,315.6,179.6,315.6,179.1
				z"/>
			<path d="M315.7,177.7c-0.3,0.5-0.4,1-0.3,1.6c-0.1,2.1,0.5,2.7,1.6,2.8s2.1-0.3,2.4-2.2c0.1-1,0.2-1.8-0.1-2.2
				C318.1,177,316.7,177,315.7,177.7z"/>
			<path d="M319.2,179.6c0,0,0.3-0.9,0.8-0.4s-0.2,1.7-1,1.6C319.1,180.9,319,179.9,319.2,179.6z"/>
			<path d="M319.8,179.6c-0.1,0-0.2,0.1-0.3,0.2c-0.1,0.1-0.2,0.2-0.2,0.3c0,0,0,0.1,0.1,0l0.2-0.2c0,0.1,0.1,0.1,0.1,0.1
				c0,0,0.1,0,0.1,0c0,0,0-0.1,0-0.1c0-0.1-0.1-0.1-0.1-0.1C319.7,179.8,319.8,179.7,319.8,179.6L319.8,179.6z"/>
			<path d="M319.1,183.3c1.3,0,2.6,0.3,3.8,1l0,0v0.3c-0.6,1.5-1.1,3.1-1.5,4.7c-0.2,1-0.1,8.2-0.1,8.2c-3.6,1-9.3,0.2-9.3,0.2
				s0-6.1,0.6-14.1l3.5-0.5l1.1,1.5L319.1,183.3z"/>
			<path d="M315.8,183.2c0,0,0,5.1-0.4,8.9c-0.1,0.6-0.1,1.4-0.2,2.5c-0.2,2.7-0.4,6.4-0.4,6.4s-2.6,0.2-3.6-0.4l0.8-10.8
				c0.3-2,0.5-4,0.5-6.1c0-0.4,2-0.4,2.8-0.5L315.8,183.2z"/>
			<path d="M315.8,183.2c0,0,0,5.1-0.4,8.9c-0.1,0.6-0.1,1.4-0.2,2.5l-0.9-8.6l0.9-0.7l-0.9-0.3c0,0,0.9-1.5,1.1-1.7L315.8,183.2z"
				/>
			<path d="M326,197.4c-0.2,2.2-0.6,4.8-0.6,4.8c-1.9,0.2-2.1-0.4-2.1-0.4s0-6.2-0.1-6.9s-1.5-5.6-1.5-5.6
				c-0.3,0.8,0.1,11.2,0.1,11.2c-1.2,0.3-2.4,0.4-3.6,0.3c0-2.4,0.1-4.6,0.2-6.7c0.2-3.7,0.6-7.3,1.3-10.9l0.5,0.1
				c0.8,0.2,1.7,0.4,2.5,0.7c0.9,0.3,1.4,1.6,1.7,2.9c0.3,1,1,3.8,1.5,6c0.2,0.8,0.3,1.6,0.4,2.1C326.1,195.8,326.1,196.6,326,197.4
				z"/>
			<path d="M320,185.2l1.1,0.6l-2.8,8.3c0.2-3.7,0.6-7.3,1.3-10.9l0.5,0.1l1,1.6L320,185.2z"/>
			<path d="M309.1,194.3c0,1,0.7,1.8,1.7,1.9c0.9,0,1.7-0.4,2.1-1.1c0,0-0.9-0.4-1-1C311.9,194.1,309.3,193.7,309.1,194.3z"/>
			<path d="M312.9,195.1c0.8,0,1.5-0.1,2.3-0.3c0.6-0.3,0.7-0.5,0.7-0.5H312C312,194.3,311.9,194.8,312.9,195.1z"/>
			<path d="M316.1,194.3h-7.8c-0.2,0-0.3-0.1-0.4-0.3l-1.7-5c-0.1-0.1,0-0.2,0.1-0.3c0,0,0.1,0,0.1,0h7.8c0.2,0,0.4,0.1,0.4,0.3
				l1.7,5C316.4,194.1,316.4,194.2,316.1,194.3C316.2,194.3,316.2,194.3,316.1,194.3z"/>
			<path d="M319.9,194.3h-4.3c-0.2,0-0.4-0.1-0.4-0.3c0-0.2,0.1-0.4,0.3-0.4c0,0,0.1,0,0.1,0h4.3c0.2,0,0.4,0.1,0.4,0.3
				c0,0.2-0.1,0.4-0.3,0.4C319.9,194.3,319.9,194.3,319.9,194.3z"/>
			<path d="M326,197.4c-0.8-0.4-1.3-1.3-1.3-2.2c0-0.8,0.4-1.6,1-2.2c0.2,0.8,0.3,1.6,0.4,2.1C326.1,195.8,326.1,196.6,326,197.4z"
				/>
			<path d="M310.8,191.5c-0.1-0.2,0-0.4,0.2-0.5c0.1,0,0.1,0,0.2,0c0.3,0,0.6,0.2,0.7,0.5c0.1,0.2,0,0.4-0.2,0.5c-0.1,0-0.1,0-0.2,0
				C311.1,192,310.9,191.8,310.8,191.5z"/>
			<polygon class="st14" points="243.7,205.6 240.8,205.6 238.8,199.7 241.7,199.7 			"/>
			<polygon class="st14" points="215.8,224.8 218,225.8 219.5,224.1 217.3,223 			"/>
			<path class="st14" d="M219.3,228h1.1v1h-1.8l-3.7-3.3l0.9-1.2l2.3,1.2L219.3,228z"/>
			<path class="st14" d="M228,216.3l-9.3,9.2l-2.4-2.1c2-2.5,5.2-8.1,8.2-9.2L228,216.3z"/>
			<path class="st14" d="M211.9,208.2c0,0-0.7,5.6,3.9,6.2c4.6,0.4,9.1,0.5,13.7,0.4c0,0,0.8-4-2.1-4.7c-3.6-0.9-5.5-1.3-5.5-1.3
				L211.9,208.2z"/>
			<path class="st14" d="M215,194.6l1.1-3.5l2.5,0.9l-0.5,3.4C217.3,194.6,216.1,194.3,215,194.6z"/>
			<path class="st14" d="M217.2,192.2c0.1,0.8,0.5,1.6,1.1,2.1l0.1-0.7l0.1-1C218,192.6,217.5,192.5,217.2,192.2z"/>
			<path d="M215.6,189.4c0.3-1.6,0.4-1.9,1.9-2.2s0.5,0.4,2,0.7c0.9,0.2,0.9,1,0.8,2.1c0,0.4,0.1,0.8,0.4,1.1
				c0.1,0.2-0.3,0.4-0.4,0.5s0,1.4-0.4,1.6c-0.8,0.3-1.7,0.3-2.5-0.1c-1.7-0.9-0.7-4.2-0.7-4.2C216.6,188.2,215.5,189.8,215.6,189.4
				z"/>
			<path class="st14" d="M217.5,190.1c-0.4,0.9-1,1.7-1.6,2.5c-0.4,0.4-0.9-0.1-0.9-0.7c-0.1-1.1-0.9-2.2-0.4-3.8
				c0.2-0.9,2.2-1.3,3.7-1.4c1.7-0.1,3.7,2.1,0.8,2.4l-0.9,1.6c-0.1,0.1-0.3,0.2-0.4,0.1c-0.1,0-0.1-0.1-0.1-0.2L217.5,190.1z"/>
			<path class="st14" d="M216.7,189.7c0.4-0.1,0.8,0.2,0.9,0.6c0.2,0.3,0.1,0.7-0.2,0.9c-0.3,0.2-0.7,0.1-0.9-0.2
				c-0.1-0.1-0.1-0.2-0.1-0.3C216.2,190.3,216.3,189.9,216.7,189.7C216.7,189.7,216.7,189.7,216.7,189.7L216.7,189.7z"/>
			<rect x="226.7" y="205" width="9.2" height="0.6"/>
			<path d="M206.7,205.6h43.5c0.3,0,0.6,0.2,0.6,0.6v0c0,0.3-0.2,0.6-0.6,0.6h-43.5c-0.3,0-0.6-0.2-0.6-0.6v0
				C206.2,205.9,206.4,205.6,206.7,205.6z"/>
			<path class="st14" d="M222.3,200.4l-0.3,8.5c-3.4,0.8-6.9,0.8-10.2-0.2c-0.4-0.3-0.5-0.8-0.1-1.7l-0.1-5.6c0-1.3,0.1-2.6,0.5-3.9
				c0.4-1.6,1.2-3.3,2.6-3.5c1.3-0.2,2.6-0.2,3.8,0.2c1.9,0.4,3.4,2,3.6,4L222.3,200.4z"/>
			<path class="st14" d="M230.6,203.8c0,0,0.8-0.7,1.4-0.5c0.3,0.1,0.7,0,1.2,0.2c0.4,0.2,0.7,0.5,1.1,0.8c0.1,0.3-0.1,0.7-0.4,0.8
				c-0.2,0.1-0.9-0.4-0.9-0.4c-0.7,0.4-1.4,0.5-2.2,0.5l-1.4-0.1l-0.6-0.8L230.6,203.8z"/>
			<path class="st14" d="M221.4,196.4l3.8,5.9l4.8,0.6c0.4,0.1,0.8,0.4,0.8,0.9v1.5l-6.6,0.2l-4.3-2.5L221.4,196.4z"/>
			<polygon class="st14" points="230.8,227.9 233,228 230.6,222 228.5,222.6 			"/>
			<polygon class="st14" points="232.9,227.6 230.4,227.3 230.4,229 235.9,229 235.9,228.4 			"/>
			<path class="st14" d="M229.6,212.7l3.4,13.8l-3.5,0.1c-1.7-4.4-3.4-8.1-3.8-11.8L229.6,212.7z"/>
			<path class="st14" d="M215.9,219.8L215.9,219.8c-0.9,0-1.6-0.7-1.6-1.6V216c0-0.9,0.7-1.6,1.6-1.6l0,0c0.9,0,1.6,0.7,1.6,1.6v2.2
				C217.6,219.1,216.8,219.8,215.9,219.8z"/>
			<path d="M216.5,213.7v12.2c0,0.4-0.3,0.7-0.7,0.7c0,0,0,0,0,0l0,0c-0.4,0-0.7-0.3-0.7-0.7l0,0v-12.2H216.5z"/>
			<circle cx="216" cy="228" r="0.9"/>
			<circle cx="220.8" cy="228" r="0.9"/>
			<circle cx="211.1" cy="228" r="0.9"/>
			<path d="M221.5,226.5h-11.1c-0.3,0-0.5-0.2-0.5-0.5l0,0c0-0.3,0.2-0.5,0.5-0.5h11.1c0.3,0,0.5,0.2,0.5,0.5l0,0
				C222.1,226.3,221.8,226.5,221.5,226.5z"/>
			<path class="st14" d="M221.1,216.3h-10.6c-0.9,0-1.5-0.7-1.5-1.5l0,0c0-0.8,0.7-1.5,1.5-1.5h10.6c0.8,0,1.5,0.7,1.5,1.5l0,0
				C222.7,215.6,222,216.3,221.1,216.3C221.1,216.3,221.1,216.3,221.1,216.3z"/>
			<path class="st14" d="M222.1,204.2l-2.3-2.1v7.2c0.7,0,1.5-0.1,2.1-0.4c0.4-0.3,0.5-0.6,0-1.2L222.1,204.2z"/>
			<path class="st14" d="M245.9,202.2H233c-0.6,0-1-0.4-1-1l0.4-8.4c0-0.5,0.4-0.9,0.9-0.9h12.9c0.6,0,1,0.4,1,1l-0.4,8.4
				C246.8,201.9,246.4,202.2,245.9,202.2z"/>
			<polygon class="st14" points="232.4,192.8 232,201.2 246.8,201.3 247.2,192.9 			"/>
			<rect x="219.8" y="152.5" class="st15" width="11.5" height="14"/>
			<rect x="222" y="150.6" class="st16" width="11.5" height="14"/>
			<line class="st17" x1="229.2" y1="162" x2="226.3" y2="162"/>
			<line class="st17" x1="231.4" y1="158.6" x2="224.1" y2="158.6"/>
			<line class="st17" x1="231.4" y1="156" x2="224.1" y2="156"/>
			<line class="st17" x1="231.4" y1="153.4" x2="224.1" y2="153.4"/>
			<rect x="24.8" y="109.4" class="st15" width="33.3" height="19.1"/>
			<rect x="27" y="107.5" class="st16" width="33.3" height="19.1"/>
			<rect x="29" y="111.3" class="st18" width="28.9" height="13.2"/>
			<line class="st18" x1="57.9" y1="113" x2="29" y2="113"/>
			<line class="st18" x1="57.9" y1="115.3" x2="29" y2="115.3"/>
			<line class="st18" x1="57.9" y1="117.6" x2="29" y2="117.6"/>
			<line class="st18" x1="57.9" y1="119.9" x2="29" y2="119.9"/>
			<line class="st18" x1="57.9" y1="122.2" x2="29" y2="122.2"/>
			<line class="st18" x1="31.9" y1="113" x2="31.9" y2="124.5"/>
			<line class="st18" x1="34.7" y1="113" x2="34.7" y2="124.5"/>
			<line class="st18" x1="37.5" y1="113" x2="37.5" y2="124.5"/>
			<line class="st18" x1="40.4" y1="113" x2="40.4" y2="124.5"/>
			<line class="st18" x1="43.2" y1="113" x2="43.2" y2="124.5"/>
			<line class="st18" x1="46" y1="113" x2="46" y2="124.5"/>
			<rect x="28.8" y="108.8" class="st19" width="1.7" height="1.1"/>
			<rect x="31.6" y="108.8" class="st20" width="13.1" height="1.1"/>
			<rect x="264.9" y="198.4" class="st21" width="18" height="12.4"/>
			<rect x="266.8" y="196.7" class="st16" width="18" height="12.4"/>
			<rect x="268.6" y="200.2" class="st18" width="14.1" height="7.1"/>
			<line class="st18" x1="276.2" y1="201.7" x2="276.2" y2="207.3"/>
			<line class="st18" x1="282.7" y1="201.7" x2="268.6" y2="201.7"/>
			<rect x="268.5" y="197.9" class="st19" width="1.5" height="1"/>
			<rect x="271" y="197.9" class="st20" width="11.8" height="1"/>
			<polyline class="st22" points="-44.7,185.7 146.1,185.7 146.1,195.2 192.3,195.2 192.3,230 			"/>
			<path class="st23" d="M192.2,230.3c0.4,0,0.6-0.6,0.2-0.6S191.8,230.3,192.2,230.3z"/>
			<line class="st24" x1="500.1" y1="229.9" x2="10.4" y2="229.9"/>
			<line class="st25" x1="522.5" y1="229.9" x2="-34.2" y2="229.9"/>
			<g class="st26">
				<g>
					<polyline class="st27" points="35.2,201.3 59.9,201.3 69.8,211.2 116.8,211.2 					"/>
					<polyline class="st27" points="116.8,211.2 83.4,211.2 78.4,216.2 62.3,216.2 56.3,210.1 45.2,210.1 					"/>
					<line class="st27" x1="76.1" y1="201.4" x2="125.6" y2="201.4"/>
					<polyline class="st27" points="84.4,192.4 134,192.4 144.9,203.4 154.8,203.4 					"/>
					<polyline class="st27" points="24.3,201.4 24.3,212.5 35.2,212.5 35.2,221.8 					"/>
					<line class="st27" x1="24.3" y1="192.4" x2="73.8" y2="192.4"/>
					<polyline class="st27" points="45.3,222.4 96.4,222.1 99.6,218.9 165.1,218.9 					"/>
					<polyline class="st27" points="165.6,203.2 173.5,203.2 173.5,222.4 182.8,222.4 					"/>
					<line class="st27" x1="182.8" y1="203.3" x2="182.8" y2="215.2"/>
					<line class="st27" x1="126.9" y1="211.1" x2="165.6" y2="211.1"/>
					<circle class="st20" cx="24.3" cy="201.4" r="1.2"/>
					<circle class="st20" cx="24.3" cy="222.4" r="1.2"/>
					<circle class="st20" cx="182.8" cy="222.4" r="1.2"/>
					<circle class="st20" cx="182.8" cy="215.2" r="1.2"/>
					<circle class="st20" cx="182.8" cy="203.3" r="1.2"/>
					<circle class="st20" cx="35.2" cy="201.3" r="1.2"/>
					<circle class="st20" cx="35.2" cy="222.4" r="1.2"/>
					<circle class="st20" cx="116.8" cy="211.1" r="1.2"/>
					<circle class="st20" cx="76.1" cy="201.4" r="1.2"/>
					<circle class="st20" cx="125.6" cy="201.4" r="1.2"/>
					<circle class="st20" cx="84.4" cy="192.4" r="1.2"/>
					<circle class="st20" cx="154.8" cy="203.2" r="1.2"/>
					<circle class="st20" cx="24.3" cy="192.4" r="1.2"/>
					<circle class="st20" cx="73.8" cy="192.4" r="1.2"/>
					<circle class="st20" cx="45.3" cy="222.4" r="1.2"/>
					<circle class="st20" cx="45.3" cy="210.1" r="1.2"/>
					<circle class="st20" cx="165.6" cy="218.9" r="1.2"/>
					<circle class="st20" cx="165.6" cy="211.1" r="1.2"/>
					<circle class="st20" cx="126.9" cy="211.1" r="1.2"/>
					<circle class="st20" cx="165.6" cy="203.2" r="1.2"/>
				</g>
			</g>
			<rect x="176.2" y="120.3" class="st15" width="11.5" height="14"/>
			<rect x="178.8" y="118" class="st20" width="11.5" height="14"/>
			<rect x="181.4" y="115.7" class="st16" width="11.5" height="14"/>
			<line class="st22" x1="185.7" y1="118.2" x2="188.6" y2="118.2"/>
			<line class="st22" x1="183.5" y1="121.6" x2="190.8" y2="121.6"/>
			<line class="st22" x1="183.5" y1="124.2" x2="190.8" y2="124.2"/>
			<line class="st22" x1="183.5" y1="126.8" x2="190.8" y2="126.8"/>
			<rect x="269.1" y="172.2" class="st21" width="11.5" height="14"/>
			<rect x="271.3" y="170.2" class="st16" width="11.5" height="14"/>
			<line class="st17" x1="278.5" y1="181.6" x2="275.6" y2="181.6"/>
			<line class="st17" x1="280.7" y1="178.3" x2="273.4" y2="178.3"/>
			<line class="st17" x1="280.7" y1="175.7" x2="273.4" y2="175.7"/>
			<line class="st17" x1="280.7" y1="173" x2="273.4" y2="173"/>
			<rect x="359.1" y="168" class="st21" width="15.2" height="10"/>
			<rect x="361" y="166.4" class="st16" width="15.2" height="10"/>
			<g>
				<defs>
					<rect id="SVGID_00000071560691930597225960000017572018637015558532_" x="361" y="166.4" width="15.2" height="10"/>
				</defs>
				<clipPath id="SVGID_00000118365132855799638850000012106714471093142965_">
					<use xlink:href="#SVGID_00000071560691930597225960000017572018637015558532_"  style="overflow:visible;"/>
				</clipPath>
				<g style="clip-path:url(#SVGID_00000118365132855799638850000012106714471093142965_);">
					<polyline class="st27" points="366.3,171.1 358.7,177.7 378.9,177.7 370.9,171.1 					"/>
					<polygon class="st29" points="368.6,173 359.7,165.6 377.6,165.6 					"/>
				</g>
			</g>
			<rect x="89.8" y="156.9" class="st15" width="15.2" height="10"/>
			<rect x="91.7" y="155.3" class="st16" width="15.2" height="10"/>
			<g>
				<defs>
					<rect id="SVGID_00000164481328463219371000000006271726129873187744_" x="91.7" y="155.3" width="15.2" height="10"/>
				</defs>
				<clipPath id="SVGID_00000090277271970230148090000004316413980144040104_">
					<use xlink:href="#SVGID_00000164481328463219371000000006271726129873187744_"  style="overflow:visible;"/>
				</clipPath>
				<g style="clip-path:url(#SVGID_00000090277271970230148090000004316413980144040104_);">
					<polyline class="st27" points="97,160 89.4,166.6 109.5,166.6 101.5,160 					"/>
					<polygon class="st29" points="99.2,161.9 90.3,154.5 108.3,154.5 					"/>
				</g>
			</g>
			<rect x="122" y="162.8" class="st19" width="11.5" height="14"/>
			<rect x="124.6" y="165.1" class="st20" width="11.5" height="14"/>
			<rect x="127.1" y="167.4" class="st16" width="11.5" height="14"/>
			<line class="st31" x1="131.5" y1="170.2" x2="134.3" y2="170.2"/>
			<line class="st31" x1="129.2" y1="173.5" x2="136.6" y2="173.5"/>
			<line class="st31" x1="129.2" y1="176.1" x2="136.6" y2="176.1"/>
			<line class="st31" x1="129.2" y1="178.8" x2="136.6" y2="178.8"/>
			
				<linearGradient id="SVGID_00000047749282662484384600000018049058489519385788_" gradientUnits="userSpaceOnUse" x1="321.1179" y1="193.5121" x2="221.6078" y2="94.0122" gradientTransform="matrix(1 0 0 -1 0 238)">
				<stop  offset="0" style="stop-color:#FFFFFF"/>
				<stop  offset="1" style="stop-color:#FFFFFF;stop-opacity:0"/>
			</linearGradient>
			
				<rect x="235.3" y="81.9" style="fill:url(#SVGID_00000047749282662484384600000018049058489519385788_);" width="58" height="38.9"/>
			<g>
				<path class="st33" d="M238.7,86.2h12.7"/>
				<path class="st33" d="M239,89h11.1"/>
				<path class="st33" d="M238.1,91.8h8.5"/>
				<path class="st33" d="M240.6,97.3c5.3-2.6,11.5-2.7,16.9-0.4c1.8,0.8,3.5,1.8,5.3,2.4c3.5,1.1,7.3,0.7,10.4-1.2"/>
				<path class="st33" d="M270.4,97.7c1,0.4,2.1,0.5,3.1,0.3"/>
				<path class="st33" d="M273.6,98.2c-0.7,0.7-1.3,1.5-1.6,2.5"/>
				<path class="st33" d="M279.8,85.6c-1.1,0.6-2.1,1.5-2.7,2.6c-0.6,1.2-0.8,2.5-0.4,3.8c0.7,1.7,2.3,2.9,4.1,3.2
					c1.3,0.3,2.7,0.1,4-0.3c0.6-0.2,1.1-0.5,1.5-0.9c0.5-0.5,0.8-1.2,0.9-1.8c0.2-0.7,0.3-1.5,0.3-2.2c-0.2-1.8-1.4-3.3-3-4
					c-1.6-0.6-3.3-0.7-5-0.1"/>
				<path class="st33" d="M240.4,112.7c1.4-2.5,2.8-5,4.4-7.4"/>
				<path class="st33" d="M244.9,105.1c1.2,2.6,2.6,5.1,4.2,7.5"/>
				<path class="st33" d="M240.7,112.9l8.4-0.3"/>
				<path class="st33" d="M254.1,102.9c0.2,4.2,0.3,8.5,0.2,12.7"/>
				<path class="st33" d="M275.6,102.9c0.2,4.2,0.3,8.5,0.2,12.7"/>
				<path class="st33" d="M254.9,115.7h20.6"/>
				<path class="st33" d="M254.2,111c0.9-1.3,2.5-1.9,4-1.6c1.5,0.3,3,0.9,4.3,1.6c1.4,0.7,3,0.9,4.5,0.6c1.5-0.5,2.6-1.9,4.1-2.4
					c1.4-0.3,2.9-0.2,4.3,0.3"/>
				<path class="st33" d="M258,109.9v5.3"/>
				<path class="st33" d="M261,110.4v5.3"/>
				<path class="st33" d="M263.7,111.4v4.4"/>
				<path class="st33" d="M266.7,111.8v3.9"/>
				<path class="st33" d="M269.5,110.5v5.1"/>
				<path class="st33" d="M273,109v6.6"/>
				<path class="st33" d="M282.6,85.3l-0.3,5.6"/>
				<path class="st33" d="M282.3,90.9c1.7-0.1,3.3-0.5,4.9-1.1"/>
				<path class="st33" d="M282.4,91c1.2,1,2.4,2,3.6,2.9"/>
				<path class="st33" d="M278.9,106.8l9.3,0.2"/>
				<path class="st33" d="M278.7,109.6l9.5,0.2"/>
				<path class="st33" d="M283.1,113.2h4.3"/>
			</g>
			<polygon class="st34" points="293.3,65.1 75.7,65.1 75.7,33 261.2,33 			"/>
			<g>
				<path class="st16" d="M95.4,44v0.4h-1.2v-0.5c0-2.1-0.8-3.6-2.9-3.6s-2.9,1.6-2.9,3.6c0,4.8,7.1,4.8,7.1,10.2
					c0,2.8-1.2,4.9-4.2,4.9S87,57,87,54.2v-1h1.2v1.1c0,2.1,0.8,3.6,3,3.6s3-1.5,3-3.6c0-4.7-7.1-4.8-7.1-10.2
					c0-2.9,1.3-4.8,4.2-4.9S95.4,41.2,95.4,44z"/>
				<path class="st16" d="M101.1,58.9V40.5h-4v-1.2h9.3v1.2h-4v18.4H101.1z"/>
				<path class="st16" d="M109.1,54.5l-1,4.3H107l4.3-19.6h1.9l4.4,19.6h-1.3l-1-4.3L109.1,54.5z M109.3,53.4h5.7l-2.9-12.7
					L109.3,53.4z"/>
				<path class="st16" d="M123.8,39.3c2.9,0,4,1.5,4,4.2v1.1c0,2.1-0.6,3.5-2.6,3.9c2.1,0.4,2.9,2,2.9,4.2v1.7
					c0,2.8-1.3,4.5-4.3,4.5h-4.2V39.3H123.8z M123.2,47.9c2.3,0,3.4-0.6,3.4-3.1v-1.3c0-2-0.6-3.1-2.7-3.1H121v7.5H123.2z
					 M123.9,57.7c2.2,0,3-1.2,3-3.4v-1.8c0-2.5-1.2-3.4-3.5-3.4H121v8.6H123.9z"/>
				<path class="st16" d="M130.6,58.9V39.3h1.3v18.4h6.1v1.2L130.6,58.9z"/>
				<path class="st16" d="M146.9,48.3v1.2h-5.4v8.2h6.5v1.2h-7.7V39.3h7.7v1.2h-6.4v7.9H146.9z"/>
				<path class="st16" d="M154.9,44.1c0-2.9,1.3-5,4.3-5s4.3,2.1,4.3,5v10c0,2.9-1.3,5-4.3,5s-4.3-2.1-4.3-5V44.1z M156.2,54.2
					c0,2.1,0.8,3.7,3,3.7s3-1.6,3-3.7V44c0-2.1-0.9-3.7-3-3.7s-3,1.6-3,3.7V54.2z"/>
				<path class="st16" d="M170,39.3c3,0,4.2,1.9,4.2,4.8v2.1c0,3.1-1.4,4.7-4.5,4.7h-2.4v8.1h-1.3V39.3H170z M169.7,49.6
					c2.3,0,3.2-1,3.2-3.4V44c0-2.1-0.7-3.5-2.9-3.5h-2.8v9.2L169.7,49.6z"/>
				<path class="st16" d="M183,48.3v1.2h-5.4v8.2h6.4v1.2h-7.7V39.3h7.7v1.2h-6.4v7.9H183z"/>
				<path class="st16" d="M190.6,39.3c3,0,4.2,1.7,4.2,4.4v1.7c0,2.3-0.9,3.6-2.8,4.1c2,0.5,2.8,1.9,2.8,4v3
					c-0.1,0.8,0.1,1.6,0.5,2.3h-1.3c-0.3-0.7-0.5-1.5-0.4-2.3v-3.1c0-2.6-1.4-3.3-3.7-3.3h-2v8.8h-1.3V39.3H190.6z M189.9,48.9
					c2.3,0,3.6-0.6,3.6-3.3v-1.8c0-2.1-0.8-3.4-2.9-3.4h-2.8v8.5H189.9z"/>
				<path class="st16" d="M199.5,54.5l-1,4.3h-1.2l4.3-19.6h1.9l4.4,19.6h-1.3l-1-4.3L199.5,54.5z M199.7,53.4h5.7l-2.9-12.7
					L199.7,53.4z"/>
				<path class="st16" d="M212.3,58.9V40.5h-4v-1.2h9.3v1.2h-4v18.4H212.3z"/>
				<path class="st16" d="M220.8,39.3v19.6h-1.3V39.3H220.8z"/>
				<path class="st16" d="M223.2,44.1c0-2.9,1.3-5,4.3-5s4.3,2.1,4.3,5v10c0,2.9-1.3,5-4.3,5s-4.3-2.1-4.3-5V44.1z M224.5,54.2
					c0,2.1,0.8,3.7,3,3.7s3.1-1.6,3.1-3.7V44c0-2.1-0.9-3.7-3.1-3.7s-3,1.6-3,3.7V54.2z"/>
				<path class="st16" d="M235.4,58.9h-1.2V39.3h1.7l5.9,16.5V39.3h1.2v19.6h-1.4l-6.1-17.5L235.4,58.9z"/>
				<path class="st16" d="M253.7,44v0.4h-1.2v-0.5c0-2.1-0.8-3.6-2.9-3.6s-2.9,1.5-2.9,3.6c0,4.8,7.1,4.8,7.1,10.2
					c0,2.8-1.2,4.9-4.2,4.9s-4.2-2.1-4.2-4.9v-1h1.2v1.1c0,2.1,0.8,3.6,3,3.6s3-1.5,3-3.6c0-4.7-7.1-4.8-7.1-10.2
					c0-2.9,1.3-4.8,4.2-4.9S253.7,41.2,253.7,44z"/>
			</g>
			<path d="M234.6,103.5c-0.5,0.5-1.2,0.7-1.9,0.5c-1.9-0.8-3.5-2-5-3.4l-0.2-0.2c0,0-1.6-3.2,0.1-5.7c0.1-0.1,0.2-0.1,0.4-0.1
				c0,0,0,0,0,0c0.1,0.1,0.4,0.3,0.7,0.6c0.8,0.7,2.1,2,4.2,4.2c0,0,1.2-4.8,1.8-6.9c0.1-0.2,0.1-0.4,0.2-0.6l1.8,0.4
				c0,0,0,0.2,0,0.6C236.7,94.9,236.8,101,234.6,103.5z"/>
			<path d="M234.7,91.9c0,0,1.1,0.9,1.8,0.4c0.1-0.5,0.2-1,0.4-1.4c0.5-0.8,0.9-1.7,1.1-2.7c0-0.1,0-0.2-0.1-0.3
				c0-0.1-0.1-0.2-0.1-0.2c-0.1-0.1-0.2-0.2-0.3-0.3c0,0-0.1-0.1-0.2-0.1c-0.1,0-0.2-0.1-0.3-0.1h-0.2h-0.1c-0.1,0-0.3,0.1-0.3,0.2
				c-0.3,0.6-0.6,1.2-1.1,1.8c0,0,0.2-1.1-0.1-1.3h-0.2c-0.1,0.6-0.2,1.3-0.5,1.9C234.5,90.5,234.5,91.2,234.7,91.9z"/>
			<path d="M236,89.1L236,89.1c0.5-0.5,0.9-1.2,1.1-1.9h-0.2C236.7,87.9,236.4,88.5,236,89.1z"/>
			<path d="M236.4,89.4L236.4,89.4c0.5-0.6,0.9-1.2,1.1-2c0,0-0.1-0.1-0.2-0.1C237.2,88,236.8,88.7,236.4,89.4z"/>
			<path d="M236.9,89.7L236.9,89.7c0.5-0.5,0.9-1.1,1.1-1.7c0-0.1-0.1-0.2-0.1-0.2C237.6,88.4,237.3,89.1,236.9,89.7z"/>
			<path d="M235.5,89.4c0.3,0.2,0.3,0.8,0.2,1.1h-0.1c0-0.2,0-0.4,0-0.6C235.6,89.8,235.5,89.6,235.5,89.4
				C235.5,89.4,235.5,89.4,235.5,89.4z"/>
			<path d="M224.5,89c0,0,0.1-3.2-0.8-3.6c-2-1-5.9,0.5-5.4,2.6s0.7,1.5,0.7,1.5S224.3,89.3,224.5,89z"/>
			<path d="M224.1,88.6c0.2-0.3,0.6-0.3,0.8-0.2c0.1,0,0.1,0.1,0.2,0.2c0.5,0.6-0.4,1.7-1,1.8C224,89.8,224,89.2,224.1,88.6z"/>
			<path d="M227.1,107c-3.1,0.7-6.3,0.7-9.3,0c0,0-0.8-4.3-1-5.6c-0.4-2.1-1-4.1-1.9-6c0-0.1,0-0.2,0.1-0.3c1.1-0.6,2.2-1,3.4-1.2
				c0.4-0.1,0.9-0.1,1.3-0.1c0,0,0-0.3,0-0.7s0-0.7-0.1-1c0-0.5-0.1-1-0.1-1.5c1,0.8,2.4,1.1,3.7,0.9l0.1,1.6l0,0l0.1,0.6
				c0,0,0.8,0,1.7,0.1c0.9,0,1.8,0.2,2.6,0.6C229.8,95.7,227.1,107,227.1,107z"/>
			<path d="M223.9,86.9c0.3,0.6,0.5,1.3,0.4,1.9c0.1,2.5-0.7,3.3-2,3.5s-2.7-0.4-2.9-2.7c-0.1-1.2-0.3-2.3,0.1-2.8
				C220.2,86.1,222.9,85.8,223.9,86.9z"/>
			<path d="M219.6,89.2c0,0-0.4-1.1-1-0.5s0.2,2.2,1.2,2C219.8,90.8,219.9,89.6,219.6,89.2z"/>
			<path d="M212.3,117.2c0,0,0,0.6,0,1.4c-0.1,1,0,2,0.2,3c0.1,0.1,0.1,0.1,0.2,0.2c0,0,0,0,0.1,0c0.2,0.1,0.3,0.2,0.5,0.2l0,0
				c0.2,0,0.3,0,0.5,0h0.2c0.2,0,0.3-0.1,0.4-0.2c0-0.8,0.1-1.5,0.2-2.3c0,0,0.3,1,0.6,1.1l0.2-0.1c0,0-0.2-1.2-0.2-1.7
				c-0.1-0.8-0.5-1.6-1.1-2.1C214.2,116.8,212.8,116.4,212.3,117.2z"/>
			<path d="M216.9,99.7c-0.2,0.5-0.4,1.2-0.6,1.9c-0.7,2.4-1.7,5.7-1.8,6.7s-0.1,5.9-0.1,7.9c0,0.5,0,0.8,0,0.8
				c-0.4,0.7-1.2,1-2,0.8c0,0-0.1-0.4-0.2-1.1c-0.6-2.8-0.9-5.6-0.9-8.5c0.5-3.1,1.1-6.1,2-9.1c0.3-1.2,0.7-2.4,1.3-3.5
				c0.3-0.4,0.7-0.7,1.2-0.7C217.6,94.7,217.5,97.8,216.9,99.7z"/>
			<path d="M218.9,89.2c0.3,0.1,0.5,0.3,0.7,0.6c0,0,0,0.1-0.1,0s-0.1-0.2-0.2-0.2c0,0.1-0.1,0.1-0.2,0.2c-0.1,0-0.1,0-0.1-0.1
				c0-0.1,0.1-0.1,0.1-0.2C219,89.4,218.9,89.4,218.9,89.2C218.8,89.3,218.8,89.2,218.9,89.2z"/>
			<path d="M213.9,122L213.9,122c0-0.8,0-1.6,0.1-2.3l0,0C213.8,120.4,213.8,121.2,213.9,122z"/>
			<path d="M213.4,122L213.4,122c0-0.8,0-1.6,0.1-2.3l0,0C213.2,120.4,213.2,121.2,213.4,122z"/>
			<path d="M212.8,121.8C212.8,121.8,212.8,121.8,212.8,121.8c0-0.7,0.1-1.5,0.1-2.2l0,0C212.7,120.3,212.7,121,212.8,121.8z"/>
			<polygon class="st14" points="217.9,145.7 220.2,145.8 220.2,141.5 218.1,141.4 			"/>
			<polygon class="st14" points="220.1,145.3 217.8,145 217.6,146.8 223.1,146.8 223.1,146.2 			"/>
			<polygon class="st14" points="226,145.7 228.3,145.8 229.1,141.3 226.9,141.2 			"/>
			<polygon class="st14" points="228.2,145.3 225.9,145 225.7,146.8 231.2,146.8 231.2,146.2 			"/>
			<path d="M220.6,144.6l2.3-26l3.5,12.4c0,0.2,0,0.3,0,0.5l-1.1,13.1h3.5l2.1-13.5c0-0.1,0-0.2,0-0.4l-2.5-19.4c0,0-4.5,0.4-12.1,4
				l1.1,29.2L220.6,144.6z"/>
			<path d="M236.6,93c-1.5,0.2-2-0.4-2-0.4c-0.8,2.1-1.4,4.3-1.8,6.6l-1.1-1.3c0,0-3-3.3-4.1-3.7c-1.4-0.3-2.8-0.4-4.2-0.3l-0.1-0.6
				l0,0c-0.6,0-1.2,0.3-1.6,0.7c-0.6-0.4-1.3-0.6-2-0.7c0,0.4,0,0.7,0,0.7c-0.2,0-4.9,0-5.9,2.3c-0.6,1.6-1.1,3.3-1.5,5
				c0,0-1.7,5.8-1.5,7.9s1.3,7.9,1.3,7.9c0.8,0.2,1.7-0.1,2.2-0.8l0.5-7.5l1.9-7.3c0,0.1,0.2,8.3-0.4,13.9c0,0,0,0.1,0.1,0.1
				c0.2,0.3,1.4,1.4,5.4,2.2l1-2l1.1,2c0,0,3.5-1.3,4.6-3.4c0.1-0.1,0.2-0.3,0.2-0.4c-0.8-9.8-0.5-12.5-0.5-12.5l1.6,1.5
				c0.2,0.2,0.4,0.3,0.5,0.5h0.1l0,0c0.8,0.7,1.9,1,3,0.8c0,0,2-0.1,2.9-4C236.9,97.8,237,95.4,236.6,93z"/>
			<path d="M216.2,114.7l0.6-13.2c0.6-2.4,0.9-4.9,0.8-7.4l1.2-0.1h0.4l3.7,8.4l1.6-8.5c0.3,0,0.5,0,0.8,0c0.2,0,0.3,0,0.5,0.1
				l2.5,7.5l0.7,13.4L216.2,114.7z"/>
			<path d="M219.2,93.9l3.7,8.4l-3.3-3.2l0.7-1.1l-1.2-0.2c0,0-0.2-3.1-0.3-3.9L219.2,93.9z"/>
			<path d="M224.6,97.7l0.8,1l-2.5,3.6l1.6-8.5c0.2-0.1,0.4-0.1,0.6-0.1l0.6,3.9L224.6,97.7z"/>
			<path d="M223.8,103.8c-0.1,0-0.2,0.2-0.2,0.3c0,0.1,0.1,0.2,0.2,0.2c0.1,0,0.2-0.2,0.2-0.3C224,103.9,223.9,103.8,223.8,103.8z"
				/>
			<path d="M224,106.7c-0.1,0-0.2,0.1-0.2,0.2c0,0.1,0.1,0.2,0.2,0.2s0.2-0.1,0.2-0.2C224.2,106.8,224.1,106.7,224,106.7L224,106.7z
				"/>
			<path d="M224,109.5c-0.2,0-0.3,0.1-0.3,0.3c0,0.2,0.1,0.3,0.3,0.3c0.2,0,0.3-0.1,0.3-0.3C224.3,109.7,224.2,109.5,224,109.5z"/>
		</g>
	</g>
</g>
</svg>
