<svg xmlns="http://www.w3.org/2000/svg" xmlns:xlink="http://www.w3.org/1999/xlink" width="500.11" height="213.31" viewBox="0 0 500.11 213.31"><defs><linearGradient id="h" x1="206.76" y1="108.24" x2="418.96" y2="108.24" gradientUnits="userSpaceOnUse"><stop offset="0" stop-color="#939a9a"/><stop offset="1" stop-color="#ccc"/></linearGradient><linearGradient id="i" x1="279.03" y1="126.72" x2="200.74" y2="48.43" gradientUnits="userSpaceOnUse"><stop offset="0" stop-color="#fff"/><stop offset="1" stop-color="#fff" stop-opacity="0"/></linearGradient><linearGradient id="j" x1="412.77" y1="145.61" x2="-68.03" y2="145.61" gradientUnits="userSpaceOnUse"><stop offset="0" stop-color="#b0b5b5"/><stop offset="1" stop-color="#42474e"/></linearGradient><linearGradient id="k" x1="298.87" y1="50.34" x2="332.98" y2="122.31" xlink:href="#i"/><linearGradient id="l" x1="180.68" y1="83.48" x2="80.03" y2="184.14" gradientUnits="userSpaceOnUse"><stop offset="0" stop-color="#00b6ff"/><stop offset="1" stop-color="#42004e"/></linearGradient><clipPath id="m"><rect x="29.46" y="90.81" width="15.19" height="9.98" fill="none"/></clipPath></defs><g style="isolation:isolate"><g clip-path="url(#g)"><polygon points="0 208.64 232.84 208.64 421.08 49.68 498.18 7.85 0 7.85 0 208.64" fill="url(#h)"/><rect x="206.02" y="60.46" width="51.77" height="38.27" fill="url(#i)"/><path d="M223.29,87.87l-6.6-.15-8,.22" fill="none" stroke="#958f9b" stroke-linecap="round" stroke-linejoin="round" stroke-width="0.55"/><path d="M222,85.71l-6.78-.12h-4.94" fill="none" stroke="#958f9b" stroke-linecap="round" stroke-linejoin="round" stroke-width="0.55"/><path d="M218.83,83.26h-7.09" fill="none" stroke="#958f9b" stroke-linecap="round" stroke-linejoin="round" stroke-width="0.55"/><path d="M230.74,86a2.86,2.86,0,0,1,2.88-1.11A13.51,13.51,0,0,1,236.71,86a4.83,4.83,0,0,0,3.18.39c1.08-.33,1.88-1.26,2.94-1.64a6,6,0,0,1,3.08.2" fill="none" stroke="#958f9b" stroke-linecap="round" stroke-linejoin="round" stroke-width="0.55"/><polyline points="233.47 77.53 236.6 79.65 245.05 79.65" fill="none" stroke="#958f9b" stroke-linecap="round" stroke-linejoin="round" stroke-width="0.55"/><polyline points="232.24 71.97 236.74 66.47 244.41 66.47" fill="none" stroke="#958f9b" stroke-linecap="round" stroke-linejoin="round" stroke-width="0.55"/><polyline points="224.38 74.08 219.94 69.63 213.97 69.63" fill="none" stroke="#958f9b" stroke-linecap="round" stroke-linejoin="round" stroke-width="0.55"/><g style="mix-blend-mode:multiply"><path d="M207.4,90.12q2.61-4.62,5.66-9" fill="none" stroke="#796fbf" stroke-linecap="round" stroke-linejoin="round" stroke-width="0.73"/><path d="M213.23,80.85A51.86,51.86,0,0,0,218.62,90" fill="none" stroke="#796fbf" stroke-linecap="round" stroke-linejoin="round" stroke-width="0.73"/><path d="M207.83,90.39l10.8-.32" fill="none" stroke="#796fbf" stroke-linecap="round" stroke-linejoin="round" stroke-width="0.73"/><path d="M225.61,69.12a8.61,8.61,0,0,0-3.41,3.51,7,7,0,0,0-.52,5.11,6.63,6.63,0,0,0,5.11,4.32,8.84,8.84,0,0,0,5-.45,4.92,4.92,0,0,0,1.91-1.25,6.12,6.12,0,0,0,1.19-2.47,8.93,8.93,0,0,0,.33-3,6.72,6.72,0,0,0-3.71-5.4,8,8,0,0,0-6.2-.12" fill="none" stroke="#796fbf" stroke-linecap="round" stroke-linejoin="round" stroke-width="0.73"/><path d="M229.08,68.75l-.37,7.51" fill="none" stroke="#796fbf" stroke-linecap="round" stroke-linejoin="round" stroke-width="0.73"/><path d="M228.72,76.34a21,21,0,0,0,6.16-1.46" fill="none" stroke="#796fbf" stroke-linecap="round" stroke-linejoin="round" stroke-width="0.73"/><path d="M228.84,76.47q2.21,2,4.55,3.88" fill="none" stroke="#796fbf" stroke-linecap="round" stroke-linejoin="round" stroke-width="0.73"/><path d="M230.67,86.64a40.78,40.78,0,0,1,.14,4.82" fill="none" stroke="#796fbf" stroke-linecap="round" stroke-linejoin="round" stroke-width="0.73"/><path d="M246,86.28a44.75,44.75,0,0,1,.15,5.18" fill="none" stroke="#796fbf" stroke-linecap="round" stroke-linejoin="round" stroke-width="0.73"/><path d="M231.25,91.54H246" fill="none" stroke="#796fbf" stroke-linecap="round" stroke-linejoin="round" stroke-width="0.73"/><path d="M233.47,87.6v3.6" fill="none" stroke="#796fbf" stroke-linecap="round" stroke-linejoin="round" stroke-width="0.73"/><path d="M235.62,87.94v3.6" fill="none" stroke="#796fbf" stroke-linecap="round" stroke-linejoin="round" stroke-width="0.73"/><path d="M237.5,88.63v3" fill="none" stroke="#796fbf" stroke-linecap="round" stroke-linejoin="round" stroke-width="0.73"/><path d="M239.65,88.88v2.66" fill="none" stroke="#796fbf" stroke-linecap="round" stroke-linejoin="round" stroke-width="0.73"/><path d="M241.71,88v3.43" fill="none" stroke="#796fbf" stroke-linecap="round" stroke-linejoin="round" stroke-width="0.73"/><path d="M244.19,87v4.46" fill="none" stroke="#796fbf" stroke-linecap="round" stroke-linejoin="round" stroke-width="0.73"/></g><polygon points="315.39 140.62 275.89 140.62 275.89 123.88 177.17 123.88 177.17 82.27 -34.23 82.27 -34.23 208.94 234.77 208.94 315.39 140.62" fill="url(#j)"/><rect x="258.81" y="134.56" width="10.84" height="13.14" transform="translate(528.45 282.26) rotate(180)" fill="#b3b7cb" style="mix-blend-mode:multiply"/><rect x="260.84" y="132.73" width="10.84" height="13.14" transform="translate(532.52 278.6) rotate(180)" fill="#fff"/><line x1="267.6" y1="143.44" x2="264.92" y2="143.44" fill="none" stroke="#943dc3" stroke-miterlimit="10" stroke-width="0.73"/><line x1="269.72" y1="140.29" x2="262.8" y2="140.29" fill="none" stroke="#943dc3" stroke-miterlimit="10" stroke-width="0.73"/><line x1="269.72" y1="137.82" x2="262.8" y2="137.82" fill="none" stroke="#943dc3" stroke-miterlimit="10" stroke-width="0.73"/><line x1="269.72" y1="135.36" x2="262.8" y2="135.36" fill="none" stroke="#943dc3" stroke-miterlimit="10" stroke-width="0.73"/><g opacity="0.5" style="mix-blend-mode:multiply"><line x1="69.42" y1="113.1" x2="69.42" y2="82.57" fill="none" stroke="#9d918e" stroke-miterlimit="10" stroke-width="0.55"/><polyline points="151.59 130.74 159.15 123.91 144.75 108.19 144.75 82.43" fill="none" stroke="#9d918e" stroke-miterlimit="10" stroke-width="0.55"/><line x1="159.37" y1="124.07" x2="211.66" y2="124.07" fill="none" stroke="#9d918e" stroke-miterlimit="10" stroke-width="0.55"/><line x1="206.56" y1="124.33" x2="206.23" y2="144.34" fill="none" stroke="#9d918e" stroke-miterlimit="10" stroke-width="0.55"/><polyline points="265.91 171.39 254.84 162.78 254.84 123.61" fill="none" stroke="#9d918e" stroke-miterlimit="10" stroke-width="0.55"/></g><polyline points="315.39 140.62 275.89 140.62 275.89 123.88 177.17 123.88 177.17 82.27 -34.23 82.27" fill="none" stroke="#3b3e5d" stroke-miterlimit="10" stroke-width="0.73"/><rect x="284.3" y="84.59" width="91.03" height="62.06" fill="url(#k)"/><path d="M347.13,49.5a16.43,16.43,0,0,0-1.83,7.06s1.12-.1,1.11-.26S347.13,49.5,347.13,49.5Z" fill-rule="evenodd"/><polygon points="336.6 83.06 334.33 82.9 335.08 80.28 337.25 80.44 336.6 83.06" fill-rule="evenodd"/><polygon points="346.79 83.06 344.36 82.89 344.67 80.38 347.09 80.56 346.79 83.06" fill-rule="evenodd"/><path d="M336.78,84.62a.71.71,0,0,0,.06-.25l0-1.63-2.32-.22a32.8,32.8,0,0,1-2.87,1.72.65.65,0,0,0-.4.38Z" fill-rule="evenodd"/><path d="M352,73.22h0a1.63,1.63,0,0,1-1.63-1.63V69.43A1.63,1.63,0,0,1,352,67.8h0a1.64,1.64,0,0,1,1.64,1.63v2.16A1.64,1.64,0,0,1,352,73.22Z" fill-rule="evenodd"/><path d="M351.91,81.71h0a.67.67,0,0,1-.66-.66V68.88a.66.66,0,0,1,.66-.66h0a.65.65,0,0,1,.66.66V81.05A.66.66,0,0,1,351.91,81.71Z"/><circle cx="351.99" cy="83.89" r="0.85"/><circle cx="356.86" cy="83.89" r="0.85"/><circle cx="347.13" cy="83.89" r="0.85"/><path d="M357.57,82.24H346.43a.53.53,0,0,1-.53-.53h0a.54.54,0,0,1,.53-.54h11.14a.54.54,0,0,1,.54.54h0A.54.54,0,0,1,357.57,82.24Z"/><rect x="343.86" y="65.55" width="16.1" height="3.07" rx="1.49"/><path d="M347.75,59s-1.43,4.11-1.33,4.92a5.7,5.7,0,0,0,1,2.56l7-.06a3.24,3.24,0,0,0,3.18-3.8v0c0-.19-.06-.38-.08-.57l-.48-3.56c-2.18,1.42-6.14,2-9.6,1.06Z" fill-rule="evenodd"/><path d="M342,59.3,344.56,57l1.95-2.44,1.16,2.74a8.88,8.88,0,0,1-5.27,3.8l-.31-.92Z" fill-rule="evenodd"/><path d="M337.72,81.34l-3.13-.27c0-.39,2.25-9,3.52-12.56a4,4,0,0,1,2-2.28l7.54-3.74,4.93,4.18L342.23,71Z" fill-rule="evenodd"/><path d="M337.72,81.34l-1.27-.11c.3-2.5,2.25-4.73,3.13-6,1.11-1.58.43-4.2.9-5.52a4.52,4.52,0,0,1,.95-1.34,8.39,8.39,0,0,1,3.75-2.24A14.57,14.57,0,0,0,349.44,64l3.16,2.68L342.23,71Z" fill-rule="evenodd"/><path d="M346.82,84.62a.54.54,0,0,0,.06-.25l0-1.63-2.57,0a27.74,27.74,0,0,1-2.61,1.55.65.65,0,0,0-.41.38Z" fill-rule="evenodd"/><path d="M349.63,41.21a1.35,1.35,0,0,0-.36,2.3c1.3,1.54.36-2.3.36-2.3Z" fill-rule="evenodd"/><path d="M355.25,48.49a1.68,1.68,0,0,0-.94-1.39,3.07,3.07,0,0,0-2.07-.19,15.19,15.19,0,0,0-2.44.71l-.69,2.28,2.3,1.1L356,47.6Z" fill-rule="evenodd"/><path d="M349.32,42.53A2.06,2.06,0,0,1,350,41.1a2,2,0,0,1,1.52-.49h0a2,2,0,0,1,1.83,2.1c0,.61-.05,1.29-.08,1.87a1.41,1.41,0,0,1-.49,1,1.44,1.44,0,0,1-1.09.35l-1.11-.11a1.49,1.49,0,0,1-1.34-1.54c0-.54.05-1.18.07-1.78Z" fill-rule="evenodd"/><polygon points="354.36 48.27 352.91 44.52 350.28 45.69 351.01 49.31 354.36 48.27 354.36 48.27" fill-rule="evenodd"/><path d="M352.2,42.3s-.26,1.84,1.18,1.88a11.72,11.72,0,0,0,.82-2.51c.16-1.58-3-1.9-4.29-1.23s-.5,1.89,2.29,1.86Z" fill-rule="evenodd"/><path d="M350.47,47.6c.83,1.32,2.83.12,3.16-.34.05-.08.93.46,1.05.54,1.75,1.27,2,6.71,2.3,8.67.14.91,1,4,.53,4.77-.15.27-1.52.06-1.79.11-1.15.22-6.29.63-7-.19s-.18-2.33-.31-3.3a24.08,24.08,0,0,1,.65-9.48Z" fill-rule="evenodd"/><path d="M349,55.24c.9,2.78,7.55-.2,6.79-1.53-1-1.87.47,1.28.75,3.24.13.91.86,4,.47,4.77-.13.27-.65,2.39-.9,2.41-3.26.13-8.26.35-8.49-.72-.32-1.52,1.14-4.1,1.25-5.07A11.63,11.63,0,0,0,349,55.24Z" fill-rule="evenodd"/><path d="M353.35,43.41a.64.64,0,0,0-.31,1.21.56.56,0,0,0,.63-.48.57.57,0,0,0-.32-.73Z" fill-rule="evenodd"/><path d="M349.25,44.31c-.1-.16-.49,2.48,1.1,2.61s2.26-.51,2.36-3.55c0,0-.63,1.85-1.56,1.88-1.94,0-1.79-.74-1.9-.94Z" fill-rule="evenodd"/><path d="M350,45.77a1.23,1.23,0,0,0,.82,0" stroke="#9c4345" stroke-linecap="round" stroke-linejoin="round" stroke-width="0.55"/><path d="M343.63,82l3.53-.1,1.21-11.62,7.54-4.19-.8-1.22-5.38-.39-4,1.89a3.42,3.42,0,0,0-1.94,3.11Z" fill-rule="evenodd"/><path d="M349.8,47.62a56,56,0,0,0-1,7.94,63.92,63.92,0,0,1-1.36,9.06c-.48-.89-2.18-.62-2.33-1.43,0,0,1.49-9.82,1.75-12.39S348.09,48.3,349.8,47.62Z" fill-rule="evenodd"/><path d="M346.86,60s-.89-.61-1.46-.32a10.64,10.64,0,0,0-1.12.38,3.64,3.64,0,0,0-.93.92.75.75,0,0,0,.56.74c.2,0,.8-.49.8-.49a3.48,3.48,0,0,0,1.93,0Z" fill-rule="evenodd"/><path d="M342.72,59.9s-.84-.68-1.43-.42a10.72,10.72,0,0,0-1.15.29,3.76,3.76,0,0,0-1,.85.75.75,0,0,0,.5.78c.2.05.84-.44.84-.44a3.38,3.38,0,0,0,1.91.17Z" fill-rule="evenodd"/><polygon points="346.86 59.95 349.69 59.74 349.8 61.24 346.26 61.05 346.86 59.95" fill-rule="evenodd"/><rect x="338.7" y="60.79" width="9.24" height="0.59"/><path d="M359.39,57.64A37.75,37.75,0,0,0,359,53a9.12,9.12,0,0,0-1.39-4.24,4.79,4.79,0,0,0-2-1.2l-1.34-.42a36.5,36.5,0,0,0-1,11.25l-4.49.89v2.14h6.93l1.38-.45,1.31-.73A3.68,3.68,0,0,0,359.39,57.64Z" fill-rule="evenodd"/><path d="M341.49,61.38h-10.6l-3.2-7.13h10.36a.38.38,0,0,1,.34.22Z" fill-rule="evenodd"/><path d="M340.64,61.38H330L327,54.58a.23.23,0,0,1,.21-.33h10.09a.23.23,0,0,1,.21.14Z" fill-rule="evenodd"/><path d="M353.17,56.76s-.09,3.79-1,5.53a21.46,21.46,0,0,1-2.4,2.83s7.74.76,8-2.36a61.71,61.71,0,0,1,1-6.77Z" fill-rule="evenodd"/><path d="M334.12,57.86c.13.44-.21.8-.76.8a1.3,1.3,0,0,1-1.23-.8c-.13-.45.22-.81.77-.81A1.28,1.28,0,0,1,334.12,57.86Z" fill-rule="evenodd"/><path d="M359.39,57.64A37.75,37.75,0,0,0,359,53a9.12,9.12,0,0,0-1.39-4.24,4.79,4.79,0,0,0-2-1.2l-1.34-.42c5.15,2.63,3.48,8.28,3.84,12.06-.83.44-1.22.3-3.15.69a26.86,26.86,0,0,1-3.58,1,5,5,0,0,0-2.62-.1v.59h6.93l1.38-.45,1.31-.73A3.68,3.68,0,0,0,359.39,57.64Z" fill-rule="evenodd"/><path d="M360.61,62.49H322.38a.56.56,0,0,1-.56-.56h0a.56.56,0,0,1,.56-.55h38.23a.56.56,0,0,1,.56.55h0A.56.56,0,0,1,360.61,62.49Z" fill-rule="evenodd"/><path d="M298,55.18A22.41,22.41,0,0,0,300,51c0,.3-1.13.8,1.45.42,0,0,3.5,5.75,2.31,14.81-.26,1.94-.08,6.75-.24,8.56S303,82,303,82a3.07,3.07,0,0,0,.19,1.29,1.49,1.49,0,0,0,.53.45c.44.25.87.48.34.75s-2.59.07-2.59-.21,0-.56,0-.8a9.08,9.08,0,0,0-.12-1.33,49.94,49.94,0,0,1-1.2-9.29c-.08-4.54-.84-4.06-1-6.11C298.66,59.2,297.14,56.79,298,55.18Z"/><path d="M303.72,83.7a5.47,5.47,0,0,1-2.26-.26l-.18,1.24h4.14c.53-.27,0-.44,0-.44Z"/><path d="M295.52,83.75v-.51a8.12,8.12,0,0,0-.09-1.35,53.94,53.94,0,0,1-.92-9.48,42.09,42.09,0,0,0-.27-5.94c-.19-4.5-.16-9.18.64-11.84a17.84,17.84,0,0,0,.88-4.75s.8,1.59,4.37,1.54c0,0-1.18,13-1.27,14.88S298,73,297.8,74.82s-.95,7-.56,8.46c0,.14.25.32.52.52a5,5,0,0,0,.48.31"/><path d="M296.3,83.85c.11-2.31.45-9.41.64-11.94.23-3,.2-5.42.2-5.42l-2.9,0v0a42.09,42.09,0,0,1,.27,5.94,53.94,53.94,0,0,0,.92,9.48,8.12,8.12,0,0,1,.09,1.35v.51Z"/><path d="M299.65,84.74c.53-.21,0-.44,0-.44a173.09,173.09,0,0,0-4.14-1.06c0,.24,0,1.16,0,1.45Z"/><path d="M294,67.23h10.35c.1-2.6.56-7.22-2.4-15.9h-6.66C292.62,55.31,294,67.23,294,67.23Z"/><path d="M297.5,57.86c.07-3.76,1.88-5,2.16-6.46l-.06-.07h-4.27c-2.71,4-1.29,15.9-1.29,15.9h3.12C297.24,65.63,297.46,60.94,297.5,57.86Z"/><polygon points="299.66 39.02 301.62 39.9 303.4 36.05 301.48 35.09 299.66 39.02"/><path d="M304.27,43.56l3.66,1.55a1.13,1.13,0,0,0,1.27-.18h0a1.13,1.13,0,0,0-.16-1.8l-6.27-3.29Z"/><path d="M308.48,37.21l-.89.49s-.24,5.45-.24,6.32,1,1,1,1a1.1,1.1,0,0,0,1.12-1.21Z"/><path d="M302.34,38.27s2.08,4.82,2,5.91l-1.41,3L302,49.64c.26.9.68,1.75-.08,1.84h-6.6c.39-8,1.82-12.8,5-14C300.78,37.33,301.44,37.8,302.34,38.27Z"/><polygon points="300.09 41.21 295.45 49.55 295.88 44.47 300.09 41.21"/><path d="M302.66,39.05l-.72,4.3c-1.91,2.54-2.28,8-2.28,8h0l2.27.08c.76-.09.34-.94.08-1.84l.88-2.44,1.41-3C304.39,43.36,303.24,40.46,302.66,39.05Z"/><path d="M295.71,52.41l.44,1.2a1,1,0,0,1,0,.74L295.54,56l-.56-.49L294.5,54a1.54,1.54,0,0,1,.08-1.09l.25-.6Z"/><path d="M294.61,47.64c.44,1.89.57,2.91,1.05,4.8l-.78.66c-1.54-3.64-2.62-4.77-2.45-6.44C294.74,44.87,292.38,46.18,294.61,47.64Z"/><path d="M308.48,37.21l-1-.78a1,1,0,0,0-.71-.22l-1,0a.52.52,0,0,0-.45.72h0l1.33.91a1.66,1.66,0,0,0,1.07.26l.65-.07Z"/><path d="M301.05,33.17c.38-1.64.51-1.91,2-2.14s.48.39,2,.78c.89.23.87,1.06.68,2.1a1.48,1.48,0,0,0,.4,1.12c.08.25-.34.42-.47.52s-.23,1.19-.61,1.34a10,10,0,0,1-1.91,0c-1.64-.92-1-4.24-1-4.24C302,32.08,300.94,33.6,301.05,33.17Z"/><circle cx="299.1" cy="32.27" r="1.64" stroke="#220350" stroke-miterlimit="10" stroke-width="0.37"/><circle cx="299.9" cy="32.13" r="1.3" stroke="#220350" stroke-miterlimit="10" stroke-width="0.37"/><circle cx="299.82" cy="31.48" r="1.3" stroke="#220350" stroke-miterlimit="10" stroke-width="0.37"/><circle cx="299.1" cy="33.34" r="1.3" stroke="#220350" stroke-miterlimit="10" stroke-width="0.37"/><circle cx="299.66" cy="32.5" r="1.56"/><path d="M303,30.39s-3.2-.22-2.52,3.72a3.41,3.41,0,0,0,.51,1.33.94.94,0,0,0,.88.43.78.78,0,0,0,.58-.23c1-1.37.82-1,1.66-3.37l1.19-.46.23-.33Z"/><path d="M302.94,34.87s-.64-2.37.21-3l2.36-.42A4.57,4.57,0,0,1,302.94,34.87Z"/><polygon points="303 38.44 300.22 36.78 299.53 37.55 303.34 39.78 303 38.44"/><path d="M292.35,46.68a2.2,2.2,0,0,0,2.33,1.25l4.55-5.56a2.57,2.57,0,0,0,.95-1.64c0-.77-.68-1.51-2.08-.7C296.89,40.73,293.76,44.53,292.35,46.68Z"/><path d="M303.31,34.43c.11.53-.1,1-.46,1s-.73-.35-.83-.87.1-1,.45-1S303.21,33.91,303.31,34.43Z"/><rect x="319.71" y="35.2" width="22.13" height="15.25" fill="#b3b7cb" style="mix-blend-mode:multiply"/><rect x="322.03" y="33.14" width="22.13" height="15.25" fill="#fff"/><path d="M324.55,44.8c4.4,0,11.26-3,15.45-8" fill="none" stroke="#a45acc" stroke-linecap="round" stroke-linejoin="round" stroke-width="0.73"/><path d="M337.26,37.66l3-1a25.17,25.17,0,0,1-.92,2.65" fill="none" stroke="#a45acc" stroke-linecap="round" stroke-linejoin="round" stroke-width="0.73"/><line x1="341.83" y1="46.04" x2="341.83" y2="35.2" fill="none" stroke="#dae1ff" stroke-miterlimit="10" stroke-width="0.73"/><polyline points="324.37 34.01 324.37 46.04 342.64 46.04" fill="none" stroke="#a45acc" stroke-miterlimit="10" stroke-width="0.73"/><path d="M322,41.51h6.15a6.36,6.36,0,0,0,6.41-6.31,6.11,6.11,0,0,0-.36-2.06H322Z" fill="#e8e8e8" style="mix-blend-mode:multiply"/><path d="M327.59,39.65a6.31,6.31,0,1,0,0-12.62h-8.95a6.31,6.31,0,1,0,0,12.62Z" fill="#fff"/><line x1="327.75" y1="35.72" x2="316.52" y2="35.72" fill="none" stroke="#b3b7e7" stroke-miterlimit="10" stroke-width="0.73"/><line x1="330.9" y1="33.34" x2="316.52" y2="33.34" fill="none" stroke="#b3b7e7" stroke-miterlimit="10" stroke-width="0.73"/><line x1="328.95" y1="30.96" x2="316.52" y2="30.96" fill="none" stroke="#b3b7e7" stroke-miterlimit="10" stroke-width="0.73"/><path d="M314,35.88s-1.3,3.17-4,4c0,0,4.66,1,7.07-2.68" fill="#fff"/><polygon points="271.73 177.35 211.6 177.35 211.6 144.53 151.59 144.53 151.59 130.65 86.35 130.65 69.48 113.48 -34.23 113.48 -34.23 208.94 234.77 208.94 271.73 177.35" fill="url(#l)"/><polyline points="-34.23 208.7 234.77 208.7 423.01 49.74" fill="none" stroke="#fff" stroke-miterlimit="10" stroke-width="2.2"/><path d="M101.12,122.2h0a1.64,1.64,0,0,1-1.63-1.63v-2.16a1.64,1.64,0,0,1,1.63-1.64h0a1.64,1.64,0,0,1,1.63,1.64v2.16A1.64,1.64,0,0,1,101.12,122.2Z" fill-rule="evenodd"/><path d="M101.05,127.23h0a.65.65,0,0,1-.66-.66V114.4a.66.66,0,0,1,.66-.66h0a.67.67,0,0,1,.66.66v12.17A.66.66,0,0,1,101.05,127.23Z"/><circle cx="101.14" cy="129.29" r="0.85"/><circle cx="106.01" cy="129.29" r="0.85"/><circle cx="96.28" cy="129.29" r="0.85"/><path d="M106.71,127.77H95.57a.54.54,0,0,1-.53-.54h0a.53.53,0,0,1,.53-.53h11.14a.54.54,0,0,1,.54.53h0A.54.54,0,0,1,106.71,127.77Z"/><path d="M93.46,115.27l-2.58-9.37H89.61L92.39,116A1.67,1.67,0,0,0,94,117.21h5.28v-1.27H94.34A.92.92,0,0,1,93.46,115.27Z"/><path d="M96,118.39h11a1.85,1.85,0,0,0,1.85-1.86h0a1.85,1.85,0,0,0-1.85-1.85H96a1.85,1.85,0,0,0-1.86,1.85h0A1.86,1.86,0,0,0,96,118.39Z"/><path d="M89.32,103.92h1a1.19,1.19,0,0,1,1.19,1.19v3.41a1.19,1.19,0,0,1-1.19,1.19h-1a0,0,0,0,1,0,0v-5.78A0,0,0,0,1,89.32,103.92Z" transform="translate(205.92 185.83) rotate(164.63)"/><path d="M89.08,98.8l3.79,13.53a1.62,1.62,0,0,0,2,1.12h0a1.61,1.61,0,0,0,1.12-2l-3.8-13.53a1.61,1.61,0,0,0-2-1.12h0A1.61,1.61,0,0,0,89.08,98.8Z"/><path d="M116.48,127.82l1.73.07L112,112.11,99.24,111l.91,2.36c10.49.52,10.18,2,10.18,2C110.06,119.14,112.57,122,116.48,127.82Z"/><path d="M109.49,127.92l1.34,0,1-11.76c.81-6.41-2.2-4-12.38-4.56v1.49c10.4.53,9.69,2.63,9.69,2.63C108.19,119.56,108.93,120.94,109.49,127.92Z"/><path d="M99,115.64l10.3.51,2.66-4.09-11.68-3.61c-1.18,0-2.48-.6-2.48.9l-.74,3.58C97.08,114.42,97.85,115.64,99,115.64Z"/><path d="M100,114.85c-1.63-.1-1.76-2.22-.84-5.4l.36-1.07c-.87-.1-1.61-.16-1.61,1l-.74,3.58a2.1,2.1,0,0,0,1.94,2.71l10.29.51.25-.37Z"/><path d="M113.74,105.29l1.27-.15a1.09,1.09,0,0,1,.72.17l1.47,1-.6.44-1.61.1a1.58,1.58,0,0,1-1-.34l-.53-.39Z"/><path d="M108.84,105.22c1.94,0,3,.14,4.91.12l.46.91c-3.9.64-5.25,1.42-6.84.86C106.18,104.44,106.9,107.05,108.84,105.22Z"/><path d="M104,88.73s3.51-1.06,3,2.26a7,7,0,0,1-2.14,4.27l-1.49-6.12Z"/><polygon points="101.84 97.16 103.8 98.05 105.58 94.2 103.66 93.23 101.84 97.16"/><path d="M102.44,91.87c0-1.68.07-2,1.44-2.53s.56.27,2.11.31c.92,0,1.09.84,1.14,1.89a1.5,1.5,0,0,0,.64,1c.13.23-.24.49-.33.61s0,1.21-.3,1.44a9.63,9.63,0,0,1-1.86.44c-1.8-.53-1.92-3.91-1.92-3.91C103.16,90.59,102.44,92.32,102.44,91.87Z"/><path d="M103.7,88.73s-3.17.51-1.62,4.19a3.38,3.38,0,0,0,.8,1.18.94.94,0,0,0,1,.22.76.76,0,0,0,.51-.35c.7-1.57.57-1.2.86-3.66l1.06-.71-1.18-.87Z"/><path d="M104.67,93.11s-1.16-2.17-.47-3l2.21-.94A4.62,4.62,0,0,1,104.67,93.11Z"/><path d="M104.52,96.42l1.83,3.31a5.54,5.54,0,0,1,.87,3.48l-2.15,2.13-.88,2.45c.26.89.68,1.75-.08,1.84l-6.48-.23c.39-8,1.7-12.58,4.87-13.75C103,95.48,103.62,95.94,104.52,96.42Z"/><polygon points="105.18 96.58 102.4 94.93 101.71 95.69 105.52 97.93 105.18 96.58"/><path d="M107.38,107.2a2.23,2.23,0,0,0,1.76-2l-4.32-5.74c-.31-.51-.79-1.2-1.37-1.31-.76-.15-1.62.31-1.17,1.86C102.67,101.37,105.62,105.32,107.38,107.2Z"/><path d="M118.21,127.7l1.54,1c.31.24,1.81.49,1.86.65h0a.68.68,0,0,1-.75.78l-.84,0-3.08-.17s-1-.17-.46-2.15Z" fill-rule="evenodd"/><path d="M111.23,127.7l1.53,1c.31.24,1.81.49,1.86.65h0a.68.68,0,0,1-.75.78l-.84,0L110,130s-1-.17-.45-2.15Z" fill-rule="evenodd"/><path d="M124.24,108.46H111a.56.56,0,0,1-.56-.55h0a.56.56,0,0,1,.56-.55h13.21a.56.56,0,0,1,.56.55h0A.56.56,0,0,1,124.24,108.46Z" fill-rule="evenodd"/><path d="M105.49,92.58c.11.52-.1,1-.46,1s-.73-.34-.83-.87.1-1,.45-1S105.38,92.05,105.49,92.58Z"/><path d="M102.56,90S99.47,88.9,99,92.75c-.38,3.17,1.06,4.38.46,5.66A.44.44,0,0,0,100,99c1.19-.37,2.79-1.19,2.68-2.93-.19-2.75-.13-4.67,0-4.72S102.56,90,102.56,90Z"/><path d="M103.79,102.67c-1.91,2.55-2,6.88-2,6.88l2.27.08c.76-.09.34-.95.08-1.84l.37-1,.51-1.42.45-.44Z"/><path d="M113.82,107.3h7.5v-.88h-8.38A.88.88,0,0,0,113.82,107.3Z"/><rect x="118.23" y="102.72" width="8.89" height="0.88" rx="0.4" transform="translate(264.96 29.38) rotate(112.53)"/><path d="M109.5,127.82s1.84,1.84,3.35.91l-2.13-1.37Z" fill-rule="evenodd"/><path d="M116.47,127.82s1.85,1.84,3.35.91l-2.12-1.37Z" fill-rule="evenodd"/><polyline points="158.53 130.56 135.33 107.02 128.56 107.02" fill="none" stroke="#fff" stroke-miterlimit="10" stroke-width="0.73"/><polygon points="157.27 131.51 159.49 129.32 159.47 131.52 157.27 131.51" fill="#fff"/><polygon points="128.77 108.58 128.77 105.47 127.22 107.02 128.77 108.58" fill="#fff"/><line x1="82.93" y1="97.43" x2="52.04" y2="97.43" fill="none" stroke="#fff" stroke-miterlimit="10" stroke-width="0.73"/><polygon points="82.72 98.99 82.72 95.88 84.28 97.43 82.72 98.99" fill="#fff"/><polygon points="52.25 98.99 52.25 95.88 50.7 97.43 52.25 98.99" fill="#fff"/><polyline points="258.07 141.37 248.08 141.29 248.08 130.41 210.86 130.41" fill="none" stroke="#fff" stroke-miterlimit="10" stroke-width="0.73"/><polygon points="257.85 142.92 257.87 139.81 259.41 141.37 257.85 142.92" fill="#fff"/><polygon points="211.07 131.96 211.07 128.85 209.51 130.41 211.07 131.96" fill="#fff"/><path d="M208,80.36a1.72,1.72,0,0,1-1.9.48,17.41,17.41,0,0,1-5-3.41l-.22-.2s-1.62-3.19.12-5.73a.26.26,0,0,1,.37-.06c.15.12.39.32.73.63.79.71,2.13,2,4.18,4.22,0,0,1.17-4.79,1.74-6.88l.18-.61,1.82.42s0,.23,0,.63C210.07,71.81,210.15,77.85,208,80.36Z"/><path d="M208.12,68.8s1.07.94,1.82.42a4.49,4.49,0,0,1,.4-1.41,9.66,9.66,0,0,0,1.11-2.69,1.09,1.09,0,0,0-.08-.3.85.85,0,0,0-.13-.22,1,1,0,0,0-.26-.27.46.46,0,0,0-.17-.09.94.94,0,0,0-.31-.09l-.2,0h-.07a.35.35,0,0,0-.31.21,9.42,9.42,0,0,1-1.07,1.79s.19-1-.07-1.27l-.23,0a9.17,9.17,0,0,1-.45,1.87A3.19,3.19,0,0,0,208.12,68.8Z"/><path d="M209.36,66s0,0,0,0a4.54,4.54,0,0,0,1.13-1.86l-.2,0A6.7,6.7,0,0,1,209.36,66Z"/><path d="M209.81,66.27s0,0,0,0a4.72,4.72,0,0,0,1.15-2,.46.46,0,0,0-.17-.09A7,7,0,0,1,209.81,66.27Z"/><path d="M210.26,66.56s0,0,0,0a5,5,0,0,0,1.09-1.76.85.85,0,0,0-.13-.22A7.06,7.06,0,0,1,210.26,66.56Z"/><path d="M208.89,66.29c.3.2.31.82.2,1.12,0,0-.08,0-.08,0a3.84,3.84,0,0,0,0-.59,3.25,3.25,0,0,1-.12-.52S208.88,66.28,208.89,66.29Z"/><path d="M197.9,65.9s.07-3.17-.75-3.59c-2-1-5.91.49-5.41,2.63s.68,1.54.68,1.54S197.74,66.18,197.9,65.9Z"/><path d="M197.45,65.48a.61.61,0,0,1,1,0c.49.59-.34,1.72-1,1.77A14.76,14.76,0,0,1,197.45,65.48Z"/><path d="M200.49,83.88a21,21,0,0,1-9.32,0s-.78-4.31-1-5.56a30.75,30.75,0,0,0-1.87-6,.23.23,0,0,1,.1-.29,9.56,9.56,0,0,1,3.38-1.15,10.67,10.67,0,0,1,1.32-.11s0-.3,0-.74,0-.66,0-1a13.37,13.37,0,0,0-.15-1.48,4.55,4.55,0,0,0,3.68.9l.14,1.58v0l.07.65s.79,0,1.71.07a6.55,6.55,0,0,1,2.6.57C203.17,72.63,200.49,83.88,200.49,83.88Z"/><path d="M197.34,63.78a3.4,3.4,0,0,1,.38,1.94c.08,2.54-.68,3.34-2,3.48s-2.66-.36-2.94-2.72c-.14-1.18-.29-2.27.14-2.78C193.58,62.94,196.34,62.74,197.34,63.78Z"/><path d="M193,66.14s-.4-1-1-.5.24,2.15,1.2,2C193.16,67.68,193.29,66.5,193,66.14Z"/><path d="M185.73,94.07a12.94,12.94,0,0,1,0,1.4,10.13,10.13,0,0,0,.21,3,1.66,1.66,0,0,0,.21.17l.07,0a1.37,1.37,0,0,0,.5.2h.05a1.43,1.43,0,0,0,.5,0h.05a2.37,2.37,0,0,0,.45-.15,10.75,10.75,0,0,1,.21-2.29s.27,1,.6,1.12l.22-.07s-.16-1.15-.19-1.67a3.24,3.24,0,0,0-1.09-2.11S186.19,93.29,185.73,94.07Z"/><path d="M190.32,76.57c-.17.51-.38,1.19-.6,2-.74,2.44-1.67,5.68-1.83,6.68s-.15,5.94-.13,7.92c0,.52,0,.84,0,.84a1.79,1.79,0,0,1-2,.77s-.09-.41-.21-1.08a43,43,0,0,1-.93-8.49,65.91,65.91,0,0,1,2-9.12,15.86,15.86,0,0,1,1.28-3.55,1.69,1.69,0,0,1,1.24-.72C191,71.63,190.92,74.68,190.32,76.57Z"/><path d="M192.25,66.12a1.4,1.4,0,0,1,.66.61s0,.07-.07,0a2.62,2.62,0,0,1-.22-.25.55.55,0,0,1-.19.15.06.06,0,0,1-.07-.1.53.53,0,0,1,.15-.15,1.66,1.66,0,0,1-.3-.22S192.21,66.12,192.25,66.12Z"/><path d="M187.31,98.87h.05a18.17,18.17,0,0,1,0-2.33s0,0,0,0A5.64,5.64,0,0,0,187.31,98.87Z"/><path d="M186.76,98.88h.05a18.32,18.32,0,0,1,.05-2.34s0,0,0,0A5.54,5.54,0,0,0,186.76,98.88Z"/><path d="M186.19,98.64l.07,0a18,18,0,0,1,.05-2.2s0,0,0,0A5.48,5.48,0,0,0,186.19,98.64Z"/><polygon points="191.32 122.59 193.56 122.64 193.61 118.39 191.47 118.33 191.32 122.59" fill-rule="evenodd"/><polygon points="193.49 122.18 191.15 121.93 191 123.66 196.51 123.66 196.51 123.07 193.49 122.18" fill-rule="evenodd"/><polygon points="199.43 122.59 201.67 122.64 202.44 118.17 200.3 118.11 199.43 122.59" fill-rule="evenodd"/><polygon points="201.6 122.18 199.25 121.93 199.1 123.66 204.62 123.66 204.62 123.07 201.6 122.18" fill-rule="evenodd"/><path d="M194,121.48l2.33-26,3.51,12.43a1.41,1.41,0,0,1,0,.46l-1.11,13.09h3.49l2.13-13.5a1.45,1.45,0,0,0,0-.36l-2.51-19.4s-4.52.44-12.09,4l1.09,29.21Z"/><path d="M210,69.85c-1.53.25-2-.44-2-.44A40.86,40.86,0,0,0,206.12,76l-1.06-1.35s-3-3.26-4.09-3.65a18.14,18.14,0,0,0-4.17-.3l-.07-.65v0a2.25,2.25,0,0,0-1.64.73,4.61,4.61,0,0,0-2-.71c0,.44,0,.74,0,.74-.26,0-4.93,0-5.9,2.35a30.79,30.79,0,0,0-1.49,5S184,83.89,184.24,86s1.29,7.92,1.29,7.92a2.22,2.22,0,0,0,2.23-.77l.54-7.49,1.89-7.31c0,.08.18,8.31-.39,14a.13.13,0,0,0,.07.11c.26.35,1.35,1.42,5.43,2.15l1-2,1.09,2s3.5-1.34,4.58-3.39a.55.55,0,0,0,.19-.42c-.8-9.77-.48-12.52-.48-12.52l1.62,1.45c.18.18.36.33.53.47l.06,0a0,0,0,0,1,0,0,3.48,3.48,0,0,0,3,.77s2-.07,2.88-4A18.84,18.84,0,0,0,210,69.85Z"/><path d="M189.59,91.57l.6-13.25A26.28,26.28,0,0,0,191,70.9l1.17-.09.36,0,3.7,8.42,1.63-8.54a2.6,2.6,0,0,1,.77,0,3.52,3.52,0,0,1,.52.09l2.52,7.5.74,13.37Z"/><path d="M192.57,70.78l3.7,8.42L192.94,76l.74-1.1-1.22-.15s-.21-3.08-.25-3.91Z"/><path d="M198,74.62l.78,1-2.49,3.62,1.63-8.54a1.39,1.39,0,0,1,.55-.07l.56,3.92Z"/><path d="M197.2,80.66a.26.26,0,0,0,0,.51A.26.26,0,0,0,197.2,80.66Z"/><path d="M197.35,83.59a.24.24,0,0,0,0,.48A.24.24,0,0,0,197.35,83.59Z"/><path d="M197.39,86.42a.29.29,0,0,0,0,.57A.29.29,0,0,0,197.39,86.42Z"/><path d="M262.14,76.13s-6.87,2.33-7.39,5c-.6,3.06,6.31,1.46,7.5-1.1C263.28,77.78,263.67,76,262.14,76.13Z"/><path d="M253.69,73.17a13.88,13.88,0,0,0-1.61.07,5.28,5.28,0,0,1-2.67-.93,1.28,1.28,0,0,1,0-.42v0a1.74,1.74,0,0,1,.17-.33,8.44,8.44,0,0,0,1.79,0s-.78-.31-.81-.57l.07-.16s.88.23,1.28.3a6.7,6.7,0,0,1,1.67.52S254.35,72.88,253.69,73.17Z"/><path d="M254.28,81.08c.5,2.27,3.59,1.46,2.69-1.16-1.12-3.27-3.23-8-3.23-8l-1.06,1.16C252.48,72.65,253,75.29,254.28,81.08Z"/><path d="M268.36,80.3c-.54-.39-.61-2-1-2.59a10.89,10.89,0,0,1-.94-1.21,5.41,5.41,0,0,1-.32-2.89,4.06,4.06,0,0,0-.78-3.11c-.44-.44-.83-.61-1.24-1.07-1-1.09.79-2.8,2.1-2.87a5.53,5.53,0,0,1,2.39.33,2.85,2.85,0,0,1,1.67,1.64,13.71,13.71,0,0,0,.45,2c.19.39.53.68.75,1.05a2,2,0,0,1,.22,1.51,7.8,7.8,0,0,0-.36,1.13c-.09.82.91,1,1.23,1.72a7.13,7.13,0,0,1,.25,2.3c-.09.76-.41,1.08-1.23,1a2.68,2.68,0,0,0-1.29,0,2.13,2.13,0,0,0-.73.57,1.79,1.79,0,0,1-.76.52A.49.49,0,0,1,268.36,80.3Z"/><path d="M271.37,76.06s5.47,4,8.06,9.35a1,1,0,0,1-.12,1c-.59.74-1.72,1.11-6.79,2.82-.32.11-.25,1.15-.34,2a.45.45,0,0,1-.9,0L271,89a23.68,23.68,0,0,1,5.76-3.6s-3.5-2.87-6.45-5C268.83,79.33,269.79,75.31,271.37,76.06Z"/><path d="M271.07,122.54c0-.2,0-.38,0-.55a12.59,12.59,0,0,1,0-1.47,63,63,0,0,0,.63-10.3,51.54,51.54,0,0,1,.08-6.46c.06-4.89.17-10.12-.71-13a14.71,14.71,0,0,1-.8-5.23s-1.27,1.93-4.85,1.88c0,0-.18,5.4,1.14,6,0,0,.45,8.06.6,10.16s1.06,7.31,1.33,9.26,1.16,7.57.83,9.2a1.53,1.53,0,0,1-.51.56,4.37,4.37,0,0,1-.47.34"/><path d="M267,123.62c-.54-.23,0-.48,0-.48a5.05,5.05,0,0,0,1.89-.55,5.16,5.16,0,0,0,2.22-.6c0,.26,0,1.25,0,1.58Z"/><path d="M265.59,86.64a1.31,1.31,0,0,0,0,.23A.56.56,0,0,0,265.59,86.64Z"/><path d="M267.11,91.48a23.41,23.41,0,0,1-1.49-4.56c0,.34-.44.87-3,.46,0,0-2.65,6.25-2.44,16.1,0,2.11-.66,7.34-.7,9.31s-.31,7.8-.28,7.81a4,4,0,0,1-.32,1.4,2,2,0,0,1-.59.48c-.47.28-.92.53-.42.83s2.59.06,2.61-.24.06-.61.1-.86a9.21,9.21,0,0,1,.27-1.45,63.86,63.86,0,0,0,2.21-10.1c.58-4.93,1.29-4.41,1.65-6.64C266.05,95.85,267.83,93.24,267.11,91.48Z"/><path d="M258.31,122.48a5,5,0,0,0,2.29-.27l0,1.34H256.5c-.5-.29.05-.47.05-.47Z"/><path d="M270.25,86.66c-4.36,2.2-7.61.69-7.61.69a44.15,44.15,0,0,0-.64-6.24,4.09,4.09,0,0,1-.15-1.2,31.18,31.18,0,0,1,.29-3.78,4.89,4.89,0,0,1,1.3-.39l.24,0c.74-.11,1.41-.14,1.41-.14l.08-.79.05-.54.09-.87c.11-1.15,2.47-.66,2.47-.66v2.83a6,6,0,0,0,1.18.14h.21A6.23,6.23,0,0,1,271,76C271.54,76.34,270,85.41,270.25,86.66Z"/><path d="M267.78,73v.85a3.79,3.79,0,0,1-2.61.92l.05-.54.09-.87C265.8,72.74,267.28,72.92,267.78,73Z"/><path d="M264.32,69a3.71,3.71,0,0,0-.36,1.82c-.07,2.39,1.08,3.27,1.86,3.27a2.66,2.66,0,0,0,2.76-2.55,5.4,5.4,0,0,0-.14-2.61C267.91,67.72,265.44,67.42,264.32,69Z"/><path d="M268.41,71s.37-1,1-.46-.22,1.94-1.12,1.83C268.25,72.37,268.12,71.34,268.41,71Z"/><path d="M269.08,71a.82.82,0,0,0-.36.23,1,1,0,0,0-.26.33s0,.07.07,0,.13-.15.2-.23a.59.59,0,0,0,.18.14s.09,0,.07-.09a.47.47,0,0,0-.14-.14,2.92,2.92,0,0,0,.28-.21S269.12,71,269.08,71Z"/><path d="M264.07,69.68a9.2,9.2,0,0,0,2.1-1.92,5.76,5.76,0,0,0,2.49,2.68l.72-.78-.92-1.49-1.62-.67-1.31-.29-1.23,1Z"/><path d="M262.64,87.35s-3,3.55-2.74,18.6c0,0-.48,4.25-.63,7,0,0,6.81,1.58,12.9-.24,0,0-.18-3.67-.09-6.45s.63-13.14-1.73-18.94A18.63,18.63,0,0,1,262.64,87.35Z"/><path d="M265.09,75.56a16.4,16.4,0,0,0,1.08,5.61s1.45-4.39,1.61-5.64c0,0,2.77-.26,3.59.53a26.59,26.59,0,0,1-.23,4.27c-.31,2-.51,2.46-.31,3.83a8.1,8.1,0,0,1-.48,3.19,11,11,0,0,1-7.71,0,9.44,9.44,0,0,1-.44-3,4.57,4.57,0,0,0-.35-2.57,4.42,4.42,0,0,1-.32-3.14,6,6,0,0,0,.32-2.41A5,5,0,0,1,265.09,75.56Z"/><path d="M271.05,75.82a17,17,0,0,1,5.43,4.41c2.34,2.94,2.38,3.66,3.2,4.16s-1.19,1.72-2.95,1-6-4.57-6-4.57S269.17,75.83,271.05,75.82Z"/><path d="M262.35,76.84s0,0,0,0a3.48,3.48,0,0,0-.44,1.19c-.17.53-.39,1-.58,1.56,0,.06.08.1.11,0a12.39,12.39,0,0,0,.62-1.45A2.88,2.88,0,0,0,262.35,76.84Z"/><path d="M270.72,77.89a10,10,0,0,0-.06-1.23h0a4.56,4.56,0,0,0,.09,2.66c0,.08.15.07.14,0C270.83,78.83,270.74,78.36,270.72,77.89Z"/><path d="M267.16,79.54a7.35,7.35,0,0,1-.63,2.61,8.05,8.05,0,0,0-.6,1.54,13.11,13.11,0,0,0-.21,3.85c0,.06.1.08.11,0,.21-1.39-.07-2.86.37-4.21s1.14-2.36,1.11-3.81A.08.08,0,1,0,267.16,79.54Z"/><polyline points="271.73 177.35 211.6 177.35 211.6 144.53 151.59 144.53 151.59 130.65 86.35 130.65 69.48 113.48 -34.23 113.48" fill="none" stroke="#08a8ff" stroke-miterlimit="10" stroke-width="0.73"/><path d="M192.23,8.27c.37,0,.61-.64.16-.64s-.61.64-.16.64Z" fill="#bd03ad"/><polygon points="217.42 153.56 220.37 153.56 222.39 147.63 219.44 147.63 217.42 153.56" fill-rule="evenodd"/><polygon points="243.09 172.68 240.87 173.74 239.36 172.02 241.58 170.96 243.09 172.68" fill-rule="evenodd"/><path d="M239.61,176h-1.1v1h1.76l3.73-3.31-.92-1.2-2.32,1.17Z" fill-rule="evenodd"/><path d="M230.9,164.23l9.31,9.21,2.36-2.12c-2-2.47-5.24-8.09-8.2-9.22Z" fill-rule="evenodd"/><path d="M247,156.15s.71,5.57-3.94,6.2a117.78,117.78,0,0,1-13.7.39s-.78-4,2.08-4.66c3.61-.87,5.49-1.29,5.49-1.29Z" fill-rule="evenodd"/><path d="M243.9,142.54,242.78,139l-2.46.93.47,3.34a3.31,3.31,0,0,1,3.11-.76Z" fill-rule="evenodd"/><path d="M241.73,140.13a3.51,3.51,0,0,1-1.09,2.12l-.1-.7-.14-1A2.13,2.13,0,0,0,241.73,140.13Z" fill-rule="evenodd"/><path d="M243.28,137.28c-.33-1.64-.45-1.92-1.89-2.2s-.5.37-2,.71c-.9.2-.9,1-.76,2.08a1.42,1.42,0,0,1-.43,1.1c-.09.25.33.44.45.55s0,1.35.38,1.56a3.3,3.3,0,0,0,2.5-.1c1.67-.86.72-4.25.72-4.25C242.33,136.16,243.37,137.72,243.28,137.28Z"/><path d="M241.41,138a12,12,0,0,0,1.62,2.5c.41.41.85-.08.88-.66.07-1.16.89-2.18.41-3.83-.25-.85-2.21-1.3-3.7-1.43-1.73-.15-3.69,2.15-.82,2.4l.88,1.62a.3.3,0,0,0,.56-.06Z" fill-rule="evenodd"/><path d="M242.16,137.66a.77.77,0,0,0-.86.6.76.76,0,0,0,.38,1,.74.74,0,0,0,.86-.6.76.76,0,0,0-.38-1Z" fill-rule="evenodd"/><rect x="222.95" y="152.97" width="9.24" height="0.59"/><rect x="213.36" y="153.56" width="39.29" height="1.11" rx="0.52" transform="translate(466.01 308.22) rotate(-180)"/><path d="M236.6,148.3l.32,8.49a19.94,19.94,0,0,0,10.25-.21c.4-.29.47-.82.09-1.65l.1-5.62a13.5,13.5,0,0,0-.47-3.85c-.43-1.57-1.21-3.27-2.6-3.52a8.42,8.42,0,0,0-3.83.22,4.69,4.69,0,0,0-3.62,4Z" fill-rule="evenodd"/><path d="M228.26,151.72s-.79-.73-1.4-.53c-.29.1-.73,0-1.17.19a3.91,3.91,0,0,0-1.05.78.74.74,0,0,0,.43.81c.2.07.87-.36.87-.36a4.79,4.79,0,0,0,2.22.52l1.4-.07.65-.79Z" fill-rule="evenodd"/><path d="M237.52,144.39l-3.79,5.93-4.82.63a.85.85,0,0,0-.75.85v1.47l6.58.2,4.31-2.47Z" fill-rule="evenodd"/><polygon points="228.14 175.89 225.9 175.94 228.31 169.92 230.37 170.52 228.14 175.89" fill-rule="evenodd"/><polygon points="225.97 175.48 228.46 175.23 228.46 176.96 222.95 176.96 222.95 176.37 225.97 175.48" fill-rule="evenodd"/><path d="M229.33,160.61l-3.4,13.83,3.53.12c1.66-4.42,3.45-8.11,3.78-11.77Z" fill-rule="evenodd"/><path d="M243,167.73h0a1.65,1.65,0,0,0,1.63-1.64v-2.16A1.64,1.64,0,0,0,243,162.3h0a1.64,1.64,0,0,0-1.64,1.63v2.16A1.65,1.65,0,0,0,243,167.73Z" fill-rule="evenodd"/><path d="M242.37,161.64v12.17a.65.65,0,0,0,.66.66h0a.66.66,0,0,0,.66-.66V161.64Z"/><circle cx="242.93" cy="175.94" r="0.85"/><circle cx="238.07" cy="175.94" r="0.85"/><circle cx="247.8" cy="175.94" r="0.85"/><path d="M237.37,174.47H248.5a.54.54,0,0,0,.54-.53h0a.54.54,0,0,0-.54-.54H237.37a.54.54,0,0,0-.54.54h0A.54.54,0,0,0,237.37,174.47Z"/><path d="M237.75,164.28h10.6a1.53,1.53,0,0,0,1.53-1.54h0a1.52,1.52,0,0,0-1.53-1.53h-10.6a1.52,1.52,0,0,0-1.53,1.53h0A1.53,1.53,0,0,0,237.75,164.28Z" fill-rule="evenodd"/><path d="M236.75,152.14l2.3-2.15v7.21a4.91,4.91,0,0,1-2.13-.41c-.38-.31-.51-.64,0-1.21Z" fill-rule="evenodd"/><path d="M215.29,150.18h12.87a1,1,0,0,0,.94-1l-.38-8.41a.94.94,0,0,0-.94-.91H214.91a.94.94,0,0,0-.94,1l.37,8.41A1,1,0,0,0,215.29,150.18Z" fill-rule="evenodd"/><polygon points="228.72 140.78 229.1 149.19 214.34 149.27 213.97 140.86 228.72 140.78" fill-rule="evenodd"/><rect x="147.27" y="90.81" width="24.13" height="17.45" fill="#b3b7cb" style="mix-blend-mode:multiply"/><rect x="149.2" y="89.1" width="24.13" height="17.45" fill="#fff"/><rect x="151.06" y="92.6" width="20.12" height="12.05" fill="none" stroke="#b3b7e7" stroke-miterlimit="10" stroke-width="0.55"/><line x1="171.18" y1="94.15" x2="151.06" y2="94.15" fill="none" stroke="#b3b7e7" stroke-miterlimit="10" stroke-width="0.55"/><line x1="171.18" y1="96.25" x2="151.06" y2="96.25" fill="none" stroke="#b3b7e7" stroke-miterlimit="10" stroke-width="0.55"/><line x1="171.18" y1="98.35" x2="151.06" y2="98.35" fill="none" stroke="#b3b7e7" stroke-miterlimit="10" stroke-width="0.55"/><line x1="171.18" y1="100.45" x2="151.06" y2="100.45" fill="none" stroke="#b3b7e7" stroke-miterlimit="10" stroke-width="0.55"/><line x1="171.18" y1="102.55" x2="151.06" y2="102.55" fill="none" stroke="#b3b7e7" stroke-miterlimit="10" stroke-width="0.55"/><line x1="153.74" y1="94.15" x2="153.74" y2="104.65" fill="none" stroke="#b3b7e7" stroke-miterlimit="10" stroke-width="0.55"/><line x1="155.5" y1="94.15" x2="155.5" y2="104.65" fill="none" stroke="#b3b7e7" stroke-miterlimit="10" stroke-width="0.55"/><line x1="163.25" y1="94.15" x2="163.25" y2="104.65" fill="none" stroke="#b3b7e7" stroke-miterlimit="10" stroke-width="0.55"/><line x1="169.26" y1="94.15" x2="169.26" y2="104.65" fill="none" stroke="#b3b7e7" stroke-miterlimit="10" stroke-width="0.55"/><rect x="150.93" y="90.33" width="1.53" height="0.98" fill="#b3b7e7"/><rect x="153.41" y="90.33" width="11.94" height="0.98" fill="#dae1ff"/><path d="M307.2,19.6a.77.77,0,0,0-.08-.42,1.1,1.1,0,0,0-.2-.37,0,0,0,0,0-.07,0c0,.1.09.19.14.29a.54.54,0,0,0-.2.1s0,.11.06.1a.3.3,0,0,0,.18-.08,2,2,0,0,0,.09.35A0,0,0,0,0,307.2,19.6Z" fill="#c85856"/><line x1="500.11" y1="7.91" x2="10.36" y2="7.91" fill="none" stroke="#96968c" stroke-miterlimit="10" stroke-width="0.73"/><g opacity="0.4"><g style="mix-blend-mode:overlay"><polyline points="30.34 178.36 55.09 178.36 65.01 188.28 111.92 188.28" fill="none" stroke="#dae1ff" stroke-miterlimit="10" stroke-width="0.73"/><polyline points="111.92 188.28 78.61 188.28 73.58 193.3 57.51 193.3 51.43 187.23 40.34 187.23" fill="none" stroke="#dae1ff" stroke-miterlimit="10" stroke-width="0.73"/><line x1="71.24" y1="178.47" x2="120.75" y2="178.47" fill="none" stroke="#dae1ff" stroke-miterlimit="10" stroke-width="0.73"/><polyline points="79.61 169.48 129.12 169.48 140.1 180.46 149.91 180.46" fill="none" stroke="#dae1ff" stroke-miterlimit="10" stroke-width="0.73"/><polyline points="19.48 178.47 19.48 189.61 30.38 189.61 30.38 198.86" fill="none" stroke="#dae1ff" stroke-miterlimit="10" stroke-width="0.73"/><line x1="19.48" y1="169.48" x2="68.99" y2="169.48" fill="none" stroke="#dae1ff" stroke-miterlimit="10" stroke-width="0.73"/><polyline points="40.44 199.47 91.59 199.16 94.74 196.02 160.31 196.02" fill="none" stroke="#dae1ff" stroke-miterlimit="10" stroke-width="0.73"/><polyline points="160.81 181.57 168.63 181.57 168.63 199.47 177.97 199.47" fill="none" stroke="#dae1ff" stroke-miterlimit="10" stroke-width="0.73"/><line x1="177.97" y1="181.46" x2="177.97" y2="192.28" fill="none" stroke="#dae1ff" stroke-miterlimit="10" stroke-width="0.73"/><line x1="122.08" y1="188.17" x2="160.81" y2="188.17" fill="none" stroke="#dae1ff" stroke-miterlimit="10" stroke-width="0.73"/><circle cx="19.48" cy="178.47" r="1.25" fill="#dae1ff"/><circle cx="19.48" cy="199.48" r="1.25" fill="#dae1ff"/><circle cx="177.97" cy="199.48" r="1.25" fill="#dae1ff"/><circle cx="177.97" cy="192.28" r="1.25" fill="#dae1ff"/><circle cx="177.97" cy="181.46" r="1.25" fill="#dae1ff"/><circle cx="30.34" cy="178.36" r="1.25" fill="#dae1ff"/><circle cx="30.34" cy="199.48" r="1.25" fill="#dae1ff"/><circle cx="111.92" cy="188.17" r="1.25" fill="#dae1ff"/><circle cx="71.24" cy="178.47" r="1.25" fill="#dae1ff"/><circle cx="120.75" cy="178.47" r="1.25" fill="#dae1ff"/><circle cx="79.61" cy="169.48" r="1.25" fill="#dae1ff"/><circle cx="149.91" cy="180.32" r="1.25" fill="#dae1ff"/><circle cx="19.48" cy="169.48" r="1.25" fill="#dae1ff"/><circle cx="68.99" cy="169.48" r="1.25" fill="#dae1ff"/><circle cx="40.44" cy="199.48" r="1.25" fill="#dae1ff"/><circle cx="40.44" cy="187.23" r="1.25" fill="#dae1ff"/><circle cx="160.81" cy="196.02" r="1.25" fill="#dae1ff"/><circle cx="160.81" cy="188.17" r="1.25" fill="#dae1ff"/><circle cx="122.08" cy="188.17" r="1.25" fill="#dae1ff"/><circle cx="160.81" cy="181.57" r="1.25" fill="#dae1ff"/><polyline points="213.97 184.13 193.36 184.13 185.35 176.12" fill="none" stroke="#dae1ff" stroke-miterlimit="10" stroke-width="0.73"/><polyline points="185.07 188.28 200.38 188.28 205.4 193.3 221.07 193.3 229.92 184.45 248.33 184.45" fill="none" stroke="#dae1ff" stroke-miterlimit="10" stroke-width="0.73"/><polyline points="206.7 176 168.63 176 168.63 186.91" fill="none" stroke="#dae1ff" stroke-miterlimit="10" stroke-width="0.73"/><polyline points="177.97 192.17 192.87 192.17 200.32 199.62 210.09 199.62" fill="none" stroke="#dae1ff" stroke-miterlimit="10" stroke-width="0.73"/><line x1="216.56" y1="199.48" x2="230.6" y2="199.48" fill="none" stroke="#dae1ff" stroke-miterlimit="10" stroke-width="0.73"/><circle cx="230.6" cy="199.48" r="1.25" fill="#dae1ff"/><circle cx="216.56" cy="199.48" r="1.25" fill="#dae1ff"/><circle cx="232.09" cy="191.29" r="1.25" fill="#dae1ff"/><circle cx="213.97" cy="184.13" r="1.25" fill="#dae1ff"/><circle cx="206.7" cy="176" r="1.25" fill="#dae1ff"/><circle cx="210.09" cy="199.48" r="1.25" fill="#dae1ff"/><circle cx="185.51" cy="188.28" r="1.25" fill="#dae1ff"/><circle cx="248.23" cy="184.45" r="1.25" fill="#dae1ff"/><line x1="232.09" y1="191.29" x2="243.65" y2="191.29" fill="none" stroke="#dae1ff" stroke-miterlimit="10" stroke-width="0.73"/><circle cx="243.65" cy="191.29" r="1.25" fill="#dae1ff"/></g><g style="mix-blend-mode:overlay"><polyline points="177.97 160.26 150.84 160.26 132.44 141.86 85.53 141.86" fill="none" stroke="#dae1ff" stroke-miterlimit="10" stroke-width="0.73"/><polyline points="85.53 141.86 118.84 141.86 123.86 136.83 139.94 136.83 154.76 151.65 204.68 151.65" fill="none" stroke="#dae1ff" stroke-miterlimit="10" stroke-width="0.73"/><line x1="126.21" y1="151.66" x2="76.7" y2="151.66" fill="none" stroke="#dae1ff" stroke-miterlimit="10" stroke-width="0.73"/><polyline points="117.84 160.66 68.33 160.66 57.35 149.67 47.54 149.67" fill="none" stroke="#dae1ff" stroke-miterlimit="10" stroke-width="0.73"/><polyline points="177.97 169.3 189.1 169.3 189.1 158.4 204.14 158.4" fill="none" stroke="#dae1ff" stroke-miterlimit="10" stroke-width="0.73"/><polyline points="128.46 160.66 141.44 160.66 150.09 169.3 177.97 169.3" fill="none" stroke="#dae1ff" stroke-miterlimit="10" stroke-width="0.73"/><polyline points="75.37 128.17 69.67 122.46 19.48 122.46" fill="none" stroke="#dae1ff" stroke-miterlimit="10" stroke-width="0.73"/><line x1="75.74" y1="134.12" x2="37.14" y2="134.12" fill="none" stroke="#dae1ff" stroke-miterlimit="10" stroke-width="0.73"/><polyline points="36.64 149.82 28.82 149.82 28.82 130.66 19.48 130.66" fill="none" stroke="#dae1ff" stroke-miterlimit="10" stroke-width="0.73"/><line x1="19.48" y1="149.77" x2="19.48" y2="137.85" fill="none" stroke="#dae1ff" stroke-miterlimit="10" stroke-width="0.73"/><line x1="75.37" y1="141.97" x2="36.64" y2="141.97" fill="none" stroke="#dae1ff" stroke-miterlimit="10" stroke-width="0.73"/><circle cx="177.97" cy="169.3" r="1.25" fill="#dae1ff"/><circle cx="19.48" cy="130.66" r="1.25" fill="#dae1ff"/><circle cx="19.48" cy="122.46" r="1.25" fill="#dae1ff"/><circle cx="19.48" cy="137.85" r="1.25" fill="#dae1ff"/><circle cx="19.48" cy="149.77" r="1.25" fill="#dae1ff"/><circle cx="177.97" cy="160.26" r="1.25" fill="#dae1ff"/><circle cx="204.75" cy="158.44" r="1.25" fill="#dae1ff"/><circle cx="85.53" cy="141.97" r="1.25" fill="#dae1ff"/><circle cx="126.21" cy="151.66" r="1.25" fill="#dae1ff"/><circle cx="76.7" cy="151.66" r="1.25" fill="#dae1ff"/><circle cx="117.84" cy="160.66" r="1.25" fill="#dae1ff"/><circle cx="47.54" cy="149.82" r="1.25" fill="#dae1ff"/><circle cx="128.46" cy="160.66" r="1.25" fill="#dae1ff"/><circle cx="204.58" cy="151.65" r="1.25" fill="#dae1ff"/><circle cx="36.64" cy="134.12" r="1.25" fill="#dae1ff"/><circle cx="75.37" cy="134.12" r="1.25" fill="#dae1ff"/><circle cx="75.37" cy="128.17" r="1.25" fill="#dae1ff"/><circle cx="36.64" cy="141.97" r="1.25" fill="#dae1ff"/><circle cx="75.37" cy="141.97" r="1.25" fill="#dae1ff"/><line x1="55.05" y1="160.66" x2="19.48" y2="160.66" fill="none" stroke="#dae1ff" stroke-miterlimit="10" stroke-width="0.73"/><circle cx="19.48" cy="160.66" r="1.25" fill="#dae1ff"/><circle cx="55.05" cy="160.66" r="1.25" fill="#dae1ff"/><circle cx="36.64" cy="149.82" r="1.25" fill="#dae1ff"/></g></g><rect x="163.89" y="131.37" width="7.18" height="8.7" transform="translate(334.95 271.44) rotate(180)" fill="#b3b7cb" style="mix-blend-mode:multiply"/><rect x="165.23" y="130.16" width="7.18" height="8.7" transform="translate(337.64 269.01) rotate(180)" fill="#fff"/><line x1="169.71" y1="137.25" x2="167.93" y2="137.25" fill="none" stroke="#b3b7e7" stroke-miterlimit="10" stroke-width="0.73"/><line x1="171.11" y1="135.16" x2="166.53" y2="135.16" fill="none" stroke="#b3b7e7" stroke-miterlimit="10" stroke-width="0.73"/><line x1="171.11" y1="133.53" x2="166.53" y2="133.53" fill="none" stroke="#b3b7e7" stroke-miterlimit="10" stroke-width="0.73"/><line x1="171.11" y1="131.9" x2="166.53" y2="131.9" fill="none" stroke="#b3b7e7" stroke-miterlimit="10" stroke-width="0.73"/><rect x="178.39" y="131.37" width="7.18" height="8.7" transform="translate(363.97 271.44) rotate(180)" fill="#b3b7cb" style="mix-blend-mode:multiply"/><rect x="179.74" y="130.16" width="7.18" height="8.7" transform="translate(366.66 269.01) rotate(180)" fill="#fff"/><line x1="184.22" y1="137.25" x2="182.44" y2="137.25" fill="none" stroke="#b3b7e7" stroke-miterlimit="10" stroke-width="0.73"/><line x1="185.62" y1="135.16" x2="181.04" y2="135.16" fill="none" stroke="#b3b7e7" stroke-miterlimit="10" stroke-width="0.73"/><line x1="185.62" y1="133.53" x2="181.04" y2="133.53" fill="none" stroke="#b3b7e7" stroke-miterlimit="10" stroke-width="0.73"/><line x1="185.62" y1="131.9" x2="181.04" y2="131.9" fill="none" stroke="#b3b7e7" stroke-miterlimit="10" stroke-width="0.73"/><rect x="192.9" y="131.37" width="7.18" height="8.7" transform="translate(392.98 271.44) rotate(180)" fill="#b3b7cb" style="mix-blend-mode:multiply"/><rect x="194.25" y="130.16" width="7.18" height="8.7" transform="translate(395.67 269.01) rotate(180)" fill="#fff"/><line x1="198.72" y1="137.25" x2="196.95" y2="137.25" fill="none" stroke="#b3b7e7" stroke-miterlimit="10" stroke-width="0.73"/><line x1="200.13" y1="135.16" x2="195.54" y2="135.16" fill="none" stroke="#b3b7e7" stroke-miterlimit="10" stroke-width="0.73"/><line x1="200.13" y1="133.53" x2="195.54" y2="133.53" fill="none" stroke="#b3b7e7" stroke-miterlimit="10" stroke-width="0.73"/><line x1="200.13" y1="131.9" x2="195.54" y2="131.9" fill="none" stroke="#b3b7e7" stroke-miterlimit="10" stroke-width="0.73"/><rect x="27.51" y="92.34" width="15.19" height="9.98" fill="#b3b7cb" style="mix-blend-mode:multiply"/><rect x="29.46" y="90.81" width="15.19" height="9.98" fill="#fff"/><g clip-path="url(#m)"><polyline points="34.74 95.47 27.09 102.05 47.26 102.05 39.27 95.48" fill="none" stroke="#dae1ff" stroke-miterlimit="10" stroke-width="0.73"/><polygon points="36.97 97.32 28.08 89.93 46.03 89.93 36.97 97.32" fill="none" stroke="#b3b7e7" stroke-miterlimit="10" stroke-width="0.73"/></g><polygon points="251.55 22.25 18.2 22.25 18.2 54.38 219.42 54.38 251.55 22.25" fill="#ccc" style="mix-blend-mode:multiply"/><g style="mix-blend-mode:color-dodge"><path d="M34.23,37.59v1.17H28.88v8.18h6.44v1.17H27.59V28.51h7.73v1.18H28.88v7.9Z" fill="#fff"/><path d="M44.06,38.06v1.18H39v8.87H37.7V28.51h7.45v1.18H39v8.37Z" fill="#fff"/><path d="M53.74,38.06v1.18H48.68v8.87H47.39V28.51h7.44v1.18H48.68v8.37Z" fill="#fff"/><path d="M58.36,28.51v19.6H57.08V28.51Z" fill="#fff"/><path d="M69.25,33.3v1.63H68V33.22c0-2.1-.81-3.7-3-3.7s-3,1.6-3,3.7V43.41c0,2.1.81,3.67,3,3.67s3-1.57,3-3.67V41.09h1.23v2.24c0,2.82-1.23,5-4.22,5s-4.23-2.13-4.23-5v-10c0-2.83,1.23-4.95,4.23-4.95S69.25,30.47,69.25,33.3Z" fill="#fff"/><path d="M72.92,28.51v19.6H71.64V28.51Z" fill="#fff"/><path d="M82.08,37.59v1.17H76.73v8.18h6.44v1.17H75.44V28.51h7.73v1.18H76.73v7.9Z" fill="#fff"/><path d="M86.73,48.11H85.55V28.51h1.68l5.88,16.55V28.51h1.18v19.6H92.86L86.73,30.64Z" fill="#fff"/><path d="M100.08,48.11V29.69h-4V28.51h9.26v1.18h-4V48.11Z" fill="#fff"/><path d="M111.79,33.3c0-2.85,1.31-4.95,4.28-4.95s4.34,2.1,4.34,4.95v10c0,2.85-1.32,5-4.34,5s-4.28-2.1-4.28-5Zm1.29,10.11c0,2.13.83,3.7,3,3.7s3.05-1.57,3.05-3.7V33.22c0-2.13-.87-3.7-3.05-3.7s-3,1.57-3,3.7Z" fill="#fff"/><path d="M126.88,28.51c3,0,4.2,1.91,4.2,4.77V35.4c0,3.11-1.43,4.65-4.54,4.65h-2.43v8.06h-1.29V28.51Zm-.34,10.37c2.27,0,3.25-1,3.25-3.39v-2.3c0-2.13-.73-3.5-2.91-3.5h-2.77v9.19Z" fill="#fff"/><path d="M139.93,37.59v1.17h-5.35v8.18H141v1.17h-7.73V28.51H141v1.18h-6.44v7.9Z" fill="#fff"/><path d="M147.49,28.51c3,0,4.2,1.66,4.2,4.43v1.71c0,2.29-.9,3.61-2.83,4.06,2,.44,2.83,1.87,2.83,4v3a4.38,4.38,0,0,0,.47,2.35h-1.34a4.52,4.52,0,0,1-.42-2.35V42.68c0-2.6-1.43-3.33-3.67-3.33h-2v8.76H143.4V28.51Zm-.73,9.67c2.29,0,3.64-.65,3.64-3.28V33.05c0-2.1-.81-3.36-2.94-3.36h-2.77v8.49Z" fill="#fff"/><path d="M156.36,43.78l-1,4.33h-1.17l4.28-19.62h1.88l4.36,19.62h-1.28l-1-4.33Zm.2-1.13h5.71L159.39,30Z" fill="#fff"/><path d="M169.21,48.11V29.69h-4V28.51h9.26v1.18h-4V48.11Z" fill="#fff"/><path d="M177.67,28.51v19.6h-1.29V28.51Z" fill="#fff"/><path d="M180.11,33.3c0-2.85,1.31-4.95,4.28-4.95s4.34,2.1,4.34,4.95v10c0,2.85-1.32,5-4.34,5s-4.28-2.1-4.28-5Zm1.28,10.11c0,2.13.84,3.7,3,3.7s3.05-1.57,3.05-3.7V33.22c0-2.13-.87-3.7-3.05-3.7s-3,1.57-3,3.7Z" fill="#fff"/><path d="M192.31,48.11h-1.17V28.51h1.68l5.88,16.55V28.51h1.17v19.6h-1.42l-6.14-17.47Z" fill="#fff"/><path d="M210.62,33.25v.42h-1.23v-.51c0-2.07-.78-3.64-2.91-3.64s-2.91,1.54-2.91,3.61c0,4.77,7.08,4.85,7.08,10.25,0,2.83-1.23,4.9-4.23,4.9s-4.22-2.07-4.22-4.9v-1h1.23v1.09c0,2.1.81,3.61,3,3.61s3-1.51,3-3.61c0-4.71-7.09-4.79-7.09-10.25,0-2.94,1.29-4.84,4.17-4.87S210.62,30.42,210.62,33.25Z" fill="#fff"/></g></g></g></svg>