<svg xmlns="http://www.w3.org/2000/svg" xmlns:xlink="http://www.w3.org/1999/xlink" width="500" height="247.74" viewBox="0 0 500 247.74"><defs><clipPath id="a"><rect width="500" height="247.74" fill="none"/></clipPath><linearGradient id="b" x1="206.76" y1="123.85" x2="418.96" y2="123.85" gradientUnits="userSpaceOnUse"><stop offset="0" stop-color="#989898"/><stop offset="1" stop-color="#ccc"/></linearGradient><linearGradient id="c" x1="279.03" y1="142.33" x2="200.74" y2="64.04" gradientUnits="userSpaceOnUse"><stop offset="0" stop-color="#fff"/><stop offset="1" stop-color="#fff" stop-opacity="0"/></linearGradient><linearGradient id="d" x1="412.77" y1="161.22" x2="-68.03" y2="161.22" gradientUnits="userSpaceOnUse"><stop offset="0" stop-color="#9a9a9a"/><stop offset="1" stop-color="#565656"/></linearGradient><linearGradient id="e" x1="298.87" y1="65.95" x2="332.98" y2="137.92" xlink:href="#c"/><linearGradient id="f" x1="180.68" y1="99.09" x2="80.03" y2="199.75" gradientUnits="userSpaceOnUse"><stop offset="0" stop-color="#818181"/><stop offset="1" stop-color="#1c1c1c"/></linearGradient><clipPath id="g"><rect x="29.46" y="106.42" width="15.19" height="9.98" fill="none"/></clipPath></defs><g style="isolation:isolate"><g clip-path="url(#a)"><polygon points="0 224.25 232.84 224.25 421.08 65.29 498.18 23.46 0 23.46 0 224.25" fill="url(#b)"/><rect x="206.02" y="76.07" width="51.77" height="38.27" fill="url(#c)"/><path d="M223.29,103.48l-6.6-.15-8,.22" fill="none" stroke="#999" stroke-linecap="round" stroke-linejoin="round" stroke-width="0.55"/><path d="M222,101.32l-6.78-.12h-4.94" fill="none" stroke="#999" stroke-linecap="round" stroke-linejoin="round" stroke-width="0.55"/><path d="M218.83,98.88h-7.09" fill="none" stroke="#999" stroke-linecap="round" stroke-linejoin="round" stroke-width="0.55"/><path d="M230.74,101.59a2.86,2.86,0,0,1,2.88-1.11,13.51,13.51,0,0,1,3.09,1.08,4.83,4.83,0,0,0,3.18.39c1.08-.33,1.88-1.26,2.94-1.64a6,6,0,0,1,3.08.2" fill="none" stroke="#999" stroke-linecap="round" stroke-linejoin="round" stroke-width="0.55"/><polyline points="233.47 93.14 236.6 95.26 245.05 95.26" fill="none" stroke="#999" stroke-linecap="round" stroke-linejoin="round" stroke-width="0.55"/><polyline points="232.24 87.58 236.74 82.08 244.41 82.08" fill="none" stroke="#999" stroke-linecap="round" stroke-linejoin="round" stroke-width="0.55"/><polyline points="224.38 89.69 219.94 85.24 213.97 85.24" fill="none" stroke="#999" stroke-linecap="round" stroke-linejoin="round" stroke-width="0.55"/><path d="M207.4,105.73q2.61-4.62,5.66-9" fill="none" stroke="#7d7d7d" stroke-linecap="round" stroke-linejoin="round" stroke-width="0.73"/><path d="M213.23,96.46a51.86,51.86,0,0,0,5.39,9.11" fill="none" stroke="#7d7d7d" stroke-linecap="round" stroke-linejoin="round" stroke-width="0.73"/><path d="M207.83,106l10.8-.32" fill="none" stroke="#7d7d7d" stroke-linecap="round" stroke-linejoin="round" stroke-width="0.73"/><path d="M225.61,84.73a8.61,8.61,0,0,0-3.41,3.51,7,7,0,0,0-.52,5.11,6.61,6.61,0,0,0,5.11,4.32,8.84,8.84,0,0,0,5-.45A4.81,4.81,0,0,0,233.68,96a6.12,6.12,0,0,0,1.19-2.47,8.93,8.93,0,0,0,.33-3,6.72,6.72,0,0,0-3.71-5.4,8,8,0,0,0-6.2-.12" fill="none" stroke="#7d7d7d" stroke-linecap="round" stroke-linejoin="round" stroke-width="0.73"/><path d="M229.08,84.36l-.37,7.51" fill="none" stroke="#7d7d7d" stroke-linecap="round" stroke-linejoin="round" stroke-width="0.73"/><path d="M228.72,92a21,21,0,0,0,6.16-1.46" fill="none" stroke="#7d7d7d" stroke-linecap="round" stroke-linejoin="round" stroke-width="0.73"/><path d="M228.84,92.08q2.21,2,4.55,3.88" fill="none" stroke="#7d7d7d" stroke-linecap="round" stroke-linejoin="round" stroke-width="0.73"/><path d="M230.67,102.25a40.78,40.78,0,0,1,.14,4.82" fill="none" stroke="#7d7d7d" stroke-linecap="round" stroke-linejoin="round" stroke-width="0.73"/><path d="M246,101.89a44.75,44.75,0,0,1,.15,5.18" fill="none" stroke="#7d7d7d" stroke-linecap="round" stroke-linejoin="round" stroke-width="0.73"/><path d="M231.25,107.15H246" fill="none" stroke="#7d7d7d" stroke-linecap="round" stroke-linejoin="round" stroke-width="0.73"/><path d="M233.47,103.21v3.6" fill="none" stroke="#7d7d7d" stroke-linecap="round" stroke-linejoin="round" stroke-width="0.73"/><path d="M235.62,103.55v3.6" fill="none" stroke="#7d7d7d" stroke-linecap="round" stroke-linejoin="round" stroke-width="0.73"/><path d="M237.5,104.24v3" fill="none" stroke="#7d7d7d" stroke-linecap="round" stroke-linejoin="round" stroke-width="0.73"/><path d="M239.65,104.5v2.65" fill="none" stroke="#7d7d7d" stroke-linecap="round" stroke-linejoin="round" stroke-width="0.73"/><path d="M241.71,103.64v3.43" fill="none" stroke="#7d7d7d" stroke-linecap="round" stroke-linejoin="round" stroke-width="0.73"/><path d="M244.19,102.61v4.46" fill="none" stroke="#7d7d7d" stroke-linecap="round" stroke-linejoin="round" stroke-width="0.73"/><polygon points="315.39 156.23 275.89 156.23 275.89 139.49 177.17 139.49 177.17 97.88 -34.23 97.88 -34.23 224.55 234.77 224.55 315.39 156.23" fill="url(#d)"/><rect x="258.81" y="150.17" width="10.84" height="13.14" transform="translate(528.45 313.49) rotate(180)" fill="#494949" opacity="0.5"/><rect x="260.84" y="148.34" width="10.84" height="13.14" transform="translate(532.52 309.82) rotate(180)" fill="#fff"/><line x1="267.6" y1="159.05" x2="264.92" y2="159.05" fill="none" stroke="#999" stroke-miterlimit="10" stroke-width="0.73"/><line x1="269.72" y1="155.9" x2="262.8" y2="155.9" fill="none" stroke="#999" stroke-miterlimit="10" stroke-width="0.73"/><line x1="269.72" y1="153.43" x2="262.8" y2="153.43" fill="none" stroke="#999" stroke-miterlimit="10" stroke-width="0.73"/><line x1="269.72" y1="150.97" x2="262.8" y2="150.97" fill="none" stroke="#999" stroke-miterlimit="10" stroke-width="0.73"/><g opacity="0.5" style="mix-blend-mode:multiply"><line x1="69.42" y1="128.71" x2="69.42" y2="98.18" fill="none" stroke="#999" stroke-miterlimit="10" stroke-width="0.55"/><polyline points="151.59 146.35 159.15 139.52 144.75 123.8 144.75 98.04" fill="none" stroke="#999" stroke-miterlimit="10" stroke-width="0.55"/><line x1="159.37" y1="139.68" x2="211.66" y2="139.68" fill="none" stroke="#999" stroke-miterlimit="10" stroke-width="0.55"/><line x1="206.56" y1="139.94" x2="206.23" y2="159.95" fill="none" stroke="#999" stroke-miterlimit="10" stroke-width="0.55"/><polyline points="265.91 187 254.84 178.39 254.84 139.23" fill="none" stroke="#999" stroke-miterlimit="10" stroke-width="0.55"/></g><polyline points="315.39 156.23 275.89 156.23 275.89 139.49 177.17 139.49 177.17 97.88 -34.23 97.88" fill="none" stroke="#515151" stroke-miterlimit="10" stroke-width="0.73"/><rect x="284.3" y="100.2" width="91.03" height="62.06" fill="url(#e)"/><path d="M347.13,65.11a16.43,16.43,0,0,0-1.83,7.06s1.12-.1,1.11-.26S347.13,65.11,347.13,65.11Z" fill-rule="evenodd"/><polygon points="336.6 98.67 334.33 98.51 335.08 95.9 337.25 96.05 336.6 98.67" fill-rule="evenodd"/><polygon points="346.79 98.67 344.36 98.5 344.67 95.99 347.09 96.17 346.79 98.67" fill-rule="evenodd"/><path d="M336.78,100.23a.71.71,0,0,0,.06-.25l0-1.63-2.32-.22a32.8,32.8,0,0,1-2.87,1.72.65.65,0,0,0-.4.38Z" fill-rule="evenodd"/><path d="M352,88.83h0a1.63,1.63,0,0,1-1.63-1.63V85A1.63,1.63,0,0,1,352,83.41h0A1.64,1.64,0,0,1,353.62,85V87.2A1.64,1.64,0,0,1,352,88.83Z" fill-rule="evenodd"/><path d="M351.91,97.32h0a.67.67,0,0,1-.66-.66V84.49a.66.66,0,0,1,.66-.66h0a.65.65,0,0,1,.66.66V96.66A.66.66,0,0,1,351.91,97.32Z"/><circle cx="351.99" cy="99.5" r="0.85"/><circle cx="356.86" cy="99.5" r="0.85"/><circle cx="347.13" cy="99.5" r="0.85"/><path d="M357.57,97.85H346.43a.53.53,0,0,1-.53-.53h0a.54.54,0,0,1,.53-.54h11.14a.54.54,0,0,1,.54.54h0A.54.54,0,0,1,357.57,97.85Z"/><rect x="343.86" y="81.17" width="16.1" height="3.07" rx="1.49"/><path d="M347.75,74.62s-1.43,4.11-1.33,4.92a5.7,5.7,0,0,0,1,2.56l7-.06a3.24,3.24,0,0,0,3.18-3.8v0c0-.19-.06-.38-.08-.57l-.48-3.56c-2.18,1.42-6.14,2-9.6,1.07Z" fill-rule="evenodd"/><path d="M342,74.91l2.58-2.27,1.95-2.44,1.16,2.74a8.88,8.88,0,0,1-5.27,3.8l-.31-.92Z" fill-rule="evenodd"/><path d="M337.72,97l-3.13-.27c0-.39,2.25-9,3.52-12.56a4,4,0,0,1,2-2.28l7.54-3.74,4.93,4.18-10.37,4.28Z" fill-rule="evenodd"/><path d="M337.72,97l-1.27-.11c.3-2.5,2.25-4.73,3.13-6,1.11-1.58.43-4.2.9-5.52a4.52,4.52,0,0,1,.95-1.34,8.39,8.39,0,0,1,3.75-2.24,14.57,14.57,0,0,0,4.26-2.17l3.16,2.68-10.37,4.28Z" fill-rule="evenodd"/><path d="M346.82,100.23a.54.54,0,0,0,.06-.25l0-1.63-2.57,0a27.74,27.74,0,0,1-2.61,1.55.65.65,0,0,0-.41.38Z" fill-rule="evenodd"/><path d="M349.63,56.82a1.35,1.35,0,0,0-.36,2.3c1.3,1.54.36-2.3.36-2.3Z" fill-rule="evenodd"/><path d="M355.25,64.1a1.69,1.69,0,0,0-.94-1.39,3.07,3.07,0,0,0-2.07-.19,15.19,15.19,0,0,0-2.44.71l-.69,2.28,2.3,1.1,4.54-3.4Z" fill-rule="evenodd"/><path d="M349.32,58.14a2.06,2.06,0,0,1,.69-1.43,2,2,0,0,1,1.52-.49h0a2,2,0,0,1,1.83,2.1c0,.62-.05,1.29-.08,1.88a1.4,1.4,0,0,1-.49,1,1.44,1.44,0,0,1-1.09.35l-1.11-.11a1.49,1.49,0,0,1-1.34-1.54c0-.54.05-1.18.07-1.78Z" fill-rule="evenodd"/><polygon points="354.36 63.88 352.91 60.13 350.28 61.3 351.01 64.92 354.36 63.88 354.36 63.88" fill-rule="evenodd"/><path d="M352.2,57.91s-.26,1.84,1.18,1.88a11.72,11.72,0,0,0,.82-2.51c.16-1.58-3-1.9-4.29-1.23s-.5,1.89,2.29,1.86Z" fill-rule="evenodd"/><path d="M350.47,63.21c.83,1.32,2.83.12,3.16-.34.05-.08.93.46,1.05.55,1.75,1.26,2,6.7,2.3,8.66.14.91,1,4,.53,4.77-.15.27-1.52.06-1.79.11-1.15.22-6.29.63-7-.19s-.18-2.33-.31-3.3a24.11,24.11,0,0,1,.65-9.48Z" fill-rule="evenodd"/><path d="M349,70.85c.9,2.78,7.55-.2,6.79-1.53-1-1.86.47,1.28.75,3.24.13.91.86,4,.47,4.77-.13.27-.65,2.4-.9,2.41-3.26.13-8.26.35-8.49-.72-.32-1.51,1.14-4.1,1.25-5.07A11.63,11.63,0,0,0,349,70.85Z" fill-rule="evenodd"/><path d="M353.35,59c-.26-.07-.54.15-.63.49a.57.57,0,0,0,.32.72.56.56,0,0,0,.63-.48.57.57,0,0,0-.32-.73Z" fill-rule="evenodd"/><path d="M349.25,59.92c-.1-.16-.49,2.48,1.1,2.61s2.26-.51,2.36-3.55c0,0-.63,1.85-1.56,1.88-1.94.06-1.79-.74-1.9-.94Z" fill-rule="evenodd"/><path d="M350,61.38a1.23,1.23,0,0,0,.82,0" stroke="#9c4345" stroke-linecap="round" stroke-linejoin="round" stroke-width="0.55"/><path d="M343.63,97.59l3.53-.1,1.21-11.61,7.54-4.2-.8-1.22-5.38-.39-4,1.89a3.42,3.42,0,0,0-1.94,3.11Z" fill-rule="evenodd"/><path d="M349.8,63.23a56,56,0,0,0-1,7.94,63.92,63.92,0,0,1-1.36,9.06c-.48-.89-2.18-.62-2.33-1.43,0,0,1.49-9.82,1.75-12.39S348.09,63.91,349.8,63.23Z" fill-rule="evenodd"/><path d="M346.86,75.56s-.89-.61-1.46-.32a10.64,10.64,0,0,0-1.12.38,3.64,3.64,0,0,0-.93.92.75.75,0,0,0,.56.74c.2,0,.8-.49.8-.49a3.48,3.48,0,0,0,1.93,0Z" fill-rule="evenodd"/><path d="M342.72,75.51s-.84-.68-1.43-.42a10.72,10.72,0,0,0-1.15.29,3.76,3.76,0,0,0-1,.85.75.75,0,0,0,.5.78c.2,0,.84-.43.84-.43a3.48,3.48,0,0,0,1.91.16Z" fill-rule="evenodd"/><polygon points="346.86 75.56 349.69 75.35 349.8 76.85 346.26 76.66 346.86 75.56" fill-rule="evenodd"/><rect x="338.7" y="76.4" width="9.24" height="0.59"/><path d="M359.39,73.25a37.75,37.75,0,0,0-.4-4.68,9.12,9.12,0,0,0-1.39-4.24,4.79,4.79,0,0,0-2-1.2l-1.34-.42a36.53,36.53,0,0,0-1,11.25l-4.49.89V77h6.93l1.38-.45,1.31-.73A3.68,3.68,0,0,0,359.39,73.25Z" fill-rule="evenodd"/><path d="M341.49,77h-10.6l-3.2-7.13h10.36a.38.38,0,0,1,.34.22Z" fill-rule="evenodd"/><path d="M340.64,77H330L327,70.19a.23.23,0,0,1,.21-.33h10.09a.23.23,0,0,1,.21.14Z" fill-rule="evenodd"/><path d="M353.17,72.37s-.09,3.79-1,5.53a21.46,21.46,0,0,1-2.4,2.83s7.74.76,8-2.36a61.71,61.71,0,0,1,1-6.77Z" fill-rule="evenodd"/><path d="M334.12,73.47c.13.44-.21.8-.76.8a1.3,1.3,0,0,1-1.23-.8c-.13-.45.22-.81.77-.81A1.28,1.28,0,0,1,334.12,73.47Z" fill-rule="evenodd"/><path d="M359.39,73.25a37.75,37.75,0,0,0-.4-4.68,9.12,9.12,0,0,0-1.39-4.24,4.79,4.79,0,0,0-2-1.2l-1.34-.42c5.15,2.63,3.48,8.28,3.84,12.06-.83.44-1.22.3-3.15.69a26.86,26.86,0,0,1-3.58,1,5,5,0,0,0-2.62-.1V77h6.93l1.38-.45,1.31-.73A3.68,3.68,0,0,0,359.39,73.25Z" fill-rule="evenodd"/><path d="M360.61,78.1H322.38a.56.56,0,0,1-.56-.56h0a.56.56,0,0,1,.56-.55h38.23a.56.56,0,0,1,.56.55h0A.56.56,0,0,1,360.61,78.1Z" fill-rule="evenodd"/><path d="M298,70.79a22.41,22.41,0,0,0,1.95-4.2c0,.31-1.13.8,1.45.42,0,0,3.5,5.75,2.31,14.81-.26,1.94-.08,6.75-.24,8.56s-.48,7.18-.51,7.19a3.07,3.07,0,0,0,.19,1.29,1.49,1.49,0,0,0,.53.45c.44.25.87.48.34.75s-2.59.07-2.59-.21,0-.56,0-.8a9.08,9.08,0,0,0-.12-1.33,49.94,49.94,0,0,1-1.2-9.29c-.08-4.53-.84-4.06-1-6.11C298.66,74.81,297.14,72.4,298,70.79Z"/><path d="M303.72,99.31a5.47,5.47,0,0,1-2.26-.26l-.18,1.24h4.14c.53-.27,0-.44,0-.44Z"/><path d="M295.52,99.36v-.51a8.12,8.12,0,0,0-.09-1.35,53.94,53.94,0,0,1-.92-9.48,42.09,42.09,0,0,0-.27-5.94c-.19-4.5-.16-9.18.64-11.83a17.93,17.93,0,0,0,.88-4.76s.8,1.59,4.37,1.54c0,0-1.18,13-1.27,14.88s-.85,6.72-1.06,8.52-.95,7-.56,8.46c0,.14.25.32.52.52a5,5,0,0,0,.48.31"/><path d="M296.3,99.46c.11-2.31.45-9.41.64-11.94.23-3,.2-5.42.2-5.42l-2.9,0v0a42.09,42.09,0,0,1,.27,5.94,53.94,53.94,0,0,0,.92,9.48,8.12,8.12,0,0,1,.09,1.35v.51Z"/><path d="M299.65,100.35c.53-.2,0-.44,0-.44a173.09,173.09,0,0,0-4.14-1.06c0,.24,0,1.16,0,1.45Z"/><path d="M294,82.84h10.35c.1-2.6.56-7.22-2.4-15.9h-6.66C292.62,70.92,294,82.84,294,82.84Z"/><path d="M297.5,73.47c.07-3.76,1.88-5,2.16-6.46l-.06-.07h-4.27c-2.71,4-1.29,15.9-1.29,15.9h3.12C297.24,81.24,297.46,76.55,297.5,73.47Z"/><polygon points="299.66 54.63 301.62 55.51 303.4 51.66 301.48 50.7 299.66 54.63"/><path d="M304.27,59.17l3.66,1.55a1.13,1.13,0,0,0,1.27-.18h0a1.13,1.13,0,0,0-.16-1.8l-6.27-3.29Z"/><path d="M308.48,52.82l-.89.49s-.24,5.45-.24,6.32,1,1,1,1a1.1,1.1,0,0,0,1.12-1.21Z"/><path d="M302.34,53.88s2.08,4.82,2,5.91l-1.41,3L302,65.25c.26.9.68,1.75-.08,1.84h-6.6c.39-8,1.82-12.8,5-14C300.78,52.94,301.44,53.41,302.34,53.88Z"/><polygon points="300.09 56.82 295.45 65.16 295.88 60.08 300.09 56.82"/><path d="M302.66,54.66l-.72,4.3C300,61.5,299.66,67,299.66,67h0l2.27.08c.76-.09.34-.94.08-1.84l.88-2.44,1.41-3C304.39,59,303.24,56.07,302.66,54.66Z"/><path d="M295.71,68l.44,1.2a1,1,0,0,1,0,.74l-.61,1.67-.56-.49-.48-1.53a1.57,1.57,0,0,1,.08-1.1l.25-.6Z"/><path d="M294.61,63.25c.44,1.89.57,2.91,1.05,4.8l-.78.66c-1.54-3.64-2.62-4.77-2.45-6.44C294.74,60.48,292.38,61.79,294.61,63.25Z"/><path d="M308.48,52.82l-1-.78a1,1,0,0,0-.71-.22l-1,0a.52.52,0,0,0-.45.72h0l1.33.91a1.66,1.66,0,0,0,1.07.26l.65-.07Z"/><path d="M301.05,48.78c.38-1.64.51-1.91,2-2.14s.48.39,2,.78c.89.23.87,1.06.68,2.1a1.47,1.47,0,0,0,.4,1.12c.08.25-.34.42-.47.52s-.23,1.19-.61,1.34a10,10,0,0,1-1.91,0c-1.64-.92-1-4.24-1-4.24C302,47.69,300.94,49.21,301.05,48.78Z"/><circle cx="299.1" cy="47.88" r="1.64" stroke="#000" stroke-miterlimit="10" stroke-width="0.37"/><circle cx="299.9" cy="47.74" r="1.3" stroke="#000" stroke-miterlimit="10" stroke-width="0.37"/><circle cx="299.82" cy="47.09" r="1.3" stroke="#000" stroke-miterlimit="10" stroke-width="0.37"/><circle cx="299.1" cy="48.95" r="1.3" stroke="#000" stroke-miterlimit="10" stroke-width="0.37"/><circle cx="299.66" cy="48.11" r="1.56"/><path d="M303,46s-3.2-.22-2.52,3.72a3.41,3.41,0,0,0,.51,1.33.94.94,0,0,0,.88.43.78.78,0,0,0,.58-.23c1-1.37.82-1,1.66-3.37l1.19-.46.23-.33Z"/><path d="M302.94,50.48s-.64-2.37.21-3l2.36-.42A4.57,4.57,0,0,1,302.94,50.48Z"/><polygon points="303 54.05 300.22 52.39 299.53 53.16 303.34 55.39 303 54.05"/><path d="M292.35,62.29a2.2,2.2,0,0,0,2.33,1.25L299.23,58a2.57,2.57,0,0,0,.95-1.64c0-.77-.68-1.51-2.08-.7C296.89,56.34,293.76,60.14,292.35,62.29Z"/><path d="M303.31,50c.11.53-.1,1-.46,1s-.73-.35-.83-.87.1-1,.45-1S303.21,49.52,303.31,50Z"/><rect x="319.71" y="50.81" width="22.13" height="15.25" fill="#999"/><rect x="322.03" y="48.75" width="22.13" height="15.25" fill="#fff"/><path d="M324.55,60.41c4.4,0,11.26-3,15.45-8" fill="none" stroke="#999" stroke-linecap="round" stroke-linejoin="round" stroke-width="0.73"/><path d="M337.26,53.27l3-1a24.4,24.4,0,0,1-.92,2.65" fill="none" stroke="#999" stroke-linecap="round" stroke-linejoin="round" stroke-width="0.73"/><line x1="341.83" y1="61.65" x2="341.83" y2="50.81" fill="none" stroke="#dae1ff" stroke-miterlimit="10" stroke-width="0.73"/><polyline points="324.37 49.62 324.37 61.65 342.64 61.65" fill="none" stroke="#999" stroke-miterlimit="10" stroke-width="0.73"/><path d="M322,57.12h6.15a6.36,6.36,0,0,0,6.41-6.31,6.15,6.15,0,0,0-.36-2.06H322Z" fill="#e8e8e8" style="mix-blend-mode:multiply"/><path d="M327.59,55.26a6.31,6.31,0,1,0,0-12.62h-8.95a6.31,6.31,0,1,0,0,12.62Z" fill="#fff"/><line x1="327.75" y1="51.33" x2="316.52" y2="51.33" fill="none" stroke="#999" stroke-miterlimit="10" stroke-width="0.73"/><line x1="330.9" y1="48.95" x2="316.52" y2="48.95" fill="none" stroke="#999" stroke-miterlimit="10" stroke-width="0.73"/><line x1="328.95" y1="46.57" x2="316.52" y2="46.57" fill="none" stroke="#999" stroke-miterlimit="10" stroke-width="0.73"/><path d="M314,51.49s-1.3,3.17-4,4c0,0,4.66,1,7.07-2.68" fill="#fff"/><polygon points="271.73 192.96 211.6 192.96 211.6 160.14 151.59 160.14 151.59 146.26 86.35 146.26 69.48 129.09 -34.23 129.09 -34.23 224.55 234.77 224.55 271.73 192.96" fill="url(#f)"/><polyline points="-34.23 224.31 234.77 224.31 423.01 65.35" fill="none" stroke="#fff" stroke-miterlimit="10" stroke-width="2.2"/><path d="M101.12,137.81h0a1.64,1.64,0,0,1-1.63-1.63V134a1.64,1.64,0,0,1,1.63-1.64h0a1.64,1.64,0,0,1,1.63,1.64v2.16A1.64,1.64,0,0,1,101.12,137.81Z" fill-rule="evenodd"/><path d="M101.05,142.84h0a.65.65,0,0,1-.66-.66V130a.66.66,0,0,1,.66-.67h0a.67.67,0,0,1,.66.67v12.16A.66.66,0,0,1,101.05,142.84Z"/><circle cx="101.14" cy="144.9" r="0.85"/><circle cx="106.01" cy="144.9" r="0.85"/><circle cx="96.28" cy="144.9" r="0.85"/><path d="M106.71,143.38H95.57a.54.54,0,0,1-.53-.54h0a.53.53,0,0,1,.53-.53h11.14a.54.54,0,0,1,.54.53h0A.54.54,0,0,1,106.71,143.38Z"/><path d="M93.46,130.88l-2.58-9.37H89.61l2.78,10.09A1.67,1.67,0,0,0,94,132.82h5.28v-1.27H94.34A.91.91,0,0,1,93.46,130.88Z"/><path d="M96,134h11a1.85,1.85,0,0,0,1.85-1.86h0a1.85,1.85,0,0,0-1.85-1.85H96a1.85,1.85,0,0,0-1.86,1.85h0A1.86,1.86,0,0,0,96,134Z"/><path d="M89.32,119.53h1a1.19,1.19,0,0,1,1.19,1.19v3.41a1.19,1.19,0,0,1-1.19,1.19h-1a0,0,0,0,1,0,0v-5.78A0,0,0,0,1,89.32,119.53Z" transform="translate(210.06 216.49) rotate(164.63)"/><path d="M89.08,114.41l3.79,13.53a1.62,1.62,0,0,0,2,1.12h0a1.61,1.61,0,0,0,1.12-2l-3.8-13.53a1.61,1.61,0,0,0-2-1.12h0A1.61,1.61,0,0,0,89.08,114.41Z"/><path d="M116.48,143.43l1.73.07L112,127.72l-12.74-1.14.91,2.36c10.49.52,10.18,2,10.18,2C110.06,134.75,112.57,137.59,116.48,143.43Z"/><path d="M109.49,143.53l1.34,0,1-11.76c.81-6.41-2.2-4-12.38-4.56v1.49c10.4.53,9.69,2.63,9.69,2.63C108.19,135.17,108.93,136.55,109.49,143.53Z"/><path d="M99,131.25l10.3.51,2.66-4.09-11.68-3.61c-1.18,0-2.48-.6-2.48.9l-.74,3.58C97.08,130,97.85,131.25,99,131.25Z"/><path d="M100,130.46c-1.63-.1-1.76-2.22-.84-5.4l.36-1.07c-.87-.1-1.61-.16-1.61,1l-.74,3.58a2.1,2.1,0,0,0,1.94,2.71l10.29.51.25-.37Z"/><path d="M113.74,120.9l1.27-.15a1.09,1.09,0,0,1,.72.17l1.47,1-.6.44-1.61.1a1.58,1.58,0,0,1-1-.34l-.53-.39Z"/><path d="M108.84,120.83c1.94,0,3,.14,4.91.12l.46.91c-3.9.64-5.25,1.42-6.84.86C106.18,120.05,106.9,122.66,108.84,120.83Z"/><path d="M104,104.34s3.51-1.06,3,2.26a7,7,0,0,1-2.14,4.27l-1.49-6.11Z"/><polygon points="101.84 112.77 103.8 113.66 105.58 109.81 103.66 108.84 101.84 112.77"/><path d="M102.44,107.48c0-1.68.07-2,1.44-2.53s.56.27,2.11.32c.92,0,1.09.83,1.14,1.88a1.5,1.5,0,0,0,.64,1c.13.23-.24.49-.33.62s0,1.2-.3,1.43a9.63,9.63,0,0,1-1.86.44c-1.8-.53-1.92-3.91-1.92-3.91C103.16,106.2,102.44,107.93,102.44,107.48Z"/><path d="M103.7,104.34s-3.17.51-1.62,4.2a3.45,3.45,0,0,0,.8,1.17,1,1,0,0,0,1,.23.79.79,0,0,0,.51-.36c.7-1.57.57-1.2.86-3.66l1.06-.71-1.18-.87Z"/><path d="M104.67,108.72s-1.16-2.17-.47-3l2.21-.94A4.62,4.62,0,0,1,104.67,108.72Z"/><path d="M104.52,112l1.83,3.31a5.54,5.54,0,0,1,.87,3.48L105.07,121l-.88,2.45c.26.89.68,1.75-.08,1.84L97.63,125c.39-8,1.7-12.58,4.87-13.75C103,111.09,103.62,111.55,104.52,112Z"/><polygon points="105.18 112.19 102.4 110.54 101.71 111.3 105.52 113.54 105.18 112.19"/><path d="M107.38,122.81a2.23,2.23,0,0,0,1.76-2l-4.32-5.74c-.31-.51-.79-1.2-1.37-1.31-.76-.15-1.62.31-1.17,1.86C102.67,117,105.62,120.93,107.38,122.81Z"/><path d="M118.21,143.31l1.54,1c.31.24,1.81.49,1.86.65h0a.68.68,0,0,1-.75.78l-.84,0-3.08-.17s-1-.17-.46-2.15Z" fill-rule="evenodd"/><path d="M111.23,143.31l1.53,1c.31.24,1.81.49,1.86.65h0a.68.68,0,0,1-.75.78l-.84,0-3.08-.17s-1-.17-.45-2.15Z" fill-rule="evenodd"/><path d="M124.24,124.07H111a.55.55,0,0,1-.56-.55h0A.56.56,0,0,1,111,123h13.21a.56.56,0,0,1,.56.55h0A.55.55,0,0,1,124.24,124.07Z" fill-rule="evenodd"/><path d="M105.49,108.19c.11.52-.1,1-.46,1s-.73-.34-.83-.87.1-1,.45-1S105.38,107.66,105.49,108.19Z"/><path d="M102.56,105.6s-3.09-1.09-3.55,2.76c-.38,3.17,1.06,4.38.46,5.66a.44.44,0,0,0,.53.59c1.19-.37,2.79-1.18,2.68-2.93-.19-2.75-.13-4.67,0-4.72S102.56,105.6,102.56,105.6Z"/><path d="M103.79,118.28c-1.91,2.55-2,6.88-2,6.88l2.27.08c.76-.09.34-.95.08-1.84l.37-1,.51-1.42.45-.44Z"/><path d="M113.82,122.91h7.5V122h-8.38A.88.88,0,0,0,113.82,122.91Z"/><rect x="118.23" y="118.33" width="8.89" height="0.88" rx="0.4" transform="translate(279.38 50.97) rotate(112.53)"/><path d="M109.5,143.43s1.84,1.84,3.35.91L110.72,143Z" fill-rule="evenodd"/><path d="M116.47,143.43s1.85,1.84,3.35.91L117.7,143Z" fill-rule="evenodd"/><polyline points="158.53 146.18 135.33 122.63 128.56 122.63" fill="none" stroke="#fff" stroke-miterlimit="10" stroke-width="0.73"/><polygon points="157.27 147.12 159.49 144.93 159.47 147.13 157.27 147.12" fill="#fff"/><polygon points="128.77 124.19 128.77 121.08 127.22 122.63 128.77 124.19" fill="#fff"/><line x1="82.93" y1="113.04" x2="52.04" y2="113.04" fill="none" stroke="#fff" stroke-miterlimit="10" stroke-width="0.73"/><polygon points="82.72 114.6 82.72 111.49 84.28 113.05 82.72 114.6" fill="#fff"/><polygon points="52.25 114.6 52.25 111.49 50.7 113.05 52.25 114.6" fill="#fff"/><polyline points="258.07 156.97 248.08 156.91 248.08 146.02 210.86 146.02" fill="none" stroke="#fff" stroke-miterlimit="10" stroke-width="0.73"/><polygon points="257.85 158.53 257.87 155.42 259.41 156.98 257.85 158.53" fill="#fff"/><polygon points="211.07 147.57 211.07 144.46 209.51 146.02 211.07 147.57" fill="#fff"/><path d="M208,96a1.72,1.72,0,0,1-1.9.48A17.41,17.41,0,0,1,201,93l-.22-.2s-1.62-3.18.12-5.73a.26.26,0,0,1,.37-.06c.15.12.39.32.73.63.79.71,2.13,2,4.18,4.22,0,0,1.17-4.79,1.74-6.87.07-.25.13-.46.18-.62l1.82.42s0,.23,0,.63C210.07,87.42,210.15,93.46,208,96Z"/><path d="M208.12,84.41s1.07.94,1.82.42a4.49,4.49,0,0,1,.4-1.41,9.74,9.74,0,0,0,1.11-2.68,1.11,1.11,0,0,0-.08-.31.85.85,0,0,0-.13-.22,1,1,0,0,0-.26-.27.46.46,0,0,0-.17-.09.94.94,0,0,0-.31-.09l-.2,0h-.07a.35.35,0,0,0-.31.21,9.12,9.12,0,0,1-1.07,1.79s.19-1-.07-1.26l-.23,0a9.17,9.17,0,0,1-.45,1.87A3.19,3.19,0,0,0,208.12,84.41Z"/><path d="M209.36,81.61s0,0,0,0a4.54,4.54,0,0,0,1.13-1.86l-.2,0A6.7,6.7,0,0,1,209.36,81.61Z"/><path d="M209.81,81.88s0,0,0,0a4.72,4.72,0,0,0,1.15-2,.46.46,0,0,0-.17-.09A7,7,0,0,1,209.81,81.88Z"/><path d="M210.26,82.17s0,0,0,0a5,5,0,0,0,1.09-1.76.85.85,0,0,0-.13-.22A7.06,7.06,0,0,1,210.26,82.17Z"/><path d="M208.89,81.9c.3.2.31.82.2,1.12,0,0-.08,0-.08,0a3.84,3.84,0,0,0,0-.59,3.25,3.25,0,0,1-.12-.52S208.88,81.89,208.89,81.9Z"/><path d="M197.9,81.51s.07-3.17-.75-3.59c-2-1-5.91.49-5.41,2.63s.68,1.54.68,1.54S197.74,81.79,197.9,81.51Z"/><path d="M197.45,81.09a.61.61,0,0,1,1,0c.49.59-.34,1.72-1,1.77A14.75,14.75,0,0,1,197.45,81.09Z"/><path d="M200.49,99.49a21,21,0,0,1-9.32,0s-.78-4.31-1-5.56a30.75,30.75,0,0,0-1.87-6,.23.23,0,0,1,.1-.29,9.56,9.56,0,0,1,3.38-1.15,10.67,10.67,0,0,1,1.32-.11s0-.3,0-.74,0-.66,0-1a13.37,13.37,0,0,0-.15-1.48,4.55,4.55,0,0,0,3.68.9l.14,1.58v0l.07.65s.79,0,1.71.07a6.55,6.55,0,0,1,2.6.57C203.17,88.24,200.49,99.49,200.49,99.49Z"/><path d="M197.34,79.39a3.4,3.4,0,0,1,.38,1.94c.08,2.54-.68,3.34-2,3.48s-2.66-.36-2.94-2.72c-.14-1.18-.29-2.27.14-2.78C193.58,78.55,196.34,78.35,197.34,79.39Z"/><path d="M193,81.75s-.4-1-1-.5.24,2.15,1.2,2C193.16,83.29,193.29,82.11,193,81.75Z"/><path d="M185.73,109.69a12.79,12.79,0,0,1,0,1.4,10.09,10.09,0,0,0,.21,3,1.66,1.66,0,0,0,.21.17l.07,0a1.37,1.37,0,0,0,.5.2h.05a1.43,1.43,0,0,0,.5,0h.05a2.37,2.37,0,0,0,.45-.15A10.75,10.75,0,0,1,188,112s.27,1,.6,1.12l.22-.07s-.16-1.15-.19-1.67a3.24,3.24,0,0,0-1.09-2.11S186.19,108.9,185.73,109.69Z"/><path d="M190.32,92.18c-.17.52-.38,1.19-.6,1.95-.74,2.44-1.67,5.68-1.83,6.68s-.15,5.94-.13,7.92c0,.52,0,.84,0,.84a1.79,1.79,0,0,1-2,.77s-.09-.41-.21-1.08a43,43,0,0,1-.93-8.49,65.91,65.91,0,0,1,2-9.12,15.86,15.86,0,0,1,1.28-3.55,1.69,1.69,0,0,1,1.24-.72C191,87.25,190.92,90.29,190.32,92.18Z"/><path d="M192.25,81.73a1.4,1.4,0,0,1,.66.61s0,.07-.07,0a2.62,2.62,0,0,1-.22-.25.55.55,0,0,1-.19.15.06.06,0,0,1-.07-.1.41.41,0,0,1,.15-.14,2.37,2.37,0,0,1-.3-.23S192.21,81.73,192.25,81.73Z"/><path d="M187.31,114.48h.05a18.17,18.17,0,0,1,0-2.33s0,0,0,0A5.64,5.64,0,0,0,187.31,114.48Z"/><path d="M186.76,114.49h.05a18.32,18.32,0,0,1,.05-2.34s0,0,0,0A5.54,5.54,0,0,0,186.76,114.49Z"/><path d="M186.19,114.25l.07,0a18,18,0,0,1,.05-2.2s0,0,0,0A5.48,5.48,0,0,0,186.19,114.25Z"/><polygon points="191.32 138.2 193.56 138.25 193.61 134 191.47 133.94 191.32 138.2" fill-rule="evenodd"/><polygon points="193.49 137.79 191.15 137.54 191 139.28 196.51 139.28 196.51 138.68 193.49 137.79" fill-rule="evenodd"/><polygon points="199.43 138.2 201.67 138.25 202.44 133.78 200.3 133.72 199.43 138.2" fill-rule="evenodd"/><polygon points="201.6 137.79 199.25 137.54 199.1 139.28 204.62 139.28 204.62 138.68 201.6 137.79" fill-rule="evenodd"/><path d="M194,137.09l2.33-26,3.51,12.43a1.41,1.41,0,0,1,0,.46l-1.11,13.09h3.49l2.13-13.5a1.45,1.45,0,0,0,0-.36l-2.51-19.4s-4.52.44-12.09,4l1.09,29.21Z"/><path d="M210,85.46c-1.53.25-2-.43-2-.43a40.54,40.54,0,0,0-1.82,6.55l-1.06-1.35s-3-3.26-4.09-3.65a18.14,18.14,0,0,0-4.17-.3l-.07-.65v0a2.25,2.25,0,0,0-1.64.73,4.75,4.75,0,0,0-2-.71c0,.44,0,.74,0,.74-.26,0-4.93,0-5.9,2.35a31.1,31.1,0,0,0-1.49,5s-1.74,5.84-1.49,7.92,1.29,7.92,1.29,7.92a2.22,2.22,0,0,0,2.23-.77l.54-7.49,1.89-7.31c0,.08.18,8.31-.39,13.95a.13.13,0,0,0,.07.11c.26.35,1.35,1.42,5.43,2.15l1-2,1.09,2s3.5-1.34,4.58-3.39a.55.55,0,0,0,.19-.42c-.8-9.77-.48-12.52-.48-12.52l1.62,1.45c.18.18.36.33.53.47l.06,0a0,0,0,0,1,0,0,3.48,3.48,0,0,0,3,.77s2-.07,2.88-4A18.84,18.84,0,0,0,210,85.46Z"/><path d="M189.59,107.18l.6-13.25a26.28,26.28,0,0,0,.85-7.42l1.17-.09.36,0,3.7,8.42,1.63-8.54a2.6,2.6,0,0,1,.77,0,3.52,3.52,0,0,1,.52.09l2.52,7.5.74,13.37Z"/><path d="M192.57,86.39l3.7,8.42-3.33-3.23.74-1.1-1.22-.15s-.21-3.08-.25-3.91Z"/><path d="M198,90.23l.78,1-2.49,3.62,1.63-8.54a1.39,1.39,0,0,1,.55-.07l.56,3.92Z"/><path d="M197.2,96.27a.26.26,0,0,0,0,.51A.26.26,0,0,0,197.2,96.27Z"/><path d="M197.35,99.2a.24.24,0,0,0,0,.48A.24.24,0,0,0,197.35,99.2Z"/><path d="M197.39,102a.29.29,0,0,0,0,.57A.29.29,0,0,0,197.39,102Z"/><path d="M262.14,91.74s-6.87,2.33-7.39,5c-.6,3.06,6.31,1.46,7.5-1.1C263.28,93.39,263.67,91.65,262.14,91.74Z"/><path d="M253.69,88.78a13.88,13.88,0,0,0-1.61.07,5.28,5.28,0,0,1-2.67-.93,1.28,1.28,0,0,1,0-.42v0a1.54,1.54,0,0,1,.17-.34,8.44,8.44,0,0,0,1.79.05s-.78-.31-.81-.57l.07-.16s.88.23,1.28.3a6.7,6.7,0,0,1,1.67.52S254.35,88.49,253.69,88.78Z"/><path d="M254.28,96.69c.5,2.27,3.59,1.47,2.69-1.16-1.12-3.27-3.23-8-3.23-8l-1.06,1.16C252.48,88.26,253,90.9,254.28,96.69Z"/><path d="M268.36,95.91c-.54-.39-.61-2-1-2.59a10.89,10.89,0,0,1-.94-1.21,5.41,5.41,0,0,1-.32-2.89,4.06,4.06,0,0,0-.78-3.11c-.44-.44-.83-.61-1.24-1.07-1-1.09.79-2.8,2.1-2.87a5.53,5.53,0,0,1,2.39.33,2.85,2.85,0,0,1,1.67,1.64,13.44,13.44,0,0,0,.45,2c.19.39.53.68.75,1a2,2,0,0,1,.22,1.51,7.8,7.8,0,0,0-.36,1.13c-.09.82.91,1,1.23,1.72a7.13,7.13,0,0,1,.25,2.3c-.09.76-.41,1.08-1.23,1a2.68,2.68,0,0,0-1.29,0,2.13,2.13,0,0,0-.73.57,1.79,1.79,0,0,1-.76.52A.45.45,0,0,1,268.36,95.91Z"/><path d="M271.37,91.67s5.47,4,8.06,9.35a1,1,0,0,1-.12,1c-.59.74-1.72,1.11-6.79,2.82-.32.11-.25,1.15-.34,2a.45.45,0,0,1-.9,0l-.31-2.23a23.68,23.68,0,0,1,5.76-3.6s-3.5-2.87-6.45-5C268.83,94.94,269.79,90.92,271.37,91.67Z"/><path d="M271.07,138.15c0-.2,0-.38,0-.55a12.59,12.59,0,0,1,0-1.47,63,63,0,0,0,.63-10.3,51.54,51.54,0,0,1,.08-6.46c.06-4.89.17-10.12-.71-13a14.67,14.67,0,0,1-.8-5.22s-1.27,1.92-4.85,1.87c0,0-.18,5.4,1.14,6,0,0,.45,8.06.6,10.16s1.06,7.31,1.33,9.26,1.16,7.58.83,9.2a1.53,1.53,0,0,1-.51.56,4.37,4.37,0,0,1-.47.34"/><path d="M267,139.23c-.54-.23,0-.48,0-.48a5.05,5.05,0,0,0,1.89-.55,5.16,5.16,0,0,0,2.22-.6c0,.26,0,1.26,0,1.58Z"/><path d="M265.59,102.25a1.31,1.31,0,0,0,0,.23A.56.56,0,0,0,265.59,102.25Z"/><path d="M267.11,107.09a23.41,23.41,0,0,1-1.49-4.56c0,.34-.44.87-3,.46,0,0-2.65,6.25-2.44,16.1,0,2.11-.66,7.34-.7,9.31s-.31,7.8-.28,7.81a4,4,0,0,1-.32,1.4,2,2,0,0,1-.59.48c-.47.28-.92.53-.42.83s2.59.06,2.61-.24.06-.61.1-.86a9.21,9.21,0,0,1,.27-1.45,63.86,63.86,0,0,0,2.21-10.1c.58-4.93,1.29-4.41,1.65-6.64C266.05,111.46,267.83,108.85,267.11,107.09Z"/><path d="M258.31,138.09a5,5,0,0,0,2.29-.27l0,1.34H256.5c-.5-.29.05-.47.05-.47Z"/><path d="M270.25,102.27c-4.36,2.2-7.61.69-7.61.69a44.15,44.15,0,0,0-.64-6.24,4.09,4.09,0,0,1-.15-1.2,31.18,31.18,0,0,1,.29-3.78,4.89,4.89,0,0,1,1.3-.39l.24,0c.74-.11,1.41-.14,1.41-.14l.08-.79.05-.54.09-.87c.11-1.15,2.47-.66,2.47-.66v2.84a6.56,6.56,0,0,0,1.18.13h.21a6.23,6.23,0,0,1,1.87.33C271.54,92,270,101,270.25,102.27Z"/><path d="M267.78,88.61v.85a3.79,3.79,0,0,1-2.61.92l.05-.54.09-.87C265.8,88.35,267.28,88.53,267.78,88.61Z"/><path d="M264.32,84.61a3.64,3.64,0,0,0-.36,1.81c-.07,2.39,1.08,3.27,1.86,3.27a2.66,2.66,0,0,0,2.76-2.55,5.4,5.4,0,0,0-.14-2.61C267.91,83.33,265.44,83,264.32,84.61Z"/><path d="M268.41,86.61s.37-1,1-.46-.22,1.94-1.12,1.83C268.25,88,268.12,87,268.41,86.61Z"/><path d="M269.08,86.6a.82.82,0,0,0-.36.23,1,1,0,0,0-.26.33s0,.07.07,0,.13-.15.2-.23a.59.59,0,0,0,.18.14s.09,0,.07-.09a.47.47,0,0,0-.14-.14,2.92,2.92,0,0,0,.28-.21S269.12,86.59,269.08,86.6Z"/><path d="M264.07,85.29a9.2,9.2,0,0,0,2.1-1.92,5.76,5.76,0,0,0,2.49,2.68l.72-.78-.92-1.49-1.62-.67-1.31-.29-1.23,1Z"/><path d="M262.64,103s-3,3.55-2.74,18.6c0,0-.48,4.25-.63,7,0,0,6.81,1.58,12.9-.24,0,0-.18-3.67-.09-6.45s.63-13.14-1.73-18.94A18.63,18.63,0,0,1,262.64,103Z"/><path d="M265.09,91.17a16.4,16.4,0,0,0,1.08,5.61s1.45-4.38,1.61-5.63c0,0,2.77-.27,3.59.52a26.59,26.59,0,0,1-.23,4.27c-.31,2-.51,2.47-.31,3.83a8.1,8.1,0,0,1-.48,3.19,11,11,0,0,1-7.71,0,9.44,9.44,0,0,1-.44-3,4.57,4.57,0,0,0-.35-2.57,4.42,4.42,0,0,1-.32-3.14,6,6,0,0,0,.32-2.41A5,5,0,0,1,265.09,91.17Z"/><path d="M271.05,91.43a17,17,0,0,1,5.43,4.41c2.34,2.94,2.38,3.66,3.2,4.16s-1.19,1.72-2.95,1-6-4.57-6-4.57S269.17,91.44,271.05,91.43Z"/><path d="M262.35,92.45s0,0,0,0a3.48,3.48,0,0,0-.44,1.19c-.17.53-.39,1-.58,1.56,0,.06.08.1.11,0a12.39,12.39,0,0,0,.62-1.45A2.88,2.88,0,0,0,262.35,92.45Z"/><path d="M270.72,93.5a10,10,0,0,0-.06-1.23h0a4.56,4.56,0,0,0,.09,2.66c0,.08.15.07.14,0C270.83,94.44,270.74,94,270.72,93.5Z"/><path d="M267.16,95.15a7.35,7.35,0,0,1-.63,2.61,8.05,8.05,0,0,0-.6,1.54,13.11,13.11,0,0,0-.21,3.85c0,.06.1.08.11,0,.21-1.39-.07-2.85.37-4.21s1.14-2.36,1.11-3.81A.08.08,0,1,0,267.16,95.15Z"/><polyline points="271.73 192.96 211.6 192.96 211.6 160.14 151.59 160.14 151.59 146.26 86.35 146.26 69.48 129.09 -34.23 129.09" fill="none" stroke="#999" stroke-miterlimit="10" stroke-width="0.73"/><path d="M192.23,23.88c.37,0,.61-.64.16-.64s-.61.64-.16.64Z" fill="#bd03ad"/><polygon points="217.42 169.17 220.37 169.17 222.39 163.24 219.44 163.24 217.42 169.17" fill-rule="evenodd"/><polygon points="243.09 188.29 240.87 189.35 239.36 187.63 241.58 186.57 243.09 188.29" fill-rule="evenodd"/><path d="M239.61,191.56h-1.1v1h1.76l3.73-3.31-.92-1.19-2.32,1.16Z" fill-rule="evenodd"/><path d="M230.9,179.84l9.31,9.21,2.36-2.11c-2-2.48-5.24-8.1-8.2-9.23Z" fill-rule="evenodd"/><path d="M247,171.76s.71,5.57-3.94,6.2a117.78,117.78,0,0,1-13.7.39s-.78-4,2.08-4.66c3.61-.87,5.49-1.29,5.49-1.29Z" fill-rule="evenodd"/><path d="M243.9,158.15l-1.12-3.51-2.46.93.47,3.34a3.31,3.31,0,0,1,3.11-.76Z" fill-rule="evenodd"/><path d="M241.73,155.74a3.51,3.51,0,0,1-1.09,2.12l-.1-.7-.14-1A2.21,2.21,0,0,0,241.73,155.74Z" fill-rule="evenodd"/><path d="M243.28,152.89c-.33-1.64-.45-1.92-1.89-2.2s-.5.37-2,.71c-.9.2-.9,1-.76,2.08a1.42,1.42,0,0,1-.43,1.1c-.09.26.33.44.45.55s0,1.35.38,1.56a3.3,3.3,0,0,0,2.5-.1c1.67-.86.72-4.25.72-4.25C242.33,151.77,243.37,153.33,243.28,152.89Z"/><path d="M241.41,153.64a12,12,0,0,0,1.62,2.5c.41.41.85-.08.88-.66.07-1.16.89-2.18.41-3.83-.25-.85-2.21-1.3-3.7-1.43-1.73-.15-3.69,2.15-.82,2.4l.88,1.62a.3.3,0,0,0,.56-.06Z" fill-rule="evenodd"/><path d="M242.16,153.27a.77.77,0,0,0-.86.6.76.76,0,0,0,.38,1,.74.74,0,0,0,.86-.6.76.76,0,0,0-.38-1Z" fill-rule="evenodd"/><rect x="222.95" y="168.58" width="9.24" height="0.59"/><rect x="213.36" y="169.17" width="39.29" height="1.11" rx="0.52" transform="translate(466.01 339.45) rotate(-180)"/><path d="M236.6,163.91l.32,8.49a19.94,19.94,0,0,0,10.25-.21c.4-.29.47-.82.09-1.65l.1-5.62a13.5,13.5,0,0,0-.47-3.85c-.43-1.57-1.21-3.27-2.6-3.52a8.42,8.42,0,0,0-3.83.22,4.69,4.69,0,0,0-3.62,4Z" fill-rule="evenodd"/><path d="M228.26,167.34s-.79-.74-1.4-.54c-.29.1-.73,0-1.17.2a3.74,3.74,0,0,0-1.05.77.76.76,0,0,0,.43.82c.2.06.87-.37.87-.37a4.79,4.79,0,0,0,2.22.52l1.4-.07.65-.79Z" fill-rule="evenodd"/><path d="M237.52,160l-3.79,5.93-4.82.63a.85.85,0,0,0-.75.85v1.47l6.58.2,4.31-2.47Z" fill-rule="evenodd"/><polygon points="228.14 191.5 225.9 191.55 228.31 185.53 230.37 186.13 228.14 191.5" fill-rule="evenodd"/><polygon points="225.97 191.09 228.46 190.84 228.46 192.57 222.95 192.57 222.95 191.98 225.97 191.09" fill-rule="evenodd"/><path d="M229.33,176.22l-3.4,13.83,3.53.12c1.66-4.42,3.45-8.11,3.78-11.77Z" fill-rule="evenodd"/><path d="M243,183.34h0a1.65,1.65,0,0,0,1.63-1.64v-2.16a1.64,1.64,0,0,0-1.63-1.63h0a1.64,1.64,0,0,0-1.64,1.63v2.16A1.65,1.65,0,0,0,243,183.34Z" fill-rule="evenodd"/><path d="M242.37,177.25v12.17a.65.65,0,0,0,.66.66h0a.66.66,0,0,0,.66-.66V177.25Z"/><circle cx="242.93" cy="191.55" r="0.85"/><circle cx="238.07" cy="191.55" r="0.85"/><circle cx="247.8" cy="191.55" r="0.85"/><path d="M237.37,190.08H248.5a.54.54,0,0,0,.54-.53h0a.54.54,0,0,0-.54-.54H237.37a.54.54,0,0,0-.54.54h0A.54.54,0,0,0,237.37,190.08Z"/><path d="M237.75,179.89h10.6a1.53,1.53,0,0,0,1.53-1.54h0a1.52,1.52,0,0,0-1.53-1.53h-10.6a1.52,1.52,0,0,0-1.53,1.53h0A1.53,1.53,0,0,0,237.75,179.89Z" fill-rule="evenodd"/><path d="M236.75,167.75l2.3-2.15v7.21a4.91,4.91,0,0,1-2.13-.41c-.38-.31-.51-.64,0-1.21Z" fill-rule="evenodd"/><path d="M215.29,165.79h12.87a1,1,0,0,0,.94-1l-.38-8.41a.94.94,0,0,0-.94-.91H214.91a.94.94,0,0,0-.94,1l.37,8.41A1,1,0,0,0,215.29,165.79Z" fill-rule="evenodd"/><polygon points="228.72 156.39 229.1 164.8 214.34 164.88 213.97 156.47 228.72 156.39" fill-rule="evenodd"/><rect x="147.27" y="106.42" width="24.13" height="17.45" fill="#494949"/><rect x="149.2" y="104.71" width="24.13" height="17.45" fill="#fff"/><rect x="151.06" y="108.21" width="20.12" height="12.05" fill="none" stroke="#7d7d7d" stroke-miterlimit="10" stroke-width="0.55"/><line x1="171.18" y1="109.76" x2="151.06" y2="109.76" fill="none" stroke="#7d7d7d" stroke-miterlimit="10" stroke-width="0.55"/><line x1="171.18" y1="111.86" x2="151.06" y2="111.86" fill="none" stroke="#7d7d7d" stroke-miterlimit="10" stroke-width="0.55"/><line x1="171.18" y1="113.96" x2="151.06" y2="113.96" fill="none" stroke="#7d7d7d" stroke-miterlimit="10" stroke-width="0.55"/><line x1="171.18" y1="116.06" x2="151.06" y2="116.06" fill="none" stroke="#7d7d7d" stroke-miterlimit="10" stroke-width="0.55"/><line x1="171.18" y1="118.16" x2="151.06" y2="118.16" fill="none" stroke="#7d7d7d" stroke-miterlimit="10" stroke-width="0.55"/><line x1="153.74" y1="109.76" x2="153.74" y2="120.26" fill="none" stroke="#7d7d7d" stroke-miterlimit="10" stroke-width="0.55"/><line x1="155.5" y1="109.76" x2="155.5" y2="120.26" fill="none" stroke="#7d7d7d" stroke-miterlimit="10" stroke-width="0.55"/><line x1="163.25" y1="109.76" x2="163.25" y2="120.26" fill="none" stroke="#7d7d7d" stroke-miterlimit="10" stroke-width="0.55"/><line x1="169.26" y1="109.76" x2="169.26" y2="120.26" fill="none" stroke="#7d7d7d" stroke-miterlimit="10" stroke-width="0.55"/><rect x="150.93" y="105.94" width="1.53" height="0.98" fill="#7d7d7d"/><rect x="153.41" y="105.94" width="11.94" height="0.98" fill="#7d7d7d" opacity="0.5"/><path d="M307.2,35.21a.77.77,0,0,0-.08-.42,1.1,1.1,0,0,0-.2-.37,0,0,0,0,0-.07,0c0,.1.09.19.14.29a.54.54,0,0,0-.2.1s0,.11.06.1a.3.3,0,0,0,.18-.08,2,2,0,0,0,.09.35A0,0,0,0,0,307.2,35.21Z" fill="#c85856"/><line x1="500.11" y1="23.52" x2="10.36" y2="23.52" fill="none" stroke="#96968c" stroke-miterlimit="10" stroke-width="0.73"/><g opacity="0.4"><g style="mix-blend-mode:overlay"><polyline points="30.34 193.97 55.09 193.97 65.01 203.89 111.92 203.89" fill="none" stroke="#e2e2e2" stroke-miterlimit="10" stroke-width="0.73"/><polyline points="111.92 203.89 78.61 203.89 73.58 208.91 57.51 208.91 51.43 202.84 40.34 202.84" fill="none" stroke="#e2e2e2" stroke-miterlimit="10" stroke-width="0.73"/><line x1="71.24" y1="194.08" x2="120.75" y2="194.08" fill="none" stroke="#e2e2e2" stroke-miterlimit="10" stroke-width="0.73"/><polyline points="79.61 185.09 129.12 185.09 140.1 196.07 149.91 196.07" fill="none" stroke="#e2e2e2" stroke-miterlimit="10" stroke-width="0.73"/><polyline points="19.48 194.08 19.48 205.22 30.38 205.22 30.38 214.47" fill="none" stroke="#e2e2e2" stroke-miterlimit="10" stroke-width="0.73"/><line x1="19.48" y1="185.09" x2="68.99" y2="185.09" fill="none" stroke="#e2e2e2" stroke-miterlimit="10" stroke-width="0.73"/><polyline points="40.44 215.09 91.59 214.78 94.74 211.63 160.31 211.63" fill="none" stroke="#e2e2e2" stroke-miterlimit="10" stroke-width="0.73"/><polyline points="160.81 197.18 168.63 197.18 168.63 215.09 177.97 215.09" fill="none" stroke="#e2e2e2" stroke-miterlimit="10" stroke-width="0.73"/><line x1="177.97" y1="197.07" x2="177.97" y2="207.89" fill="none" stroke="#e2e2e2" stroke-miterlimit="10" stroke-width="0.73"/><line x1="122.08" y1="203.78" x2="160.81" y2="203.78" fill="none" stroke="#e2e2e2" stroke-miterlimit="10" stroke-width="0.73"/><circle cx="19.48" cy="194.08" r="1.25" fill="#e2e2e2"/><circle cx="19.48" cy="215.09" r="1.25" fill="#e2e2e2"/><circle cx="177.97" cy="215.09" r="1.25" fill="#e2e2e2"/><circle cx="177.97" cy="207.89" r="1.25" fill="#e2e2e2"/><circle cx="177.97" cy="197.07" r="1.25" fill="#e2e2e2"/><circle cx="30.34" cy="193.97" r="1.25" fill="#e2e2e2"/><circle cx="30.34" cy="215.09" r="1.25" fill="#e2e2e2"/><circle cx="111.92" cy="203.78" r="1.25" fill="#e2e2e2"/><circle cx="71.24" cy="194.08" r="1.25" fill="#e2e2e2"/><circle cx="120.75" cy="194.08" r="1.25" fill="#e2e2e2"/><circle cx="79.61" cy="185.09" r="1.25" fill="#e2e2e2"/><circle cx="149.91" cy="195.93" r="1.25" fill="#e2e2e2"/><circle cx="19.48" cy="185.09" r="1.25" fill="#e2e2e2"/><circle cx="68.99" cy="185.09" r="1.25" fill="#e2e2e2"/><circle cx="40.44" cy="215.09" r="1.25" fill="#e2e2e2"/><circle cx="40.44" cy="202.84" r="1.25" fill="#e2e2e2"/><circle cx="160.81" cy="211.63" r="1.25" fill="#e2e2e2"/><circle cx="160.81" cy="203.78" r="1.25" fill="#e2e2e2"/><circle cx="122.08" cy="203.78" r="1.25" fill="#e2e2e2"/><circle cx="160.81" cy="197.18" r="1.25" fill="#e2e2e2"/><polyline points="213.97 199.74 193.36 199.74 185.35 191.73" fill="none" stroke="#e2e2e2" stroke-miterlimit="10" stroke-width="0.73"/><polyline points="185.07 203.89 200.38 203.89 205.4 208.91 221.07 208.91 229.92 200.06 248.33 200.06" fill="none" stroke="#e2e2e2" stroke-miterlimit="10" stroke-width="0.73"/><polyline points="206.7 191.61 168.63 191.61 168.63 202.53" fill="none" stroke="#e2e2e2" stroke-miterlimit="10" stroke-width="0.73"/><polyline points="177.97 207.78 192.87 207.78 200.32 215.23 210.09 215.23" fill="none" stroke="#e2e2e2" stroke-miterlimit="10" stroke-width="0.73"/><line x1="216.56" y1="215.09" x2="230.6" y2="215.09" fill="none" stroke="#e2e2e2" stroke-miterlimit="10" stroke-width="0.73"/><circle cx="230.6" cy="215.09" r="1.25" fill="#e2e2e2"/><circle cx="216.56" cy="215.09" r="1.25" fill="#e2e2e2"/><circle cx="232.09" cy="206.9" r="1.25" fill="#e2e2e2"/><circle cx="213.97" cy="199.74" r="1.25" fill="#e2e2e2"/><circle cx="206.7" cy="191.61" r="1.25" fill="#e2e2e2"/><circle cx="210.09" cy="215.09" r="1.25" fill="#e2e2e2"/><circle cx="185.51" cy="203.89" r="1.25" fill="#e2e2e2"/><circle cx="248.23" cy="200.06" r="1.25" fill="#e2e2e2"/><line x1="232.09" y1="206.9" x2="243.65" y2="206.9" fill="none" stroke="#e2e2e2" stroke-miterlimit="10" stroke-width="0.73"/><circle cx="243.65" cy="206.9" r="1.25" fill="#e2e2e2"/></g><g style="mix-blend-mode:overlay"><polyline points="177.97 175.87 150.84 175.87 132.44 157.47 85.53 157.47" fill="none" stroke="#e2e2e2" stroke-miterlimit="10" stroke-width="0.73"/><polyline points="85.53 157.47 118.84 157.47 123.86 152.44 139.94 152.44 154.76 167.26 204.68 167.26" fill="none" stroke="#e2e2e2" stroke-miterlimit="10" stroke-width="0.73"/><line x1="126.21" y1="167.27" x2="76.7" y2="167.27" fill="none" stroke="#e2e2e2" stroke-miterlimit="10" stroke-width="0.73"/><polyline points="117.84 176.27 68.33 176.27 57.35 165.28 47.54 165.28" fill="none" stroke="#e2e2e2" stroke-miterlimit="10" stroke-width="0.73"/><polyline points="177.97 184.91 189.1 184.91 189.1 174.01 204.14 174.01" fill="none" stroke="#e2e2e2" stroke-miterlimit="10" stroke-width="0.73"/><polyline points="128.46 176.27 141.44 176.27 150.09 184.91 177.97 184.91" fill="none" stroke="#e2e2e2" stroke-miterlimit="10" stroke-width="0.73"/><polyline points="75.37 143.78 69.67 138.07 19.48 138.07" fill="none" stroke="#e2e2e2" stroke-miterlimit="10" stroke-width="0.73"/><line x1="75.74" y1="149.73" x2="37.14" y2="149.73" fill="none" stroke="#e2e2e2" stroke-miterlimit="10" stroke-width="0.73"/><polyline points="36.64 165.43 28.82 165.43 28.82 146.27 19.48 146.27" fill="none" stroke="#e2e2e2" stroke-miterlimit="10" stroke-width="0.73"/><line x1="19.48" y1="165.38" x2="19.48" y2="153.46" fill="none" stroke="#e2e2e2" stroke-miterlimit="10" stroke-width="0.73"/><line x1="75.37" y1="157.58" x2="36.64" y2="157.58" fill="none" stroke="#e2e2e2" stroke-miterlimit="10" stroke-width="0.73"/><circle cx="177.97" cy="184.91" r="1.25" fill="#e2e2e2"/><circle cx="19.48" cy="146.27" r="1.25" fill="#e2e2e2"/><circle cx="19.48" cy="138.07" r="1.25" fill="#e2e2e2"/><circle cx="19.48" cy="153.46" r="1.25" fill="#e2e2e2"/><circle cx="19.48" cy="165.38" r="1.25" fill="#e2e2e2"/><circle cx="177.97" cy="175.87" r="1.25" fill="#e2e2e2"/><circle cx="204.75" cy="174.05" r="1.25" fill="#e2e2e2"/><circle cx="85.53" cy="157.58" r="1.25" fill="#e2e2e2"/><circle cx="126.21" cy="167.27" r="1.25" fill="#e2e2e2"/><circle cx="76.7" cy="167.27" r="1.25" fill="#e2e2e2"/><circle cx="117.84" cy="176.27" r="1.25" fill="#e2e2e2"/><circle cx="47.54" cy="165.43" r="1.25" fill="#e2e2e2"/><circle cx="128.46" cy="176.27" r="1.25" fill="#e2e2e2"/><circle cx="204.58" cy="167.26" r="1.25" fill="#e2e2e2"/><circle cx="36.64" cy="149.73" r="1.25" fill="#e2e2e2"/><circle cx="75.37" cy="149.73" r="1.25" fill="#e2e2e2"/><circle cx="75.37" cy="143.78" r="1.25" fill="#e2e2e2"/><circle cx="36.64" cy="157.58" r="1.25" fill="#e2e2e2"/><circle cx="75.37" cy="157.58" r="1.25" fill="#e2e2e2"/><line x1="55.05" y1="176.27" x2="19.48" y2="176.27" fill="none" stroke="#e2e2e2" stroke-miterlimit="10" stroke-width="0.73"/><circle cx="19.48" cy="176.27" r="1.25" fill="#e2e2e2"/><circle cx="55.05" cy="176.27" r="1.25" fill="#e2e2e2"/><circle cx="36.64" cy="165.43" r="1.25" fill="#e2e2e2"/></g></g><rect x="163.89" y="146.98" width="7.18" height="8.7" transform="translate(334.95 302.66) rotate(180)" fill="#494949"/><rect x="165.23" y="145.77" width="7.18" height="8.7" transform="translate(337.64 300.24) rotate(180)" fill="#fff"/><line x1="169.71" y1="152.86" x2="167.93" y2="152.86" fill="none" stroke="#999" stroke-miterlimit="10" stroke-width="0.73"/><line x1="171.11" y1="150.77" x2="166.53" y2="150.77" fill="none" stroke="#999" stroke-miterlimit="10" stroke-width="0.73"/><line x1="171.11" y1="149.14" x2="166.53" y2="149.14" fill="none" stroke="#999" stroke-miterlimit="10" stroke-width="0.73"/><line x1="171.11" y1="147.51" x2="166.53" y2="147.51" fill="none" stroke="#999" stroke-miterlimit="10" stroke-width="0.73"/><rect x="178.39" y="146.98" width="7.18" height="8.7" transform="translate(363.97 302.66) rotate(180)" fill="#494949"/><rect x="179.74" y="145.77" width="7.18" height="8.7" transform="translate(366.66 300.24) rotate(180)" fill="#fff"/><line x1="184.22" y1="152.86" x2="182.44" y2="152.86" fill="none" stroke="#999" stroke-miterlimit="10" stroke-width="0.73"/><line x1="185.62" y1="150.77" x2="181.04" y2="150.77" fill="none" stroke="#999" stroke-miterlimit="10" stroke-width="0.73"/><line x1="185.62" y1="149.14" x2="181.04" y2="149.14" fill="none" stroke="#999" stroke-miterlimit="10" stroke-width="0.73"/><line x1="185.62" y1="147.51" x2="181.04" y2="147.51" fill="none" stroke="#999" stroke-miterlimit="10" stroke-width="0.73"/><rect x="192.9" y="146.98" width="7.18" height="8.7" transform="translate(392.98 302.66) rotate(180)" fill="#494949"/><rect x="194.25" y="145.77" width="7.18" height="8.7" transform="translate(395.67 300.24) rotate(180)" fill="#fff"/><line x1="198.72" y1="152.86" x2="196.95" y2="152.86" fill="none" stroke="#999" stroke-miterlimit="10" stroke-width="0.73"/><line x1="200.13" y1="150.77" x2="195.54" y2="150.77" fill="none" stroke="#999" stroke-miterlimit="10" stroke-width="0.73"/><line x1="200.13" y1="149.14" x2="195.54" y2="149.14" fill="none" stroke="#999" stroke-miterlimit="10" stroke-width="0.73"/><line x1="200.13" y1="147.51" x2="195.54" y2="147.51" fill="none" stroke="#999" stroke-miterlimit="10" stroke-width="0.73"/><rect x="27.51" y="107.95" width="15.19" height="9.98" fill="#494949"/><rect x="29.46" y="106.42" width="15.19" height="9.98" fill="#fff"/><g clip-path="url(#g)"><polyline points="34.74 111.08 27.09 117.66 47.26 117.66 39.27 111.09" fill="none" stroke="#999" stroke-miterlimit="10" stroke-width="0.73" opacity="0.5"/><polygon points="36.97 112.94 28.08 105.54 46.03 105.54 36.97 112.94" fill="none" stroke="#999" stroke-miterlimit="10" stroke-width="0.73"/></g><polygon points="251.55 37.86 18.2 37.86 18.2 69.99 219.42 69.99 251.55 37.86" fill="#7d7d7d"/><g style="mix-blend-mode:color-dodge"><path d="M34.23,53.2v1.17H28.88v8.18h6.44v1.18H27.59V44.13h7.73V45.3H28.88v7.9Z" fill="#fff"/><path d="M44.06,53.67v1.18H39v8.88H37.7V44.13h7.45V45.3H39v8.37Z" fill="#fff"/><path d="M53.74,53.67v1.18H48.68v8.88H47.39V44.13h7.44V45.3H48.68v8.37Z" fill="#fff"/><path d="M58.36,44.13v19.6H57.08V44.13Z" fill="#fff"/><path d="M69.25,48.91v1.63H68V48.83c0-2.1-.81-3.7-3-3.7s-3,1.6-3,3.7V59c0,2.1.81,3.67,3,3.67s3-1.57,3-3.67V56.7h1.23v2.24c0,2.83-1.23,5-4.22,5s-4.23-2.12-4.23-5v-10C60.8,46.09,62,44,65,44S69.25,46.09,69.25,48.91Z" fill="#fff"/><path d="M72.92,44.13v19.6H71.64V44.13Z" fill="#fff"/><path d="M82.08,53.2v1.17H76.73v8.18h6.44v1.18H75.44V44.13h7.73V45.3H76.73v7.9Z" fill="#fff"/><path d="M86.73,63.73H85.55V44.13h1.68l5.88,16.54V44.13h1.18v19.6H92.86L86.73,46.25Z" fill="#fff"/><path d="M100.08,63.73V45.3h-4V44.13h9.26V45.3h-4V63.73Z" fill="#fff"/><path d="M111.79,48.91c0-2.85,1.31-4.95,4.28-4.95s4.34,2.1,4.34,4.95v10c0,2.85-1.32,5-4.34,5s-4.28-2.1-4.28-5ZM113.08,59c0,2.13.83,3.7,3,3.7s3.05-1.57,3.05-3.7V48.83c0-2.13-.87-3.7-3.05-3.7s-3,1.57-3,3.7Z" fill="#fff"/><path d="M126.88,44.13c3,0,4.2,1.9,4.2,4.76V51c0,3.11-1.43,4.65-4.54,4.65h-2.43v8.07h-1.29V44.13Zm-.34,10.36c2.27,0,3.25-1,3.25-3.39V48.8c0-2.13-.73-3.5-2.91-3.5h-2.77v9.19Z" fill="#fff"/><path d="M139.93,53.2v1.17h-5.35v8.18H141v1.18h-7.73V44.13H141V45.3h-6.44v7.9Z" fill="#fff"/><path d="M147.49,44.13c3,0,4.2,1.65,4.2,4.42v1.71c0,2.29-.9,3.61-2.83,4.06,2,.45,2.83,1.87,2.83,4v3a4.42,4.42,0,0,0,.47,2.36h-1.34a4.58,4.58,0,0,1-.42-2.36V58.29c0-2.6-1.43-3.33-3.67-3.33h-2v8.77H143.4V44.13Zm-.73,9.66c2.29,0,3.64-.65,3.64-3.28V48.66c0-2.1-.81-3.36-2.94-3.36h-2.77v8.49Z" fill="#fff"/><path d="M156.36,59.39l-1,4.34h-1.17l4.28-19.63h1.88l4.36,19.63h-1.28l-1-4.34Zm.2-1.12h5.71l-2.88-12.69Z" fill="#fff"/><path d="M169.21,63.73V45.3h-4V44.13h9.26V45.3h-4V63.73Z" fill="#fff"/><path d="M177.67,44.13v19.6h-1.29V44.13Z" fill="#fff"/><path d="M180.11,48.91c0-2.85,1.31-4.95,4.28-4.95s4.34,2.1,4.34,4.95v10c0,2.85-1.32,5-4.34,5s-4.28-2.1-4.28-5ZM181.39,59c0,2.13.84,3.7,3,3.7s3.05-1.57,3.05-3.7V48.83c0-2.13-.87-3.7-3.05-3.7s-3,1.57-3,3.7Z" fill="#fff"/><path d="M192.31,63.73h-1.17V44.13h1.68l5.88,16.54V44.13h1.17v19.6h-1.42l-6.14-17.48Z" fill="#fff"/><path d="M210.62,48.86v.42h-1.23v-.51c0-2.07-.78-3.64-2.91-3.64s-2.91,1.54-2.91,3.62c0,4.76,7.08,4.84,7.08,10.24,0,2.83-1.23,4.9-4.23,4.9s-4.22-2.07-4.22-4.9V58h1.23v1.09c0,2.1.81,3.61,3,3.61s3-1.51,3-3.61c0-4.71-7.09-4.79-7.09-10.25,0-2.94,1.29-4.84,4.17-4.87S210.62,46,210.62,48.86Z" fill="#fff"/></g></g></g></svg>