<svg xmlns="http://www.w3.org/2000/svg" xmlns:xlink="http://www.w3.org/1999/xlink" width="525.42" height="235.03" viewBox="0 0 525.42 235.03"><defs><clipPath id="a"><rect y="-18.37" width="525.42" height="253.4" fill="none"/></clipPath><linearGradient id="b" x1="434.95" y1="118.15" x2="833.88" y2="118.15" gradientTransform="matrix(-1, 0, 0, 1, 856.83, 0)" gradientUnits="userSpaceOnUse"><stop offset="0" stop-color="#3d026e"/><stop offset="1" stop-color="#951abb"/></linearGradient><linearGradient id="c" x1="399.06" y1="207.83" x2="-48.49" y2="207.83" gradientUnits="userSpaceOnUse"><stop offset="0" stop-color="#00b6ff"/><stop offset="1" stop-color="#42004e"/></linearGradient><linearGradient id="d" x1="122.56" y1="112.24" x2="341.85" y2="207.78" gradientUnits="userSpaceOnUse"><stop offset="0" stop-color="#939a9a"/><stop offset="1" stop-color="#ccc"/></linearGradient><linearGradient id="e" x1="398.6" y1="248.1" x2="-59.76" y2="127.08" gradientUnits="userSpaceOnUse"><stop offset="0" stop-color="#b0b5b5"/><stop offset="1" stop-color="#42474e"/></linearGradient><clipPath id="g"><rect x="361.05" y="166.44" width="15.19" height="9.98" fill="none"/></clipPath><clipPath id="h"><rect x="91.73" y="155.34" width="15.19" height="9.98" fill="none"/></clipPath><linearGradient id="i" x1="321.12" y1="44.49" x2="221.61" y2="143.99" gradientUnits="userSpaceOnUse"><stop offset="0" stop-color="#fff"/><stop offset="1" stop-color="#fff" stop-opacity="0"/></linearGradient></defs><g style="isolation:isolate"><path d="M437.39,182.1h0a.6.6,0,0,1,.42.75h0a.61.61,0,0,1-.75.42h0a.62.62,0,0,1-.42-.75h0a.61.61,0,0,1,.59-.44h0A.44.44,0,0,1,437.39,182.1Z" fill="none"/><path d="M441.43,183.53a.62.62,0,0,1,.32.8h0a.61.61,0,0,1-.8.32h0a.61.61,0,0,1-.32-.8h0a.61.61,0,0,1,.56-.36h0A.67.67,0,0,1,441.43,183.53Z" fill="none"/><path d="M445.25,185.45a.6.6,0,0,1,.23.82h0a.61.61,0,0,1-.83.23h0a.61.61,0,0,1-.22-.83h0a.58.58,0,0,1,.52-.3h0A.52.52,0,0,1,445.25,185.45Z" fill="none"/><path d="M448.82,187.81a.6.6,0,0,1,.13.84h0a.61.61,0,0,1-.85.13h0a.6.6,0,0,1-.12-.85h0a.61.61,0,0,1,.48-.25h0A.53.53,0,0,1,448.82,187.81Z" fill="none"/><path d="M452.08,190.58h0a.6.6,0,0,1,0,.85h0a.59.59,0,0,1-.85,0h0a.59.59,0,0,1,0-.86h0a.61.61,0,0,1,.43-.18h0A.55.55,0,0,1,452.08,190.58Z" fill="none"/><g clip-path="url(#a)"><path d="M512.07,215.91,310.63,14.46a25.9,25.9,0,0,0-18.31-7.59H-8.55V229.43H497.37Z" fill="url(#b)"/><polyline points="192.31 229.99 -39.52 229.99 -39.52 185.68 146.1 185.69 146.1 195.2 192.31 195.2 192.31 229.99" fill="url(#c)"/><path d="M-32.63,228.52H525.42l-10.74-11L312.54,13.13a25.91,25.91,0,0,0-18.41-7.69H-32.63Z" fill="url(#d)"/><path d="M514.68,217.52,312.54,13.13a25.91,25.91,0,0,0-18.41-7.69H-32.63" fill="none" stroke="#8e9393" stroke-miterlimit="10" stroke-width="2.2"/><polygon points="429.2 162.84 278.33 162.84 278.33 146.86 200.67 146.86 200.67 99.33 -39.59 99.33 -39.59 228.92 429.2 228.92 429.2 162.84" fill="url(#e)"/><g opacity="0.5" style="mix-blend-mode:multiply"><polyline points="67.74 100.37 67.23 136.89 82.67 152.38 82.67 185.8" fill="none" stroke="#9d918e" stroke-miterlimit="10" stroke-width="0.55"/><polyline points="168.68 100.22 169.01 125.07 155.54 139.67 155.54 147.28 146.03 156.78 113.91 156.63 113.91 185.54" fill="none" stroke="#9d918e" stroke-miterlimit="10" stroke-width="0.55"/><line x1="146.21" y1="156.66" x2="146.21" y2="185.69" fill="none" stroke="#9d918e" stroke-miterlimit="10" stroke-width="0.55"/><polyline points="82.88 152.47 108.87 152.47 113.83 156.66" fill="none" stroke="#9d918e" stroke-miterlimit="10" stroke-width="0.55"/><line x1="67.32" y1="137.05" x2="-6.39" y2="137.05" fill="none" stroke="#9d918e" stroke-miterlimit="10" stroke-width="0.55"/><polyline points="212.92 147.65 212.92 169.31 192.31 195.2" fill="none" stroke="#9d918e" stroke-miterlimit="10" stroke-width="0.55"/><polyline points="242.88 147.65 242.88 169.32 262.58 188.78 262.58 229.23" fill="none" stroke="#9d918e" stroke-miterlimit="10" stroke-width="0.55"/><line x1="203.65" y1="147.19" x2="155.55" y2="147.19" fill="none" stroke="#9d918e" stroke-miterlimit="10" stroke-width="0.55"/><line x1="213.01" y1="169.43" x2="243.08" y2="169.43" fill="none" stroke="#9d918e" stroke-miterlimit="10" stroke-width="0.55"/><polyline points="262.85 188.76 288.13 188.76 288.13 215.86 304.32 229.74" fill="none" stroke="#9d918e" stroke-miterlimit="10" stroke-width="0.55"/><polyline points="340.17 163.28 340.17 215.03 329.54 229.75" fill="none" stroke="#9d918e" stroke-miterlimit="10" stroke-width="0.55"/><polyline points="288.21 188.76 304.98 171.09 340.1 171.09 340.14 181.45 389.29 181.65 402.07 163.69" fill="none" stroke="#9d918e" stroke-miterlimit="10" stroke-width="0.55"/></g><polyline points="239.15 157.93 259.21 158 259.21 176.58 238.75 176.58 238.75 187.16" fill="none" stroke="#fff" stroke-miterlimit="10" stroke-width="0.73"/><polygon points="239.37 156.38 239.36 159.49 237.81 157.93 239.37 156.38" fill="#fff"/><polygon points="240.31 186.95 237.19 186.95 238.75 188.51 240.31 186.95" fill="#fff"/><line x1="355.29" y1="200.49" x2="331.81" y2="200.49" fill="none" stroke="#fff" stroke-miterlimit="10" stroke-width="0.73"/><polygon points="355.08 202.05 355.08 198.94 356.64 200.49 355.08 202.05" fill="#fff"/><polygon points="332.01 202.05 332.01 198.94 330.46 200.49 332.01 202.05" fill="#fff"/><polyline points="286.72 176.72 296.6 176.68 296.6 200.49 304.87 200.49" fill="none" stroke="#fff" stroke-miterlimit="10" stroke-width="0.73"/><polygon points="286.92 175.16 286.93 178.27 285.37 176.72 286.92 175.16" fill="#fff"/><polygon points="304.66 198.94 304.66 202.05 306.22 200.49 304.66 198.94" fill="#fff"/><g style="mix-blend-mode:multiply"><polygon points="73.92 143.6 82.75 152.44 109.2 152.44 113.39 156.63 146.21 156.63 155.55 147.29 155.54 143.6 73.92 143.6" fill="#ccc6c4"/></g><polyline points="88.44 115.67 41.9 115.67 41.9 132.97 30.21 144.66 30.21 150.48" fill="none" stroke="#fff" stroke-miterlimit="10" stroke-width="0.73"/><polygon points="88.23 117.22 88.23 114.11 89.79 115.67 88.23 117.22" fill="#fff"/><polygon points="31.76 150.27 28.65 150.27 30.21 151.82 31.76 150.27" fill="#fff"/><polyline points="187.53 154.55 187.53 107.19 161.99 107.19 153.5 115.67 137.42 115.67" fill="none" stroke="#fff" stroke-miterlimit="10" stroke-width="0.73"/><polygon points="185.97 154.34 189.08 154.34 187.53 155.9 185.97 154.34" fill="#fff"/><polygon points="137.63 117.22 137.63 114.11 136.07 115.67 137.63 117.22" fill="#fff"/><polyline points="98.36 171.63 98.36 180.13 76.03 180.13 64.76 168.86" fill="none" stroke="#fff" stroke-miterlimit="10" stroke-width="0.73"/><polygon points="99.91 171.84 96.8 171.84 98.36 170.28 99.91 171.84" fill="#fff"/><polygon points="63.81 170.11 66.01 167.91 63.81 167.91 63.81 170.11" fill="#fff"/><polyline points="429.2 229.22 429.2 163.13 278.4 163.13 278.4 147.16 200.74 147.16 200.74 99.63 -39.52 99.63" fill="none" stroke="#3b3e5d" stroke-miterlimit="10" stroke-width="0.73"/><polyline points="192.31 229.99 -39.52 229.99 -39.52 185.68 146.1 185.69 146.1 195.2 192.31 195.2 192.31 229.99" fill="url(#c)"/><path d="M45.16,150.33a16.54,16.54,0,0,0-1.83,7.06s1.12-.11,1.12-.27S45.16,150.33,45.16,150.33Z" fill="#a1a6e1" fill-rule="evenodd"/><polygon points="34.63 183.88 32.37 183.72 33.12 181.11 35.29 181.27 34.63 183.88" fill="#ed6c6c" fill-rule="evenodd"/><polygon points="44.82 183.88 42.4 183.71 42.7 181.21 45.13 181.38 44.82 183.88" fill="#ed6c6c" fill-rule="evenodd"/><path d="M34.82,185.45a.74.74,0,0,0,0-.25l0-1.63-2.32-.23a30.39,30.39,0,0,1-2.87,1.72.71.71,0,0,0-.41.39Z" fill="#220350" fill-rule="evenodd"/><path d="M50,174.05h0a1.65,1.65,0,0,1-1.64-1.64v-2.16A1.65,1.65,0,0,1,50,168.62h0a1.64,1.64,0,0,1,1.63,1.63v2.16A1.64,1.64,0,0,1,50,174.05Z" fill="#313545" fill-rule="evenodd"/><path d="M50,182.53h0a.66.66,0,0,1-.67-.66V169.7A.67.67,0,0,1,50,169h0a.67.67,0,0,1,.66.66v12.17A.66.66,0,0,1,50,182.53Z" fill="#313545"/><circle cx="50.03" cy="184.72" r="0.85" fill="#313545"/><circle cx="54.9" cy="184.72" r="0.85" fill="#313545"/><circle cx="45.16" cy="184.72" r="0.85" fill="#313545"/><path d="M55.61,183.07H44.47a.54.54,0,0,1-.54-.54h0a.54.54,0,0,1,.54-.53H55.61a.53.53,0,0,1,.53.53h0A.54.54,0,0,1,55.61,183.07Z" fill="#313545"/><rect x="41.89" y="166.38" width="16.1" height="3.07" rx="1.49" fill="#989dde"/><path d="M45.79,159.84s-1.44,4.11-1.34,4.91a5.77,5.77,0,0,0,1,2.56l7-.05a3.25,3.25,0,0,0,3.17-3.8v0l-.09-.57-.48-3.55c-2.18,1.41-6.13,2-9.59,1.06Z" fill="#50165d" fill-rule="evenodd"/><path d="M40,160.12l2.58-2.26,2-2.45,1.15,2.74a8.84,8.84,0,0,1-5.26,3.8l-.31-.91Z" fill="#a1a6e1" fill-rule="evenodd"/><path d="M35.75,182.16l-3.13-.26c0-.4,2.25-9,3.52-12.56a4,4,0,0,1,2-2.28l7.53-3.75,4.93,4.19-10.37,4.27Z" fill="#50165d" fill-rule="evenodd"/><path d="M35.75,182.16l-1.26-.11c.3-2.49,2.24-4.72,3.12-6,1.12-1.58.44-4.21.9-5.52a4.43,4.43,0,0,1,1-1.35A8.5,8.5,0,0,1,43.21,167a13.86,13.86,0,0,0,4.26-2.17l3.16,2.69-10.37,4.27Z" fill="#220350" fill-rule="evenodd"/><path d="M44.86,185.45a.74.74,0,0,0,0-.25l0-1.63-2.58-.06a25.63,25.63,0,0,1-2.61,1.55c-.24.12-.35.23-.4.39Z" fill="#220350" fill-rule="evenodd"/><path d="M47.67,142a1.34,1.34,0,0,0-.36,2.29c1.3,1.55.36-2.29.36-2.29Z" fill="#220350" fill-rule="evenodd"/><path d="M53.29,149.31a1.69,1.69,0,0,0-.95-1.39,3.06,3.06,0,0,0-2.06-.18,15.68,15.68,0,0,0-2.45.71l-.69,2.28,2.31,1.1,4.53-3.4Z" fill="#fc8a5d" fill-rule="evenodd"/><path d="M47.36,143.36a2,2,0,0,1,2.21-1.92h0a2,2,0,0,1,1.82,2.09c0,.62,0,1.3-.07,1.88a1.45,1.45,0,0,1-.5,1,1.41,1.41,0,0,1-1.08.34l-1.11-.11a1.48,1.48,0,0,1-1.34-1.54c0-.54.05-1.17.07-1.77Z" fill="#ed6c6c" fill-rule="evenodd"/><polygon points="52.39 149.1 50.94 145.34 48.31 146.51 49.04 150.13 52.39 149.1 52.39 149.1" fill="#ed6c6c" fill-rule="evenodd"/><path d="M50.23,143.12S50,145,51.42,145a12.33,12.33,0,0,0,.82-2.51c.15-1.58-3-1.9-4.3-1.22s-.5,1.89,2.29,1.85Z" fill="#220350" fill-rule="evenodd"/><path d="M48.5,148.43c.84,1.31,2.84.12,3.16-.35a4.45,4.45,0,0,1,1.05.55c1.76,1.27,2,6.7,2.3,8.66.15.92,1,4,.53,4.78-.14.26-1.52.06-1.79.11-1.14.21-6.28.63-7-.19s-.17-2.34-.31-3.3a24.3,24.3,0,0,1,.65-9.48Z" fill="#fff" fill-rule="evenodd"/><path d="M47,156.07c.89,2.77,7.55-.21,6.79-1.54-1.06-1.86.46,1.28.74,3.24.13.92.87,4,.48,4.78-.13.26-.66,2.39-.9,2.4-3.26.14-8.27.35-8.49-.72-.32-1.51,1.14-4.1,1.25-5.06A12.31,12.31,0,0,0,47,156.07Z" fill="#e8e8e8" fill-rule="evenodd"/><path d="M51.39,144.23a.65.65,0,1,0,.32.73.58.58,0,0,0-.32-.73Z" fill="#ed6c6c" fill-rule="evenodd"/><path d="M47.28,145.14c-.09-.17-.49,2.48,1.1,2.61s2.26-.51,2.37-3.55c0,0-.64,1.84-1.57,1.87-1.94.06-1.79-.74-1.9-.93Z" fill="#220350" fill-rule="evenodd"/><path d="M41.66,182.81l3.54-.1,1.2-11.62L54,166.9l-.8-1.23-5.38-.38-4,1.89a3.41,3.41,0,0,0-1.95,3.11Z" fill="#50165d" fill-rule="evenodd"/><path d="M47.83,148.45a57.36,57.36,0,0,0-1,7.93,62.85,62.85,0,0,1-1.35,9.07c-.48-.89-2.18-.62-2.34-1.44,0,0,1.49-9.81,1.76-12.38S46.13,149.13,47.83,148.45Z" fill="#b3b7e7" fill-rule="evenodd"/><path d="M49.2,143.06s-3.52-.27-2.71-1.83,3.23,1.59,3.74,1Z" fill="#220350" fill-rule="evenodd"/><path d="M44.9,160.77s-.89-.61-1.46-.31c-.27.14-.72.15-1.13.37a3.87,3.87,0,0,0-.92.93.75.75,0,0,0,.56.74c.2,0,.8-.5.8-.5a3.44,3.44,0,0,0,1.92,0Z" fill="#ed6c6c" fill-rule="evenodd"/><path d="M40.76,160.72s-.85-.67-1.44-.42c-.28.12-.73.1-1.15.29a3.73,3.73,0,0,0-1,.86.76.76,0,0,0,.51.78c.19.05.83-.44.83-.44a3.42,3.42,0,0,0,1.92.16Z" fill="#ed6c6c" fill-rule="evenodd"/><polygon points="44.9 160.77 47.72 160.56 47.83 162.07 44.3 161.87 44.9 160.77" fill="#ed6c6c" fill-rule="evenodd"/><rect x="36.73" y="161.62" width="9.24" height="0.59" fill="#fff"/><path d="M57.42,158.46a35.92,35.92,0,0,0-.4-4.67,9,9,0,0,0-1.39-4.24,4.65,4.65,0,0,0-1.94-1.2l-1.35-.43a36.84,36.84,0,0,0-1,11.25l-4.49.89v2.14h6.93l1.38-.45,1.32-.73A3.59,3.59,0,0,0,57.42,158.46Z" fill="#b3b7e7" fill-rule="evenodd"/><path d="M39.53,162.2H28.92l-3.2-7.13H36.08a.38.38,0,0,1,.35.23Z" fill="#a45acc" fill-rule="evenodd"/><path d="M38.67,162.2H28.07L25,155.4a.23.23,0,0,1,.21-.33H35.32a.25.25,0,0,1,.22.14Z" fill="#fff" fill-rule="evenodd"/><path d="M51.2,157.58s-.09,3.79-1,5.54a21.9,21.9,0,0,1-2.41,2.82s7.75.77,8-2.36a59.13,59.13,0,0,1,1-6.76Z" fill="#b3b7e7" fill-rule="evenodd"/><path d="M32.16,158.68c.12.45-.22.81-.77.81a1.28,1.28,0,0,1-1.22-.81c-.13-.44.21-.8.76-.8A1.31,1.31,0,0,1,32.16,158.68Z" fill="#afb3e0" fill-rule="evenodd"/><path d="M57.42,158.46a35.92,35.92,0,0,0-.4-4.67,9,9,0,0,0-1.39-4.24,4.65,4.65,0,0,0-1.94-1.2l-1.35-.43c5.15,2.64,3.49,8.28,3.84,12.07-.83.44-1.22.3-3.14.68a25.22,25.22,0,0,1-3.59,1,5,5,0,0,0-2.62-.09v.58h6.93l1.38-.45,1.32-.73A3.59,3.59,0,0,0,57.42,158.46Z" fill="#dae1ff" fill-rule="evenodd"/><path d="M58.65,163.31H20.41a.55.55,0,0,1-.55-.55h0a.56.56,0,0,1,.55-.56H58.65a.56.56,0,0,1,.55.56h0A.55.55,0,0,1,58.65,163.31Z" fill="#fff" fill-rule="evenodd"/><path d="M119.21,108.9l-.9.49-.26,7.27,1,0a1.11,1.11,0,0,0,1.12-1.21Z" fill="#ed6c6c"/><path d="M115,115.24l3.08,1.55a1,1,0,0,0,1.15-.15h0a1,1,0,0,0-.14-1.64l-5.59-3.47Z" fill="#fff"/><path d="M109.67,135.74h0a1.64,1.64,0,0,1-1.63-1.63v-2.17a1.64,1.64,0,0,1,1.63-1.63h0a1.64,1.64,0,0,1,1.63,1.63v2.17A1.64,1.64,0,0,1,109.67,135.74Z" fill="#434655" fill-rule="evenodd"/><path d="M109.6,140.77h0a.65.65,0,0,1-.66-.66V127.94a.66.66,0,0,1,.66-.66h0a.67.67,0,0,1,.66.66v12.17A.66.66,0,0,1,109.6,140.77Z" fill="#434655"/><circle cx="109.69" cy="142.83" r="0.85" fill="#434655"/><circle cx="114.56" cy="142.83" r="0.85" fill="#434655"/><circle cx="104.83" cy="142.83" r="0.85" fill="#434655"/><path d="M115.26,141.31H104.12a.54.54,0,0,1-.53-.54h0a.53.53,0,0,1,.53-.53h11.14a.54.54,0,0,1,.54.53h0A.54.54,0,0,1,115.26,141.31Z" fill="#434655"/><path d="M102,128.81l-2.58-9.37H98.16l2.78,10.09a1.67,1.67,0,0,0,1.61,1.22h5.28v-1.27h-4.94A.92.92,0,0,1,102,128.81Z" fill="#434655"/><path d="M104.59,131.93h11a1.85,1.85,0,0,0,1.85-1.86h0a1.85,1.85,0,0,0-1.85-1.85h-11a1.85,1.85,0,0,0-1.86,1.85h0A1.86,1.86,0,0,0,104.59,131.93Z" fill="#fff"/><path d="M97.87,117.46h1a1.19,1.19,0,0,1,1.19,1.19v3.41a1.19,1.19,0,0,1-1.19,1.19h-1a0,0,0,0,1,0,0v-5.78a0,0,0,0,1,0,0Z" transform="translate(226.3 210.16) rotate(164.63)" fill="#434655"/><path d="M97.63,112.34l3.79,13.53a1.62,1.62,0,0,0,2,1.12h0a1.61,1.61,0,0,0,1.12-2l-3.8-13.53a1.61,1.61,0,0,0-2-1.12h0A1.61,1.61,0,0,0,97.63,112.34Z" fill="#fff"/><path d="M125,141.36l1.73.07-6.23-15.78-12.74-1.14.91,2.36c10.49.52,10.18,2,10.18,2C118.61,132.67,121.12,135.52,125,141.36Z" fill="#d66262"/><path d="M118,141.46l1.34,0,1-11.76c.81-6.41-2.2-4-12.38-4.56v1.49c10.4.53,9.69,2.63,9.69,2.63C116.74,133.1,117.48,134.48,118,141.46Z" fill="#ed6c6c"/><path d="M107.57,129.17l10.3.52,2.66-4.1L108.85,122c-1.18,0-2.48-.6-2.48.9l-.74,3.58C105.63,128,106.4,129.17,107.57,129.17Z" fill="#a0a3a5"/><path d="M108.5,128.39c-1.63-.1-1.76-2.22-.84-5.4l.36-1.07c-.87-.1-1.61-.16-1.61,1l-.74,3.58a2.09,2.09,0,0,0,1.94,2.7l10.29.52.25-.37Z" fill="#909397"/><path d="M122.29,118.83l1.27-.15a1.09,1.09,0,0,1,.72.17l1.47,1-.6.44-1.61.09a1.52,1.52,0,0,1-1-.33l-.53-.39Z" fill="#ed6c6c"/><path d="M117.39,118.76c1.94,0,3,.14,4.91.12l.46.91c-3.9.64-5.25,1.42-6.84.86C114.73,118,115.45,120.59,117.39,118.76Z" fill="#ed6c6c"/><path d="M119.21,108.9l-1-.79a1.11,1.11,0,0,0-.71-.22l-1,.06a.52.52,0,0,0-.45.72h0l1.33.91a1.59,1.59,0,0,0,1.06.25l.66-.06Z" fill="#ed6c6c"/><path d="M113.39,102.08s2.75-.13,2.85,1.09c.24,3-2.84,5.63-2.84,5.63l-1.49-6.12Z" fill="#220350"/><polygon points="110.39 110.7 112.35 111.59 114.13 107.74 112.2 106.77 110.39 110.7" fill="#ed6c6c"/><path d="M111.78,104.85c.38-1.63.51-1.91,2-2.14s.48.39,2,.78c.89.24.87,1.06.68,2.1a1.47,1.47,0,0,0,.4,1.12c.08.26-.34.43-.47.53s-.23,1.18-.61,1.33a9.36,9.36,0,0,1-1.91,0c-1.64-.92-1-4.24-1-4.24C112.77,103.76,111.67,105.28,111.78,104.85Z" fill="#ed6c6c"/><path d="M113.71,102.07s-3.2-.21-2.52,3.73a3.38,3.38,0,0,0,.51,1.32.93.93,0,0,0,.87.43.79.79,0,0,0,.59-.23c1-1.37.82-1,1.66-3.37l1.19-.45.23-.33Z" fill="#220350"/><path d="M113.67,106.56s-.64-2.37.21-3l2.36-.41A4.57,4.57,0,0,1,113.67,106.56Z" fill="#220350"/><path d="M113.07,110l1.83,3.32a5.54,5.54,0,0,1,.87,3.48l-2.15,2.13-.88,2.45c.26.89.68,1.75-.08,1.83l-6.48-.22c.39-8,1.7-12.58,4.87-13.75C111.5,109,112.17,109.48,113.07,110Z" fill="#e8e8e8"/><polygon points="113.73 110.12 110.95 108.47 110.26 109.23 114.07 111.47 113.73 110.12" fill="#fff"/><path d="M115.93,120.74a2.23,2.23,0,0,0,1.76-2L113.37,113c-.31-.51-.79-1.2-1.37-1.31-.76-.15-1.62.3-1.17,1.86C111.22,114.91,114.17,118.86,115.93,120.74Z" fill="#e8e8e8"/><path d="M126.76,141.24l1.54,1c.31.24,1.81.49,1.86.65h0a.69.69,0,0,1-.75.78l-.84,0-3.08-.18s-1-.16-.46-2.14Z" fill="#220350" fill-rule="evenodd"/><path d="M119.78,141.24l1.53,1c.31.24,1.81.49,1.86.65h0a.69.69,0,0,1-.75.78l-.84,0-3.08-.18s-1-.16-.45-2.14Z" fill="#220350" fill-rule="evenodd"/><path d="M132.79,122H119.58a.56.56,0,0,1-.56-.55h0a.56.56,0,0,1,.56-.55h13.21a.56.56,0,0,1,.56.55h0A.56.56,0,0,1,132.79,122Z" fill="#fff" fill-rule="evenodd"/><path d="M114,106.12c.11.52-.1,1-.46,1s-.73-.34-.83-.87.1-1,.45-1S113.93,105.59,114,106.12Z" fill="#ed6c6c"/><path d="M112.14,104.08s-2.72-1.81-4.11,1.81c-1.15,3,0,4.5-.94,5.6a.43.43,0,0,0,.37.7c1.25-.06,3-.46,3.31-2.18.5-2.72,1-4.56,1.19-4.58S112.14,104.08,112.14,104.08Z" fill="#220350"/><path d="M112.34,116.21c-1.91,2.55-2,6.88-2,6.88l2.27.07c.76-.08.34-.94.08-1.83l.37-1,.51-1.41.45-.44Z" fill="#fff"/><path d="M122.37,120.84h7.5V120h-8.38A.88.88,0,0,0,122.37,120.84Z" fill="#d1d1d1"/><rect x="126.78" y="116.26" width="8.89" height="0.88" rx="0.4" transform="translate(289.29 40.21) rotate(112.53)" fill="#d1d1d1"/><path d="M118.05,141.36s1.84,1.84,3.35.91l-2.13-1.37Z" fill="#ed6c6c" fill-rule="evenodd"/><path d="M125,141.36s1.85,1.84,3.35.91l-2.12-1.37Z" fill="#d66262" fill-rule="evenodd"/><path d="M171.68,171.19c1.67-2.31,2.69-3.45,4.32-5.82l1.49.24c-2.56,5.24-2.46,7.25-4.49,8.69C168.78,173.46,172.21,175.1,171.68,171.19Z" fill="#ed6c6c"/><path d="M176.52,166.88l1.79-.57a1.52,1.52,0,0,0,.86-.67l.8-1.3a.76.76,0,0,0-.5-1.15h0l-2.22.85a2.39,2.39,0,0,0-1.19,1.08l-.47.85Z" fill="#ed6c6c"/><path d="M171.67,166.17l1.55,5c.24.09.62,2.65-.51,3.36L171,175.71l-.31-1.3-.14-2.55-.83-4.87Z" fill="#ed6c6c" fill-rule="evenodd"/><path d="M169.15,161.58a10.82,10.82,0,0,1,2.59,4.49l-2.19,3.36Z" fill="#e8e8e8" fill-rule="evenodd"/><path d="M165.62,187h0a1.64,1.64,0,0,1-1.63-1.64v-2.16a1.63,1.63,0,0,1,1.63-1.63h0a1.63,1.63,0,0,1,1.63,1.63v2.16A1.64,1.64,0,0,1,165.62,187Z" fill="#434655" fill-rule="evenodd"/><circle cx="165.64" cy="194.07" r="0.85" fill="#434655"/><circle cx="170.51" cy="194.07" r="0.85" fill="#434655"/><circle cx="160.77" cy="194.07" r="0.85" fill="#434655"/><path d="M165.55,191.69h0a.66.66,0,0,1-.66-.66V178.86a.65.65,0,0,1,.66-.66h0a.66.66,0,0,1,.66.66V191A.67.67,0,0,1,165.55,191.69Z" fill="#434655"/><path d="M171.21,192.4H160.07a.53.53,0,0,1-.53-.53h0a.54.54,0,0,1,.53-.54h11.14a.54.54,0,0,1,.53.54h0A.53.53,0,0,1,171.21,192.4Z" fill="#434655"/><path d="M160.53,183.17h11.06a1.85,1.85,0,0,0,1.85-1.85h0a1.85,1.85,0,0,0-1.85-1.85H160.53a1.85,1.85,0,0,0-1.85,1.85h0A1.85,1.85,0,0,0,160.53,183.17Z" fill="#220350"/><rect x="156.8" y="163.57" width="10.37" height="13.47" rx="2.2" fill="#220350"/><polygon points="176.61 193.84 178.85 193.9 178.43 187.17 176.28 187.11 176.61 193.84" fill="#ed6c6c" fill-rule="evenodd"/><polygon points="178.78 193.44 176.43 193.18 176.28 194.92 181.8 194.92 181.8 194.32 178.78 193.44" fill="#220350" fill-rule="evenodd"/><path d="M174.6,181.76l-8.39-2.9,1.29-1.7,4.29-1,5.42,1.94a3.19,3.19,0,0,1,1.95,2.92l.18,11.23-3.54-.1Z" fill="#a1a6e1" fill-rule="evenodd"/><path d="M170.6,172.21s1.43,4.11,1.33,4.91a5.83,5.83,0,0,1-1,2.56l-7-.05a3.25,3.25,0,0,1-3.18-3.8v0a5.62,5.62,0,0,0,.09-.57l.48-3.55c2.18,1.41,6.13,2,9.6,1.06Z" fill="#bbbfea" fill-rule="evenodd"/><path d="M168.72,153.87a1.34,1.34,0,0,1,.36,2.29c-1.3,1.55-.36-2.29-.36-2.29Z" fill="#220350" fill-rule="evenodd"/><polygon points="163.99 161.47 165.44 157.71 168.07 158.88 167.34 162.5 163.99 161.47 163.99 161.47" fill="#d66464" fill-rule="evenodd"/><path d="M169,155.73a2,2,0,0,0-2.21-1.92h0A2,2,0,0,0,165,155.9c0,.62,0,1.29.08,1.88a2.38,2.38,0,0,0,.58,1.38,5.48,5.48,0,0,0,2.11.7c.78-.08,1.37-1.57,1.34-2.36,0-.54,0-1.17-.08-1.77Z" fill="#ed6c6c" fill-rule="evenodd"/><path d="M166.15,155s.26,1.84-1.18,1.88a11.72,11.72,0,0,1-.82-2.51c-.16-1.58,3-1.89,4.29-1.22s.5,1.89-2.29,1.85Z" fill="#220350" fill-rule="evenodd"/><path d="M167.69,160.8c-.88,1.31-3,.12-3.31-.35a4.84,4.84,0,0,0-1.09.55c-1.84,1.27-2.08,6.7-2.4,8.66-.16.92-1,4-.56,4.78.16.26,1.59.06,1.87.11,1.2.21,6.56.63,7.3-.19s.18-2.34.33-3.3a23.34,23.34,0,0,0-.68-9.48Z" fill="#e8e8e8" fill-rule="evenodd"/><path d="M169.67,168c-1,2.77-8.8-.21-7.92-1.54,1.24-1.86-.54,1.28-.86,3.24-.16.92-1,4-.56,4.78.16.26.77,2.39,1,2.4,3.8.14,10.1-.09,10.36-1.16.37-1.51-1.51-5.28-1.63-6.25C169.78,166.92,169.67,168,169.67,168Z" fill="#e8e8e8" fill-rule="evenodd"/><path d="M165,156.06a.65.65,0,0,1,.31,1.22.65.65,0,0,1-.31-1.22Z" fill="#ed6c6c" fill-rule="evenodd"/><polygon points="171.99 193.84 174.23 193.9 173.81 187.17 171.67 187.11 171.99 193.84" fill="#ed6c6c" fill-rule="evenodd"/><polygon points="174.16 193.44 171.82 193.18 171.67 194.92 177.18 194.92 177.18 194.32 174.16 193.44" fill="#220350" fill-rule="evenodd"/><path d="M170,183l-7.55-3.95.8-1.15,5.39-.36,4,1.78a3.19,3.19,0,0,1,1.95,2.92l.18,10-3.53-.1Z" fill="#bbbfea" fill-rule="evenodd"/><path d="M167.19,154.89s3.52-.27,2.7-1.83-3.22,1.59-3.74,1Z" fill="#220350" fill-rule="evenodd"/><path d="M166.9,175.91l2.35,1.25s1.54,1.55.49,2.13-1.37-.27-1.56-.51a3.75,3.75,0,0,1-2-1.85Z" fill="#ed6c6c" fill-rule="evenodd"/><path d="M157.94,168.55v4.59a3.18,3.18,0,0,0,1.54,2.74c1.79,1.06,4.83,2.46,7.56,1.77l.21-1.57-6.14-3,.1-6Z" fill="#ed6c6c" fill-rule="evenodd"/><path d="M163.29,161a8.75,8.75,0,0,0-5.81,8.43h5Z" fill="#e8e8e8" fill-rule="evenodd"/><path d="M182.64,172.15h10.6l3.2-7.13H186.08a.39.39,0,0,0-.34.22Z" fill="#fff" fill-rule="evenodd"/><path d="M183.05,172.15h10.61l3.05-6.8a.24.24,0,0,0-.22-.33H186.4a.23.23,0,0,0-.21.14Z" fill="#b3b7e7" fill-rule="evenodd"/><path d="M189.57,168.63c-.13.44.22.8.77.8a1.28,1.28,0,0,0,1.22-.8c.13-.45-.22-.81-.77-.81A1.29,1.29,0,0,0,189.57,168.63Z" fill="#fff" fill-rule="evenodd"/><path d="M193.24,172.15H176.73a.56.56,0,0,0-.56.55h0a.56.56,0,0,0,.56.56h16.51Z" fill="#b3b7e7" fill-rule="evenodd"/><path d="M165.1,174.12h31.69a.56.56,0,0,0,.56-.55h0a.56.56,0,0,0-.56-.55H165.1a.56.56,0,0,0-.56.55h0A.56.56,0,0,0,165.1,174.12Z" fill="#fff" fill-rule="evenodd"/><path d="M372.49,195.46l-2-1.86-5.09,7.48-2.51.57,1.57,2.41s-1.32-.44.87-.61a2.48,2.48,0,0,0,1.74-.9l2.69-3.23,1.83-2.83Z" fill="#ed6c6c" fill-rule="evenodd"/><path d="M369.25,190s-4,6.23-.21,8,8.06-4.86,6.56-8.65C374.55,186.71,369.25,190,369.25,190Z" fill="#220350" fill-rule="evenodd"/><path d="M370.66,193.43l2,2.22c-.05.19-1.81,4.47-3,4.29l-2.56-2.09Z" fill="#e3eef4" fill-rule="evenodd"/><path d="M369.55,187.79s-1.49,3.77,1.56,3.51S369.55,187.79,369.55,187.79Z" fill="#220350" fill-rule="evenodd"/><path d="M373.44,218.85h0a1.64,1.64,0,0,1-1.63-1.63v-2.16a1.64,1.64,0,0,1,1.63-1.63h0a1.64,1.64,0,0,1,1.64,1.63v2.16A1.64,1.64,0,0,1,373.44,218.85Z" fill="#434655" fill-rule="evenodd"/><path d="M373.37,225.6h0a.67.67,0,0,1-.66-.66V212.77a.66.66,0,0,1,.66-.66h0a.66.66,0,0,1,.67.66v12.17A.67.67,0,0,1,373.37,225.6Z" fill="#434655"/><circle cx="373.74" cy="227.78" r="0.85" fill="#434655"/><circle cx="378.61" cy="227.78" r="0.85" fill="#434655"/><circle cx="368.88" cy="227.78" r="0.85" fill="#434655"/><path d="M379,226.13H367.9a.54.54,0,0,1-.54-.53h0a.54.54,0,0,1,.54-.54H379a.54.54,0,0,1,.54.54h0A.54.54,0,0,1,379,226.13Z" fill="#434655"/><path d="M378.1,214.84H367.5a1.54,1.54,0,0,1-1.53-1.53h0a1.54,1.54,0,0,1,1.53-1.54h10.6a1.54,1.54,0,0,1,1.54,1.54h0A1.54,1.54,0,0,1,378.1,214.84Z" fill="#220350" fill-rule="evenodd"/><rect x="369.55" y="225.13" width="1.44" height="2.36" transform="translate(-5.18 8.7) rotate(-1.34)" fill="#ed6c6c"/><rect x="365.06" y="224.4" width="1.59" height="2.75" transform="translate(-5.93 9.91) rotate(-1.54)" fill="#ed6c6c"/><path d="M366.8,226.8l-2,0-.81.66a11.31,11.31,0,0,1-2.13.8c-.18,0-.05.3-.09.48h5.07C367.08,228.51,367.26,228,366.8,226.8Z" fill="#220350"/><path d="M371.08,226.81l-1.56,0s-.16,1.18-.23,2h2.9c.1,0,0-.48-.15-.45l-.61-.3Z" fill="#220350" fill-rule="evenodd"/><path d="M374.38,186.77s2.67,3.49.1,4.18l-2-2.69Z" fill="#220350" fill-rule="evenodd"/><path d="M369.94,206.4a20.79,20.79,0,0,0-.28,3.46c.2,1.6.35,2.54.35,2.54l6.41.07c1.83,0,3.18-1.87,2.83-4v0c0-.2-.38-1.79-.41-2Z" fill="#796fbf"/><path d="M364.82,225.47c0-.41-1.71-12-1.56-12.95a3.21,3.21,0,0,1,1.82-2.31l7.13-3.55,5.12,4.66-10.23,2.84c1,3.14.29,7.09.12,11.31Z" fill="#796fbf" fill-rule="evenodd"/><path d="M366.48,225.47a4.44,4.44,0,0,0,.19-2.28,24.55,24.55,0,0,1-.52-5.43c.19-3.09-.72-4.49-.65-4.92.18-1.05,10.77-3.41,10.77-3.41l-.8,2.48-8.37,2.25c1,3.22.49,7.12.31,11.31Z" fill="#675fa3" fill-rule="evenodd"/><path d="M369.12,225.64a70.89,70.89,0,0,1-.91-11.14,3.09,3.09,0,0,1,1.43-2.36l6.85-4.7,1,4.8-6.35,3.23c.83,3.13.78,6,.05,10.14Z" fill="#796fbf" fill-rule="evenodd"/><path d="M379,206.8l-.69-9.06c-.23-2.33.71-4.36-.61-4.69-1-.43-2.74-1-2.74-1l-.7-.06-.27-.05c-.85-.14-1.59.43-2.59.78-1.75,1.07-.65,1.8-1.8,4.08-1,1.92.74,3.73.74,3.73l-.39,6.35Z" fill="#fff" fill-rule="evenodd"/><path d="M372.24,190.33l.53,2.57a.9.9,0,0,0,.59.66.91.91,0,0,0,.87-.19l.22-.21a1.12,1.12,0,0,0,.31-1.16c-.34-1.06-.95-3-.95-3l-1.57,1.32Z" fill="#ed6c6c" fill-rule="evenodd"/><path d="M374.32,187.19a1.11,1.11,0,0,0-1.34-.83l-2.08.48a1.12,1.12,0,0,0-.84,1.34c.21.88.5,2.12.7,3a1.11,1.11,0,0,0,1.34.83c.64-.15,1.82-.44,2.13-1.09s.59-.79.45-1.39c-.2-.88-.16-1.46-.36-2.34Z" fill="#ed6c6c" fill-rule="evenodd"/><path d="M370.89,186.51s.34,2.38,3.83,2.48c0,0,.27-2.29-1-2.9A3.2,3.2,0,0,0,370.89,186.51Z" fill="#220350" fill-rule="evenodd"/><path d="M370.16,189.34a2.36,2.36,0,0,1,1.17-2.17.45.45,0,0,0-.44-.66C370.19,186.45,368.72,187.4,370.16,189.34Z" fill="#220350" fill-rule="evenodd"/><path d="M375,189.26c0,.42-.24.75-.55.75s-.56-.33-.56-.75.25-.75.56-.75S375,188.85,375,189.26Z" fill="#ed6c6c" fill-rule="evenodd"/><path d="M376.31,197s1.62,1.75,1.95.74l.29,2.82.2.87.2,5.37-4.47.08Z" fill="#e3eef4" fill-rule="evenodd"/><path d="M368.33,206.65h-5.28a.84.84,0,0,1-.74-.53l-2.21-6.46a.37.37,0,0,1,.37-.53h5.28a.84.84,0,0,1,.74.53l2.21,6.46A.37.37,0,0,1,368.33,206.65Z" fill="#e8e8e8" fill-rule="evenodd"/><path d="M361.92,204.92h0a.83.83,0,0,1-.73-.52l-.43-1.28a.37.37,0,0,1,.37-.52h0a.84.84,0,0,1,.74.53l.43,1.27A.37.37,0,0,1,361.92,204.92Z" fill="#ed6c6c" fill-rule="evenodd"/><path d="M378.35,193.91l2.61,5.8a2.13,2.13,0,0,1-1.08,2.72l-4.3,1.83-.53-1.16,3.53-2.53-1.72-4.19S377.27,194.43,378.35,193.91Z" fill="#ed6c6c" fill-rule="evenodd"/><path d="M373.15,202.92a1.54,1.54,0,0,0-1.06.7c-.73.91-.77.7-.18,1.52.17.23,1,.35,1,.35l1.49-.63s1.94-.14,1.57-1.34C375.67,202.67,373.15,202.92,373.15,202.92Z" fill="#ed6c6c" fill-rule="evenodd"/><path d="M378.08,200.24c-.66-1.18-2.82-5-2.82-5l2.83-2,3,5.16Z" fill="#fff" fill-rule="evenodd"/><polygon points="322.07 227.7 319.83 227.75 320.17 222.3 322.23 222.9 322.07 227.7" fill="#7e4183" fill-rule="evenodd"/><polygon points="319.9 227.29 322.4 227.04 322.4 228.78 316.88 228.78 316.88 228.18 319.9 227.29" fill="#220350" fill-rule="evenodd"/><polygon points="314.62 227.7 312.37 227.75 312.71 222.3 314.77 222.9 314.62 227.7" fill="#7e4183" fill-rule="evenodd"/><polygon points="312.44 227.29 314.94 227.04 314.94 228.78 309.43 228.78 309.43 228.18 312.44 227.29" fill="#220350" fill-rule="evenodd"/><path d="M312.78,183.49s-1.56-.27-3.34,8.44l2.59-.1S313.27,186.12,312.78,183.49Z" fill="#220350"/><path d="M321.36,179a.7.7,0,0,0-.52-.67.73.73,0,0,0,.22-.51.69.69,0,0,0-.69-.69.73.73,0,0,0,.07-.3.7.7,0,0,0-.7-.7.73.73,0,0,0-.3.07,2.86,2.86,0,0,1-1.9-.91.7.7,0,0,0-.68.55.67.67,0,0,0-.52-.25.7.7,0,0,0-.7.7h-.13a.69.69,0,0,0-.69.7.61.61,0,0,0,0,.14.71.71,0,0,0-.59.69.74.74,0,0,1-.12,1.12.68.68,0,0,0,.21.45.67.67,0,0,0-.21.49.69.69,0,0,0,.65.7.8.8,0,0,0-.11.37.7.7,0,1,0,1.4,0,.69.69,0,0,0-.66-.69.7.7,0,0,0-.09-.87.69.69,0,0,0,.2-.55.66.66,0,0,0-.19-.43.71.71,0,0,0,.32-.59.77.77,0,0,0,0-.15.68.68,0,0,0,.59-.68.56.56,0,0,1,.13,0,.71.71,0,0,0,.68-.55.67.67,0,0,0,.52.25.72.72,0,0,0,.53-.24.7.7,0,0,0,.68.54.73.73,0,0,0,.3-.07.7.7,0,0,0,.68.61.59.59,0,0,0-.07.29.7.7,0,0,0,.52.68.65.65,0,0,0-.22.5.64.64,0,0,0,.09.34.72.72,0,0,0-.43.65.58.58,0,0,0,0,.19.71.71,0,0,0-.61.69.7.7,0,0,0,1.4,0,.63.63,0,0,0,0-.19A.71.71,0,0,0,321,180a.75.75,0,0,0-.09-.34A.72.72,0,0,0,321.36,179Z" fill="#220350"/><path d="M315.16,226.75s.51-20.55.62-21.68c.16-1.7.47-2.08.69-2s.38.31.64,1.77c.28,1.63,2.44,21.92,2.44,21.92l3.07.07s-.39-11-.53-13.53c-.1-2-.19-3.76-.27-5.23-.36-7.21-.46-10.45-.46-10.45l-9.33.24s-.38,5.28-.38,6.56c0,8,.31,22.41.31,22.41Z" fill="#fff"/><path d="M323,184.59l-.06.13a23.69,23.69,0,0,0-1.45,4.71c-.17,1-.09,8.18-.09,8.18-3.58,1-9.33.24-9.33.24s0-6.12.63-14.07l2.31-.34,1.16-.17.05-.53,0-.37.09-.92a3.68,3.68,0,0,0,3-.72c0,.16-.06.36-.08.58s0,.4,0,.61c0,.72-.05,1.42-.05,1.42a5.36,5.36,0,0,1,.82.06,7.68,7.68,0,0,1,3,.95l0,0A.2.2,0,0,1,323,184.59Z" fill="#9c4345"/><path d="M325,202.12a10.8,10.8,0,0,0,0,1.12,8,8,0,0,1-.16,2.41,1.07,1.07,0,0,1-.17.15l-.05,0a1.22,1.22,0,0,1-.41.15h0a1.09,1.09,0,0,1-.4,0h0a1.52,1.52,0,0,1-.36-.12,8.82,8.82,0,0,0-.18-1.85s-.21.84-.48.91l-.17-.06s.13-.92.15-1.34a2.61,2.61,0,0,1,.87-1.7S324.67,201.48,325,202.12Z" fill="#9c4345"/><path d="M321.35,188c.13.42.3,1,.48,1.57.59,2,1.34,4.58,1.47,5.38s.12,4.78.11,6.38c0,.41,0,.67,0,.67a1.44,1.44,0,0,0,1.61.62s.07-.32.17-.86a34.91,34.91,0,0,0,.75-6.84,54.17,54.17,0,0,0-1.62-7.35,12.75,12.75,0,0,0-1-2.85,1.39,1.39,0,0,0-1-.59C320.84,184.05,320.86,186.5,321.35,188Z" fill="#9c4345"/><path d="M316.48,178.28a.41.41,0,0,0-.46.05,0,0,0,0,0,0,.06,1.16,1.16,0,0,0,.18,0,.69.69,0,0,1,.2,0A.05.05,0,0,0,316.48,178.28Z" fill="#3b2645"/><path d="M318.35,178.44a.37.37,0,0,0-.52-.09,0,0,0,0,0,0,.09,1.92,1.92,0,0,0,.24,0,1.06,1.06,0,0,1,.19.06S318.36,178.47,318.35,178.44Z" fill="#3b2645"/><path d="M323.77,206h0a14.83,14.83,0,0,0,0-1.88h0A4.63,4.63,0,0,1,323.77,206Z" fill="#753233"/><path d="M324.21,206h0a14.79,14.79,0,0,0,0-1.88s0,0,0,0A4.53,4.53,0,0,1,324.21,206Z" fill="#753233"/><path d="M324.67,205.8l-.05,0a15.12,15.12,0,0,0-.05-1.78s0,0,0,0A4.3,4.3,0,0,1,324.67,205.8Z" fill="#753233"/><path d="M316.21,182.37c2.27.48,2.77-.71,3-1.06,0-.22.05-.42.08-.58a3.68,3.68,0,0,1-3,.72Z" fill="#753233"/><path d="M315.24,179.43s-.06-2.55.61-2.89c1.57-.82,4.75.4,4.35,2.12s-.55,1.24-.55,1.24A32,32,0,0,1,315.24,179.43Z" fill="#220350"/><path d="M315.6,179.09a.49.49,0,0,0-.79,0c-.39.48.28,1.38.79,1.42A11.08,11.08,0,0,0,315.6,179.09Z" fill="#753233"/><path d="M315.69,177.72a2.71,2.71,0,0,0-.3,1.56c-.07,2.05.54,2.69,1.59,2.81s2.14-.29,2.37-2.19c.11-1,.23-1.83-.12-2.24A3.17,3.17,0,0,0,315.69,177.72Z" fill="#9c4345"/><path d="M319.2,179.62s.32-.85.83-.4-.2,1.73-1,1.64C319.06,180.86,319,179.91,319.2,179.62Z" fill="#9c4345"/><path d="M319.79,179.61a.69.69,0,0,0-.31.2.89.89,0,0,0-.22.29s0,.05.06,0l.18-.2a.32.32,0,0,0,.14.12.05.05,0,0,0,.06-.08.28.28,0,0,0-.12-.12,2.27,2.27,0,0,0,.25-.18A0,0,0,0,0,319.79,179.61Z" fill="#753233"/><path d="M319.09,183.34a7.47,7.47,0,0,1,3.79,1l0,0,0,.33a23.69,23.69,0,0,0-1.45,4.71c-.17,1-.09,8.18-.09,8.18-3.58,1-9.33.24-9.33.24s0-6.12.63-14.07l3.47-.51,1.06,1.51Z" fill="#b3b7e7"/><path d="M315.82,183.17s0,5.1-.44,8.9c-.06.55-.13,1.44-.2,2.46-.19,2.69-.38,6.45-.38,6.45s-2.58.17-3.57-.44l.8-10.8a41.51,41.51,0,0,0,.47-6.07c0-.35,2-.37,2.82-.46Z" fill="#402678"/><path d="M315.82,183.17s0,5.1-.44,8.9c-.06.55-.13,1.44-.2,2.46l-.94-8.64.92-.69-.92-.26s.86-1.46,1.08-1.73Z" fill="#220350"/><path d="M326,197.36c-.19,2.22-.65,4.77-.65,4.77-1.9.21-2.12-.41-2.12-.41s-.05-6.2-.1-6.9-1.52-5.56-1.52-5.56c-.28.83.12,11.16.12,11.16a10.2,10.2,0,0,1-3.64.32c0-2.37.06-4.62.18-6.67a90.84,90.84,0,0,1,1.29-10.9l.47.11a25.53,25.53,0,0,1,2.47.68c.93.32,1.37,1.58,1.72,2.93.26,1,1,3.77,1.46,6,.17.81.3,1.55.36,2.1A13.79,13.79,0,0,1,326,197.36Z" fill="#402678"/><path d="M320,185.2l1.06.59-2.76,8.28a90.84,90.84,0,0,1,1.29-10.9l.47.11,1,1.63Z" fill="#220350"/><path d="M309.1,194.34a2,2,0,0,0,1.7,1.94,2.41,2.41,0,0,0,2.1-1.15s-.91-.36-1-1C311.91,194.1,309.34,193.66,309.1,194.34Z" fill="#220350"/><path d="M312.9,195.13a10.5,10.5,0,0,0,2.26-.34c.59-.26.66-.49.66-.49H312S311.86,194.82,312.9,195.13Z" fill="#9c4345"/><path d="M316.14,194.3h-7.79a.46.46,0,0,1-.41-.31l-1.7-5a.21.21,0,0,1,.2-.31h7.79a.49.49,0,0,1,.42.31l1.7,5A.22.22,0,0,1,316.14,194.3Z" fill="#dadeea"/><path d="M319.86,194.3h-4.28a.34.34,0,1,1,0-.67h4.28a.34.34,0,1,1,0,.67Z" fill="#fff"/><path d="M326,197.36a2.47,2.47,0,0,1-1.27-2.23,3.2,3.2,0,0,1,.95-2.24c.17.81.3,1.55.36,2.1A13.79,13.79,0,0,1,326,197.36Z" fill="#220350"/><path d="M310.76,191.47a.37.37,0,0,1,.35-.53.81.81,0,0,1,.71.53.37.37,0,0,1-.35.54A.82.82,0,0,1,310.76,191.47Z" fill="#fff"/><polygon points="243.73 205.62 240.77 205.62 238.75 199.69 241.7 199.69 243.73 205.62" fill="#220350" fill-rule="evenodd"/><polygon points="215.8 224.75 218.02 225.81 219.53 224.08 217.31 223.02 215.8 224.75" fill="#7e4183" fill-rule="evenodd"/><path d="M219.28,228h1.1v1h-1.76l-3.73-3.32.92-1.19,2.32,1.16Z" fill="#220350" fill-rule="evenodd"/><path d="M228,216.3l-9.31,9.21-2.36-2.12c2-2.47,5.24-8.1,8.2-9.23Z" fill="#11003d" fill-rule="evenodd"/><path d="M211.9,208.21s-.71,5.57,3.94,6.2a117.78,117.78,0,0,0,13.7.39s.78-4-2.08-4.66c-3.61-.86-5.49-1.29-5.49-1.29Z" fill="#220350" fill-rule="evenodd"/><path d="M215,194.6l1.12-3.51,2.47.93-.48,3.35a3.29,3.29,0,0,0-3.11-.77Z" fill="#ed6c6c" fill-rule="evenodd"/><path d="M217.16,192.19a3.55,3.55,0,0,0,1.09,2.13l.1-.7.15-1A2.15,2.15,0,0,1,217.16,192.19Z" fill="#d66262" fill-rule="evenodd"/><path d="M215.61,189.35c.33-1.65.45-1.93,1.9-2.21s.49.37,2,.72c.9.2.91,1,.76,2.07a1.44,1.44,0,0,0,.43,1.11c.09.25-.33.43-.45.54s0,1.35-.38,1.56a3.32,3.32,0,0,1-2.5-.09c-1.67-.87-.72-4.25-.72-4.25C216.56,188.23,215.52,189.78,215.61,189.35Z" fill="#ed6c6c"/><path d="M217.48,190.1a12.05,12.05,0,0,1-1.62,2.49c-.41.41-.85-.08-.88-.66-.07-1.15-.89-2.18-.41-3.83.25-.85,2.21-1.3,3.7-1.43,1.73-.14,3.69,2.15.82,2.4l-.88,1.62a.31.31,0,0,1-.56-.05Z" fill="#220350" fill-rule="evenodd"/><path d="M216.73,189.73a.75.75,0,0,1,.86.6.67.67,0,1,1-1.24.38.75.75,0,0,1,.38-1Z" fill="#ed6c6c" fill-rule="evenodd"/><rect x="226.7" y="205.04" width="9.24" height="0.59" transform="translate(462.65 410.66) rotate(180)" fill="#dae1ff"/><rect x="206.17" y="205.62" width="44.63" height="1.11" rx="0.55" fill="#220350"/><path d="M222.29,200.36l-.32,8.49a20,20,0,0,1-10.25-.2c-.4-.3-.47-.83-.09-1.66l-.1-5.62a13.5,13.5,0,0,1,.47-3.85c.43-1.56,1.21-3.27,2.6-3.51a8.15,8.15,0,0,1,3.83.22,4.67,4.67,0,0,1,3.62,4Z" fill="#b3b7e7" fill-rule="evenodd"/><path d="M230.64,203.79s.78-.74,1.39-.54c.29.1.73,0,1.17.2a3.74,3.74,0,0,1,1.05.77.76.76,0,0,1-.43.82c-.2.07-.87-.37-.87-.37a4.64,4.64,0,0,1-2.22.52l-1.4-.06-.64-.8Z" fill="#ed6c6c" fill-rule="evenodd"/><path d="M221.37,196.45l3.79,5.93L230,203a.86.86,0,0,1,.75.86v1.46l-6.58.2-4.31-2.47Z" fill="#b3b7e7" fill-rule="evenodd"/><polygon points="230.75 227.95 232.99 228.01 230.59 221.99 228.53 222.59 230.75 227.95" fill="#7e4183" fill-rule="evenodd"/><polygon points="232.93 227.55 230.43 227.29 230.43 229.03 235.94 229.03 235.94 228.43 232.93 227.55" fill="#220350" fill-rule="evenodd"/><path d="M229.56,212.67,233,226.5l-3.53.12c-1.66-4.41-3.44-8.11-3.78-11.76Z" fill="#220350" fill-rule="evenodd"/><path d="M215.94,219.79h0a1.65,1.65,0,0,1-1.64-1.63V216a1.65,1.65,0,0,1,1.64-1.64h0a1.65,1.65,0,0,1,1.63,1.64v2.16A1.64,1.64,0,0,1,215.94,219.79Z" fill="#434655" fill-rule="evenodd"/><path d="M216.53,213.7v12.17a.66.66,0,0,1-.67.66h0a.66.66,0,0,1-.66-.66V213.7Z" fill="#434655"/><circle cx="215.96" cy="228.01" r="0.85" fill="#434655"/><circle cx="220.82" cy="228.01" r="0.85" fill="#434655"/><circle cx="211.09" cy="228.01" r="0.85" fill="#434655"/><path d="M221.52,226.53H210.39a.54.54,0,0,1-.54-.53h0a.54.54,0,0,1,.54-.54h11.13a.54.54,0,0,1,.54.54h0A.54.54,0,0,1,221.52,226.53Z" fill="#434655"/><path d="M221.14,216.34h-10.6A1.54,1.54,0,0,1,209,214.8h0a1.54,1.54,0,0,1,1.53-1.53h10.6a1.53,1.53,0,0,1,1.53,1.53h0A1.53,1.53,0,0,1,221.14,216.34Z" fill="#fff" fill-rule="evenodd"/><path d="M222.14,204.21l-2.3-2.15v7.2a4.91,4.91,0,0,0,2.13-.41c.38-.3.51-.64,0-1.2Z" fill="#9da2e0" fill-rule="evenodd"/><path d="M245.86,202.24H233a1,1,0,0,1-1-1l.38-8.41a.94.94,0,0,1,.94-.9h12.87a1,1,0,0,1,1,1l-.38,8.42A.94.94,0,0,1,245.86,202.24Z" fill="#dae1ff" fill-rule="evenodd"/><polygon points="232.42 192.84 232.04 201.25 246.8 201.34 247.18 192.92 232.42 192.84" fill="#fff" fill-rule="evenodd"/><rect x="219.82" y="152.52" width="11.52" height="13.97" transform="translate(451.16 319.02) rotate(180)" fill="#b3b7cb" style="mix-blend-mode:multiply"/><rect x="221.98" y="150.58" width="11.52" height="13.97" transform="translate(455.48 315.12) rotate(180)" fill="#fff"/><line x1="229.17" y1="161.96" x2="226.32" y2="161.96" fill="none" stroke="#943dc3" stroke-miterlimit="10" stroke-width="0.73"/><line x1="231.42" y1="158.61" x2="224.06" y2="158.61" fill="none" stroke="#943dc3" stroke-miterlimit="10" stroke-width="0.73"/><line x1="231.42" y1="155.99" x2="224.06" y2="155.99" fill="none" stroke="#943dc3" stroke-miterlimit="10" stroke-width="0.73"/><line x1="231.42" y1="153.37" x2="224.06" y2="153.37" fill="none" stroke="#943dc3" stroke-miterlimit="10" stroke-width="0.73"/><rect x="24.84" y="109.37" width="33.29" height="19.08" fill="#b3b7cb" style="mix-blend-mode:multiply"/><rect x="26.95" y="107.51" width="33.29" height="19.08" fill="#fff"/><rect x="28.98" y="111.33" width="28.9" height="13.18" fill="none" stroke="#b3b7e7" stroke-miterlimit="10" stroke-width="0.55"/><line x1="57.89" y1="113.02" x2="28.98" y2="113.02" fill="none" stroke="#b3b7e7" stroke-miterlimit="10" stroke-width="0.55"/><line x1="57.89" y1="115.32" x2="28.98" y2="115.32" fill="none" stroke="#b3b7e7" stroke-miterlimit="10" stroke-width="0.55"/><line x1="57.89" y1="117.62" x2="28.98" y2="117.62" fill="none" stroke="#b3b7e7" stroke-miterlimit="10" stroke-width="0.55"/><line x1="57.89" y1="119.91" x2="28.98" y2="119.91" fill="none" stroke="#b3b7e7" stroke-miterlimit="10" stroke-width="0.55"/><line x1="57.89" y1="122.21" x2="28.98" y2="122.21" fill="none" stroke="#b3b7e7" stroke-miterlimit="10" stroke-width="0.55"/><line x1="31.92" y1="113.02" x2="31.92" y2="124.51" fill="none" stroke="#b3b7e7" stroke-miterlimit="10" stroke-width="0.55"/><line x1="34.73" y1="113.02" x2="34.73" y2="124.51" fill="none" stroke="#b3b7e7" stroke-miterlimit="10" stroke-width="0.55"/><line x1="37.55" y1="113.02" x2="37.55" y2="124.51" fill="none" stroke="#b3b7e7" stroke-miterlimit="10" stroke-width="0.55"/><line x1="40.36" y1="113.02" x2="40.36" y2="124.51" fill="none" stroke="#b3b7e7" stroke-miterlimit="10" stroke-width="0.55"/><line x1="43.18" y1="113.02" x2="43.18" y2="124.51" fill="none" stroke="#b3b7e7" stroke-miterlimit="10" stroke-width="0.55"/><line x1="45.99" y1="113.02" x2="45.99" y2="124.51" fill="none" stroke="#b3b7e7" stroke-miterlimit="10" stroke-width="0.55"/><rect x="28.84" y="108.85" width="1.67" height="1.07" fill="#b3b7e7"/><rect x="31.56" y="108.85" width="13.06" height="1.07" fill="#dae1ff"/><rect x="264.91" y="198.39" width="18.03" height="12.42" fill="#b3b7cb" style="mix-blend-mode:multiply"/><rect x="266.8" y="196.71" width="18.03" height="12.42" fill="#fff"/><rect x="268.63" y="200.16" width="14.08" height="7.1" fill="none" stroke="#b3b7e7" stroke-miterlimit="10" stroke-width="0.55"/><line x1="276.22" y1="201.68" x2="276.22" y2="207.26" fill="none" stroke="#b3b7e7" stroke-miterlimit="10" stroke-width="0.55"/><line x1="282.71" y1="201.68" x2="268.63" y2="201.68" fill="none" stroke="#b3b7e7" stroke-miterlimit="10" stroke-width="0.55"/><rect x="268.51" y="197.92" width="1.5" height="0.96" fill="#b3b7e7"/><rect x="270.95" y="197.92" width="11.76" height="0.96" fill="#dae1ff"/><polyline points="-44.66 185.68 146.1 185.69 146.1 195.2 192.31 195.2 192.31 229.99" fill="none" stroke="#08a8ff" stroke-miterlimit="10" stroke-width="0.73"/><path d="M192.23,230.31c.37,0,.61-.64.16-.64s-.61.64-.16.64Z" fill="#bd03ad"/><line x1="500.11" y1="229.95" x2="10.36" y2="229.95" fill="none" stroke="#96968c" stroke-miterlimit="10" stroke-width="0.73"/><line x1="522.55" y1="229.95" x2="-34.23" y2="229.95" fill="none" stroke="#fff" stroke-miterlimit="10" stroke-width="2.2"/><g opacity="0.4"><g style="mix-blend-mode:overlay"><polyline points="35.18 201.27 59.94 201.27 69.85 211.18 116.76 211.18" fill="none" stroke="#dae1ff" stroke-miterlimit="10" stroke-width="0.73"/><polyline points="116.76 211.18 83.45 211.18 78.42 216.21 62.35 216.21 56.27 210.13 45.18 210.13" fill="none" stroke="#dae1ff" stroke-miterlimit="10" stroke-width="0.73"/><line x1="76.08" y1="201.38" x2="125.59" y2="201.38" fill="none" stroke="#dae1ff" stroke-miterlimit="10" stroke-width="0.73"/><polyline points="84.45 192.38 133.96 192.38 144.94 203.37 154.75 203.37" fill="none" stroke="#dae1ff" stroke-miterlimit="10" stroke-width="0.73"/><polyline points="24.32 201.38 24.32 212.51 35.22 212.51 35.22 221.77" fill="none" stroke="#dae1ff" stroke-miterlimit="10" stroke-width="0.73"/><line x1="24.32" y1="192.38" x2="73.83" y2="192.38" fill="none" stroke="#dae1ff" stroke-miterlimit="10" stroke-width="0.73"/><polyline points="45.28 222.38 96.43 222.07 99.58 218.92 165.15 218.92" fill="none" stroke="#dae1ff" stroke-miterlimit="10" stroke-width="0.73"/><polyline points="165.65 203.22 173.47 203.22 173.47 222.38 182.81 222.38" fill="none" stroke="#dae1ff" stroke-miterlimit="10" stroke-width="0.73"/><line x1="182.81" y1="203.28" x2="182.81" y2="215.19" fill="none" stroke="#dae1ff" stroke-miterlimit="10" stroke-width="0.73"/><line x1="126.92" y1="211.07" x2="165.65" y2="211.07" fill="none" stroke="#dae1ff" stroke-miterlimit="10" stroke-width="0.73"/><circle cx="24.32" cy="201.38" r="1.25" fill="#dae1ff"/><circle cx="24.32" cy="222.38" r="1.25" fill="#dae1ff"/><circle cx="182.81" cy="222.38" r="1.25" fill="#dae1ff"/><circle cx="182.81" cy="215.19" r="1.25" fill="#dae1ff"/><circle cx="182.81" cy="203.28" r="1.25" fill="#dae1ff"/><circle cx="35.18" cy="201.27" r="1.25" fill="#dae1ff"/><circle cx="35.18" cy="222.38" r="1.25" fill="#dae1ff"/><circle cx="116.76" cy="211.07" r="1.25" fill="#dae1ff"/><circle cx="76.08" cy="201.38" r="1.25" fill="#dae1ff"/><circle cx="125.59" cy="201.38" r="1.25" fill="#dae1ff"/><circle cx="84.45" cy="192.38" r="1.25" fill="#dae1ff"/><circle cx="154.75" cy="203.22" r="1.25" fill="#dae1ff"/><circle cx="24.32" cy="192.38" r="1.25" fill="#dae1ff"/><circle cx="73.83" cy="192.38" r="1.25" fill="#dae1ff"/><circle cx="45.28" cy="222.38" r="1.25" fill="#dae1ff"/><circle cx="45.28" cy="210.14" r="1.25" fill="#dae1ff"/><circle cx="165.65" cy="218.92" r="1.25" fill="#dae1ff"/><circle cx="165.65" cy="211.07" r="1.25" fill="#dae1ff"/><circle cx="126.92" cy="211.07" r="1.25" fill="#dae1ff"/><circle cx="165.65" cy="203.22" r="1.25" fill="#dae1ff"/></g></g><rect x="176.23" y="120.3" width="11.52" height="13.97" fill="#b3b7cb" style="mix-blend-mode:multiply"/><rect x="178.81" y="117.98" width="11.52" height="13.97" fill="#dae1ff"/><rect x="181.38" y="115.67" width="11.52" height="13.97" fill="#fff"/><line x1="185.72" y1="118.25" x2="188.57" y2="118.25" fill="none" stroke="#08a8ff" stroke-miterlimit="10" stroke-width="0.73"/><line x1="183.46" y1="121.6" x2="190.83" y2="121.6" fill="none" stroke="#08a8ff" stroke-miterlimit="10" stroke-width="0.73"/><line x1="183.46" y1="124.22" x2="190.83" y2="124.22" fill="none" stroke="#08a8ff" stroke-miterlimit="10" stroke-width="0.73"/><line x1="183.46" y1="126.84" x2="190.83" y2="126.84" fill="none" stroke="#08a8ff" stroke-miterlimit="10" stroke-width="0.73"/><rect x="269.1" y="172.19" width="11.52" height="13.97" transform="translate(549.73 358.36) rotate(180)" fill="#b3b7cb" style="mix-blend-mode:multiply"/><rect x="271.27" y="170.25" width="11.52" height="13.97" transform="translate(554.06 354.47) rotate(180)" fill="#fff"/><line x1="278.45" y1="181.63" x2="275.6" y2="181.63" fill="none" stroke="#943dc3" stroke-miterlimit="10" stroke-width="0.73"/><line x1="280.71" y1="178.28" x2="273.35" y2="178.28" fill="none" stroke="#943dc3" stroke-miterlimit="10" stroke-width="0.73"/><line x1="280.71" y1="175.66" x2="273.35" y2="175.66" fill="none" stroke="#943dc3" stroke-miterlimit="10" stroke-width="0.73"/><line x1="280.71" y1="173.04" x2="273.35" y2="173.04" fill="none" stroke="#943dc3" stroke-miterlimit="10" stroke-width="0.73"/><rect x="359.11" y="167.97" width="15.19" height="9.98" fill="#b3b7cb" style="mix-blend-mode:multiply"/><rect x="361.05" y="166.44" width="15.19" height="9.98" fill="#fff"/><g clip-path="url(#g)"><polyline points="366.33 171.1 358.69 177.68 378.85 177.68 370.86 171.11" fill="none" stroke="#dae1ff" stroke-miterlimit="10" stroke-width="0.73"/><polygon points="368.56 172.96 359.67 165.56 377.63 165.56 368.56 172.96" fill="none" stroke="#b3b7e7" stroke-miterlimit="10" stroke-width="0.73"/></g><rect x="89.79" y="156.87" width="15.19" height="9.98" fill="#b3b7cb" style="mix-blend-mode:multiply"/><rect x="91.73" y="155.34" width="15.19" height="9.98" fill="#fff"/><g clip-path="url(#h)"><polyline points="97.01 160 89.37 166.58 109.53 166.58 101.54 160.01" fill="none" stroke="#dae1ff" stroke-miterlimit="10" stroke-width="0.73"/><polygon points="99.24 161.86 90.35 154.47 108.31 154.47 99.24 161.86" fill="none" stroke="#b3b7e7" stroke-miterlimit="10" stroke-width="0.73"/></g><rect x="121.97" y="162.75" width="11.52" height="13.97" fill="#b3b7e7"/><rect x="124.55" y="165.06" width="11.52" height="13.97" fill="#dae1ff"/><rect x="127.12" y="167.37" width="11.52" height="13.97" fill="#fff"/><line x1="131.46" y1="170.17" x2="134.31" y2="170.17" fill="none" stroke="#08cbff" stroke-miterlimit="10" stroke-width="0.73"/><line x1="129.2" y1="173.52" x2="136.56" y2="173.52" fill="none" stroke="#08cbff" stroke-miterlimit="10" stroke-width="0.73"/><line x1="129.2" y1="176.14" x2="136.56" y2="176.14" fill="none" stroke="#08cbff" stroke-miterlimit="10" stroke-width="0.73"/><line x1="129.2" y1="178.76" x2="136.56" y2="178.76" fill="none" stroke="#08cbff" stroke-miterlimit="10" stroke-width="0.73"/><rect x="235.26" y="81.88" width="58.04" height="38.88" fill="url(#i)"/><g style="mix-blend-mode:multiply"><path d="M238.68,86.19h12.74" fill="none" stroke="#958f9b" stroke-linecap="round" stroke-linejoin="round" stroke-width="0.73"/><path d="M239,89H250.1" fill="none" stroke="#958f9b" stroke-linecap="round" stroke-linejoin="round" stroke-width="0.73"/><path d="M238.08,91.78h8.53" fill="none" stroke="#958f9b" stroke-linecap="round" stroke-linejoin="round" stroke-width="0.73"/><path d="M240.57,97.33a20.16,20.16,0,0,1,16.9-.4c1.79.77,3.48,1.81,5.32,2.43a12.46,12.46,0,0,0,10.41-1.21" fill="none" stroke="#958f9b" stroke-linecap="round" stroke-linejoin="round" stroke-width="0.73"/><path d="M270.35,97.72a4.91,4.91,0,0,0,3.09.31" fill="none" stroke="#958f9b" stroke-linecap="round" stroke-linejoin="round" stroke-width="0.73"/><path d="M273.64,98.21a6.39,6.39,0,0,0-1.63,2.47" fill="none" stroke="#958f9b" stroke-linecap="round" stroke-linejoin="round" stroke-width="0.73"/><path d="M279.8,85.55a6.63,6.63,0,0,0-2.72,2.61,4.88,4.88,0,0,0-.42,3.79,5.2,5.2,0,0,0,4.09,3.21,7.47,7.47,0,0,0,4-.34,3.88,3.88,0,0,0,1.53-.92,4.36,4.36,0,0,0,.94-1.84,6,6,0,0,0,.27-2.23,5.05,5.05,0,0,0-3-4,6.82,6.82,0,0,0-4.95-.09" fill="none" stroke="#958f9b" stroke-linecap="round" stroke-linejoin="round" stroke-width="0.73"/><path d="M240.4,112.72c1.36-2.53,2.83-5,4.41-7.38" fill="none" stroke="#958f9b" stroke-linecap="round" stroke-linejoin="round" stroke-width="0.73"/><path d="M244.94,105.09a44.35,44.35,0,0,0,4.2,7.5" fill="none" stroke="#958f9b" stroke-linecap="round" stroke-linejoin="round" stroke-width="0.73"/><path d="M240.74,112.94l8.41-.27" fill="none" stroke="#958f9b" stroke-linecap="round" stroke-linejoin="round" stroke-width="0.73"/><path d="M254.08,102.88q.3,6.34.2,12.69" fill="none" stroke="#958f9b" stroke-linecap="round" stroke-linejoin="round" stroke-width="0.73"/><path d="M275.58,102.88q.32,6.34.2,12.69" fill="none" stroke="#958f9b" stroke-linecap="round" stroke-linejoin="round" stroke-width="0.73"/><path d="M254.89,115.7h20.6" fill="none" stroke="#958f9b" stroke-linecap="round" stroke-linejoin="round" stroke-width="0.73"/><path d="M254.18,111a3.93,3.93,0,0,1,4-1.64,17.77,17.77,0,0,1,4.32,1.61,6.54,6.54,0,0,0,4.47.57c1.51-.49,2.63-1.87,4.12-2.43a8,8,0,0,1,4.3.29" fill="none" stroke="#958f9b" stroke-linecap="round" stroke-linejoin="round" stroke-width="0.73"/><path d="M258,109.86v5.33" fill="none" stroke="#958f9b" stroke-linecap="round" stroke-linejoin="round" stroke-width="0.73"/><path d="M261,110.37v5.33" fill="none" stroke="#958f9b" stroke-linecap="round" stroke-linejoin="round" stroke-width="0.73"/><path d="M263.66,111.39v4.44" fill="none" stroke="#958f9b" stroke-linecap="round" stroke-linejoin="round" stroke-width="0.73"/><path d="M266.66,111.77v3.93" fill="none" stroke="#958f9b" stroke-linecap="round" stroke-linejoin="round" stroke-width="0.73"/><path d="M269.54,110.5v5.07" fill="none" stroke="#958f9b" stroke-linecap="round" stroke-linejoin="round" stroke-width="0.73"/><path d="M273,109v6.6" fill="none" stroke="#958f9b" stroke-linecap="round" stroke-linejoin="round" stroke-width="0.73"/><path d="M282.57,85.27l-.3,5.58" fill="none" stroke="#958f9b" stroke-linecap="round" stroke-linejoin="round" stroke-width="0.73"/><path d="M282.29,90.91a17.37,17.37,0,0,0,4.91-1.09" fill="none" stroke="#958f9b" stroke-linecap="round" stroke-linejoin="round" stroke-width="0.73"/><path d="M282.38,91q1.77,1.51,3.63,2.88" fill="none" stroke="#958f9b" stroke-linecap="round" stroke-linejoin="round" stroke-width="0.73"/><path d="M278.91,106.83l9.26.22" fill="none" stroke="#958f9b" stroke-linecap="round" stroke-linejoin="round" stroke-width="0.73"/><path d="M278.67,109.55l9.5.16" fill="none" stroke="#958f9b" stroke-linecap="round" stroke-linejoin="round" stroke-width="0.73"/><path d="M283.12,113.16h4.32" fill="none" stroke="#958f9b" stroke-linecap="round" stroke-linejoin="round" stroke-width="0.73"/></g><path d="M234.55,103.48a1.73,1.73,0,0,1-1.89.48,17.17,17.17,0,0,1-5-3.42l-.23-.2s-1.61-3.18.12-5.72a.26.26,0,0,1,.37-.06c.15.12.39.32.73.62.8.72,2.14,2,4.18,4.22,0,0,1.17-4.78,1.75-6.87.06-.25.12-.45.17-.61l1.82.42s0,.23,0,.63C236.67,94.93,236.76,101,234.55,103.48Z" fill="#9c4345"/><path d="M234.72,91.92s1.08.94,1.82.42a4.68,4.68,0,0,1,.41-1.41,9.66,9.66,0,0,0,1.11-2.69,1.46,1.46,0,0,0-.09-.3,1.19,1.19,0,0,0-.12-.22.87.87,0,0,0-.27-.27.51.51,0,0,0-.16-.09.94.94,0,0,0-.31-.09l-.2,0h-.07a.34.34,0,0,0-.31.2,8.77,8.77,0,0,1-1.08,1.8s.2-1.06-.06-1.27l-.23,0a9.72,9.72,0,0,1-.46,1.87A3.19,3.19,0,0,0,234.72,91.92Z" fill="#9c4345"/><path d="M236,89.12s0,0,0,0a4.76,4.76,0,0,0,1.13-1.86l-.2,0A6.6,6.6,0,0,1,236,89.12Z" fill="#753233"/><path d="M236.41,89.39s0,0,0,0a4.58,4.58,0,0,0,1.15-2,.51.51,0,0,0-.16-.09A7.27,7.27,0,0,1,236.41,89.39Z" fill="#753233"/><path d="M236.87,89.68s0,0,0,0A4.57,4.57,0,0,0,238,87.94a1.19,1.19,0,0,0-.12-.22A7.2,7.2,0,0,1,236.87,89.68Z" fill="#753233"/><path d="M235.5,89.41c.3.2.3.82.2,1.12,0,0-.09,0-.08,0a3.75,3.75,0,0,0,0-.58,2.44,2.44,0,0,1-.12-.52S235.49,89.4,235.5,89.41Z" fill="#753233"/><path d="M224.51,89s.07-3.17-.76-3.59c-1.95-1-5.9.49-5.4,2.63s.68,1.54.68,1.54S224.35,89.3,224.51,89Z" fill="#3b2645"/><path d="M224.06,88.6a.61.61,0,0,1,1,0c.49.59-.35,1.71-1,1.76A12.78,12.78,0,0,1,224.06,88.6Z" fill="#753233"/><path d="M227.09,107a21,21,0,0,1-9.31,0s-.78-4.31-1-5.56a30.61,30.61,0,0,0-1.88-6,.24.24,0,0,1,.1-.29A9.64,9.64,0,0,1,218.4,94a11,11,0,0,1,1.33-.11s0-.31,0-.74,0-.66,0-1a13.16,13.16,0,0,0-.16-1.48,4.57,4.57,0,0,0,3.68.9l.15,1.58v0l.06.64s.79,0,1.72.08a6.46,6.46,0,0,1,2.59.57C229.77,95.75,227.09,107,227.09,107Z" fill="#753233"/><path d="M224,86.9a3.4,3.4,0,0,1,.38,1.94c.08,2.54-.68,3.34-2,3.48s-2.66-.36-2.94-2.72c-.14-1.18-.29-2.27.14-2.78C220.19,86.06,223,85.86,224,86.9Z" fill="#9c4345"/><path d="M219.59,89.26s-.4-1.06-1-.5.24,2.15,1.2,2C219.76,90.79,219.89,89.62,219.59,89.26Z" fill="#9c4345"/><path d="M212.34,117.19s0,.62,0,1.4a9.71,9.71,0,0,0,.21,3,.9.9,0,0,0,.21.18l.06,0a1.54,1.54,0,0,0,.5.2h0a1.47,1.47,0,0,0,.51,0h0a1.88,1.88,0,0,0,.45-.16,10.79,10.79,0,0,1,.22-2.28s.27,1,.59,1.12l.23-.07s-.17-1.15-.19-1.67a3.24,3.24,0,0,0-1.09-2.11S212.8,116.41,212.34,117.19Z" fill="#9c4345"/><path d="M216.92,99.69c-.16.51-.37,1.19-.6,2-.73,2.43-1.66,5.68-1.82,6.68s-.15,5.94-.13,7.92v.83a1.77,1.77,0,0,1-2,.78s-.09-.41-.22-1.08a43.84,43.84,0,0,1-.93-8.49,69.48,69.48,0,0,1,2-9.13,16.46,16.46,0,0,1,1.28-3.54,1.73,1.73,0,0,1,1.25-.72C217.55,94.75,217.53,97.8,216.92,99.69Z" fill="#9c4345"/><path d="M218.86,89.24a1,1,0,0,1,.38.25,1.25,1.25,0,0,1,.28.36s-.05.07-.07,0-.15-.17-.23-.25a.52.52,0,0,1-.18.15c-.06,0-.1-.05-.08-.1a.57.57,0,0,1,.16-.15,2.18,2.18,0,0,1-.31-.22A0,0,0,0,1,218.86,89.24Z" fill="#753233"/><path d="M213.92,122h0a16.53,16.53,0,0,1,.06-2.33s0,0,0,0A5.48,5.48,0,0,0,213.92,122Z" fill="#753233"/><path d="M213.36,122h0a16.53,16.53,0,0,1,.06-2.33s0,0,0,0A5.71,5.71,0,0,0,213.36,122Z" fill="#753233"/><path d="M212.8,121.76l.06,0a18.23,18.23,0,0,1,.06-2.21s0,0,0,0A5.13,5.13,0,0,0,212.8,121.76Z" fill="#753233"/><polygon points="217.93 145.71 220.17 145.76 220.22 141.51 218.07 141.45 217.93 145.71" fill="#b3b7e7" fill-rule="evenodd"/><polygon points="220.1 145.3 217.75 145.05 217.6 146.78 223.12 146.78 223.12 146.18 220.1 145.3" fill="#220350" fill-rule="evenodd"/><polygon points="226.03 145.71 228.27 145.76 229.05 141.29 226.91 141.23 226.03 145.71" fill="#b3b7e7" fill-rule="evenodd"/><polygon points="228.21 145.3 225.86 145.05 225.71 146.78 231.22 146.78 231.22 146.18 228.21 145.3" fill="#220350" fill-rule="evenodd"/><path d="M220.6,144.6l2.32-26L226.44,131a1.88,1.88,0,0,1,.05.47l-1.11,13.09h3.49L231,131.1a2.17,2.17,0,0,0,0-.36l-2.52-19.4s-4.51.44-12.08,4l1.09,29.21Z" fill="#220350"/><path d="M236.58,93c-1.53.25-2-.44-2-.44a39.8,39.8,0,0,0-1.82,6.56l-1.06-1.35s-3-3.26-4.09-3.65a18.39,18.39,0,0,0-4.18-.31l-.06-.64v0a2.21,2.21,0,0,0-1.64.73,4.49,4.49,0,0,0-2-.71c0,.43,0,.74,0,.74-.26,0-4.93-.05-5.91,2.35a31.67,31.67,0,0,0-1.48,5s-1.74,5.84-1.49,7.92,1.29,7.92,1.29,7.92a2.22,2.22,0,0,0,2.23-.77l.54-7.49,1.89-7.31c0,.08.18,8.31-.39,14a.13.13,0,0,0,.07.11c.26.35,1.35,1.41,5.42,2.15l1-2,1.1,2s3.5-1.34,4.58-3.39a.5.5,0,0,0,.18-.42c-.79-9.77-.48-12.53-.48-12.53l1.63,1.46a4.58,4.58,0,0,0,.53.47l.05.05h0a3.46,3.46,0,0,0,3,.78s2-.07,2.87-4A18.73,18.73,0,0,0,236.58,93Z" fill="#fff"/><path d="M216.19,114.69l.61-13.25a26.28,26.28,0,0,0,.85-7.42l1.16-.09.36,0,3.71,8.42,1.63-8.54a2.56,2.56,0,0,1,.77,0,2.43,2.43,0,0,1,.52.09l2.51,7.49.75,13.38Z" fill="#b3b7e7"/><path d="M219.17,93.9l3.71,8.42-3.33-3.23.73-1.1-1.21-.15s-.22-3.09-.26-3.91Z" fill="#796fbf"/><path d="M224.59,97.74l.78,1-2.49,3.62,1.63-8.54a1.34,1.34,0,0,1,.54-.07l.57,3.91Z" fill="#796fbf"/><line x1="223.03" y1="102.62" x2="223.03" y2="114.24" fill="none" stroke="#8695c2" stroke-miterlimit="10" stroke-width="0.37"/><path d="M223.81,103.78a.26.26,0,0,0,0,.51A.26.26,0,0,0,223.81,103.78Z" fill="#8695c2"/><path d="M224,106.71a.24.24,0,0,0,0,.48A.24.24,0,0,0,224,106.71Z" fill="#8695c2"/><path d="M224,109.54a.28.28,0,0,0,0,.56A.28.28,0,0,0,224,109.54Z" fill="#8695c2"/><polygon points="293.3 65.14 75.71 65.14 75.71 33.02 261.18 33.02 293.3 65.14" fill="#ccc" style="mix-blend-mode:multiply"/><g style="mix-blend-mode:color-dodge"><path d="M95.45,44v.42H94.22v-.5c0-2.07-.78-3.64-2.91-3.64S88.4,41.83,88.4,43.9c0,4.76,7.08,4.85,7.08,10.25,0,2.83-1.23,4.9-4.22,4.9S87,57,87,54.15v-1h1.23v1.09c0,2.1.81,3.62,3,3.62s3-1.52,3-3.62c0-4.7-7.09-4.78-7.09-10.24,0-2.94,1.29-4.85,4.17-4.88S95.45,41.19,95.45,44Z" fill="#fff"/><path d="M101.14,58.88V40.46h-4V39.28h9.27v1.18h-4V58.88Z" fill="#fff"/><path d="M109.12,54.54l-1,4.34H107l4.29-19.63h1.87l4.37,19.63H116.2l-1-4.34Zm.19-1.12H115l-2.89-12.68Z" fill="#fff"/><path d="M123.85,39.28c2.94,0,4,1.46,4,4.18v1.11c0,2.13-.59,3.45-2.58,3.87,2.13.42,2.94,2,2.94,4.2v1.71c0,2.82-1.28,4.53-4.28,4.53h-4.2V39.28Zm-.65,8.65c2.3,0,3.36-.61,3.36-3.1V43.57c0-2-.64-3.11-2.74-3.11H121v7.47Zm.73,9.78c2.16,0,3-1.21,3-3.39V52.55c0-2.54-1.15-3.44-3.48-3.44H121v8.6Z" fill="#fff"/><path d="M130.59,58.88V39.28h1.29V57.71H138v1.17Z" fill="#fff"/><path d="M146.89,48.35v1.18h-5.35v8.18H148v1.17h-7.73V39.28H148v1.18h-6.44v7.89Z" fill="#fff"/><path d="M154.9,44.07c0-2.86,1.31-5,4.28-5s4.34,2.1,4.34,5v10c0,2.86-1.31,5-4.34,5s-4.28-2.1-4.28-5Zm1.29,10.11c0,2.13.84,3.7,3,3.7s3-1.57,3-3.7V44c0-2.13-.86-3.7-3-3.7s-3,1.57-3,3.7Z" fill="#fff"/><path d="M170,39.28c3,0,4.2,1.91,4.2,4.76v2.13c0,3.11-1.43,4.65-4.54,4.65h-2.43v8.06h-1.29V39.28Zm-.34,10.36c2.27,0,3.25-1,3.25-3.39V44c0-2.13-.73-3.5-2.91-3.5h-2.77v9.18Z" fill="#fff"/><path d="M183,48.35v1.18h-5.35v8.18h6.44v1.17H176.4V39.28h7.73v1.18h-6.44v7.89Z" fill="#fff"/><path d="M190.6,39.28c3,0,4.2,1.65,4.2,4.43v1.71c0,2.29-.9,3.61-2.83,4,2,.45,2.83,1.88,2.83,4v3.05a4.38,4.38,0,0,0,.47,2.35h-1.34a4.56,4.56,0,0,1-.42-2.35V53.45c0-2.6-1.43-3.33-3.67-3.33h-2v8.76h-1.29V39.28Zm-.73,9.66c2.3,0,3.64-.64,3.64-3.27V43.82c0-2.1-.81-3.36-2.94-3.36H187.8v8.48Z" fill="#fff"/><path d="M199.47,54.54l-1,4.34h-1.17l4.28-19.63h1.88l4.37,19.63h-1.29l-1-4.34Zm.2-1.12h5.71L202.5,40.74Z" fill="#fff"/><path d="M212.32,58.88V40.46h-4V39.28h9.27v1.18h-4V58.88Z" fill="#fff"/><path d="M220.78,39.28v19.6h-1.29V39.28Z" fill="#fff"/><path d="M223.22,44.07c0-2.86,1.31-5,4.28-5s4.34,2.1,4.34,5v10c0,2.86-1.32,5-4.34,5s-4.28-2.1-4.28-5Zm1.29,10.11c0,2.13.83,3.7,3,3.7s3.05-1.57,3.05-3.7V44c0-2.13-.87-3.7-3.05-3.7s-3,1.57-3,3.7Z" fill="#fff"/><path d="M235.42,58.88h-1.17V39.28h1.68l5.88,16.55V39.28H243v19.6h-1.43l-6.14-17.47Z" fill="#fff"/><path d="M253.74,44v.42H252.5v-.5c0-2.07-.78-3.64-2.91-3.64s-2.91,1.54-2.91,3.61c0,4.76,7.08,4.85,7.08,10.25,0,2.83-1.23,4.9-4.22,4.9s-4.23-2.07-4.23-4.9v-1h1.23v1.09c0,2.1.81,3.62,3,3.62s3-1.52,3-3.62c0-4.7-7.09-4.78-7.09-10.24,0-2.94,1.29-4.85,4.17-4.88S253.74,41.19,253.74,44Z" fill="#fff"/></g></g></g></svg>