<svg xmlns="http://www.w3.org/2000/svg" xmlns:xlink="http://www.w3.org/1999/xlink" viewBox="0 0 1000 549"><defs><linearGradient id="a" x1="-26.55" y1="305.92" x2="1013.1" y2="305.92" gradientUnits="userSpaceOnUse"><stop offset="0" stop-color="#3d026e"/><stop offset="1" stop-color="#951abb"/></linearGradient><linearGradient id="b" x1="30.47" y1="551.68" x2="99.67" y2="482.48" gradientUnits="userSpaceOnUse"><stop offset="0" stop-color="#939a9a"/><stop offset="1" stop-color="#ccc"/></linearGradient></defs><g style="isolation:isolate"><path d="M-46.74,422.53H270.55a20,20,0,0,0,14.14-5.86L458.9,242.46A20,20,0,0,1,473,236.61h153.3a20,20,0,0,0,14.14-5.86L813,58.26a20,20,0,0,1,14.14-5.86h188.58V499.88H-46.74Z" fill="#4521b0" stroke="#4521b0" stroke-miterlimit="10" stroke-width="2"/><path d="M-26.55,422.8H290.74a20,20,0,0,0,14.14-5.86L479.23,242.6a20,20,0,0,1,14.14-5.86H646.53a20,20,0,0,0,14.14-5.86L833.23,58.32a20,20,0,0,1,14.15-5.85H1013.1V559.38H-26.55Z" fill="url(#a)"/><g opacity="0.4" style="mix-blend-mode:overlay"><line x1="318.87" y1="531.37" x2="533.36" y2="531.37" fill="none" stroke="#dae1ff" stroke-miterlimit="10" stroke-width="1.5"/><circle cx="319" cy="531.37" r="2.54" fill="#dae1ff"/><circle cx="533.23" cy="531.37" r="2.54" fill="#dae1ff"/><polyline points="214.37 515.75 285.11 515.75 285.11 531.38 242.5 531.38" fill="none" stroke="#dae1ff" stroke-miterlimit="10" stroke-width="1.5"/><circle cx="214.5" cy="515.75" r="2.54" fill="#dae1ff"/><circle cx="242.62" cy="531.37" r="2.54" fill="#dae1ff"/><polyline points="260.38 501.6 188.98 501.6 188.98 531.38 218.18 531.38" fill="none" stroke="#dae1ff" stroke-miterlimit="10" stroke-width="1.5"/><circle cx="260.25" cy="501.6" r="2.54" fill="#dae1ff"/><circle cx="218.05" cy="531.37" r="2.54" fill="#dae1ff"/><polyline points="328.08 452.27 319.72 460.63 319.72 501.6 277.51 501.6" fill="none" stroke="#dae1ff" stroke-miterlimit="10" stroke-width="1.5"/><circle cx="328" cy="452.36" r="2.54" transform="translate(-143.59 752.05) rotate(-86.49)" fill="#dae1ff"/><circle cx="277.64" cy="501.6" r="2.54" fill="#dae1ff"/><polyline points="409.96 487.61 378.24 487.61 378.24 466.8 391 454.04" fill="none" stroke="#dae1ff" stroke-miterlimit="10" stroke-width="1.5"/><circle cx="409.84" cy="487.61" r="2.54" fill="#dae1ff"/><path d="M392.71,455.92a2.54,2.54,0,1,0-3.59,0A2.54,2.54,0,0,0,392.71,455.92Z" fill="#dae1ff"/><polyline points="409.96 487.61 378.24 487.61 378.24 448.38" fill="none" stroke="#dae1ff" stroke-miterlimit="10" stroke-width="1.5"/><circle cx="409.84" cy="487.61" r="2.54" fill="#dae1ff"/><path d="M380.78,448.5a2.54,2.54,0,1,0-2.54,2.54A2.54,2.54,0,0,0,380.78,448.5Z" fill="#dae1ff"/><line x1="376.73" y1="502.66" x2="401.49" y2="502.66" fill="none" stroke="#dae1ff" stroke-miterlimit="10" stroke-width="1.5"/><circle cx="376.86" cy="502.66" r="2.54" fill="#dae1ff"/><circle cx="401.36" cy="502.66" r="2.54" fill="#dae1ff"/><line x1="533.36" y1="502.66" x2="483.29" y2="502.66" fill="none" stroke="#dae1ff" stroke-miterlimit="10" stroke-width="1.5"/><circle cx="533.23" cy="502.66" r="2.54" fill="#dae1ff"/><circle cx="483.42" cy="502.66" r="2.54" fill="#dae1ff"/><polyline points="489.53 479.69 489.53 488.8 520.88 488.8" fill="none" stroke="#dae1ff" stroke-miterlimit="10" stroke-width="1.5"/><circle cx="489.53" cy="479.82" r="2.54" transform="translate(-141.1 748.47) rotate(-67.5)" fill="#dae1ff"/><circle cx="520.76" cy="488.8" r="2.54" fill="#dae1ff"/><polyline points="330.54 440.12 304.74 440.12 304.74 485.16" fill="none" stroke="#dae1ff" stroke-miterlimit="10" stroke-width="1.5"/><path d="M330.41,437.58a2.54,2.54,0,1,1-2.54,2.54A2.54,2.54,0,0,1,330.41,437.58Z" fill="#dae1ff"/><path d="M302.21,485a2.54,2.54,0,1,0,2.53-2.54A2.54,2.54,0,0,0,302.21,485Z" fill="#dae1ff"/><polyline points="290.54 485.16 290.54 440.12 158.99 440.12" fill="none" stroke="#dae1ff" stroke-miterlimit="10" stroke-width="1.5"/><path d="M293.08,485a2.54,2.54,0,1,1-2.54-2.54A2.54,2.54,0,0,1,293.08,485Z" fill="#dae1ff"/><path d="M159.11,437.58a2.54,2.54,0,1,0,2.54,2.54A2.54,2.54,0,0,0,159.11,437.58Z" fill="#dae1ff"/><polyline points="186.81 466.28 277.78 466.28 277.78 485.74 210.73 485.74" fill="none" stroke="#dae1ff" stroke-miterlimit="10" stroke-width="1.5"/><circle cx="186.93" cy="466.28" r="2.54" fill="#dae1ff"/><circle cx="210.86" cy="485.74" r="2.54" fill="#dae1ff"/><line x1="562.9" y1="281.03" x2="714.04" y2="281.03" fill="none" stroke="#dae1ff" stroke-miterlimit="10" stroke-width="1.5"/><circle cx="563.03" cy="281.03" r="2.54" fill="#dae1ff"/><circle cx="713.91" cy="281.03" r="2.54" fill="#dae1ff"/><line x1="652" y1="335.6" x2="652" y2="348.15" fill="none" stroke="#dae1ff" stroke-miterlimit="10" stroke-width="1.5"/><path d="M649.46,335.73a2.54,2.54,0,1,1,2.54,2.54A2.54,2.54,0,0,1,649.46,335.73Z" fill="#dae1ff"/><path d="M649.46,348a2.54,2.54,0,1,0,2.54-2.54A2.54,2.54,0,0,0,649.46,348Z" fill="#dae1ff"/><line x1="638.47" y1="354.86" x2="638.47" y2="335.6" fill="none" stroke="#dae1ff" stroke-miterlimit="10" stroke-width="1.5"/><path d="M641,354.73a2.54,2.54,0,1,1-2.54-2.54A2.54,2.54,0,0,1,641,354.73Z" fill="#dae1ff"/><path d="M641,335.73a2.54,2.54,0,1,0-2.54,2.54A2.54,2.54,0,0,0,641,335.73Z" fill="#dae1ff"/><polyline points="627.83 354.83 627.83 321.75 661.39 321.75" fill="none" stroke="#dae1ff" stroke-miterlimit="10" stroke-width="1.5"/><path d="M630.37,354.7a2.54,2.54,0,1,1-2.54-2.54A2.54,2.54,0,0,1,630.37,354.7Z" fill="#dae1ff"/><circle cx="661.27" cy="321.74" r="2.54" fill="#dae1ff"/><polyline points="671 310.58 615.9 310.58 615.9 354.83" fill="none" stroke="#dae1ff" stroke-miterlimit="10" stroke-width="1.5"/><path d="M670,308.19a2.54,2.54,0,1,1-1.56,3.23A2.52,2.52,0,0,1,670,308.19Z" fill="#dae1ff"/><path d="M613.37,354.7a2.54,2.54,0,1,0,2.53-2.54A2.54,2.54,0,0,0,613.37,354.7Z" fill="#dae1ff"/><polyline points="601.07 324.13 601.07 299.44 670.85 299.44" fill="none" stroke="#dae1ff" stroke-miterlimit="10" stroke-width="1.5"/><path d="M603.6,324a2.54,2.54,0,1,1-2.53-2.54A2.54,2.54,0,0,1,603.6,324Z" fill="#dae1ff"/><circle cx="670.72" cy="299.44" r="2.54" fill="#dae1ff"/><polyline points="495.41 399.8 495.41 340.71 536.63 299.44 570.51 299.44" fill="none" stroke="#dae1ff" stroke-miterlimit="10" stroke-width="1.5"/><path d="M498,399.68a2.54,2.54,0,1,1-2.54-2.54A2.54,2.54,0,0,1,498,399.68Z" fill="#dae1ff"/><path d="M570.38,302a2.54,2.54,0,1,0-2.54-2.54A2.54,2.54,0,0,0,570.38,302Z" fill="#dae1ff"/><line x1="477.06" y1="361.53" x2="477.06" y2="399.8" fill="none" stroke="#dae1ff" stroke-miterlimit="10" stroke-width="1.5"/><path d="M474.52,361.66a2.54,2.54,0,1,1,2.54,2.54A2.54,2.54,0,0,1,474.52,361.66Z" fill="#dae1ff"/><path d="M474.52,399.68a2.54,2.54,0,1,0,2.54-2.54A2.54,2.54,0,0,0,474.52,399.68Z" fill="#dae1ff"/><polyline points="834.71 279.63 908.42 279.63 891.99 263.2 836.6 263.2" fill="none" stroke="#dae1ff" stroke-miterlimit="10" stroke-width="1.5"/><circle cx="834.83" cy="279.62" r="2.54" fill="#dae1ff"/><circle cx="836.72" cy="263.2" r="2.54" fill="#dae1ff"/><polyline points="811.57 279.63 755.33 279.63 729.5 253.79 656.87 253.79" fill="none" stroke="#dae1ff" stroke-miterlimit="10" stroke-width="1.5"/><circle cx="811.44" cy="279.62" r="2.54" fill="#dae1ff"/><circle cx="657" cy="253.79" r="2.54" fill="#dae1ff"/><polyline points="733.03 279.66 724.38 270.74 656.87 270.74" fill="none" stroke="#dae1ff" stroke-miterlimit="10" stroke-width="1.5"/><path d="M734.77,277.8a2.54,2.54,0,1,1-3.59-.05A2.54,2.54,0,0,1,734.77,277.8Z" fill="#dae1ff"/><circle cx="657" cy="270.74" r="2.54" fill="#dae1ff"/><line x1="859.66" y1="316.24" x2="911.83" y2="316.24" fill="none" stroke="#dae1ff" stroke-miterlimit="10" stroke-width="1.5"/><circle cx="859.79" cy="316.24" r="2.54" fill="#dae1ff"/><circle cx="911.7" cy="316.24" r="2.54" fill="#dae1ff"/><polyline points="781.8 250.04 897.55 250.04 929.51 282.01 929.51 297.4 840.82 297.4" fill="none" stroke="#dae1ff" stroke-miterlimit="10" stroke-width="1.5"/><circle cx="781.93" cy="250.04" r="2.54" fill="#dae1ff"/><circle cx="840.95" cy="297.4" r="2.54" fill="#dae1ff"/><polyline points="944.17 393.54 963.83 413.2 963.83 421.67 945.61 421.67" fill="none" stroke="#dae1ff" stroke-miterlimit="10" stroke-width="1.5"/><path d="M942.47,395.43a2.53,2.53,0,1,1,3.58,0A2.52,2.52,0,0,1,942.47,395.43Z" fill="#dae1ff"/><circle cx="945.74" cy="421.67" r="2.54" fill="#dae1ff"/><polyline points="962.52 364.39 982.18 384.05 982.18 269.28" fill="none" stroke="#dae1ff" stroke-miterlimit="10" stroke-width="1.5"/><circle cx="962.61" cy="364.48" r="2.54" transform="translate(476.56 1271.79) rotate(-82.56)" fill="#dae1ff"/><path d="M984.72,269.41a2.54,2.54,0,1,0-2.54,2.54A2.54,2.54,0,0,0,984.72,269.41Z" fill="#dae1ff"/><polyline points="929.51 227.57 929.51 321.24 916.01 334.73 853.57 334.73 828.95 310.12" fill="none" stroke="#dae1ff" stroke-miterlimit="10" stroke-width="1.5"/><path d="M927,227.7a2.54,2.54,0,1,1,2.53,2.53A2.54,2.54,0,0,1,927,227.7Z" fill="#dae1ff"/><path d="M830.84,308.42a2.53,2.53,0,1,0,0,3.58A2.52,2.52,0,0,0,830.84,308.42Z" fill="#dae1ff"/><polyline points="869.95 360.01 913 360.01 913 345.56 890.31 345.56" fill="none" stroke="#dae1ff" stroke-miterlimit="10" stroke-width="1.5"/><circle cx="870.07" cy="360.01" r="2.54" fill="#dae1ff"/><circle cx="890.44" cy="345.56" r="2.54" fill="#dae1ff"/><polyline points="781.64 147.35 881.11 147.35 893.47 159.71" fill="none" stroke="#dae1ff" stroke-miterlimit="10" stroke-width="1.5"/><circle cx="781.77" cy="147.35" r="2.54" fill="#dae1ff"/><circle cx="893.38" cy="159.62" r="2.54" transform="translate(-4.36 26.71) rotate(-1.71)" fill="#dae1ff"/><polyline points="914.24 237.12 914.24 147.04 883.44 116.24 807.41 116.24 792.47 131.18" fill="none" stroke="#dae1ff" stroke-miterlimit="10" stroke-width="1.5"/><path d="M916.78,237a2.54,2.54,0,1,1-2.54-2.54A2.54,2.54,0,0,1,916.78,237Z" fill="#dae1ff"/><path d="M790.76,129.29a2.54,2.54,0,1,0,3.59,0A2.54,2.54,0,0,0,790.76,129.29Z" fill="#dae1ff"/><polyline points="914.24 237.12 914.24 147.04 898.35 131.15 822.68 131.15" fill="none" stroke="#dae1ff" stroke-miterlimit="10" stroke-width="1.5"/><path d="M916.78,237a2.54,2.54,0,1,1-2.54-2.54A2.54,2.54,0,0,1,916.78,237Z" fill="#dae1ff"/><circle cx="822.8" cy="131.15" r="2.54" fill="#dae1ff"/><polyline points="961.52 251.75 945.88 267.39 945.88 308.25 961.24 323.61 961.24 350.03 943.2 350.03 943.2 367.12 990.42 414.34 990.42 436.59 943.2 436.59 943.2 530.25 960.17 530.25 960.17 458.4 988.01 458.4" fill="none" stroke="#dae1ff" stroke-miterlimit="10" stroke-width="1.5"/><circle cx="961.43" cy="251.84" r="2.54" transform="translate(692.69 1208.69) rotate(-88.99)" fill="#dae1ff"/><circle cx="987.89" cy="458.4" r="2.54" fill="#dae1ff"/><line x1="946.12" y1="326.02" x2="946.12" y2="337.66" fill="none" stroke="#dae1ff" stroke-miterlimit="10" stroke-width="1.5"/><path d="M943.58,326.15a2.54,2.54,0,1,1,2.54,2.54A2.54,2.54,0,0,1,943.58,326.15Z" fill="#dae1ff"/><path d="M943.58,337.53a2.54,2.54,0,1,0,2.54-2.54A2.54,2.54,0,0,0,943.58,337.53Z" fill="#dae1ff"/><line x1="960.18" y1="269.28" x2="960.18" y2="307.44" fill="none" stroke="#dae1ff" stroke-miterlimit="10" stroke-width="1.5"/><path d="M957.64,269.41a2.54,2.54,0,1,1,2.54,2.54A2.54,2.54,0,0,1,957.64,269.41Z" fill="#dae1ff"/><path d="M957.64,307.31a2.54,2.54,0,1,0,2.54-2.54A2.54,2.54,0,0,0,957.64,307.31Z" fill="#dae1ff"/><line x1="960.18" y1="125.41" x2="960.18" y2="163.56" fill="none" stroke="#dae1ff" stroke-miterlimit="10" stroke-width="1.5"/><path d="M957.64,125.53a2.54,2.54,0,1,1,2.54,2.54A2.53,2.53,0,0,1,957.64,125.53Z" fill="#dae1ff"/><path d="M957.64,163.43a2.54,2.54,0,1,0,2.54-2.54A2.54,2.54,0,0,0,957.64,163.43Z" fill="#dae1ff"/><polyline points="920.48 131.59 906.3 117.41 947.12 117.41 947.12 175.06 1014.05 242 1014.05 264.99 946.73 197.66 946.73 236.08 960.82 236.08" fill="none" stroke="#dae1ff" stroke-miterlimit="10" stroke-width="1.5"/><path d="M922.19,129.71a2.54,2.54,0,1,1-3.59,0A2.54,2.54,0,0,1,922.19,129.71Z" fill="#dae1ff"/><circle cx="960.69" cy="236.08" r="2.54" fill="#dae1ff"/><line x1="929.51" y1="140.04" x2="929.51" y2="208.39" fill="none" stroke="#dae1ff" stroke-miterlimit="10" stroke-width="1.5"/><path d="M927,140.16a2.54,2.54,0,1,1,2.53,2.54A2.54,2.54,0,0,1,927,140.16Z" fill="#dae1ff"/><path d="M927,208.26a2.54,2.54,0,1,0,2.53-2.54A2.54,2.54,0,0,0,927,208.26Z" fill="#dae1ff"/><line x1="876.47" y1="182.74" x2="820.82" y2="182.74" fill="none" stroke="#dae1ff" stroke-miterlimit="10" stroke-width="1.5"/><circle cx="876.35" cy="182.74" r="2.54" fill="#dae1ff"/><circle cx="820.95" cy="182.74" r="2.54" fill="#dae1ff"/><line x1="781.64" y1="202.09" x2="876.47" y2="202.09" fill="none" stroke="#dae1ff" stroke-miterlimit="10" stroke-width="1.5"/><circle cx="781.77" cy="202.09" r="2.54" fill="#dae1ff"/><circle cx="876.35" cy="202.09" r="2.54" fill="#dae1ff"/><polyline points="767.86 217.94 893.99 217.94 893.99 167.03 781.64 167.03" fill="none" stroke="#dae1ff" stroke-miterlimit="10" stroke-width="1.5"/><circle cx="767.99" cy="217.94" r="2.54" fill="#dae1ff"/><circle cx="781.77" cy="167.03" r="2.54" fill="#dae1ff"/><polyline points="842.92 75.44 982.18 75.44 982.18 186.5 965.58 169.9 965.58 90.5" fill="none" stroke="#dae1ff" stroke-miterlimit="10" stroke-width="1.5"/><path d="M843,78a2.54,2.54,0,1,1,2.54-2.53A2.54,2.54,0,0,1,843,78Z" fill="#dae1ff"/><circle cx="965.57" cy="90.63" r="2.54" transform="translate(38.82 376.41) rotate(-22.5)" fill="#dae1ff"/><polyline points="713.57 200.78 675.79 238.56 729.44 238.56 729.44 186.5 763.75 152.19" fill="none" stroke="#dae1ff" stroke-miterlimit="10" stroke-width="1.5"/><circle cx="713.48" cy="200.87" r="2.54" transform="translate(502.67 911.48) rotate(-89.2)" fill="#dae1ff"/><circle cx="763.66" cy="152.28" r="2.54" transform="translate(-13.93 110.76) rotate(-8.22)" fill="#dae1ff"/><polyline points="815.4 263.26 763.2 263.26 748.37 248.43 748.37 188.91" fill="none" stroke="#dae1ff" stroke-miterlimit="10" stroke-width="1.5"/><circle cx="815.28" cy="263.26" r="2.54" fill="#dae1ff"/><path d="M750.91,189a2.54,2.54,0,1,0-2.54,2.54A2.54,2.54,0,0,0,750.91,189Z" fill="#dae1ff"/><polyline points="777.21 382.73 777.21 323.88 752.43 299.1" fill="none" stroke="#dae1ff" stroke-miterlimit="10" stroke-width="1.5"/><circle cx="777.21" cy="382.6" r="2.54" transform="translate(126.3 954.23) rotate(-67.5)" fill="#dae1ff"/><path d="M754.31,297.4a2.54,2.54,0,1,0,0,3.59A2.54,2.54,0,0,0,754.31,297.4Z" fill="#dae1ff"/><polyline points="735.21 395.2 735.21 413.02 638.01 413.02" fill="none" stroke="#dae1ff" stroke-miterlimit="10" stroke-width="1.5"/><path d="M732.68,395.33a2.54,2.54,0,1,1,2.53,2.53A2.53,2.53,0,0,1,732.68,395.33Z" fill="#dae1ff"/><path d="M638.14,410.48a2.54,2.54,0,1,0,2.54,2.54A2.54,2.54,0,0,0,638.14,410.48Z" fill="#dae1ff"/><line x1="638.01" y1="392.79" x2="707.87" y2="392.79" fill="none" stroke="#dae1ff" stroke-miterlimit="10" stroke-width="1.5"/><path d="M638.14,395.33a2.54,2.54,0,1,1,2.54-2.54A2.54,2.54,0,0,1,638.14,395.33Z" fill="#dae1ff"/><circle cx="707.75" cy="392.79" r="2.54" fill="#dae1ff"/><polyline points="777.21 382.73 777.21 297.95 790.24 297.95" fill="none" stroke="#dae1ff" stroke-miterlimit="10" stroke-width="1.5"/><circle cx="777.21" cy="382.6" r="2.54" transform="translate(126.3 954.23) rotate(-67.5)" fill="#dae1ff"/><path d="M790.11,300.49a2.54,2.54,0,1,0-2.54-2.54A2.54,2.54,0,0,0,790.11,300.49Z" fill="#dae1ff"/><line x1="929.5" y1="339.84" x2="929.5" y2="490.19" fill="none" stroke="#dae1ff" stroke-miterlimit="10" stroke-width="1.5"/><path d="M927,340a2.54,2.54,0,1,1,2.53,2.54A2.53,2.53,0,0,1,927,340Z" fill="#dae1ff"/><path d="M927,490.07a2.54,2.54,0,1,0,2.53-2.54A2.54,2.54,0,0,0,927,490.07Z" fill="#dae1ff"/><polyline points="916.79 456.98 916.79 414.36 901.17 414.36 901.17 485.1" fill="none" stroke="#dae1ff" stroke-miterlimit="10" stroke-width="1.5"/><circle cx="916.79" cy="456.85" r="2.54" transform="translate(143.87 1129.02) rotate(-67.5)" fill="#dae1ff"/><path d="M898.63,485a2.54,2.54,0,1,0,2.54-2.54A2.54,2.54,0,0,0,898.63,485Z" fill="#dae1ff"/><polyline points="903.58 379.47 916.79 379.47 916.79 392.32" fill="none" stroke="#dae1ff" stroke-miterlimit="10" stroke-width="1.5"/><circle cx="903.71" cy="379.47" r="2.54" fill="#dae1ff"/><circle cx="916.79" cy="392.19" r="2.54" transform="translate(-80.3 380.69) rotate(-22.5)" fill="#dae1ff"/><polyline points="887.01 439.1 887.01 510.5 916.79 510.5 916.79 481.3" fill="none" stroke="#dae1ff" stroke-miterlimit="10" stroke-width="1.5"/><path d="M884.48,439.23a2.54,2.54,0,1,1,2.53,2.53A2.53,2.53,0,0,1,884.48,439.23Z" fill="#dae1ff"/><circle cx="916.79" cy="481.43" r="2.54" transform="translate(-114.45 387.49) rotate(-22.5)" fill="#dae1ff"/><polyline points="837.68 371.39 846.05 379.75 887.01 379.75 887.01 421.96" fill="none" stroke="#dae1ff" stroke-miterlimit="10" stroke-width="1.5"/><path d="M836,373.28a2.54,2.54,0,1,1,3.59,0A2.54,2.54,0,0,1,836,373.28Z" fill="#dae1ff"/><path d="M884.48,421.84A2.54,2.54,0,1,0,887,419.3,2.54,2.54,0,0,0,884.48,421.84Z" fill="#dae1ff"/><polyline points="825.53 368.94 825.53 394.73 870.57 394.73" fill="none" stroke="#dae1ff" stroke-miterlimit="10" stroke-width="1.5"/><path d="M823,369.07a2.54,2.54,0,1,1,2.54,2.53A2.53,2.53,0,0,1,823,369.07Z" fill="#dae1ff"/><circle cx="870.44" cy="394.73" r="2.54" fill="#dae1ff"/><polyline points="870.57 408.93 825.53 408.93 825.53 483.58 810.94 498.18" fill="none" stroke="#dae1ff" stroke-miterlimit="10" stroke-width="1.5"/><circle cx="870.44" cy="408.93" r="2.54" fill="#dae1ff"/><path d="M809.24,496.29a2.53,2.53,0,1,0,3.58,0A2.52,2.52,0,0,0,809.24,496.29Z" fill="#dae1ff"/><polyline points="871.16 511.98 871.16 530.85 929.5 530.85 929.5 512.91" fill="none" stroke="#dae1ff" stroke-miterlimit="10" stroke-width="1.5"/><circle cx="871.16" cy="512.11" r="2.54" transform="translate(-129.66 372.36) rotate(-22.5)" fill="#dae1ff"/><path d="M932,513a2.54,2.54,0,1,0-2.54,2.54A2.54,2.54,0,0,0,932,513Z" fill="#dae1ff"/><polyline points="851.7 528.44 851.7 421.69 871.16 421.69 871.16 488.74" fill="none" stroke="#dae1ff" stroke-miterlimit="10" stroke-width="1.5"/><path d="M854.23,528.31a2.54,2.54,0,1,1-2.53-2.54A2.54,2.54,0,0,1,854.23,528.31Z" fill="#dae1ff"/><path d="M868.62,488.62a2.54,2.54,0,1,0,2.54-2.54A2.54,2.54,0,0,0,868.62,488.62Z" fill="#dae1ff"/><polyline points="810.51 300.37 810.51 312.17 858.52 360.17" fill="none" stroke="#dae1ff" stroke-miterlimit="10" stroke-width="1.5"/><path d="M808,300.49a2.54,2.54,0,1,1,2.53,2.54A2.54,2.54,0,0,1,808,300.49Z" fill="#dae1ff"/><path d="M856.63,361.87a2.53,2.53,0,1,0,0-3.58A2.52,2.52,0,0,0,856.63,361.87Z" fill="#dae1ff"/><polyline points="810.51 300.37 810.51 331.17 817.85 338.51" fill="none" stroke="#dae1ff" stroke-miterlimit="10" stroke-width="1.5"/><path d="M808,300.49a2.54,2.54,0,1,1,2.53,2.54A2.54,2.54,0,0,1,808,300.49Z" fill="#dae1ff"/><circle cx="817.76" cy="338.42" r="2.54" transform="translate(-9.73 24.54) rotate(-1.71)" fill="#dae1ff"/><polyline points="588.04 300.02 588.04 325.75 564.19 349.59 564.19 399.8" fill="none" stroke="#dae1ff" stroke-miterlimit="10" stroke-width="1.5"/><path d="M585.5,300.15a2.54,2.54,0,1,1,2.54,2.54A2.54,2.54,0,0,1,585.5,300.15Z" fill="#dae1ff"/><path d="M561.66,399.68a2.54,2.54,0,1,0,2.53-2.54A2.53,2.53,0,0,0,561.66,399.68Z" fill="#dae1ff"/><polyline points="523.1 333.71 511.15 345.66 511.15 399.8" fill="none" stroke="#dae1ff" stroke-miterlimit="10" stroke-width="1.5"/><circle cx="523" cy="333.8" r="2.54" fill="#dae1ff"/><path d="M508.61,399.68a2.54,2.54,0,1,0,2.54-2.54A2.54,2.54,0,0,0,508.61,399.68Z" fill="#dae1ff"/><polyline points="535.24 321.57 545.92 310.88 571.19 310.88 571.19 325.75 547.34 349.59 547.34 399.8" fill="none" stroke="#dae1ff" stroke-miterlimit="10" stroke-width="1.5"/><circle cx="535.33" cy="321.48" r="2.54" fill="#dae1ff"/><path d="M544.8,399.68a2.54,2.54,0,1,0,2.54-2.54A2.54,2.54,0,0,0,544.8,399.68Z" fill="#dae1ff"/><polyline points="556.42 520.26 556.42 500.18 502.92 446.68 502.92 436.2" fill="none" stroke="#dae1ff" stroke-miterlimit="10" stroke-width="1.5"/><path d="M559,520.13a2.54,2.54,0,1,1-2.53-2.53A2.53,2.53,0,0,1,559,520.13Z" fill="#dae1ff"/><path d="M505.45,436.33a2.54,2.54,0,1,0-2.53,2.53A2.53,2.53,0,0,0,505.45,436.33Z" fill="#dae1ff"/><polyline points="577.98 461.31 629.16 461.31 648.91 481.05 764.89 481.05" fill="none" stroke="#dae1ff" stroke-miterlimit="10" stroke-width="1.5"/><circle cx="578.11" cy="461.31" r="2.54" fill="#dae1ff"/><circle cx="764.76" cy="481.05" r="2.54" fill="#dae1ff"/><polyline points="764.89 481.05 675.99 481.05 661.02 496.02 636.77 496.02 619.98 477.07 597.4 477.07" fill="none" stroke="#dae1ff" stroke-miterlimit="10" stroke-width="1.5"/><circle cx="764.76" cy="481.05" r="2.54" fill="#dae1ff"/><circle cx="597.53" cy="477.08" r="2.54" fill="#dae1ff"/><line x1="615.17" y1="493.56" x2="597.4" y2="493.56" fill="none" stroke="#dae1ff" stroke-miterlimit="10" stroke-width="1.5"/><circle cx="615.05" cy="493.56" r="2.54" fill="#dae1ff"/><circle cx="597.53" cy="493.56" r="2.54" fill="#dae1ff"/><line x1="663.72" y1="461.54" x2="720.73" y2="461.54" fill="none" stroke="#dae1ff" stroke-miterlimit="10" stroke-width="1.5"/><circle cx="663.85" cy="461.54" r="2.54" fill="#dae1ff"/><circle cx="720.6" cy="461.54" r="2.54" fill="#dae1ff"/><polyline points="632.58 442.75 722.18 442.75 747.77 468.34 764.89 468.34" fill="none" stroke="#dae1ff" stroke-miterlimit="10" stroke-width="1.5"/><circle cx="632.71" cy="442.75" r="2.54" fill="#dae1ff"/><circle cx="764.76" cy="468.34" r="2.54" fill="#dae1ff"/><polyline points="558.24 463.95 558.24 483.71 579.95 483.71 579.95 499.73" fill="none" stroke="#dae1ff" stroke-miterlimit="10" stroke-width="1.5"/><path d="M555.7,464.07a2.54,2.54,0,1,1,2.54,2.54A2.54,2.54,0,0,1,555.7,464.07Z" fill="#dae1ff"/><circle cx="579.95" cy="499.6" r="2.54" fill="#dae1ff"/><line x1="522.21" y1="443.62" x2="615.98" y2="443.62" fill="none" stroke="#dae1ff" stroke-miterlimit="10" stroke-width="1.5"/><circle cx="522.34" cy="443.62" r="2.54" fill="#dae1ff"/><circle cx="615.85" cy="443.62" r="2.54" fill="#dae1ff"/><polyline points="743.21 496.47 708.11 496.47 696.01 508.56 594.99 509.18 594.99 522.67 695.11 522.67" fill="none" stroke="#dae1ff" stroke-miterlimit="10" stroke-width="1.5"/><circle cx="743.08" cy="496.47" r="2.54" fill="#dae1ff"/><circle cx="694.99" cy="522.67" r="2.54" fill="#dae1ff"/><line x1="743.21" y1="530.85" x2="558.83" y2="530.85" fill="none" stroke="#dae1ff" stroke-miterlimit="10" stroke-width="1.5"/><circle cx="743.08" cy="530.85" r="2.54" fill="#dae1ff"/><circle cx="558.95" cy="530.85" r="2.54" fill="#dae1ff"/><polyline points="792.65 481.79 792.65 496.47 757 496.47 757 530.27 757 530.85 801.68 530.85" fill="none" stroke="#dae1ff" stroke-miterlimit="10" stroke-width="1.5"/><path d="M790.12,481.92a2.54,2.54,0,1,1,2.54,2.54A2.54,2.54,0,0,1,790.12,481.92Z" fill="#dae1ff"/><circle cx="801.55" cy="530.85" r="2.54" fill="#dae1ff"/><line x1="743.21" y1="515.75" x2="720.98" y2="515.75" fill="none" stroke="#dae1ff" stroke-miterlimit="10" stroke-width="1.5"/><circle cx="743.08" cy="515.75" r="2.54" fill="#dae1ff"/><circle cx="721.11" cy="515.75" r="2.54" fill="#dae1ff"/><line x1="820.34" y1="518.35" x2="769.71" y2="518.35" fill="none" stroke="#dae1ff" stroke-miterlimit="10" stroke-width="1.5"/><circle cx="820.22" cy="518.35" r="2.54" fill="#dae1ff"/><circle cx="769.84" cy="518.35" r="2.54" fill="#dae1ff"/><polyline points="742.94 442.14 761.58 442.14 761.58 455.15" fill="none" stroke="#dae1ff" stroke-miterlimit="10" stroke-width="1.5"/><circle cx="743.07" cy="442.14" r="2.54" fill="#dae1ff"/><circle cx="761.58" cy="455.03" r="2.54" transform="translate(-116.16 326.08) rotate(-22.5)" fill="#dae1ff"/><polyline points="504.77 472.3 487.13 454.66 487.13 435.77" fill="none" stroke="#dae1ff" stroke-miterlimit="10" stroke-width="1.5"/><path d="M506.47,470.42a2.53,2.53,0,1,1-3.58,0A2.52,2.52,0,0,1,506.47,470.42Z" fill="#dae1ff"/><path d="M489.67,435.9a2.54,2.54,0,1,0-2.54,2.54A2.54,2.54,0,0,0,489.67,435.9Z" fill="#dae1ff"/><polyline points="494.46 417.38 463.64 417.38 463.64 354.06 548.14 269.55 625 269.55" fill="none" stroke="#dae1ff" stroke-miterlimit="10" stroke-width="1.5"/><circle cx="494.33" cy="417.38" r="2.54" fill="#dae1ff"/><circle cx="624.87" cy="269.55" r="2.54" fill="#dae1ff"/><polyline points="761.39 389.21 761.39 409.25 792.65 409.25 792.65 466.56" fill="none" stroke="#dae1ff" stroke-miterlimit="10" stroke-width="1.5"/><path d="M758.85,389.34a2.54,2.54,0,1,1,2.54,2.53A2.54,2.54,0,0,1,758.85,389.34Z" fill="#dae1ff"/><path d="M790.11,466.43a2.54,2.54,0,1,0,2.54-2.54A2.54,2.54,0,0,0,790.11,466.43Z" fill="#dae1ff"/><line x1="792.65" y1="374.72" x2="792.65" y2="466.55" fill="none" stroke="#dae1ff" stroke-miterlimit="10" stroke-width="1.5"/><path d="M790.11,374.85a2.54,2.54,0,1,1,2.54,2.54A2.54,2.54,0,0,1,790.11,374.85Z" fill="#dae1ff"/><path d="M790.11,466.43a2.54,2.54,0,1,0,2.54-2.54A2.54,2.54,0,0,0,790.11,466.43Z" fill="#dae1ff"/><polyline points="811.36 390.96 811.36 359.1 793.71 341.45" fill="none" stroke="#dae1ff" stroke-miterlimit="10" stroke-width="1.5"/><circle cx="811.36" cy="390.84" r="2.54" transform="translate(139.78 990.87) rotate(-67.5)" fill="#dae1ff"/><path d="M795.59,339.74a2.54,2.54,0,1,0,0,3.59A2.54,2.54,0,0,0,795.59,339.74Z" fill="#dae1ff"/><line x1="436.69" y1="387.42" x2="448.9" y2="399.62" fill="none" stroke="#dae1ff" stroke-miterlimit="10" stroke-width="1.5"/><path d="M435,389.3a2.54,2.54,0,1,1,3.59,0A2.54,2.54,0,0,1,435,389.3Z" fill="#dae1ff"/><circle cx="448.81" cy="399.53" r="2.54" fill="#dae1ff"/><polyline points="417.54 386.3 386.76 386.3 374.38 398.68" fill="none" stroke="#dae1ff" stroke-miterlimit="10" stroke-width="1.5"/><circle cx="417.41" cy="386.3" r="2.54" fill="#dae1ff"/><circle cx="374.47" cy="398.59" r="2.54" transform="translate(-54.23 59) rotate(-8.4)" fill="#dae1ff"/><polyline points="626.24 253.79 493.77 253.79 323.44 424.12" fill="none" stroke="#dae1ff" stroke-miterlimit="10" stroke-width="1.5"/><circle cx="626.11" cy="253.79" r="2.54" fill="#dae1ff"/><path d="M321.74,422.23a2.54,2.54,0,1,0,3.59,0A2.54,2.54,0,0,0,321.74,422.23Z" fill="#dae1ff"/><line x1="523.8" y1="273.6" x2="426.55" y2="370.85" fill="none" stroke="#dae1ff" stroke-miterlimit="10" stroke-width="1.5"/><path d="M521.91,271.9a2.54,2.54,0,1,1,0,3.59A2.54,2.54,0,0,1,521.91,271.9Z" fill="#dae1ff"/><path d="M424.85,369a2.54,2.54,0,1,0,3.59,0A2.54,2.54,0,0,0,424.85,369Z" fill="#dae1ff"/><line x1="403.29" y1="369.77" x2="499.46" y2="273.6" fill="none" stroke="#dae1ff" stroke-miterlimit="10" stroke-width="1.5"/><circle cx="403.38" cy="369.68" r="2.54" transform="translate(21.83 761.86) rotate(-88.29)" fill="#dae1ff"/><circle cx="499.37" cy="273.69" r="2.54" transform="translate(-32.88 71.23) rotate(-7.9)" fill="#dae1ff"/><polyline points="553.14 322.92 527.55 348.51 527.55 417.26 555.83 417.26" fill="none" stroke="#dae1ff" stroke-miterlimit="10" stroke-width="1.5"/><path d="M551.26,321.22a2.54,2.54,0,1,1,0,3.59A2.54,2.54,0,0,1,551.26,321.22Z" fill="#dae1ff"/><circle cx="555.7" cy="417.26" r="2.54" fill="#dae1ff"/></g><polygon points="-26.39 422.53 165.69 422.53 203.94 460.79 203.94 564.21 -26.39 564.21 -26.39 422.53" fill="url(#b)"/><rect x="-25.04" y="88.09" width="1000" height="452.35" transform="translate(949.92 628.53) rotate(180)" fill="none"/><path d="M-26.55,422.53H290.74a20,20,0,0,0,14.14-5.86L479.09,242.46a20,20,0,0,1,14.14-5.85h153.3a20,20,0,0,0,14.14-5.86L833.17,58.26a20,20,0,0,1,14.14-5.86h188.58" fill="none" stroke="#fff" stroke-miterlimit="10" stroke-width="2"/></g></svg>