<svg xmlns="http://www.w3.org/2000/svg" xmlns:xlink="http://www.w3.org/1999/xlink" viewBox="0 0 1000 549"><defs><linearGradient id="a" x1="882.4" y1="797.93" x2="190" y2="105.52" gradientUnits="userSpaceOnUse"><stop offset="0" stop-color="#b0b5b5"/><stop offset="1" stop-color="#42474e"/></linearGradient><clipPath id="b"><rect x="190.96" y="411.88" width="33.03" height="21.69" transform="translate(414.95 845.44) rotate(180)" fill="none"/></clipPath><clipPath id="c"><rect x="776.4" y="387.75" width="33.03" height="21.69" transform="translate(1585.83 797.18) rotate(180)" fill="none"/></clipPath><clipPath id="d"><rect x="572.48" y="445.92" width="433" height="123.27" fill="none"/></clipPath><linearGradient id="e" x1="545.93" y1="501.85" x2="1043.6" y2="501.85" gradientUnits="userSpaceOnUse"><stop offset="0" stop-color="#00b6ff"/><stop offset="1" stop-color="#42004e"/></linearGradient></defs><g style="isolation:isolate"><polygon points="981.86 266.76 536.37 266.76 398.45 404.68 -29.97 404.68 -29.97 554.94 981.86 554.94 981.86 266.76" fill="#3f4b5e" stroke="#3f4b5e" stroke-miterlimit="10" stroke-width="2"/><polygon points="-14.69 404.94 -14.69 554.94 1005.48 554.94 1005.48 266.89 555.99 266.89 417.94 404.94 -14.69 404.94" fill="url(#a)"/><g style="mix-blend-mode:multiply"><polyline points="861.59 268.25 862.68 347.63 829.13 381.3 829.13 453.95" fill="none" stroke="#9d918e" stroke-miterlimit="10"/><polyline points="642.16 267.92 641.44 321.95 670.72 353.68 670.72 370.21 691.39 390.87 761.21 390.54 761.21 453.39" fill="none" stroke="#9d918e" stroke-miterlimit="10"/><line x1="691" y1="390.6" x2="691" y2="453.72" fill="none" stroke="#9d918e" stroke-miterlimit="10"/><polyline points="828.67 381.5 772.16 381.5 761.39 390.6" fill="none" stroke="#9d918e" stroke-miterlimit="10"/><line x1="862.48" y1="347.99" x2="1022.72" y2="347.99" fill="none" stroke="#9d918e" stroke-miterlimit="10"/><polyline points="545.99 277.9 545.99 418.11 590.79 474.38" fill="none" stroke="#9d918e" stroke-miterlimit="10"/><line x1="589.96" y1="516.3" x2="438.29" y2="516.3" fill="none" stroke="#9d918e" stroke-miterlimit="10"/><polyline points="480.87 340.8 480.87 418.14 438.03 460.44 438.03 548.35" fill="none" stroke="#9d918e" stroke-miterlimit="10"/><line x1="545.79" y1="370.02" x2="670.7" y2="370.02" fill="none" stroke="#9d918e" stroke-miterlimit="10"/><line x1="545.79" y1="418.38" x2="480.43" y2="418.38" fill="none" stroke="#9d918e" stroke-miterlimit="10"/><polyline points="437.45 460.39 382.5 460.39 382.5 519.29 347.31 549.46" fill="none" stroke="#9d918e" stroke-miterlimit="10"/><polyline points="269.37 405 269.37 517.5 292.49 549.5" fill="none" stroke="#9d918e" stroke-miterlimit="10"/><polyline points="382.32 460.39 345.87 421.97 269.54 421.97 269.44 444.49 162.61 444.94 134.82 405.88" fill="none" stroke="#9d918e" stroke-miterlimit="10"/><polyline points="162.61 444.94 89.67 517.88 -14.69 517.88" fill="none" stroke="#9d918e" stroke-miterlimit="10"/><line x1="89.67" y1="517.88" x2="89.67" y2="560.54" fill="none" stroke="#9d918e" stroke-miterlimit="10"/></g><polyline points="516.74 446.87 571.59 446.71 571.59 398 614.51 398" fill="none" stroke="#fff" stroke-miterlimit="10" stroke-width="2"/><polygon points="517.29 442.61 517.32 451.12 513.05 446.88 517.29 442.61" fill="#fff"/><polygon points="613.94 393.75 613.94 402.26 618.19 398 613.94 393.75" fill="#fff"/><polyline points="431.06 434.69 452.63 434.83 452.63 493.38 495.84 493.38" fill="none" stroke="#fff" stroke-miterlimit="10" stroke-width="2"/><polygon points="431.66 430.44 431.6 438.94 427.38 434.66 431.66 430.44" fill="#fff"/><polygon points="495.27 489.13 495.27 497.63 499.52 493.38 495.27 489.13" fill="#fff"/><line x1="237.26" y1="485.89" x2="286.81" y2="485.89" fill="none" stroke="#fff" stroke-miterlimit="10" stroke-width="2"/><polygon points="237.83 481.63 237.83 490.14 233.58 485.89 237.83 481.63" fill="#fff"/><polygon points="286.24 481.63 286.24 490.14 290.49 485.89 286.24 481.63" fill="#fff"/><polyline points="334.18 439.36 334.32 413.51 452.99 413.51 509.81 356.7" fill="none" stroke="#fff" stroke-miterlimit="10" stroke-width="2"/><polygon points="329.93 438.77 338.43 438.82 334.15 443.04 329.93 438.77" fill="#fff"/><polygon points="506.4 354.1 512.41 360.11 512.41 354.1 506.4 354.1" fill="#fff"/><g style="mix-blend-mode:multiply"><polygon points="848.16 362.21 828.94 381.43 771.45 381.43 762.35 390.53 691 390.53 670.7 370.23 670.72 362.21 848.16 362.21" fill="#ccc6c4"/></g><polyline points="865.23 380.89 820.34 336 801.34 336" fill="none" stroke="#fff" stroke-miterlimit="10" stroke-width="2"/><polygon points="861.82 383.5 867.83 377.48 867.83 383.5 861.82 383.5" fill="#fff"/><polygon points="801.91 340.25 801.91 331.75 797.66 336 801.91 340.25" fill="#fff"/><polyline points="817.33 301.5 917.76 301.5 917.76 339.1 943.17 364.51 943.17 376.42" fill="none" stroke="#fff" stroke-miterlimit="10" stroke-width="2"/><polygon points="817.9 297.25 817.9 305.75 813.65 301.5 817.9 297.25" fill="#fff"/><polygon points="947.42 375.85 938.92 375.85 943.17 380.1 947.42 375.85" fill="#fff"/><polyline points="601.19 385.27 601.19 283.06 656.7 283.06 675.14 301.5 709.36 301.5" fill="none" stroke="#fff" stroke-miterlimit="10" stroke-width="2"/><polygon points="596.94 384.7 605.45 384.7 601.19 388.95 596.94 384.7" fill="#fff"/><polygon points="708.79 297.25 708.79 305.75 713.04 301.5 708.79 297.25" fill="#fff"/><polyline points="795.03 423.9 795.03 441.63 843.55 441.63 867.52 417.67" fill="none" stroke="#fff" stroke-miterlimit="10" stroke-width="2"/><polygon points="799.28 424.47 790.77 424.47 795.03 420.22 799.28 424.47" fill="#fff"/><polygon points="864.11 415.06 870.12 421.08 870.12 415.06 864.11 415.06" fill="#fff"/><polyline points="-10.48 404.68 417.94 404.68 555.86 266.76 1001.35 266.76" fill="none" stroke="#3b3e5d" stroke-miterlimit="10" stroke-width="2"/><path d="M910.65,376.84s3.36,5.49,4,15.35c0,0-2.43-.23-2.42-.58S910.65,376.84,910.65,376.84Z" fill="#a1a6e1" fill-rule="evenodd"/><polygon points="933.54 449.79 938.47 449.43 936.84 443.76 932.12 444.1 933.54 449.79" fill="#ed6c6c" fill-rule="evenodd"/><polygon points="911.39 449.79 916.67 449.41 916.01 443.97 910.73 444.35 911.39 449.79" fill="#ed6c6c" fill-rule="evenodd"/><path d="M933.15,453.18a1.42,1.42,0,0,1-.12-.54c0-1.49-.06-3.54-.06-3.54l5-.49a68.13,68.13,0,0,0,6.23,3.74,1.44,1.44,0,0,1,.88.83Z" fill="#220350" fill-rule="evenodd"/><path d="M900.1,428.41h0a3.56,3.56,0,0,0,3.55-3.55v-4.7a3.56,3.56,0,0,0-3.55-3.55h0a3.56,3.56,0,0,0-3.55,3.55v4.7A3.56,3.56,0,0,0,900.1,428.41Z" fill="#313545" fill-rule="evenodd"/><path d="M900.26,446.85h0a1.44,1.44,0,0,0,1.44-1.44V419a1.45,1.45,0,0,0-1.44-1.44h0a1.44,1.44,0,0,0-1.44,1.44v26.45A1.43,1.43,0,0,0,900.26,446.85Z" fill="#313545"/><circle cx="900.08" cy="451.6" r="1.85" fill="#313545"/><circle cx="889.5" cy="451.6" r="1.85" fill="#313545"/><circle cx="910.65" cy="451.6" r="1.85" fill="#313545"/><path d="M888,448h24.21a1.16,1.16,0,0,0,1.17-1.16h0a1.17,1.17,0,0,0-1.17-1.17H888a1.17,1.17,0,0,0-1.16,1.17h0A1.16,1.16,0,0,0,888,448Z" fill="#313545"/><rect x="882.76" y="411.74" width="35" height="6.67" rx="1.78" transform="translate(1800.52 830.14) rotate(180)" fill="#989dde"/><path d="M909.3,397.52s3.11,8.93,2.9,10.68a12.58,12.58,0,0,1-2.19,5.57l-15.25-.12a7.06,7.06,0,0,1-6.91-8.26v-.06c.07-.41.13-.82.19-1.24.26-1.93,1.05-7.72,1.05-7.72,4.74,3.07,13.32,4.33,20.85,2.3Z" fill="#50165d" fill-rule="evenodd"/><path d="M921.85,398.13l-5.61-4.91L912,387.9l-2.52,6a19.34,19.34,0,0,0,11.45,8.26l.67-2Z" fill="#a1a6e1" fill-rule="evenodd"/><path d="M931.12,446l6.79-.57c0-.86-4.89-19.47-7.65-27.3a8.82,8.82,0,0,0-4.39-5l-16.39-8.14-10.71,9.09,22.54,9.3Z" fill="#50165d" fill-rule="evenodd"/><path d="M931.12,446l2.74-.23c-.66-5.42-4.88-10.27-6.79-13-2.43-3.43-1-9.14-2-12a9.75,9.75,0,0,0-2.09-2.92,18.18,18.18,0,0,0-8.14-4.87,31.08,31.08,0,0,1-9.26-4.72l-6.86,5.83,22.54,9.3Z" fill="#220350" fill-rule="evenodd"/><path d="M911.32,453.18a1.25,1.25,0,0,1-.12-.54c0-1.49-.06-3.54-.06-3.54l5.61-.12a57.82,57.82,0,0,0,5.67,3.37,1.47,1.47,0,0,1,.88.83Z" fill="#220350" fill-rule="evenodd"/><path d="M905.21,358.82s3.61,1.63.79,5-.79-5-.79-5Z" fill="#220350" fill-rule="evenodd"/><path d="M893,374.64a3.65,3.65,0,0,1,2-3,6.64,6.64,0,0,1,4.49-.39,34.45,34.45,0,0,1,5.32,1.53l1.5,5-5,2.38-9.87-7.39Z" fill="#fc8a5d" fill-rule="evenodd"/><path d="M905.88,361.7a4.37,4.37,0,0,0-4.8-4.18h0a4.4,4.4,0,0,0-4,4.55c.06,1.34.12,2.81.17,4.08a3.13,3.13,0,0,0,1.07,2.24,3.16,3.16,0,0,0,2.36.75l2.42-.24a3.24,3.24,0,0,0,2.91-3.35c0-1.18-.11-2.56-.16-3.85Z" fill="#ed6c6c" fill-rule="evenodd"/><polygon points="894.95 374.17 898.09 366 903.81 368.55 902.22 376.42 894.95 374.17 894.95 374.17" fill="#ed6c6c" fill-rule="evenodd"/><path d="M899.64,361.18s.56,4-2.58,4.09a25.88,25.88,0,0,1-1.78-5.46c-.34-3.44,6.55-4.12,9.34-2.66s1.08,4.11-5,4Z" fill="#220350" fill-rule="evenodd"/><path d="M903.4,372.71c-1.82,2.86-6.16.27-6.87-.75-.12-.16-2,1-2.28,1.19-3.82,2.76-4.32,14.58-5,18.84-.32,2-2.1,8.64-1.15,10.37.31.58,3.3.14,3.88.25,2.49.46,13.67,1.37,15.2-.42s.38-5.08.68-7.18a52.82,52.82,0,0,0-1.42-20.6Z" fill="#fff" fill-rule="evenodd"/><path d="M906.62,389.32c-1.94,6-16.4-.44-14.76-3.34,2.3-4-1,2.79-1.62,7-.28,2-1.88,8.65-1,10.38.28.57,1.43,5.2,2,5.22,7.08.3,18,.77,18.46-1.56.69-3.29-2.49-8.91-2.72-11C906.31,390.6,906.62,389.32,906.62,389.32Z" fill="#e8e8e8" fill-rule="evenodd"/><path d="M897.13,363.6a1.23,1.23,0,0,1,1.36,1,1.1,1.1,0,1,1-1.36-1Z" fill="#ed6c6c" fill-rule="evenodd"/><path d="M906.05,365.56c.2-.36,1.06,5.39-2.39,5.68s-4.91-1.12-5.15-7.72c0,0,1.39,4,3.41,4.07,4.22.13,3.89-1.6,4.13-2Z" fill="#220350" fill-rule="evenodd"/><path d="M918.26,447.45l-7.67-.21L908,422l-16.41-9.12,1.74-2.66,11.7-.84,8.64,4.11a7.39,7.39,0,0,1,4.23,6.76Z" fill="#50165d" fill-rule="evenodd"/><path d="M904.86,372.75S907,383.52,907,390,910,409.72,910,409.72c1-1.94,4.74-1.36,5.08-3.13,0,0-3.25-21.33-3.82-26.92S908.56,374.24,904.86,372.75Z" fill="#b3b7e7" fill-rule="evenodd"/><path d="M901.89,361.05s7.65-.6,5.87-4c-1.64-3.14-7,3.47-8.13,2.26Z" fill="#220350" fill-rule="evenodd"/><path d="M911.23,399.55s1.94-1.33,3.17-.69c.59.31,1.57.33,2.45.82a8,8,0,0,1,2,2,1.64,1.64,0,0,1-1.22,1.61c-.43.08-1.73-1.08-1.73-1.08a7.53,7.53,0,0,1-4.18,0Z" fill="#ed6c6c" fill-rule="evenodd"/><path d="M920.24,399.44s1.83-1.47,3.11-.92c.61.27,1.59.21,2.5.63A8.34,8.34,0,0,1,928,401a1.62,1.62,0,0,1-1.09,1.69c-.43.11-1.82-.95-1.82-.95a7.48,7.48,0,0,1-4.16.36Z" fill="#ed6c6c" fill-rule="evenodd"/><polygon points="911.23 399.55 905.1 399.1 904.86 402.37 912.54 401.94 911.23 399.55" fill="#ed6c6c" fill-rule="evenodd"/><rect x="908.9" y="401.38" width="20.08" height="1.28" transform="translate(1837.88 804.04) rotate(180)" fill="#fff"/><path d="M884,394.52a78,78,0,0,1,.87-10.15c.66-4.26,1.52-7.46,3-9.22,1.31-1.55,2.56-1.79,4.22-2.61l2.93-.93c1.78,8.31,3,16.24,2.24,24.46l9.76,1.94,0,4.65H892l-3-1-2.86-1.59A7.88,7.88,0,0,1,884,394.52Z" fill="#b3b7e7" fill-rule="evenodd"/><path d="M922.91,402.66H946l6.95-15.5H930.39a.81.81,0,0,0-.74.48Z" fill="#a45acc" fill-rule="evenodd"/><path d="M924.76,402.66h23l6.63-14.78a.51.51,0,0,0-.46-.72H932a.51.51,0,0,0-.46.3Z" fill="#fff" fill-rule="evenodd"/><path d="M897.53,392.61s.19,8.25,2.1,12c.84,1.67,5.23,6.14,5.23,6.14s-16.85,1.66-17.38-5.13A132.07,132.07,0,0,0,885.3,391Z" fill="#b3b7e7" fill-rule="evenodd"/><path d="M938.92,395c-.27,1,.48,1.75,1.68,1.75a2.82,2.82,0,0,0,2.66-1.75c.27-1-.48-1.75-1.67-1.75A2.82,2.82,0,0,0,938.92,395Z" fill="#afb3e0" fill-rule="evenodd"/><path d="M884,394.52a78,78,0,0,1,.87-10.15c.66-4.26,1.52-7.46,3-9.22,1.31-1.55,2.56-1.79,4.22-2.61l2.93-.93c-11.19,5.74-7.57,18-8.35,26.23,1.8,1,2.65.65,6.84,1.49a54.59,54.59,0,0,0,7.79,2.26c2.53-.53,3.95-.71,5.7-.21v1.28H892l-3-1-2.86-1.59A7.88,7.88,0,0,1,884,394.52Z" fill="#dae1ff" fill-rule="evenodd"/><path d="M881.34,405.07h83.12a1.21,1.21,0,0,0,1.2-1.21h0a1.2,1.2,0,0,0-1.2-1.2H881.34a1.2,1.2,0,0,0-1.2,1.2h0A1.21,1.21,0,0,0,881.34,405.07Z" fill="#fff" fill-rule="evenodd"/><path d="M749.69,286.78l1.95,1.06.58,15.82-2.26.06a2.4,2.4,0,0,1-2.44-2.64Z" fill="#ed6c6c"/><path d="M758.84,300.58l-6.7,3.37a2.24,2.24,0,0,1-2.5-.34h0a2.24,2.24,0,0,1,.32-3.56l12.14-7.55Z" fill="#fff"/><path d="M770.43,345.13h0a3.56,3.56,0,0,0,3.55-3.55v-4.7a3.56,3.56,0,0,0-3.55-3.55h0a3.56,3.56,0,0,0-3.55,3.55v4.7A3.56,3.56,0,0,0,770.43,345.13Z" fill="#434655" fill-rule="evenodd"/><path d="M770.59,356.08h0a1.44,1.44,0,0,0,1.43-1.44V328.19a1.43,1.43,0,0,0-1.43-1.44h0a1.43,1.43,0,0,0-1.44,1.44v26.45A1.44,1.44,0,0,0,770.59,356.08Z" fill="#434655"/><circle cx="770.39" cy="360.55" r="1.85" fill="#434655"/><circle cx="759.81" cy="360.55" r="1.85" fill="#434655"/><circle cx="780.96" cy="360.55" r="1.85" fill="#434655"/><path d="M758.28,357.24h24.21a1.16,1.16,0,0,0,1.16-1.16h0a1.16,1.16,0,0,0-1.16-1.17H758.28a1.16,1.16,0,0,0-1.16,1.17h0A1.16,1.16,0,0,0,758.28,357.24Z" fill="#434655"/><path d="M787.08,330.07l5.61-20.37h2.77l-6.05,21.93a3.64,3.64,0,0,1-3.5,2.66H774.43v-2.77h10.74A2,2,0,0,0,787.08,330.07Z" fill="#434655"/><path d="M781.48,336.84h-24a4,4,0,0,1-4-4h0a4,4,0,0,1,4-4h24a4,4,0,0,1,4,4h0A4,4,0,0,1,781.48,336.84Z" fill="#fff"/><path d="M791.29,305.39h3.39a1.41,1.41,0,0,1,1.41,1.41v9.75a1.41,1.41,0,0,1-1.41,1.41h-3.39a0,0,0,0,1,0,0V305.39A0,0,0,0,1,791.29,305.39Z" transform="translate(111 -199.23) rotate(15.37)" fill="#434655"/><path d="M796.61,294.26l-8.25,29.42a3.52,3.52,0,0,1-4.33,2.44h0a3.52,3.52,0,0,1-2.44-4.33l8.25-29.42a3.51,3.51,0,0,1,4.33-2.44h0A3.51,3.51,0,0,1,796.61,294.26Z" fill="#fff"/><path d="M737,357.35l-3.76.14,13.56-34.29,27.69-2.49-2,5.14c-22.81,1.14-22.13,4.27-22.13,4.27C751,338.47,745.54,344.66,737,357.35Z" fill="#d66262"/><path d="M752.23,357.56l-2.91-.05-2.26-25.58C745.3,318,751.84,323.32,774,322l0,3.23C751.36,326.41,752.9,331,752.9,331,755.06,339.39,753.45,342.39,752.23,357.56Z" fill="#ed6c6c"/><path d="M775,330.86,752.61,332l-5.78-8.91,25.39-7.85c2.55,0,5.38-1.28,5.38,2l1.6,7.77C779.2,328.23,777.54,330.86,775,330.86Z" fill="#a0a3a5"/><path d="M773,329.16c3.54-.21,3.82-4.83,1.82-11.73l-.78-2.34c1.89-.21,3.51-.35,3.51,2.11l1.6,7.77c.78,3.52-1.66,5.89-4.21,5.89L752.53,332l-.53-.82Z" fill="#909397"/><path d="M743,308.37l-2.75-.33a2.3,2.3,0,0,0-1.57.38l-3.21,2.16,1.32.94,3.49.21a3.49,3.49,0,0,0,2.27-.72l1.15-.85Z" fill="#ed6c6c"/><path d="M753.64,308.23c-4.21,0-6.44.3-10.67.24l-1,2c8.47,1.38,11.42,3.07,14.86,1.85C759.42,306.53,757.88,312.19,753.64,308.23Z" fill="#ed6c6c"/><path d="M749.69,286.78l2.2-1.7a2.3,2.3,0,0,1,1.54-.48l2.24.11a1.12,1.12,0,0,1,1,1.57h0l-2.88,2a3.44,3.44,0,0,1-2.32.55l-1.42-.14Z" fill="#ed6c6c"/><path d="M762.34,272s-6-.28-6.2,2.36c-.52,6.44,6.19,12.26,6.19,12.26l3.22-13.3Z" fill="#220350"/><polygon points="768.88 290.71 764.61 292.63 760.74 284.26 764.92 282.16 768.88 290.71" fill="#ed6c6c"/><path d="M765.85,278c-.84-3.55-1.12-4.15-4.28-4.65-3.2-.22-1.06.84-4.33,1.7-1.93.5-1.89,2.3-1.49,4.56a3.15,3.15,0,0,1-.86,2.43c-.17.56.74.92,1,1.15s.52,2.57,1.33,2.9a22,22,0,0,0,4.15,0c3.57-2,2.15-9.22,2.15-9.22C763.7,275.62,766.08,278.93,765.85,278Z" fill="#ed6c6c"/><path d="M761.65,271.94s7-.46,5.48,8.1a7.22,7.22,0,0,1-1.12,2.89,2,2,0,0,1-1.89.93,1.69,1.69,0,0,1-1.27-.5c-2.24-3-1.79-2.25-3.6-7.33l-2.6-1-.51-.73Z" fill="#220350"/><path d="M761.74,281.69s1.38-5.14-.47-6.46l-5.13-.91S757,279.83,761.74,281.69Z" fill="#220350"/><path d="M763.05,289.08l-4,7.21a12.2,12.2,0,0,0-1.89,7.57l4.69,4.63,1.9,5.31c-.55,1.95-1.48,3.81.18,4l14.09-.49c-.84-17.29-3.7-27.34-10.59-29.9C766.44,287,765,288.05,763.05,289.08Z" fill="#e8e8e8"/><polygon points="761.61 289.44 767.64 285.85 769.14 287.51 760.87 292.37 761.61 289.44" fill="#fff"/><path d="M756.83,312.52c-2.2-.68-3.61-2-3.84-4.29l9.39-12.48c.69-1.12,1.74-2.61,3-2.85,1.65-.32,3.53.66,2.54,4.05C767.07,299.86,760.64,308.43,756.83,312.52Z" fill="#e8e8e8"/><path d="M733.27,357.1l-3.33,2.12c-.68.52-3.93,1-4.05,1.42h0a1.51,1.51,0,0,0,1.64,1.7l1.82.06L736,362s2.26-.36,1-4.66Z" fill="#220350" fill-rule="evenodd"/><path d="M748.46,357.1l-3.33,2.12c-.68.52-3.93,1-4,1.42h0a1.51,1.51,0,0,0,1.64,1.7l1.82.06,6.7-.39s2.25-.36,1-4.66Z" fill="#220350" fill-rule="evenodd"/><path d="M720.17,315.27H748.9a1.2,1.2,0,0,0,1.2-1.2h0a1.2,1.2,0,0,0-1.2-1.2H720.17a1.21,1.21,0,0,0-1.21,1.2h0A1.21,1.21,0,0,0,720.17,315.27Z" fill="#fff" fill-rule="evenodd"/><path d="M760.93,280.74c-.23,1.14.22,2.14,1,2.23s1.6-.76,1.82-1.89-.21-2.14-1-2.24S761.16,279.6,760.93,280.74Z" fill="#ed6c6c"/><path d="M765.05,276.32s5.93-3.94,9,3.93c2.48,6.48.08,9.78,2,12.17a1,1,0,0,1-.81,1.53c-2.7-.14-6.5-1-7.19-4.75-1.08-5.91-2.21-9.91-2.58-9.95S765.05,276.32,765.05,276.32Z" fill="#220350"/><path d="M764.63,302.68c4.16,5.53,4.25,14.95,4.25,14.95l-5,.17c-1.66-.19-.73-2.05-.18-4l-.8-2.24-1.1-3.07-1-1Z" fill="#fff"/><path d="M742.83,312.74h-16.3v-1.91h18.2A1.9,1.9,0,0,1,742.83,312.74Z" fill="#d1d1d1"/><rect x="713.92" y="302.79" width="19.33" height="1.9" rx="0.47" transform="translate(726.87 -481) rotate(67.47)" fill="#d1d1d1"/><path d="M752.23,357.35s-4,4-7.29,2l4.61-3Z" fill="#ed6c6c" fill-rule="evenodd"/><path d="M737.06,357.35s-4,4-7.28,2l4.61-3Z" fill="#d66262" fill-rule="evenodd"/><path d="M635.64,422.2c-3.64-5-5.85-7.51-9.39-12.65l-3.24.52c5.55,11.38,5.35,15.76,9.76,18.88C641.94,427.12,634.47,430.68,635.64,422.2Z" fill="#ed6c6c"/><path d="M625.12,412.83l-3.9-1.24a3.38,3.38,0,0,1-1.87-1.47l-1.74-2.82a1.65,1.65,0,0,1,1.09-2.49h0l4.82,1.84a5.16,5.16,0,0,1,2.6,2.36l1,1.85Z" fill="#ed6c6c"/><path d="M635.66,411.28l-3.38,10.94c-.52.18-1.33,5.77,1.13,7.29l3.79,2.5.68-2.82.3-5.53L640,413.05Z" fill="#ed6c6c" fill-rule="evenodd"/><path d="M641.14,401.29s-3.26,2.84-5.64,9.78l4.77,7.29Z" fill="#e8e8e8" fill-rule="evenodd"/><path d="M648.81,456.53h0a3.56,3.56,0,0,0,3.55-3.55v-4.69a3.56,3.56,0,0,0-3.55-3.55h0a3.56,3.56,0,0,0-3.55,3.55V453A3.56,3.56,0,0,0,648.81,456.53Z" fill="#434655" fill-rule="evenodd"/><circle cx="648.77" cy="471.93" r="1.85" fill="#434655"/><circle cx="638.19" cy="471.93" r="1.85" fill="#434655"/><circle cx="659.34" cy="471.93" r="1.85" fill="#434655"/><path d="M649,466.76h0a1.44,1.44,0,0,0,1.43-1.44V438.87a1.43,1.43,0,0,0-1.43-1.44h0a1.43,1.43,0,0,0-1.44,1.44v26.45A1.44,1.44,0,0,0,649,466.76Z" fill="#434655"/><path d="M636.66,468.31h24.21a1.17,1.17,0,0,0,1.16-1.17h0a1.16,1.16,0,0,0-1.16-1.16H636.66a1.16,1.16,0,0,0-1.16,1.16h0A1.17,1.17,0,0,0,636.66,468.31Z" fill="#434655"/><path d="M659.86,448.25h-24a4,4,0,0,1-4-4h0a4,4,0,0,1,4-4h24a4,4,0,0,1,4,4h0A4,4,0,0,1,659.86,448.25Z" fill="#220350"/><rect x="645.44" y="405.62" width="22.54" height="29.28" rx="2.61" transform="translate(1313.42 840.52) rotate(180)" fill="#220350"/><polygon points="624.92 471.43 620.05 471.55 620.97 456.94 625.63 456.8 624.92 471.43" fill="#ed6c6c" fill-rule="evenodd"/><polygon points="620.2 470.55 625.3 470 625.63 473.77 613.64 473.77 613.64 472.47 620.2 470.55" fill="#220350" fill-rule="evenodd"/><path d="M629.29,445.16l18.24-6.29-2.82-3.7L635.39,433l-11.77,4.21a7,7,0,0,0-4.24,6.35L619,467.93l7.68-.23Z" fill="#a1a6e1" fill-rule="evenodd"/><path d="M638,424.41s-3.11,8.93-2.9,10.67a12.59,12.59,0,0,0,2.19,5.58l15.26-.12a7.06,7.06,0,0,0,6.9-8.26v-.06c-.07-.41-.13-.83-.19-1.24-.26-1.93-1-7.73-1-7.73-4.74,3.08-13.32,4.34-20.85,2.31Z" fill="#bbbfea" fill-rule="evenodd"/><path d="M642.08,384.53s-3.61,1.64-.79,5,.79-5,.79-5Z" fill="#220350" fill-rule="evenodd"/><polygon points="652.35 401.06 649.2 392.89 643.48 395.44 645.07 403.31 652.35 401.06 652.35 401.06" fill="#d66464" fill-rule="evenodd"/><path d="M641.41,388.58a4.37,4.37,0,0,1,4.8-4.17h0a4.4,4.4,0,0,1,4,4.55c-.06,1.34-.12,2.81-.17,4.08a5.33,5.33,0,0,1-1.27,3,12.07,12.07,0,0,1-4.58,1.51c-1.7-.16-3-3.41-2.91-5.12,0-1.18.11-2.56.16-3.86Z" fill="#ed6c6c" fill-rule="evenodd"/><path d="M647.65,386.89s-.56,4,2.58,4.1a25.88,25.88,0,0,0,1.78-5.46c.34-3.44-6.55-4.13-9.34-2.66s-1.08,4.11,5,4Z" fill="#220350" fill-rule="evenodd"/><path d="M644.32,399.6c1.9,2.86,6.44.27,7.18-.75a9.94,9.94,0,0,1,2.38,1.19c4,2.76,4.51,14.58,5.22,18.84.33,2,2.19,8.64,1.2,10.37-.33.57-3.45.14-4.06.25-2.6.46-14.27,1.36-15.87-.42s-.4-5.08-.7-7.18a50.64,50.64,0,0,1,1.47-20.61Z" fill="#e8e8e8" fill-rule="evenodd"/><path d="M640,415.17c2.27,6,19.13-.45,17.21-3.35-2.67-4,1.18,2.8,1.89,7.06.33,2,2.19,8.64,1.2,10.37-.33.57-1.66,5.2-2.28,5.23-8.26.29-21.95-.19-22.52-2.52-.81-3.29,3.29-11.49,3.56-13.6C639.76,412.9,640,415.17,640,415.17Z" fill="#e8e8e8" fill-rule="evenodd"/><path d="M650.16,389.31a1.4,1.4,0,1,0,.7,1.59,1.25,1.25,0,0,0-.7-1.59Z" fill="#ed6c6c" fill-rule="evenodd"/><polygon points="634.96 471.43 630.09 471.55 631 456.94 635.66 456.8 634.96 471.43" fill="#ed6c6c" fill-rule="evenodd"/><polygon points="630.24 470.55 635.34 470 635.66 473.77 623.68 473.77 623.68 472.47 630.24 470.55" fill="#220350" fill-rule="evenodd"/><path d="M639.33,447.86l16.4-8.58L654,436.79,642.29,436l-8.64,3.86a6.92,6.92,0,0,0-4.23,6.35L629,467.93l7.68-.23Z" fill="#bbbfea" fill-rule="evenodd"/><path d="M645.41,386.77s-7.66-.6-5.88-4c1.64-3.14,7,3.48,8.13,2.27Z" fill="#220350" fill-rule="evenodd"/><path d="M646,432.46l-5.12,2.72s-3.36,3.35-1.06,4.61,3-.58,3.39-1.1,2.37-.42,4.28-4Z" fill="#ed6c6c" fill-rule="evenodd"/><path d="M665.51,416.46v10a6.93,6.93,0,0,1-3.36,5.95c-3.88,2.3-10.49,5.34-16.43,3.84l-.46-3.41,13.35-6.47-.21-13Z" fill="#ed6c6c" fill-rule="evenodd"/><path d="M653.88,400s12.2,3.56,12.61,18.32H655.73Z" fill="#e8e8e8" fill-rule="evenodd"/><path d="M611.81,424.28h-23l-7-15.5h22.51a.83.83,0,0,1,.75.48Z" fill="#fff" fill-rule="evenodd"/><path d="M610.91,424.28h-23l-6.64-14.79a.51.51,0,0,1,.46-.71h21.94a.51.51,0,0,1,.46.3Z" fill="#b3b7e7" fill-rule="evenodd"/><path d="M596.75,416.63c.27,1-.48,1.75-1.67,1.75a2.81,2.81,0,0,1-2.66-1.75c-.28-1,.47-1.75,1.67-1.75A2.82,2.82,0,0,1,596.75,416.63Z" fill="#fff" fill-rule="evenodd"/><path d="M588.76,424.28h35.9a1.21,1.21,0,0,1,1.21,1.2h0a1.22,1.22,0,0,1-1.21,1.21h-35.9Z" fill="#b3b7e7" fill-rule="evenodd"/><path d="M649.94,428.57H581a1.2,1.2,0,0,1-1.2-1.2h0a1.21,1.21,0,0,1,1.2-1.21h68.9a1.22,1.22,0,0,1,1.21,1.21h0A1.21,1.21,0,0,1,649.94,428.57Z" fill="#fff" fill-rule="evenodd"/><path d="M199.12,476.85l4.4-4,11.07,16.25,5.47,1.25-3.42,5.23s2.86-1-1.89-1.32a5.42,5.42,0,0,1-3.78-2l-5.85-7-4-6.15Z" fill="#ed6c6c" fill-rule="evenodd"/><path d="M206.15,465s8.63,13.54.47,17.34-17.52-10.56-14.26-18.8C194.63,457.85,206.15,465,206.15,465Z" fill="#220350" fill-rule="evenodd"/><path d="M203.11,472.44l-4.28,4.84c.12.4,3.94,9.71,6.46,9.32l5.57-4.55Z" fill="#e3eef4" fill-rule="evenodd"/><path d="M205.51,460.18s3.24,8.21-3.39,7.64S205.51,460.18,205.51,460.18Z" fill="#220350" fill-rule="evenodd"/><path d="M197,527.71h0a3.56,3.56,0,0,0,3.55-3.55v-4.69a3.55,3.55,0,0,0-3.55-3.55h0a3.56,3.56,0,0,0-3.55,3.55v4.69A3.56,3.56,0,0,0,197,527.71Z" fill="#434655" fill-rule="evenodd"/><path d="M197.2,542.38h0a1.45,1.45,0,0,0,1.44-1.44V514.49a1.44,1.44,0,0,0-1.44-1.44h0a1.43,1.43,0,0,0-1.44,1.44v26.45A1.44,1.44,0,0,0,197.2,542.38Z" fill="#434655"/><circle cx="196.39" cy="547.13" r="1.85" fill="#434655"/><circle cx="185.82" cy="547.13" r="1.85" fill="#434655"/><circle cx="206.97" cy="547.13" r="1.85" fill="#434655"/><path d="M184.89,543.54H209.1a1.17,1.17,0,0,0,1.17-1.16h0a1.17,1.17,0,0,0-1.17-1.17H184.89a1.16,1.16,0,0,0-1.16,1.17h0A1.16,1.16,0,0,0,184.89,543.54Z" fill="#434655"/><path d="M186.92,519h23a3.34,3.34,0,0,0,3.33-3.34h0a3.33,3.33,0,0,0-3.33-3.33h-23a3.34,3.34,0,0,0-3.34,3.33h0A3.35,3.35,0,0,0,186.92,519Z" fill="#220350" fill-rule="evenodd"/><rect x="202.37" y="541.35" width="3.13" height="5.13" transform="translate(395.13 1092.44) rotate(-178.66)" fill="#ed6c6c"/><rect x="211.82" y="539.78" width="3.46" height="5.99" transform="translate(412.44 1091.09) rotate(-178.46)" fill="#ed6c6c"/><path d="M211.48,545l4.31.1,1.76,1.43c.63.58,4.64,1.73,4.64,1.73.38,0,.11.67.2,1h-11C210.88,548.71,210.49,547.5,211.48,545Z" fill="#220350"/><path d="M202.18,545l3.38,0s.36,2.56.52,4.31h-6.3c-.24-.07.07-1,.31-1l1.33-.67Z" fill="#220350" fill-rule="evenodd"/><path d="M195,458s-5.81,7.57-.21,9.08l4.32-5.85Z" fill="#220350" fill-rule="evenodd"/><path d="M204.65,500.65a43.25,43.25,0,0,1,.61,7.52c-.43,3.47-.75,5.51-.75,5.51l-13.94.16c-4,0-6.91-4.08-6.15-8.66v-.06c.07-.44.82-3.89.88-4.33Z" fill="#796fbf"/><path d="M215.8,542.11c.06-.91,3.7-26.12,3.38-28.17a6.92,6.92,0,0,0-4-5l-15.5-7.73-11.13,10.14,22.24,6.18c-2.13,6.81-.62,15.41-.26,24.58Z" fill="#796fbf" fill-rule="evenodd"/><path d="M212.19,542.11a9.83,9.83,0,0,1-.43-5,52.89,52.89,0,0,0,1.13-11.8c-.4-6.72,1.58-9.77,1.42-10.7-.39-2.29-23.41-7.4-23.41-7.4l1.74,5.38,18.19,4.9c-2.26,7-1.06,15.46-.68,24.59Z" fill="#675fa3" fill-rule="evenodd"/><path d="M206.43,542.47c.28-.75,2.42-16.91,2-24.22a6.73,6.73,0,0,0-3.1-5.14L190.43,502.9l-2.25,10.43,13.8,7c-1.79,6.81-1.68,13.13-.09,22Z" fill="#796fbf" fill-rule="evenodd"/><path d="M185.07,501.52l1.5-19.7c.5-5.08-1.54-9.48,1.34-10.19,2.22-.95,5.94-2.09,5.94-2.09l1.53-.13.58-.1c1.85-.33,3.46.92,5.63,1.67,3.8,2.33,1.42,3.91,3.92,8.87,2.11,4.19-1.62,8.11-1.62,8.11l.85,13.82Z" fill="#fff" fill-rule="evenodd"/><path d="M199.65,465.71s-.62,3.05-1.14,5.58a1.93,1.93,0,0,1-1.29,1.44,1.91,1.91,0,0,1-1.88-.42l-.48-.45a2.45,2.45,0,0,1-.67-2.52c.74-2.31,2.07-6.51,2.07-6.51l3.39,2.88Z" fill="#ed6c6c" fill-rule="evenodd"/><path d="M195.14,458.88a2.43,2.43,0,0,1,2.91-1.81l4.53,1.06a2.4,2.4,0,0,1,1.81,2.9c-.44,1.92-1.07,4.61-1.52,6.53a2.42,2.42,0,0,1-2.9,1.81c-1.39-.33-4-1-4.63-2.39-.57-1.21-1.3-1.71-1-3,.44-1.92.35-3.17.79-5.09Z" fill="#ed6c6c" fill-rule="evenodd"/><path d="M202.6,457.4s-.74,5.18-8.32,5.4c0,0-.59-5,2.23-6.31S202.6,457.4,202.6,457.4Z" fill="#220350" fill-rule="evenodd"/><path d="M204.17,463.56a5.05,5.05,0,0,0-2.54-4.71,1,1,0,0,1,1-1.45C204.11,457.28,207.32,459.33,204.17,463.56Z" fill="#220350" fill-rule="evenodd"/><path d="M193.59,463.38c0,.91.54,1.64,1.21,1.64s1.2-.73,1.2-1.64-.54-1.63-1.2-1.63S193.59,462.48,193.59,463.38Z" fill="#ed6c6c" fill-rule="evenodd"/><path d="M190.82,480.21s-3.52,3.8-4.25,1.61l-.63,6.13-.42,1.89-.45,11.68,9.73.16Z" fill="#e3eef4" fill-rule="evenodd"/><path d="M208.16,501.19h11.49a1.84,1.84,0,0,0,1.6-1.16l4.81-14a.82.82,0,0,0-.81-1.17H213.77a1.83,1.83,0,0,0-1.6,1.17l-4.81,14A.81.81,0,0,0,208.16,501.19Z" fill="#e8e8e8" fill-rule="evenodd"/><path d="M222.09,497.43h0a1.82,1.82,0,0,0,1.6-1.14l.94-2.77a.81.81,0,0,0-.83-1.13h0a1.8,1.8,0,0,0-1.59,1.13l-.94,2.78A.81.81,0,0,0,222.09,497.43Z" fill="#ed6c6c" fill-rule="evenodd"/><path d="M186.39,473.5l-5.68,12.61a4.62,4.62,0,0,0,2.34,5.9l9.35,4,1.16-2.52-7.69-5.5,3.75-9.12S188.74,474.62,186.39,473.5Z" fill="#ed6c6c" fill-rule="evenodd"/><path d="M197.68,493.09s1.08,0,2.31,1.51c1.59,2,1.67,1.52.38,3.3-.36.49-2.11.76-2.11.76L195,497.3s-4.21-.31-3.4-2.92C192.2,492.54,197.68,493.09,197.68,493.09Z" fill="#ed6c6c" fill-rule="evenodd"/><path d="M187,487.26c1.44-2.58,6.13-10.82,6.13-10.82l-6.16-4.27-6.56,11.21Z" fill="#fff" fill-rule="evenodd"/><polygon points="308.71 546.86 313.59 546.98 312.86 535.12 308.38 536.42 308.71 546.86" fill="#7e4183" fill-rule="evenodd"/><polygon points="313.44 545.98 308.01 545.43 308.01 549.2 320 549.2 320 547.9 313.44 545.98" fill="#220350" fill-rule="evenodd"/><polygon points="324.92 546.86 329.8 546.98 329.07 535.12 324.59 536.42 324.92 546.86" fill="#7e4183" fill-rule="evenodd"/><polygon points="329.65 545.98 324.22 545.43 324.22 549.2 336.21 549.2 336.21 547.9 329.65 545.98" fill="#220350" fill-rule="evenodd"/><path d="M328.91,450.75s3.41-.57,7.27,18.35l-5.64-.21S327.85,456.48,328.91,450.75Z" fill="#220350"/><path d="M310.27,441.07a1.5,1.5,0,0,1,1.13-1.46,1.54,1.54,0,0,1-.48-1.11,1.52,1.52,0,0,1,1.49-1.51,1.54,1.54,0,0,1-.15-.64,1.52,1.52,0,0,1,1.52-1.52,1.6,1.6,0,0,1,.66.15,1.51,1.51,0,0,1,1.5-1.33,1.47,1.47,0,0,1,1.14.53,5,5,0,0,0,4.11-.53,1.52,1.52,0,0,1,1.52,1.52H323a1.52,1.52,0,0,1,1.52,1.52,1.17,1.17,0,0,1,0,.32,1.51,1.51,0,0,1,1.29,1.49,1.63,1.63,0,0,0,.26,2.44,1.43,1.43,0,0,1-.45,1A1.53,1.53,0,0,1,326,443a1.51,1.51,0,0,1-1.43,1.51,1.54,1.54,0,0,1,.24.82,2.11,2.11,0,0,1-1.4-3.41,3.73,3.73,0,0,0-.71-3.4,1.73,1.73,0,0,1,0-.32,1.51,1.51,0,0,1-1.29-1.49,1.13,1.13,0,0,0-.26,0,1.51,1.51,0,0,0-2.63-.65,1.49,1.49,0,0,1-1.14-.53,1.53,1.53,0,0,1-1.48,1.18,1.46,1.46,0,0,1-.66-.16,1.5,1.5,0,0,1-1.47,1.33,1.4,1.4,0,0,1,.15.64,1.52,1.52,0,0,1-1.13,1.47,1.46,1.46,0,0,1,.48,1.1,1.54,1.54,0,0,1-.2.74,1.51,1.51,0,0,1,.93,1.4,1.55,1.55,0,0,1-.07.43,1.52,1.52,0,1,1-1.71,1.5,1.55,1.55,0,0,1,.07-.43,1.51,1.51,0,0,1-1.33-1.5,1.45,1.45,0,0,1,.21-.74A1.52,1.52,0,0,1,310.27,441.07Z" fill="#220350"/><path d="M323.74,544.79s-1.1-44.65-1.34-47.13c-.36-3.69-1-4.52-1.51-4.36s-.81.67-1.38,3.85c-.63,3.53-5.3,47.64-5.3,47.64l-6.68.16s.85-24,1.14-29.4c.23-4.44.43-8.19.59-11.37.8-15.69,1-22.72,1-22.72l20.27.52s.84,11.46.84,14.25c0,17.33-.67,48.72-.67,48.72Z" fill="#fff"/><path d="M306.8,453.15l.12.29a53.16,53.16,0,0,1,3.16,10.22c.35,2.2.19,17.8.19,17.8,7.77,2.14,20.27.52,20.27.52s.08-13.31-1.36-30.58l-5-.76-2.52-.37-.1-1.13-.08-.81-.18-2a8,8,0,0,1-6.44-1.57c.07.35.12.78.17,1.25s.07.88.09,1.33c.1,1.57.11,3.09.11,3.09a17.62,17.62,0,0,0-8.23,2.19.45.45,0,0,0-.1.09A.42.42,0,0,0,306.8,453.15Z" fill="#9c4345"/><path d="M302.27,491.25a24.08,24.08,0,0,1,.07,2.45c0,1.36-.11,4.35.37,5.24a2.14,2.14,0,0,0,.36.31l.11.07a2.57,2.57,0,0,0,.88.33l.09,0a2.63,2.63,0,0,0,.88,0l.08,0a3.52,3.52,0,0,0,.79-.27,18.86,18.86,0,0,1,.38-4s.47,1.82,1,2l.39-.12s-.29-2-.33-2.93a5.66,5.66,0,0,0-1.91-3.69S303.07,489.87,302.27,491.25Z" fill="#9c4345"/><path d="M310.29,460.62c-.28.89-.65,2.08-1.05,3.4-1.28,4.26-2.91,9.94-3.19,11.69s-.26,10.4-.23,13.87c0,.9,0,1.46,0,1.46-1,2-3.5,1.35-3.5,1.35s-.15-.71-.37-1.88c-.64-3.35-1.86-10.43-1.63-14.86.11-2.22,1.87-10.17,3.52-16a28.55,28.55,0,0,1,2.24-6.2,3,3,0,0,1,2.18-1.27C311.39,452,311.35,457.3,310.29,460.62Z" fill="#9c4345"/><path d="M320.87,439.44c.28-.14.79-.18,1,.11a.09.09,0,0,1-.07.13c-.14,0-.26-.08-.39-.09a1.13,1.13,0,0,0-.44.07C320.84,439.7,320.75,439.5,320.87,439.44Z" fill="#3b2645"/><path d="M316.82,439.78c.15-.4.84-.43,1.13-.19a.11.11,0,0,1-.05.18c-.17.06-.35,0-.53,0a1.57,1.57,0,0,0-.42.13C316.88,439.94,316.78,439.85,316.82,439.78Z" fill="#3b2645"/><path d="M305,499.65l.08,0a31.11,31.11,0,0,1,.09-4.09s0,0,0,0A9.87,9.87,0,0,0,305,499.65Z" fill="#753233"/><path d="M304.06,499.65l.09,0a32.74,32.74,0,0,1,.09-4.08s0,0,0,0A9.63,9.63,0,0,0,304.06,499.65Z" fill="#753233"/><path d="M303.07,499.25l.11.07a33.48,33.48,0,0,1,.11-3.87s0,0-.05,0A9.6,9.6,0,0,0,303.07,499.25Z" fill="#753233"/><path d="M321.45,448.33c-4.93,1-6-1.55-6.45-2.32-.05-.47-.1-.9-.17-1.25a8,8,0,0,0,6.44,1.57Z" fill="#753233"/><path d="M323.56,441.94s.13-5.56-1.31-6.3c-3.43-1.76-10.34.87-9.47,4.62S314,443,314,443,323.28,442.42,323.56,441.94Z" fill="#220350"/><path d="M322.78,441.2a1.07,1.07,0,0,1,1.72,0c.86,1-.6,3-1.72,3.09A24.23,24.23,0,0,1,322.78,441.2Z" fill="#753233"/><path d="M322.58,438.22c.58.59.62,1.92.67,3.4.14,4.45-1.19,5.84-3.46,6.09s-4.66-.63-5.15-4.76c-.24-2.07-.51-4,.25-4.87C316,436.75,320.84,436.4,322.58,438.22Z" fill="#9c4345"/><path d="M315,442.35s-.7-1.84-1.8-.87.42,3.77,2.1,3.56C315.26,445,315.49,443,315,442.35Z" fill="#9c4345"/><path d="M313.68,442.32a1.45,1.45,0,0,1,.66.44,1.73,1.73,0,0,1,.49.62c0,.08-.07.12-.12.07s-.26-.29-.39-.43a1,1,0,0,1-.32.26.13.13,0,0,1-.14-.18.93.93,0,0,1,.27-.25,4.32,4.32,0,0,1-.53-.4C313.54,442.39,313.6,442.31,313.68,442.32Z" fill="#753233"/><path d="M315.2,450.43c-4.18.17-7.86,1.62-8.23,2.19a.45.45,0,0,0-.1.09l.05.73a53.16,53.16,0,0,1,3.16,10.22c.35,2.2.19,17.8.19,17.8,7.77,2.14,20.27.52,20.27.52s.08-13.31-1.36-30.58l-7.55-1.13-2.31,3.3Z" fill="#b3b7e7"/><path d="M322.3,450.07s0,11.07,1,19.35c.14,1.19.3,3.13.44,5.33.41,5.85.82,14,.82,14s5.61.37,7.76-.95l-1.74-23.49a90.65,90.65,0,0,1-1-13.2c0-.76-4.28-.8-6.14-1Z" fill="#402678"/><path d="M322.3,450.07s0,11.07,1,19.35c.14,1.19.3,3.13.44,5.33L325.75,456l-2-1.5,2-.56s-1.88-3.17-2.36-3.75Z" fill="#220350"/><path d="M300.21,480.91c.41,4.82,1.4,10.36,1.4,10.36,4.13.47,4.6-.88,4.6-.88s.13-13.49.22-15,3.31-12.08,3.31-12.08c.6,1.8-.26,24.26-.26,24.26,2.67,1.12,7.92.69,7.92.69,0-5.15-.13-10-.4-14.51a199.36,199.36,0,0,0-2.79-23.69l-1,.24c-1.34.32-3.69.89-5.37,1.48-2,.7-3,3.44-3.74,6.37-.57,2.14-2.17,8.2-3.17,13-.37,1.78-.65,3.38-.79,4.57A30.85,30.85,0,0,0,300.21,480.91Z" fill="#402678"/><path d="M313.31,454.47l-2.3,1.3,6,18a199.36,199.36,0,0,0-2.79-23.69l-1,.24L311,453.85Z" fill="#220350"/><path d="M336.92,474.34a4.43,4.43,0,0,1-3.7,4.21s-2.41.35-4.56-2.49c0,0,2-.78,2.15-2.24C330.81,473.82,336.4,472.88,336.92,474.34Z" fill="#220350"/><path d="M328.66,476.06a22.09,22.09,0,0,1-4.92-.75c-1.29-.55-1.44-1.06-1.44-1.06h8.4S330.91,475.38,328.66,476.06Z" fill="#9c4345"/><path d="M321.61,474.25h16.94a1,1,0,0,0,.89-.67l3.7-10.93a.46.46,0,0,0-.44-.67H325.76a1,1,0,0,0-.9.67l-3.7,10.93A.47.47,0,0,0,321.61,474.25Z" fill="#dadeea"/><path d="M313.52,474.25h9.32a.73.73,0,0,0,0-1.45h-9.32a.73.73,0,1,0,0,1.45Z" fill="#fff"/><path d="M300.21,480.91a5.37,5.37,0,0,0,2.75-4.85,7,7,0,0,0-2.07-4.88c-.37,1.78-.65,3.38-.79,4.57A30.85,30.85,0,0,0,300.21,480.91Z" fill="#220350"/><path d="M333.31,468.11a.8.8,0,0,0-.77-1.15,1.76,1.76,0,0,0-1.54,1.15.8.8,0,0,0,.76,1.16A1.78,1.78,0,0,0,333.31,468.11Z" fill="#fff"/><polygon points="479.02 465.19 485.44 465.19 489.84 452.3 483.42 452.3 479.02 465.19" fill="#220350" fill-rule="evenodd"/><polygon points="539.74 506.76 534.91 509.07 531.63 505.32 536.45 503.02 539.74 506.76" fill="#7e4183" fill-rule="evenodd"/><path d="M532.16,513.88h-2.38v2.19h3.81l8.12-7.21-2-2.59-5,2.52Z" fill="#220350" fill-rule="evenodd"/><path d="M513.22,488.4l20.25,20,5.12-4.61c-4.41-5.37-11.39-17.6-17.82-20.06Z" fill="#11003d" fill-rule="evenodd"/><path d="M548.2,470.82s1.55,12.11-8.56,13.47-29.79.87-29.79.87-1.68-8.66,4.53-10.14c7.85-1.88,11.94-2.81,11.94-2.81Z" fill="#220350" fill-rule="evenodd"/><path d="M541.5,441.24l-2.44-7.64-5.36,2,1,7.28c1.6-1.81,4-2,6.78-1.66Z" fill="#ed6c6c" fill-rule="evenodd"/><path d="M536.78,436a7.75,7.75,0,0,1-2.38,4.62l-.21-1.52-.32-2.24A4.7,4.7,0,0,0,536.78,436Z" fill="#d66262" fill-rule="evenodd"/><path d="M540.15,429.82c-.73-3.58-1-4.19-4.13-4.8-3.19-.32-1.08.81-4.38,1.56-1.95.43-2,2.24-1.64,4.5a3.19,3.19,0,0,1-1,2.41c-.19.55.72.94,1,1.18s.07,2.94.82,3.39c2.06,1.24,5.44-.2,5.44-.2,3.63-1.89,1.57-9.24,1.57-9.24C538.07,427.38,540.34,430.77,540.15,429.82Z" fill="#ed6c6c"/><path d="M536.07,431.44a26.46,26.46,0,0,0,3.52,5.44c.9.88,1.86-.18,1.93-1.44.14-2.51,1.93-4.74.88-8.34-.53-1.84-4.8-2.82-8-3.09-3.76-.33-8,4.66-1.79,5.21l1.93,3.52a.66.66,0,0,0,1.21-.12Z" fill="#220350" fill-rule="evenodd"/><path d="M537.72,430.64a1.64,1.64,0,0,0-1.87,1.31,1.44,1.44,0,1,0,2.68.82,1.64,1.64,0,0,0-.81-2.13Z" fill="#ed6c6c" fill-rule="evenodd"/><rect x="495.94" y="463.92" width="20.08" height="1.28" fill="#dae1ff"/><rect x="463.64" y="465.19" width="97.01" height="2.41" rx="0.66" transform="translate(1024.3 932.8) rotate(180)" fill="#220350"/><path d="M525.63,453.76l.69,18.45s9.54,3,22.27-.44c.88-.64,1-1.79.2-3.6L549,456a29.55,29.55,0,0,0-1-8.37c-.93-3.39-2.63-7.09-5.65-7.63s-4.83-.3-8.33.47a10.19,10.19,0,0,0-7.87,8.72Z" fill="#b3b7e7" fill-rule="evenodd"/><path d="M507.48,461.21s-1.71-1.61-3-1.16a25,25,0,0,0-2.54.42,8.2,8.2,0,0,0-2.3,1.68,1.65,1.65,0,0,0,.95,1.78c.42.15,1.89-.8,1.89-.8a10.14,10.14,0,0,0,4.81,1.13l3.05-.14,1.41-1.72Z" fill="#ed6c6c" fill-rule="evenodd"/><path d="M527.62,445.26l-8.25,12.89-10.47,1.36a1.89,1.89,0,0,0-1.64,1.87v3.18l14.32.43,9.38-5.37Z" fill="#b3b7e7" fill-rule="evenodd"/><polygon points="507.23 513.73 502.35 513.85 507.59 500.76 512.07 502.07 507.23 513.73" fill="#7e4183" fill-rule="evenodd"/><polygon points="502.5 512.85 507.93 512.3 507.93 516.07 495.94 516.07 495.94 514.77 502.5 512.85" fill="#220350" fill-rule="evenodd"/><path d="M509.81,480.52l-7.39,30.07,7.68.25c3.62-9.59,7.49-17.63,8.22-25.57Z" fill="#220350" fill-rule="evenodd"/><path d="M539.43,496h0a3.57,3.57,0,0,0,3.56-3.55v-4.7a3.57,3.57,0,0,0-3.56-3.55h0a3.56,3.56,0,0,0-3.55,3.55v4.7A3.56,3.56,0,0,0,539.43,496Z" fill="#434655" fill-rule="evenodd"/><path d="M538.15,482.77v26.45a1.44,1.44,0,0,0,1.44,1.43h0a1.44,1.44,0,0,0,1.44-1.43V482.77Z" fill="#434655"/><circle cx="539.39" cy="513.85" r="1.85" fill="#434655"/><circle cx="528.81" cy="513.85" r="1.85" fill="#434655"/><circle cx="549.97" cy="513.85" r="1.85" fill="#434655"/><path d="M527.28,510.65h24.21a1.16,1.16,0,0,0,1.17-1.16h0a1.16,1.16,0,0,0-1.17-1.16H527.28a1.16,1.16,0,0,0-1.16,1.16h0A1.16,1.16,0,0,0,527.28,510.65Z" fill="#434655"/><path d="M528.12,488.49h23a3.33,3.33,0,0,0,3.33-3.33h0a3.33,3.33,0,0,0-3.33-3.34h-23a3.34,3.34,0,0,0-3.34,3.34h0A3.34,3.34,0,0,0,528.12,488.49Z" fill="#fff" fill-rule="evenodd"/><path d="M525.94,462.12l5-4.67V473.1a10.68,10.68,0,0,1-4.64-.89c-.83-.66-1.12-1.39-.1-2.61Z" fill="#9da2e0" fill-rule="evenodd"/><path d="M474.39,457.84h28a2.06,2.06,0,0,0,2.06-2.14l-.82-18.29a2,2,0,0,0-2.05-2h-28a2.05,2.05,0,0,0-2.05,2.14l.82,18.29A2,2,0,0,0,474.39,457.84Z" fill="#dae1ff" fill-rule="evenodd"/><polygon points="503.6 437.41 504.42 455.7 472.34 455.88 471.52 437.59 503.6 437.41" fill="#fff" fill-rule="evenodd"/><path d="M494.89,441.53l5.56,9.6H487l5-9.56A1.67,1.67,0,0,1,494.89,441.53Z" fill="#dae1ff"/><line x1="493.71" y1="443.77" x2="476.7" y2="443.77" fill="none" stroke="#9da2e0" stroke-miterlimit="10" stroke-width="0.8"/><line x1="494.99" y1="447.64" x2="476.7" y2="447.64" fill="none" stroke="#9da2e0" stroke-miterlimit="10" stroke-width="0.8"/><rect x="525.89" y="332.06" width="25.05" height="30.36" fill="#b3b7cb" style="mix-blend-mode:multiply"/><rect x="521.2" y="327.83" width="25.05" height="30.36" fill="#fff"/><line x1="530.62" y1="352.58" x2="536.82" y2="352.58" fill="none" stroke="#943dc3" stroke-miterlimit="10" stroke-width="1.59"/><line x1="525.72" y1="345.29" x2="541.72" y2="345.29" fill="none" stroke="#943dc3" stroke-miterlimit="10" stroke-width="1.59"/><line x1="525.72" y1="339.6" x2="541.72" y2="339.6" fill="none" stroke="#943dc3" stroke-miterlimit="10" stroke-width="1.59"/><line x1="525.72" y1="333.91" x2="541.72" y2="333.91" fill="none" stroke="#943dc3" stroke-miterlimit="10" stroke-width="1.59"/><rect x="882.47" y="287.82" width="72.36" height="41.48" transform="translate(1837.29 617.12) rotate(180)" fill="#b3b7cb" style="mix-blend-mode:multiply"/><rect x="877.9" y="283.76" width="72.36" height="41.48" transform="translate(1828.15 609) rotate(180)" fill="#fff"/><rect x="883" y="292.08" width="62.83" height="28.64" fill="none" stroke="#b3b7e7" stroke-miterlimit="10" stroke-width="1.19"/><line x1="883" y1="295.75" x2="945.83" y2="295.75" fill="none" stroke="#b3b7e7" stroke-miterlimit="10" stroke-width="1.19"/><line x1="883" y1="300.74" x2="945.83" y2="300.74" fill="none" stroke="#b3b7e7" stroke-miterlimit="10" stroke-width="1.19"/><line x1="883" y1="305.74" x2="945.83" y2="305.74" fill="none" stroke="#b3b7e7" stroke-miterlimit="10" stroke-width="1.19"/><line x1="883" y1="310.73" x2="945.83" y2="310.73" fill="none" stroke="#b3b7e7" stroke-miterlimit="10" stroke-width="1.19"/><line x1="883" y1="315.73" x2="945.83" y2="315.73" fill="none" stroke="#b3b7e7" stroke-miterlimit="10" stroke-width="1.19"/><line x1="939.45" y1="295.75" x2="939.45" y2="320.72" fill="none" stroke="#b3b7e7" stroke-miterlimit="10" stroke-width="1.19"/><line x1="933.33" y1="295.75" x2="933.33" y2="320.72" fill="none" stroke="#b3b7e7" stroke-miterlimit="10" stroke-width="1.19"/><line x1="927.21" y1="295.75" x2="927.21" y2="320.72" fill="none" stroke="#b3b7e7" stroke-miterlimit="10" stroke-width="1.19"/><line x1="921.09" y1="295.75" x2="921.09" y2="320.72" fill="none" stroke="#b3b7e7" stroke-miterlimit="10" stroke-width="1.19"/><line x1="914.97" y1="295.75" x2="914.97" y2="320.72" fill="none" stroke="#b3b7e7" stroke-miterlimit="10" stroke-width="1.19"/><line x1="908.85" y1="295.75" x2="908.85" y2="320.72" fill="none" stroke="#b3b7e7" stroke-miterlimit="10" stroke-width="1.19"/><rect x="942.5" y="286.68" width="3.63" height="2.32" transform="translate(1888.64 575.67) rotate(180)" fill="#b3b7e7"/><rect x="911.84" y="286.68" width="28.39" height="2.32" transform="translate(1852.07 575.67) rotate(180)" fill="#dae1ff"/><rect x="393.8" y="481.33" width="39.18" height="27" transform="translate(826.78 989.65) rotate(180)" fill="#b3b7cb" style="mix-blend-mode:multiply"/><rect x="389.68" y="477.67" width="39.18" height="27" transform="translate(818.55 982.34) rotate(180)" fill="#fff"/><rect x="394.28" y="485.16" width="30.6" height="15.44" fill="none" stroke="#b3b7e7" stroke-miterlimit="10" stroke-width="1.19"/><line x1="408.39" y1="488.47" x2="408.39" y2="500.6" fill="none" stroke="#b3b7e7" stroke-miterlimit="10" stroke-width="1.19"/><line x1="394.28" y1="488.47" x2="424.88" y2="488.47" fill="none" stroke="#b3b7e7" stroke-miterlimit="10" stroke-width="1.19"/><rect x="421.89" y="480.3" width="3.27" height="2.09" transform="translate(847.04 962.68) rotate(180)" fill="#b3b7e7"/><rect x="394.28" y="480.3" width="25.56" height="2.09" transform="translate(814.12 962.68) rotate(180)" fill="#dae1ff"/><rect x="600.69" y="311.56" width="25.05" height="30.36" transform="translate(1226.43 653.48) rotate(-180)" fill="#b3b7cb" style="mix-blend-mode:multiply"/><rect x="595.09" y="306.53" width="25.05" height="30.36" transform="translate(1215.23 643.43) rotate(-180)" fill="#dae1ff"/><rect x="589.49" y="301.5" width="25.05" height="30.36" transform="translate(1204.03 633.37) rotate(-180)" fill="#fff"/><line x1="605.12" y1="307.12" x2="598.92" y2="307.12" fill="none" stroke="#08a8ff" stroke-miterlimit="10" stroke-width="1.59"/><line x1="610.02" y1="314.41" x2="594.02" y2="314.41" fill="none" stroke="#08a8ff" stroke-miterlimit="10" stroke-width="1.59"/><line x1="610.02" y1="320.1" x2="594.02" y2="320.1" fill="none" stroke="#08a8ff" stroke-miterlimit="10" stroke-width="1.59"/><line x1="610.02" y1="325.79" x2="594.02" y2="325.79" fill="none" stroke="#08a8ff" stroke-miterlimit="10" stroke-width="1.59"/><rect x="398.81" y="424.38" width="25.05" height="30.36" fill="#b3b7cb" style="mix-blend-mode:multiply"/><rect x="394.11" y="420.15" width="25.05" height="30.36" fill="#fff"/><line x1="403.53" y1="444.89" x2="409.73" y2="444.89" fill="none" stroke="#943dc3" stroke-miterlimit="10" stroke-width="1.59"/><line x1="398.63" y1="437.61" x2="414.63" y2="437.61" fill="none" stroke="#943dc3" stroke-miterlimit="10" stroke-width="1.59"/><line x1="398.63" y1="431.91" x2="414.63" y2="431.91" fill="none" stroke="#943dc3" stroke-miterlimit="10" stroke-width="1.59"/><line x1="398.63" y1="426.22" x2="414.63" y2="426.22" fill="none" stroke="#943dc3" stroke-miterlimit="10" stroke-width="1.59"/><rect x="195.18" y="415.19" width="33.03" height="21.69" transform="translate(423.4 852.07) rotate(180)" fill="#b3b7cb" style="mix-blend-mode:multiply"/><rect x="190.96" y="411.88" width="33.03" height="21.69" transform="translate(414.95 845.44) rotate(180)" fill="#fff"/><g clip-path="url(#b)"><polyline points="212.51 422 229.12 436.31 185.3 436.31 202.66 422.02" fill="none" stroke="#dae1ff" stroke-miterlimit="10" stroke-width="1.59"/><polygon points="207.66 426.04 226.99 409.97 187.96 409.97 207.66 426.04" fill="none" stroke="#b3b7e7" stroke-miterlimit="10" stroke-width="1.59"/></g><rect x="780.63" y="391.06" width="33.03" height="21.69" transform="translate(1594.28 803.81) rotate(180)" fill="#b3b7cb" style="mix-blend-mode:multiply"/><rect x="776.4" y="387.75" width="33.03" height="21.69" transform="translate(1585.83 797.18) rotate(180)" fill="#fff"/><g clip-path="url(#c)"><polyline points="797.95 397.87 814.57 412.18 770.74 412.18 788.11 397.89" fill="none" stroke="#dae1ff" stroke-miterlimit="10" stroke-width="1.59"/><polygon points="793.1 401.9 812.43 385.84 773.4 385.84 793.1 401.9" fill="none" stroke="#b3b7e7" stroke-miterlimit="10" stroke-width="1.59"/></g><rect x="559.8" y="524.01" width="15.6" height="18.91" fill="#b3b7cb" style="mix-blend-mode:multiply"/><rect x="556.88" y="521.37" width="15.6" height="18.91" fill="#fff"/><line x1="562.75" y1="536.78" x2="566.61" y2="536.78" fill="none" stroke="#b3b7e7" stroke-miterlimit="10" stroke-width="1.59"/><line x1="559.69" y1="532.25" x2="569.66" y2="532.25" fill="none" stroke="#b3b7e7" stroke-miterlimit="10" stroke-width="1.59"/><line x1="559.69" y1="528.7" x2="569.66" y2="528.7" fill="none" stroke="#b3b7e7" stroke-miterlimit="10" stroke-width="1.59"/><line x1="559.69" y1="525.15" x2="569.66" y2="525.15" fill="none" stroke="#b3b7e7" stroke-miterlimit="10" stroke-width="1.59"/><rect x="509.62" y="524.01" width="15.6" height="18.91" fill="#b3b7cb" style="mix-blend-mode:multiply"/><rect x="506.69" y="521.37" width="15.6" height="18.91" fill="#fff"/><line x1="512.56" y1="536.78" x2="516.42" y2="536.78" fill="none" stroke="#b3b7e7" stroke-miterlimit="10" stroke-width="1.59"/><line x1="509.51" y1="532.25" x2="519.47" y2="532.25" fill="none" stroke="#b3b7e7" stroke-miterlimit="10" stroke-width="1.59"/><line x1="509.51" y1="528.7" x2="519.47" y2="528.7" fill="none" stroke="#b3b7e7" stroke-miterlimit="10" stroke-width="1.59"/><line x1="509.51" y1="525.15" x2="519.47" y2="525.15" fill="none" stroke="#b3b7e7" stroke-miterlimit="10" stroke-width="1.59"/><rect x="459.43" y="524.01" width="15.6" height="18.91" fill="#b3b7cb" style="mix-blend-mode:multiply"/><rect x="456.5" y="521.37" width="15.6" height="18.91" fill="#fff"/><line x1="462.37" y1="536.78" x2="466.23" y2="536.78" fill="none" stroke="#b3b7e7" stroke-miterlimit="10" stroke-width="1.59"/><line x1="459.32" y1="532.25" x2="469.28" y2="532.25" fill="none" stroke="#b3b7e7" stroke-miterlimit="10" stroke-width="1.59"/><line x1="459.32" y1="528.7" x2="469.28" y2="528.7" fill="none" stroke="#b3b7e7" stroke-miterlimit="10" stroke-width="1.59"/><line x1="459.32" y1="525.15" x2="469.28" y2="525.15" fill="none" stroke="#b3b7e7" stroke-miterlimit="10" stroke-width="1.59"/><rect x="718.64" y="403.84" width="25.05" height="30.36" transform="translate(1462.33 838.04) rotate(180)" fill="#b3b7e7"/><rect x="713.04" y="408.87" width="25.05" height="30.36" transform="translate(1451.14 848.1) rotate(180)" fill="#dae1ff"/><rect x="707.44" y="413.89" width="25.05" height="30.36" transform="translate(1439.94 858.15) rotate(180)" fill="#fff"/><line x1="723.07" y1="419.97" x2="716.87" y2="419.97" fill="none" stroke="#08cbff" stroke-miterlimit="10" stroke-width="1.59"/><line x1="727.97" y1="427.25" x2="711.97" y2="427.25" fill="none" stroke="#08cbff" stroke-miterlimit="10" stroke-width="1.59"/><line x1="727.97" y1="432.95" x2="711.97" y2="432.95" fill="none" stroke="#08cbff" stroke-miterlimit="10" stroke-width="1.59"/><line x1="727.97" y1="438.64" x2="711.97" y2="438.64" fill="none" stroke="#08cbff" stroke-miterlimit="10" stroke-width="1.59"/><path d="M879.31,171.85a3.77,3.77,0,0,0,4.14,1c2-.73,5.54-2.65,11-7.47l.5-.44s3.54-7-.26-12.54a.57.57,0,0,0-.81-.12c-.33.26-.86.7-1.6,1.37-1.74,1.55-4.67,4.37-9.15,9.23,0,0-2.56-10.48-3.82-15-.14-.54-.27-1-.38-1.34l-4,.93s0,.5-.08,1.37C874.67,153.13,874.49,166.34,879.31,171.85Z" fill="#9c4345"/><path d="M878.94,146.54s-2.35,2.07-4,.93a10,10,0,0,0-.89-3.11c-.74-1.52-2.49-4.62-2.42-5.87a2.49,2.49,0,0,1,.19-.66,2.35,2.35,0,0,1,.26-.49,2.07,2.07,0,0,1,.59-.59,1.68,1.68,0,0,1,.35-.2,2.66,2.66,0,0,1,.69-.2,2.9,2.9,0,0,1,.43,0h.15a.77.77,0,0,1,.69.45,20,20,0,0,0,2.35,3.93s-.43-2.32.14-2.78l.5-.07a20.93,20.93,0,0,0,1,4.1A6.93,6.93,0,0,1,878.94,146.54Z" fill="#9c4345"/><path d="M876.22,140.41s0,.05,0,0a10.2,10.2,0,0,1-2.47-4.09,2.9,2.9,0,0,1,.43,0A15.15,15.15,0,0,0,876.22,140.41Z" fill="#753233"/><path d="M875.23,141s0,0,0,0a10.1,10.1,0,0,1-2.52-4.28,1.68,1.68,0,0,1,.35-.2A15.93,15.93,0,0,0,875.23,141Z" fill="#753233"/><path d="M874.25,141.64s0,0,0,0a10.33,10.33,0,0,1-2.38-3.84,2.35,2.35,0,0,1,.26-.49A15.51,15.51,0,0,0,874.25,141.64Z" fill="#753233"/><path d="M877.24,141c-.65.44-.67,1.8-.44,2.46,0,.09.19.1.18,0a6.93,6.93,0,0,1,0-1.29,5.73,5.73,0,0,0,.25-1.13S877.26,141,877.24,141Z" fill="#753233"/><path d="M901.3,140.2s-.15-6.95,1.65-7.88c4.28-2.2,12.93,1.09,11.84,5.78s-1.49,3.37-1.49,3.37S901.65,140.8,901.3,140.2Z" fill="#3b2645"/><path d="M902.28,139.27a1.33,1.33,0,0,0-2.14,0c-1.08,1.29.75,3.76,2.14,3.87A29.05,29.05,0,0,0,902.28,139.27Z" fill="#753233"/><path d="M895.64,179.54s10.68,2.68,20.4,0c0,0,1.7-9.43,2.13-12.17a67.24,67.24,0,0,1,4.11-13.16.53.53,0,0,0-.22-.65,21,21,0,0,0-7.4-2.51,21.84,21.84,0,0,0-2.89-.23s0-.68,0-1.64c0-.65.05-1.43.1-2.23a28.42,28.42,0,0,1,.33-3.23,10,10,0,0,1-8.05,2l-.32,3.45v.06l-.14,1.42s-1.74,0-3.76.16-4.55.52-5.68,1.25C889.77,154.93,895.64,179.54,895.64,179.54Z" fill="#753233"/><path d="M902.53,135.55c-.71.74-.77,2.41-.83,4.25-.18,5.56,1.49,7.3,4.33,7.61s5.82-.79,6.43-5.95c.31-2.58.64-5-.3-6.08C910.76,133.71,904.72,133.27,902.53,135.55Z" fill="#9c4345"/><path d="M912.07,140.71s.87-2.3,2.24-1.08-.52,4.71-2.62,4.45C911.69,144.08,911.4,141.5,912.07,140.71Z" fill="#9c4345"/><path d="M927.93,201.86s-.12,1.36-.08,3.07.13,5.44-.46,6.55a2.57,2.57,0,0,1-.46.38.42.42,0,0,1-.14.09,3,3,0,0,1-1.1.43l-.11,0a3.76,3.76,0,0,1-1.1,0l-.1,0a4.1,4.1,0,0,1-1-.34,23.82,23.82,0,0,0-.48-5s-.59,2.28-1.3,2.46l-.48-.15s.35-2.52.4-3.66a7.12,7.12,0,0,1,2.39-4.62S926.93,200.14,927.93,201.86Z" fill="#9c4345"/><path d="M917.9,163.56c.36,1.11.82,2.6,1.32,4.25,1.6,5.34,3.64,12.44,4,14.63s.32,13,.29,17.34c0,1.13,0,1.82,0,1.82,1.29,2.51,4.37,1.7,4.37,1.7s.19-.9.46-2.36c.81-4.19,2.32-13,2-18.58-.14-2.78-2.34-12.72-4.41-20-1.07-3.77-2.1-6.82-2.79-7.76a3.74,3.74,0,0,0-2.73-1.58C916.53,152.74,916.58,159.41,917.9,163.56Z" fill="#9c4345"/><path d="M913.67,140.68a2,2,0,0,0-.83.54,2.58,2.58,0,0,0-.62.78c0,.1.1.15.16.1s.32-.37.49-.55a1.11,1.11,0,0,0,.4.32c.13,0,.22-.11.17-.21a1,1,0,0,0-.34-.32,5.56,5.56,0,0,0,.67-.5A.1.1,0,0,0,913.67,140.68Z" fill="#753233"/><path d="M924.48,212.37l-.1,0a37.85,37.85,0,0,0-.12-5.1,0,0,0,0,1,.07,0A12.25,12.25,0,0,1,924.48,212.37Z" fill="#753233"/><path d="M925.69,212.38l-.11,0a39.67,39.67,0,0,0-.11-5.11s0,0,.06,0A12.17,12.17,0,0,1,925.69,212.38Z" fill="#753233"/><path d="M926.93,211.86a.42.42,0,0,1-.14.09,39.07,39.07,0,0,0-.13-4.83,0,0,0,0,1,.06,0A11.7,11.7,0,0,1,926.93,211.86Z" fill="#753233"/><polygon points="915.7 264.28 910.8 264.4 910.69 255.1 915.38 254.97 915.7 264.28" fill="#b3b7e7" fill-rule="evenodd"/><polygon points="910.95 263.39 916.09 262.84 916.41 266.64 904.34 266.64 904.34 265.33 910.95 263.39" fill="#220350" fill-rule="evenodd"/><polygon points="897.96 264.28 893.05 264.4 891.36 254.62 896.05 254.49 897.96 264.28" fill="#b3b7e7" fill-rule="evenodd"/><polygon points="893.2 263.39 898.34 262.84 898.67 266.64 886.6 266.64 886.6 265.33 893.2 263.39" fill="#220350" fill-rule="evenodd"/><path d="M909.85,261.85,904.77,205l-7.69,27.21a3.45,3.45,0,0,0-.12,1l2.44,28.65h-7.65L887.1,232.3a3.4,3.4,0,0,1,0-.78l5.51-42.47s9.88,1,26.45,8.86l-2.38,63.94Z" fill="#220350"/><path d="M874.87,148.84c3.35.55,4.45-1,4.45-1,1.83,3.56,4,14.35,4,14.35l2.33-2.95s6.48-7.13,8.94-8,9.15-.68,9.15-.68l.14-1.42v-.06c2.7.28,3.59,1.6,3.59,1.6.78-.89,3.59-1.43,4.35-1.56,0,1,0,1.64,0,1.64.56,0,10.78-.11,12.92,5.12a68,68,0,0,1,3.24,10.85s3.81,12.78,3.28,17.33-2.83,17.34-2.83,17.34a4.87,4.87,0,0,1-4.88-1.68l-1.18-16.39-4.14-16c0,.17-.4,18.19.85,30.53,0,.09,0,.17-.16.25-.56.76-3,3.09-11.87,4.7l-2.26-4.4-2.38,4.4s-7.68-2.92-10-7.41a1.16,1.16,0,0,1-.4-.93c1.74-21.38,1.05-27.42,1.05-27.42l-3.55,3.18a12,12,0,0,1-1.17,1l-.12.11h0c-3.54,2.68-6.57,1.69-6.57,1.69s-4.44-.15-6.29-8.71A41.2,41.2,0,0,1,874.87,148.84Z" fill="#dae1ff"/><path d="M919.5,196.38l-1.33-29a57.17,57.17,0,0,1-1.85-16.23l-2.56-.21-.79-.06-8.11,18.44-3.56-18.7a5.21,5.21,0,0,0-1.69-.1,6.53,6.53,0,0,0-1.13.18L893,167.1l-1.63,29.28Z" fill="#b3b7e7"/><path d="M913,150.87l-8.11,18.44,7.3-7.08-1.61-2.4,2.65-.33s.48-6.76.56-8.57Z" fill="#796fbf"/><path d="M901.12,159.29l-1.71,2.1,5.45,7.92-3.56-18.7a2.9,2.9,0,0,0-1.19-.15L898.87,159Z" fill="#796fbf"/><line x1="904.53" y1="169.96" x2="904.53" y2="195.4" fill="none" stroke="#8695c2" stroke-miterlimit="10" stroke-width="0.8"/><path d="M902.83,172.51a.55.55,0,0,1,0,1.1A.55.55,0,0,1,902.83,172.51Z" fill="#8695c2"/><path d="M902.51,178.91a.53.53,0,0,1,0,1.05A.53.53,0,0,1,902.51,178.91Z" fill="#8695c2"/><path d="M902.43,185.11a.62.62,0,0,1,0,1.24A.62.62,0,0,1,902.43,185.11Z" fill="#8695c2"/><rect x="741.15" y="103.92" width="127.05" height="85.1" transform="translate(1609.36 292.94) rotate(-180)" fill="#fff" stroke="#958f9b" stroke-linecap="round" stroke-linejoin="round" stroke-width="1.6"/><g style="mix-blend-mode:multiply"><path d="M860.72,113.36H832.84" fill="none" stroke="#958f9b" stroke-linecap="round" stroke-linejoin="round" stroke-width="1.6"/><path d="M859.93,119.47H835.74" fill="none" stroke="#958f9b" stroke-linecap="round" stroke-linejoin="round" stroke-width="1.6"/><path d="M862,125.58H843.36" fill="none" stroke="#958f9b" stroke-linecap="round" stroke-linejoin="round" stroke-width="1.6"/><path d="M856.6,137.75a44.13,44.13,0,0,0-37-.89c-3.91,1.7-7.62,4-11.65,5.32a27.23,27.23,0,0,1-22.79-2.64" fill="none" stroke="#958f9b" stroke-linecap="round" stroke-linejoin="round" stroke-width="1.6"/><path d="M791.39,138.6a10.68,10.68,0,0,1-6.75.66" fill="none" stroke="#958f9b" stroke-linecap="round" stroke-linejoin="round" stroke-width="1.6"/><path d="M784.21,139.66a14.37,14.37,0,0,1,3.57,5.4" fill="none" stroke="#958f9b" stroke-linecap="round" stroke-linejoin="round" stroke-width="1.6"/><path d="M770.71,111.94a14.58,14.58,0,0,1,6,5.72,10.62,10.62,0,0,1,.91,8.3c-1.29,3.88-5.1,6.31-8.94,7a16.54,16.54,0,0,1-8.7-.73,8.61,8.61,0,0,1-3.33-2,9.67,9.67,0,0,1-2.08-4,13.25,13.25,0,0,1-.58-4.88,11,11,0,0,1,6.48-8.79,15.06,15.06,0,0,1,10.84-.2" fill="none" stroke="#958f9b" stroke-linecap="round" stroke-linejoin="round" stroke-width="1.6"/><path d="M857,171.43q-4.47-8.31-9.66-16.16" fill="none" stroke="#958f9b" stroke-linecap="round" stroke-linejoin="round" stroke-width="1.6"/><path d="M847,154.73a95.43,95.43,0,0,1-9.19,16.41" fill="none" stroke="#958f9b" stroke-linecap="round" stroke-linejoin="round" stroke-width="1.6"/><path d="M856.21,171.91l-18.4-.58" fill="none" stroke="#958f9b" stroke-linecap="round" stroke-linejoin="round" stroke-width="1.6"/><path d="M827,149.89q-.66,13.88-.44,27.79" fill="none" stroke="#958f9b" stroke-linecap="round" stroke-linejoin="round" stroke-width="1.6"/><path d="M780,149.89q-.68,13.88-.44,27.79" fill="none" stroke="#958f9b" stroke-linecap="round" stroke-linejoin="round" stroke-width="1.6"/><path d="M825.25,178h-45.1" fill="none" stroke="#958f9b" stroke-linecap="round" stroke-linejoin="round" stroke-width="1.6"/><path d="M826.81,167.56c-1.72-3-5.53-4.08-8.85-3.6s-6.35,2.19-9.46,3.52-6.58,2.29-9.78,1.26-5.77-4.09-9-5.32c-2.18-.83-7.27-.26-9.42.64" fill="none" stroke="#958f9b" stroke-linecap="round" stroke-linejoin="round" stroke-width="1.6"/><path d="M818.41,165.17v11.67" fill="none" stroke="#958f9b" stroke-linecap="round" stroke-linejoin="round" stroke-width="1.6"/><path d="M811.84,166.29V178" fill="none" stroke="#958f9b" stroke-linecap="round" stroke-linejoin="round" stroke-width="1.6"/><path d="M806.05,168.51v9.72" fill="none" stroke="#958f9b" stroke-linecap="round" stroke-linejoin="round" stroke-width="1.6"/><path d="M799.48,169.34V178" fill="none" stroke="#958f9b" stroke-linecap="round" stroke-linejoin="round" stroke-width="1.6"/><path d="M793.16,166.56v11.12" fill="none" stroke="#958f9b" stroke-linecap="round" stroke-linejoin="round" stroke-width="1.6"/><path d="M785.54,163.23v14.45" fill="none" stroke="#958f9b" stroke-linecap="round" stroke-linejoin="round" stroke-width="1.6"/><path d="M764.65,111.34l.65,12.22" fill="none" stroke="#958f9b" stroke-linecap="round" stroke-linejoin="round" stroke-width="1.6"/><path d="M765.28,123.69a38.86,38.86,0,0,1-10.77-2.38" fill="none" stroke="#958f9b" stroke-linecap="round" stroke-linejoin="round" stroke-width="1.6"/><path d="M765.07,123.9q-3.87,3.31-8,6.3" fill="none" stroke="#958f9b" stroke-linecap="round" stroke-linejoin="round" stroke-width="1.6"/><path d="M772.65,158.53,752.4,159" fill="none" stroke="#958f9b" stroke-linecap="round" stroke-linejoin="round" stroke-width="1.6"/><path d="M773.18,164.48l-20.78.37" fill="none" stroke="#958f9b" stroke-linecap="round" stroke-linejoin="round" stroke-width="1.6"/><path d="M763.45,172.4H754" fill="none" stroke="#958f9b" stroke-linecap="round" stroke-linejoin="round" stroke-width="1.6"/></g><g clip-path="url(#d)"><polyline points="590.79 550.01 1011.41 550.01 1011.41 453.69 687.79 453.72 687.79 474.38 590.79 474.38 590.79 550.01" fill="url(#e)"/><g opacity="0.4" style="mix-blend-mode:overlay"><polyline points="932.36 487.57 878.54 487.57 856.99 509.13 755.03 509.13" fill="none" stroke="#dae1ff" stroke-miterlimit="10" stroke-width="2"/><polyline points="755.03 509.13 827.43 509.13 838.35 520.05 873.3 520.05 886.5 506.85 910.62 506.85" fill="none" stroke="#dae1ff" stroke-miterlimit="10" stroke-width="2"/><line x1="843.45" y1="487.82" x2="735.83" y2="487.82" fill="none" stroke="#dae1ff" stroke-miterlimit="10" stroke-width="2"/><polyline points="825.26 468.26 717.64 468.26 693.76 492.14 672.44 492.14" fill="none" stroke="#dae1ff" stroke-miterlimit="10" stroke-width="2"/><polyline points="955.97 487.82 955.97 512.02 932.27 512.02 932.27 532.14" fill="none" stroke="#dae1ff" stroke-miterlimit="10" stroke-width="2"/><line x1="955.97" y1="468.27" x2="848.35" y2="468.27" fill="none" stroke="#dae1ff" stroke-miterlimit="10" stroke-width="2"/><polyline points="910.39 533.47 799.21 532.8 792.37 525.95 649.83 525.95" fill="none" stroke="#dae1ff" stroke-miterlimit="10" stroke-width="2"/><polyline points="648.74 491.83 631.75 491.83 631.75 533.47 611.44 533.47" fill="none" stroke="#dae1ff" stroke-miterlimit="10" stroke-width="2"/><line x1="611.44" y1="491.94" x2="611.44" y2="517.84" fill="none" stroke="#dae1ff" stroke-miterlimit="10" stroke-width="2"/><line x1="732.94" y1="508.89" x2="648.74" y2="508.89" fill="none" stroke="#dae1ff" stroke-miterlimit="10" stroke-width="2"/><circle cx="955.97" cy="487.82" r="2.72" fill="#dae1ff"/><circle cx="955.97" cy="533.47" r="2.72" fill="#dae1ff"/><circle cx="611.44" cy="533.47" r="2.72" fill="#dae1ff"/><circle cx="611.44" cy="517.84" r="2.72" fill="#dae1ff"/><circle cx="611.44" cy="491.94" r="2.72" fill="#dae1ff"/><circle cx="932.36" cy="487.58" r="2.72" fill="#dae1ff"/><circle cx="932.36" cy="533.47" r="2.72" fill="#dae1ff"/><circle cx="755.03" cy="508.89" r="2.72" fill="#dae1ff"/><circle cx="843.45" cy="487.82" r="2.72" fill="#dae1ff"/><circle cx="735.83" cy="487.82" r="2.72" fill="#dae1ff"/><circle cx="825.26" cy="468.27" r="2.72" fill="#dae1ff"/><circle cx="672.44" cy="491.83" r="2.72" fill="#dae1ff"/><circle cx="955.97" cy="468.27" r="2.72" fill="#dae1ff"/><circle cx="848.35" cy="468.27" r="2.72" fill="#dae1ff"/><circle cx="910.39" cy="533.47" r="2.72" fill="#dae1ff"/><circle cx="910.39" cy="506.85" r="2.72" fill="#dae1ff"/><circle cx="648.74" cy="525.95" r="2.72" fill="#dae1ff"/><circle cx="648.74" cy="508.89" r="2.72" fill="#dae1ff"/><circle cx="732.94" cy="508.89" r="2.72" fill="#dae1ff"/><circle cx="648.74" cy="491.83" r="2.72" fill="#dae1ff"/></g><g opacity="0.4" style="mix-blend-mode:overlay"><polyline points="995.44 487.57 1049.25 487.57 1070.81 509.13 1172.77 509.13" fill="none" stroke="#dae1ff" stroke-miterlimit="10" stroke-width="1.59"/><polyline points="971.83 487.82 971.83 512.02 995.53 512.02 995.53 532.14" fill="none" stroke="#dae1ff" stroke-miterlimit="10" stroke-width="1.59"/><line x1="971.83" y1="468.27" x2="1079.45" y2="468.27" fill="none" stroke="#dae1ff" stroke-miterlimit="10" stroke-width="1.59"/><circle cx="971.83" cy="487.82" r="2.72" fill="#dae1ff"/><circle cx="971.83" cy="533.47" r="2.72" fill="#dae1ff"/><circle cx="995.44" cy="487.58" r="2.72" fill="#dae1ff"/><circle cx="995.44" cy="533.47" r="2.72" fill="#dae1ff"/><circle cx="971.83" cy="468.27" r="2.72" fill="#dae1ff"/></g><polyline points="1014.68 453.69 687.71 453.72 687.71 474.38 590.79 474.38 590.79 550.01" fill="none" stroke="#fff" stroke-miterlimit="10" stroke-width="2"/></g></g></svg>