<svg xmlns="http://www.w3.org/2000/svg" xmlns:xlink="http://www.w3.org/1999/xlink" width="142.04" height="32.61" viewBox="0 0 142.04 32.61"><defs><linearGradient id="m" y1="16.31" x2="142.04" y2="16.31" gradientUnits="userSpaceOnUse"><stop offset="0" stop-color="#510076"/><stop offset="0.11" stop-color="#4d0a7d"/><stop offset="0.29" stop-color="#412591"/><stop offset="0.53" stop-color="#2e51b2"/><stop offset="0.81" stop-color="#148dde"/><stop offset="1" stop-color="#00baff"/></linearGradient></defs><rect width="142.04" height="32.61" rx="16.31" fill="url(#m)"/><path d="M29,11.24v.42H27.75v-.51c0-2.07-.79-3.64-2.92-3.64s-2.91,1.54-2.91,3.62C21.92,15.89,29,16,29,21.37c0,2.83-1.24,4.9-4.23,4.9s-4.23-2.07-4.23-4.9v-1h1.23v1.09c0,2.1.81,3.61,3,3.61s3-1.51,3-3.61c0-4.71-7.09-4.79-7.09-10.25,0-2.94,1.29-4.84,4.18-4.87S29,8.41,29,11.24Z" fill="#fff"/><path d="M35.19,18.57,30.8,6.51h1.34l3.75,10.3,3.76-10.3h1.26L36.48,18.57v7.54H35.19Z" fill="#fff"/><path d="M44.24,26.11H43.06V6.51h1.68l5.88,16.54V6.51H51.8v19.6H50.37L44.24,8.63Z" fill="#fff"/><path d="M54.21,11.29c0-2.85,1.31-4.95,4.28-4.95s4.34,2.1,4.34,4.95v10c0,2.85-1.32,4.95-4.34,4.95s-4.28-2.1-4.28-4.95ZM55.49,21.4c0,2.13.84,3.7,3,3.7s3-1.57,3-3.7V11.21c0-2.13-.87-3.7-3-3.7s-3,1.57-3,3.7Z" fill="#fff"/><path d="M69.3,6.51c3,0,4.2,1.9,4.2,4.76v2.12C73.5,16.5,72.07,18,69,18H66.53v8.07H65.24V6.51ZM69,16.87c2.27,0,3.25-1,3.25-3.39v-2.3c0-2.13-.73-3.5-2.91-3.5H66.53v9.19Z" fill="#fff"/><path d="M84,11.24v.42H82.74v-.51c0-2.07-.79-3.64-2.91-3.64s-2.92,1.54-2.92,3.62C76.91,15.89,84,16,84,21.37c0,2.83-1.24,4.9-4.23,4.9s-4.23-2.07-4.23-4.9v-1h1.23v1.09c0,2.1.81,3.61,3,3.61s3-1.51,3-3.61c0-4.71-7.08-4.79-7.08-10.25,0-2.94,1.28-4.84,4.17-4.87S84,8.41,84,11.24Z" fill="#fff"/><path d="M92.26,16.89v9.22H91V6.51h1.29v9.21h6.1V6.51h1.32v19.6H98.36V16.89Z" fill="#fff"/><path d="M103.43,21.37c0,2.1.78,3.73,2.94,3.73s2.94-1.63,2.94-3.73V6.51h1.2V21.32c0,2.8-1.17,4.95-4.17,4.95s-4.2-2.15-4.2-4.95V6.51h1.29Z" fill="#fff"/><path d="M117.12,6.51c2.94,0,4,1.45,4,4.17V11.8c0,2.13-.58,3.44-2.57,3.86,2.13.42,2.94,2,2.94,4.2v1.71c0,2.83-1.29,4.54-4.29,4.54H113V6.51Zm-.64,8.65c2.29,0,3.36-.62,3.36-3.11V10.79c0-2-.65-3.11-2.75-3.11h-2.8v7.48Zm.72,9.77c2.16,0,3-1.2,3-3.39V19.78c0-2.55-1.15-3.45-3.47-3.45h-2.44v8.6Z" fill="#fff"/></svg>